<svg width="366" height="180" viewBox="0 0 366 180" fill="none" xmlns="http://www.w3.org/2000/svg">
<mask id="mask0_1044_481" style="mask-type:alpha" maskUnits="userSpaceOnUse" x="0" y="0" width="366" height="180">
<rect width="366" height="180" fill="#D9D9D9"/>
</mask>
<g mask="url(#mask0_1044_481)">
<g clip-path="url(#clip0_1044_481)">
<path d="M457.12 74.5C480.22 74.5 491.96 78.1 503.32 81.59C514.44 85 525.94 88.54 548.55 88.54V91.84C525.45 91.84 513.71 88.24 502.35 84.75C491.23 81.34 479.73 77.8 457.12 77.8C434.51 77.8 423.01 81.33 411.89 84.75C400.54 88.24 388.8 91.84 365.69 91.84V88.54C388.3 88.54 399.8 85.01 410.92 81.59C422.27 78.1 434.01 74.5 457.12 74.5Z" fill="#B6D5EC"/>
<path d="M457.12 80.9785C480.21 80.9785 491.94 84.5785 503.29 88.0685C514.42 91.4885 525.92 95.0185 548.54 95.0185V98.1385C525.45 98.1385 513.72 94.5385 502.37 91.0485C491.24 87.6285 479.74 84.0985 457.12 84.0985C434.5 84.0985 422.99 87.6285 411.87 91.0485C400.52 94.5285 388.79 98.1385 365.7 98.1385V95.0185C388.32 95.0185 399.83 91.4885 410.95 88.0685C422.3 84.5885 434.03 80.9785 457.12 80.9785Z" fill="#B6D5EC"/>
<path d="M457.12 87.4492C480.2 87.4492 491.92 91.0492 503.26 94.5292C514.39 97.9492 525.9 101.479 548.54 101.479V104.419C525.46 104.419 513.74 100.819 502.4 97.3392C491.27 93.9192 479.76 90.3892 457.12 90.3892C434.48 90.3892 422.97 93.9292 411.84 97.3392C400.5 100.819 388.77 104.419 365.7 104.419V101.479C388.34 101.479 399.85 97.9392 410.98 94.5292C422.32 91.0492 434.05 87.4492 457.12 87.4492Z" fill="#B6D5EC"/>
<path d="M457.12 93.9297C480.18 93.9297 491.9 97.5297 503.24 101.01C514.38 104.43 525.9 107.97 548.55 107.97V110.72C525.49 110.72 513.77 107.12 502.43 103.64C491.29 100.22 479.77 96.6797 457.12 96.6797C434.47 96.6797 422.95 100.22 411.81 103.64C400.48 107.12 388.76 110.72 365.69 110.72V107.97C388.34 107.97 399.86 104.43 411 101.01C422.33 97.5297 434.05 93.9297 457.12 93.9297Z" fill="#B6D5EC"/>
<path d="M457.12 100.408C480.17 100.408 491.88 104.008 503.21 107.488C514.36 110.908 525.88 114.448 548.54 114.448V117.018C525.49 117.018 513.78 113.418 502.45 109.938C491.3 106.518 479.78 102.978 457.12 102.978C434.46 102.978 422.93 106.518 411.79 109.938C400.46 113.418 388.75 117.018 365.7 117.018V114.448C388.36 114.448 399.89 110.908 411.04 107.488C422.37 104.008 434.08 100.408 457.13 100.408H457.12Z" fill="#B6D5EC"/>
<path d="M457.12 106.879C480.16 106.879 491.86 110.469 503.18 113.949C514.33 117.369 525.86 120.919 548.54 120.919V123.309C525.5 123.309 513.8 119.719 502.48 116.239C491.33 112.819 479.8 109.269 457.12 109.269C434.44 109.269 422.91 112.809 411.76 116.239C400.44 119.719 388.73 123.309 365.7 123.309V120.919C388.38 120.919 399.91 117.379 411.06 113.949C422.38 110.469 434.09 106.879 457.12 106.879Z" fill="#B6D5EC"/>
<path d="M457.12 113.359C480.14 113.359 491.84 116.949 503.15 120.429C514.31 123.859 525.85 127.399 548.54 127.399V129.599C525.52 129.599 513.82 126.009 502.51 122.529C491.35 119.099 479.81 115.559 457.12 115.559C434.43 115.559 422.89 119.099 411.73 122.529C400.42 126.009 388.72 129.599 365.69 129.599V127.399C388.38 127.399 399.92 123.859 411.08 120.429C422.39 116.949 434.09 113.359 457.11 113.359H457.12Z" fill="#B6D5EC"/>
<path d="M457.12 119.84C480.13 119.84 491.82 123.43 503.13 126.9C514.3 130.33 525.84 133.87 548.54 133.87V135.89C525.53 135.89 513.84 132.3 502.53 128.83C491.36 125.4 479.82 121.86 457.12 121.86C434.42 121.86 422.87 125.41 411.71 128.83C400.4 132.3 388.71 135.89 365.7 135.89V133.87C388.4 133.87 399.95 130.32 411.12 126.9C422.43 123.43 434.12 119.84 457.13 119.84H457.12Z" fill="#B6D5EC"/>
<path d="M457.12 126.309C480.11 126.309 491.8 129.899 503.1 133.369C514.27 136.799 525.82 140.349 548.54 140.349V142.189C525.55 142.189 513.86 138.599 502.56 135.129C491.39 131.699 479.84 128.149 457.12 128.149C434.4 128.149 422.85 131.699 411.68 135.129C400.38 138.599 388.69 142.189 365.7 142.189V140.349C388.42 140.349 399.97 136.799 411.14 133.369C422.44 129.899 434.13 126.309 457.12 126.309Z" fill="#B6D5EC"/>
<path d="M457.12 132.789C480.1 132.789 491.78 136.379 503.07 139.839C514.25 143.269 525.81 146.819 548.54 146.819V148.479C525.56 148.479 513.88 144.889 502.59 141.429C491.41 137.999 479.85 134.449 457.12 134.449C434.39 134.449 422.83 137.999 411.65 141.429C400.36 144.899 388.68 148.479 365.69 148.479V146.819C388.42 146.819 399.98 143.269 411.16 139.839C422.45 136.369 434.13 132.789 457.11 132.789H457.12Z" fill="#B6D5EC"/>
<path d="M457.12 139.27C480.09 139.27 491.76 142.85 503.05 146.32C514.23 149.75 525.8 153.31 548.55 153.31V154.78C525.58 154.78 513.91 151.2 502.62 147.73C491.44 144.3 479.87 140.74 457.12 140.74C434.37 140.74 422.81 144.29 411.62 147.73C400.33 151.2 388.66 154.78 365.69 154.78V153.31C388.44 153.31 400 149.76 411.19 146.32C422.48 142.85 434.15 139.27 457.12 139.27Z" fill="#B6D5EC"/>
<path d="M457.12 145.738C480.07 145.738 491.74 149.318 503.02 152.788C514.21 156.228 525.78 159.778 548.54 159.778V161.068C525.59 161.068 513.92 157.488 502.64 154.018C491.45 150.578 479.88 147.028 457.12 147.028C434.36 147.028 422.79 150.578 411.6 154.018C400.32 157.478 388.65 161.068 365.7 161.068V159.778C388.46 159.778 400.03 156.228 411.22 152.788C422.5 149.328 434.17 145.738 457.12 145.738Z" fill="#B6D5EC"/>
<path d="M457.12 152.219C480.06 152.219 491.72 155.799 502.99 159.259C514.19 162.699 525.77 166.249 548.54 166.249V167.359C525.6 167.359 513.94 163.779 502.67 160.319C491.47 156.879 479.89 153.329 457.12 153.329C434.35 153.329 422.77 156.889 411.57 160.319C400.29 163.779 388.63 167.359 365.7 167.359V166.249C388.47 166.249 400.05 162.689 411.25 159.259C422.53 155.799 434.19 152.219 457.12 152.219Z" fill="#B6D5EC"/>
<path d="M457.12 158.689C480.04 158.689 491.7 162.269 502.97 165.729C514.17 169.169 525.76 172.729 548.55 172.729V173.659C525.62 173.659 513.97 170.079 502.7 166.619C491.5 163.179 479.91 159.619 457.12 159.619C434.33 159.619 422.75 163.179 411.54 166.619C400.27 170.079 388.62 173.659 365.69 173.659V172.729C388.48 172.729 400.06 169.169 411.27 165.729C422.54 162.269 434.19 158.689 457.12 158.689Z" fill="#B6D5EC"/>
<path d="M457.12 165.17C480.03 165.17 491.68 168.75 502.94 172.21C514.15 175.65 525.74 179.21 548.54 179.21V179.95C525.63 179.95 513.98 176.37 502.72 172.91C491.51 169.47 479.92 165.91 457.12 165.91C434.32 165.91 422.73 169.47 411.52 172.91C400.26 176.37 388.61 179.95 365.7 179.95V179.21C388.5 179.21 400.09 175.65 411.3 172.21C422.56 168.75 434.21 165.18 457.12 165.18V165.17Z" fill="#B6D5EC"/>
<path d="M91.42 74.5C114.52 74.5 126.26 78.1 137.62 81.59C148.74 85 160.24 88.54 182.85 88.54V91.84C159.75 91.84 148.01 88.24 136.65 84.75C125.53 81.34 114.03 77.8 91.42 77.8C68.81 77.8 57.31 81.33 46.19 84.75C34.84 88.23 23.1 91.84 0 91.84V88.54C22.61 88.54 34.11 85.01 45.23 81.59C56.58 78.1 68.32 74.5 91.43 74.5H91.42Z" fill="#B6D5EC"/>
<path d="M91.42 80.9788C114.51 80.9788 126.24 84.5787 137.59 88.0687C148.72 91.4887 160.22 95.0188 182.84 95.0188V98.1387C159.75 98.1387 148.02 94.5388 136.67 91.0488C125.54 87.6288 114.04 84.0988 91.42 84.0988C68.8 84.0988 57.29 87.6288 46.17 91.0488C34.82 94.5288 23.09 98.1288 0 98.1288V95.0088C22.62 95.0088 34.13 91.4788 45.25 88.0588C56.6 84.5788 68.33 80.9688 91.42 80.9688V80.9788Z" fill="#B6D5EC"/>
<path d="M91.42 87.4492C114.5 87.4492 126.22 91.0492 137.56 94.5292C148.69 97.9492 160.2 101.479 182.84 101.479V104.419C159.76 104.419 148.04 100.819 136.7 97.3392C125.57 93.9192 114.06 90.3892 91.42 90.3892C68.78 90.3892 57.27 93.9292 46.14 97.3392C34.8 100.819 23.08 104.429 0 104.429V101.489C22.64 101.489 34.15 97.9492 45.28 94.5392C56.62 91.0592 68.35 87.4592 91.42 87.4592V87.4492Z" fill="#B6D5EC"/>
<path d="M91.42 93.9297C114.48 93.9297 126.2 97.5297 137.54 101.01C148.68 104.43 160.2 107.97 182.85 107.97V110.72C159.79 110.72 148.07 107.12 136.73 103.64C125.59 100.22 114.07 96.6797 91.42 96.6797C68.77 96.6797 57.25 100.22 46.11 103.64C34.78 107.12 23.06 110.72 0 110.72V107.97C22.65 107.97 34.17 104.43 45.31 101.01C56.64 97.5297 68.36 93.9297 91.43 93.9297H91.42Z" fill="#B6D5EC"/>
<path d="M91.42 100.408C114.47 100.408 126.18 104.008 137.51 107.488C148.66 110.908 160.18 114.448 182.84 114.448V117.018C159.79 117.018 148.08 113.418 136.75 109.938C125.6 106.518 114.08 102.978 91.42 102.978C68.76 102.978 57.23 106.518 46.09 109.938C34.76 113.418 23.05 117.008 0 117.008V114.438C22.66 114.438 34.19 110.898 45.33 107.478C56.66 103.998 68.37 100.398 91.42 100.398V100.408Z" fill="#B6D5EC"/>
<path d="M91.42 106.879C114.46 106.879 126.16 110.469 137.48 113.949C148.63 117.369 160.16 120.919 182.84 120.919V123.309C159.8 123.309 148.1 119.719 136.78 116.239C125.63 112.819 114.1 109.269 91.42 109.269C68.74 109.269 57.21 112.809 46.06 116.239C34.74 119.709 23.04 123.309 0 123.309V120.919C22.68 120.919 34.21 117.379 45.36 113.949C56.68 110.469 68.39 106.879 91.42 106.879Z" fill="#B6D5EC"/>
<path d="M91.42 113.359C114.44 113.359 126.14 116.949 137.45 120.429C148.61 123.859 160.15 127.399 182.84 127.399V129.599C159.82 129.599 148.12 126.009 136.81 122.529C125.65 119.099 114.11 115.559 91.42 115.559C68.73 115.559 57.19 119.099 46.03 122.529C34.72 126.009 23.02 129.599 0 129.599V127.399C22.69 127.399 34.23 123.859 45.39 120.429C56.7 116.949 68.4 113.359 91.42 113.359Z" fill="#B6D5EC"/>
<path d="M91.42 119.84C114.43 119.84 126.12 123.43 137.43 126.9C148.6 130.33 160.14 133.87 182.84 133.87V135.89C159.83 135.89 148.14 132.3 136.83 128.83C125.66 125.4 114.12 121.86 91.42 121.86C68.72 121.86 57.17 125.41 46.01 128.83C34.7 132.3 23.01 135.89 0 135.89V133.87C22.7 133.87 34.25 130.32 45.41 126.9C56.72 123.43 68.41 119.84 91.42 119.84Z" fill="#B6D5EC"/>
<path d="M91.42 126.309C114.41 126.309 126.1 129.899 137.4 133.369C148.57 136.799 160.12 140.349 182.84 140.349V142.189C159.85 142.189 148.16 138.599 136.86 135.129C125.69 131.699 114.14 128.149 91.42 128.149C68.7 128.149 57.15 131.699 45.98 135.129C34.68 138.599 22.99 142.189 0 142.189V140.349C22.72 140.349 34.27 136.799 45.44 133.369C56.74 129.899 68.43 126.309 91.42 126.309Z" fill="#B6D5EC"/>
<path d="M91.42 132.789C114.4 132.789 126.08 136.379 137.37 139.839C148.55 143.269 160.11 146.819 182.84 146.819V148.479C159.86 148.479 148.18 144.889 136.89 141.429C125.71 137.999 114.15 134.449 91.42 134.449C68.69 134.449 57.13 137.999 45.95 141.429C34.66 144.899 22.98 148.479 0 148.479V146.819C22.73 146.819 34.29 143.269 45.47 139.839C56.76 136.369 68.44 132.789 91.42 132.789Z" fill="#B6D5EC"/>
<path d="M91.42 139.27C114.39 139.27 126.06 142.85 137.35 146.32C148.53 149.75 160.1 153.31 182.85 153.31V154.78C159.88 154.78 148.21 151.2 136.92 147.73C125.74 144.3 114.17 140.74 91.42 140.74C68.67 140.74 57.11 144.29 45.92 147.73C34.64 151.19 22.97 154.78 0 154.78V153.31C22.75 153.31 34.31 149.76 45.5 146.32C56.79 142.85 68.46 139.27 91.43 139.27H91.42Z" fill="#B6D5EC"/>
<path d="M91.42 145.738C114.37 145.738 126.04 149.318 137.32 152.788C148.51 156.228 160.08 159.778 182.84 159.778V161.068C159.89 161.068 148.22 157.488 136.94 154.018C125.75 150.578 114.18 147.028 91.42 147.028C68.66 147.028 57.09 150.578 45.9 154.018C34.62 157.488 22.95 161.068 0 161.068V159.778C22.76 159.778 34.33 156.228 45.52 152.788C56.8 149.328 68.47 145.738 91.42 145.738Z" fill="#B6D5EC"/>
<path d="M91.42 152.219C114.36 152.219 126.02 155.799 137.29 159.259C148.49 162.699 160.07 166.249 182.84 166.249V167.359C159.9 167.359 148.24 163.779 136.97 160.319C125.77 156.879 114.19 153.329 91.42 153.329C68.65 153.329 57.07 156.889 45.87 160.319C34.6 163.779 22.94 167.359 0 167.359V166.249C22.77 166.249 34.35 162.689 45.55 159.259C56.83 155.799 68.49 152.219 91.42 152.219Z" fill="#B6D5EC"/>
<path d="M91.42 158.689C114.34 158.689 126 162.269 137.27 165.729C148.47 169.169 160.06 172.729 182.85 172.729V173.659C159.92 173.659 148.27 170.079 137 166.619C125.8 163.179 114.21 159.619 91.42 159.619C68.63 159.619 57.05 163.179 45.84 166.619C34.58 170.079 22.93 173.659 0 173.659V172.729C22.79 172.729 34.37 169.169 45.58 165.729C56.85 162.269 68.5 158.689 91.43 158.689H91.42Z" fill="#B6D5EC"/>
<path d="M91.42 165.17C114.33 165.17 125.98 168.75 137.24 172.2C148.45 175.64 160.04 179.2 182.84 179.2V179.94C159.93 179.94 148.28 176.36 137.02 172.9C125.81 169.46 114.22 165.9 91.42 165.9C68.62 165.9 57.03 169.46 45.82 172.9C34.56 176.38 22.91 179.95 0 179.95V179.21C22.8 179.21 34.39 175.65 45.6 172.21C56.86 168.75 68.51 165.17 91.42 165.17Z" fill="#B6D5EC"/>
<path d="M182.85 87.7285C205.95 87.7285 217.69 91.3285 229.05 94.8185C240.17 98.2285 251.67 101.769 274.28 101.769C296.89 101.769 308.39 98.2385 319.51 94.8185C330.86 91.3285 342.6 87.7285 365.71 87.7285V91.0285C343.1 91.0285 331.6 94.5585 320.48 97.9785C309.13 101.469 297.39 105.069 274.28 105.069C251.17 105.069 239.44 101.469 228.08 97.9785C216.96 94.5685 205.46 91.0285 182.85 91.0285V87.7285Z" fill="#B6D5EC"/>
<path d="M182.85 81.4395C205.94 81.4395 217.67 85.0395 229.02 88.5295C240.15 91.9495 251.65 95.4795 274.27 95.4795C296.89 95.4795 308.4 91.9495 319.52 88.5295C330.87 85.0495 342.6 81.4395 365.69 81.4395V84.5595C343.07 84.5595 331.56 88.0895 320.44 91.5095C309.09 94.9895 297.36 98.5995 274.27 98.5995C251.18 98.5995 239.45 94.9995 228.1 91.5095C216.97 88.0895 205.47 84.5595 182.85 84.5595V81.4395Z" fill="#B6D5EC"/>
<path d="M182.85 75.1484C205.93 75.1484 217.65 78.7484 228.99 82.2284C240.12 85.6484 251.63 89.1784 274.27 89.1784C296.91 89.1784 308.42 85.6384 319.55 82.2284C330.89 78.7484 342.62 75.1484 365.69 75.1484V78.0884C343.05 78.0884 331.54 81.6284 320.41 85.0384C309.07 88.5184 297.34 92.1184 274.27 92.1184C251.2 92.1184 239.47 88.5184 228.13 85.0384C217 81.6184 205.49 78.0884 182.85 78.0884V75.1484Z" fill="#B6D5EC"/>
<path d="M182.85 68.8496C205.91 68.8496 217.63 72.4496 228.97 75.9296C240.11 79.3496 251.63 82.8896 274.28 82.8896C296.93 82.8896 308.45 79.3496 319.59 75.9296C330.92 72.4496 342.64 68.8496 365.71 68.8496V71.5996C343.06 71.5996 331.54 75.1396 320.4 78.5596C309.07 82.0396 297.35 85.6396 274.28 85.6396C251.21 85.6396 239.5 82.0396 228.16 78.5596C217.02 75.1396 205.5 71.5996 182.85 71.5996V68.8496Z" fill="#B6D5EC"/>
<path d="M182.85 62.5586C205.9 62.5586 217.61 66.1586 228.94 69.6386C240.09 73.0586 251.61 76.5986 274.27 76.5986C296.93 76.5986 308.46 73.0586 319.6 69.6386C330.93 66.1586 342.64 62.5586 365.69 62.5586V65.1286C343.03 65.1286 331.5 68.6686 320.36 72.0886C309.03 75.5686 297.32 79.1686 274.27 79.1686C251.22 79.1686 239.51 75.5686 228.18 72.0886C217.03 68.6686 205.51 65.1286 182.85 65.1286V62.5586Z" fill="#B6D5EC"/>
<path d="M182.85 56.2695C205.89 56.2695 217.59 59.8595 228.91 63.3395C240.06 66.7595 251.59 70.3095 274.27 70.3095C296.95 70.3095 308.48 66.7695 319.63 63.3395C330.95 59.8595 342.66 56.2695 365.69 56.2695V58.6595C343.01 58.6595 331.48 62.1995 320.33 65.6295C309.01 69.1095 297.3 72.6995 274.27 72.6995C251.24 72.6995 239.53 69.1095 228.21 65.6295C217.06 62.2095 205.53 58.6595 182.85 58.6595V56.2695Z" fill="#B6D5EC"/>
<path d="M182.85 49.9688C205.87 49.9688 217.57 53.5587 228.88 57.0387C240.04 60.4687 251.58 64.0088 274.27 64.0088C296.96 64.0088 308.5 60.4687 319.66 57.0387C330.97 53.5687 342.67 49.9688 365.69 49.9688V52.1688C343 52.1688 331.46 55.7088 320.3 59.1388C308.99 62.6088 297.29 66.2087 274.27 66.2087C251.25 66.2087 239.55 62.6188 228.24 59.1388C217.08 55.7088 205.54 52.1688 182.85 52.1688V49.9688Z" fill="#B6D5EC"/>
<path d="M182.85 43.6797C205.86 43.6797 217.55 47.2697 228.86 50.7397C240.03 54.1697 251.57 57.7097 274.27 57.7097C296.97 57.7097 308.52 54.1597 319.68 50.7397C330.99 47.2697 342.68 43.6797 365.69 43.6797V45.6997C342.99 45.6997 331.44 49.2497 320.28 52.6697C308.97 56.1397 297.28 59.7297 274.27 59.7297C251.26 59.7297 239.57 56.1397 228.26 52.6697C217.09 49.2397 205.55 45.6997 182.85 45.6997V43.6797Z" fill="#B6D5EC"/>
<path d="M182.85 37.3789C205.84 37.3789 217.53 40.9689 228.83 44.4389C240 47.8689 251.55 51.4189 274.27 51.4189C296.99 51.4189 308.54 47.8689 319.71 44.4389C331.01 40.9689 342.7 37.3789 365.69 37.3789V39.2189C342.97 39.2189 331.42 42.7689 320.25 46.1989C308.95 49.6689 297.26 53.2589 274.27 53.2589C251.28 53.2589 239.59 49.6689 228.29 46.1989C217.12 42.7689 205.57 39.2189 182.85 39.2189V37.3789Z" fill="#B6D5EC"/>
<path d="M182.85 31.0898C205.83 31.0898 217.51 34.6798 228.8 38.1398C239.98 41.5698 251.54 45.1198 274.27 45.1198C297 45.1198 308.56 41.5698 319.74 38.1398C331.03 34.6698 342.71 31.0898 365.69 31.0898V32.7498C342.96 32.7498 331.4 36.2998 320.22 39.7298C308.93 43.1998 297.25 46.7798 274.27 46.7798C251.29 46.7798 239.61 43.1898 228.32 39.7298C217.14 36.2998 205.58 32.7498 182.85 32.7498V31.0898Z" fill="#B6D5EC"/>
<path d="M182.85 24.7988C205.82 24.7988 217.49 28.3788 228.78 31.8488C239.96 35.2788 251.53 38.8388 274.28 38.8388C297.03 38.8388 308.59 35.2888 319.78 31.8488C331.07 28.3788 342.74 24.7988 365.71 24.7988V26.2688C342.96 26.2688 331.4 29.8188 320.21 33.2588C308.92 36.7288 297.25 40.3088 274.28 40.3088C251.31 40.3088 239.64 36.7288 228.35 33.2588C217.17 29.8288 205.6 26.2688 182.85 26.2688V24.7988Z" fill="#B6D5EC"/>
<path d="M182.85 18.5C205.8 18.5 217.47 22.08 228.75 25.55C239.94 28.99 251.51 32.54 274.27 32.54C297.03 32.54 308.6 28.99 319.79 25.55C331.07 22.09 342.74 18.5 365.69 18.5V19.79C342.93 19.79 331.36 23.34 320.17 26.78C308.89 30.24 297.22 33.83 274.27 33.83C251.32 33.83 239.65 30.25 228.37 26.78C217.18 23.34 205.61 19.79 182.85 19.79V18.5Z" fill="#B6D5EC"/>
<path d="M182.85 12.209C205.79 12.209 217.45 15.789 228.72 19.249C239.92 22.689 251.5 26.239 274.27 26.239C297.04 26.239 308.62 22.679 319.82 19.249C331.1 15.789 342.76 12.209 365.69 12.209V13.319C342.92 13.319 331.34 16.879 320.14 20.309C308.86 23.769 297.2 27.349 274.27 27.349C251.33 27.349 239.67 23.769 228.4 20.309C217.2 16.869 205.62 13.319 182.85 13.319V12.209Z" fill="#B6D5EC"/>
<path d="M182.85 5.9082C205.78 5.9082 217.43 9.4882 228.7 12.9482C239.9 16.3882 251.49 19.9482 274.28 19.9482C297.07 19.9482 308.65 16.3882 319.86 12.9482C331.13 9.4882 342.78 5.9082 365.71 5.9082V6.8382C342.92 6.8382 331.34 10.3982 320.13 13.8382C308.86 17.2982 297.21 20.8782 274.28 20.8782C251.35 20.8782 239.7 17.2982 228.43 13.8382C217.23 10.3982 205.64 6.8382 182.85 6.8382V5.9082Z" fill="#B6D5EC"/>
<path d="M182.85 -0.380859C205.76 -0.380859 217.41 3.19914 228.67 6.65914C239.88 10.0991 251.47 13.6591 274.27 13.6591C297.07 13.6591 308.66 10.0991 319.87 6.65914C331.14 3.19914 342.78 -0.380859 365.69 -0.380859V0.359141C342.89 0.359141 331.3 3.91914 320.09 7.35914C308.83 10.8191 297.18 14.3991 274.27 14.3991C251.36 14.3991 239.71 10.8191 228.45 7.35914C217.24 3.91914 205.65 0.359141 182.85 0.359141V-0.380859Z" fill="#B6D5EC"/>
</g>
</g>
<defs>
<clipPath id="clip0_1044_481">
<rect width="1279.93" height="180.33" fill="white" transform="translate(0 -0.380859)"/>
</clipPath>
</defs>
</svg>
