<svg width="366" height="164" viewBox="0 0 366 164" fill="none" xmlns="http://www.w3.org/2000/svg">
<mask id="mask0_1170_1105" style="mask-type:luminance" maskUnits="userSpaceOnUse" x="0" y="0" width="366" height="164">
<path d="M366 0H0V164H366V0Z" fill="white"/>
</mask>
<g mask="url(#mask0_1170_1105)">
<path d="M456.97 76.0898C480.09 76.0898 491.83 79.7147 503.19 83.2191C514.32 86.6532 525.82 90.1977 548.44 90.1977V93.5113C525.32 93.5113 513.58 89.8865 502.22 86.3821C491.09 82.948 479.59 79.4034 456.97 79.4034C434.35 79.4034 422.85 82.948 411.72 86.3821C400.36 89.8865 388.61 93.5113 365.5 93.5113V90.1977C388.12 90.1977 399.63 86.6532 410.75 83.2191C422.11 79.7147 433.86 76.0999 456.97 76.0999V76.0898Z" fill="#B6D5EC"/>
<path d="M456.97 82.5957C480.07 82.5957 491.81 86.2105 503.16 89.7149C514.29 93.149 525.8 96.6936 548.44 96.6936V99.8264C525.34 99.8264 513.6 96.2116 502.25 92.7072C491.12 89.2731 479.61 85.7286 456.97 85.7286C434.34 85.7286 422.82 89.2831 411.69 92.7072C400.34 96.2116 388.6 99.8264 365.5 99.8264V96.6936C388.13 96.6936 399.65 93.139 410.78 89.7149C422.13 86.2105 433.87 82.5957 456.97 82.5957Z" fill="#B6D5EC"/>
<path d="M456.97 89.1035C480.06 89.1035 491.79 92.7184 503.14 96.2227C514.28 99.6568 525.8 103.211 548.44 103.211V106.164C525.35 106.164 513.62 102.549 502.27 99.0443C491.13 95.6102 479.61 92.0556 456.97 92.0556C434.32 92.0556 422.8 95.6102 411.67 99.0443C400.32 102.539 388.59 106.164 365.5 106.164V103.211C388.15 103.211 399.67 99.6568 410.81 96.2227C422.16 92.7284 433.89 89.1035 456.98 89.1035H456.97Z" fill="#B6D5EC"/>
<path d="M456.97 95.6094C480.04 95.6094 491.77 99.2242 503.11 102.719C514.25 106.153 525.78 109.707 548.44 109.707V112.469C525.37 112.469 513.64 108.854 502.3 105.359C491.16 101.925 479.63 98.3707 456.97 98.3707C434.31 98.3707 422.78 101.925 411.64 105.359C400.3 108.854 388.57 112.469 365.5 112.469V109.707C388.16 109.707 399.69 106.153 410.83 102.719C422.17 99.2242 433.89 95.6094 456.97 95.6094Z" fill="#B6D5EC"/>
<path d="M456.97 102.117C480.03 102.117 491.75 105.732 503.08 109.226C514.23 112.66 525.76 116.225 548.44 116.225V118.806C525.38 118.806 513.66 115.191 502.33 111.696C491.18 108.262 479.65 104.698 456.97 104.698C434.3 104.698 422.76 108.252 411.61 111.696C400.28 115.191 388.56 118.806 365.5 118.806V116.225C388.17 116.225 399.71 112.67 410.86 109.226C422.19 105.732 433.91 102.117 456.97 102.117Z" fill="#B6D5EC"/>
<path d="M456.97 108.623C480.02 108.623 491.73 112.238 503.06 115.732C514.22 119.176 525.76 122.731 548.45 122.731V125.131C525.4 125.131 513.69 121.516 502.36 118.022C491.2 114.577 479.66 111.023 456.97 111.023C434.28 111.023 422.74 114.577 411.58 118.022C400.25 121.516 388.54 125.131 365.49 125.131V122.731C388.18 122.731 399.72 119.176 410.88 115.732C422.21 112.238 433.92 108.623 456.97 108.623Z" fill="#B6D5EC"/>
<path d="M456.97 115.131C480 115.131 491.71 118.736 503.03 122.23C514.2 125.674 525.74 129.229 548.44 129.229V131.448C525.41 131.448 513.7 127.843 502.38 124.349C491.21 120.905 479.67 117.35 456.97 117.35C434.27 117.35 422.72 120.915 411.56 124.349C400.24 127.843 388.53 131.448 365.5 131.448V129.229C388.2 129.229 399.75 125.664 410.91 122.23C422.23 118.736 433.94 115.131 456.97 115.131Z" fill="#B6D5EC"/>
<path d="M456.97 121.637C479.99 121.637 491.69 125.242 503 128.736C514.17 132.18 525.72 135.745 548.44 135.745V137.773C525.42 137.773 513.72 134.168 502.41 130.674C491.24 127.23 479.69 123.665 456.97 123.665C434.25 123.665 422.7 127.23 411.53 130.674C400.22 134.158 388.52 137.773 365.5 137.773V135.745C388.22 135.745 399.77 132.18 410.94 128.736C422.25 125.252 433.95 121.637 456.97 121.637Z" fill="#B6D5EC"/>
<path d="M456.97 128.143C479.98 128.143 491.67 131.747 502.98 135.232C514.16 138.676 525.72 142.24 548.45 142.24V144.088C525.44 144.088 513.75 140.483 502.44 136.999C491.26 133.555 479.7 129.99 456.97 129.99C434.24 129.99 422.68 133.555 411.5 136.999C400.19 140.483 388.5 144.088 365.49 144.088V142.24C388.22 142.24 399.78 138.676 410.96 135.232C422.27 131.747 433.96 128.143 456.97 128.143Z" fill="#B6D5EC"/>
<path d="M456.97 134.65C479.96 134.65 491.65 138.255 502.95 141.739C514.13 145.184 525.7 148.758 548.44 148.758V150.425C525.45 150.425 513.76 146.82 502.46 143.336C491.28 139.892 479.71 136.317 456.97 136.317C434.23 136.317 422.66 139.882 411.48 143.336C400.18 146.82 388.49 150.425 365.5 150.425V148.758C388.24 148.758 399.81 145.194 410.99 141.739C422.29 138.255 433.98 134.65 456.97 134.65Z" fill="#B6D5EC"/>
<path d="M456.97 141.156C479.95 141.156 491.63 144.761 502.92 148.235C514.11 151.689 525.68 155.254 548.44 155.254V156.73C525.46 156.73 513.78 153.125 502.49 149.651C491.3 146.197 479.73 142.632 456.97 142.632C434.21 142.632 422.64 146.197 411.45 149.651C400.16 153.135 388.48 156.74 365.5 156.74V155.264C388.26 155.264 399.83 151.7 411.02 148.245C422.31 144.761 433.99 141.156 456.97 141.156Z" fill="#B6D5EC"/>
<path d="M456.97 147.664C479.94 147.664 491.61 151.259 502.9 154.743C514.1 158.197 525.68 161.762 548.45 161.762V163.057C525.48 163.057 513.81 159.462 502.52 155.978C491.32 152.524 479.74 148.959 456.97 148.959C434.2 148.959 422.62 152.534 411.42 155.978C400.13 159.462 388.46 163.057 365.49 163.057V161.762C388.26 161.762 399.84 158.187 411.04 154.743C422.33 151.259 434 147.664 456.97 147.664Z" fill="#B6D5EC"/>
<path d="M456.97 154.17C479.92 154.17 491.59 157.765 502.87 161.249C514.07 164.703 525.66 168.278 548.44 168.278V169.392C525.49 169.392 513.82 165.798 502.54 162.313C491.34 158.859 479.75 155.284 456.97 155.284C434.19 155.284 422.6 158.859 411.4 162.313C400.12 165.788 388.45 169.392 365.5 169.392V168.278C388.29 168.278 399.87 164.703 411.07 161.249C422.35 157.775 434.02 154.17 456.97 154.17Z" fill="#B6D5EC"/>
<path d="M456.97 160.678C479.91 160.678 491.57 164.272 502.84 167.747C514.05 171.201 525.64 174.776 548.44 174.776V175.709C525.5 175.709 513.84 172.115 502.57 168.64C491.36 165.186 479.77 161.612 456.97 161.612C434.17 161.612 422.58 165.186 411.37 168.64C400.09 172.115 388.44 175.709 365.5 175.709V174.776C388.3 174.776 399.89 171.201 411.1 167.747C422.38 164.272 434.03 160.678 456.97 160.678Z" fill="#B6D5EC"/>
<path d="M91.0804 76.0898C114.2 76.0898 125.94 79.7147 137.3 83.2191C148.43 86.6532 159.93 90.1977 182.55 90.1977V93.5113C159.43 93.5113 147.69 89.8865 136.33 86.3821C125.2 82.948 113.7 79.4034 91.0804 79.4034C68.4604 79.4034 56.9604 82.948 45.8304 86.3821C34.4704 89.8965 22.7304 93.5113 -0.389648 93.5113V90.1977C22.2304 90.1977 33.7304 86.6532 44.8604 83.2191C56.2204 79.7147 67.9704 76.0898 91.0804 76.0898Z" fill="#B6D5EC"/>
<path d="M91.0804 82.5957C114.18 82.5957 125.92 86.2105 137.27 89.7149C148.4 93.149 159.91 96.6936 182.55 96.6936V99.8264C159.45 99.8264 147.71 96.2116 136.36 92.7072C125.23 89.2731 113.72 85.7286 91.0804 85.7286C68.4504 85.7286 56.9304 89.2831 45.8004 92.7072C34.4503 96.2116 22.7104 99.8365 -0.389648 99.8365V96.7036C22.2404 96.7036 33.7604 93.149 44.8904 89.725C56.2404 86.2206 67.9804 82.6057 91.0804 82.6057V82.5957Z" fill="#B6D5EC"/>
<path d="M91.0804 89.1035C114.17 89.1035 125.9 92.7184 137.25 96.2227C148.39 99.6568 159.91 103.211 182.55 103.211V106.164C159.46 106.164 147.73 102.549 136.38 99.0443C125.24 95.6102 113.72 92.0556 91.0804 92.0556C68.4304 92.0556 56.9103 95.6102 45.7803 99.0443C34.4303 102.539 22.7004 106.164 -0.389648 106.164V103.211C22.2604 103.211 33.7804 99.6568 44.9104 96.2227C56.2604 92.7284 67.9904 89.1035 91.0804 89.1035Z" fill="#B6D5EC"/>
<path d="M91.0804 95.6094C114.15 95.6094 125.88 99.2242 137.22 102.719C148.36 106.153 159.89 109.707 182.55 109.707V112.469C159.48 112.469 147.75 108.854 136.41 105.359C125.27 101.925 113.74 98.3707 91.0804 98.3707C68.4204 98.3707 56.8904 101.925 45.7504 105.359C34.4104 108.864 22.6804 112.479 -0.389648 112.479V109.717C22.2704 109.717 33.8004 106.163 44.9404 102.729C56.2804 99.2342 68.0104 95.6194 91.0804 95.6194V95.6094Z" fill="#B6D5EC"/>
<path d="M91.0804 102.117C114.14 102.117 125.86 105.732 137.19 109.226C148.34 112.66 159.87 116.225 182.55 116.225V118.806C159.49 118.806 147.77 115.191 136.44 111.696C125.29 108.262 113.76 104.698 91.0804 104.698C68.4104 104.698 56.8704 108.252 45.7204 111.696C34.3904 115.191 22.6704 118.806 -0.389648 118.806V116.225C22.2804 116.225 33.8204 112.67 44.9704 109.226C56.3004 105.732 68.0204 102.117 91.0804 102.117Z" fill="#B6D5EC"/>
<path d="M91.0804 108.623C114.13 108.623 125.84 112.238 137.17 115.732C148.33 119.176 159.87 122.731 182.56 122.731V125.131C159.51 125.131 147.8 121.516 136.47 118.022C125.31 114.577 113.77 111.023 91.0804 111.023C68.3904 111.023 56.8504 114.577 45.6904 118.022C34.3704 121.516 22.6604 125.131 -0.389648 125.131V122.731C22.3004 122.731 33.8404 119.176 45.0004 115.732C56.3304 112.238 68.0404 108.623 91.0904 108.623H91.0804Z" fill="#B6D5EC"/>
<path d="M91.0804 115.131C114.11 115.131 125.82 118.736 137.14 122.23C148.31 125.674 159.85 129.229 182.55 129.229V131.448C159.52 131.448 147.81 127.843 136.49 124.349C125.32 120.905 113.78 117.35 91.0804 117.35C68.3804 117.35 56.8304 120.915 45.6704 124.349C34.3504 127.843 22.6404 131.458 -0.389648 131.458V129.239C22.3104 129.239 33.8604 125.674 45.0204 122.24C56.3404 118.746 68.0504 115.141 91.0804 115.141V115.131Z" fill="#B6D5EC"/>
<path d="M91.0804 121.637C114.1 121.637 125.8 125.242 137.11 128.736C148.28 132.18 159.83 135.745 182.55 135.745V137.773C159.53 137.773 147.83 134.168 136.52 130.674C125.35 127.23 113.8 123.665 91.0804 123.665C68.3604 123.665 56.8104 127.23 45.6404 130.674C34.3303 134.168 22.6304 137.773 -0.389648 137.773V135.745C22.3304 135.745 33.8804 132.18 45.0504 128.736C56.3604 125.252 68.0604 121.637 91.0804 121.637Z" fill="#B6D5EC"/>
<path d="M91.0804 128.143C114.09 128.143 125.78 131.747 137.09 135.232C148.27 138.676 159.83 142.24 182.56 142.24V144.088C159.55 144.088 147.86 140.483 136.55 136.999C125.37 133.555 113.81 129.99 91.0804 129.99C68.3504 129.99 56.7904 133.555 45.6104 136.999C34.3104 140.493 22.6204 144.098 -0.389648 144.098V142.25C22.3404 142.25 33.9004 138.686 45.0804 135.242C56.3904 131.757 68.0804 128.153 91.0904 128.153L91.0804 128.143Z" fill="#B6D5EC"/>
<path d="M91.0804 134.65C114.07 134.65 125.76 138.255 137.06 141.739C148.24 145.184 159.81 148.758 182.55 148.758V150.425C159.56 150.425 147.87 146.82 136.57 143.336C125.39 139.892 113.82 136.317 91.0804 136.317C68.3404 136.317 56.7704 139.882 45.5904 143.336C34.2904 146.82 22.6004 150.425 -0.389648 150.425V148.758C22.3504 148.758 33.9204 145.194 45.1004 141.739C56.4004 138.255 68.0904 134.65 91.0804 134.65Z" fill="#B6D5EC"/>
<path d="M91.0804 141.156C114.06 141.156 125.74 144.761 137.03 148.235C148.22 151.689 159.79 155.254 182.55 155.254V156.73C159.57 156.73 147.89 153.125 136.6 149.651C125.41 146.197 113.84 142.632 91.0804 142.632C68.3204 142.632 56.7504 146.197 45.5604 149.651C34.2704 153.145 22.5904 156.74 -0.389648 156.74V155.264C22.3704 155.264 33.9404 151.7 45.1304 148.245C56.4204 144.761 68.1004 141.156 91.0804 141.156Z" fill="#B6D5EC"/>
<path d="M91.0804 147.674C114.05 147.674 125.72 151.269 137.01 154.753C148.21 158.207 159.79 161.772 182.56 161.772V163.067C159.59 163.067 147.92 159.472 136.63 155.988C125.43 152.534 113.85 148.969 91.0804 148.969C68.3104 148.969 56.7303 152.544 45.5303 155.988C34.2503 159.472 22.5804 163.067 -0.389648 163.067V161.772C22.3804 161.772 33.9604 158.197 45.1604 154.753C56.4504 151.269 68.1204 147.674 91.0904 147.674H91.0804Z" fill="#B6D5EC"/>
<path d="M91.0804 154.17C114.03 154.17 125.7 157.765 136.98 161.249C148.18 164.703 159.77 168.278 182.55 168.278V169.392C159.6 169.392 147.93 165.798 136.65 162.313C125.45 158.859 113.86 155.284 91.0804 155.284C68.3004 155.284 56.7104 158.859 45.5104 162.313C34.2304 165.798 22.5604 169.392 -0.389648 169.392V168.278C22.3904 168.278 33.9804 164.703 45.1804 161.249C56.4604 157.775 68.1304 154.17 91.0804 154.17Z" fill="#B6D5EC"/>
<path d="M91.0804 160.678C114.02 160.678 125.68 164.272 136.95 167.747C148.16 171.201 159.75 174.776 182.55 174.776V175.709C159.61 175.709 147.95 172.115 136.68 168.64C125.47 165.186 113.88 161.612 91.0804 161.612C68.2804 161.612 56.6904 165.186 45.4804 168.64C34.2104 172.125 22.5504 175.719 -0.389648 175.719V174.786C22.4104 174.786 34.0003 171.211 45.2104 167.757C56.4903 164.283 68.1404 160.688 91.0804 160.688V160.678Z" fill="#B6D5EC"/>
<path d="M182.551 89.3945C205.671 89.3945 217.411 93.0194 228.771 96.5238C239.901 99.9579 251.401 103.502 274.021 103.502C296.641 103.502 308.141 99.9579 319.271 96.5238C330.631 93.0194 342.381 89.3945 365.491 89.3945V92.7081C342.871 92.7081 331.371 96.2527 320.241 99.6868C308.881 103.191 297.131 106.816 274.021 106.816C250.901 106.816 239.161 103.191 227.801 99.6868C216.671 96.2527 205.171 92.7081 182.551 92.7081V89.3945Z" fill="#B6D5EC"/>
<path d="M182.551 83.0684C205.651 83.0684 217.391 86.6832 228.741 90.1876C239.871 93.6217 251.381 97.1662 274.021 97.1662C296.651 97.1662 308.171 93.6116 319.301 90.1876C330.651 86.6832 342.391 83.0684 365.491 83.0684V86.2012C342.861 86.2012 331.341 89.7558 320.211 93.1799C308.861 96.6842 297.121 100.299 274.021 100.299C250.921 100.299 239.181 96.6842 227.831 93.1799C216.701 89.7458 205.191 86.2012 182.551 86.2012V83.0684Z" fill="#B6D5EC"/>
<path d="M182.551 76.7422C205.641 76.7422 217.371 80.357 228.721 83.8614C239.861 87.2955 251.381 90.8501 274.021 90.8501C296.661 90.8501 308.191 87.2955 319.321 83.8614C330.671 80.3671 342.401 76.7422 365.491 76.7422V79.6943C342.841 79.6943 331.321 83.2489 320.191 86.683C308.841 90.1773 297.111 93.8022 274.021 93.8022C250.931 93.8022 239.201 90.1874 227.851 86.683C216.711 83.2489 205.191 79.6943 182.551 79.6943V76.7422Z" fill="#B6D5EC"/>
<path d="M182.551 70.4258C205.621 70.4258 217.351 74.0406 228.691 77.535C239.831 80.9691 251.361 84.5236 274.021 84.5236C296.681 84.5236 308.211 80.9691 319.351 77.535C330.691 74.0406 342.421 70.4258 365.491 70.4258V73.1871C342.831 73.1871 331.301 76.7417 320.161 80.1758C308.821 83.6701 297.091 87.285 274.021 87.285C250.951 87.285 239.221 83.6701 227.881 80.1758C216.741 76.7417 205.211 73.1871 182.551 73.1871V70.4258Z" fill="#B6D5EC"/>
<path d="M182.551 64.0996C205.611 64.0996 217.331 67.7144 228.661 71.2088C239.811 74.6529 251.341 78.2075 274.021 78.2075C296.691 78.2075 308.231 74.6529 319.381 71.2088C330.711 67.7144 342.431 64.0996 365.491 64.0996V66.6802C342.821 66.6802 331.281 70.2348 320.131 73.6789C308.801 77.1733 297.081 80.7881 274.021 80.7881C250.961 80.7881 239.241 77.1733 227.911 73.6789C216.761 70.2448 205.231 66.6802 182.551 66.6802V64.0996Z" fill="#B6D5EC"/>
<path d="M182.551 57.7754C205.601 57.7754 217.311 61.3902 228.641 64.8846C239.801 68.3287 251.341 71.8833 274.031 71.8833C296.721 71.8833 308.261 68.3287 319.421 64.8846C330.751 61.3902 342.461 57.7754 365.511 57.7754V60.1752C342.821 60.1752 331.281 63.7298 320.121 67.174C308.791 70.6683 297.081 74.2831 274.031 74.2831C250.981 74.2831 239.271 70.6683 227.941 67.174C216.781 63.7298 205.241 60.1752 182.551 60.1752V57.7754Z" fill="#B6D5EC"/>
<path d="M182.551 51.4492C205.581 51.4492 217.291 55.054 228.611 58.5484C239.781 61.9925 251.321 65.5471 274.021 65.5471C296.721 65.5471 308.271 61.9824 319.431 58.5484C330.751 55.054 342.461 51.4492 365.491 51.4492V53.6683C342.791 53.6683 331.241 57.233 320.081 60.667C308.761 64.1614 297.051 67.7662 274.021 67.7662C250.991 67.7662 239.281 64.1614 227.961 60.667C216.791 57.2229 205.251 53.6683 182.551 53.6683V51.4492Z" fill="#B6D5EC"/>
<path d="M182.551 45.1328C205.571 45.1328 217.271 48.7376 228.581 52.2319C239.751 55.6761 251.301 59.2407 274.021 59.2407C296.741 59.2407 308.291 55.6761 319.461 52.2319C330.771 48.7476 342.471 45.1328 365.491 45.1328V47.1611C342.771 47.1611 331.221 50.7258 320.051 54.1699C308.741 57.6542 297.041 61.269 274.021 61.269C251.001 61.269 239.301 57.6642 227.991 54.1699C216.821 50.7258 205.271 47.1611 182.551 47.1611V45.1328Z" fill="#B6D5EC"/>
<path d="M182.551 38.8066C205.561 38.8066 217.251 42.4114 228.561 45.8957C239.741 49.3399 251.301 52.9045 274.031 52.9045C296.761 52.9045 308.321 49.3399 319.501 45.8957C330.811 42.4114 342.501 38.8066 365.511 38.8066V40.6542C342.781 40.6542 331.221 44.2189 320.041 47.663C308.731 51.1473 297.041 54.7521 274.031 54.7521C251.021 54.7521 239.331 51.1473 228.021 47.663C216.841 44.2189 205.281 40.6542 182.551 40.6542V38.8066Z" fill="#B6D5EC"/>
<path d="M182.551 32.4805C205.541 32.4805 217.231 36.0853 228.531 39.5696C239.711 43.0137 251.281 46.5884 274.021 46.5884C296.761 46.5884 308.331 43.0237 319.511 39.5696C330.811 36.0853 342.501 32.4805 365.491 32.4805V34.1473C342.751 34.1473 331.181 37.7119 320.001 41.1661C308.701 44.6504 297.011 48.2552 274.021 48.2552C251.031 48.2552 239.341 44.6504 228.041 41.1661C216.861 37.722 205.291 34.1473 182.551 34.1473V32.4805Z" fill="#B6D5EC"/>
<path d="M182.551 26.1546C205.531 26.1546 217.211 29.7594 228.501 33.2336C239.691 36.6878 251.261 40.2524 274.021 40.2524C296.781 40.2524 308.351 36.6878 319.541 33.2336C330.831 29.7493 342.511 26.1445 365.491 26.1445V27.6206C342.731 27.6206 331.161 31.1852 319.971 34.6394C308.681 38.1237 297.001 41.7285 274.021 41.7285C251.041 41.7285 239.361 38.1237 228.071 34.6494C216.881 31.1953 205.311 27.6306 182.551 27.6306V26.1546Z" fill="#B6D5EC"/>
<path d="M182.551 19.8379C205.521 19.8379 217.191 23.4326 228.481 26.9169C239.681 30.3711 251.261 33.9357 274.031 33.9357C296.801 33.9357 308.381 30.3611 319.581 26.9169C330.871 23.4326 342.541 19.8379 365.511 19.8379V21.1332C342.741 21.1332 331.161 24.7079 319.961 28.152C308.671 31.6363 297.001 35.2311 274.031 35.2311C251.061 35.2311 239.391 31.6363 228.101 28.152C216.901 24.6978 205.321 21.1332 182.551 21.1332V19.8379Z" fill="#B6D5EC"/>
<path d="M182.551 13.5137C205.501 13.5137 217.171 17.1084 228.451 20.5927C239.651 24.0469 251.241 27.6216 274.021 27.6216C296.801 27.6216 308.391 24.0469 319.591 20.5927C330.871 17.1185 342.541 13.5137 365.491 13.5137V14.6282C342.711 14.6282 331.121 18.2029 319.921 21.6571C308.641 25.1314 296.971 28.7361 274.021 28.7361C251.071 28.7361 239.401 25.1414 228.121 21.6571C216.921 18.2029 205.331 14.6282 182.551 14.6282V13.5137Z" fill="#B6D5EC"/>
<path d="M182.551 7.1875C205.491 7.1875 217.151 10.7823 228.421 14.2565C239.631 17.7107 251.221 21.2854 274.021 21.2854C296.821 21.2854 308.411 17.7107 319.621 14.2565C330.901 10.7823 342.551 7.1875 365.491 7.1875V8.12133C342.691 8.12133 331.101 11.696 319.891 15.1502C308.611 18.6244 296.961 22.2192 274.021 22.2192C251.081 22.2192 239.421 18.6244 228.151 15.1502C216.941 11.696 205.351 8.12133 182.551 8.12133V7.1875Z" fill="#B6D5EC"/>
<path d="M182.551 0.871094C205.471 0.871094 217.131 4.46585 228.391 7.94011C239.611 11.3943 251.201 14.979 274.021 14.979C296.831 14.979 308.431 11.4043 319.651 7.94011C330.921 4.46585 342.571 0.871094 365.491 0.871094V1.61414C342.681 1.61414 331.081 5.18881 319.861 8.65303C308.591 12.1273 296.941 15.722 274.021 15.722C251.101 15.722 239.441 12.1273 228.181 8.65303C216.961 5.19885 205.371 1.61414 182.551 1.61414V0.871094Z" fill="#B6D5EC"/>
</g>
</svg>
