<svg width="390" height="75" viewBox="0 0 390 75" fill="none" xmlns="http://www.w3.org/2000/svg">
<g opacity="0.6">
<mask id="mask0_1170_1404" style="mask-type:luminance" maskUnits="userSpaceOnUse" x="0" y="0" width="390" height="75">
<path d="M390 0H0V75H390V0Z" fill="white"/>
</mask>
<g mask="url(#mask0_1170_1404)">
<path d="M351.181 37.2441C361.025 37.2441 366.027 38.7791 370.869 40.2683C375.603 41.7269 380.506 43.2313 390.136 43.2313V44.6365C380.292 44.6365 375.29 43.1015 370.448 41.6123C365.714 40.1537 360.811 38.6493 351.181 38.6493C341.551 38.6493 336.648 40.1537 331.914 41.6123C327.08 43.1015 322.078 44.6365 312.226 44.6365V43.2313C321.856 43.2313 326.759 41.7269 331.494 40.2683C336.328 38.7791 341.33 37.2441 351.181 37.2441Z" fill="#ABD3EC"/>
<path d="M351.181 40C361.017 40 366.019 41.535 370.853 43.0165C375.596 44.4751 380.498 45.9795 390.136 45.9795V47.3083C380.3 47.3083 375.298 45.7733 370.464 44.2918C365.721 42.8332 360.819 41.3288 351.181 41.3288C341.544 41.3288 336.641 42.8332 331.898 44.2918C327.064 45.7733 322.062 47.3083 312.226 47.3083V45.9795C321.864 45.9795 326.767 44.4751 331.509 43.0165C336.343 41.535 341.345 40 351.181 40Z" fill="#ABD3EC"/>
<path d="M351.181 42.7656C361.017 42.7656 366.012 44.3006 370.846 45.7821C375.588 47.2407 380.491 48.7452 390.136 48.7452V49.9976C380.3 49.9976 375.305 48.4626 370.471 46.9811C365.729 45.5225 360.826 44.018 351.181 44.018C341.536 44.018 336.633 45.5225 331.891 46.9811C327.057 48.4626 322.062 49.9976 312.226 49.9976V48.7452C321.871 48.7452 326.774 47.2407 331.524 45.7821C336.358 44.3006 341.353 42.7656 351.189 42.7656H351.181Z" fill="#ABD3EC"/>
<path d="M351.181 45.5215C361.01 45.5215 366.004 47.0565 370.83 48.538C375.58 49.9966 380.483 51.501 390.136 51.501V52.6771C380.307 52.6771 375.313 51.1421 370.487 49.6606C365.737 48.202 360.834 46.6975 351.181 46.6975C341.528 46.6975 336.626 48.202 331.876 49.6606C327.049 51.1421 322.055 52.6771 312.226 52.6771V51.501C321.879 51.501 326.782 49.9966 331.532 48.538C336.358 47.0565 341.353 45.5215 351.181 45.5215Z" fill="#ABD3EC"/>
<path d="M351.181 48.2871C361.002 48.2871 365.996 49.8221 370.823 51.3036C375.573 52.7622 380.483 54.2666 390.136 54.2666V55.3587C380.315 55.3587 375.321 53.8237 370.494 52.3422C365.744 50.8836 360.834 49.3792 351.181 49.3792C341.528 49.3792 336.61 50.8836 331.868 52.3422C327.042 53.8237 322.047 55.3587 312.226 55.3587V54.2666C321.879 54.2666 326.797 52.7622 331.54 51.3036C336.366 49.8221 341.36 48.2871 351.181 48.2871Z" fill="#ABD3EC"/>
<path d="M351.181 51.043C360.994 51.043 365.981 52.5779 370.807 54.0595C375.557 55.5181 380.475 57.0301 390.136 57.0301V58.0458C380.323 58.0458 375.336 56.5108 370.51 55.0293C365.76 53.5707 360.842 52.0587 351.181 52.0587C341.521 52.0587 336.603 53.5707 331.853 55.0293C327.026 56.5108 322.039 58.0458 312.226 58.0458V57.0301C321.887 57.0301 326.805 55.5181 331.555 54.0595C336.381 52.5779 341.368 51.043 351.181 51.043Z" fill="#ABD3EC"/>
<path d="M351.181 53.8008C360.987 53.8008 365.973 55.3281 370.8 56.8096C375.557 58.2683 380.468 59.7803 390.136 59.7803V60.7196C380.33 60.7196 375.344 59.1923 370.517 57.7108C365.76 56.2522 360.849 54.7401 351.181 54.7401C341.513 54.7401 336.595 56.2522 331.845 57.7108C327.026 59.1923 322.039 60.7196 312.226 60.7196V59.7803C321.894 59.7803 326.812 58.2683 331.562 56.8096C336.381 55.3281 341.368 53.8008 351.181 53.8008Z" fill="#ABD3EC"/>
<path d="M351.181 56.5645C360.987 56.5645 365.966 58.0918 370.785 59.5733C375.542 61.0319 380.46 62.544 390.136 62.544V63.4069C380.33 63.4069 375.351 61.8796 370.533 60.3981C365.775 58.9395 360.857 57.4274 351.181 57.4274C341.505 57.4274 336.587 58.9395 331.83 60.3981C327.011 61.8796 322.032 63.4069 312.226 63.4069V62.544C321.902 62.544 326.82 61.0319 331.578 59.5733C336.396 58.0918 341.376 56.5645 351.181 56.5645Z" fill="#ABD3EC"/>
<path d="M351.181 59.3223C360.979 59.3223 365.958 60.8496 370.777 62.3311C375.535 63.7897 380.46 65.3018 390.136 65.3018V66.0884C380.338 66.0884 375.359 64.561 370.54 63.0795C365.782 61.6209 360.857 60.1088 351.181 60.1088C341.505 60.1088 336.58 61.6209 331.822 63.0795C327.003 64.561 322.024 66.0884 312.226 66.0884V65.3018C321.91 65.3018 326.828 63.7897 331.585 62.3311C336.404 60.8496 341.383 59.3223 351.181 59.3223Z" fill="#ABD3EC"/>
<path d="M351.181 62.0781C360.971 62.0781 365.95 63.6055 370.762 65.087C375.527 66.5532 380.453 68.0653 390.136 68.0653V68.7679C380.346 68.7679 375.367 67.2405 370.555 65.759C365.79 64.2928 360.864 62.7807 351.181 62.7807C341.498 62.7807 336.572 64.2928 331.807 65.759C326.996 67.2405 322.017 68.7679 312.226 68.7679V68.0653C321.91 68.0653 326.835 66.5532 331.601 65.087C336.412 63.6055 341.391 62.0781 351.181 62.0781Z" fill="#ABD3EC"/>
<path d="M351.181 64.8438C360.964 64.8438 365.943 66.3711 370.754 67.845C375.519 69.3112 380.445 70.8233 390.136 70.8233V71.4495C380.353 71.4495 375.374 69.9221 370.563 68.4483C365.798 66.982 360.872 65.47 351.181 65.47C341.49 65.47 336.564 66.982 331.799 68.4483C326.988 69.9221 322.017 71.4495 312.226 71.4495V70.8233C321.917 70.8233 326.843 69.3112 331.608 67.845C336.419 66.3711 341.391 64.8438 351.181 64.8438Z" fill="#ABD3EC"/>
<path d="M351.181 67.5996C360.964 67.5996 365.935 69.1269 370.739 70.6008C375.504 72.0671 380.437 73.5791 390.136 73.5791V74.129C380.353 74.129 375.382 72.6016 370.578 71.1278C365.813 69.6615 360.88 68.1495 351.181 68.1495C341.482 68.1495 336.557 69.6615 331.784 71.1278C326.98 72.6016 322.009 74.129 312.226 74.129V73.5791C321.925 73.5791 326.858 72.0671 331.624 70.6008C336.427 69.1269 341.398 67.5996 351.181 67.5996Z" fill="#ABD3EC"/>
<path d="M351.181 70.3633C360.956 70.3633 365.92 71.8906 370.731 73.3645C375.504 74.8307 380.437 76.3428 390.136 76.3428V76.8163C380.361 76.8163 375.397 75.289 370.586 73.8151C365.813 72.3488 360.88 70.8368 351.181 70.8368C341.482 70.8368 336.542 72.3488 331.776 73.8151C326.973 75.289 322.001 76.8163 312.226 76.8163V76.3428C321.933 76.3428 326.866 74.8307 331.631 73.3645C336.435 71.8906 341.406 70.3633 351.181 70.3633Z" fill="#ABD3EC"/>
<path d="M351.181 73.1211C360.948 73.1211 365.912 74.6484 370.716 76.1223C375.489 77.5886 380.43 79.1083 390.136 79.1006V79.4977C380.369 79.4977 375.405 77.9704 370.601 76.4965C365.828 75.0303 360.887 73.5182 351.181 73.5182C341.475 73.5182 336.534 75.0379 331.761 76.4965C326.957 77.9704 321.994 79.4977 312.226 79.4977V79.1006C321.933 79.1006 326.873 77.5809 331.646 76.1223C336.45 74.6484 341.414 73.1211 351.181 73.1211Z" fill="#ABD3EC"/>
<path d="M195.354 37.2441C205.198 37.2441 210.2 38.7791 215.042 40.2683C219.776 41.7269 224.679 43.2313 234.309 43.2313V44.6365C224.465 44.6365 219.463 43.1015 214.622 41.6123C209.887 40.1537 204.984 38.6493 195.354 38.6493C185.724 38.6493 180.822 40.1537 176.087 41.6123C171.253 43.1015 166.251 44.6365 156.399 44.6365V43.2313C166.029 43.2313 170.932 41.7269 175.667 40.2683C180.501 38.7791 185.503 37.2441 195.354 37.2441Z" fill="#ABD3EC"/>
<path d="M195.354 40C205.19 40 210.192 41.535 215.026 43.0165C219.769 44.4751 224.671 45.9795 234.309 45.9795V47.3083C224.473 47.3083 219.471 45.7733 214.637 44.2918C209.894 42.8332 204.992 41.3288 195.354 41.3288C185.717 41.3288 180.814 42.8332 176.072 44.2918C171.238 45.7733 166.235 47.3083 156.399 47.3083V45.9795C166.037 45.9795 170.94 44.4751 175.682 43.0165C180.516 41.535 185.518 40 195.354 40Z" fill="#ABD3EC"/>
<path d="M195.354 42.7656C205.19 42.7656 210.185 44.3006 215.019 45.7821C219.761 47.2407 224.664 48.7452 234.309 48.7452V49.9976C224.473 49.9976 219.479 48.4626 214.645 46.9811C209.902 45.5225 204.999 44.018 195.354 44.018C185.709 44.018 180.806 45.5225 176.064 46.9811C171.23 48.4626 166.235 49.9976 156.399 49.9976V48.7452C166.045 48.7452 170.947 47.2407 175.697 45.7821C180.531 44.3006 185.526 42.7656 195.362 42.7656H195.354Z" fill="#ABD3EC"/>
<path d="M195.354 45.5215C205.183 45.5215 210.177 47.0565 215.003 48.538C219.753 49.9966 224.656 51.501 234.309 51.501V52.6771C224.481 52.6771 219.486 51.1421 214.66 49.6606C209.91 48.202 205.007 46.6975 195.354 46.6975C185.701 46.6975 180.799 48.202 176.049 49.6606C171.222 51.1421 166.228 52.6771 156.399 52.6771V51.501C166.052 51.501 170.955 49.9966 175.705 48.538C180.531 47.0565 185.526 45.5215 195.354 45.5215Z" fill="#ABD3EC"/>
<path d="M195.354 48.2871C205.175 48.2871 210.169 49.8221 214.996 51.3036C219.746 52.7622 224.656 54.2666 234.309 54.2666V55.3587C224.488 55.3587 219.494 53.8237 214.667 52.3422C209.917 50.8836 205.007 49.3792 195.354 49.3792C185.701 49.3792 180.783 50.8836 176.041 52.3422C171.215 53.8237 166.22 55.3587 156.399 55.3587V54.2666C166.052 54.2666 170.97 52.7622 175.713 51.3036C180.539 49.8221 185.533 48.2871 195.354 48.2871Z" fill="#ABD3EC"/>
<path d="M195.354 51.043C205.167 51.043 210.154 52.5779 214.981 54.0595C219.731 55.5181 224.649 57.0301 234.309 57.0301V58.0458C224.496 58.0458 219.509 56.5108 214.683 55.0293C209.933 53.5707 205.015 52.0587 195.354 52.0587C185.694 52.0587 180.776 53.5707 176.026 55.0293C171.199 56.5108 166.213 58.0458 156.399 58.0458V57.0301C166.06 57.0301 170.978 55.5181 175.728 54.0595C180.554 52.5779 185.541 51.043 195.354 51.043Z" fill="#ABD3EC"/>
<path d="M195.354 53.8008C205.16 53.8008 210.146 55.3281 214.973 56.8096C219.731 58.2683 224.641 59.7803 234.309 59.7803V60.7196C224.503 60.7196 219.517 59.1923 214.69 57.7108C209.933 56.2522 205.022 54.7401 195.354 54.7401C185.686 54.7401 180.768 56.2522 176.018 57.7108C171.199 59.1923 166.213 60.7196 156.399 60.7196V59.7803C166.067 59.7803 170.985 58.2683 175.736 56.8096C180.554 55.3281 185.541 53.8008 195.354 53.8008Z" fill="#ABD3EC"/>
<path d="M195.354 56.5645C205.16 56.5645 210.139 58.0918 214.958 59.5733C219.715 61.0319 224.633 62.544 234.309 62.544V63.4069C224.503 63.4069 219.524 61.8796 214.706 60.3981C209.948 58.9395 205.03 57.4274 195.354 57.4274C185.679 57.4274 180.76 58.9395 176.003 60.3981C171.184 61.8796 166.205 63.4069 156.399 63.4069V62.544C166.075 62.544 170.993 61.0319 175.751 59.5733C180.57 58.0918 185.549 56.5645 195.354 56.5645Z" fill="#ABD3EC"/>
<path d="M195.354 59.3223C205.152 59.3223 210.131 60.8496 214.95 62.3311C219.708 63.7897 224.633 65.3018 234.309 65.3018V66.0884C224.511 66.0884 219.532 64.561 214.713 63.0795C209.956 61.6209 205.03 60.1088 195.354 60.1088C185.671 60.1088 180.753 61.6209 175.995 63.0795C171.176 64.561 166.197 66.0884 156.399 66.0884V65.3018C166.083 65.3018 171.001 63.7897 175.758 62.3311C180.577 60.8496 185.556 59.3223 195.354 59.3223Z" fill="#ABD3EC"/>
<path d="M195.354 62.0781C205.144 62.0781 210.124 63.6055 214.935 65.087C219.7 66.5532 224.626 68.0653 234.309 68.0653V68.7679C224.519 68.7679 219.54 67.2405 214.728 65.759C209.963 64.2928 205.038 62.7807 195.354 62.7807C185.671 62.7807 180.745 64.2928 175.98 65.759C171.169 67.2405 166.19 68.7679 156.399 68.7679V68.0653C166.083 68.0653 171.008 66.5532 175.774 65.087C180.585 63.6055 185.564 62.0781 195.354 62.0781Z" fill="#ABD3EC"/>
<path d="M195.354 64.8438C205.137 64.8438 210.116 66.3711 214.927 67.845C219.692 69.3112 224.618 70.8233 234.309 70.8233V71.4495C224.526 71.4495 219.547 69.9221 214.736 68.4483C209.971 66.982 205.045 65.47 195.354 65.47C185.663 65.47 180.738 66.982 175.972 68.4483C171.161 69.9221 166.19 71.4495 156.399 71.4495V70.8233C166.09 70.8233 171.016 69.3112 175.781 67.845C180.592 66.3711 185.564 64.8438 195.354 64.8438Z" fill="#ABD3EC"/>
<path d="M195.354 67.5996C205.137 67.5996 210.108 69.1269 214.912 70.6008C219.677 72.0671 224.61 73.5791 234.309 73.5791V74.129C224.526 74.129 219.555 72.6016 214.751 71.1278C209.986 69.6615 205.053 68.1495 195.354 68.1495C185.656 68.1495 180.73 69.6615 175.957 71.1278C171.154 72.6016 166.182 74.129 156.399 74.129V73.5791C166.098 73.5791 171.031 72.0671 175.797 70.6008C180.6 69.1269 185.572 67.5996 195.354 67.5996Z" fill="#ABD3EC"/>
<path d="M195.354 70.3633C205.129 70.3633 210.093 71.8906 214.904 73.3645C219.677 74.8307 224.61 76.3428 234.309 76.3428V76.8163C224.534 76.8163 219.57 75.289 214.759 73.8151C209.986 72.3488 205.053 70.8368 195.354 70.8368C185.648 70.8368 180.715 72.3488 175.949 73.8151C171.146 75.289 166.174 76.8163 156.399 76.8163V76.3428C166.106 76.3428 171.039 74.8307 175.804 73.3645C180.608 71.8906 185.579 70.3633 195.354 70.3633Z" fill="#ABD3EC"/>
<path d="M195.354 73.1211C205.122 73.1211 210.085 74.6484 214.889 76.1223C219.662 77.5886 224.603 79.1083 234.309 79.1006V79.4977C224.542 79.4977 219.578 77.9704 214.774 76.4965C210.001 75.0303 205.06 73.5182 195.354 73.5182C185.648 73.5182 180.707 75.0379 175.934 76.4965C171.131 77.9704 166.167 79.4977 156.399 79.4977V79.1006C166.106 79.1006 171.047 77.5809 175.82 76.1223C180.623 74.6484 185.587 73.1211 195.354 73.1211Z" fill="#ABD3EC"/>
<path d="M234.309 42.8867C244.153 42.8867 249.155 44.4217 253.996 45.9109C258.731 47.3695 263.634 48.8739 273.264 48.8739C282.894 48.8739 287.797 47.3695 292.531 45.9109C297.365 44.4217 302.367 42.8867 312.219 42.8867V44.2919C302.589 44.2919 297.686 45.7963 292.951 47.2549C288.117 48.7441 283.115 50.279 273.264 50.279C263.413 50.279 258.418 48.7441 253.576 47.2549C248.842 45.7963 243.939 44.2919 234.309 44.2919V42.8867Z" fill="#ABD3EC"/>
<path d="M234.309 40.1992C244.145 40.1992 249.147 41.7342 253.981 43.2157C258.724 44.6743 263.626 46.1788 273.264 46.1788C282.901 46.1788 287.804 44.6743 292.547 43.2157C297.381 41.7342 302.383 40.1992 312.219 40.1992V41.528C302.581 41.528 297.678 43.0324 292.936 44.491C288.102 45.9726 283.1 47.5075 273.264 47.5075C263.428 47.5075 258.426 45.9726 253.592 44.491C248.849 43.0324 243.947 41.528 234.309 41.528V40.1992Z" fill="#ABD3EC"/>
<path d="M234.309 37.5195C244.145 37.5195 249.139 39.0545 253.973 40.536C258.716 41.9946 263.619 43.4991 273.264 43.4991C282.909 43.4991 287.812 41.9946 292.554 40.536C297.388 39.0545 302.382 37.5195 312.218 37.5195V38.7719C302.573 38.7719 297.671 40.2764 292.928 41.735C288.094 43.2165 283.1 44.7515 273.264 44.7515C263.428 44.7515 258.433 43.2165 253.599 41.735C248.857 40.2764 243.946 38.7719 234.301 38.7719V37.5195H234.309Z" fill="#ABD3EC"/>
<path d="M234.309 34.8379C244.138 34.8379 249.132 36.3729 253.958 37.8544C258.708 39.313 263.611 40.8174 273.264 40.8174C282.917 40.8174 287.819 39.313 292.569 37.8544C297.396 36.3729 302.39 34.8379 312.219 34.8379V36.0139C302.566 36.0139 297.663 37.5184 292.913 38.977C288.087 40.4585 283.092 41.9935 273.264 41.9935C263.435 41.9935 258.441 40.4585 253.615 38.977C248.865 37.5184 243.962 36.0139 234.309 36.0139V34.8379Z" fill="#ABD3EC"/>
<path d="M234.309 32.1582C244.13 32.1582 249.124 33.6932 253.951 35.1747C258.701 36.6333 263.611 38.1377 273.264 38.1377C282.917 38.1377 287.835 36.6333 292.577 35.1747C297.403 33.6932 302.398 32.1582 312.219 32.1582V33.2503C302.566 33.2503 297.648 34.7547 292.905 36.2133C288.079 37.6948 283.085 39.2298 273.264 39.2298C263.443 39.2298 258.449 37.6948 253.622 36.2133C248.872 34.7547 243.962 33.2503 234.309 33.2503V32.1582Z" fill="#ABD3EC"/>
<path d="M234.309 29.4766C244.122 29.4766 249.109 31.0115 253.935 32.4931C258.685 33.9517 263.603 35.4637 273.264 35.4637C282.924 35.4637 287.842 33.9517 292.592 32.4931C297.419 31.0115 302.406 29.4766 312.219 29.4766V30.4922C302.558 30.4922 297.64 32.0043 292.89 33.4629C288.064 34.9444 283.077 36.4794 273.264 36.4794C263.451 36.4794 258.464 34.9444 253.638 33.4629C248.888 32.0043 243.97 30.4922 234.309 30.4922V29.4766Z" fill="#ABD3EC"/>
<path d="M234.309 26.7969C244.122 26.7969 249.101 28.3242 253.928 29.8057C258.685 31.2643 263.596 32.7764 273.264 32.7764C282.932 32.7764 287.85 31.2643 292.6 29.8057C297.419 28.3242 302.406 26.7969 312.219 26.7969V27.7362C302.551 27.7362 297.633 29.2483 292.883 30.7069C288.064 32.1884 283.077 33.7157 273.264 33.7157C263.458 33.7157 258.472 32.1884 253.645 30.7069C248.888 29.2483 243.977 27.7362 234.309 27.7362V26.7969Z" fill="#ABD3EC"/>
<path d="M234.309 24.1094C244.115 24.1094 249.094 25.6367 253.912 27.1182C258.67 28.5768 263.588 30.0889 273.264 30.0889C282.94 30.0889 287.858 28.5768 292.615 27.1182C297.434 25.6367 302.413 24.1094 312.219 24.1094V24.9723C302.543 24.9723 297.625 26.4844 292.867 27.943C288.049 29.4245 283.069 30.9519 273.264 30.9519C263.458 30.9519 258.479 29.4245 253.66 27.943C248.903 26.4844 243.985 24.9723 234.309 24.9723V24.1094Z" fill="#ABD3EC"/>
<path d="M234.309 21.4277C244.107 21.4277 249.086 22.9551 253.905 24.4366C258.663 25.8952 263.588 27.4073 273.264 27.4073C282.94 27.4073 287.865 25.8952 292.623 24.4366C297.442 22.9551 302.421 21.4277 312.219 21.4277V22.2143C302.535 22.2143 297.617 23.7264 292.86 25.185C288.041 26.6665 283.062 28.1938 273.264 28.1938C263.466 28.1938 258.487 26.6665 253.668 25.185C248.91 23.7264 243.985 22.2143 234.309 22.2143V21.4277Z" fill="#ABD3EC"/>
<path d="M234.309 18.748C244.099 18.748 249.078 20.2754 253.89 21.7569C258.655 23.2232 263.581 24.7352 273.264 24.7352C282.947 24.7352 287.873 23.2232 292.638 21.7569C297.449 20.2754 302.428 18.748 312.219 18.748V19.4506C302.535 19.4506 297.61 20.9627 292.844 22.4289C288.033 23.9105 283.054 25.4378 273.264 25.4378C263.474 25.4378 258.494 23.9105 253.683 22.4289C248.918 20.9627 243.992 19.4506 234.309 19.4506V18.748Z" fill="#ABD3EC"/>
<path d="M234.309 16.0684C244.092 16.0684 249.071 17.5957 253.882 19.0696C258.647 20.5358 263.573 22.0479 273.264 22.0479C282.955 22.0479 287.881 20.5358 292.646 19.0696C297.457 17.5957 302.428 16.0684 312.219 16.0684V16.6946C302.528 16.6946 297.602 18.2066 292.837 19.6729C288.026 21.1468 283.054 22.6741 273.264 22.6741C263.474 22.6741 258.502 21.1468 253.691 19.6729C248.926 18.2066 244 16.6946 234.309 16.6946V16.0684Z" fill="#ABD3EC"/>
<path d="M234.309 13.3867C244.092 13.3867 249.063 14.9141 253.867 16.3879C258.632 17.8542 263.565 19.3663 273.264 19.3663C282.962 19.3663 287.888 17.8542 292.661 16.3879C297.465 14.9141 302.436 13.3867 312.219 13.3867V13.9366C302.52 13.9366 297.594 15.4486 292.821 16.9149C288.018 18.3888 283.046 19.9161 273.264 19.9161C263.481 19.9161 258.51 18.3888 253.706 16.9149C248.941 15.4486 244.008 13.9366 234.309 13.9366V13.3867Z" fill="#ABD3EC"/>
<path d="M234.309 10.707C244.084 10.707 249.048 12.2344 253.859 13.7083C258.632 15.1745 263.565 16.6866 273.264 16.6866C282.97 16.6866 287.903 15.1745 292.669 13.7083C297.472 12.2344 302.444 10.707 312.219 10.707V11.1805C302.512 11.1805 297.579 12.6926 292.814 14.1588C288.01 15.6327 283.039 17.16 273.264 17.16C263.489 17.16 258.525 15.6327 253.714 14.1588C248.941 12.6926 244.008 11.1805 234.309 11.1805V10.707Z" fill="#ABD3EC"/>
<path d="M234.309 8.01758C244.076 8.01758 249.04 9.54492 253.844 11.0188C258.617 12.485 263.558 13.9971 273.264 13.9971C282.97 13.9971 287.911 12.4774 292.684 11.0188C297.487 9.54492 302.451 8.01758 312.219 8.01758V8.41469C302.512 8.41469 297.571 9.93439 292.799 11.393C287.995 12.8669 283.031 14.3942 273.264 14.3942C263.497 14.3942 258.533 12.8669 253.729 11.393C248.956 9.92675 244.015 8.41469 234.309 8.41469V8.01758Z" fill="#ABD3EC"/>
<path d="M234.309 5.33789C244.069 5.33789 249.033 6.86523 253.836 8.33911C258.609 9.80536 263.55 11.3251 273.264 11.3251C282.978 11.3251 287.919 9.80536 292.692 8.33911C297.487 6.86523 302.451 5.33789 312.219 5.33789V5.651C302.505 5.651 297.564 7.1707 292.791 8.63694C287.995 10.1108 283.031 11.6382 273.264 11.6382C263.504 11.6382 258.54 10.1108 253.737 8.63694C248.964 7.1707 244.023 5.651 234.309 5.651V5.33789Z" fill="#ABD3EC"/>
<path d="M39.5349 37.2441C49.3786 37.2441 54.3806 38.7791 59.2223 40.2683C63.957 41.7269 68.8598 43.2313 78.4897 43.2313V44.6365C68.646 44.6365 63.6439 43.1015 58.8023 41.6123C54.0675 40.1537 49.1647 38.6493 39.5349 38.6493C29.905 38.6493 25.0022 40.1537 20.2675 41.6123C15.4335 43.1015 10.4314 44.6365 0.580078 44.6365V43.2313C10.21 43.2313 15.1127 41.7269 19.8475 40.2683C24.6815 38.7791 29.6835 37.2441 39.5349 37.2441Z" fill="#ABD3EC"/>
<path d="M39.5349 40C49.3709 40 54.373 41.535 59.207 43.0165C63.9494 44.4751 68.8521 45.9795 78.4897 45.9795V47.3083C68.6536 47.3083 63.6516 45.7733 58.8175 44.2918C54.0751 42.8332 49.1724 41.3288 39.5349 41.3288C29.8974 41.3288 24.9946 42.8332 20.2522 44.2918C15.4182 45.7733 10.4161 47.3083 0.580078 47.3083V45.9795C10.2176 45.9795 15.1203 44.4751 19.8627 43.0165C24.6968 41.535 29.6988 40 39.5349 40Z" fill="#ABD3EC"/>
<path d="M39.5349 42.7656C49.3709 42.7656 54.3653 44.3006 59.1994 45.7821C63.9417 47.2407 68.8445 48.7452 78.4897 48.7452V49.9976C68.6536 49.9976 63.6592 48.4626 58.8252 46.9811C54.0828 45.5225 49.18 44.018 39.5349 44.018C29.8897 44.018 24.987 45.5225 20.2446 46.9811C15.4105 48.4626 10.4161 49.9976 0.580078 49.9976V48.7452C10.2252 48.7452 15.128 47.2407 19.8704 45.7821C24.7044 44.3006 29.6988 42.7656 39.5349 42.7656Z" fill="#ABD3EC"/>
<path d="M39.5349 45.5215C49.3633 45.5215 54.3577 47.0565 59.1841 48.538C63.9341 49.9966 68.8369 51.501 78.4897 51.501V52.6771C68.6612 52.6771 63.6668 51.1421 58.8404 49.6606C54.0904 48.202 49.1877 46.6975 39.5349 46.6975C29.8821 46.6975 24.9793 48.202 20.2293 49.6606C15.4029 51.1421 10.4085 52.6771 0.580078 52.6771V51.501C10.2329 51.501 15.1356 49.9966 19.8856 48.538C24.712 47.0565 29.7064 45.5215 39.5349 45.5215Z" fill="#ABD3EC"/>
<path d="M39.5349 48.2871C49.3557 48.2871 54.3501 49.8221 59.1764 51.3036C63.9265 52.7622 68.8369 54.2666 78.4897 54.2666V55.3587C68.6689 55.3587 63.6745 53.8237 58.8481 52.3422C54.098 50.8836 49.1877 49.3792 39.5349 49.3792C29.8821 49.3792 24.9641 50.8836 20.2217 52.3422C15.3953 53.8237 10.4009 55.3587 0.580078 55.3587V54.2666C10.2329 54.2666 15.1509 52.7622 19.8933 51.3036C24.7197 49.8221 29.7141 48.2871 39.5349 48.2871Z" fill="#ABD3EC"/>
<path d="M39.5349 51.043C49.348 51.043 54.3348 52.5779 59.1612 54.0595C63.9112 55.5181 68.8292 57.0301 78.4897 57.0301V58.0458C68.6765 58.0458 63.6897 56.5108 58.8633 55.0293C54.1133 53.5707 49.1953 52.0587 39.5349 52.0587C29.8744 52.0587 24.9564 53.5707 20.2064 55.0293C15.38 56.5108 10.3932 58.0458 0.580078 58.0458V57.0301C10.2405 57.0301 15.1585 55.5181 19.9086 54.0595C24.7349 52.5779 29.7217 51.043 39.5349 51.043Z" fill="#ABD3EC"/>
<path d="M39.5349 53.8008C49.3404 53.8008 54.3271 55.3281 59.1535 56.8096C63.9112 58.2683 68.8216 59.7803 78.4897 59.7803V60.7196C68.6841 60.7196 63.6974 59.1923 58.871 57.7108C54.1133 56.2522 49.2029 54.7401 39.5349 54.7401C29.8668 54.7401 24.9488 56.2522 20.1988 57.7108C15.38 59.1923 10.3932 60.7196 0.580078 60.7196V59.7803C10.2481 59.7803 15.1662 58.2683 19.9162 56.8096C24.7349 55.3281 29.7217 53.8008 39.5349 53.8008Z" fill="#ABD3EC"/>
<path d="M39.5349 56.5645C49.3404 56.5645 54.3195 58.0918 59.1383 59.5733C63.8959 61.0319 68.814 62.544 78.4897 62.544V63.4069C68.6841 63.4069 63.705 61.8796 58.8863 60.3981C54.1286 58.9395 49.2106 57.4274 39.5349 57.4274C29.8592 57.4274 24.9411 58.9395 20.1835 60.3981C15.3647 61.8796 10.3856 63.4069 0.580078 63.4069V62.544C10.2558 62.544 15.1738 61.0319 19.9315 59.5733C24.7502 58.0918 29.7294 56.5645 39.5349 56.5645Z" fill="#ABD3EC"/>
<path d="M39.5349 59.3223C49.3328 59.3223 54.3119 60.8496 59.1306 62.3311C63.8883 63.7897 68.814 65.3018 78.4897 65.3018V66.0884C68.6918 66.0884 63.7127 64.561 58.8939 63.0795C54.1362 61.6209 49.2106 60.1088 39.5349 60.1088C29.8515 60.1088 24.9335 61.6209 20.1758 63.0795C15.3571 64.561 10.378 66.0884 0.580078 66.0884V65.3018C10.2634 65.3018 15.1814 63.7897 19.9391 62.3311C24.7579 60.8496 29.737 59.3223 39.5349 59.3223Z" fill="#ABD3EC"/>
<path d="M39.5349 62.0781C49.3251 62.0781 54.3042 63.6055 59.1154 65.087C63.8807 66.5532 68.8063 68.0653 78.4897 68.0653V68.7679C68.6994 68.7679 63.7203 67.2405 58.9092 65.759C54.1439 64.2928 49.2182 62.7807 39.5349 62.7807C29.8515 62.7807 24.9259 64.2928 20.1606 65.759C15.3494 67.2405 10.3703 68.7679 0.580078 68.7679V68.0653C10.2634 68.0653 15.1891 66.5532 19.9544 65.087C24.7655 63.6055 29.7446 62.0781 39.5349 62.0781Z" fill="#ABD3EC"/>
<path d="M39.5349 64.8438C49.3175 64.8438 54.2966 66.3711 59.1077 67.845C63.873 69.3112 68.7987 70.8233 78.4897 70.8233V71.4495C68.707 71.4495 63.7279 69.9221 58.9168 68.4483C54.1515 66.982 49.2258 65.47 39.5349 65.47C29.8439 65.47 24.9182 66.982 20.1529 68.4483C15.3418 69.9221 10.3703 71.4495 0.580078 71.4495V70.8233C10.271 70.8233 15.1967 69.3112 19.962 67.845C24.7731 66.3711 29.7446 64.8438 39.5349 64.8438Z" fill="#ABD3EC"/>
<path d="M39.5349 67.5996C49.3175 67.5996 54.289 69.1269 59.0924 70.6008C63.8577 72.0671 68.7911 73.5791 78.4897 73.5791V74.129C68.707 74.129 63.7356 72.6016 58.9321 71.1278C54.1668 69.6615 49.2335 68.1495 39.5349 68.1495C29.8363 68.1495 24.9106 69.6615 20.1377 71.1278C15.3342 72.6016 10.3627 74.129 0.580078 74.129V73.5791C10.2787 73.5791 15.2044 72.0671 19.9773 70.6008C24.7808 69.1269 29.7523 67.5996 39.5349 67.5996Z" fill="#ABD3EC"/>
<path d="M39.5349 70.3633C49.3098 70.3633 54.2737 71.8906 59.0848 73.3645C63.8577 74.8307 68.7911 76.3428 78.4897 76.3428V76.8163C68.7147 76.8163 63.7508 75.289 58.9397 73.8151C54.1668 72.3488 49.2335 70.8368 39.5349 70.8368C29.8286 70.8368 24.8953 72.3488 20.13 73.8151C15.3265 75.289 10.3551 76.8163 0.580078 76.8163V76.3428C10.2863 76.3428 15.2196 74.8307 19.9849 73.3645C24.7884 71.8906 29.7599 70.3633 39.5349 70.3633Z" fill="#ABD3EC"/>
<path d="M39.5349 73.1211C49.3022 73.1211 54.2661 74.6484 59.0695 76.1223C63.8425 77.5886 68.7834 79.1083 78.4897 79.1006V79.4977C68.7223 79.4977 63.7585 77.9704 58.955 76.4965C54.182 75.0303 49.2411 73.5182 39.5349 73.5182C29.8286 73.5182 24.8877 75.0379 20.1147 76.4965C15.3113 77.9704 10.3474 79.4977 0.580078 79.4977V79.1006C10.2863 79.1006 15.2273 77.5809 20.0002 76.1223C24.8037 74.6484 29.7675 73.1211 39.5349 73.1211Z" fill="#ABD3EC"/>
<path d="M78.4973 42.8867C88.341 42.8867 93.3431 44.4217 98.1847 45.9109C102.919 47.3695 107.822 48.8739 117.452 48.8739C127.082 48.8739 131.985 47.3695 136.719 45.9109C141.554 44.4217 146.556 42.8867 156.407 42.8867V44.2919C146.777 44.2919 141.874 45.7963 137.14 47.2549C132.305 48.7441 127.303 50.279 117.452 50.279C107.608 50.279 102.606 48.7441 97.7647 47.2549C93.03 45.7963 88.1272 44.2919 78.4973 44.2919V42.8867Z" fill="#ABD3EC"/>
<path d="M78.4973 40.1992C88.3334 40.1992 93.3354 41.7342 98.1694 43.2157C102.912 44.6743 107.815 46.1788 117.452 46.1788C127.09 46.1788 131.992 44.6743 136.735 43.2157C141.569 41.7342 146.571 40.1992 156.407 40.1992V41.528C146.769 41.528 141.867 43.0324 137.124 44.491C132.29 45.9726 127.288 47.5075 117.452 47.5075C107.616 47.5075 102.614 45.9726 97.78 44.491C93.0376 43.0324 88.1348 41.528 78.4973 41.528V40.1992Z" fill="#ABD3EC"/>
<path d="M78.4973 37.5195C88.3334 37.5195 93.3278 39.0545 98.1618 40.536C102.904 41.9946 107.807 43.4991 117.452 43.4991C127.097 43.4991 132 41.9946 136.742 40.536C141.576 39.0545 146.571 37.5195 156.407 37.5195V38.7719C146.762 38.7719 141.859 40.2764 137.117 41.735C132.283 43.2165 127.288 44.7515 117.452 44.7515C107.616 44.7515 102.622 43.2165 97.7876 41.735C93.0452 40.2764 88.1425 38.7719 78.4973 38.7719V37.5195Z" fill="#ABD3EC"/>
<path d="M78.4973 34.8379C88.3257 34.8379 93.3201 36.3729 98.1465 37.8544C102.897 39.313 107.799 40.8174 117.452 40.8174C127.105 40.8174 132.008 39.313 136.758 37.8544C141.584 36.3729 146.578 34.8379 156.407 34.8379V36.0139C146.754 36.0139 141.851 37.5184 137.101 38.977C132.275 40.4585 127.281 41.9935 117.452 41.9935C107.624 41.9935 102.629 40.4585 97.8029 38.977C93.0529 37.5184 88.1501 36.0139 78.4973 36.0139V34.8379Z" fill="#ABD3EC"/>
<path d="M78.4973 32.1582C88.3181 32.1582 93.3125 33.6932 98.1389 35.1747C102.889 36.6333 107.799 38.1377 117.452 38.1377C127.105 38.1377 132.023 36.6333 136.765 35.1747C141.592 33.6932 146.586 32.1582 156.407 32.1582V33.2503C146.754 33.2503 141.836 34.7547 137.094 36.2133C132.267 37.6948 127.273 39.2298 117.452 39.2298C107.631 39.2298 102.637 37.6948 97.8105 36.2133C93.0605 34.7547 88.1501 33.2503 78.4973 33.2503V32.1582Z" fill="#ABD3EC"/>
<path d="M78.4973 29.4766C88.3105 29.4766 93.2972 31.0115 98.1236 32.4931C102.874 33.9517 107.792 35.4637 117.452 35.4637C127.113 35.4637 132.031 33.9517 136.781 32.4931C141.607 31.0115 146.594 29.4766 156.407 29.4766V30.4922C146.746 30.4922 141.828 32.0043 137.078 33.4629C132.252 34.9444 127.265 36.4794 117.452 36.4794C107.639 36.4794 102.652 34.9444 97.8258 33.4629C93.0758 32.0043 88.1577 30.4922 78.4973 30.4922V29.4766Z" fill="#ABD3EC"/>
<path d="M78.4973 26.7969C88.3028 26.7969 93.2896 28.3242 98.116 29.8057C102.874 31.2643 107.784 32.7764 117.452 32.7764C127.12 32.7764 132.038 31.2643 136.788 29.8057C141.607 28.3242 146.594 26.7969 156.407 26.7969V27.7362C146.739 27.7362 141.821 29.2483 137.071 30.7069C132.252 32.1884 127.265 33.7157 117.452 33.7157C107.647 33.7157 102.66 32.1884 97.8334 30.7069C93.0758 29.2483 88.1654 27.7362 78.4973 27.7362V26.7969Z" fill="#ABD3EC"/>
<path d="M78.4973 24.1094C88.3028 24.1094 93.282 25.6367 98.1007 27.1182C102.858 28.5768 107.776 30.0889 117.452 30.0889C127.128 30.0889 132.046 28.5768 136.803 27.1182C141.622 25.6367 146.601 24.1094 156.407 24.1094V24.9723C146.731 24.9723 141.813 26.4844 137.056 27.943C132.237 29.4245 127.258 30.9519 117.452 30.9519C107.647 30.9519 102.667 29.4245 97.8487 27.943C93.091 26.4844 88.173 24.9723 78.4973 24.9723V24.1094Z" fill="#ABD3EC"/>
<path d="M78.4973 21.4277C88.2952 21.4277 93.2743 22.9551 98.0931 24.4366C102.851 25.8952 107.776 27.4073 117.452 27.4073C127.135 27.4073 132.053 25.8952 136.811 24.4366C141.63 22.9551 146.609 21.4277 156.407 21.4277V22.2143C146.724 22.2143 141.806 23.7264 137.048 25.185C132.229 26.6665 127.25 28.1938 117.452 28.1938C107.654 28.1938 102.675 26.6665 97.8563 25.185C93.0987 23.7264 88.173 22.2143 78.4973 22.2143V21.4277Z" fill="#ABD3EC"/>
<path d="M78.4973 18.748C88.2876 18.748 93.2667 20.2754 98.0778 21.7569C102.843 23.2232 107.769 24.7352 117.452 24.7352C127.135 24.7352 132.061 23.2232 136.826 21.7569C141.638 20.2754 146.617 18.748 156.407 18.748V19.4506C146.724 19.4506 141.798 20.9627 137.033 22.4289C132.221 23.9105 127.242 25.4378 117.452 25.4378C107.662 25.4378 102.683 23.9105 97.8716 22.4289C93.1063 20.9627 88.1806 19.4506 78.4973 19.4506V18.748Z" fill="#ABD3EC"/>
<path d="M78.4973 16.0684C88.2799 16.0684 93.259 17.5957 98.0702 19.0696C102.835 20.5358 107.761 22.0479 117.452 22.0479C127.143 22.0479 132.069 20.5358 136.834 19.0696C141.645 17.5957 146.617 16.0684 156.407 16.0684V16.6946C146.716 16.6946 141.79 18.2066 137.025 19.6729C132.214 21.1468 127.242 22.6741 117.452 22.6741C107.669 22.6741 102.69 21.1468 97.8792 19.6729C93.114 18.2066 88.1883 16.6946 78.4973 16.6946V16.0684Z" fill="#ABD3EC"/>
<path d="M78.4973 13.3867C88.2799 13.3867 93.2514 14.9141 98.0549 16.3879C102.82 17.8542 107.754 19.3663 117.452 19.3663C127.151 19.3663 132.076 17.8542 136.849 16.3879C141.653 14.9141 146.624 13.3867 156.407 13.3867V13.9366C146.708 13.9366 141.783 15.4486 137.01 16.9149C132.206 18.3888 127.235 19.9161 117.452 19.9161C107.669 19.9161 102.698 18.3888 97.8945 16.9149C93.1292 15.4486 88.1959 13.9366 78.4973 13.9366V13.3867Z" fill="#ABD3EC"/>
<path d="M78.4973 10.707C88.2723 10.707 93.2361 12.2344 98.0473 13.7083C102.82 15.1745 107.754 16.6866 117.452 16.6866C127.158 16.6866 132.092 15.1745 136.857 13.7083C141.66 12.2344 146.632 10.707 156.407 10.707V11.1805C146.701 11.1805 141.767 12.6926 137.002 14.1588C132.199 15.6327 127.227 17.16 117.452 17.16C107.677 17.16 102.713 15.6327 97.9022 14.1588C93.1292 12.6926 88.1959 11.1805 78.4973 11.1805V10.707Z" fill="#ABD3EC"/>
<path d="M78.4973 8.01758C88.2646 8.01758 93.2285 9.54492 98.032 11.0188C102.805 12.485 107.746 13.9971 117.452 13.9971C127.158 13.9971 132.099 12.4774 136.872 11.0188C141.676 9.54492 146.64 8.01758 156.407 8.01758V8.41469C146.701 8.41469 141.76 9.93439 136.987 11.393C132.183 12.8669 127.219 14.3942 117.452 14.3942C107.685 14.3942 102.721 12.8669 97.9174 11.393C93.1445 9.92675 88.2036 8.41469 78.4973 8.41469V8.01758Z" fill="#ABD3EC"/>
<path d="M78.4973 5.33789C88.257 5.33789 93.2209 6.86523 98.0243 8.33911C102.797 9.80536 107.738 11.3251 117.452 11.3251C127.166 11.3251 132.107 9.80536 136.88 8.33911C141.676 6.86523 146.64 5.33789 156.407 5.33789V5.651C146.693 5.651 141.752 7.1707 136.979 8.63694C132.183 10.1108 127.219 11.6382 117.452 11.6382C107.692 11.6382 102.729 10.1108 97.9251 8.63694C93.1521 7.1707 88.2112 5.651 78.4973 5.651V5.33789Z" fill="#ABD3EC"/>
</g>
</g>
</svg>
