<svg width="366" height="164" viewBox="0 0 366 164" fill="none" xmlns="http://www.w3.org/2000/svg">
<mask id="mask0_1170_996" style="mask-type:luminance" maskUnits="userSpaceOnUse" x="0" y="0" width="366" height="164">
<path d="M366 0H0V164H366V0Z" fill="white"/>
</mask>
<g mask="url(#mask0_1170_996)">
<path d="M91.0804 88.6243C67.9604 88.6243 56.2204 85.0108 44.8604 81.5175C33.7304 78.1043 22.2304 74.5609 -0.389648 74.5609V71.2578C22.7304 71.2578 34.4704 74.8712 45.8304 78.3645C56.9604 81.7878 68.4604 85.3211 91.0804 85.3211C113.7 85.3211 125.21 81.7878 136.33 78.3645C147.69 74.8712 159.44 71.2678 182.55 71.2678V74.5709C159.93 74.5709 148.43 78.1043 137.3 81.5275C125.94 85.0208 114.19 88.6343 91.0804 88.6343V88.6243Z" fill="#B6D5EC"/>
<path d="M91.0804 82.1374C67.9804 82.1374 56.2404 78.534 44.8904 75.0407C33.7604 71.6175 22.2404 68.0741 -0.389648 68.0741V64.9512C22.7104 64.9512 34.4503 68.5546 45.8004 72.0479C56.9304 75.4711 68.4404 79.0045 91.0804 79.0045C113.71 79.0045 125.23 75.4611 136.36 72.0479C147.71 68.5546 159.45 64.9512 182.55 64.9512V68.0741C159.92 68.0741 148.4 71.6175 137.27 75.0307C125.92 78.524 114.18 82.1274 91.0804 82.1274V82.1374Z" fill="#B6D5EC"/>
<path d="M91.0804 75.6506C67.9904 75.6506 56.2604 72.0472 44.9104 68.5539C33.7804 65.1307 22.2604 61.5873 -0.389648 61.5873V58.6445C22.7004 58.6445 34.4303 62.2479 45.7803 65.7413C56.9204 69.1645 68.4404 72.7078 91.0804 72.7078C113.72 72.7078 125.25 69.1645 136.39 65.7413C147.74 62.258 159.47 58.6445 182.56 58.6445V61.5873C159.91 61.5873 148.39 65.1307 137.26 68.5539C125.91 72.0372 114.18 75.6506 91.0904 75.6506H91.0804Z" fill="#B6D5EC"/>
<path d="M91.0804 69.1655C68.0104 69.1655 56.2804 65.5621 44.9404 62.0788C33.8004 58.6456 22.2704 55.1022 -0.389648 55.1022V52.3496C22.6804 52.3496 34.4104 55.953 45.7504 59.4363C56.8904 62.8596 68.4204 66.4029 91.0804 66.4029C113.74 66.4029 125.27 62.8596 136.41 59.4363C147.75 55.953 159.48 52.3496 182.55 52.3496V55.1022C159.89 55.1022 148.36 58.6456 137.22 62.0688C125.88 65.5521 114.15 69.1555 91.0804 69.1555V69.1655Z" fill="#B6D5EC"/>
<path d="M91.0804 62.6787C68.0204 62.6787 56.3004 59.0753 44.9704 55.592C33.8204 52.1688 22.2804 48.6154 -0.389648 48.6154V46.043C22.6704 46.043 34.3904 49.6464 45.7204 53.1297C56.8704 56.5529 68.4004 60.1063 91.0804 60.1063C113.75 60.1063 125.29 56.5629 136.44 53.1297C147.77 49.6464 159.49 46.043 182.55 46.043V48.6154C159.88 48.6154 148.34 52.1588 137.19 55.592C125.86 59.0753 114.14 62.6787 91.0804 62.6787Z" fill="#B6D5EC"/>
<path d="M91.0804 56.1939C68.0304 56.1939 56.3204 52.5904 44.9904 49.1072C33.8404 45.6839 22.3004 42.1305 -0.389648 42.1305V39.7383C22.6604 39.7383 34.3704 43.3417 45.7004 46.825C56.8604 50.2582 68.4004 53.8016 91.0904 53.8016C113.78 53.8016 125.32 50.2582 136.48 46.825C147.81 43.3417 159.52 39.7383 182.57 39.7383V42.1305C159.88 42.1305 148.34 45.6739 137.18 49.1072C125.85 52.5904 114.14 56.1939 91.0904 56.1939H91.0804Z" fill="#B6D5EC"/>
<path d="M91.0804 49.707C68.0504 49.707 56.3404 46.1137 45.0204 42.6304C33.8604 39.1971 22.3104 35.6437 -0.389648 35.6437V33.4316C22.6404 33.4316 34.3504 37.025 45.6704 40.5083C56.8404 43.9416 68.3804 47.485 91.0804 47.485C113.78 47.485 125.33 43.9316 136.49 40.5083C147.81 37.025 159.52 33.4316 182.55 33.4316V35.6437C159.85 35.6437 148.3 39.1971 137.14 42.6203C125.82 46.1036 114.11 49.697 91.0804 49.697V49.707Z" fill="#B6D5EC"/>
<path d="M91.0804 43.22C68.0604 43.22 56.3604 39.6266 45.0504 36.1433C33.8804 32.71 22.3304 29.1567 -0.389648 29.1567V27.1348C22.6304 27.1348 34.3303 30.7282 45.6404 34.2115C56.8104 37.6447 68.3604 41.1981 91.0804 41.1981C113.8 41.1981 125.35 37.6447 136.52 34.2115C147.83 30.7382 159.53 27.1348 182.55 27.1348V29.1567C159.83 29.1567 148.28 32.71 137.11 36.1433C125.8 39.6166 114.1 43.22 91.0804 43.22Z" fill="#B6D5EC"/>
<path d="M91.0804 36.7351C68.0704 36.7351 56.3804 33.1417 45.0704 29.6684C33.9004 26.2252 22.3404 22.6718 -0.389648 22.6718V20.8301C22.6204 20.8301 34.3103 24.4235 45.6203 27.8968C56.8004 31.33 68.3604 34.8834 91.0904 34.8834C113.82 34.8834 125.38 31.33 136.56 27.8968C147.87 24.4235 159.56 20.8301 182.57 20.8301V22.6718C159.84 22.6718 148.28 26.2252 137.1 29.6584C125.79 33.1317 114.1 36.7251 91.0904 36.7251L91.0804 36.7351Z" fill="#B6D5EC"/>
<path d="M91.0804 30.2483C68.0904 30.2483 56.4004 26.6549 45.1004 23.1816C33.9204 19.7384 22.3504 16.185 -0.389648 16.185V14.5234C22.6004 14.5234 34.2904 18.1168 45.5904 21.5901C56.7704 25.0234 68.3404 28.5868 91.0804 28.5868C113.82 28.5868 125.39 25.0334 136.57 21.5901C147.87 18.1168 159.56 14.5234 182.55 14.5234V16.185C159.81 16.185 148.24 19.7384 137.06 23.1816C125.76 26.6549 114.07 30.2483 91.0804 30.2483Z" fill="#B6D5EC"/>
<path d="M91.0804 23.7632C68.1004 23.7632 56.4204 20.1698 45.1304 16.6965C33.9404 13.2633 22.3704 9.69991 -0.389648 9.69991V8.22852C22.5904 8.22852 34.2704 11.8219 45.5604 15.2952C56.7504 18.7385 68.3204 22.2918 91.0804 22.2918C113.84 22.2918 125.41 18.7385 136.6 15.2952C147.89 11.8219 159.57 8.22852 182.55 8.22852V9.69991C159.79 9.69991 148.22 13.2533 137.03 16.6965C125.74 20.1698 114.06 23.7632 91.0804 23.7632Z" fill="#B6D5EC"/>
<path d="M91.0804 17.2764C68.1104 17.2764 56.4404 13.693 45.1504 10.2197C33.9604 6.77647 22.3804 3.2131 -0.389648 3.2131V1.92188C22.5804 1.92188 34.2504 5.50527 45.5404 8.97856C56.7404 12.4218 68.3204 15.9752 91.0904 15.9752C113.86 15.9752 125.44 12.4118 136.64 8.97856C147.93 5.50527 159.6 1.92188 182.57 1.92188V3.2131C159.8 3.2131 148.22 6.77647 137.02 10.2097C125.73 13.683 114.06 17.2664 91.0904 17.2664L91.0804 17.2764Z" fill="#B6D5EC"/>
<path d="M91.0804 10.7896C68.1304 10.7896 56.4604 7.20621 45.1804 3.73292C33.9804 0.28966 22.3904 -3.27371 -0.389648 -3.27371V-4.38477C22.5604 -4.38477 34.2304 -0.801374 45.5104 2.67191C56.7104 6.11517 68.3004 9.67855 91.0804 9.67855C113.86 9.67855 125.45 6.11517 136.65 2.67191C147.93 -0.791365 159.6 -4.38477 182.55 -4.38477V-3.27371C159.76 -3.27371 148.18 0.28966 136.98 3.73292C125.7 7.1962 114.03 10.7896 91.0804 10.7896Z" fill="#B6D5EC"/>
<path d="M91.0804 4.30474C68.1404 4.30474 56.4804 0.72135 45.2104 -2.74193C34.0003 -6.1952 22.4104 -9.75857 -0.389648 -9.75857V-10.6895C22.5504 -10.6895 34.2104 -7.10606 45.4804 -3.64278C56.6904 -0.199521 68.2804 3.36385 91.0804 3.36385C113.88 3.36385 125.47 -0.199521 136.68 -3.64278C147.96 -7.10606 159.61 -10.6895 182.55 -10.6895V-9.75857C159.75 -9.75857 148.16 -6.1952 136.95 -2.75194C125.67 0.711342 114.02 4.29473 91.0804 4.29473V4.30474Z" fill="#B6D5EC"/>
<path d="M456.97 88.6243C433.85 88.6243 422.11 85.0108 410.75 81.5175C399.62 78.0943 388.12 74.5609 365.5 74.5609V71.2578C388.62 71.2578 400.36 74.8712 411.72 78.3645C422.85 81.7878 434.35 85.3211 456.97 85.3211C479.59 85.3211 491.09 81.7878 502.22 78.3645C513.58 74.8712 525.33 71.2578 548.44 71.2578V74.5609C525.82 74.5609 514.31 78.0943 503.19 81.5175C491.83 85.0108 480.08 88.6142 456.97 88.6142V88.6243Z" fill="#B6D5EC"/>
<path d="M456.97 82.1372C433.87 82.1372 422.13 78.5338 410.78 75.0405C399.65 71.6172 388.14 68.0839 365.5 68.0839V64.9609C388.6 64.9609 400.34 68.5643 411.69 72.0577C422.82 75.4809 434.33 79.0142 456.97 79.0142C479.6 79.0142 491.12 75.4709 502.25 72.0577C513.6 68.5643 525.34 64.9609 548.44 64.9609V68.0839C525.81 68.0839 514.29 71.6272 503.16 75.0405C491.81 78.5338 480.07 82.1372 456.97 82.1372Z" fill="#B6D5EC"/>
<path d="M456.97 75.6506C433.88 75.6506 422.15 72.0472 410.8 68.5539C399.66 65.1307 388.14 61.5873 365.5 61.5873V58.6445C388.59 58.6445 400.32 62.2479 411.67 65.7413C422.81 69.1645 434.33 72.7078 456.97 72.7078C479.61 72.7078 491.14 69.1645 502.27 65.7413C513.62 62.258 525.35 58.6445 548.44 58.6445V61.5873C525.79 61.5873 514.27 65.1307 503.13 68.5539C491.78 72.0372 480.05 75.6506 456.96 75.6506H456.97Z" fill="#B6D5EC"/>
<path d="M456.97 69.1653C433.9 69.1653 422.17 65.5619 410.83 62.0786C399.69 58.6553 388.16 55.112 365.5 55.112V52.3594C388.57 52.3594 400.3 55.9628 411.64 59.4461C422.78 62.8693 434.31 66.4127 456.97 66.4127C479.63 66.4127 491.16 62.8693 502.3 59.4461C513.64 55.9628 525.37 52.3594 548.44 52.3594V55.112C525.78 55.112 514.25 58.6553 503.11 62.0786C491.77 65.5619 480.05 69.1653 456.97 69.1653Z" fill="#B6D5EC"/>
<path d="M456.97 62.6787C433.91 62.6787 422.19 59.0753 410.86 55.592C399.71 52.1688 388.18 48.6154 365.5 48.6154V46.043C388.56 46.043 400.28 49.6464 411.61 53.1297C422.76 56.5529 434.29 60.1063 456.97 60.1063C479.64 60.1063 491.18 56.5629 502.33 53.1297C513.66 49.6464 525.38 46.043 548.44 46.043V48.6154C525.77 48.6154 514.23 52.1588 503.08 55.592C491.75 59.0753 480.03 62.6787 456.97 62.6787Z" fill="#B6D5EC"/>
<path d="M456.97 56.1939C433.92 56.1939 422.21 52.5904 410.88 49.1072C399.72 45.6739 388.18 42.1305 365.49 42.1305V39.7383C388.54 39.7383 400.25 43.3417 411.58 46.825C422.74 50.2582 434.28 53.8016 456.97 53.8016C479.66 53.8016 491.2 50.2582 502.36 46.825C513.69 43.3417 525.4 39.7383 548.45 39.7383V42.1305C525.76 42.1305 514.22 45.6739 503.06 49.1072C491.73 52.5904 480.02 56.1939 456.97 56.1939Z" fill="#B6D5EC"/>
<path d="M456.97 49.7068C433.94 49.7068 422.23 46.1134 410.91 42.6301C399.74 39.1969 388.2 35.6535 365.5 35.6535V33.4414C388.53 33.4414 400.24 37.0348 411.56 40.5181C422.73 43.9514 434.27 47.4947 456.97 47.4947C479.67 47.4947 491.22 43.9413 502.38 40.5181C513.7 37.0348 525.41 33.4414 548.44 33.4414V35.6535C525.74 35.6535 514.19 39.2069 503.03 42.6301C491.71 46.1134 480 49.7068 456.97 49.7068Z" fill="#B6D5EC"/>
<path d="M456.97 43.22C433.95 43.22 422.25 39.6266 410.94 36.1433C399.77 32.71 388.22 29.1567 365.5 29.1567V27.1348C388.52 27.1348 400.22 30.7282 411.53 34.2115C422.7 37.6447 434.25 41.1981 456.97 41.1981C479.69 41.1981 491.24 37.6447 502.41 34.2115C513.72 30.7382 525.42 27.1348 548.44 27.1348V29.1567C525.72 29.1567 514.17 32.71 503 36.1433C491.69 39.6166 479.99 43.22 456.97 43.22Z" fill="#B6D5EC"/>
<path d="M456.97 36.7349C433.96 36.7349 422.27 33.1415 410.96 29.6682C399.78 26.235 388.22 22.6816 365.49 22.6816V20.8398C388.5 20.8398 400.19 24.4332 411.5 27.9065C422.68 31.3398 434.24 34.8932 456.97 34.8932C479.7 34.8932 491.26 31.3398 502.44 27.9065C513.75 24.4332 525.44 20.8398 548.45 20.8398V22.6816C525.72 22.6816 514.16 26.235 502.98 29.6682C491.67 33.1415 479.98 36.7349 456.97 36.7349Z" fill="#B6D5EC"/>
<path d="M456.97 30.2483C433.98 30.2483 422.29 26.6549 410.99 23.1816C399.81 19.7484 388.24 16.185 365.5 16.185V14.5234C388.49 14.5234 400.18 18.1168 411.48 21.5901C422.66 25.0234 434.23 28.5868 456.97 28.5868C479.71 28.5868 491.28 25.0334 502.46 21.5901C513.76 18.1168 525.45 14.5234 548.44 14.5234V16.185C525.7 16.185 514.13 19.7384 502.95 23.1816C491.65 26.6549 479.96 30.2483 456.97 30.2483Z" fill="#B6D5EC"/>
<path d="M456.97 23.7632C433.99 23.7632 422.31 20.1698 411.02 16.6965C399.83 13.2533 388.26 9.69991 365.5 9.69991V8.22852C388.48 8.22852 400.16 11.8219 411.45 15.2952C422.64 18.7385 434.21 22.2918 456.97 22.2918C479.73 22.2918 491.3 18.7385 502.49 15.2952C513.78 11.8219 525.46 8.22852 548.44 8.22852V9.69991C525.68 9.69991 514.11 13.2533 502.92 16.6965C491.63 20.1698 479.95 23.7632 456.97 23.7632Z" fill="#B6D5EC"/>
<path d="M456.97 17.2762C434 17.2762 422.33 13.6928 411.04 10.2195C399.84 6.77623 388.26 3.22286 365.49 3.22286V1.93164C388.46 1.93164 400.13 5.51503 411.42 8.98832C422.62 12.4316 434.2 15.9849 456.97 15.9849C479.74 15.9849 491.32 12.4216 502.52 8.98832C513.81 5.51503 525.48 1.93164 548.45 1.93164V3.22286C525.68 3.22286 514.1 6.78624 502.9 10.2195C491.61 13.6928 479.94 17.2762 456.97 17.2762Z" fill="#B6D5EC"/>
<path d="M456.97 10.7896C434.02 10.7896 422.35 7.20621 411.07 3.73292C399.87 0.28966 388.28 -3.27371 365.5 -3.27371V-4.38477C388.45 -4.38477 400.12 -0.801374 411.4 2.67191C422.6 6.11517 434.19 9.67855 456.97 9.67855C479.75 9.67855 491.34 6.11517 502.54 2.67191C513.82 -0.791365 525.49 -4.38477 548.44 -4.38477V-3.27371C525.65 -3.27371 514.07 0.28966 502.87 3.73292C491.59 7.1962 479.92 10.7896 456.97 10.7896Z" fill="#B6D5EC"/>
<path d="M456.97 4.3045C434.03 4.3045 422.37 0.721106 411.1 -2.74217C399.89 -6.18543 388.3 -9.74881 365.5 -9.74881V-10.6797C388.44 -10.6797 400.1 -7.09629 411.37 -3.63302C422.58 -0.189755 434.17 3.37362 456.97 3.37362C479.77 3.37362 491.36 -0.189755 502.57 -3.63302C513.85 -7.09629 525.5 -10.6797 548.44 -10.6797V-9.74881C525.64 -9.74881 514.05 -6.18543 502.84 -2.74217C491.56 0.721106 479.91 4.3045 456.97 4.3045Z" fill="#B6D5EC"/>
<path d="M365.501 75.3703C342.381 75.3703 330.641 71.7569 319.281 68.2636C308.151 64.8404 296.651 61.307 274.031 61.307C251.411 61.307 239.911 64.8404 228.781 68.2636C217.421 71.7569 205.671 75.3703 182.561 75.3703V72.0672C205.181 72.0672 216.681 68.5339 227.811 65.1106C239.171 61.6173 250.921 58.0039 274.031 58.0039C297.151 58.0039 308.891 61.6173 320.251 65.1006C331.381 68.5239 342.881 72.0572 365.501 72.0572V75.3603V75.3703Z" fill="#B6D5EC"/>
<path d="M365.501 81.6665C342.401 81.6665 330.661 78.0631 319.311 74.5698C308.181 71.1465 296.671 67.6132 274.031 67.6132C251.401 67.6132 239.881 71.1565 228.751 74.5698C217.401 78.0631 205.661 81.6665 182.561 81.6665V78.5435C205.191 78.5435 216.711 75.0002 227.841 71.587C239.191 68.0936 250.931 64.4902 274.031 64.4902C297.131 64.4902 308.871 68.0936 320.221 71.587C331.351 75.0102 342.861 78.5435 365.501 78.5435V81.6665Z" fill="#B6D5EC"/>
<path d="M365.501 87.9729C342.411 87.9729 330.681 84.3695 319.331 80.8762C308.191 77.4529 296.671 73.9096 274.031 73.9096C251.381 73.9096 239.861 77.4529 228.731 80.8762C217.381 84.3595 205.651 87.9729 182.561 87.9729V85.0301C205.211 85.0301 216.731 81.4868 227.861 78.0635C239.211 74.5802 250.941 70.9668 274.031 70.9668C297.121 70.9668 308.851 74.5702 320.201 78.0635C331.341 81.4868 342.861 85.0301 365.511 85.0301V87.9729H365.501Z" fill="#B6D5EC"/>
<path d="M365.501 94.2786C342.431 94.2786 330.701 90.6752 319.361 87.1919C308.221 83.7686 296.691 80.2253 274.031 80.2253C251.371 80.2253 239.841 83.7686 228.701 87.1919C217.361 90.6752 205.631 94.2786 182.561 94.2786V91.526C205.221 91.526 216.751 87.9826 227.891 84.5594C239.231 81.0761 250.961 77.4727 274.031 77.4727C297.101 77.4727 308.831 81.0761 320.171 84.5594C331.321 87.9826 342.841 91.526 365.501 91.526V94.2786Z" fill="#B6D5EC"/>
<path d="M365.501 100.585C342.441 100.585 330.721 96.9816 319.391 93.4983C308.241 90.065 296.711 86.5217 274.031 86.5217C251.361 86.5217 239.821 90.065 228.671 93.4983C217.341 96.9816 205.621 100.585 182.561 100.585V98.0125C205.231 98.0125 216.771 94.4692 227.921 91.0359C239.251 87.5526 250.971 83.9492 274.031 83.9492C297.091 83.9492 308.811 87.5526 320.141 91.0359C331.291 94.4592 342.821 98.0125 365.501 98.0125V100.585Z" fill="#B6D5EC"/>
<path d="M365.501 106.881C342.451 106.881 330.741 103.278 319.411 99.7947C308.251 96.3614 296.711 92.818 274.021 92.818C251.331 92.818 239.791 96.3614 228.631 99.7947C217.301 103.278 205.591 106.881 182.541 106.881V104.489C205.231 104.489 216.771 100.946 227.931 97.5125C239.261 94.0292 250.971 90.4258 274.021 90.4258C297.071 90.4258 308.781 94.0292 320.111 97.5125C331.271 100.946 342.811 104.489 365.501 104.489V106.881Z" fill="#B6D5EC"/>
<path d="M365.501 113.187C342.471 113.187 330.761 109.594 319.441 106.111C308.271 102.677 296.731 99.134 274.031 99.134C251.331 99.134 239.781 102.687 228.621 106.111C217.301 109.594 205.591 113.187 182.561 113.187V110.975C205.261 110.975 216.811 107.422 227.971 103.999C239.291 100.515 251.001 96.9219 274.031 96.9219C297.061 96.9219 308.771 100.515 320.091 103.999C331.261 107.432 342.801 110.975 365.501 110.975V113.187Z" fill="#B6D5EC"/>
<path d="M365.501 119.493C342.481 119.493 330.781 115.9 319.471 112.417C308.301 108.983 296.751 105.43 274.031 105.43C251.311 105.43 239.761 108.983 228.591 112.417C217.281 115.89 205.581 119.493 182.561 119.493V117.472C205.281 117.472 216.831 113.918 228.001 110.485C239.311 107.012 251.011 103.408 274.031 103.408C297.051 103.408 308.751 107.002 320.061 110.485C331.231 113.918 342.781 117.472 365.501 117.472V119.493Z" fill="#B6D5EC"/>
<path d="M365.501 125.79C342.491 125.79 330.801 122.196 319.491 118.723C308.311 115.29 296.751 111.736 274.021 111.736C251.291 111.736 239.731 115.29 228.551 118.723C217.241 122.196 205.551 125.79 182.541 125.79V123.948C205.271 123.948 216.831 120.394 228.011 116.961C239.321 113.488 251.011 109.895 274.021 109.895C297.031 109.895 308.721 113.488 320.031 116.961C331.211 120.394 342.771 123.948 365.501 123.948V125.79Z" fill="#B6D5EC"/>
<path d="M365.501 132.094C342.511 132.094 330.821 128.501 319.521 125.027C308.341 121.594 296.771 118.031 274.031 118.031C251.291 118.031 239.721 121.584 228.541 125.027C217.241 128.501 205.551 132.094 182.561 132.094V130.432C205.301 130.432 216.871 126.879 228.051 123.436C239.351 119.963 251.041 116.369 274.031 116.369C297.021 116.369 308.711 119.963 320.011 123.436C331.191 126.869 342.761 130.432 365.501 130.432V132.094Z" fill="#B6D5EC"/>
<path d="M365.501 138.4C342.521 138.4 330.841 134.807 319.551 131.333C308.361 127.89 296.791 124.337 274.031 124.337C251.271 124.337 239.701 127.89 228.511 131.333C217.221 134.807 205.541 138.4 182.561 138.4V136.929C205.321 136.929 216.891 133.375 228.081 129.932C239.371 126.459 251.051 122.865 274.031 122.865C297.011 122.865 308.691 126.459 319.981 129.932C331.171 133.375 342.741 136.929 365.501 136.929V138.4Z" fill="#B6D5EC"/>
<path d="M365.501 144.706C342.531 144.706 330.861 141.122 319.571 137.649C308.371 134.206 296.791 130.653 274.021 130.653C251.251 130.653 239.671 134.216 228.471 137.649C217.181 141.122 205.511 144.706 182.541 144.706V143.415C205.311 143.415 216.891 139.851 228.091 136.418C239.381 132.945 251.051 129.361 274.021 129.361C296.981 129.361 308.661 132.945 319.951 136.418C331.151 139.861 342.731 143.415 365.501 143.415V144.706Z" fill="#B6D5EC"/>
<path d="M365.501 151.002C342.551 151.002 330.881 147.419 319.601 143.946C308.401 140.503 296.811 136.939 274.031 136.939C251.251 136.939 239.661 140.503 228.461 143.946C217.181 147.409 205.511 151.002 182.561 151.002V149.891C205.341 149.891 216.931 146.328 228.131 142.885C239.411 139.422 251.081 135.828 274.031 135.828C296.981 135.828 308.651 139.412 319.931 142.885C331.131 146.328 342.721 149.891 365.501 149.891V151.002Z" fill="#B6D5EC"/>
<path d="M365.501 157.308C342.561 157.308 330.901 153.725 319.631 150.262C308.421 146.818 296.831 143.255 274.031 143.255C251.231 143.255 239.641 146.818 228.431 150.262C217.151 153.725 205.501 157.308 182.561 157.308V156.378C205.361 156.378 216.951 152.814 228.161 149.371C239.441 145.908 251.091 142.324 274.031 142.324C296.971 142.324 308.631 145.908 319.901 149.371C331.111 152.814 342.701 156.378 365.501 156.378V157.308Z" fill="#B6D5EC"/>
<path d="M365.501 163.615C342.581 163.615 330.921 160.031 319.651 156.568C308.431 153.125 296.841 149.551 274.021 149.551C251.211 149.551 239.611 153.115 228.391 156.568C217.121 160.031 205.471 163.615 182.551 163.615V162.874C205.361 162.874 216.961 159.31 228.181 155.857C239.451 152.394 251.101 148.811 274.021 148.811C296.941 148.811 308.601 152.394 319.861 155.857C331.081 159.3 342.671 162.874 365.491 162.874V163.615H365.501Z" fill="#B6D5EC"/>
</g>
</svg>
