<svg width="390" height="75" viewBox="0 0 390 75" fill="none" xmlns="http://www.w3.org/2000/svg">
<g opacity="0.6">
<mask id="mask0_1170_1324" style="mask-type:luminance" maskUnits="userSpaceOnUse" x="0" y="0" width="390" height="75">
<path d="M390 0H0V75H390V0Z" fill="white"/>
</mask>
<g mask="url(#mask0_1170_1324)">
<path d="M38.7657 37.9765C28.8645 37.9765 23.8333 36.4326 18.9634 34.9347C14.201 33.4676 9.26959 31.9544 -0.416504 31.9544V30.541C9.48466 30.541 14.5159 32.085 19.3858 33.5828C24.1482 35.0499 29.0796 36.5631 38.7657 36.5631C48.4518 36.5631 53.3832 35.0499 58.1456 33.5828C63.0078 32.085 68.039 30.541 77.9479 30.541V31.9544C68.2618 31.9544 63.3304 33.4676 58.568 34.9347C53.7058 36.4326 48.6745 37.9765 38.7657 37.9765Z" fill="#ABD3EC"/>
<path d="M38.7657 35.1947C28.8722 35.1947 23.841 33.6508 18.9787 32.1606C14.2086 30.6935 9.27727 29.1803 -0.416504 29.1803V27.8438C9.47698 27.8438 14.5082 29.3877 19.3705 30.8779C24.1405 32.345 29.0719 33.8582 38.7657 33.8582C48.4595 33.8582 53.3908 32.345 58.1609 30.8779C63.0232 29.3877 68.0544 27.8438 77.9479 27.8438V29.1803C68.2541 29.1803 63.3227 30.6935 58.5527 32.1606C53.6904 33.6508 48.6592 35.1947 38.7657 35.1947Z" fill="#ABD3EC"/>
<path d="M38.7657 32.4226C28.8722 32.4226 23.8487 30.8787 18.9864 29.3885C14.2163 27.9214 9.28495 26.4082 -0.416504 26.4082V25.1484C9.47698 25.1484 14.5005 26.6924 19.3628 28.1825C24.1329 29.6497 29.0642 31.1629 38.7657 31.1629C48.4672 31.1629 53.3985 29.6497 58.1763 28.1825C63.0385 26.6924 68.0621 25.1484 77.9556 25.1484V26.4082C68.2541 26.4082 63.3227 27.9214 58.5527 29.3885C53.6904 30.8787 48.6669 32.4226 38.7734 32.4226H38.7657Z" fill="#ABD3EC"/>
<path d="M38.7657 29.6485C28.8799 29.6485 23.8563 28.1046 19.0018 26.6144C14.224 25.1473 9.29263 23.6341 -0.416504 23.6341V22.4512C9.4693 22.4512 14.4929 23.9951 19.3474 25.4853C24.1252 26.9524 29.0566 28.4656 38.7657 28.4656C48.4748 28.4656 53.4062 26.9524 58.184 25.4853C63.0385 23.9951 68.0621 22.4512 77.9479 22.4512V23.6341C68.2388 23.6341 63.3074 25.1473 58.5296 26.6144C53.675 28.1046 48.6515 29.6485 38.7657 29.6485Z" fill="#ABD3EC"/>
<path d="M38.7657 26.8687C28.8876 26.8687 23.864 25.3248 19.0094 23.8346C14.2317 22.3675 9.29263 20.8543 -0.416504 20.8543V19.7559C9.46162 19.7559 14.4852 21.2998 19.3397 22.79C24.1175 24.2571 29.0566 25.7703 38.7657 25.7703C48.4748 25.7703 53.4216 24.2571 58.1916 22.79C63.0462 21.2998 68.0698 19.7559 77.9479 19.7559V20.8543C68.2388 20.8543 63.292 22.3675 58.5219 23.8346C53.6674 25.3248 48.6438 26.8687 38.7657 26.8687Z" fill="#ABD3EC"/>
<path d="M38.7657 24.0965C28.8953 24.0965 23.8794 22.5525 19.0248 21.0624C14.2471 19.5952 9.30031 18.0743 -0.416504 18.0743V17.0527C9.45394 17.0527 14.4698 18.5967 19.3244 20.0868C24.1021 21.554 29.0489 23.0749 38.7657 23.0749C48.4825 23.0749 53.4293 21.554 58.207 20.0868C63.0616 18.5967 68.0774 17.0527 77.9479 17.0527V18.0743C68.2311 18.0743 63.2843 19.5952 58.5066 21.0624C53.652 22.5525 48.6361 24.0965 38.7657 24.0965Z" fill="#ABD3EC"/>
<path d="M38.7657 21.3225C28.9029 21.3225 23.8871 19.7863 19.0325 18.2961C14.2471 16.829 9.30799 15.3081 -0.416504 15.3081V14.3633C9.44626 14.3633 14.4621 15.8995 19.3167 17.3897C24.1021 18.8568 29.0412 20.3777 38.7657 20.3777C48.4902 20.3777 53.4369 18.8568 58.2147 17.3897C63.0616 15.8995 68.0774 14.3633 77.9479 14.3633V15.3081C68.2234 15.3081 63.2766 16.829 58.4989 18.2961C53.652 19.7863 48.6361 21.3225 38.7657 21.3225Z" fill="#ABD3EC"/>
<path d="M38.7657 18.5426C28.9029 18.5426 23.8947 17.0063 19.0479 15.5162C14.2624 14.049 9.31567 12.5281 -0.416504 12.5281V11.6602C9.44626 11.6602 14.4544 13.1964 19.3013 14.6866C24.0868 16.1537 29.0335 17.6746 38.7657 17.6746C48.4979 17.6746 53.4446 16.1537 58.23 14.6866C63.0769 13.1964 68.0851 11.6602 77.9479 11.6602V12.5281C68.2157 12.5281 63.269 14.049 58.4835 15.5162C53.6366 17.0063 48.6285 18.5426 38.7657 18.5426Z" fill="#ABD3EC"/>
<path d="M38.7657 15.7685C28.9106 15.7685 23.9024 14.2322 19.0555 12.7421C14.2701 11.275 9.31567 9.75406 -0.416504 9.75406V8.96289C9.43857 8.96289 14.4468 10.4991 19.2937 11.9893C24.0791 13.4564 29.0335 14.9773 38.7657 14.9773C48.5056 14.9773 53.4523 13.4564 58.2377 11.9893C63.0846 10.4991 68.0928 8.96289 77.9479 8.96289V9.75406C68.208 9.75406 63.2613 11.275 58.4758 12.7421C53.629 14.2322 48.6208 15.7685 38.7657 15.7685Z" fill="#ABD3EC"/>
<path d="M38.7657 12.9964C28.9183 12.9964 23.9101 11.4601 19.0709 9.96995C14.2778 8.49515 9.32336 6.97426 -0.416504 6.97426V6.26758C9.43089 6.26758 14.4391 7.80383 19.2783 9.294C24.0714 10.7688 29.0258 12.2897 38.7657 12.2897C48.5056 12.2897 53.46 10.7688 58.2531 9.294C63.0923 7.80383 68.1005 6.26758 77.9479 6.26758V6.97426C68.208 6.97426 63.2536 8.49515 58.4605 9.96995C53.6213 11.4601 48.6131 12.9964 38.7657 12.9964Z" fill="#ABD3EC"/>
<path d="M38.7657 10.2166C28.926 10.2166 23.9178 8.68032 19.0786 7.19783C14.2855 5.72302 9.33104 4.20213 -0.416504 4.20213V3.57227C9.42321 3.57227 14.4314 5.10852 19.2706 6.59101C24.0637 8.06581 29.0182 9.58671 38.7657 9.58671C48.5132 9.58671 53.4677 8.06581 58.2608 6.59101C63.1 5.10852 68.1005 3.57227 77.9479 3.57227V4.20213C68.2003 4.20213 63.2459 5.72302 58.4528 7.19783C53.6136 8.68032 48.6131 10.2166 38.7657 10.2166Z" fill="#ABD3EC"/>
<path d="M38.7657 7.44249C28.926 7.44249 23.9255 5.90624 19.0939 4.42375C14.3008 2.94895 9.33872 1.42805 -0.416504 1.42805V0.875C9.42321 0.875 14.4237 2.41126 19.2552 3.89374C24.0484 5.36855 29.0105 6.88944 38.7657 6.88944C48.5209 6.88944 53.4753 5.36855 58.2761 3.89374C63.1077 2.41126 68.1082 0.875 77.9479 0.875V1.42805C68.1927 1.42805 63.2306 2.94895 58.4374 4.42375C53.6059 5.90624 48.6054 7.44249 38.7657 7.44249Z" fill="#ABD3EC"/>
<path d="M38.7657 4.66256C28.9337 4.66256 23.9408 3.1263 19.1016 1.64381C14.3008 0.169007 9.33872 -1.35189 -0.416504 -1.35189V-1.82812C9.41553 -1.82812 14.4084 -0.291869 19.2476 1.19062C24.0484 2.66542 29.0105 4.18632 38.7657 4.18632C48.5209 4.18632 53.4907 2.66542 58.2838 1.19062C63.1153 -0.291869 68.1159 -1.82812 77.9479 -1.82812V-1.35189C68.185 -1.35189 63.2229 0.169007 58.4298 1.64381C53.5982 3.1263 48.5977 4.66256 38.7657 4.66256Z" fill="#ABD3EC"/>
<path d="M38.7657 1.88848C28.9413 1.88848 23.9485 0.352221 19.117 -1.13027C14.3162 -2.60507 9.3464 -4.13365 -0.416504 -4.12596V-4.52539C9.40785 -4.52539 14.4007 -2.98913 19.2322 -1.50665C24.033 -0.0318426 29.0028 1.48905 38.7657 1.48905C48.5286 1.48905 53.4984 -0.0395239 58.2992 -1.50665C63.1307 -2.98913 68.1235 -4.52539 77.9479 -4.52539V-4.12596C68.185 -4.12596 63.2152 -2.59739 58.4144 -1.13027C53.5829 0.352221 48.59 1.88848 38.7657 1.88848Z" fill="#ABD3EC"/>
<path d="M195.495 37.9765C185.594 37.9765 180.562 36.4326 175.692 34.9347C170.93 33.4676 165.999 31.9544 156.312 31.9544V30.541C166.214 30.541 171.245 32.085 176.115 33.5828C180.877 35.0499 185.809 36.5631 195.495 36.5631C205.181 36.5631 210.112 35.0499 214.875 33.5828C219.737 32.085 224.768 30.541 234.677 30.541V31.9544C224.991 31.9544 220.059 33.4676 215.297 34.9347C210.435 36.4326 205.404 37.9765 195.495 37.9765Z" fill="#ABD3EC"/>
<path d="M195.495 35.1947C185.601 35.1947 180.57 33.6508 175.708 32.1606C170.938 30.6935 166.006 29.1803 156.312 29.1803V27.8438C166.206 27.8438 171.237 29.3877 176.099 30.8779C180.87 32.345 185.801 33.8582 195.495 33.8582C205.188 33.8582 210.12 32.345 214.89 30.8779C219.752 29.3877 224.783 27.8438 234.677 27.8438V29.1803C224.983 29.1803 220.052 30.6935 215.282 32.1606C210.419 33.6508 205.388 35.1947 195.495 35.1947Z" fill="#ABD3EC"/>
<path d="M195.495 32.4226C185.601 32.4226 180.578 30.8787 175.715 29.3885C170.945 27.9214 166.014 26.4082 156.312 26.4082V25.1484C166.206 25.1484 171.23 26.6924 176.092 28.1825C180.862 29.6497 185.793 31.1629 195.495 31.1629C205.196 31.1629 210.128 29.6497 214.898 28.1825C219.76 26.6924 224.783 25.1484 234.677 25.1484V26.4082C224.975 26.4082 220.044 27.9214 215.266 29.3885C210.404 30.8787 205.381 32.4226 195.487 32.4226H195.495Z" fill="#ABD3EC"/>
<path d="M195.495 29.6485C185.609 29.6485 180.585 28.1046 175.731 26.6144C170.953 25.1473 166.022 23.6341 156.312 23.6341V22.4512C166.198 22.4512 171.222 23.9951 176.076 25.4853C180.854 26.9524 185.786 28.4656 195.495 28.4656C205.204 28.4656 210.135 26.9524 214.913 25.4853C219.768 23.9951 224.791 22.4512 234.677 22.4512V23.6341C224.968 23.6341 220.036 25.1473 215.259 26.6144C210.404 28.1046 205.38 29.6485 195.495 29.6485Z" fill="#ABD3EC"/>
<path d="M195.495 26.8687C185.617 26.8687 180.593 25.3248 175.738 23.8346C170.961 22.3675 166.022 20.8543 156.312 20.8543V19.7559C166.191 19.7559 171.214 21.2998 176.069 22.79C180.847 24.2571 185.786 25.7703 195.495 25.7703C205.204 25.7703 210.151 24.2571 214.921 22.79C219.775 21.2998 224.799 19.7559 234.677 19.7559V20.8543C224.968 20.8543 220.021 22.3675 215.251 23.8346C210.396 25.3248 205.373 26.8687 195.495 26.8687Z" fill="#ABD3EC"/>
<path d="M195.495 24.0965C185.624 24.0965 180.608 22.5525 175.754 21.0624C170.976 19.5952 166.029 18.0743 156.312 18.0743V17.0527C166.183 17.0527 171.199 18.5967 176.053 20.0868C180.831 21.554 185.778 23.0749 195.495 23.0749C205.212 23.0749 210.158 21.554 214.936 20.0868C219.791 18.5967 224.806 17.0527 234.677 17.0527V18.0743C224.96 18.0743 220.013 19.5952 215.236 21.0624C210.381 22.5525 205.365 24.0965 195.495 24.0965Z" fill="#ABD3EC"/>
<path d="M195.495 21.3225C185.632 21.3225 180.616 19.7863 175.761 18.2961C170.976 16.829 166.037 15.3081 156.312 15.3081V14.3633C166.175 14.3633 171.191 15.8995 176.046 17.3897C180.831 18.8568 185.77 20.3777 195.495 20.3777C205.219 20.3777 210.166 18.8568 214.944 17.3897C219.791 15.8995 224.806 14.3633 234.677 14.3633V15.3081C224.952 15.3081 220.006 16.829 215.228 18.2961C210.381 19.7863 205.365 21.3225 195.495 21.3225Z" fill="#ABD3EC"/>
<path d="M195.495 18.5426C185.632 18.5426 180.624 17.0063 175.777 15.5162C170.991 14.049 166.045 12.5281 156.312 12.5281V11.6602C166.175 11.6602 171.183 13.1964 176.03 14.6866C180.816 16.1537 185.763 17.6746 195.495 17.6746C205.227 17.6746 210.174 16.1537 214.959 14.6866C219.806 13.1964 224.814 11.6602 234.677 11.6602V12.5281C224.945 12.5281 219.998 14.049 215.213 15.5162C210.366 17.0063 205.357 18.5426 195.495 18.5426Z" fill="#ABD3EC"/>
<path d="M195.495 15.7685C185.64 15.7685 180.631 14.2322 175.785 12.7421C170.999 11.275 166.045 9.75406 156.312 9.75406V8.96289C166.168 8.96289 171.176 10.4991 176.023 11.9893C180.808 13.4564 185.763 14.9773 195.495 14.9773C205.235 14.9773 210.181 13.4564 214.967 11.9893C219.814 10.4991 224.822 8.96289 234.677 8.96289V9.75406C224.937 9.75406 219.99 11.275 215.205 12.7421C210.358 14.2322 205.35 15.7685 195.495 15.7685Z" fill="#ABD3EC"/>
<path d="M195.495 12.9964C185.647 12.9964 180.639 11.4601 175.8 9.96995C171.007 8.49515 166.052 6.97426 156.312 6.97426V6.26758C166.16 6.26758 171.168 7.80383 176.007 9.294C180.8 10.7688 185.755 12.2897 195.495 12.2897C205.235 12.2897 210.189 10.7688 214.982 9.294C219.821 7.80383 224.829 6.26758 234.677 6.26758V6.97426C224.937 6.97426 219.983 8.49515 215.189 9.96995C210.35 11.4601 205.342 12.9964 195.495 12.9964Z" fill="#ABD3EC"/>
<path d="M195.495 10.2166C185.655 10.2166 180.647 8.68032 175.808 7.19783C171.014 5.72302 166.06 4.20213 156.312 4.20213V3.57227C166.152 3.57227 171.16 5.10852 176 6.59101C180.793 8.06581 185.747 9.58671 195.495 9.58671C205.242 9.58671 210.197 8.06581 214.99 6.59101C219.829 5.10852 224.829 3.57227 234.677 3.57227V4.20213C224.929 4.20213 219.975 5.72302 215.182 7.19783C210.343 8.68032 205.342 10.2166 195.495 10.2166Z" fill="#ABD3EC"/>
<path d="M195.495 7.44249C185.655 7.44249 180.654 5.90624 175.823 4.42375C171.03 2.94895 166.068 1.42805 156.312 1.42805V0.875C166.152 0.875 171.153 2.41126 175.984 3.89374C180.777 5.36855 185.739 6.88944 195.495 6.88944C205.25 6.88944 210.204 5.36855 215.005 3.89374C219.837 2.41126 224.837 0.875 234.677 0.875V1.42805C224.922 1.42805 219.96 2.94895 215.166 4.42375C210.335 5.90624 205.334 7.44249 195.495 7.44249Z" fill="#ABD3EC"/>
<path d="M195.495 4.66256C185.663 4.66256 180.67 3.1263 175.831 1.64381C171.03 0.169007 166.068 -1.35189 156.312 -1.35189V-1.82812C166.145 -1.82812 171.137 -0.291869 175.977 1.19062C180.777 2.66542 185.739 4.18632 195.495 4.18632C205.258 4.18632 210.22 2.66542 215.013 1.19062C219.844 -0.291869 224.845 -1.82812 234.677 -1.82812V-1.35189C224.914 -1.35189 219.952 0.169007 215.159 1.64381C210.327 3.1263 205.327 4.66256 195.495 4.66256Z" fill="#ABD3EC"/>
<path d="M195.495 1.88848C185.67 1.88848 180.678 0.352221 175.846 -1.13027C171.045 -2.60507 166.075 -4.13365 156.312 -4.12596V-4.52539C166.137 -4.52539 171.13 -2.98913 175.961 -1.50665C180.762 -0.0318426 185.732 1.48905 195.495 1.48905C205.258 1.48905 210.227 -0.0395239 215.028 -1.50665C219.86 -2.98913 224.853 -4.52539 234.677 -4.52539V-4.12596C224.914 -4.12596 219.944 -2.59739 215.143 -1.13027C210.312 0.352221 205.319 1.88848 195.495 1.88848Z" fill="#ABD3EC"/>
<path d="M156.32 32.2988C146.419 32.2988 141.388 30.7548 136.518 29.257C131.755 27.7898 126.824 26.2766 117.138 26.2766C107.452 26.2766 102.52 27.7898 97.7579 29.257C92.8957 30.7548 87.8644 32.2988 77.9556 32.2988V30.8854C87.6417 30.8854 92.573 29.3722 97.3354 27.9051C102.198 26.4072 107.229 24.8633 117.138 24.8633C127.047 24.8633 132.07 26.4072 136.94 27.9051C141.702 29.3722 146.634 30.8854 156.32 30.8854V32.2988Z" fill="#ABD3EC"/>
<path d="M156.32 34.9955C146.426 34.9955 141.395 33.4516 136.533 31.9614C131.763 30.4943 126.832 28.9811 117.138 28.9811C107.444 28.9811 102.513 30.4943 97.7425 31.9614C92.8803 33.4516 87.8491 34.9955 77.9556 34.9955V33.659C87.6493 33.659 92.5807 32.1458 97.3508 30.6786C102.213 29.1885 107.244 27.6445 117.138 27.6445C127.031 27.6445 132.062 29.1885 136.925 30.6786C141.695 32.1458 146.626 33.659 156.32 33.659V34.9955Z" fill="#ABD3EC"/>
<path d="M156.32 37.7C146.426 37.7 141.403 36.156 136.541 34.6658C131.771 33.1987 126.839 31.6855 117.138 31.6855C107.436 31.6855 102.505 33.1987 97.7349 34.6658C92.8726 36.156 87.8491 37.7 77.9556 37.7V36.4402C87.657 36.4402 92.5884 34.927 97.3585 33.4599C102.221 31.9697 107.244 30.4258 117.138 30.4258C127.031 30.4258 132.055 31.9697 136.917 33.4599C141.687 34.927 146.626 36.4402 156.328 36.4402V37.7H156.32Z" fill="#ABD3EC"/>
<path d="M156.32 40.3966C146.434 40.3966 141.411 38.8526 136.556 37.3625C131.778 35.8953 126.847 34.3821 117.138 34.3821C107.429 34.3821 102.497 35.8953 97.7195 37.3625C92.8649 38.8526 87.8414 40.3966 77.9556 40.3966V39.2137C87.6647 39.2137 92.5961 37.7004 97.3738 36.2333C102.228 34.7432 107.252 33.1992 117.138 33.1992C127.024 33.1992 132.047 34.7432 136.902 36.2333C141.679 37.7004 146.611 39.2137 156.32 39.2137V40.3966Z" fill="#ABD3EC"/>
<path d="M156.32 43.0914C146.442 43.0914 141.418 41.5474 136.564 40.0573C131.786 38.5901 126.847 37.0769 117.138 37.0769C107.429 37.0769 102.482 38.5901 97.7118 40.0573C92.8572 41.5474 87.8337 43.0914 77.9556 43.0914V41.993C87.6647 41.993 92.6114 40.4797 97.3815 39.0126C102.236 37.5225 107.26 35.9785 117.138 35.9785C127.016 35.9785 132.039 37.5225 136.894 39.0126C141.672 40.4797 146.611 41.993 156.32 41.993V43.0914Z" fill="#ABD3EC"/>
<path d="M156.32 45.7879C146.45 45.7879 141.434 44.2439 136.579 42.7538C131.801 41.2866 126.855 39.7657 117.138 39.7657C107.421 39.7657 102.474 41.2866 97.6965 42.7538C92.8419 44.2439 87.826 45.7879 77.9556 45.7879V44.7663C87.6724 44.7663 92.6191 43.2454 97.3969 41.7782C102.251 40.2881 107.267 38.7441 117.138 38.7441C127.008 38.7441 132.024 40.2881 136.879 41.7782C141.656 43.2454 146.603 44.7663 156.32 44.7663V45.7879Z" fill="#ABD3EC"/>
<path d="M156.32 48.4846C146.45 48.4846 141.441 46.9484 136.587 45.4582C131.801 43.9911 126.862 42.4702 117.138 42.4702C107.413 42.4702 102.467 43.9911 97.6888 45.4582C92.8419 46.9484 87.826 48.4846 77.9556 48.4846V47.5398C87.6801 47.5398 92.6268 46.0189 97.4046 44.5518C102.251 43.0616 107.267 41.5254 117.138 41.5254C127.001 41.5254 132.016 43.0616 136.871 44.5518C141.656 46.0189 146.595 47.5398 156.32 47.5398V48.4846Z" fill="#ABD3EC"/>
<path d="M156.32 51.1793C146.457 51.1793 141.449 49.643 136.602 48.1529C131.817 46.6858 126.87 45.1649 117.138 45.1649C107.406 45.1649 102.459 46.6858 97.6734 48.1529C92.8265 49.643 87.8183 51.1793 77.9556 51.1793V50.3113C87.6877 50.3113 92.6345 48.7904 97.4199 47.3233C102.267 45.8331 107.275 44.2969 117.138 44.2969C127.001 44.2969 132.009 45.8331 136.856 47.3233C141.641 48.7904 146.588 50.3113 156.32 50.3113V51.1793Z" fill="#ABD3EC"/>
<path d="M156.32 53.8837C146.465 53.8837 141.457 52.3475 136.61 50.8573C131.824 49.3902 126.87 47.8693 117.138 47.8693C107.398 47.8693 102.451 49.3902 97.6657 50.8573C92.8188 52.3475 87.8106 53.8837 77.9556 53.8837V53.0926C87.6954 53.0926 92.6422 51.5717 97.4276 50.1045C102.274 48.6144 107.283 47.0781 117.138 47.0781C126.993 47.0781 132.001 48.6144 136.848 50.1045C141.633 51.5717 146.588 53.0926 156.32 53.0926V53.8837Z" fill="#ABD3EC"/>
<path d="M156.32 56.5804C146.473 56.5804 141.464 55.0441 136.625 53.5539C131.832 52.0791 126.878 50.5582 117.138 50.5582C107.398 50.5582 102.443 52.0791 97.6504 53.5539C92.8112 55.0441 87.803 56.5804 77.9556 56.5804V55.8737C87.6954 55.8737 92.6499 54.3528 97.443 52.878C102.282 51.3878 107.29 49.8516 117.138 49.8516C126.985 49.8516 131.993 51.3878 136.833 52.878C141.626 54.3528 146.58 55.8737 156.32 55.8737V56.5804Z" fill="#ABD3EC"/>
<path d="M156.32 59.2771C146.48 59.2771 141.472 57.7409 136.633 56.2584C131.84 54.7836 126.885 53.2627 117.138 53.2627C107.39 53.2627 102.436 54.7836 97.6427 56.2584C92.8035 57.7409 87.803 59.2771 77.9556 59.2771V58.6473C87.7031 58.6473 92.6575 57.1264 97.4506 55.6516C102.29 54.1691 107.29 52.6328 117.138 52.6328C126.977 52.6328 131.986 54.1691 136.825 55.6516C141.618 57.1264 146.572 58.6473 156.32 58.6473V59.2771Z" fill="#ABD3EC"/>
<path d="M156.32 61.9718C146.48 61.9718 141.48 60.4355 136.648 58.953C131.855 57.4782 126.893 55.9573 117.138 55.9573C107.383 55.9573 102.428 57.4782 97.6273 58.953C92.7958 60.4355 87.7953 61.9718 77.9556 61.9718V61.4187C87.7108 61.4187 92.6652 59.8978 97.466 58.423C102.298 56.9406 107.298 55.4043 117.138 55.4043C126.977 55.4043 131.978 56.9406 136.81 58.423C141.603 59.8978 146.565 61.4187 156.32 61.4187V61.9718Z" fill="#ABD3EC"/>
<path d="M156.32 64.6684C146.488 64.6684 141.495 63.1322 136.656 61.6497C131.855 60.1749 126.893 58.654 117.138 58.654C107.375 58.654 102.413 60.1749 97.6196 61.6497C92.7881 63.1322 87.7876 64.6684 77.9556 64.6684V64.1922C87.7185 64.1922 92.6806 62.6713 97.4737 61.1965C102.305 59.714 107.306 58.1777 117.138 58.1777C126.97 58.1777 131.963 59.714 136.802 61.1965C141.603 62.6713 146.565 64.1922 156.32 64.1922V64.6684Z" fill="#ABD3EC"/>
<path d="M156.32 67.3729C146.496 67.3729 141.503 65.8366 136.671 64.3541C131.87 62.8793 126.901 61.3584 117.138 61.3584C107.375 61.3584 102.405 62.887 97.6043 64.3541C92.7727 65.8366 87.7799 67.3729 77.9556 67.3729V66.9734C87.7185 66.9734 92.6883 65.4449 97.4891 63.9777C102.321 62.4952 107.313 60.959 117.138 60.959C126.962 60.959 131.955 62.4952 136.786 63.9777C141.587 65.4525 146.557 66.9734 156.32 66.9734V67.3729Z" fill="#ABD3EC"/>
<path d="M156.32 70.0675C146.503 70.0675 141.51 68.5313 136.679 67.0488C131.878 65.574 126.908 64.0454 117.138 64.0454C107.367 64.0454 102.397 65.574 97.5966 67.0488C92.7728 68.5313 87.7799 70.0675 77.9556 70.0675V69.7526C87.7262 69.7526 92.6959 68.224 97.4967 66.7492C102.321 65.2667 107.313 63.7305 117.138 63.7305C126.962 63.7305 131.947 65.2667 136.779 66.7492C141.58 68.224 146.549 69.7526 156.32 69.7526V70.0675Z" fill="#ABD3EC"/>
<path d="M352.231 37.9765C342.33 37.9765 337.299 36.4326 332.429 34.9347C327.666 33.4676 322.735 31.9544 313.049 31.9544V30.541C322.95 30.541 327.981 32.085 332.851 33.5828C337.614 35.0499 342.545 36.5631 352.231 36.5631C361.917 36.5631 366.848 35.0499 371.611 33.5828C376.473 32.085 381.504 30.541 391.413 30.541V31.9544C381.727 31.9544 376.796 33.4676 372.033 34.9347C367.171 36.4326 362.14 37.9765 352.231 37.9765Z" fill="#ABD3EC"/>
<path d="M352.231 35.1947C342.338 35.1947 337.306 33.6508 332.444 32.1606C327.674 30.6935 322.743 29.1803 313.049 29.1803V27.8438C322.942 27.8438 327.974 29.3877 332.836 30.8779C337.606 32.345 342.537 33.8582 352.231 33.8582C361.925 33.8582 366.856 32.345 371.626 30.8779C376.488 29.3877 381.52 27.8438 391.413 27.8438V29.1803C381.719 29.1803 376.788 30.6935 372.018 32.1606C367.156 33.6508 362.124 35.1947 352.231 35.1947Z" fill="#ABD3EC"/>
<path d="M352.231 32.4226C342.338 32.4226 337.314 30.8787 332.452 29.3885C327.682 27.9214 322.75 26.4082 313.049 26.4082V25.1484C322.942 25.1484 327.966 26.6924 332.828 28.1825C337.598 29.6497 342.53 31.1629 352.231 31.1629C361.932 31.1629 366.864 29.6497 371.634 28.1825C376.496 26.6924 381.52 25.1484 391.413 25.1484V26.4082C381.712 26.4082 376.78 27.9214 372.003 29.3885C367.14 30.8787 362.117 32.4226 352.223 32.4226H352.231Z" fill="#ABD3EC"/>
<path d="M352.231 29.6485C342.345 29.6485 337.322 28.1046 332.467 26.6144C327.689 25.1473 322.758 23.6341 313.049 23.6341V22.4512C322.935 22.4512 327.958 23.9951 332.813 25.4853C337.59 26.9524 342.522 28.4656 352.231 28.4656C361.94 28.4656 366.872 26.9524 371.649 25.4853C376.504 23.9951 381.527 22.4512 391.413 22.4512V23.6341C381.704 23.6341 376.773 25.1473 371.995 26.6144C367.14 28.1046 362.117 29.6485 352.231 29.6485Z" fill="#ABD3EC"/>
<path d="M352.231 26.8687C342.353 26.8687 337.329 25.3248 332.475 23.8346C327.697 22.3675 322.758 20.8543 313.049 20.8543V19.7559C322.927 19.7559 327.951 21.2998 332.805 22.79C337.583 24.2571 342.522 25.7703 352.231 25.7703C361.94 25.7703 366.887 24.2571 371.657 22.79C376.512 21.2998 381.535 19.7559 391.413 19.7559V20.8543C381.704 20.8543 376.757 22.3675 371.987 23.8346C367.133 25.3248 362.109 26.8687 352.231 26.8687Z" fill="#ABD3EC"/>
<path d="M352.231 24.0965C342.361 24.0965 337.345 22.5525 332.49 21.0624C327.712 19.5952 322.766 18.0743 313.049 18.0743V17.0527C322.919 17.0527 327.935 18.5967 332.79 20.0868C337.567 21.554 342.514 23.0749 352.231 23.0749C361.948 23.0749 366.895 21.554 371.672 20.0868C376.527 18.5967 381.543 17.0527 391.413 17.0527V18.0743C381.696 18.0743 376.75 19.5952 371.972 21.0624C367.117 22.5525 362.101 24.0965 352.231 24.0965Z" fill="#ABD3EC"/>
<path d="M352.231 21.3225C342.368 21.3225 337.352 19.7863 332.498 18.2961C327.712 16.829 322.773 15.3081 313.049 15.3081V14.3633C322.912 14.3633 327.927 15.8995 332.782 17.3897C337.567 18.8568 342.507 20.3777 352.231 20.3777C361.956 20.3777 366.902 18.8568 371.68 17.3897C376.527 15.8995 381.543 14.3633 391.413 14.3633V15.3081C381.689 15.3081 376.742 16.829 371.964 18.2961C367.117 19.7863 362.101 21.3225 352.231 21.3225Z" fill="#ABD3EC"/>
<path d="M352.231 18.5426C342.368 18.5426 337.36 17.0063 332.513 15.5162C327.728 14.049 322.781 12.5281 313.049 12.5281V11.6602C322.912 11.6602 327.92 13.1964 332.767 14.6866C337.552 16.1537 342.499 17.6746 352.231 17.6746C361.963 17.6746 366.91 16.1537 371.695 14.6866C376.542 13.1964 381.55 11.6602 391.413 11.6602V12.5281C381.681 12.5281 376.734 14.049 371.949 15.5162C367.102 17.0063 362.094 18.5426 352.231 18.5426Z" fill="#ABD3EC"/>
<path d="M352.231 15.7685C342.376 15.7685 337.368 14.2322 332.521 12.7421C327.735 11.275 322.781 9.75406 313.049 9.75406V8.96289C322.904 8.96289 327.912 10.4991 332.759 11.9893C337.544 13.4564 342.499 14.9773 352.231 14.9773C361.971 14.9773 366.918 13.4564 371.703 11.9893C376.55 10.4991 381.558 8.96289 391.413 8.96289V9.75406C381.673 9.75406 376.727 11.275 371.941 12.7421C367.094 14.2322 362.086 15.7685 352.231 15.7685Z" fill="#ABD3EC"/>
<path d="M352.231 12.9964C342.384 12.9964 337.375 11.4601 332.536 9.96995C327.743 8.49515 322.789 6.97426 313.049 6.97426V6.26758C322.896 6.26758 327.904 7.80383 332.744 9.294C337.537 10.7688 342.491 12.2897 352.231 12.2897C361.971 12.2897 366.925 10.7688 371.718 9.294C376.558 7.80383 381.566 6.26758 391.413 6.26758V6.97426C381.673 6.97426 376.719 8.49515 371.926 9.96995C367.087 11.4601 362.078 12.9964 352.231 12.9964Z" fill="#ABD3EC"/>
<path d="M352.231 10.2166C342.391 10.2166 337.383 8.68032 332.544 7.19783C327.751 5.72302 322.796 4.20213 313.049 4.20213V3.57227C322.889 3.57227 327.897 5.10852 332.736 6.59101C337.529 8.06581 342.483 9.58671 352.231 9.58671C361.979 9.58671 366.933 8.06581 371.726 6.59101C376.565 5.10852 381.566 3.57227 391.413 3.57227V4.20213C381.666 4.20213 376.711 5.72302 371.918 7.19783C367.079 8.68032 362.078 10.2166 352.231 10.2166Z" fill="#ABD3EC"/>
<path d="M352.231 7.44249C342.391 7.44249 337.391 5.90624 332.559 4.42375C327.766 2.94895 322.804 1.42805 313.049 1.42805V0.875C322.889 0.875 327.889 2.41126 332.721 3.89374C337.514 5.36855 342.476 6.88944 352.231 6.88944C361.986 6.88944 366.941 5.36855 371.741 3.89374C376.573 2.41126 381.574 0.875 391.413 0.875V1.42805C381.658 1.42805 376.696 2.94895 371.903 4.42375C367.071 5.90624 362.071 7.44249 352.231 7.44249Z" fill="#ABD3EC"/>
<path d="M352.231 4.66256C342.399 4.66256 337.406 3.1263 332.567 1.64381C327.766 0.169007 322.804 -1.35189 313.049 -1.35189V-1.82812C322.881 -1.82812 327.874 -0.291869 332.713 1.19062C337.514 2.66542 342.476 4.18632 352.231 4.18632C361.994 4.18632 366.956 2.66542 371.749 1.19062C376.581 -0.291869 381.581 -1.82812 391.413 -1.82812V-1.35189C381.65 -1.35189 376.688 0.169007 371.895 1.64381C367.064 3.1263 362.063 4.66256 352.231 4.66256Z" fill="#ABD3EC"/>
<path d="M352.231 1.88848C342.407 1.88848 337.414 0.352221 332.582 -1.13027C327.782 -2.60507 322.812 -4.13365 313.049 -4.12596V-4.52539C322.873 -4.52539 327.866 -2.98913 332.698 -1.50665C337.498 -0.0318426 342.468 1.48905 352.231 1.48905C361.994 1.48905 366.964 -0.0395239 371.765 -1.50665C376.596 -2.98913 381.589 -4.52539 391.413 -4.52539V-4.12596C381.65 -4.12596 376.681 -2.59739 371.88 -1.13027C367.048 0.352221 362.055 1.88848 352.231 1.88848Z" fill="#ABD3EC"/>
<path d="M313.048 32.2988C303.147 32.2988 298.116 30.7548 293.246 29.257C288.484 27.7898 283.552 26.2766 273.866 26.2766C264.18 26.2766 259.249 27.7898 254.486 29.257C249.624 30.7548 244.593 32.2988 234.684 32.2988V30.8854C244.37 30.8854 249.302 29.3722 254.064 27.9051C258.926 26.4072 263.957 24.8633 273.866 24.8633C283.775 24.8633 288.799 26.4072 293.669 27.9051C298.431 29.3722 303.362 30.8854 313.048 30.8854V32.2988Z" fill="#ABD3EC"/>
<path d="M313.048 34.9955C303.155 34.9955 298.124 33.4516 293.262 31.9614C288.491 30.4943 283.56 28.9811 273.866 28.9811C264.173 28.9811 259.241 30.4943 254.471 31.9614C249.609 33.4516 244.578 34.9955 234.684 34.9955V33.659C244.378 33.659 249.309 32.1458 254.079 30.6786C258.942 29.1885 263.973 27.6445 273.866 27.6445C283.76 27.6445 288.791 29.1885 293.653 30.6786C298.423 32.1458 303.355 33.659 313.048 33.659V34.9955Z" fill="#ABD3EC"/>
<path d="M313.048 37.7C303.155 37.7 298.131 36.156 293.269 34.6658C288.499 33.1987 283.568 31.6855 273.866 31.6855C264.165 31.6855 259.233 33.1987 254.463 34.6658C249.601 36.156 244.578 37.7 234.684 37.7V36.4402C244.386 36.4402 249.317 34.927 254.087 33.4599C258.949 31.9697 263.973 30.4258 273.866 30.4258C283.76 30.4258 288.783 31.9697 293.646 33.4599C298.416 34.927 303.355 36.4402 313.056 36.4402V37.7H313.048Z" fill="#ABD3EC"/>
<path d="M313.048 40.3966C303.163 40.3966 298.139 38.8526 293.285 37.3625C288.507 35.8953 283.575 34.3821 273.866 34.3821C264.157 34.3821 259.226 35.8953 254.448 37.3625C249.593 38.8526 244.57 40.3966 234.684 40.3966V39.2137C244.393 39.2137 249.325 37.7004 254.102 36.2333C258.957 34.7432 263.98 33.1992 273.866 33.1992C283.752 33.1992 288.776 34.7432 293.63 36.2333C298.408 37.7004 303.339 39.2137 313.048 39.2137V40.3966Z" fill="#ABD3EC"/>
<path d="M313.048 43.0914C303.17 43.0914 298.147 41.5474 293.292 40.0573C288.514 38.5901 283.575 37.0769 273.866 37.0769C264.157 37.0769 259.21 38.5901 254.44 40.0573C249.586 41.5474 244.562 43.0914 234.684 43.0914V41.993C244.393 41.993 249.34 40.4797 254.11 39.0126C258.965 37.5225 263.988 35.9785 273.866 35.9785C283.744 35.9785 288.768 37.5225 293.623 39.0126C298.4 40.4797 303.339 41.993 313.048 41.993V43.0914Z" fill="#ABD3EC"/>
<path d="M313.048 45.7879C303.178 45.7879 298.162 44.2439 293.308 42.7538C288.53 41.2866 283.583 39.7657 273.866 39.7657C264.149 39.7657 259.203 41.2866 254.425 42.7538C249.57 44.2439 244.555 45.7879 234.684 45.7879V44.7663C244.401 44.7663 249.348 43.2454 254.125 41.7782C258.98 40.2881 263.996 38.7441 273.866 38.7441C283.737 38.7441 288.753 40.2881 293.607 41.7782C298.385 43.2454 303.332 44.7663 313.048 44.7663V45.7879Z" fill="#ABD3EC"/>
<path d="M313.048 48.4846C303.178 48.4846 298.17 46.9484 293.315 45.4582C288.53 43.9911 283.591 42.4702 273.866 42.4702C264.142 42.4702 259.195 43.9911 254.417 45.4582C249.57 46.9484 244.555 48.4846 234.684 48.4846V47.5398C244.409 47.5398 249.355 46.0189 254.133 44.5518C258.98 43.0616 263.996 41.5254 273.866 41.5254C283.729 41.5254 288.745 43.0616 293.599 44.5518C298.385 46.0189 303.324 47.5398 313.048 47.5398V48.4846Z" fill="#ABD3EC"/>
<path d="M313.048 51.1793C303.186 51.1793 298.178 49.643 293.331 48.1529C288.545 46.6858 283.598 45.1649 273.866 45.1649C264.134 45.1649 259.187 46.6858 254.402 48.1529C249.555 49.643 244.547 51.1793 234.684 51.1793V50.3113C244.416 50.3113 249.363 48.7904 254.148 47.3233C258.995 45.8331 264.004 44.2969 273.866 44.2969C283.729 44.2969 288.737 45.8331 293.584 47.3233C298.37 48.7904 303.316 50.3113 313.048 50.3113V51.1793Z" fill="#ABD3EC"/>
<path d="M313.048 53.8837C303.193 53.8837 298.185 52.3475 293.338 50.8573C288.553 49.3902 283.598 47.8693 273.866 47.8693C264.126 47.8693 259.18 49.3902 254.394 50.8573C249.547 52.3475 244.539 53.8837 234.684 53.8837V53.0926C244.424 53.0926 249.371 51.5717 254.156 50.1045C259.003 48.6144 264.011 47.0781 273.866 47.0781C283.721 47.0781 288.73 48.6144 293.576 50.1045C298.362 51.5717 303.316 53.0926 313.048 53.0926V53.8837Z" fill="#ABD3EC"/>
<path d="M313.048 56.5804C303.201 56.5804 298.193 55.0441 293.354 53.5539C288.561 52.0791 283.606 50.5582 273.866 50.5582C264.126 50.5582 259.172 52.0791 254.379 53.5539C249.54 55.0441 244.531 56.5804 234.684 56.5804V55.8737C244.424 55.8737 249.378 54.3528 254.172 52.878C259.011 51.3878 264.019 49.8516 273.866 49.8516C283.714 49.8516 288.722 51.3878 293.561 52.878C298.354 54.3528 303.309 55.8737 313.048 55.8737V56.5804Z" fill="#ABD3EC"/>
<path d="M313.048 59.2771C303.209 59.2771 298.201 57.7409 293.361 56.2584C288.568 54.7836 283.614 53.2627 273.866 53.2627C264.119 53.2627 259.164 54.7836 254.371 56.2584C249.532 57.7409 244.531 59.2771 234.684 59.2771V58.6473C244.432 58.6473 249.386 57.1264 254.179 55.6516C259.018 54.1691 264.019 52.6328 273.866 52.6328C283.706 52.6328 288.714 54.1691 293.553 55.6516C298.347 57.1264 303.301 58.6473 313.048 58.6473V59.2771Z" fill="#ABD3EC"/>
<path d="M313.048 61.9718C303.209 61.9718 298.208 60.4355 293.377 58.953C288.584 57.4782 283.622 55.9573 273.866 55.9573C264.111 55.9573 259.157 57.4782 254.356 58.953C249.524 60.4355 244.524 61.9718 234.684 61.9718V61.4187C244.439 61.4187 249.394 59.8978 254.195 58.423C259.026 56.9406 264.027 55.4043 273.866 55.4043C283.706 55.4043 288.707 56.9406 293.538 58.423C298.331 59.8978 303.293 61.4187 313.048 61.4187V61.9718Z" fill="#ABD3EC"/>
<path d="M313.048 64.6684C303.216 64.6684 298.224 63.1322 293.384 61.6497C288.584 60.1749 283.622 58.654 273.866 58.654C264.103 58.654 259.141 60.1749 254.348 61.6497C249.517 63.1322 244.516 64.6684 234.684 64.6684V64.1922C244.447 64.1922 249.409 62.6713 254.202 61.1965C259.034 59.714 264.034 58.1777 273.866 58.1777C283.698 58.1777 288.691 59.714 293.53 61.1965C298.331 62.6713 303.293 64.1922 313.048 64.1922V64.6684Z" fill="#ABD3EC"/>
<path d="M313.048 67.3729C303.224 67.3729 298.231 65.8366 293.4 64.3541C288.599 62.8793 283.629 61.3584 273.866 61.3584C264.103 61.3584 259.134 62.887 254.333 64.3541C249.501 65.8366 244.508 67.3729 234.684 67.3729V66.9734C244.447 66.9734 249.417 65.4449 254.218 63.9777C259.049 62.4952 264.042 60.959 273.866 60.959C283.691 60.959 288.683 62.4952 293.515 63.9777C298.316 65.4525 303.286 66.9734 313.048 66.9734V67.3729Z" fill="#ABD3EC"/>
<path d="M313.048 70.0675C303.232 70.0675 298.239 68.5313 293.407 67.0488C288.607 65.574 283.637 64.0454 273.866 64.0454C264.096 64.0454 259.126 65.574 254.325 67.0488C249.501 68.5313 244.508 70.0675 234.684 70.0675V69.7526C244.455 69.7526 249.424 68.224 254.225 66.7492C259.049 65.2667 264.042 63.7305 273.866 63.7305C283.683 63.7305 288.676 65.2667 293.507 66.7492C298.308 68.224 303.278 69.7526 313.048 69.7526V70.0675Z" fill="#ABD3EC"/>
</g>
</g>
</svg>
