<svg width="19" height="45" viewBox="0 0 19 45" fill="none" xmlns="http://www.w3.org/2000/svg">
<g clip-path="url(#clip0_17_550)">
<path d="M8.83 44.76C10.4813 44.76 11.82 43.4213 11.82 41.77C11.82 40.1187 10.4813 38.78 8.83 38.78C7.17866 38.78 5.84 40.1187 5.84 41.77C5.84 43.4213 7.17866 44.76 8.83 44.76Z" fill="#F5DF02"/>
<path d="M16.62 4.18999C16.57 4.10999 16.52 4.04999 16.47 3.97999C14.94 1.77999 12.46 0.26999 9.62 0.0299902C9.63 0.0299902 9.65 0.0299902 9.67 0.0299902C9.62 0.0299902 9.57 0.00999023 9.54 0.00999023C9.43 -9.76585e-06 9.34 -0.0100098 9.26 -0.0100098C9.26 -0.0100098 9.26 -0.0100098 9.24 -0.0100098H9.16H9.08C9.08 -0.0100098 9.08 -0.0100098 9.07 -0.0100098C8.99 -0.0100098 8.9 -0.0100098 8.78 -9.76585e-06C8.75 -9.76585e-06 8.7 0.00999023 8.65 0.0199902C8.67 0.0199902 8.68 0.0199902 8.7 0.0199902C5.84 0.21999 3.34 1.68999 1.78 3.86999C1.73 3.93999 1.68 3.99999 1.63 4.07999C0.61 5.55999 0.02 7.34999 0 9.26999C0 9.39999 0 9.52999 0 9.65999V9.77999C0 10.88 0.19 12.58 0.52 14.58C1 17.67 1.78 21.5 2.62 25C2.62 25.05 2.64 25.1 2.66 25.15C3.71 29.61 4.85 33.53 5.56 34.74C5.58 34.79 5.61 34.83 5.63 34.87C6.28 36 7.47 36.79 8.84 36.89C8.85 36.89 8.86 36.89 8.87 36.89C10.25 36.81 11.45 36.04 12.11 34.92C12.14 34.89 12.16 34.85 12.19 34.8C12.92 33.6 14.12 29.7 15.24 25.26C15.26 25.21 15.27 25.16 15.28 25.11C16.17 21.61 17.01 17.8 17.54 14.72C17.9 12.72 18.11 11.03 18.14 9.92999V9.80999C18.15 9.67999 18.15 9.54999 18.15 9.41999C18.16 7.48999 17.59 5.69999 16.61 4.19999L16.62 4.18999Z" fill="#9FD6EF"/>
<path d="M16.62 4.18999C16.57 4.10999 16.52 4.04999 16.47 3.97999C14.94 1.77999 12.46 0.26999 9.62 0.0299902C9.63 0.0299902 9.65 0.0299902 9.67 0.0299902C9.62 0.0299902 9.57 0.00999023 9.54 0.00999023C9.43 -9.76585e-06 9.34 -0.0100098 9.26 -0.0100098C9.26 -0.0100098 9.26 -0.0100098 9.24 -0.0100098H9.16H9.08C9.08 -0.0100098 9.08 -0.0100098 9.07 -0.0100098C8.99 -0.0100098 8.9 -0.0100098 8.78 -9.76585e-06C8.75 -9.76585e-06 8.7 0.00999023 8.65 0.0199902C8.67 0.0199902 8.68 0.0199902 8.7 0.0199902C5.84 0.21999 3.34 1.68999 1.78 3.86999C1.73 3.93999 1.68 3.99999 1.63 4.07999C0.61 5.55999 0.02 7.34999 0 9.26999C0 9.39999 0 9.52999 0 9.65999V9.77999C0 10.88 0.19 12.58 0.52 14.58C1 17.67 1.78 21.5 2.62 25C2.62 25.05 2.64 25.1 2.66 25.15C2.9 25.9 3.73 27.04 4.32 27.79C4.73 30.6 5.03 32.68 5.11 33.2C5.11 33.28 5.13 33.33 5.13 33.33C5.18 33.84 5.34 34.32 5.57 34.74C5.59 34.79 5.62 34.83 5.64 34.87C6.12 35.71 6.9 36.36 7.83 36.68C8.37 36.87 8.85 36.89 8.85 36.89C8.85 36.89 8.87 36.89 8.88 36.89C8.88 36.89 9.36 36.87 9.9 36.7C10.84 36.39 11.63 35.76 12.12 34.92C12.15 34.89 12.17 34.85 12.2 34.8C12.44 34.38 12.6 33.9 12.66 33.39C12.66 33.39 12.66 33.35 12.68 33.27C12.77 32.75 13.1 30.67 13.56 27.87C14.16 27.13 15 26 15.26 25.26C15.28 25.21 15.29 25.16 15.3 25.11C16.19 21.61 17.03 17.8 17.56 14.72C17.92 12.72 18.13 11.03 18.16 9.92999V9.80999C18.17 9.67999 18.17 9.54999 18.17 9.41999C18.18 7.48999 17.61 5.69999 16.63 4.19999L16.62 4.18999Z" fill="#73B8DF"/>
<path d="M16.62 4.19C16.57 4.11 16.52 4.05 16.47 3.98C14.94 1.78 12.46 0.27 9.62 0.03C9.67 0.03 9.73 0.05 9.78 0.06C9.7 0.04 9.61 0.03 9.53 0.02H9.51H9.46C9.39 0.02 9.31 0 9.23 0H9.15H9.07C8.99 0 8.91 0 8.84 0.01H8.79C8.79 0.01 8.79 0.01 8.77 0.01C8.69 0.01 8.6 0.03 8.52 0.05C8.58 0.03 8.64 0.03 8.69 0.02C5.84 0.22 3.34 1.69 1.78 3.87C1.73 3.94 1.68 4 1.63 4.08C0.61 5.56 0.02 7.35 0 9.27C0 9.4 0 9.53 0 9.66V9.78C0 10.88 0.19 12.58 0.52 14.58C0.68 15.59 2.01 17.46 3 18.71C3.23 20.29 3.46 21.87 3.68 23.39C3.89 24.89 4.1 26.33 4.29 27.61L4.31 27.79C4.58 28.13 4.81 28.39 4.91 28.5C5.32 28.96 5.8 29.36 6.34 29.67C6.34 29.71 6.35 29.84 6.36 29.88C6.47 31.43 6.62 33.64 6.95 35.1C6.95 35.14 6.97 35.2 7 35.28C7.24 36.05 7.84 36.51 8.18 36.69C8.3 36.75 8.53 36.88 8.84 36.89C8.85 36.89 8.87 36.89 8.9 36.89C9.21 36.89 9.44 36.76 9.56 36.7C9.91 36.53 10.54 36.08 10.76 35.31C10.77 35.27 10.79 35.2 10.81 35.13C11.17 33.83 11.23 32.86 11.48 29.92C11.48 29.88 11.5 29.75 11.5 29.71C12.04 29.41 12.53 29.02 12.94 28.56C13.03 28.46 13.27 28.2 13.55 27.86L13.58 27.69C13.79 26.41 14.02 24.97 14.25 23.48C14.5 21.96 14.75 20.38 15 18.81C16.01 17.58 17.37 15.73 17.54 14.72C17.9 12.72 18.11 11.03 18.14 9.93V9.81C18.15 9.68 18.15 9.55 18.15 9.42C18.16 7.49 17.59 5.7 16.61 4.2L16.62 4.19Z" fill="#4898C7"/>
<path d="M16.7 4.47C16.62 4.27 16.51 4.05 16.47 3.98C14.94 1.78 12.46 0.27 9.62001 0.03C9.67001 0.03 9.73001 0.05 9.79001 0.06C9.71001 0.04 9.62001 0.03 9.54001 0.02H9.52001H9.47001C9.40001 0.02 9.32001 0 9.24001 0H9.16001H9.08001C9.00001 0 8.92001 0 8.85001 0.01H8.80001C8.80001 0.01 8.80001 0.01 8.78001 0.01C8.70001 0.01 8.61001 0.03 8.53001 0.05C8.59001 0.03 8.65001 0.03 8.70001 0.02C5.84001 0.22 3.34001 1.69 1.78001 3.87C1.74001 3.93 1.62001 4.15 1.54001 4.35C1.44001 4.61 1.21001 5.25 1.25001 6C1.30001 6.86 1.61001 9.46 2.23001 13.2C2.35001 14.03 2.47001 14.91 2.59001 15.8C2.72001 16.68 2.84001 17.57 2.97001 18.47V18.49C2.99001 18.57 2.99001 18.63 3.00001 18.71C3.34001 19.14 3.64001 19.49 3.83001 19.71C3.85001 19.73 3.85001 19.74 3.87001 19.76C3.92001 19.81 3.96001 19.85 3.99001 19.89C4.01001 19.92 4.02001 19.93 4.04001 19.94C4.35001 20.27 4.70001 20.57 5.08001 20.84C5.25001 20.96 5.43001 21.08 5.62001 21.18C5.86001 24.22 6.11001 27.22 6.34001 29.68C6.39001 29.71 6.44001 29.75 6.49001 29.77C7.21001 30.18 8.04001 30.42 8.92001 30.46C9.80001 30.43 10.63 30.21 11.36 29.81C11.41 29.79 11.46 29.75 11.51 29.72C11.78 27.27 12.07 24.27 12.36 21.24C12.55 21.14 12.73 21.03 12.9 20.91C13.28 20.65 13.63 20.35 13.95 20.03C13.97 20.03 13.98 20.01 14 19.98C14.03 19.95 14.07 19.91 14.12 19.86C14.14 19.84 14.15 19.83 14.16 19.81C14.36 19.59 14.66 19.25 15.01 18.82C15.01 18.75 15.03 18.68 15.05 18.6V18.58C15.19 17.68 15.33 16.79 15.47 15.91C15.61 15.03 15.74 14.15 15.87 13.33C16.55 9.59 16.9 6.99 16.96 6.14C17.01 5.39 16.8 4.74 16.7 4.48V4.47Z" fill="#1B5AA8"/>
<path d="M13.57 4.96001C13.47 4.26001 13.27 3.65001 13.25 3.61001C13.25 3.61001 12.73 2.10001 11.72 1.12001C11.7 1.10001 11.69 1.09001 11.67 1.08001C11.3 0.73001 11.02 0.56001 10.93 0.51001C10.29 0.13001 9.70001 0.0500098 9.52001 0.0300098C9.36001 0.0100098 9.23001 0.0100098 9.14001 0.0100098C9.05001 0.0100098 8.92001 0.0100098 8.76001 0.0200098C8.58001 0.0400098 8.00001 0.11001 7.35001 0.48001C7.26001 0.53001 6.98001 0.70001 6.60001 1.04001C6.59001 1.05001 6.57001 1.07001 6.55001 1.08001C5.52001 2.05001 4.99001 3.55001 4.99001 3.55001C4.97001 3.59001 4.76001 4.20001 4.65001 4.90001C4.58001 5.39001 4.57001 5.83001 4.57001 5.89001C4.57001 5.92001 4.57001 5.95001 4.57001 5.97001V5.99001C4.57001 6.65001 4.66001 7.91001 4.66001 7.91001C4.68001 8.23001 4.71001 8.68001 4.74001 9.24001C4.89001 11.46 5.11001 14.54 5.36001 17.82C5.42001 18.67 5.49001 19.53 5.56001 20.4C5.58001 20.66 5.60001 20.93 5.62001 21.19C6.61001 21.78 7.76001 22.14 8.98001 22.19C10.21 22.16 11.36 21.82 12.36 21.24C12.39 20.97 12.41 20.71 12.43 20.45C12.51 19.58 12.59 18.72 12.67 17.87C12.97 14.59 13.24 11.52 13.42 9.31001C13.46 8.74001 13.49 8.29001 13.52 7.98001C13.52 7.98001 13.63 6.73001 13.63 6.06001V6.04001C13.63 6.04001 13.63 6.00001 13.63 5.96001C13.63 5.90001 13.63 5.46001 13.56 4.97001L13.57 4.96001Z" fill="#013996"/>
</g>
<defs>
<clipPath id="clip0_17_550">
<rect width="18.17" height="44.76" fill="white"/>
</clipPath>
</defs>
</svg>
