<svg width="512" height="170" viewBox="0 0 512 170" fill="none" xmlns="http://www.w3.org/2000/svg">
<mask id="mask0_982_412" style="mask-type:alpha" maskUnits="userSpaceOnUse" x="0" y="0" width="512" height="170">
<rect width="512" height="170" fill="#D9D9D9"/>
</mask>
<g mask="url(#mask0_982_412)">
<path d="M512 120.401H-768V170.401H512V120.401Z" fill="#003893"/>
<path d="M448.68 10.4117C432.78 5.52168 416.35 0.47168 383.99 0.47168C351.63 0.47168 335.21 5.52168 319.31 10.4117C303.74 15.1917 287.64 20.1317 255.99 20.1317V21.9917C223.91 21.9917 207.61 27.0017 191.84 31.8417C176.15 36.6617 159.91 41.6517 127.99 41.6517C96.07 41.6517 79.84 36.6617 64.14 31.8417C48.37 27.0017 32.07 21.9917 -0.0100098 21.9917V20.1317C-31.66 20.1317 -47.76 15.1917 -63.33 10.4117C-79.23 5.52168 -95.66 0.47168 -128.02 0.47168C-160.38 0.47168 -176.8 5.52168 -192.7 10.4117C-208.27 15.1917 -224.37 20.1317 -256.02 20.1317V21.9917C-288.1 21.9917 -304.4 27.0017 -320.17 31.8417C-335.86 36.6617 -352.1 41.6517 -384.02 41.6517C-415.94 41.6517 -432.17 36.6617 -447.87 31.8417C-463.64 27.0017 -479.94 21.9917 -512.02 21.9917V20.1317C-543.67 20.1317 -559.77 15.1917 -575.34 10.4117C-591.24 5.52168 -607.67 0.47168 -640.03 0.47168C-672.39 0.47168 -688.81 5.52168 -704.71 10.4117C-720.25 15.1917 -736.35 20.1317 -768 20.1317V148.162C-735.92 148.162 -719.62 143.152 -703.85 138.312C-688.16 133.492 -671.92 128.502 -640 128.502C-608.08 128.502 -591.85 133.492 -576.15 138.312C-560.38 143.152 -544.08 148.162 -512 148.162V150.022C-480.35 150.022 -464.25 154.962 -448.68 159.742C-432.78 164.632 -416.35 169.682 -384 169.682C-351.65 169.682 -335.22 164.632 -319.32 159.742C-303.75 154.962 -287.65 150.022 -256 150.022V148.162C-223.92 148.162 -207.62 143.152 -191.85 138.312C-176.16 133.492 -159.92 128.502 -128 128.502C-96.08 128.502 -79.85 133.492 -64.15 138.312C-48.38 143.152 -32.08 148.162 0 148.162V150.022C31.65 150.022 47.75 154.962 63.32 159.742C79.22 164.632 95.65 169.682 128 169.682C160.35 169.682 176.78 164.632 192.68 159.742C208.25 154.962 224.35 150.022 256 150.022V148.162C288.08 148.162 304.38 143.152 320.15 138.312C335.84 133.492 352.08 128.502 384 128.502C415.92 128.502 432.15 133.492 447.85 138.312C463.62 143.152 479.92 148.162 512 148.162V20.1317C480.35 20.1317 464.25 15.1917 448.68 10.4117Z" fill="white"/>
<path d="M383.99 0.47168C416.34 0.47168 432.78 5.52168 448.68 10.4117C464.25 15.1917 480.35 20.1317 512 20.1317V24.7617C479.65 24.7617 463.22 19.7117 447.32 14.8217C431.75 10.0417 415.65 5.10168 383.99 5.10168C352.33 5.10168 336.24 10.0417 320.67 14.8217C304.77 19.7117 288.34 24.7617 255.99 24.7617V20.1317C287.64 20.1317 303.74 15.1917 319.31 10.4117C335.21 5.52168 351.64 0.47168 383.99 0.47168Z" fill="url(#paint0_linear_982_412)"/>
<path d="M383.99 9.54102C416.32 9.54102 432.75 14.591 448.64 19.461C464.22 24.251 480.33 29.191 512 29.191V33.561C479.68 33.561 463.25 28.521 447.36 23.641C431.78 18.861 415.67 13.911 383.99 13.911C352.31 13.911 336.21 18.861 320.63 23.641C304.75 28.511 288.31 33.561 255.99 33.561V29.191C287.66 29.191 303.77 24.241 319.35 19.461C335.23 14.591 351.67 9.54102 383.99 9.54102Z" fill="url(#paint1_linear_982_412)"/>
<path d="M383.99 18.6113C416.31 18.6113 432.72 23.6513 448.6 28.5313C464.19 33.3213 480.31 38.2713 512 38.2713V42.3813C479.69 42.3813 463.27 37.3413 447.4 32.4613C431.81 27.6713 415.69 22.7213 384 22.7213C352.31 22.7213 336.19 27.6713 320.6 32.4613C304.72 37.3413 288.31 42.3813 256 42.3813V38.2713C287.69 38.2713 303.81 33.3213 319.4 28.5313C335.28 23.6513 351.69 18.6113 384 18.6113H383.99Z" fill="url(#paint2_linear_982_412)"/>
<path d="M0 21.9912C32.08 21.9912 48.38 27.0012 64.15 31.8412C79.84 36.6612 96.08 41.6512 128 41.6512C159.92 41.6512 176.15 36.6612 191.85 31.8412C207.62 27.0012 223.92 21.9912 256 21.9912V23.0312C224.08 23.0312 207.85 28.0212 192.15 32.8412C176.38 37.6812 160.08 42.6912 128 42.6912C95.92 42.6912 79.62 37.6812 63.85 32.8412C48.16 28.0212 31.92 23.0312 0 23.0312V21.9912Z" fill="url(#paint3_linear_982_412)"/>
<path d="M383.99 27.6816C416.28 27.6816 432.69 32.7216 448.56 37.6016C464.16 42.3916 480.29 47.3516 511.99 47.3516V51.2016C479.7 51.2016 463.29 46.1616 447.43 41.2816C431.83 36.4916 415.7 31.5316 383.99 31.5316C352.28 31.5316 336.15 36.4916 320.56 41.2816C304.69 46.1516 288.28 51.2016 256 51.2016V47.3516C287.71 47.3516 303.84 42.3916 319.43 37.6016C335.3 32.7316 351.71 27.6816 383.99 27.6816Z" fill="url(#paint4_linear_982_412)"/>
<path d="M0 30.8115C32.09 30.8115 48.41 35.8215 64.19 40.6615C79.87 45.4815 96.09 50.4615 128 50.4615C159.91 50.4615 176.12 45.4815 191.81 40.6615C207.59 35.8215 223.9 30.8115 256 30.8115V32.1115C224.1 32.1115 207.88 37.0915 192.19 41.9115C176.41 46.7515 160.1 51.7615 128 51.7615C95.9 51.7615 79.59 46.7515 63.81 41.9115C48.13 37.0915 31.91 32.1115 0 32.1115V30.8115Z" fill="url(#paint5_linear_982_412)"/>
<path d="M383.99 36.751C416.26 36.751 432.661 41.791 448.521 46.671C464.131 51.461 480.26 56.421 511.99 56.421V60.031C479.72 60.031 463.32 54.991 447.46 50.111C431.85 45.321 415.72 40.361 383.98 40.361C352.24 40.361 336.12 45.321 320.51 50.111C304.65 54.981 288.25 60.031 255.98 60.031V56.421C287.71 56.421 303.84 51.461 319.45 46.671C335.31 41.801 351.71 36.751 383.98 36.751H383.99Z" fill="url(#paint6_linear_982_412)"/>
<path d="M0 39.6211C32.12 39.6211 48.44 44.6411 64.23 49.4911C79.91 54.3011 96.12 59.2811 128 59.2811C159.88 59.2811 176.09 54.3011 191.77 49.4911C207.56 44.6411 223.88 39.6211 256 39.6211V41.1811C224.12 41.1811 207.91 46.1611 192.23 50.9711C176.44 55.8211 160.12 60.8411 128 60.8411C95.88 60.8411 79.56 55.8211 63.77 50.9711C48.09 46.1611 31.88 41.1811 0 41.1811V39.6211Z" fill="url(#paint7_linear_982_412)"/>
<path d="M383.99 45.8311C416.25 45.8311 432.63 50.8611 448.49 55.7311C464.11 60.5311 480.25 65.4811 512 65.4811V68.8311C479.75 68.8311 463.36 63.8011 447.51 58.9311C431.89 54.1311 415.74 49.1811 383.99 49.1811C352.24 49.1811 336.1 54.1411 320.48 58.9311C304.63 63.8011 288.24 68.8311 255.99 68.8311V65.4811C287.74 65.4811 303.88 60.5211 319.5 55.7311C335.35 50.8611 351.74 45.8311 383.99 45.8311Z" fill="url(#paint8_linear_982_412)"/>
<path d="M0 48.4414C32.13 48.4414 48.47 53.4614 64.27 58.3114C79.94 63.1214 96.14 68.1014 128 68.1014C159.86 68.1014 176.06 63.1214 191.73 58.3114C207.53 53.4614 223.86 48.4414 256 48.4414V50.2414C224.13 50.2414 207.94 55.2214 192.27 60.0314C176.47 64.8814 160.14 69.9014 128 69.9014C95.86 69.9014 79.53 64.8814 63.73 60.0314C48.06 55.2214 31.86 50.2414 0 50.2414V48.4414Z" fill="url(#paint9_linear_982_412)"/>
<path d="M383.99 54.8916C416.22 54.8916 432.61 59.9216 448.45 64.7916C464.07 69.5916 480.23 74.5516 512 74.5516V77.6416C479.77 77.6416 463.39 72.6116 447.55 67.7416C431.93 62.9416 415.77 57.9816 383.99 57.9816C352.21 57.9816 336.07 62.9516 320.44 67.7416C304.6 72.6116 288.22 77.6416 255.99 77.6416V74.5516C287.76 74.5516 303.91 69.5816 319.54 64.7916C335.38 59.9216 351.76 54.8916 383.99 54.8916Z" fill="url(#paint10_linear_982_412)"/>
<path d="M0 57.251C32.16 57.251 48.5 62.271 64.3 67.131C79.95 71.941 96.15 76.921 127.99 76.921C159.83 76.921 176.03 71.951 191.68 67.131C207.49 62.271 223.83 57.251 255.98 57.251V59.311C224.14 59.311 207.94 64.281 192.29 69.101C176.48 73.961 160.14 78.981 127.99 78.981C95.84 78.981 79.49 73.961 63.69 69.101C48.04 64.291 31.84 59.311 0 59.311V57.251Z" fill="url(#paint11_linear_982_412)"/>
<path d="M383.99 63.9717C416.21 63.9717 432.58 69.0017 448.41 73.8617C464.05 78.6617 480.21 83.6317 512 83.6317V86.4617C479.79 86.4617 463.42 81.4317 447.59 76.5717C431.95 71.7717 415.79 66.8017 384 66.8017C352.21 66.8017 336.05 71.7717 320.41 76.5717C304.58 81.4417 288.21 86.4617 256 86.4617V83.6317C287.79 83.6317 303.95 78.6617 319.59 73.8617C335.42 68.9917 351.79 63.9717 384 63.9717H383.99Z" fill="url(#paint12_linear_982_412)"/>
<path d="M0 66.0713C32.17 66.0713 48.53 71.1013 64.34 75.9513C79.99 80.7613 96.17 85.7313 128 85.7313C159.83 85.7313 176.01 80.7613 191.66 75.9513C207.47 71.1013 223.83 66.0713 256 66.0713V68.3913C224.17 68.3913 207.99 73.3613 192.34 78.1713C176.53 83.0213 160.17 88.0513 128 88.0513C95.83 88.0513 79.47 83.0213 63.66 78.1713C48.01 73.3613 31.83 68.3913 0 68.3913V66.0713Z" fill="url(#paint13_linear_982_412)"/>
<path d="M383.99 73.041C416.18 73.041 432.55 78.071 448.38 82.921C464.02 87.721 480.19 92.691 512 92.691V95.271C479.81 95.271 463.45 90.241 447.63 85.391C431.98 80.591 415.81 75.621 384 75.621C352.19 75.621 336.02 80.591 320.38 85.391C304.56 90.251 288.2 95.271 256.01 95.271V92.691C287.81 92.691 303.99 87.721 319.63 82.921C335.45 78.061 351.81 73.041 384 73.041H383.99Z" fill="url(#paint14_linear_982_412)"/>
<path d="M0 74.8818C32.19 74.8818 48.55 79.9118 64.38 84.7718C80.02 89.5718 96.19 94.5418 128 94.5418C159.81 94.5418 175.98 89.5718 191.62 84.7718C207.45 79.9018 223.81 74.8818 256 74.8818V77.4618C224.2 77.4618 208.02 82.4318 192.38 87.2318C176.55 92.1018 160.19 97.1218 128 97.1218C95.81 97.1218 79.45 92.0918 63.62 87.2318C47.98 82.4318 31.81 77.4618 0 77.4618V74.8818Z" fill="url(#paint15_linear_982_412)"/>
<path d="M383.99 82.1016C416.17 82.1016 432.53 87.1316 448.34 91.9816C463.99 96.7816 480.17 101.762 512 101.762V104.082C479.83 104.082 463.47 99.0516 447.66 94.2016C432.01 89.4016 415.82 84.4216 384 84.4216C352.18 84.4216 335.99 89.3916 320.34 94.2016C304.53 99.0616 288.17 104.082 256 104.082V101.762C287.83 101.762 304.01 96.7916 319.66 91.9816C335.47 87.1216 351.83 82.1016 384 82.1016H383.99Z" fill="url(#paint16_linear_982_412)"/>
<path d="M0 83.7012C32.21 83.7012 48.58 88.7312 64.41 93.5912C80.05 98.3912 96.21 103.361 128 103.361C159.79 103.361 175.95 98.3912 191.59 93.5912C207.42 88.7212 223.79 83.7012 256 83.7012V86.5312C224.21 86.5312 208.05 91.5012 192.41 96.3012C176.58 101.171 160.21 106.191 128 106.191C95.79 106.191 79.42 101.161 63.59 96.3012C47.95 91.5012 31.79 86.5312 0 86.5312V83.7012Z" fill="url(#paint17_linear_982_412)"/>
<path d="M383.99 91.1816C416.15 91.1816 432.5 96.2016 448.3 101.062C463.95 105.872 480.15 110.852 511.99 110.852V112.912C479.83 112.912 463.49 107.892 447.69 103.032C432.04 98.2216 415.84 93.2416 383.99 93.2416C352.14 93.2416 335.95 98.2116 320.3 103.032C304.49 107.892 288.15 112.912 256 112.912V110.852C287.84 110.852 304.04 105.882 319.69 101.062C335.5 96.2016 351.84 91.1816 383.99 91.1816Z" fill="url(#paint18_linear_982_412)"/>
<path d="M0 92.5117C32.23 92.5117 48.61 97.5417 64.45 102.412C80.07 107.212 96.23 112.172 128 112.172C159.77 112.172 175.92 107.202 191.55 102.412C207.39 97.5417 223.77 92.5117 256 92.5117V95.6017C224.23 95.6017 208.08 100.572 192.45 105.362C176.61 110.232 160.23 115.262 128 115.262C95.77 115.262 79.39 110.232 63.55 105.362C47.93 100.562 31.77 95.6017 0 95.6017V92.5117Z" fill="url(#paint19_linear_982_412)"/>
<path d="M383.99 100.251C416.13 100.251 432.46 105.271 448.26 110.121C463.93 114.931 480.13 119.911 511.99 119.911V121.711C479.86 121.711 463.52 116.691 447.72 111.841C432.05 107.031 415.85 102.051 383.98 102.051C352.11 102.051 335.92 107.031 320.25 111.841C304.45 116.691 288.12 121.711 255.98 121.711V119.911C287.85 119.911 304.04 114.931 319.71 110.121C335.51 105.271 351.84 100.251 383.98 100.251H383.99Z" fill="url(#paint20_linear_982_412)"/>
<path d="M0 101.331C32.25 101.331 48.64 106.361 64.49 111.231C80.11 116.031 96.25 120.981 128 120.981C159.75 120.981 175.89 116.021 191.51 111.231C207.36 106.361 223.75 101.331 256 101.331V104.681C224.25 104.681 208.11 109.641 192.49 114.431C176.64 119.301 160.25 124.331 128 124.331C95.75 124.331 79.36 119.301 63.51 114.431C47.89 109.631 31.75 104.681 0 104.681V101.331Z" fill="url(#paint21_linear_982_412)"/>
<path d="M383.99 109.321C416.11 109.321 432.43 114.341 448.23 119.181C463.91 124.001 480.12 128.971 512 128.971V130.531C479.88 130.531 463.56 125.511 447.77 120.671C432.09 115.851 415.88 110.881 383.99 110.881C352.1 110.881 335.9 115.851 320.22 120.671C304.43 125.511 288.11 130.531 255.99 130.531V128.971C287.87 128.971 304.08 124.001 319.76 119.181C335.55 114.341 351.87 109.321 383.99 109.321Z" fill="url(#paint22_linear_982_412)"/>
<path d="M0 110.142C32.27 110.142 48.67 115.182 64.53 120.062C80.14 124.852 96.27 129.812 128 129.812C159.73 129.812 175.86 124.852 191.47 120.062C207.33 115.192 223.73 110.142 256 110.142V113.752C224.27 113.752 208.14 118.712 192.53 123.502C176.67 128.372 160.27 133.422 128 133.422C95.73 133.422 79.33 128.382 63.47 123.502C47.86 118.712 31.73 113.752 0 113.752V110.142Z" fill="url(#paint23_linear_982_412)"/>
<path d="M383.99 118.392C416.09 118.392 432.41 123.402 448.19 128.252C463.87 133.072 480.09 138.052 512 138.052V139.352C479.91 139.352 463.59 134.342 447.81 129.492C432.13 124.672 415.9 119.692 383.99 119.692C352.08 119.692 335.87 124.672 320.18 129.492C304.4 134.342 288.09 139.352 255.99 139.352V138.052C287.89 138.052 304.11 133.072 319.8 128.252C335.58 123.402 351.89 118.392 383.99 118.392Z" fill="url(#paint24_linear_982_412)"/>
<path d="M0 118.962C32.29 118.962 48.7 124.002 64.56 128.882C80.15 133.672 96.28 138.632 127.99 138.632C159.7 138.632 175.83 133.672 191.42 128.882C207.29 124.012 223.7 118.962 255.98 118.962V122.812C224.27 122.812 208.14 127.772 192.55 132.562C176.68 137.432 160.27 142.482 127.99 142.482C95.71 142.482 79.29 137.442 63.43 132.562C47.84 127.772 31.71 122.812 0 122.812V118.962Z" fill="url(#paint25_linear_982_412)"/>
<path d="M383.99 127.462C416.07 127.462 432.38 132.472 448.15 137.312C463.84 142.132 480.08 147.122 512 147.122V148.162C479.92 148.162 463.62 143.152 447.85 138.312C432.15 133.492 415.92 128.502 384 128.502C352.08 128.502 335.85 133.492 320.15 138.312C304.38 143.152 288.08 148.162 256 148.162V147.122C287.92 147.122 304.15 142.132 319.85 137.312C335.62 132.472 351.92 127.462 384 127.462H383.99Z" fill="url(#paint26_linear_982_412)"/>
<path d="M0 127.771C32.31 127.771 48.73 132.811 64.6 137.691C80.19 142.481 96.31 147.431 128 147.431C159.69 147.431 175.81 142.481 191.4 137.691C207.28 132.821 223.69 127.771 256 127.771V131.881C224.31 131.881 208.19 136.831 192.6 141.621C176.72 146.491 160.31 151.541 128 151.541C95.69 151.541 79.27 146.501 63.4 141.621C47.81 136.831 31.69 131.881 0 131.881V127.771Z" fill="url(#paint27_linear_982_412)"/>
<path d="M0 136.581C32.32 136.581 48.76 141.631 64.64 146.511C80.22 151.291 96.32 156.241 128 156.241C159.68 156.241 175.78 151.291 191.36 146.511C207.24 141.631 223.68 136.581 256 136.581V140.951C224.33 140.951 208.22 145.901 192.64 150.681C176.76 155.561 160.32 160.611 128 160.611C95.68 160.611 79.24 155.561 63.36 150.681C47.78 145.901 31.68 140.951 0 140.951V136.581Z" fill="url(#paint28_linear_982_412)"/>
<path d="M0 145.401C32.35 145.401 48.78 150.451 64.68 155.341C80.25 160.121 96.35 165.061 128 165.061C159.65 165.061 175.75 160.121 191.32 155.341C207.22 150.451 223.65 145.401 256 145.401V150.031C224.35 150.031 208.25 154.971 192.68 159.751C176.78 164.641 160.35 169.691 128 169.691C95.65 169.691 79.22 164.641 63.32 159.751C47.75 154.971 31.65 150.031 0 150.031V145.401Z" fill="url(#paint29_linear_982_412)"/>
</g>
<defs>
<linearGradient id="paint0_linear_982_412" x1="384" y1="23.8817" x2="384" y2="122.982" gradientUnits="userSpaceOnUse">
<stop stop-color="#9DD6EF" stop-opacity="0.1"/>
<stop offset="1" stop-color="#003998"/>
</linearGradient>
<linearGradient id="paint1_linear_982_412" x1="384" y1="23.881" x2="384" y2="122.981" gradientUnits="userSpaceOnUse">
<stop stop-color="#9DD6EF" stop-opacity="0.1"/>
<stop offset="1" stop-color="#003998"/>
</linearGradient>
<linearGradient id="paint2_linear_982_412" x1="384" y1="23.8813" x2="384" y2="122.981" gradientUnits="userSpaceOnUse">
<stop stop-color="#9DD6EF" stop-opacity="0.1"/>
<stop offset="1" stop-color="#003998"/>
</linearGradient>
<linearGradient id="paint3_linear_982_412" x1="128" y1="23.8812" x2="128" y2="122.981" gradientUnits="userSpaceOnUse">
<stop stop-color="#9DD6EF" stop-opacity="0.1"/>
<stop offset="1" stop-color="#003998"/>
</linearGradient>
<linearGradient id="paint4_linear_982_412" x1="384" y1="23.8816" x2="384" y2="122.982" gradientUnits="userSpaceOnUse">
<stop stop-color="#9DD6EF" stop-opacity="0.1"/>
<stop offset="1" stop-color="#003998"/>
</linearGradient>
<linearGradient id="paint5_linear_982_412" x1="128" y1="23.8815" x2="128" y2="122.982" gradientUnits="userSpaceOnUse">
<stop stop-color="#9DD6EF" stop-opacity="0.1"/>
<stop offset="1" stop-color="#003998"/>
</linearGradient>
<linearGradient id="paint6_linear_982_412" x1="384" y1="23.881" x2="384" y2="122.981" gradientUnits="userSpaceOnUse">
<stop stop-color="#9DD6EF" stop-opacity="0.1"/>
<stop offset="1" stop-color="#003998"/>
</linearGradient>
<linearGradient id="paint7_linear_982_412" x1="128" y1="23.8811" x2="128" y2="122.981" gradientUnits="userSpaceOnUse">
<stop stop-color="#9DD6EF" stop-opacity="0.1"/>
<stop offset="1" stop-color="#003998"/>
</linearGradient>
<linearGradient id="paint8_linear_982_412" x1="384" y1="23.8811" x2="384" y2="122.981" gradientUnits="userSpaceOnUse">
<stop stop-color="#9DD6EF" stop-opacity="0.1"/>
<stop offset="1" stop-color="#003998"/>
</linearGradient>
<linearGradient id="paint9_linear_982_412" x1="128" y1="23.8814" x2="128" y2="122.981" gradientUnits="userSpaceOnUse">
<stop stop-color="#9DD6EF" stop-opacity="0.1"/>
<stop offset="1" stop-color="#003998"/>
</linearGradient>
<linearGradient id="paint10_linear_982_412" x1="384" y1="23.8816" x2="384" y2="122.982" gradientUnits="userSpaceOnUse">
<stop stop-color="#9DD6EF" stop-opacity="0.1"/>
<stop offset="1" stop-color="#003998"/>
</linearGradient>
<linearGradient id="paint11_linear_982_412" x1="128" y1="23.881" x2="128" y2="122.981" gradientUnits="userSpaceOnUse">
<stop stop-color="#9DD6EF" stop-opacity="0.1"/>
<stop offset="1" stop-color="#003998"/>
</linearGradient>
<linearGradient id="paint12_linear_982_412" x1="384" y1="23.8817" x2="384" y2="122.982" gradientUnits="userSpaceOnUse">
<stop stop-color="#9DD6EF" stop-opacity="0.1"/>
<stop offset="1" stop-color="#003998"/>
</linearGradient>
<linearGradient id="paint13_linear_982_412" x1="128" y1="23.8813" x2="128" y2="122.981" gradientUnits="userSpaceOnUse">
<stop stop-color="#9DD6EF" stop-opacity="0.1"/>
<stop offset="1" stop-color="#003998"/>
</linearGradient>
<linearGradient id="paint14_linear_982_412" x1="384" y1="23.881" x2="384" y2="122.981" gradientUnits="userSpaceOnUse">
<stop stop-color="#9DD6EF" stop-opacity="0.1"/>
<stop offset="1" stop-color="#003998"/>
</linearGradient>
<linearGradient id="paint15_linear_982_412" x1="128" y1="23.8818" x2="128" y2="122.982" gradientUnits="userSpaceOnUse">
<stop stop-color="#9DD6EF" stop-opacity="0.1"/>
<stop offset="1" stop-color="#003998"/>
</linearGradient>
<linearGradient id="paint16_linear_982_412" x1="384" y1="23.8816" x2="384" y2="122.982" gradientUnits="userSpaceOnUse">
<stop stop-color="#9DD6EF" stop-opacity="0.1"/>
<stop offset="1" stop-color="#003998"/>
</linearGradient>
<linearGradient id="paint17_linear_982_412" x1="128" y1="23.8812" x2="128" y2="122.981" gradientUnits="userSpaceOnUse">
<stop stop-color="#9DD6EF" stop-opacity="0.1"/>
<stop offset="1" stop-color="#003998"/>
</linearGradient>
<linearGradient id="paint18_linear_982_412" x1="384" y1="23.8816" x2="384" y2="122.982" gradientUnits="userSpaceOnUse">
<stop stop-color="#9DD6EF" stop-opacity="0.1"/>
<stop offset="1" stop-color="#003998"/>
</linearGradient>
<linearGradient id="paint19_linear_982_412" x1="128" y1="23.8817" x2="128" y2="122.982" gradientUnits="userSpaceOnUse">
<stop stop-color="#9DD6EF" stop-opacity="0.1"/>
<stop offset="1" stop-color="#003998"/>
</linearGradient>
<linearGradient id="paint20_linear_982_412" x1="384" y1="23.881" x2="384" y2="122.981" gradientUnits="userSpaceOnUse">
<stop stop-color="#9DD6EF" stop-opacity="0.1"/>
<stop offset="1" stop-color="#003998"/>
</linearGradient>
<linearGradient id="paint21_linear_982_412" x1="128" y1="23.881" x2="128" y2="122.981" gradientUnits="userSpaceOnUse">
<stop stop-color="#9DD6EF" stop-opacity="0.1"/>
<stop offset="1" stop-color="#003998"/>
</linearGradient>
<linearGradient id="paint22_linear_982_412" x1="384" y1="23.8813" x2="384" y2="122.981" gradientUnits="userSpaceOnUse">
<stop stop-color="#9DD6EF" stop-opacity="0.1"/>
<stop offset="1" stop-color="#003998"/>
</linearGradient>
<linearGradient id="paint23_linear_982_412" x1="128" y1="23.8816" x2="128" y2="122.982" gradientUnits="userSpaceOnUse">
<stop stop-color="#9DD6EF" stop-opacity="0.1"/>
<stop offset="1" stop-color="#003998"/>
</linearGradient>
<linearGradient id="paint24_linear_982_412" x1="384" y1="23.8816" x2="384" y2="122.982" gradientUnits="userSpaceOnUse">
<stop stop-color="#9DD6EF" stop-opacity="0.1"/>
<stop offset="1" stop-color="#003998"/>
</linearGradient>
<linearGradient id="paint25_linear_982_412" x1="128" y1="23.8819" x2="128" y2="122.982" gradientUnits="userSpaceOnUse">
<stop stop-color="#9DD6EF" stop-opacity="0.1"/>
<stop offset="1" stop-color="#003998"/>
</linearGradient>
<linearGradient id="paint26_linear_982_412" x1="384" y1="23.8819" x2="384" y2="122.982" gradientUnits="userSpaceOnUse">
<stop stop-color="#9DD6EF" stop-opacity="0.1"/>
<stop offset="1" stop-color="#003998"/>
</linearGradient>
<linearGradient id="paint27_linear_982_412" x1="128" y1="23.8815" x2="128" y2="122.981" gradientUnits="userSpaceOnUse">
<stop stop-color="#9DD6EF" stop-opacity="0.1"/>
<stop offset="1" stop-color="#003998"/>
</linearGradient>
<linearGradient id="paint28_linear_982_412" x1="128" y1="23.8811" x2="128" y2="122.981" gradientUnits="userSpaceOnUse">
<stop stop-color="#9DD6EF" stop-opacity="0.1"/>
<stop offset="1" stop-color="#003998"/>
</linearGradient>
<linearGradient id="paint29_linear_982_412" x1="128" y1="23.8813" x2="128" y2="122.981" gradientUnits="userSpaceOnUse">
<stop stop-color="#9DD6EF" stop-opacity="0.1"/>
<stop offset="1" stop-color="#003998"/>
</linearGradient>
</defs>
</svg>
