<svg width="12" height="15" viewBox="0 0 12 15" fill="none" xmlns="http://www.w3.org/2000/svg">
<path d="M10.9155 5.39967C10.9155 2.50967 8.26549 0.20967 5.12549 0.52967C2.69549 0.77967 0.755493 2.62967 0.525493 4.90967C0.405493 6.06967 0.715493 7.15967 1.32549 8.04967L5.25549 13.3997C5.45549 13.7297 5.96549 13.7297 6.17549 13.3997L10.1055 8.04967C10.6255 7.28967 10.9355 6.37967 10.9355 5.39967H10.9155ZM5.70549 7.03967C4.61549 7.03967 3.73549 6.20967 3.73549 5.18967C3.73549 4.16967 4.61549 3.33967 5.70549 3.33967C6.79549 3.33967 7.67549 4.16967 7.67549 5.18967C7.67549 6.20967 6.79549 7.03967 5.70549 7.03967Z" fill="#F1E462" stroke="#F1E462" stroke-linecap="round" stroke-linejoin="round"/>
</svg>
