<svg width="22" height="22" viewBox="0 0 22 22" fill="none" xmlns="http://www.w3.org/2000/svg">
<g clip-path="url(#clip0_3439_14639)">
<path d="M4.33523 9.95496H6.73523C7.13523 9.95496 7.45523 10.275 7.45523 10.675V11.895C7.45523 12.295 7.13523 12.615 6.73523 12.615H4.33523C3.93523 12.615 3.61523 12.295 3.61523 11.895V10.675C3.61523 10.275 3.93523 9.95496 4.33523 9.95496Z" fill="#999999"/>
<path d="M9.79422 9.95496H12.1942C12.5942 9.95496 12.9142 10.275 12.9142 10.675V11.895C12.9142 12.295 12.5942 12.615 12.1942 12.615H9.79422C9.39422 12.615 9.07422 12.295 9.07422 11.895V10.675C9.07422 10.275 9.39422 9.95496 9.79422 9.95496Z" fill="#F1E04B"/>
<path d="M15.2552 9.95496H17.6552C18.0552 9.95496 18.3752 10.275 18.3752 10.675V11.895C18.3752 12.295 18.0552 12.615 17.6552 12.615H15.2552C14.8552 12.615 14.5352 12.295 14.5352 11.895V10.675C14.5352 10.275 14.8552 9.95496 15.2552 9.95496Z" fill="#999999"/>
<path d="M4.33523 15.0149H6.73523C7.13523 15.0149 7.45523 15.3349 7.45523 15.7349V16.9549C7.45523 17.3549 7.13523 17.6749 6.73523 17.6749H4.33523C3.93523 17.6749 3.61523 17.3549 3.61523 16.9549V15.7349C3.61523 15.3349 3.93523 15.0149 4.33523 15.0149Z" fill="#999999"/>
<path d="M9.79422 15.0149H12.1942C12.5942 15.0149 12.9142 15.3349 12.9142 15.7349V16.9549C12.9142 17.3549 12.5942 17.6749 12.1942 17.6749H9.79422C9.39422 17.6749 9.07422 17.3549 9.07422 16.9549V15.7349C9.07422 15.3349 9.39422 15.0149 9.79422 15.0149Z" fill="#999999"/>
<path d="M15.2552 15.0149H17.6552C18.0552 15.0149 18.3752 15.3349 18.3752 15.7349V16.9549C18.3752 17.3549 18.0552 17.6749 17.6552 17.6749H15.2552C14.8552 17.6749 14.5352 17.3549 14.5352 16.9549V15.7349C14.5352 15.3349 14.8552 15.0149 15.2552 15.0149Z" fill="#999999"/>
<path d="M19.4048 2.43494H18.4148V3.94494C18.4148 4.89494 17.6448 5.66494 16.6948 5.66494C15.7448 5.66494 14.9748 4.89494 14.9748 3.94494V2.43494H7.01477V3.94494C7.01477 4.89494 6.24477 5.66494 5.29477 5.66494C4.34477 5.66494 3.57477 4.89494 3.57477 3.94494V2.43494H2.58477C1.23477 2.43494 0.134766 3.53494 0.134766 4.88494V19.2249C0.134766 20.5749 1.23477 21.6749 2.58477 21.6749H19.4148C20.7648 21.6749 21.8648 20.5749 21.8648 19.2249V4.88494C21.8648 3.53494 20.7648 2.43494 19.4148 2.43494H19.4048ZM20.0148 19.2249C20.0148 19.5649 19.7448 19.8349 19.4048 19.8349H2.58477C2.24477 19.8349 1.97477 19.5649 1.97477 19.2249V7.49494H20.0248V19.2249H20.0148Z" fill="#999999"/>
<path d="M5.2957 5.14495C5.9557 5.14495 6.4957 4.60495 6.4957 3.94495V1.52495C6.4957 0.864951 5.9557 0.324951 5.2957 0.324951C4.6357 0.324951 4.0957 0.864951 4.0957 1.52495V3.95495C4.0957 4.61495 4.6357 5.15495 5.2957 5.15495V5.14495Z" fill="#999999"/>
<path d="M16.6941 5.14495C17.3541 5.14495 17.8941 4.60495 17.8941 3.94495V1.52495C17.8941 0.864951 17.3541 0.324951 16.6941 0.324951C16.0341 0.324951 15.4941 0.864951 15.4941 1.52495V3.95495C15.4941 4.61495 16.0341 5.15495 16.6941 5.15495V5.14495Z" fill="#999999"/>
</g>
<defs>
<clipPath id="clip0_3439_14639">
<rect width="22" height="22" fill="white"/>
</clipPath>
</defs>
</svg>
