<svg width="15" height="15" viewBox="0 0 15 15" fill="none" xmlns="http://www.w3.org/2000/svg">
<g clip-path="url(#clip0_1177_1414)">
<path d="M14.3289 14.9999C14.1551 14.9999 13.9816 14.9339 13.85 14.8024L0.192168 1.1225C-0.0675366 0.86243 -0.0637339 0.444389 0.200892 0.189163C0.465294 -0.0662825 0.890305 -0.0625421 1.14979 0.197524L14.8076 13.8774C15.0673 14.1375 15.0635 14.5555 14.7989 14.8107C14.6683 14.9368 14.4985 14.9999 14.3287 14.9999H14.3289Z" fill="#D40000"/>
<path d="M0.671043 14.9999C0.501262 14.9999 0.331481 14.937 0.200846 14.8107C-0.0635559 14.5553 -0.0673586 14.1375 0.192122 13.8774L13.8502 0.197524C14.1099 -0.0625421 14.5347 -0.0662825 14.7991 0.189163C15.0635 0.444609 15.0673 0.86243 14.8078 1.1225L1.14996 14.8024C1.01866 14.9339 0.84485 14.9999 0.671043 14.9999Z" fill="#D40000"/>
</g>
<defs>
<clipPath id="clip0_1177_1414">
<rect width="15" height="15" fill="white"/>
</clipPath>
</defs>
</svg>
