<svg width="30" height="30" viewBox="0 0 30 30" fill="none" xmlns="http://www.w3.org/2000/svg">
<g clip-path="url(#clip0_1147_777)">
<path fill-rule="evenodd" clip-rule="evenodd" d="M22.3829 16.0967H21.0165C20.6737 16.0967 20.3309 16.3651 20.3309 16.7054C20.0566 19.375 17.8038 21.3831 15.0612 21.3831C12.0542 21.3831 9.66422 19.0443 9.66422 16.159C9.66422 13.2738 12.0542 11.0116 14.9976 10.9493V11.812C14.9976 12.1427 15.2718 12.2816 15.6146 12.1427L20.1252 9.94277C20.468 9.74147 20.468 9.47308 20.1252 9.27178L15.6146 7.06231C15.551 7 15.4775 7 15.4089 7C15.1347 7 15.0024 7.12941 15.0024 7.46011V8.27009C10.5507 8.33719 7 11.8167 7 16.1638C7 20.5109 10.5507 24 15.0612 24C19.3024 24 22.7208 20.784 23 16.7054C23 16.3651 22.7208 16.0967 22.3829 16.0967Z" fill="white"/>
</g>
<defs>
<clipPath id="clip0_1147_777">
<rect width="16" height="17" fill="white" transform="translate(7 7)"/>
</clipPath>
</defs>
</svg>
