<svg width="90" height="90" viewBox="0 0 90 90" fill="none" xmlns="http://www.w3.org/2000/svg">
<circle cx="45" cy="45" r="45" fill="#81AFDC"/>
<g clip-path="url(#clip0_1171_1645)">
<path d="M23.9399 53.0098L37.0099 48.7798V25.0898L23.9399 29.3198V53.0098Z" fill="white"/>
<path d="M57.63 36.8402C57.56 36.8902 57.48 36.9302 57.4 36.9402C57.4 36.9402 57.38 36.9402 57.37 36.9402C56.59 36.9402 52.99 33.1602 52.95 33.1202C52.64 32.7902 52.33 32.4502 52.02 32.0902V53.0002L65.08 48.7702V28.7402C64.58 29.5502 64.05 30.2802 63.58 30.8902C61.96 32.9802 59.96 34.9802 57.63 36.8402Z" fill="white"/>
<path d="M37.98 25.0898V48.7798L51.04 53.0098V30.9198C50.53 30.2698 50.03 29.5698 49.58 28.8498L37.97 25.0898H37.98Z" fill="white"/>
<path d="M64.95 18.5192C64.17 17.0992 62.97 15.9192 61.57 15.1192C57.42 12.7092 51.95 14.3692 49.67 18.5192C48.05 21.4792 48.23 24.5692 50.27 28.0492C50.39 28.2592 50.52 28.4692 50.66 28.6892C50.78 28.8792 50.91 29.0692 51.05 29.2592C51.2 29.4792 51.37 29.7092 51.54 29.9292C51.7 30.1392 51.86 30.3492 52.03 30.5692C52.52 31.1892 53.07 31.8192 53.67 32.4592C54.17 32.9992 56.52 35.2592 57.29 35.8692C57.29 35.8692 57.31 35.8592 57.31 35.8492C57.31 35.8492 57.33 35.8592 57.33 35.8692C58.11 35.2592 60.45 32.9992 60.95 32.4592C61.55 31.8192 62.1 31.1892 62.59 30.5692C62.76 30.3592 62.92 30.1392 63.08 29.9292C63.25 29.6992 63.41 29.4792 63.57 29.2592C63.7 29.0692 63.84 28.8792 63.96 28.6892C64.1 28.4792 64.22 28.2592 64.35 28.0492C66.39 24.5792 66.58 21.4792 64.95 18.5192ZM59.39 24.7392C58.78 25.2292 58.06 25.4792 57.32 25.4792C56.58 25.4792 55.85 25.2292 55.25 24.7392C54.27 23.9592 53.82 22.7492 54.05 21.4992C54.29 20.1592 55.5 18.9792 56.8 18.8292C56.99 18.8092 57.16 18.8092 57.33 18.8092C57.5 18.8092 57.68 18.8092 57.86 18.8292C59.16 18.9892 60.37 20.1592 60.61 21.4992C60.83 22.7492 60.38 23.9592 59.41 24.7392H59.39Z" fill="#F6E000"/>
</g>
<path d="M30.8684 62.555C30.6557 62.1077 30.3477 61.763 29.9444 61.521C29.541 61.2717 29.0717 61.147 28.5364 61.147C28.001 61.147 27.517 61.2717 27.0844 61.521C26.659 61.763 26.3217 62.115 26.0724 62.577C25.8304 63.0317 25.7094 63.5597 25.7094 64.161C25.7094 64.7623 25.8304 65.2903 26.0724 65.745C26.3217 66.1997 26.659 66.5517 27.0844 66.801C27.517 67.043 28.001 67.164 28.5364 67.164C29.2844 67.164 29.9004 66.9403 30.3844 66.493C30.8684 66.0457 31.1507 65.4407 31.2314 64.678H28.1734V63.864H32.2984V64.634C32.2397 65.2647 32.0417 65.844 31.7044 66.372C31.367 66.8927 30.9234 67.307 30.3734 67.615C29.8234 67.9157 29.211 68.066 28.5364 68.066C27.825 68.066 27.176 67.901 26.5894 67.571C26.0027 67.2337 25.537 66.768 25.1924 66.174C24.855 65.58 24.6864 64.909 24.6864 64.161C24.6864 63.413 24.855 62.742 25.1924 62.148C25.537 61.5467 26.0027 61.081 26.5894 60.751C27.176 60.4137 27.825 60.245 28.5364 60.245C29.3504 60.245 30.069 60.4467 30.6924 60.85C31.323 61.2533 31.7814 61.8217 32.0674 62.555H30.8684ZM39.1219 64.755C39.1219 64.9457 39.1109 65.1473 39.0889 65.36H34.2709C34.3076 65.954 34.5092 66.4197 34.8759 66.757C35.2499 67.087 35.7009 67.252 36.2289 67.252C36.6616 67.252 37.0209 67.153 37.3069 66.955C37.6002 66.7497 37.8056 66.4783 37.9229 66.141H39.0009C38.8396 66.7203 38.5169 67.1933 38.0329 67.56C37.5489 67.9193 36.9476 68.099 36.2289 68.099C35.6569 68.099 35.1436 67.9707 34.6889 67.714C34.2416 67.4573 33.8896 67.0943 33.6329 66.625C33.3762 66.1483 33.2479 65.5983 33.2479 64.975C33.2479 64.3517 33.3726 63.8053 33.6219 63.336C33.8712 62.8667 34.2196 62.5073 34.6669 62.258C35.1216 62.0013 35.6422 61.873 36.2289 61.873C36.8009 61.873 37.3069 61.9977 37.7469 62.247C38.1869 62.4963 38.5242 62.841 38.7589 63.281C39.0009 63.7137 39.1219 64.205 39.1219 64.755ZM38.0879 64.546C38.0879 64.1647 38.0036 63.8383 37.8349 63.567C37.6662 63.2883 37.4352 63.0793 37.1419 62.94C36.8559 62.7933 36.5369 62.72 36.1849 62.72C35.6789 62.72 35.2462 62.8813 34.8869 63.204C34.5349 63.5267 34.3332 63.974 34.2819 64.546H38.0879ZM41.6642 62.797V66.35C41.6642 66.6433 41.7265 66.8523 41.8512 66.977C41.9759 67.0943 42.1922 67.153 42.5002 67.153H43.2372V68H42.3352C41.7779 68 41.3599 67.8717 41.0812 67.615C40.8025 67.3583 40.6632 66.9367 40.6632 66.35V62.797H39.8822V61.972H40.6632V60.454H41.6642V61.972H43.2372V62.797H41.6642ZM45.671 62.797V66.35C45.671 66.6433 45.7334 66.8523 45.858 66.977C45.9827 67.0943 46.199 67.153 46.507 67.153H47.244V68H46.342C45.7847 68 45.3667 67.8717 45.088 67.615C44.8094 67.3583 44.67 66.9367 44.67 66.35V62.797H43.889V61.972H44.67V60.454H45.671V61.972H47.244V62.797H45.671ZM48.9739 60.993C48.7832 60.993 48.6219 60.927 48.4899 60.795C48.3579 60.663 48.2919 60.5017 48.2919 60.311C48.2919 60.1203 48.3579 59.959 48.4899 59.827C48.6219 59.695 48.7832 59.629 48.9739 59.629C49.1572 59.629 49.3112 59.695 49.4359 59.827C49.5679 59.959 49.6339 60.1203 49.6339 60.311C49.6339 60.5017 49.5679 60.663 49.4359 60.795C49.3112 60.927 49.1572 60.993 48.9739 60.993ZM49.4579 61.972V68H48.4569V61.972H49.4579ZM54.1009 61.862C54.8342 61.862 55.4282 62.0857 55.8829 62.533C56.3376 62.973 56.5649 63.611 56.5649 64.447V68H55.5749V64.59C55.5749 63.9887 55.4246 63.5303 55.1239 63.215C54.8232 62.8923 54.4126 62.731 53.8919 62.731C53.3639 62.731 52.9422 62.896 52.6269 63.226C52.3189 63.556 52.1649 64.0363 52.1649 64.667V68H51.1639V61.972H52.1649V62.83C52.3629 62.522 52.6306 62.2837 52.9679 62.115C53.3126 61.9463 53.6902 61.862 54.1009 61.862ZM60.686 61.873C61.2067 61.873 61.6614 61.9867 62.05 62.214C62.446 62.4413 62.7394 62.7273 62.93 63.072V61.972H63.942V68.132C63.942 68.682 63.8247 69.1697 63.59 69.595C63.3554 70.0277 63.018 70.365 62.578 70.607C62.1454 70.849 61.6394 70.97 61.06 70.97C60.268 70.97 59.608 70.783 59.08 70.409C58.552 70.035 58.2404 69.5253 58.145 68.88H59.135C59.245 69.2467 59.4724 69.54 59.817 69.76C60.1617 69.9873 60.576 70.101 61.06 70.101C61.61 70.101 62.0574 69.9287 62.402 69.584C62.754 69.2393 62.93 68.7553 62.93 68.132V66.867C62.732 67.219 62.4387 67.5123 62.05 67.747C61.6614 67.9817 61.2067 68.099 60.686 68.099C60.1507 68.099 59.663 67.967 59.223 67.703C58.7904 67.439 58.4494 67.0687 58.2 66.592C57.9507 66.1153 57.826 65.5727 57.826 64.964C57.826 64.348 57.9507 63.809 58.2 63.347C58.4494 62.8777 58.7904 62.5147 59.223 62.258C59.663 62.0013 60.1507 61.873 60.686 61.873ZM62.93 64.975C62.93 64.5203 62.8384 64.1243 62.655 63.787C62.4717 63.4497 62.2224 63.193 61.907 63.017C61.599 62.8337 61.258 62.742 60.884 62.742C60.51 62.742 60.169 62.83 59.861 63.006C59.553 63.182 59.3074 63.4387 59.124 63.776C58.9407 64.1133 58.849 64.5093 58.849 64.964C58.849 65.426 58.9407 65.8293 59.124 66.174C59.3074 66.5113 59.553 66.7717 59.861 66.955C60.169 67.131 60.51 67.219 60.884 67.219C61.258 67.219 61.599 67.131 61.907 66.955C62.2224 66.7717 62.4717 66.5113 62.655 66.174C62.8384 65.8293 62.93 65.4297 62.93 64.975ZM33.6615 73.147V75.71H36.4555V76.535H33.6615V79.175H36.7855V80H32.6605V72.322H36.7855V73.147H33.6615ZM41.4461 80L40.0161 77.756L38.6411 80H37.5961L39.5431 77.008L37.5961 73.972H38.7291L40.1591 76.205L41.5231 73.972H42.5681L40.6321 76.953L42.5791 80H41.4461ZM44.5648 75.083C44.7628 74.7383 45.0561 74.4523 45.4448 74.225C45.8408 73.9903 46.2991 73.873 46.8198 73.873C47.3551 73.873 47.8391 74.0013 48.2718 74.258C48.7118 74.5147 49.0565 74.8777 49.3058 75.347C49.5551 75.809 49.6798 76.348 49.6798 76.964C49.6798 77.5727 49.5551 78.1153 49.3058 78.592C49.0565 79.0687 48.7118 79.439 48.2718 79.703C47.8391 79.967 47.3551 80.099 46.8198 80.099C46.3065 80.099 45.8518 79.9853 45.4558 79.758C45.0671 79.5233 44.7701 79.2337 44.5648 78.889V82.86H43.5638V73.972H44.5648V75.083ZM48.6568 76.964C48.6568 76.5093 48.5651 76.1133 48.3818 75.776C48.1985 75.4387 47.9491 75.182 47.6338 75.006C47.3258 74.83 46.9848 74.742 46.6108 74.742C46.2441 74.742 45.9031 74.8337 45.5878 75.017C45.2798 75.193 45.0305 75.4533 44.8398 75.798C44.6565 76.1353 44.5648 76.5277 44.5648 76.975C44.5648 77.4297 44.6565 77.8293 44.8398 78.174C45.0305 78.5113 45.2798 78.7717 45.5878 78.955C45.9031 79.131 46.2441 79.219 46.6108 79.219C46.9848 79.219 47.3258 79.131 47.6338 78.955C47.9491 78.7717 48.1985 78.5113 48.3818 78.174C48.5651 77.8293 48.6568 77.426 48.6568 76.964ZM53.6264 80.099C53.0617 80.099 52.5484 79.9707 52.0864 79.714C51.6317 79.4573 51.2724 79.0943 51.0084 78.625C50.7517 78.1483 50.6234 77.5983 50.6234 76.975C50.6234 76.359 50.7554 75.8163 51.0194 75.347C51.2907 74.8703 51.6574 74.5073 52.1194 74.258C52.5814 74.0013 53.0984 73.873 53.6704 73.873C54.2424 73.873 54.7594 74.0013 55.2214 74.258C55.6834 74.5073 56.0464 74.8667 56.3104 75.336C56.5817 75.8053 56.7174 76.3517 56.7174 76.975C56.7174 77.5983 56.5781 78.1483 56.2994 78.625C56.0281 79.0943 55.6577 79.4573 55.1884 79.714C54.7191 79.9707 54.1984 80.099 53.6264 80.099ZM53.6264 79.219C53.9857 79.219 54.3231 79.1347 54.6384 78.966C54.9537 78.7973 55.2067 78.5443 55.3974 78.207C55.5954 77.8697 55.6944 77.459 55.6944 76.975C55.6944 76.491 55.5991 76.0803 55.4084 75.743C55.2177 75.4057 54.9684 75.1563 54.6604 74.995C54.3524 74.8263 54.0187 74.742 53.6594 74.742C53.2927 74.742 52.9554 74.8263 52.6474 74.995C52.3467 75.1563 52.1047 75.4057 51.9214 75.743C51.7381 76.0803 51.6464 76.491 51.6464 76.975C51.6464 77.4663 51.7344 77.8807 51.9104 78.218C52.0937 78.5553 52.3357 78.8083 52.6364 78.977C52.9371 79.1383 53.2671 79.219 53.6264 79.219Z" fill="white"/>
<defs>
<clipPath id="clip0_1171_1645">
<rect width="43.04" height="62.13" fill="white" transform="translate(23 14)"/>
</clipPath>
</defs>
</svg>
