<svg width="50" height="50" viewBox="0 0 50 50" fill="none" xmlns="http://www.w3.org/2000/svg">
<circle cx="25" cy="25" r="25" fill="#D9D9D9"/>
<g clip-path="url(#clip0_26_2412)">
<path d="M25.75 9.62012H24.51V22.7301H25.75V9.62012Z" fill="#003893"/>
<path d="M31.39 16.75L25.13 10.5L18.88 16.75L18 15.87L24.7 9.18C24.94 8.94 25.33 8.94 25.58 9.18L32.28 15.88L31.4 16.76L31.39 16.75Z" fill="#003893"/>
</g>
<path d="M10.801 28.2925H13.167V37.7285H10.801V28.2925ZM6.61495 27.2285H17.339V29.3285H6.61495V27.2285ZM24.7877 37.9385C23.565 37.9385 22.4917 37.7098 21.5677 37.2525C20.653 36.7952 19.939 36.1605 19.4257 35.3485C18.9124 34.5272 18.6557 33.5705 18.6557 32.4785C18.6557 31.3865 18.9124 30.4345 19.4257 29.6225C19.939 28.8012 20.653 28.1618 21.5677 27.7045C22.4917 27.2472 23.565 27.0185 24.7877 27.0185C26.0104 27.0185 27.079 27.2472 27.9937 27.7045C28.9177 28.1618 29.6364 28.8012 30.1497 29.6225C30.663 30.4345 30.9197 31.3865 30.9197 32.4785C30.9197 33.5705 30.663 34.5272 30.1497 35.3485C29.6364 36.1605 28.9177 36.7952 27.9937 37.2525C27.079 37.7098 26.0104 37.9385 24.7877 37.9385ZM24.7877 35.8245C25.553 35.8245 26.211 35.6892 26.7617 35.4185C27.3217 35.1478 27.751 34.7605 28.0497 34.2565C28.3577 33.7525 28.5117 33.1598 28.5117 32.4785C28.5117 31.7972 28.3577 31.2045 28.0497 30.7005C27.751 30.1965 27.3217 29.8092 26.7617 29.5385C26.211 29.2678 25.553 29.1325 24.7877 29.1325C24.0317 29.1325 23.3737 29.2678 22.8137 29.5385C22.2537 29.8092 21.8197 30.1965 21.5117 30.7005C21.213 31.2045 21.0637 31.7972 21.0637 32.4785C21.0637 33.1598 21.213 33.7525 21.5117 34.2565C21.8197 34.7605 22.2537 35.1478 22.8137 35.4185C23.3737 35.6892 24.0317 35.8245 24.7877 35.8245ZM39.2845 27.2285C40.1151 27.2285 40.8338 27.3732 41.4405 27.6625C42.0471 27.9518 42.5091 28.3578 42.8265 28.8805C43.1531 29.4032 43.3165 30.0098 43.3165 30.7005C43.3165 31.3912 43.1531 31.9978 42.8265 32.5205C42.5091 33.0338 42.0471 33.4398 41.4405 33.7385C40.8338 34.0278 40.1151 34.1725 39.2845 34.1725H34.6505V32.2125H39.1585C39.7091 32.2125 40.1385 32.0772 40.4465 31.8065C40.7638 31.5358 40.9225 31.1672 40.9225 30.7005C40.9225 30.2245 40.7638 29.8558 40.4465 29.5945C40.1385 29.3238 39.7091 29.1885 39.1585 29.1885H34.8605L35.9385 28.0545V37.7285H33.5585V27.2285H39.2845Z" fill="#003893"/>
<defs>
<clipPath id="clip0_26_2412">
<rect width="14.27" height="13.73" fill="white" transform="translate(18 9)"/>
</clipPath>
</defs>
</svg>
