<svg width="90" height="90" viewBox="0 0 90 90" fill="none" xmlns="http://www.w3.org/2000/svg">
<circle cx="45" cy="45" r="45" fill="#81AFDC"/>
<g clip-path="url(#clip0_26_2411)">
<path d="M23.9399 53.0101L37.0099 48.7801V25.0901L23.9399 29.3201V53.0101Z" fill="white"/>
<path d="M57.63 36.84C57.56 36.89 57.48 36.93 57.4 36.94C57.4 36.94 57.38 36.94 57.37 36.94C56.59 36.94 52.99 33.16 52.95 33.12C52.64 32.79 52.33 32.45 52.02 32.09V53L65.08 48.77V28.74C64.58 29.55 64.05 30.28 63.58 30.89C61.96 32.98 59.96 34.98 57.63 36.84Z" fill="white"/>
<path d="M37.98 25.0901V48.7801L51.04 53.0101V30.9201C50.53 30.2701 50.03 29.5701 49.58 28.8501L37.97 25.0901H37.98Z" fill="white"/>
<path d="M64.95 18.5199C64.17 17.0999 62.97 15.9199 61.57 15.1199C57.42 12.7099 51.95 14.3699 49.67 18.5199C48.05 21.4799 48.23 24.5699 50.27 28.0499C50.39 28.2599 50.52 28.4699 50.66 28.6899C50.78 28.8799 50.91 29.0699 51.05 29.2599C51.2 29.4799 51.37 29.7099 51.54 29.9299C51.7 30.1399 51.86 30.3499 52.03 30.5699C52.52 31.1899 53.07 31.8199 53.67 32.4599C54.17 32.9999 56.52 35.2599 57.29 35.8699C57.29 35.8699 57.31 35.8599 57.31 35.8499C57.31 35.8499 57.33 35.8599 57.33 35.8699C58.11 35.2599 60.45 32.9999 60.95 32.4599C61.55 31.8199 62.1 31.1899 62.59 30.5699C62.76 30.3599 62.92 30.1399 63.08 29.9299C63.25 29.6999 63.41 29.4799 63.57 29.2599C63.7 29.0699 63.84 28.8799 63.96 28.6899C64.1 28.4799 64.22 28.2599 64.35 28.0499C66.39 24.5799 66.58 21.4799 64.95 18.5199ZM59.39 24.7399C58.78 25.2299 58.06 25.4799 57.32 25.4799C56.58 25.4799 55.85 25.2299 55.25 24.7399C54.27 23.9599 53.82 22.7499 54.05 21.4999C54.29 20.1599 55.5 18.9799 56.8 18.8299C56.99 18.8099 57.16 18.8099 57.33 18.8099C57.5 18.8099 57.68 18.8099 57.86 18.8299C59.16 18.9899 60.37 20.1599 60.61 21.4999C60.83 22.7499 60.38 23.9599 59.41 24.7399H59.39Z" fill="#F6E000"/>
<path d="M27.9799 63.52C28.5399 62.98 28.9699 62.33 29.2699 61.56L30.4699 61.91C30.0699 62.84 29.5499 63.6199 28.8899 64.2599C29.8399 64.8799 31.0399 65.3099 32.5099 65.5299C32.2499 65.7899 31.9299 66.2799 31.7899 66.5999C30.2199 66.2999 28.9699 65.7899 27.9699 65.0299C26.9099 65.7699 25.6299 66.29 24.1599 66.65C24.0199 66.38 23.6599 65.85 23.4399 65.59C24.8799 65.31 26.1099 64.89 27.0899 64.24C26.4999 63.6 26.0199 62.8299 25.6299 61.9399L26.6999 61.61C27.0099 62.34 27.4299 62.98 27.9799 63.52ZM24.4599 62.5999C24.2399 62.3599 23.7899 61.93 23.5099 61.72C24.3999 61.27 25.3699 60.54 25.9399 59.84L27.1099 60.29C26.4199 61.15 25.3399 62.06 24.4599 62.61V62.5999ZM28.8299 58.58H28.7999H32.3299V59.74H23.5799V58.58H27.4599C27.3199 58.26 27.1399 57.8999 26.9699 57.5999L28.0999 57.2C28.3699 57.63 28.6999 58.19 28.8199 58.57L28.8299 58.58ZM32.4099 61.8699L31.3899 62.65C30.8999 62.03 29.7899 61.08 28.9099 60.45L29.8399 59.7799C30.6999 60.3599 31.8499 61.2499 32.4099 61.8699Z" fill="white"/>
<path d="M36.4701 59.6001L37.1901 59.9201C36.8101 60.4801 36.1801 61.3901 35.6501 62.0601H36.3701L36.5601 62.0301L37.1301 62.2401C37.0101 63.0601 36.8101 63.7901 36.5601 64.4001C37.1501 65.3301 38.2501 65.4501 39.8201 65.4601C40.8701 65.4601 42.5101 65.4001 43.6401 65.2901C43.4701 65.5301 43.3101 66.0701 43.2501 66.3901C42.2201 66.4501 40.9501 66.4801 39.7901 66.4801C38.0001 66.4801 36.8501 66.2901 36.0901 65.3101C35.7301 65.8901 35.3101 66.3301 34.8201 66.6501C34.6701 66.4201 34.2801 66.0201 34.0601 65.8601C34.9701 65.3101 35.6201 64.3401 35.9401 62.9801H35.1101C34.8701 62.9801 34.5801 63.0401 34.5001 63.1301C34.4401 62.8801 34.2201 62.3801 34.1201 62.1701C34.2801 62.1301 34.4501 62.0501 34.6401 61.8501C34.8201 61.6801 35.2301 61.1201 35.6001 60.5901H34.3201V59.6501H36.3301L36.4601 59.6001H36.4701ZM36.7801 58.8201L35.8801 59.4701C35.6101 59.0401 35.0401 58.3601 34.5801 57.8601L35.4601 57.3101C35.9301 57.7901 36.4901 58.4001 36.7801 58.8101V58.8201ZM42.3801 57.6001L43.0901 58.1701C42.5901 58.6401 41.9601 59.1201 41.3101 59.5201C41.5301 59.6301 41.7401 59.7301 41.9001 59.8301H43.0901V63.9701C43.0901 64.4401 43.0001 64.6701 42.6901 64.8201C42.3901 64.9701 41.9801 64.9701 41.3801 64.9701C41.3501 64.7101 41.2201 64.3401 41.1001 64.0901C41.4301 64.1101 41.7701 64.1001 41.8601 64.1001C41.9801 64.1001 42.0101 64.0701 42.0101 63.9601V63.4701H40.7301V64.9301H39.7201V63.4701H38.5001V64.9601H37.4501V59.8301H39.7001C39.2501 59.6201 38.7801 59.4201 38.3701 59.2601L39.1301 58.6301C39.4901 58.7601 39.8901 58.9201 40.3101 59.0901C40.5901 58.9201 40.8701 58.7301 41.1101 58.5401H37.5601V57.6701H42.1301L42.3601 57.6101L42.3801 57.6001ZM39.7301 61.2101V60.6701H38.5101V61.2101H39.7301ZM38.5101 62.6001H39.7301V62.0401H38.5101V62.6001ZM40.7401 60.6801V61.2201H42.0201V60.6801H40.7401ZM40.7401 62.0501V62.6101H42.0201V62.0501H40.7401Z" fill="white"/>
<path d="M53.23 57.88L54.04 58.14C53.78 58.7 53.44 59.3 53.14 59.7L52.22 59.36C52.33 59.2 52.45 59 52.56 58.8H51.46V59.11C52 59.63 53.05 59.89 54.4 59.95C54.17 60.17 53.88 60.6 53.75 60.9C52.65 60.76 51.78 60.44 51.15 59.9C50.76 60.35 49.95 60.73 48.25 60.92C48.17 60.74 48 60.48 47.83 60.27H45.21V59.36H48.22V59.98C50.12 59.77 50.37 59.33 50.37 58.98V58.81H49.78C49.56 59.14 49.32 59.43 49.08 59.66C48.88 59.48 48.45 59.19 48.2 59.05C48.73 58.62 49.14 57.96 49.37 57.27L50.4 57.51L50.24 57.94H53.06L53.24 57.89L53.23 57.88ZM46.11 66.66C45.91 66.42 45.49 66 45.23 65.79C46.19 65.62 47.26 65.3 47.97 64.97H46.51V60.93H53.18V64.97H51.73C52.64 65.31 53.6 65.71 54.21 66L53.14 66.63C52.56 66.3 51.54 65.82 50.56 65.45L51.18 64.96H48.34L49.22 65.36C48.41 65.89 47.12 66.38 46.12 66.66H46.11ZM47.98 58.7H45.43V57.83H47.98V58.7ZM51.97 62.06V61.63H47.66V62.06H51.97ZM51.97 63.15V62.72H47.66V63.15H51.97ZM51.97 64.25V63.82H47.66V64.25H51.97Z" fill="white"/>
<path d="M58.62 58.61L58 58.98H59.75V59.92H56.1V58.98H57.68C57.55 58.61 57.3 58.11 57.1 57.73L57.93 57.29C58.19 57.7 58.47 58.25 58.61 58.61H58.62ZM59.39 61.25H56.49V60.36H59.39V61.25ZM59.42 62.6H56.49V61.7H59.42V62.6ZM59.41 63.08V66.1H57.43V66.52H56.51V63.09H59.42L59.41 63.08ZM57.42 65.14H58.46V64.03H57.42V65.14ZM64.37 57.84C64.27 61.11 64.28 65.21 64.65 65.34C64.7 65.34 64.75 64.71 64.79 64.06C64.95 64.38 65.24 64.84 65.4 65.02C65.25 66.48 64.74 66.79 64.13 66.53C63.18 66.13 63.17 62.68 63.18 58.97H61.97V61.6H62.93V62.71H61.97V66.64H60.86V62.71H59.75V61.6H60.86V58.97H59.88V57.84H64.37Z" fill="white"/>
</g>
<defs>
<clipPath id="clip0_26_2411">
<rect width="43.04" height="62.13" fill="white" transform="translate(23 14)"/>
</clipPath>
</defs>
</svg>
