<?xml version="1.0" encoding="UTF-8"?><svg xmlns="http://www.w3.org/2000/svg" viewBox="0 0 46 113.03"><defs><style>.cls-1,.cls-2{fill:#003891;}.cls-3{fill:#349fcc;}.cls-4{fill:#e85816;}.cls-5{isolation:isolate;}.cls-6{fill:#f3e143;}.cls-2{mix-blend-mode:multiply;opacity:.46;}</style></defs><g class="cls-5"><g id="_圖層_1"><circle class="cls-6" cx="23" cy="105.47" r="7.56"/><path class="cls-3" d="M22.91,93.26c-.14,0-.29-.01-.43-.02-.04,0-.08-.01-.11-.01-.05,0-.1,0-.14-.01-3.65-.32-6.8-2.95-8.2-6.71,0-.02-.02-.04-.03-.06-.25-.69-.45-1.41-.58-2.16-.03-.09-.04-.19-.06-.29l-2.07-13.55c1.09,1.38,2.12,2.54,2.82,3.18.72.77,1.54,1.38,2.43,1.86l.96,11.16c.32,3.73,2.64,6.55,5.41,6.61Z"/><path class="cls-6" d="M16.54,75.49c-.89-.48-1.71-1.09-2.43-1.86-.7-.64-1.73-1.8-2.82-3.18l-1.99-13.04-1.5-9.78c1.41,1.77,2.74,3.26,3.65,4.09.96,1.03,2.06,1.84,3.27,2.48l.13,1.54,1.69,19.75Z"/><path class="cls-3" d="M11.93,11.21c-.41,1.91-.55,3.97-.37,6.09l.93,10.9,1.42,16.54.81,9.38c-1.21-.64-2.31-1.45-3.27-2.48-.91-.83-2.24-2.32-3.65-4.09l-1.17-7.68-1.45-9.49-2.21-14.49c-.02-.13-.04-.26-.04-.38-.05-.37-.07-.74-.07-1.1,0-1.86.53-3.6,1.44-5.02l.03-.04c.35-.48.72-.94,1.12-1.38C9.59,3.21,15.64.16,22.4,0c-3.72.26-6.94,2.88-8.9,6.73-.69,1.36-1.23,2.87-1.57,4.48Z"/><path class="cls-3" d="M34.79,69.93l-2.09,13.67-.06.4c-.06.37-.13.73-.22,1.08-.54,2.22-1.65,4.14-3.13,5.56-1.71,1.65-3.92,2.62-6.29,2.62.18,0,.35-.01.52-.03,2.58-.33,4.68-3.05,4.98-6.58l.97-11.34c.76-.48,1.47-1.07,2.15-1.75,1.15-1.08,2.2-2.33,3.17-3.63Z"/><path class="cls-6" d="M38.26,47.22l-1.56,10.23-1.91,12.48c-.97,1.3-2.02,2.55-3.17,3.63-.68.68-1.39,1.27-2.15,1.75l1.67-19.45.16-1.8c1.08-.66,2.1-1.47,3.07-2.44,1.4-1.32,2.69-2.82,3.89-4.4Z"/><path class="cls-3" d="M43.07,15.55c0,.13-.02.27-.04.41l-2.21,14.47-1.45,9.51-1.11,7.27c-1.2,1.58-2.49,3.08-3.89,4.4-.97.97-1.99,1.78-3.07,2.44l.79-9.24,1.41-16.41.94-11.03c.05-.61.08-1.21.08-1.81,0-1.48-.16-2.91-.45-4.27-.34-1.62-.88-3.13-1.57-4.49C30.54,2.95,27.32.33,23.6.07c6.76.16,12.81,3.21,16.95,7.97.4.44.77.9,1.12,1.38.01.02.02.03.03.04,1.08,1.69,1.63,3.84,1.37,6.09Z"/><path class="cls-1" d="M14,86.45c-2.93-6.08-5.37-14.75-7.42-23.72.83,2.33,2.84,5.35,4.71,7.72l2.07,13.55c.02.1.03.2.06.29.13.75.33,1.47.58,2.16Z"/><path class="cls-1" d="M7.8,47.63c-2.56-3.25-5.38-7.48-6.36-10.59-.14-.71-.26-1.4-.37-2.07-.37-2.32-.6-4.43-.69-6.34v-.03c-.22-1.29-.34-2.62-.37-3.99-.12-5.63,1.48-10.87,4.29-15.14-.91,1.42-1.44,3.16-1.44,5.02,0,.36.02.73.07,1.1,0,.12.02.25.04.38l2.21,14.49,1.45,9.49,1.17,7.68Z"/><path class="cls-4" d="M11.29,70.45c-1.87-2.37-3.88-5.39-4.71-7.72-.13-.55-.25-1.1-.37-1.65-1.89-8.45-3.44-17.03-4.74-23.85-.01-.07-.02-.13-.03-.19.98,3.11,3.8,7.34,6.36,10.59l1.5,9.78,1.99,13.04Z"/><path class="cls-1" d="M45.99,24.6c-.03,1.44-.16,2.85-.41,4.21-.11,1.98-.38,4.19-.81,6.63-.1.55-.2,1.1-.31,1.68-.28.86-.74,1.77-1.34,2.73-1.43,2.38-3.04,4.96-4.86,7.36l1.11-7.27,1.45-9.51,2.21-14.47c.02-.14.04-.28.04-.41.26-2.25-.29-4.4-1.37-6.09,2.81,4.27,4.41,9.51,4.29,15.14Z"/><path class="cls-4" d="M44.46,37.13s-.01.07-.02.1c-1.32,6.55-2.91,15.28-4.87,23.95-.13.59-.27,1.17-.4,1.75-.21.53-.5,1.07-.86,1.64-1.04,1.74-2.21,3.6-3.52,5.36l1.91-12.48,1.56-10.23c1.82-2.4,3.43-4.98,4.86-7.36.6-.96,1.06-1.87,1.34-2.73Z"/><path class="cls-1" d="M39.17,62.93c-1.9,8.19-4.12,16.21-6.75,22.15.09-.35.16-.71.22-1.08l.06-.4,2.09-13.67c1.31-1.76,2.48-3.62,3.52-5.36.36-.57.65-1.11.86-1.64Z"/><path class="cls-4" d="M5.45,8.04c-.4.44-.77.9-1.12,1.38.32-.5.7-.97,1.12-1.38Z"/><path class="cls-4" d="M41.67,9.42c-.35-.48-.72-.94-1.12-1.38.42.41.8.88,1.12,1.38Z"/><path class="cls-1" d="M29.47,75.31l-.97,11.34c-.3,3.53-2.4,6.25-4.98,6.58-.17.02-.34.03-.52.03h-.09c-2.77-.06-5.09-2.88-5.41-6.61l-.96-11.16c2.62,1.42,5.84,1.7,8.67,1.31,1.58-.17,2.98-.68,4.26-1.49Z"/><path class="cls-1" d="M34.52,15.56c0,.6-.03,1.2-.08,1.81l-.94,11.03-1.41,16.41-.79,9.24c-1.01.61-2.07,1.07-3.2,1.39-.68.19-1.39.33-2.13.41-2.66.37-5.59.28-8.3-.49-1.03-.29-2.02-.67-2.95-1.17l-.81-9.38-1.42-16.54-.93-10.9c-.18-2.12-.04-4.18.37-6.09.34-1.61.88-3.12,1.57-4.48C15.46,2.95,18.68.33,22.4.07c.2-.01.4-.02.6-.02s.4.01.6.02c3.72.26,6.94,2.88,8.9,6.73.69,1.36,1.23,2.87,1.57,4.49.29,1.36.45,2.79.45,4.27Z"/><path class="cls-4" d="M31.3,54.06l-.16,1.8-1.67,19.45c-1.28.81-2.68,1.32-4.26,1.49-2.83.39-6.05.11-8.67-1.31l-1.69-19.75-.13-1.54c.93.5,1.92.88,2.95,1.17,2.71.77,5.64.86,8.3.49.74-.08,1.45-.22,2.13-.41,1.13-.32,2.19-.78,3.2-1.39Z"/><path class="cls-2" d="M1.44,37.04c-.25-.77-.38-1.47-.37-2.07.11.67.23,1.36.37,2.07Z"/><path class="cls-2" d="M6.58,62.73c-.22-.61-.35-1.16-.37-1.65.12.55.24,1.1.37,1.65Z"/><path class="cls-2" d="M39.57,61.18c-.02.55-.15,1.14-.4,1.75.13-.58.27-1.16.4-1.75Z"/></g></g></svg>