<?xml version="1.0" encoding="UTF-8"?><svg xmlns="http://www.w3.org/2000/svg" xmlns:xlink="http://www.w3.org/1999/xlink" viewBox="0 0 46 113.78"><defs><style>.cls-1,.cls-2,.cls-3,.cls-4,.cls-5{fill:none;}.cls-6{fill:#d2c9be;}.cls-2{stroke:#013996;}.cls-2,.cls-3,.cls-4,.cls-5{stroke-miterlimit:10;}.cls-2,.cls-5{stroke-width:1.68px;}.cls-3{stroke-width:5.05px;}.cls-3,.cls-4,.cls-5{stroke:#fff;}.cls-7{fill:#a8c19d;}.cls-8{isolation:isolate;}.cls-9{clip-path:url(#clippath-1);}.cls-4{stroke-width:.84px;}.cls-10{fill:#fff;}.cls-11{fill:#70c5d4;}.cls-11,.cls-12,.cls-13{mix-blend-mode:multiply;opacity:.46;}.cls-14{fill:#73b0df;}.cls-12{fill:#3d2e8c;}.cls-15{clip-path:url(#clippath);}.cls-13{fill:#3d60a9;}</style><clipPath id="clippath"><rect class="cls-1" x="40.24" y="563.24" width="530.88" height="388.58"/></clipPath><clipPath id="clippath-1"><circle class="cls-1" cx="-62.75" cy="227.4" r="136.13"/></clipPath></defs><g class="cls-8"><g id="_圖層_1"><g class="cls-15"><path class="cls-14" d="M749.5,498.56l-222.28-199.43c-9.94-8.92-15.65-21.69-15.65-35.06v-102.97c0-37.57-30.56-68.13-68.13-68.13l-438.57,1.56c-11.17.04-22,4.05-30.49,11.3l-118.55,101.1-10.21-11.98L-35.83,93.86c11.33-9.66,25.76-15.01,40.65-15.06l438.6-1.56c46.27,0,83.9,37.62,83.9,83.87v102.97c0,8.9,3.8,17.41,10.42,23.34l222.28,199.42-10.51,11.72Z"/><polygon class="cls-14" points="410.81 459.91 358.9 413.16 231.59 332.39 162.88 284.35 5 157.28 -87.67 50.71 -80.54 44.51 11.57 150.45 168.68 276.9 236.83 324.53 364.63 405.61 364.92 405.87 417.13 452.9 410.81 459.91"/><g class="cls-9"><rect class="cls-6" x="-321.75" y="-35.79" width="538.24" height="602.58"/><polygon class="cls-7" points="-2.76 132.05 7.84 119.81 37.32 61.09 43.14 58.73 48.31 60.02 42.97 81.71 50.73 91.21 66.36 77.69 50.73 26.52 73.89 29.34 80.95 66.77 65.57 103.19 54.78 112.63 45.07 133.4 39.1 118.62 17.52 119.81 12.43 127.36 -2.76 132.05"/><path class="cls-3" d="M-152.01-78.29c14.48,169.73,28.96,339.47,43.45,509.2,40.94,56,81.87,112,122.81,168"/><polyline class="cls-5" points="-68.03 31.2 30.47 35.83 46.11 2.81 -71.74 -4.06 -258.02 -8.78"/><path class="cls-4" d="M73.93,162.8l-11.33,11.33v11.06l-3.78,6.32,1.89,5.81s.81,6.87-1.89,10.31c-2.7,3.45-13.76,11.81-13.76,11.81l-16.19-1.62-11.37,1.62s-2.26-6.74-3.27-7.55-1.55-16.19-1.55-16.19l7.28-20.5,5.4-3.48,29.4-59.1,10.79-9.44,15.38-36.42,81.61-41,3.1-12.24,8.36-12.31,48.02-22.39,23.2-31.02"/><path class="cls-4" d="M75.28,29.54s-24.28-3.51-27.25-2.97c-2.97.54-58.3,110.33-58.3,110.33"/><polyline class="cls-4" points="50.73 65.15 48.31 60.02 41.83 58.41 36.17 61.78 7.84 119.81 -5.07 134.72"/><path class="cls-4" d="M-13.47,138.26s-4.32-3.78-5.4-7.01c-1.08-3.24,29.67-54.76,29.67-54.76l-2.15-41.68"/><line class="cls-4" x1="-29.22" y1="70.29" x2="10.21" y2="64.87"/></g><circle class="cls-2" cx="-62.75" cy="227.4" r="136.13"/></g><path class="cls-10" d="M23,98.66c-4.18,0-7.56,3.39-7.56,7.56s3.39,7.56,7.56,7.56,7.56-3.39,7.56-7.56-3.39-7.56-7.56-7.56Z"/><path class="cls-10" d="M41.7,9.41s-.02-.02-.03-.04c-.35-.48-.72-.94-1.12-1.38C36.41,3.23,30.36.18,23.6.02c-.2,0-.4-.02-.6-.02s-.4.01-.6.02C15.64.18,9.59,3.23,5.45,7.99c-.4.44-.77.9-1.12,1.38l-.03.04C1.49,13.68-.11,18.92,0,24.55c.03,1.37.15,2.7.37,3.99v.03c.1,2.08.36,4.41.8,6.98,0,.38.02.76.05,1.13.08.89.24,1.75.48,2.58,1.31,6.89,2.86,15.35,4.73,23.61.02.24.08.47.12.7.04.24.06.5.12.73.12.49.26.98.44,1.44,0,0,0,.02.01.03,1.93,8.13,4.2,15.86,6.88,21.42,0,.02.03.04.03.06,1.4,3.76,4.55,6.39,8.2,6.71.04,0,.09,0,.14,0,.03,0,.07.01.11.01.14,0,.29.02.43.02h.09c2.37,0,4.58-.97,6.29-2.62,1.48-1.42,2.59-3.34,3.13-5.56,2.34-5.33,4.38-12.3,6.14-19.57,0,0,0,0,0,0,0,0,0,0,0-.02h0c.8-1.78,1.34-3.72,1.4-5.75v-.33c1.73-7.84,3.16-15.61,4.36-21.64,0-.02,0-.03,0-.05,0-.02,0-.03,0-.05.01-.02.01-.03.01-.05.49-1.49.76-3.07.82-4.68v-.08c0-.18,0-.35-.01-.53,0-.06.01-.13.01-.19v-.03c.2-1.45.33-2.81.4-4.08.25-1.36.38-2.77.41-4.21.12-5.63-1.48-10.87-4.29-15.14Z"/><circle class="cls-13" cx="23" cy="106.22" r="7.56"/><path class="cls-12" d="M41.7,9.41s-.02-.02-.03-.04c-.35-.48-.72-.94-1.12-1.38C36.41,3.23,30.36.18,23.6.02,23.4.01,23.2,0,23,0s-.4.01-.6.02C15.64.18,9.59,3.23,5.45,7.99c-.4.44-.77.9-1.12,1.38l-.03.04C1.49,13.68-.11,18.92,0,24.55c.03,1.37.15,2.7.37,3.99v.03c.1,2.08.36,4.41.8,6.98,0-.47.01-.94.06-1.43.28-2.76,1.39-5.49,3.18-7.93,1.8-2.46,4.3-4.62,7.3-6.19,3.24-1.71,7.07-2.74,11.28-2.74,3.77,0,7.76.96,11.29,2.62,2.91,1.37,5.52,3.2,7.44,5.35,2.09,2.31,3.38,4.98,3.44,7.83,0-.06.01-.13.01-.19v-.03c.2-1.45.33-2.81.4-4.08.25-1.36.38-2.77.41-4.21.12-5.63-1.48-10.87-4.29-15.14Z"/><path class="cls-13" d="M6.44,62.86c-.06-.64-.07-1.29,0-1.96.2-2.07,1.04-4.11,2.37-5.94.78-1.08,1.74-2.09,2.85-2.97.18-.15.38-.28.57-.41-.2-.14-.41-.27-.61-.43-.06-.03-.11-.08-.17-.12-.51-.39-1.94-1.43-3.58-3.02-2.31-2.22-5.03-5.51-6.16-9.54-.24-.83-.4-1.69-.48-2.58-.02-.11-.03-.22-.05-.33,0,.38.02.76.05,1.13.08.89.24,1.75.48,2.58,1.31,6.89,2.86,15.35,4.73,23.61.02.24.08.47.12.7-.04-.24-.09-.47-.12-.71h0Z"/><path class="cls-13" d="M7.11,65.73s-.01-.02-.01-.03h0s-.01-.03-.01-.04c-.17-.44-.31-.88-.42-1.34.12.49.26.98.44,1.44,0,0,0,.02.01.03,0-.02,0-.03-.01-.05h0Z"/><path class="cls-13" d="M44.35,37.61s0,.03-.01.05c0,.02,0,.03-.01.05-1.27,4.15-3.81,7.77-6.22,10.46-1.1,1.22-2.17,2.25-3.09,3.05-.17.15-.34.3-.5.43-.07.06-.14.11-.21.16.18.12.37.23.54.36.91.68,1.73,1.43,2.42,2.24,1.55,1.8,2.48,3.88,2.41,6.09-.02.55-.07,1.08-.15,1.61h0c-.11.71-.27,1.38-.47,2.04-.16.71-.34,1.41-.5,2.11,0,0,0,0,0,0,0,0,.01,0,.01-.02h0c.8-1.78,1.34-3.72,1.4-5.75v-.33c1.73-7.84,3.16-15.61,4.36-21.64.01-.02.01-.03.01-.05.01-.02.01-.03.01-.05.01-.02.01-.03.01-.05.49-1.49.76-3.07.82-4.68v-.08c0-.18,0-.35-.01-.53-.07,1.54-.34,3.06-.81,4.49,0,.02,0,.03-.01.05Z"/><path class="cls-12" d="M34.29,19.89c-3.53-1.66-7.52-2.62-11.29-2.62-4.21,0-8.04,1.03-11.28,2.74-3,1.57-5.5,3.73-7.3,6.19-1.79,2.44-2.9,5.17-3.18,7.93-.05.49-.07.96-.06,1.43.02.11.03.22.05.33.08.89.24,1.75.48,2.58,1.13,4.03,3.85,7.32,6.16,9.54,1.64,1.59,3.07,2.63,3.58,3.02.06.04.11.09.17.12.2.15.41.28.61.43.65-.48,1.34-.93,2.08-1.33,2.46-1.31,5.39-2.1,8.59-2.1,2.94,0,6.05.78,8.79,2.1.93.45,1.8.99,2.63,1.56.07-.06.14-.1.21-.16.16-.13.33-.28.5-.43.92-.8,1.99-1.83,3.09-3.05,2.41-2.69,4.95-6.31,6.22-10.46.01-.02.01-.03.01-.05.01-.02.01-.03.01-.05.01-.02.01-.03.01-.05.47-1.43.73-2.95.81-4.49-.06-2.85-1.35-5.52-3.44-7.83-1.92-2.15-4.53-3.98-7.44-5.35Z"/><path class="cls-13" d="M34.29,19.89c-3.53-1.66-7.52-2.62-11.29-2.62-4.21,0-8.04,1.03-11.28,2.74-3,1.57-5.5,3.73-7.3,6.19-1.79,2.44-2.9,5.17-3.18,7.93-.05.49-.07.96-.06,1.43.02.11.03.22.05.33.08.89.24,1.75.48,2.58,1.13,4.03,3.85,7.32,6.16,9.54,1.64,1.59,3.07,2.63,3.58,3.02.06.04.11.09.17.12.2.15.41.28.61.43.65-.48,1.34-.93,2.08-1.33,2.46-1.31,5.39-2.1,8.59-2.1,2.94,0,6.05.78,8.79,2.1.93.45,1.8.99,2.63,1.56.07-.06.14-.1.21-.16.16-.13.33-.28.5-.43.92-.8,1.99-1.83,3.09-3.05,2.41-2.69,4.95-6.31,6.22-10.46.01-.02.01-.03.01-.05.01-.02.01-.03.01-.05.01-.02.01-.03.01-.05.47-1.43.73-2.95.81-4.49-.06-2.85-1.35-5.52-3.44-7.83-1.92-2.15-4.53-3.98-7.44-5.35Z"/><path class="cls-11" d="M6.67,64.32c-.06-.24-.08-.49-.12-.73.04.24.06.5.12.73Z"/><path class="cls-11" d="M31.83,74.87c-.85.71-1.65,1.21-2.39,1.57-1.93.97-3.44.99-4.13,1.11-.34.06-2.06.34-4.31-.05-1.51-.26-3-.78-4.49-1.61-.76-.42-1.52-.92-2.28-1.5-.4-.3-1.53-1.13-2.82-2.38-1.55-1.51-3.32-3.65-4.29-6.22,1.93,8.13,4.2,15.86,6.88,21.42.01.02.03.04.03.06,1.4,3.76,4.55,6.39,8.2,6.71.04,0,.09,0,.14,0,.03,0,.07.01.11.01.14,0,.29.02.43.02h.09c2.37,0,4.58-.97,6.29-2.62,1.48-1.42,2.59-3.34,3.13-5.56,2.34-5.33,4.38-12.3,6.14-19.57-1.06,2.33-2.55,4.35-4.01,5.96-.98,1.11-1.95,2.01-2.72,2.65Z"/><path class="cls-13" d="M39.53,62.12h0c.08-.54.13-1.07.15-1.62.07-2.21-.86-4.29-2.41-6.09-.69-.81-1.51-1.56-2.42-2.24-.17-.13-.36-.24-.54-.36-1.05.85-2.07,1.49-3,1.94-2.5,1.23-4.45,1.27-5.35,1.42-.45.08-2.7.45-5.65-.06-1.91-.33-3.8-.98-5.69-2.01h-.01c-.8-.43-1.6-.95-2.39-1.52-.19.14-.39.27-.57.41-1.11.88-2.07,1.89-2.85,2.97-1.33,1.83-2.17,3.87-2.37,5.94-.07.67-.06,1.32,0,1.96h0c.02.26.08.49.12.72.04.24.06.49.12.73.11.46.25.91.42,1.34,0,.01.01.02.01.03h0s.01.03.01.04h0s0,.04.01.06c.97,2.58,2.73,4.71,4.29,6.22,1.29,1.25,2.42,2.08,2.82,2.38.76.58,1.52,1.08,2.28,1.5,1.49.83,2.98,1.35,4.49,1.61,2.25.39,3.97.11,4.31.05.69-.12,2.2-.14,4.13-1.11.74-.36,1.54-.86,2.39-1.57.77-.64,1.74-1.54,2.72-2.65,1.46-1.61,2.95-3.64,4.01-5.96.17-.7.34-1.4.5-2.11.2-.66.36-1.33.47-2.03Z"/><path class="cls-11" d="M39.53,62.12h0c.08-.54.13-1.07.15-1.62.07-2.21-.86-4.29-2.41-6.09-.69-.81-1.51-1.56-2.42-2.24-.17-.13-.36-.24-.54-.36-1.05.85-2.07,1.49-3,1.94-2.5,1.23-4.45,1.27-5.35,1.42-.45.08-2.7.45-5.65-.06-1.91-.33-3.8-.98-5.69-2.01h-.01c-.8-.43-1.6-.95-2.39-1.52-.19.14-.39.27-.57.41-1.11.88-2.07,1.89-2.85,2.97-1.33,1.83-2.17,3.87-2.37,5.94-.07.67-.06,1.32,0,1.96h0c.02.26.08.49.12.72.04.24.06.49.12.73.11.46.25.91.42,1.34,0,.01.01.02.01.03h0s.01.03.01.04h0s0,.04.01.06c.97,2.58,2.73,4.71,4.29,6.22,1.29,1.25,2.42,2.08,2.82,2.38.76.58,1.52,1.08,2.28,1.5,1.49.83,2.98,1.35,4.49,1.61,2.25.39,3.97.11,4.31.05.69-.12,2.2-.14,4.13-1.11.74-.36,1.54-.86,2.39-1.57.77-.64,1.74-1.54,2.72-2.65,1.46-1.61,2.95-3.64,4.01-5.96.17-.7.34-1.4.5-2.11.2-.66.36-1.33.47-2.03Z"/><path class="cls-12" d="M14.63,53.1c1.89,1.03,3.78,1.68,5.69,2.01,2.95.51,5.2.14,5.65.06.9-.15,2.85-.19,5.35-1.42.93-.45,1.94-1.09,3-1.94-.82-.57-1.69-1.11-2.63-1.56-2.74-1.32-5.85-2.1-8.79-2.1-3.2,0-6.13.79-8.59,2.1-.74.4-1.43.85-2.08,1.33.8.57,1.6,1.09,2.39,1.52h.01Z"/><path class="cls-13" d="M14.63,53.1c1.89,1.03,3.78,1.68,5.69,2.01,2.95.51,5.2.14,5.65.06.9-.15,2.85-.19,5.35-1.42.93-.45,1.94-1.09,3-1.94-.82-.57-1.69-1.11-2.63-1.56-2.74-1.32-5.85-2.1-8.79-2.1-3.2,0-6.13.79-8.59,2.1-.74.4-1.43.85-2.08,1.33.8.57,1.6,1.09,2.39,1.52h.01Z"/><path class="cls-11" d="M14.63,53.1c1.89,1.03,3.78,1.68,5.69,2.01,2.95.51,5.2.14,5.65.06.9-.15,2.85-.19,5.35-1.42.93-.45,1.94-1.09,3-1.94-.82-.57-1.69-1.11-2.63-1.56-2.74-1.32-5.85-2.1-8.79-2.1-3.2,0-6.13.79-8.59,2.1-.74.4-1.43.85-2.08,1.33.8.57,1.6,1.09,2.39,1.52h.01Z"/></g></g></svg>