<?xml version="1.0" encoding="UTF-8"?><svg id="_圖層_1" xmlns="http://www.w3.org/2000/svg" xmlns:xlink="http://www.w3.org/1999/xlink" viewBox="0 0 46 113.35"><defs><style>.cls-1,.cls-2,.cls-3,.cls-4,.cls-5{fill:none;}.cls-6{fill:#d2c9be;}.cls-2{stroke:#013996;}.cls-2,.cls-3,.cls-4,.cls-5{stroke-miterlimit:10;}.cls-2,.cls-5{stroke-width:1.68px;}.cls-3{stroke-width:5.05px;}.cls-3,.cls-4,.cls-5{stroke:#fff;}.cls-7{fill:#a8c19d;}.cls-8{fill:#9fd6ef;}.cls-9{clip-path:url(#clippath-1);}.cls-4{stroke-width:.84px;}.cls-10{fill:#1b5aa8;}.cls-11{fill:#73b8df;}.cls-12{fill:#4898c7;}.cls-13{fill:#f5df02;}.cls-14{fill:#73b0df;}.cls-15{clip-path:url(#clippath);}.cls-16{fill:#013996;}</style><clipPath id="clippath"><rect class="cls-1" x="167.72" y="563.02" width="530.88" height="388.58"/></clipPath><clipPath id="clippath-1"><circle class="cls-1" cx="64.73" cy="227.18" r="136.13"/></clipPath></defs><g class="cls-15"><path class="cls-14" d="M876.97,498.34l-222.28-199.43c-9.94-8.92-15.65-21.69-15.65-35.06v-102.97c0-37.57-30.56-68.13-68.13-68.13l-438.57,1.56c-11.17.04-22,4.05-30.49,11.3L-16.7,206.72l-10.21-11.98,118.55-101.1c11.33-9.66,25.76-15.01,40.65-15.06l438.6-1.56c46.27,0,83.9,37.62,83.9,83.87v102.97c0,8.9,3.8,17.41,10.42,23.34l222.28,199.42-10.51,11.72Z"/><polygon class="cls-14" points="538.29 459.7 486.37 412.94 359.07 332.17 290.36 284.14 132.47 157.07 39.81 50.49 46.94 44.3 139.05 150.24 296.16 276.68 364.3 324.31 492.1 405.39 492.4 405.66 544.61 452.68 538.29 459.7"/><g class="cls-9"><rect class="cls-6" x="-194.27" y="-36.01" width="538.24" height="602.58"/><path class="cls-7" d="M29.03,34.59l-14.63-3.52S27.22-5.15,29.03-4.95c1.82.2,26.7.68,26.7.68l3.71,35.25-30.41,3.61Z"/><path class="cls-3" d="M-24.54-78.51C-10.05,91.22,4.43,260.96,18.91,430.69c40.94,56,81.87,112,122.81,168"/><polyline class="cls-5" points="-2.62 142.2 70.47 135.83 40.93 -145.13"/><path class="cls-5" d="M18.91,430.69l-21.53,6.95-28.29-27.81-4.06-131.15s-19.12-26.41-19.12-31.05v-30.7s4.63-24.91,3.48-28.96c-1.16-4.06,2.42-52.8,2.42-52.8l2.22-96.66"/><polyline class="cls-5" points="59.44 30.98 157.94 35.61 173.58 2.59 55.74 -4.27 -130.55 -8.99"/><line class="cls-4" x1="33.92" y1="104.32" x2="124.72" y2="99.49"/><polyline class="cls-4" points="56.82 32.64 29.03 34.59 38.39 138.63"/></g><circle class="cls-2" cx="64.73" cy="227.18" r="136.13"/></g><circle class="cls-13" cx="22.37" cy="105.77" r="7.58"/><path class="cls-8" d="M42.09,10.62c-.12-.19-.25-.36-.38-.53,0,0,0,0,0,0C37.83,4.51,31.56.68,24.36.07h0s0,0,0,0c.04,0,.08.02.12.02-.12-.02-.26-.04-.33-.05-.28-.03-.52-.04-.72-.05-.01,0-.02,0-.04,0h-.21s0,0,0,0h-.21s-.02,0-.04,0c-.2,0-.44,0-.72.03-.07,0-.21.03-.33.04.04,0,.08-.02.12-.02-7.21.49-13.53,4.23-17.5,9.75-.13.17-.26.34-.38.53C1.55,14.07.04,18.6,0,23.48c0,.34,0,.65.01.99v.3c.02,2.79.49,7.08,1.32,12.15,1.21,7.82,3.2,17.51,5.31,26.4.02.13.06.25.1.38,2.66,11.3,5.54,21.23,7.35,24.28.06.13.13.23.19.32,1.65,2.86,4.65,4.85,8.13,5.11.03,0,.06,0,.08,0,3.49-.21,6.52-2.15,8.21-4.98.06-.08.13-.19.19-.32,1.86-3.03,4.89-12.91,7.73-24.17.04-.13.09-.25.11-.38,2.24-8.85,4.39-18.51,5.71-26.31h0c.91-5.06,1.44-9.35,1.51-12.13v-.3c.03-.34.03-.65.03-.99.04-4.88-1.41-9.43-3.91-13.21Z"/><path class="cls-11" d="M42.09,10.62c-.12-.19-.25-.36-.38-.53,0,0,0,0,0,0C37.83,4.51,31.56.68,24.36.07h0s0,0,0,0c.04,0,.08.02.12.02-.12-.02-.26-.04-.33-.05-.28-.03-.52-.04-.72-.05-.01,0-.02,0-.04,0h-.21s0,0,0,0h-.21s-.02,0-.04,0c-.2,0-.44,0-.72.03-.07,0-.21.03-.33.04.04,0,.08-.02.12-.02-7.21.49-13.53,4.23-17.5,9.75-.13.17-.26.34-.38.53C1.55,14.07.04,18.6,0,23.48c0,.34,0,.65.01.99v.3c.02,2.79.49,7.08,1.32,12.15,1.21,7.82,3.2,17.51,5.31,26.4.02.13.06.25.1.38.62,1.91,2.71,4.79,4.19,6.68,1.04,7.1,1.81,12.39,2.01,13.7.02.21.04.32.04.32.14,1.29.53,2.5,1.11,3.58.06.13.13.23.19.32,1.22,2.13,3.19,3.77,5.55,4.58,1.37.47,2.58.53,2.58.53.02,0,.05,0,.08,0,0,0,1.21-.04,2.59-.49,2.37-.77,4.37-2.39,5.62-4.5.06-.08.13-.19.19-.32.6-1.07,1.01-2.27,1.17-3.56,0,0,.02-.11.04-.32.22-1.31,1.06-6.58,2.22-13.67h0c1.51-1.87,3.65-4.72,4.3-6.62.04-.13.09-.25.11-.38,2.24-8.85,4.39-18.51,5.71-26.31h0c.91-5.06,1.44-9.35,1.51-12.13v-.3c.03-.34.03-.65.03-.99.04-4.88-1.41-9.43-3.91-13.21Z"/><path class="cls-12" d="M42.09,10.62c-.12-.19-.25-.36-.38-.53,0,0,0,0,0,0C37.83,4.51,31.56.68,24.36.07h0s0,0,0,0c.13.02.27.04.42.09-.21-.04-.42-.09-.63-.11h-.04s-.13,0-.13,0c-.19-.02-.38-.05-.59-.05h-.21s0,0,0,0h-.21c-.21,0-.4.02-.59.04h-.13s-.02,0-.04,0c-.21.02-.42.06-.63.1.15-.04.3-.06.42-.08-7.21.49-13.53,4.23-17.5,9.75-.13.17-.26.34-.38.53C1.55,14.07.04,18.6,0,23.48c0,.34,0,.65.01.99v.3c.02,2.79.49,7.08,1.32,12.15.4,2.56,3.77,7.29,6.28,10.46.58,4,1.16,8.01,1.73,11.86.54,3.81,1.06,7.44,1.54,10.7.02.15.04.3.06.44.69.87,1.28,1.53,1.51,1.79,1.03,1.17,2.24,2.17,3.61,2.96,0,.09.03.43.04.53.28,3.93.67,9.52,1.5,13.21.02.11.06.26.12.47.61,1.95,2.14,3.12,3,3.56.31.16.89.48,1.67.5.03,0,.09,0,.15,0,.78-.01,1.37-.32,1.68-.48.88-.43,2.48-1.56,3.05-3.51.03-.11.08-.27.13-.46.9-3.3,1.05-5.75,1.71-13.19,0-.1.04-.43.05-.53,1.38-.77,2.61-1.75,3.65-2.91.23-.25.83-.9,1.53-1.76l.07-.44c.53-3.25,1.11-6.88,1.71-10.67.62-3.84,1.26-7.85,1.91-11.83,2.56-3.13,5.99-7.81,6.44-10.36.91-5.06,1.44-9.35,1.51-12.13v-.3c.03-.34.03-.65.03-.99.04-4.88-1.41-9.43-3.91-13.21ZM31.3,53.75h0s0,0,0,0h0Z"/><path class="cls-10" d="M42.29,11.32c-.2-.52-.47-1.07-.58-1.23C37.83,4.51,31.56.68,24.36.07c.13.02.27.04.42.09-.21-.04-.42-.09-.63-.11h-.04s-.13,0-.13,0c-.19-.02-.38-.05-.59-.05h-.21s0,0,0,0h-.21c-.21,0-.4.02-.59.04h-.13s-.02,0-.04,0c-.21.02-.42.06-.63.1.15-.04.3-.06.42-.08-7.21.49-13.53,4.23-17.5,9.75-.11.15-.39.7-.6,1.22-.26.65-.83,2.28-.72,4.19.12,2.17.9,8.77,2.47,18.23v.02c.3,2.09.6,4.31.92,6.55.32,2.22.64,4.48.96,6.77v.04c.04.19.06.36.08.55.86,1.08,1.61,1.98,2.11,2.53.04.04.06.09.1.13.13.13.23.23.29.32.06.06.08.11.13.13.8.83,1.68,1.6,2.62,2.28.44.3.88.6,1.37.86.62,7.69,1.23,15.3,1.82,21.51.13.09.25.17.38.24,1.83,1.03,3.92,1.64,6.15,1.74h0c2.24-.07,4.33-.64,6.18-1.64.13-.06.25-.15.38-.23.68-6.2,1.41-13.8,2.15-21.48.49-.25.93-.54,1.38-.83.96-.67,1.85-1.42,2.66-2.24.04-.02.06-.06.13-.13.06-.08.17-.19.3-.31.04-.04.06-.08.11-.13.51-.55,1.28-1.43,2.15-2.5.02-.19.05-.36.09-.55v-.04c.36-2.28.71-4.54,1.07-6.75.35-2.24.69-4.45,1.02-6.54v-.02c1.71-9.44,2.6-16.02,2.75-18.19.13-1.91-.41-3.54-.66-4.2Z"/><path class="cls-16" d="M34.36,12.57c-.24-1.78-.76-3.31-.8-3.43,0,0-1.31-3.81-3.87-6.32-.05-.05-.09-.08-.12-.11-.93-.88-1.65-1.32-1.87-1.45-1.63-.96-3.1-1.16-3.56-1.21-.4-.04-.74-.05-.97-.05h0c-.23,0-.57,0-.97.03-.46.04-1.94.22-3.58,1.16-.22.13-.95.55-1.89,1.42-.03.03-.07.07-.12.11-2.6,2.46-3.96,6.26-3.96,6.26-.04.11-.58,1.64-.85,3.41-.19,1.25-.21,2.36-.21,2.51,0,.08,0,.15,0,.19v.04c-.01,1.68.22,4.86.22,4.86.06.8.13,1.95.21,3.36v.02c.38,5.6.93,13.4,1.57,21.7.15,2.16.33,4.33.5,6.53.06.66.1,1.33.15,2.01,2.5,1.5,5.41,2.41,8.51,2.54h0c3.11-.08,6.03-.95,8.55-2.41.07-.68.12-1.35.18-2,.21-2.19.41-4.37.6-6.52.76-8.29,1.43-16.08,1.9-21.68v-.02c.09-1.41.19-2.56.26-3.36,0,0,.28-3.18.29-4.86v-.04s0-.11,0-.19c0-.15,0-1.27-.17-2.51Z"/></svg>