<?xml version="1.0" encoding="UTF-8"?><svg xmlns="http://www.w3.org/2000/svg" xmlns:xlink="http://www.w3.org/1999/xlink" viewBox="0 0 46 113.78"><defs><style>.cls-1{fill:none;}.cls-2{fill:#003891;}.cls-3{fill:#2d59a5;}.cls-4{fill:#6ac6ec;}.cls-5{fill:#4580c2;}.cls-6{fill:#203d94;}.cls-7{isolation:isolate;}.cls-8{fill:#5d95c3;}.cls-9{fill:#73b0df;}.cls-10{fill:#3d2e8c;}.cls-10,.cls-11{mix-blend-mode:multiply;opacity:.46;}.cls-12{clip-path:url(#clippath);}.cls-11{fill:#3d60a9;}</style><clipPath id="clippath"><rect class="cls-1" x="-597.14" y="561.64" width="530.88" height="388.58"/></clipPath></defs><g class="cls-7"><g id="_圖層_1"><g class="cls-12"><path class="cls-9" d="M112.11,496.96l-222.28-199.43c-9.94-8.92-15.65-21.69-15.65-35.06v-102.97c0-37.57-30.56-68.13-68.13-68.13l-438.57,1.56c-11.17.04-22,4.05-30.49,11.3l-118.55,101.1-10.21-11.98,118.55-101.1c11.33-9.66,25.76-15.01,40.65-15.06l438.6-1.56c46.27,0,83.9,37.62,83.9,83.87v102.97c0,8.9,3.8,17.41,10.42,23.34l222.28,199.42-10.51,11.72Z"/><rect class="cls-9" x="-22.93" y="-52.64" width="18.89" height="340.41" transform="translate(-108.06 46.43) rotate(-59.6)"/><polygon class="cls-9" points="112.17 285.4 84.81 257.3 56.72 236.84 34.06 209.45 -127.85 58.86 -123.56 54.25 38.78 205.28 61.31 232.51 89.13 252.72 116.68 281.01 112.17 285.4"/></g><circle class="cls-2" cx="23" cy="106.22" r="7.56"/><path class="cls-4" d="M41.7,9.41s-.02-.02-.03-.04c-.35-.48-.72-.94-1.12-1.38C36.41,3.23,30.36.18,23.6.02c-.2-.01-.4-.02-.6-.02s-.4.01-.6.02C15.64.18,9.59,3.23,5.45,7.99c-.4.44-.77.9-1.12,1.38l-.03.04C1.49,13.68-.11,18.92,0,24.55c.03,1.37.15,2.7.37,3.99v.03c.1,2.08.36,4.41.8,6.98,0-.47.01-.94.06-1.43.28-2.76,1.39-5.49,3.18-7.93,1.8-2.46,4.3-4.62,7.3-6.19,3.24-1.71,7.07-2.74,11.28-2.74,3.77,0,7.76.96,11.29,2.62,2.91,1.37,5.52,3.2,7.44,5.35,2.09,2.31,3.38,4.98,3.44,7.83,0-.06.01-.13.01-.19v-.03c.2-1.45.33-2.81.4-4.08.25-1.36.38-2.77.41-4.21.12-5.63-1.48-10.87-4.29-15.14Z"/><path class="cls-8" d="M6.44,62.86c-.06-.64-.07-1.29,0-1.96.2-2.07,1.04-4.11,2.37-5.94.78-1.08,1.74-2.09,2.85-2.97.18-.15.38-.28.57-.41-.2-.14-.41-.27-.61-.43-.06-.03-.11-.08-.17-.12-.51-.39-1.94-1.43-3.58-3.02-2.31-2.22-5.03-5.51-6.16-9.54-.24-.83-.4-1.69-.48-2.58-.02-.11-.03-.22-.05-.33,0,.38.02.76.05,1.13.08.89.24,1.75.48,2.58,1.31,6.89,2.86,15.35,4.73,23.61.02.24.08.47.12.7-.04-.24-.09-.47-.12-.71h0Z"/><path class="cls-11" d="M7.11,65.73s-.01-.02-.01-.03h0s-.01-.03-.01-.04c-.17-.44-.31-.88-.42-1.34.12.49.26.98.44,1.44,0,0,0,.02.01.03,0-.02,0-.03-.01-.05h0Z"/><path class="cls-8" d="M44.35,37.61s0,.03-.01.05c0,.02,0,.03-.01.05-1.27,4.15-3.81,7.77-6.22,10.46-1.1,1.22-2.17,2.25-3.09,3.05-.17.15-.34.3-.5.43-.07.06-.14.11-.21.16.18.12.37.23.54.36.91.68,1.73,1.43,2.42,2.24,1.55,1.8,2.48,3.88,2.41,6.09-.02.55-.07,1.08-.15,1.61h0c-.11.71-.27,1.38-.47,2.04-.16.71-.34,1.41-.5,2.11,0,0,0,0,0,0,0,0,.01,0,.01-.02h0c.8-1.78,1.34-3.72,1.4-5.75v-.33c1.73-7.84,3.16-15.61,4.36-21.64.01-.02.01-.03.01-.05.01-.02.01-.03.01-.05.01-.02.01-.03.01-.05.49-1.49.76-3.07.82-4.68v-.08c0-.18,0-.35-.01-.53-.07,1.54-.34,3.06-.81,4.49,0,.02,0,.03-.01.05Z"/><path class="cls-10" d="M34.29,19.89c-3.53-1.66-7.52-2.62-11.29-2.62-4.21,0-8.04,1.03-11.28,2.74-3,1.57-5.5,3.73-7.3,6.19-1.79,2.44-2.9,5.17-3.18,7.93-.05.49-.07.96-.06,1.43.02.11.03.22.05.33.08.89.24,1.75.48,2.58,1.13,4.03,3.85,7.32,6.16,9.54,1.64,1.59,3.07,2.63,3.58,3.02.06.04.11.09.17.12.2.15.41.28.61.43.65-.48,1.34-.93,2.08-1.33,2.46-1.31,5.39-2.1,8.59-2.1,2.94,0,6.05.78,8.79,2.1.93.45,1.8.99,2.63,1.56.07-.06.14-.1.21-.16.16-.13.33-.28.5-.43.92-.8,1.99-1.83,3.09-3.05,2.41-2.69,4.95-6.31,6.22-10.46.01-.02.01-.03.01-.05.01-.02.01-.03.01-.05.01-.02.01-.03.01-.05.47-1.43.73-2.95.81-4.49-.06-2.85-1.35-5.52-3.44-7.83-1.92-2.15-4.53-3.98-7.44-5.35Z"/><path class="cls-5" d="M34.29,19.89c-3.53-1.66-7.52-2.62-11.29-2.62-4.21,0-8.04,1.03-11.28,2.74-3,1.57-5.5,3.73-7.3,6.19-1.79,2.44-2.9,5.17-3.18,7.93-.05.49-.07.96-.06,1.43.02.11.03.22.05.33.08.89.24,1.75.48,2.58,1.13,4.03,3.85,7.32,6.16,9.54,1.64,1.59,3.07,2.63,3.58,3.02.06.04.11.09.17.12.2.15.41.28.61.43.65-.48,1.34-.93,2.08-1.33,2.46-1.31,5.39-2.1,8.59-2.1,2.94,0,6.05.78,8.79,2.1.93.45,1.8.99,2.63,1.56.07-.06.14-.1.21-.16.16-.13.33-.28.5-.43.92-.8,1.99-1.83,3.09-3.05,2.41-2.69,4.95-6.31,6.22-10.46.01-.02.01-.03.01-.05.01-.02.01-.03.01-.05.01-.02.01-.03.01-.05.47-1.43.73-2.95.81-4.49-.06-2.85-1.35-5.52-3.44-7.83-1.92-2.15-4.53-3.98-7.44-5.35Z"/><path class="cls-6" d="M31.83,74.87c-.85.71-1.65,1.21-2.39,1.57-1.93.97-3.44.99-4.13,1.11-.34.06-2.06.34-4.31-.05-1.51-.26-3-.78-4.49-1.61-.76-.42-1.52-.92-2.28-1.5-.4-.3-1.53-1.13-2.82-2.38-1.55-1.51-3.32-3.65-4.29-6.22,1.93,8.13,4.2,15.86,6.88,21.42.01.02.03.04.03.06,1.4,3.76,4.55,6.39,8.2,6.71.04,0,.09,0,.14,0,.03,0,.07.01.11.01.14,0,.29.02.43.02h.09c2.37,0,4.58-.97,6.29-2.62,1.48-1.42,2.59-3.34,3.13-5.56,2.34-5.33,4.38-12.3,6.14-19.57-1.06,2.33-2.55,4.35-4.01,5.96-.98,1.11-1.95,2.01-2.72,2.65Z"/><path class="cls-11" d="M39.53,62.12h0c.08-.54.13-1.07.15-1.62.07-2.21-.86-4.29-2.41-6.09-.69-.81-1.51-1.56-2.42-2.24-.17-.13-.36-.24-.54-.36-1.05.85-2.07,1.49-3,1.94-2.5,1.23-4.45,1.27-5.35,1.42-.45.08-2.7.45-5.65-.06-1.91-.33-3.8-.98-5.69-2.01h-.01c-.8-.43-1.6-.95-2.39-1.52-.19.14-.39.27-.57.41-1.11.88-2.07,1.89-2.85,2.97-1.33,1.83-2.17,3.87-2.37,5.94-.07.67-.06,1.32,0,1.96h0c.02.26.08.49.12.72.04.24.06.49.12.73.11.46.25.91.42,1.34,0,.01.01.02.01.03h0s.01.03.01.04h0s0,.04.01.06c.97,2.58,2.73,4.71,4.29,6.22,1.29,1.25,2.42,2.08,2.82,2.38.76.58,1.52,1.08,2.28,1.5,1.49.83,2.98,1.35,4.49,1.61,2.25.39,3.97.11,4.31.05.69-.12,2.2-.14,4.13-1.11.74-.36,1.54-.86,2.39-1.57.77-.64,1.74-1.54,2.72-2.65,1.46-1.61,2.95-3.64,4.01-5.96.17-.7.34-1.4.5-2.11.2-.66.36-1.33.47-2.03Z"/><path class="cls-3" d="M39.53,62.12h0c.08-.54.13-1.07.15-1.62.07-2.21-.86-4.29-2.41-6.09-.69-.81-1.51-1.56-2.42-2.24-.17-.13-.36-.24-.54-.36-1.05.85-2.07,1.49-3,1.94-2.5,1.23-4.45,1.27-5.35,1.42-.45.08-2.7.45-5.65-.06-1.91-.33-3.8-.98-5.69-2.01h-.01c-.8-.43-1.6-.95-2.39-1.52-.19.14-.39.27-.57.41-1.11.88-2.07,1.89-2.85,2.97-1.33,1.83-2.17,3.87-2.37,5.94-.07.67-.06,1.32,0,1.96h0c.02.26.08.49.12.72.04.24.06.49.12.73.11.46.25.91.42,1.34,0,.01.01.02.01.03h0s.01.03.01.04h0s0,.04.01.06c.97,2.58,2.73,4.71,4.29,6.22,1.29,1.25,2.42,2.08,2.82,2.38.76.58,1.52,1.08,2.28,1.5,1.49.83,2.98,1.35,4.49,1.61,2.25.39,3.97.11,4.31.05.69-.12,2.2-.14,4.13-1.11.74-.36,1.54-.86,2.39-1.57.77-.64,1.74-1.54,2.72-2.65,1.46-1.61,2.95-3.64,4.01-5.96.17-.7.34-1.4.5-2.11.2-.66.36-1.33.47-2.03Z"/><path class="cls-10" d="M14.63,53.1c1.89,1.03,3.78,1.68,5.69,2.01,2.95.51,5.2.14,5.65.06.9-.15,2.85-.19,5.35-1.42.93-.45,1.94-1.09,3-1.94-.82-.57-1.69-1.11-2.63-1.56-2.74-1.32-5.85-2.1-8.79-2.1-3.2,0-6.13.79-8.59,2.1-.74.4-1.43.85-2.08,1.33.8.57,1.6,1.09,2.39,1.52h.01Z"/><path class="cls-11" d="M14.63,53.1c1.89,1.03,3.78,1.68,5.69,2.01,2.95.51,5.2.14,5.65.06.9-.15,2.85-.19,5.35-1.42.93-.45,1.94-1.09,3-1.94-.82-.57-1.69-1.11-2.63-1.56-2.74-1.32-5.85-2.1-8.79-2.1-3.2,0-6.13.79-8.59,2.1-.74.4-1.43.85-2.08,1.33.8.57,1.6,1.09,2.39,1.52h.01Z"/><path class="cls-2" d="M14.63,53.1c1.89,1.03,3.78,1.68,5.69,2.01,2.95.51,5.2.14,5.65.06.9-.15,2.85-.19,5.35-1.42.93-.45,1.94-1.09,3-1.94-.82-.57-1.69-1.11-2.63-1.56-2.74-1.32-5.85-2.1-8.79-2.1-3.2,0-6.13.79-8.59,2.1-.74.4-1.43.85-2.08,1.33.8.57,1.6,1.09,2.39,1.52h.01Z"/></g></g></svg>