<?xml version="1.0" encoding="UTF-8"?><svg id="_圖層_1" xmlns="http://www.w3.org/2000/svg" xmlns:xlink="http://www.w3.org/1999/xlink" viewBox="0 0 46 115"><defs><style>.cls-1,.cls-2{fill:none;}.cls-3,.cls-4,.cls-5{fill:#b8d2ed;}.cls-6{fill:#9fd6ef;}.cls-7{clip-path:url(#clippath-1);}.cls-4{opacity:.2;}.cls-5,.cls-2{opacity:.5;}.cls-8{fill:#fff;}.cls-9{fill:#3da0da;}.cls-10{fill:#595757;}.cls-2{stroke:#b8d2ed;stroke-miterlimit:10;stroke-width:.17px;}.cls-11{fill:#73b0df;}.cls-12{clip-path:url(#clippath);}</style><clipPath id="clippath"><rect class="cls-1" x="-463.5" y="561.87" width="530.88" height="388.58"/></clipPath><clipPath id="clippath-1"><path class="cls-1" d="M41.87,10.45s-.02-.02-.03-.04c-.35-.48-.72-.94-1.12-1.38-4.14-4.76-10.19-7.81-16.95-7.97-.2-.01-.4-.02-.6-.02s-.4.01-.6.02c-6.76.16-12.81,3.21-16.95,7.97-.4.44-.77.9-1.12,1.38l-.03.04C1.66,14.72.06,19.96.18,25.59c.03,1.37.15,2.7.37,3.99v.03c.09,1.91.32,4.02.69,6.34-.01.6.12,1.3.37,2.07.01.06.02.12.03.19,1.3,6.82,2.85,15.4,4.74,23.85.02.49.15,1.04.37,1.65,2.05,8.97,4.49,17.64,7.42,23.72.01.02.03.04.03.06,1.4,3.76,4.55,6.39,8.2,6.71.04.01.09.01.14.01.03,0,.07.01.11.01.14.01.29.02.43.02h.09c.18,0,.35-.01.52-.03.05,0,.1-.03.16-.04,2.11-.17,4.07-1.06,5.61-2.55,1.48-1.42,2.59-3.34,3.13-5.56,2.63-5.94,4.85-13.96,6.75-22.15.25-.61.38-1.2.4-1.75,1.96-8.67,3.55-17.4,4.87-23.95.01-.03.01-.07.02-.1.19-.58.29-1.14.31-1.68.43-2.44.7-4.65.81-6.63.25-1.36.38-2.77.41-4.21.12-5.63-1.48-10.87-4.29-15.14Z"/></clipPath></defs><g class="cls-12"><polygon class="cls-6" points="-88.54 185.63 11.99 185.63 10.94 134.61 -18.78 139.45 -88.54 99.69 -88.54 185.63"/><path class="cls-11" d="M245.76,497.2L23.48,297.77c-9.94-8.92-15.65-21.69-15.65-35.06v-102.97c0-37.57-30.56-68.13-68.13-68.13l-438.57,1.56c-11.17.04-22,4.05-30.49,11.3l-118.55,101.1-10.21-11.98,118.55-101.1c11.33-9.66,25.76-15.01,40.65-15.06l438.6-1.56c46.27,0,83.9,37.62,83.9,83.87v102.97c0,8.9,3.8,17.41,10.42,23.34l222.28,199.42-10.51,11.72Z"/><rect class="cls-11" x="110.71" y="-52.4" width="18.89" height="340.41" transform="translate(-42.26 161.82) rotate(-59.6)"/><polygon class="cls-11" points="-19.38 142.7 -91.28 103.2 -88.25 97.69 -18.17 136.19 7.51 132.71 8.36 138.95 -19.38 142.7"/><polygon class="cls-11" points="245.81 285.64 218.46 257.54 190.36 237.07 167.7 209.68 5.79 59.09 10.08 54.48 172.42 205.51 194.96 232.75 222.78 252.96 250.32 281.25 245.81 285.64"/><path class="cls-8" d="M-2.15,113.82l.4.36,1.07-1.19.61.55-1.07,1.19.58.53,1.06-1.17.61.55-1.06,1.17.6.54.97-1.41.62.51-.96,1.48.96.87-.61.67-.85-.77-.27.42-.75-.49.36-.52-3.29-2.97c.33-.71.63-1.55.77-2.13l1.03-.06c-.21.6-.5,1.27-.79,1.89ZM2.07,110.87l.24-.26c.07-.08.19-.23.23-.32.17.12.41.32.59.43-.04.12-.16.25-.27.37-.07.08-.23.26-.3.33-.51.56-.83.46-1.38-.04l-.77-.7-.52.58.15.13c.55.5,1.12,1.25,1,2.24l1.67-1.85.08-.14.54-.3c.56.81.86,1.58.94,2.35.5-.14,1-.39,1.5-.76,0,.27.11.72.21.98-.57.36-1.14.59-1.72.69-.07.65-.29,1.29-.61,1.93-.24-.09-.66-.18-.92-.19.32-.55.53-1.11.61-1.68-.55-.02-1.11-.14-1.69-.36l.24-.44-.51.57-.59-.53.19-.2c-.23,0-.64.04-.83.08.15-.89-.28-1.4-.7-1.78l-.72-.65,1.68-1.86,1.37,1.24c.16.15.24.19.31.12ZM3.37,113.84c-.03-.42-.14-.83-.33-1.24l-.96,1.06c.41.14.85.2,1.29.19Z"/></g><path class="cls-9" d="M41.87,10.45s-.02-.02-.03-.04c-.35-.48-.72-.94-1.12-1.38-4.14-4.76-10.19-7.81-16.95-7.97-.2-.01-.4-.02-.6-.02s-.4.01-.6.02c-6.76.16-12.81,3.21-16.95,7.97-.4.44-.77.9-1.12,1.38l-.03.04C1.66,14.72.06,19.96.18,25.59c.03,1.37.15,2.7.37,3.99v.03c.09,1.91.32,4.02.69,6.34-.01.6.12,1.3.37,2.07.01.06.02.12.03.19,1.3,6.82,2.85,15.4,4.74,23.85.02.49.15,1.04.37,1.65,2.05,8.97,4.49,17.64,7.42,23.72.01.02.03.04.03.06,1.4,3.76,4.55,6.39,8.2,6.71.04.01.09.01.14.01.03,0,.07.01.11.01.14.01.29.02.43.02h.09c.18,0,.35-.01.52-.03.05,0,.1-.03.16-.04,2.11-.17,4.07-1.06,5.61-2.55,1.48-1.42,2.59-3.34,3.13-5.56,2.63-5.94,4.85-13.96,6.75-22.15.25-.61.38-1.2.4-1.75,1.96-8.67,3.55-17.4,4.87-23.95.01-.03.01-.07.02-.1.19-.58.29-1.14.31-1.68.43-2.44.7-4.65.81-6.63.25-1.36.38-2.77.41-4.21.12-5.63-1.48-10.87-4.29-15.14Z"/><path class="cls-10" d="M23.17,98.9c-4.18,0-7.56,3.39-7.56,7.56s3.39,7.56,7.56,7.56,7.56-3.39,7.56-7.56-3.38-7.56-7.56-7.56Z"/><g class="cls-7"><polygon class="cls-4" points="35.42 99.21 52.82 88.77 52.82 81.72 35.3 85.22 35.42 99.21"/><polygon class="cls-5" points="52.82 81.72 35.18 71.13 35.3 85.22 52.82 81.72"/><polygon class="cls-3" points="35.42 99.21 35.42 99.21 35.3 85.22 17.54 88.77 35.18 99.36 35.42 99.21"/><polygon class="cls-2" points="35.18 71.13 17.54 81.72 17.54 88.77 35.3 85.22 35.18 71.13"/><polygon class="cls-3" points="52.82 81.72 52.82 81.72 52.69 67.73 34.93 71.28 52.57 81.87 52.82 81.72"/><polygon class="cls-2" points="52.57 53.64 34.93 64.23 34.93 71.28 52.69 67.73 52.57 53.64"/><polygon class="cls-3" points="52.57 46.58 52.57 46.58 52.45 32.6 34.68 36.15 52.32 46.73 52.57 46.58"/><polygon class="cls-2" points="52.32 18.51 34.68 29.09 34.68 36.15 52.45 32.6 52.32 18.51"/><polygon class="cls-4" points="-.35 64.23 17.04 53.79 17.04 46.73 -.47 50.24 -.35 64.23"/><polygon class="cls-5" points="17.04 46.73 -.6 36.15 -.47 50.24 17.04 46.73"/><polygon class="cls-4" points="17.54 81.72 34.93 71.28 34.93 64.23 17.41 67.73 17.54 81.72"/><polygon class="cls-5" points="34.93 64.23 17.29 53.64 17.41 67.73 34.93 64.23"/><polygon class="cls-3" points="17.54 81.72 17.54 81.72 17.41 67.73 -.35 71.28 17.29 81.87 17.54 81.72"/><polygon class="cls-2" points="17.29 53.64 -.35 64.23 -.35 71.28 17.41 67.73 17.29 53.64"/><polygon class="cls-4" points="17.78 116.85 35.18 106.42 35.18 99.36 17.66 102.86 17.78 116.85"/><polygon class="cls-5" points="35.18 99.36 17.54 88.77 17.66 102.86 35.18 99.36"/><polygon class="cls-3" points="17.78 116.85 17.78 116.85 17.66 102.86 -.1 106.42 17.54 117 17.78 116.85"/><polygon class="cls-2" points="17.54 88.77 -.1 99.36 -.1 106.42 17.66 102.86 17.54 88.77"/><polygon class="cls-4" points="-.1 99.36 17.29 88.92 17.29 81.87 -.23 85.37 -.1 99.36"/><polygon class="cls-5" points="17.29 81.87 -.35 71.28 -.23 85.37 17.29 81.87"/><polygon class="cls-4" points="34.93 64.23 52.32 53.79 52.32 46.73 34.81 50.24 34.93 64.23"/><polygon class="cls-5" points="52.32 46.73 34.68 36.15 34.81 50.24 52.32 46.73"/><polygon class="cls-3" points="34.93 64.23 34.93 64.23 34.81 50.24 17.04 53.79 34.68 64.37 34.93 64.23"/><polygon class="cls-2" points="34.68 36.15 17.04 46.73 17.04 53.79 34.81 50.24 34.68 36.15"/><polygon class="cls-4" points="34.68 29.09 52.08 18.66 52.08 11.6 34.56 15.1 34.68 29.09"/><polygon class="cls-5" points="52.08 11.6 34.44 1.01 34.56 15.1 52.08 11.6"/><polygon class="cls-3" points="34.68 29.09 34.68 29.09 34.56 15.1 16.8 18.66 34.44 29.24 34.68 29.09"/><polygon class="cls-2" points="34.44 1.01 16.8 11.6 16.8 18.66 34.56 15.1 34.44 1.01"/><polygon class="cls-4" points="17.04 11.45 34.44 1.01 34.44 -6.04 16.92 -2.54 17.04 11.45"/><polygon class="cls-3" points="17.04 11.45 17.04 11.45 16.92 -2.54 -.84 1.01 16.8 11.6 17.04 11.45"/><polygon class="cls-2" points="16.8 -16.63 -.84 -6.04 -.84 1.01 16.92 -2.54 16.8 -16.63"/><polygon class="cls-4" points="17.04 46.73 34.44 36.3 34.44 29.24 16.92 32.74 17.04 46.73"/><polygon class="cls-5" points="34.44 29.24 16.8 18.66 16.92 32.74 34.44 29.24"/><polygon class="cls-3" points="17.04 46.73 17.04 46.73 16.92 32.74 -.84 36.3 16.8 46.88 17.04 46.73"/><polygon class="cls-2" points="16.8 18.66 -.84 29.24 -.84 36.3 16.92 32.74 16.8 18.66"/><polygon class="cls-4" points="-.6 29.09 16.8 18.66 16.8 11.6 -.72 15.1 -.6 29.09"/><polygon class="cls-5" points="16.8 11.6 -.84 1.01 -.72 15.1 16.8 11.6"/></g></svg>