<?xml version="1.0" encoding="UTF-8"?><svg id="_圖層_1" xmlns="http://www.w3.org/2000/svg" xmlns:xlink="http://www.w3.org/1999/xlink" viewBox="0 0 46 114.09"><defs><style>.cls-1,.cls-2{fill:none;}.cls-3{fill:#d2c9be;}.cls-4{fill:url(#_未命名漸層_75);}.cls-5{fill:url(#_未命名漸層_76);}.cls-6{fill:url(#_未命名漸層_74);}.cls-7{clip-path:url(#clippath-1);}.cls-8{fill:#447bbd;}.cls-2{stroke:#fff;stroke-miterlimit:10;stroke-width:.84px;}.cls-9{fill:#73b0df;}.cls-10{clip-path:url(#clippath);}</style><clipPath id="clippath"><rect class="cls-1" x="-87.24" y="563.39" width="530.88" height="388.58"/></clipPath><clipPath id="clippath-1"><circle class="cls-1" cx="-190.23" cy="227.56" r="136.13"/></clipPath><linearGradient id="_未命名漸層_76" x1="23" y1="53.54" x2="23" y2="1.91" gradientUnits="userSpaceOnUse"><stop offset=".61" stop-color="#efebd0"/><stop offset=".71" stop-color="#eae0b5"/><stop offset=".93" stop-color="#dfc573"/><stop offset="1" stop-color="#dbbc5b"/></linearGradient><linearGradient id="_未命名漸層_75" x1="23.14" y1="76.15" x2="23.14" y2="19.44" gradientUnits="userSpaceOnUse"><stop offset=".52" stop-color="#efebd0"/><stop offset=".65" stop-color="#eae0b5"/><stop offset=".91" stop-color="#dfc573"/><stop offset="1" stop-color="#dbbc5b"/></linearGradient><linearGradient id="_未命名漸層_74" x1="22.7" y1="89.84" x2="23.28" y2="50.18" gradientUnits="userSpaceOnUse"><stop offset=".05" stop-color="#447bbd"/><stop offset=".11" stop-color="#6591c0"/><stop offset=".21" stop-color="#96b0c6"/><stop offset=".3" stop-color="#bccaca"/><stop offset=".39" stop-color="#d8dccd"/><stop offset=".47" stop-color="#e9e7cf"/><stop offset=".52" stop-color="#efebd0"/><stop offset=".65" stop-color="#eae0b5"/><stop offset=".91" stop-color="#dfc573"/><stop offset="1" stop-color="#dbbc5b"/></linearGradient></defs><g class="cls-10"><path class="cls-9" d="M622.02,498.72l-222.28-199.43c-9.94-8.92-15.65-21.69-15.65-35.06v-102.97c0-37.57-30.56-68.13-68.13-68.13l-438.57,1.56c-11.17.04-22,4.05-30.49,11.3l-118.55,101.1-10.21-11.98,118.55-101.1c11.33-9.66,25.76-15.01,40.65-15.06l438.6-1.56c46.27,0,83.9,37.62,83.9,83.87v102.97c0,8.9,3.8,17.41,10.42,23.34l222.28,199.42-10.51,11.72Z"/><polygon class="cls-9" points="283.34 460.07 231.42 413.31 104.11 332.54 35.41 284.51 -122.48 157.44 -215.14 50.87 -208.02 44.67 -115.9 150.61 41.2 277.05 109.35 324.69 237.15 405.76 237.45 406.03 289.66 453.05 283.34 460.07"/><g class="cls-7"><rect class="cls-3" x="-449.22" y="-35.64" width="538.24" height="602.58"/><path class="cls-2" d="M-53.54,162.96l-11.33,11.33v11.06l-3.78,6.32,1.89,5.81s.81,6.87-1.89,10.31c-2.7,3.45-13.76,11.81-13.76,11.81l-16.19-1.62-11.37,1.62s-2.26-6.74-3.27-7.55-1.55-16.19-1.55-16.19l7.28-20.5,5.4-3.48,29.4-59.1,10.79-9.44,15.38-36.42L35.08,25.92l3.1-12.24L46.54,1.37l48.02-22.39,23.2-31.02"/><polyline class="cls-2" points="33.86 -42.87 31.08 -13.73 35.08 25.92 61.1 91.74 57.06 103.07 72.7 140.84 77.52 179.3"/></g></g><path class="cls-5" d="M41.7,9.41s-.02-.02-.03-.04c-.35-.48-.72-.94-1.12-1.38C36.41,3.23,30.36.18,23.6.02c-.2,0-.4-.02-.6-.02s-.4.01-.6.02C15.64.18,9.59,3.23,5.45,7.99c-.4.44-.77.9-1.12,1.38l-.03.04C1.49,13.68-.11,18.92,0,24.55c.03,1.37.15,2.7.37,3.99v.03c.1,2.08.36,4.41.8,6.98.02.11.03.22.05.33.08.89.24,1.75.48,2.58,1.13,4.03,3.85,7.32,6.16,9.54,1.64,1.59,3.07,2.63,3.58,3.02.06.04.11.09.17.12.2.15.41.28.61.43.8.57,1.6,1.09,2.39,1.52h0c1.89,1.03,3.78,1.68,5.69,2.01,2.95.51,5.2.14,5.65.06.9-.15,2.85-.19,5.35-1.42.93-.45,1.94-1.09,3-1.94.07-.06.14-.1.2-.16.16-.13.33-.28.5-.43.92-.8,1.99-1.83,3.09-3.05,2.41-2.69,4.95-6.31,6.22-10.46.01-.02.01-.03.01-.05.01-.02.01-.03.01-.05.01-.02.01-.03.01-.05.47-1.43.73-2.95.81-4.49,0-.06.01-.13.01-.19v-.03c.2-1.45.33-2.81.4-4.08.25-1.36.38-2.77.41-4.21.12-5.63-1.48-10.87-4.29-15.14Z"/><circle class="cls-8" cx="23.08" cy="106.5" r="7.59"/><path class="cls-8" d="M7.13,65.87s-.01-.02-.01-.03h0s-.01-.03-.01-.04c-.17-.44-.31-.89-.42-1.35.12.5.26.98.44,1.45,0,0,0,.02.01.03,0-.02,0-.03-.01-.05h0Z"/><path class="cls-8" d="M6.7,64.45c-.06-.24-.08-.49-.12-.74.04.25.06.5.12.74Z"/><path class="cls-4" d="M45.08,33.17c-.06-2.84-1.34-5.51-3.43-7.81-1.92-2.15-4.52-3.97-7.43-5.34-3.52-1.66-7.51-2.61-11.27-2.61-4.2,0-8.02,1.03-11.26,2.73-2.99,1.57-5.49,3.72-7.29,6.18-1.79,2.44-2.89,5.16-3.17,7.91-.05.48-.07.96-.06,1.43,0,.38.02.76.05,1.13.08.89.24,1.75.48,2.58,1.31,6.88,2.85,15.32,4.72,23.56.02.24.08.47.11.7.04.24.06.49.12.73.11.46.25.9.41,1.34,0,.01.01.02.01.03h0s.01.03.01.04h0s0,.04.01.06c.97,2.57,2.73,4.7,4.28,6.21,1.29,1.25,2.42,2.08,2.81,2.38.76.58,1.52,1.08,2.28,1.5,1.49.83,2.97,1.35,4.48,1.61,2.25.39,3.96.11,4.3.05.69-.12,2.2-.14,4.12-1.11.74-.36,1.54-.86,2.38-1.57.77-.64,1.74-1.54,2.71-2.64,1.45-1.6,2.94-3.63,4-5.95,0,0,0,0,0,0,0,0,.01,0,.01-.02h0c.8-1.78,1.34-3.71,1.4-5.74v-.33c1.73-7.82,3.15-15.58,4.35-21.6.01-.02.01-.03.01-.05.01-.02.01-.03.01-.05.01-.02.01-.03.01-.05.49-1.49.76-3.06.82-4.67v-.08c0-.18,0-.35-.01-.53Z"/><path class="cls-6" d="M37.41,54.51c-.69-.81-1.52-1.57-2.43-2.25-.17-.13-.36-.24-.54-.36-.82-.57-1.7-1.11-2.63-1.56-2.75-1.32-5.87-2.11-8.82-2.11-3.21,0-6.15.79-8.62,2.11-.75.4-1.44.85-2.09,1.33-.19.14-.39.27-.57.42-1.11.88-2.08,1.9-2.86,2.98-1.34,1.84-2.18,3.88-2.38,5.96-.07.67-.06,1.33,0,1.97h0c.02.26.08.49.12.73.04.25.06.5.12.74.11.46.25.91.42,1.35,0,.01.01.02.01.03h0s.01.03.01.04h0s0,.04.01.06c1.93,8.16,4.22,15.91,6.9,21.49.01.02.03.04.03.06,1.41,3.77,4.57,6.41,8.23,6.73.04,0,.09,0,.14,0,.03,0,.07.01.11.01.14,0,.29.02.43.02h.09c2.38,0,4.6-.97,6.31-2.63,1.49-1.43,2.6-3.35,3.14-5.58,2.35-5.35,4.39-12.35,6.16-19.64.17-.7.34-1.41.51-2.12.2-.66.36-1.34.47-2.04h0c.08-.54.13-1.07.15-1.63.07-2.22-.86-4.31-2.42-6.11Z"/></svg>