<?xml version="1.0" encoding="UTF-8"?><svg id="_圖層_1" xmlns="http://www.w3.org/2000/svg" xmlns:xlink="http://www.w3.org/1999/xlink" viewBox="0 0 46.37 115"><defs><style>.cls-1{fill:none;}.cls-2{fill:url(#_未命名漸層_199-10);}.cls-3{fill:url(#_未命名漸層_199-11);}.cls-4{fill:url(#_未命名漸層_199-15);}.cls-5{fill:url(#_未命名漸層_199-14);}.cls-6{fill:url(#_未命名漸層_199-13);}.cls-7{fill:url(#_未命名漸層_199-12);}.cls-8{clip-path:url(#clippath-1);}.cls-9{clip-path:url(#clippath-3);}.cls-10{clip-path:url(#clippath-2);}.cls-11{fill:#1a4699;}.cls-12{fill:url(#_未命名漸層_199);}.cls-13{fill:url(#_未命名漸層_199-3);}.cls-14{fill:url(#_未命名漸層_199-4);}.cls-15{fill:url(#_未命名漸層_199-9);}.cls-16{fill:url(#_未命名漸層_199-2);}.cls-17{fill:url(#_未命名漸層_199-7);}.cls-18{fill:url(#_未命名漸層_199-8);}.cls-19{fill:url(#_未命名漸層_199-5);}.cls-20{fill:url(#_未命名漸層_199-6);}.cls-21{fill:#73b0df;}.cls-22{clip-path:url(#clippath);}</style><clipPath id="clippath"><rect class="cls-1" x="-724.43" y="562.86" width="530.88" height="388.58"/></clipPath><clipPath id="clippath-1"><path class="cls-1" d="M37.59,55.41c-.69-.81-1.52-1.57-2.43-2.25-.17-.13-.36-.24-.54-.36-.82-.57-1.7-1.11-2.63-1.56-2.75-1.32-5.87-2.11-8.82-2.11-3.21,0-6.15.79-8.62,2.11-.75.4-1.44.85-2.09,1.33-.19.14-.39.27-.57.42-1.11.88-2.08,1.9-2.86,2.98-1.34,1.84-2.18,3.88-2.38,5.96-.07.67-.06,1.33,0,1.97h0c.02.26.08.49.12.73.04.25.06.5.12.74.11.46.25.91.42,1.35,0,.01.01.02.01.03h0s.01.03.01.04h0s0,.04.01.06c1.93,8.16,4.22,15.91,6.9,21.49.01.02.03.04.03.06,1.41,3.77,4.57,6.41,8.23,6.73.04,0,.09,0,.14,0,.03,0,.07.01.11.01.14,0,.29.02.43.02h.09c2.38,0,4.6-.97,6.31-2.63,1.49-1.43,2.6-3.35,3.14-5.58,2.35-5.35,4.39-12.35,6.16-19.64.17-.7.34-1.41.51-2.12.2-.66.36-1.34.47-2.04h0c.08-.54.13-1.07.15-1.63.07-2.22-.86-4.31-2.42-6.11Z"/></clipPath><linearGradient id="_未命名漸層_199" x1="23.19" y1="96.7" x2="23.19" y2="23.18" gradientUnits="userSpaceOnUse"><stop offset=".07" stop-color="#1a4699"/><stop offset=".09" stop-color="#e1e1e1"/><stop offset=".13" stop-color="#e1e1e1"/><stop offset=".16" stop-color="#1a4699"/><stop offset=".27" stop-color="#1a4699"/><stop offset=".3" stop-color="#e1e1e1"/><stop offset=".34" stop-color="#e1e1e1"/><stop offset=".37" stop-color="#1a4699"/><stop offset=".5" stop-color="#1a4699"/><stop offset=".53" stop-color="#e1e1e1"/><stop offset=".57" stop-color="#e1e1e1"/><stop offset=".59" stop-color="#1a4699"/><stop offset=".69" stop-color="#1a4699"/><stop offset=".72" stop-color="#e1e1e1"/><stop offset=".75" stop-color="#e1e1e1"/><stop offset=".78" stop-color="#1a4699"/><stop offset=".86" stop-color="#1a4699"/><stop offset=".9" stop-color="#e1e1e1"/><stop offset=".93" stop-color="#e1e1e1"/><stop offset=".95" stop-color="#1a4699"/></linearGradient><linearGradient id="_未命名漸層_199-2" y1="91.38" y2="17.85" xlink:href="#_未命名漸層_199"/><linearGradient id="_未命名漸層_199-3" y1="86.05" y2="12.52" xlink:href="#_未命名漸層_199"/><linearGradient id="_未命名漸層_199-4" y1="80.72" y2="7.19" xlink:href="#_未命名漸層_199"/><linearGradient id="_未命名漸層_199-5" y1="75.39" y2="1.86" xlink:href="#_未命名漸層_199"/><clipPath id="clippath-2"><path class="cls-1" d="M45.27,34.08c-.06-2.84-1.34-5.51-3.43-7.81-1.92-2.15-4.52-3.97-7.43-5.34-3.52-1.66-7.51-2.61-11.27-2.61-4.2,0-8.02,1.03-11.26,2.73-2.99,1.57-5.49,3.72-7.29,6.18-1.79,2.44-2.89,5.16-3.17,7.91-.05.48-.07.96-.06,1.43,0,.38.02.76.05,1.13.08.89.24,1.75.48,2.58,1.31,6.88,2.85,15.32,4.72,23.56.02.24.08.47.11.7.04.24.06.49.12.73.11.46.25.9.41,1.34,0,.01.01.02.01.03h0s.01.03.01.04h0s0,.04.01.06c.97,2.57,2.73,4.7,4.28,6.21,1.29,1.25,2.42,2.08,2.81,2.38.76.58,1.52,1.08,2.28,1.5,1.49.83,2.97,1.35,4.48,1.61,2.25.39,3.96.11,4.3.05.69-.12,2.2-.14,4.12-1.11.74-.36,1.54-.86,2.38-1.57.77-.64,1.74-1.54,2.71-2.64,1.45-1.6,2.94-3.63,4-5.95,0,0,0,0,0,0,0,0,.01,0,.01-.02h0c.8-1.78,1.34-3.71,1.4-5.74v-.33c1.73-7.82,3.15-15.58,4.35-21.6.01-.02.01-.03.01-.05.01-.02.01-.03.01-.05.01-.02.01-.03.01-.05.49-1.49.76-3.06.82-4.67v-.08c0-.18,0-.35-.01-.53Z"/></clipPath><linearGradient id="_未命名漸層_199-6" y1="74.92" y2="1.39" xlink:href="#_未命名漸層_199"/><linearGradient id="_未命名漸層_199-7" x1="23.19" y1="69.59" x2="23.19" y2="-3.94" xlink:href="#_未命名漸層_199"/><linearGradient id="_未命名漸層_199-8" y1="64.26" y2="-9.27" xlink:href="#_未命名漸層_199"/><linearGradient id="_未命名漸層_199-9" y1="58.93" y2="-14.6" xlink:href="#_未命名漸層_199"/><linearGradient id="_未命名漸層_199-10" y1="53.6" y2="-19.92" xlink:href="#_未命名漸層_199"/><clipPath id="clippath-3"><path class="cls-1" d="M41.89,10.32s-.02-.02-.03-.04c-.35-.48-.72-.94-1.12-1.38C36.6,4.14,30.55,1.09,23.79.93c-.2,0-.4-.02-.6-.02s-.4.01-.6.02c-6.76.16-12.81,3.21-16.95,7.97-.4.44-.77.9-1.12,1.38l-.03.04C1.67,14.59.07,19.83.19,25.46c.03,1.37.15,2.7.37,3.99v.03c.1,2.08.36,4.41.8,6.98.02.11.03.22.05.33.08.89.24,1.75.48,2.58,1.13,4.03,3.85,7.32,6.16,9.54,1.64,1.59,3.07,2.63,3.58,3.02.06.04.11.09.17.12.2.15.41.28.61.43.8.57,1.6,1.09,2.39,1.52h0c1.89,1.03,3.78,1.68,5.69,2.01,2.95.51,5.2.14,5.65.06.9-.15,2.85-.19,5.35-1.42.93-.45,1.94-1.09,3-1.94.07-.06.14-.1.2-.16.16-.13.33-.28.5-.43.92-.8,1.99-1.83,3.09-3.05,2.41-2.69,4.95-6.31,6.22-10.46.01-.02.01-.03.01-.05.01-.02.01-.03.01-.05.01-.02.01-.03.01-.05.47-1.43.73-2.95.81-4.49,0-.06.01-.13.01-.19v-.03c.2-1.45.33-2.81.4-4.08.25-1.36.38-2.77.41-4.21.12-5.63-1.48-10.87-4.29-15.14Z"/></clipPath><linearGradient id="_未命名漸層_199-11" y1="81.37" y2="7.84" xlink:href="#_未命名漸層_199"/><linearGradient id="_未命名漸層_199-12" y1="76.04" y2="2.51" xlink:href="#_未命名漸層_199"/><linearGradient id="_未命名漸層_199-13" y1="70.71" y2="-2.82" xlink:href="#_未命名漸層_199"/><linearGradient id="_未命名漸層_199-14" y1="65.38" y2="-8.14" xlink:href="#_未命名漸層_199"/><linearGradient id="_未命名漸層_199-15" y1="60.06" y2="-13.47" xlink:href="#_未命名漸層_199"/></defs><g class="cls-22"><rect class="cls-21" x="-150.22" y="-51.42" width="18.89" height="340.41" transform="translate(-171.98 -62.75) rotate(-59.6)"/></g><circle class="cls-11" cx="23.27" cy="107.41" r="7.59"/><g class="cls-8"><ellipse class="cls-12" cx="23.19" cy="60.6" rx="23.19" ry="36.71"/><ellipse class="cls-16" cx="23.19" cy="55.27" rx="23.19" ry="36.71"/><ellipse class="cls-13" cx="23.19" cy="49.95" rx="23.19" ry="36.71"/><ellipse class="cls-14" cx="23.19" cy="44.62" rx="23.19" ry="36.71"/><ellipse class="cls-19" cx="23.19" cy="39.29" rx="23.19" ry="36.71"/></g><g class="cls-10"><ellipse class="cls-20" cx="23.19" cy="38.82" rx="23.19" ry="36.71"/><ellipse class="cls-17" cx="23.19" cy="33.49" rx="23.19" ry="36.71"/><ellipse class="cls-18" cx="23.19" cy="28.16" rx="23.19" ry="36.71"/><ellipse class="cls-15" cx="23.19" cy="22.83" rx="23.19" ry="36.71"/><ellipse class="cls-2" cx="23.19" cy="17.5" rx="23.19" ry="36.71"/></g><g class="cls-9"><ellipse class="cls-3" cx="23.19" cy="45.27" rx="23.19" ry="36.71"/><ellipse class="cls-7" cx="23.19" cy="39.94" rx="23.19" ry="36.71"/><ellipse class="cls-6" cx="23.19" cy="34.61" rx="23.19" ry="36.71"/><ellipse class="cls-5" cx="23.19" cy="29.28" rx="23.19" ry="36.71"/><ellipse class="cls-4" cx="23.19" cy="23.95" rx="23.19" ry="36.71"/></g></svg>