<?xml version="1.0" encoding="UTF-8"?><svg id="_圖層_1" xmlns="http://www.w3.org/2000/svg" xmlns:xlink="http://www.w3.org/1999/xlink" viewBox="0 0 46 112.96"><defs><style>.cls-1{fill:none;}.cls-2{fill:#c0d642;}.cls-3{fill:#003891;}.cls-4{fill:#2d59a5;}.cls-5{fill:#9fd6ef;}.cls-6{clip-path:url(#clippath-1);}.cls-7{fill:#fff;}.cls-8{fill:#f3e143;}.cls-9{fill:#73b0df;}.cls-10{fill:#4996c5;}.cls-11{clip-path:url(#clippath);}</style><clipPath id="clippath"><rect class="cls-1" x="-342.19" y="562.82" width="530.88" height="388.58"/></clipPath><clipPath id="clippath-1"><path class="cls-1" d="M41.7,9.39s-.02-.02-.03-.04c-.35-.48-.72-.94-1.12-1.38C36.41,3.21,30.36.16,23.6,0c-.2-.01-.4-.02-.6-.02s-.4.01-.6.02C15.64.16,9.59,3.21,5.45,7.97c-.4.44-.77.9-1.12,1.38l-.03.04C1.49,13.66-.11,18.9,0,24.53c.03,1.37.15,2.7.37,3.99v.03c.09,1.91.32,4.02.69,6.34-.01.6.12,1.3.37,2.07.01.06.02.12.03.19,1.3,6.82,2.85,15.4,4.74,23.85.02.49.15,1.04.37,1.65,2.05,8.97,4.49,17.64,7.42,23.72.01.02.03.04.03.06,1.4,3.76,4.55,6.39,8.2,6.71.04.01.09.01.14.01.03,0,.07.01.11.01.14.01.29.02.43.02h.09c.18,0,.35-.01.52-.03.05,0,.1-.03.16-.04,2.11-.17,4.07-1.06,5.61-2.55,1.48-1.42,2.59-3.34,3.13-5.56,2.63-5.94,4.85-13.96,6.75-22.15.25-.61.38-1.2.4-1.75,1.96-8.67,3.55-17.4,4.87-23.95.01-.03.01-.07.02-.1.19-.58.29-1.14.31-1.68.43-2.44.7-4.65.81-6.63.25-1.36.38-2.77.41-4.21.12-5.63-1.48-10.87-4.29-15.14Z"/></clipPath></defs><g class="cls-11"><polygon class="cls-5" points="32.76 186.57 133.3 186.57 132.25 135.56 102.53 140.39 32.76 100.63 32.76 186.57"/><path class="cls-5" d="M27.37,184.56H10.4l4.79-34.27-25.11-26.59c-5.87-.07-11.74-.14-17.6-.21.41-11.5.81-23.01,1.22-34.51H30.21l-2.84,95.57Z"/><path class="cls-9" d="M367.07,498.14l-222.28-199.43c-9.94-8.92-15.65-21.69-15.65-35.06v-102.97c0-37.57-30.56-68.13-68.13-68.13l-438.57,1.56c-11.17.04-22,4.05-30.49,11.3l-118.55,101.1-10.21-11.98,118.55-101.1c11.33-9.66,25.76-15.01,40.65-15.06l438.6-1.56c46.27,0,83.9,37.62,83.9,83.87v102.97c0,8.9,3.8,17.41,10.42,23.34l222.28,199.42-10.51,11.72Z"/><rect class="cls-9" x="25.49" y="39.88" width="9.44" height="364.47"/><polygon class="cls-9" points="28.38 459.49 -23.53 412.74 -150.84 331.97 -219.55 283.93 -377.43 156.86 -470.1 50.29 -462.97 44.1 -370.86 150.03 -213.75 276.48 -145.6 324.11 -17.8 405.19 -17.51 405.46 34.7 452.48 28.38 459.49"/><polygon class="cls-9" points="101.92 143.65 30.03 104.15 33.06 98.64 103.14 137.13 128.82 133.65 129.67 139.89 101.92 143.65"/><path class="cls-10" d="M49.95,143.9c-.14,0-.25-.11-.25-.25v-30.77c-6.54-.69-11.45-6.12-11.45-12.73,0-7.06,5.75-12.81,12.81-12.81s12.81,5.75,12.81,12.81c0,6.61-4.91,12.04-11.45,12.73v30.77c0,.14-.11.25-.25.25h-2.22Z"/><path class="cls-7" d="M51.06,87.58c6.94,0,12.56,5.62,12.56,12.56,0,6.56-5.03,11.94-11.45,12.5v31h-2.22v-31c-6.42-.56-11.45-5.94-11.45-12.5,0-6.94,5.62-12.56,12.56-12.56M51.06,87.08c-7.2,0-13.06,5.86-13.06,13.06,0,6.66,4.89,12.15,11.45,12.95v30.55c0,.28.22.5.5.5h2.22c.28,0,.5-.22.5-.5v-30.55c6.56-.8,11.45-6.29,11.45-12.95,0-7.2-5.86-13.06-13.06-13.06h0Z"/></g><path class="cls-4" d="M23,97.84c-4.18,0-7.56,3.39-7.56,7.56s3.39,7.56,7.56,7.56,7.56-3.39,7.56-7.56-3.38-7.56-7.56-7.56Z"/><g class="cls-6"><path class="cls-3" d="M2.63,60.36c-1.23-.72-2.29-1.54-3.14-2.44,0-5.93,0-11.87,0-17.8.84-.2,1.9-.38,3.14-.53,0,6.93,0,13.85,0,20.78Z"/><path class="cls-8" d="M6.81,39.17c-1.54.12-2.95.26-4.18.41,0-12.14,0-24.27,0-36.41C3.87,1.47,5.27-.02,6.81-1.29v40.46Z"/><path class="cls-3" d="M11.77,63.62c-1.76-.36-3.42-.81-4.96-1.36v-23.09c1.54-.12,3.21-.22,4.96-.3v24.75Z"/><path class="cls-8" d="M17.26,38.7c-1.89.04-3.73.1-5.48.18V-4.49c1.76-.85,3.6-1.49,5.48-1.92,0,15.03,0,30.07,0,45.1Z"/><path class="cls-3" d="M23,64.71c-1.93,0-3.86-.09-5.74-.27,0-8.58,0-17.16,0-25.74,1.89-.04,3.81-.06,5.74-.06,0,8.69,0,17.38,0,26.07Z"/><path class="cls-8" d="M28.74,38.7c-1.89-.04-3.81-.06-5.74-.06,0-15.23,0-30.45,0-45.68,1.93,0,3.86.21,5.74.64v45.1Z"/><path class="cls-3" d="M34.23,63.62c-1.76.36-3.6.63-5.48.81v-25.74c1.89.04,3.73.1,5.48.18v24.75Z"/><path class="cls-8" d="M39.19,39.17c-1.54-.12-3.21-.22-4.96-.3V-4.49c1.76.85,3.42,1.92,4.96,3.19v40.46Z"/><path class="cls-3" d="M43.37,60.36c-1.23.72-2.64,1.36-4.18,1.9v-23.09c1.54.12,2.95.26,4.18.41v20.78Z"/><path class="cls-8" d="M46.51,40.12c-.84-.2-1.9-.38-3.14-.53V3.18c1.23,1.7,2.29,3.62,3.14,5.75v31.19Z"/><path class="cls-3" d="M2.63,76.58c-1.23-1.41-2.29-3-3.14-4.77,0-1.58,0-3.16,0-4.74.84,1.47,1.9,2.8,3.14,3.98,0,1.84,0,3.69,0,5.53Z"/><path class="cls-8" d="M6.81,74.1c-1.54-.88-2.95-1.91-4.18-3.09,0-3.55,0-7.1,0-10.65,1.23.72,2.64,1.36,4.18,1.9v11.83Z"/><path class="cls-3" d="M11.77,82.94c-1.76-.71-3.42-1.59-4.96-2.65v-6.15c1.54.88,3.21,1.62,4.96,2.21v6.59Z"/><path class="cls-8" d="M17.26,77.62c-1.89-.29-3.73-.74-5.48-1.32v-12.68c1.76.36,3.6.63,5.48.81,0,4.4,0,8.79,0,13.19Z"/><path class="cls-3" d="M23,85.06c-1.93,0-3.86-.18-5.74-.53,0-2.29,0-4.57,0-6.86,1.89.29,3.81.44,5.74.44,0,2.31,0,4.63,0,6.94Z"/><path class="cls-8" d="M28.74,77.62c-1.89.29-3.81.44-5.74.44,0-4.45,0-8.9,0-13.36,1.93,0,3.86-.09,5.74-.27v13.19Z"/><path class="cls-3" d="M34.23,82.94c-1.76.71-3.6,1.24-5.48,1.59v-6.86c1.89-.29,3.73-.74,5.48-1.33v6.59Z"/><path class="cls-8" d="M39.19,74.1c-1.54.88-3.21,1.62-4.96,2.21v-12.68c1.76-.36,3.42-.81,4.96-1.36v11.83Z"/><path class="cls-3" d="M43.37,76.58c-1.23,1.41-2.64,2.65-4.18,3.71v-6.15c1.54-.88,2.95-1.91,4.18-3.09v5.53Z"/><path class="cls-8" d="M46.51,67.04c-.84,1.47-1.9,2.79-3.14,3.97v-10.65c1.23-.72,2.29-1.54,3.14-2.44v9.12Z"/><path class="cls-3" d="M2.63,81.83c-1.23-1.64-2.29-3.48-3.14-5.52,0-.57,0-1.15,0-1.72.84,1.94,1.9,3.68,3.14,5.23,0,.67,0,1.34,0,2.01Z"/><path class="cls-8" d="M6.81,83.87c-1.54-1.16-2.95-2.52-4.18-4.07,0-1.07,0-2.15,0-3.22,1.23,1.41,2.64,2.65,4.18,3.71v3.58Z"/><path class="cls-3" d="M11.77,89.19c-1.76-.82-3.42-1.84-4.96-3.07v-2.24c1.54,1.16,3.21,2.13,4.96,2.91v2.4Z"/><path class="cls-8" d="M17.26,88.52c-1.89-.39-3.73-.97-5.48-1.74v-3.84c1.76.71,3.6,1.24,5.48,1.59,0,1.33,0,2.66,0,3.99Z"/><path class="cls-3" d="M23,91.64c-1.93,0-3.86-.2-5.74-.61,0-.83,0-1.66,0-2.49,1.89.39,3.81.58,5.74.58,0,.84,0,1.68,0,2.53Z"/><path class="cls-8" d="M28.74,88.52c-1.89.39-3.81.58-5.74.58,0-1.35,0-2.7,0-4.04,1.93,0,3.86-.18,5.74-.53v3.99Z"/><path class="cls-3" d="M34.23,89.19c-1.76.82-3.6,1.43-5.48,1.84v-2.49c1.89-.39,3.73-.97,5.48-1.74v2.4Z"/><path class="cls-8" d="M39.19,83.87c-1.54,1.16-3.21,2.13-4.96,2.91v-3.84c1.76-.71,3.42-1.59,4.96-2.65v3.58Z"/><path class="cls-3" d="M43.37,81.83c-1.23,1.64-2.64,3.07-4.18,4.29v-2.24c1.54-1.16,2.95-2.52,4.18-4.07v2.01Z"/><path class="cls-8" d="M46.51,74.57c-.84,1.94-1.9,3.68-3.14,5.23v-3.22c1.23-1.41,2.29-3,3.14-4.77v2.76Z"/><path class="cls-3" d="M2.63,83.44c-1.23-1.7-2.29-3.62-3.14-5.75,0-.16,0-.31,0-.47.84,2.1,1.9,3.99,3.14,5.67,0,.18,0,.36,0,.54Z"/><path class="cls-8" d="M6.81,87.3c-1.54-1.26-2.95-2.73-4.18-4.41,0-.35,0-.71,0-1.06,1.23,1.64,2.64,3.07,4.18,4.29v1.18Z"/><path class="cls-3" d="M11.77,91.1c-1.76-.85-3.42-1.92-4.96-3.19v-.61c1.54,1.26,3.21,2.31,4.96,3.15v.65Z"/><path class="cls-8" d="M17.26,92.34c-1.89-.42-3.73-1.05-5.48-1.89v-1.26c1.76.82,3.6,1.43,5.48,1.84,0,.44,0,.87,0,1.31Z"/><path class="cls-3" d="M23,93.66c-1.93,0-3.86-.21-5.74-.64,0-.22,0-.45,0-.67,1.89.42,3.81.63,5.74.63,0,.23,0,.46,0,.68Z"/><path class="cls-8" d="M28.74,92.34c-1.89.42-3.81.63-5.74.63,0-.44,0-.89,0-1.33,1.93,0,3.86-.2,5.74-.61v1.31Z"/><path class="cls-3" d="M34.23,91.1c-1.76.85-3.6,1.49-5.48,1.92v-.67c1.89-.42,3.73-1.05,5.48-1.89v.65Z"/><path class="cls-8" d="M39.19,87.3c-1.54,1.26-3.21,2.31-4.96,3.15v-1.26c1.76-.82,3.42-1.84,4.96-3.07v1.18Z"/><path class="cls-3" d="M43.37,83.44c-1.23,1.7-2.64,3.2-4.18,4.47v-.61c1.54-1.26,2.95-2.73,4.18-4.41v.54Z"/><path class="cls-8" d="M46.51,77.22c-.84,2.1-1.9,3.99-3.14,5.67v-1.06c1.23-1.64,2.29-3.48,3.14-5.52v.91Z"/><path class="cls-3" d="M2.63,60.36c-1.23-.72-2.29-1.54-3.14-2.44,0-5.93,0-11.87,0-17.8.84-.2,1.9-.38,3.14-.53,0,6.93,0,13.85,0,20.78Z"/><path class="cls-8" d="M6.81,39.17c-1.54.12-2.95.26-4.18.41,0-12.14,0-24.27,0-36.41C3.87,1.47,5.27-.02,6.81-1.29v40.46Z"/><path class="cls-3" d="M11.77,63.62c-1.76-.36-3.42-.81-4.96-1.36v-23.09c1.54-.12,3.21-.22,4.96-.3v24.75Z"/><path class="cls-8" d="M17.26,38.7c-1.89.04-3.73.1-5.48.18V-4.49c1.76-.85,3.6-1.49,5.48-1.92,0,15.03,0,30.07,0,45.1Z"/><path class="cls-3" d="M23,64.71c-1.93,0-3.86-.09-5.74-.27,0-8.58,0-17.16,0-25.74,1.89-.04,3.81-.06,5.74-.06,0,8.69,0,17.38,0,26.07Z"/><path class="cls-8" d="M28.74,38.7c-1.89-.04-3.81-.06-5.74-.06,0-15.23,0-30.45,0-45.68,1.93,0,3.86.21,5.74.64v45.1Z"/><path class="cls-3" d="M34.23,63.62c-1.76.36-3.6.63-5.48.81v-25.74c1.89.04,3.73.1,5.48.18v24.75Z"/><path class="cls-8" d="M39.19,39.17c-1.54-.12-3.21-.22-4.96-.3V-4.49c1.76.85,3.42,1.92,4.96,3.19v40.46Z"/><path class="cls-3" d="M43.37,60.36c-1.23.72-2.64,1.36-4.18,1.9v-23.09c1.54.12,2.95.26,4.18.41v20.78Z"/><path class="cls-8" d="M46.51,40.12c-.84-.2-1.9-.38-3.14-.53V3.18c1.23,1.7,2.29,3.62,3.14,5.75v31.19Z"/><path class="cls-3" d="M2.63,76.58c-1.23-1.41-2.29-3-3.14-4.77,0-1.58,0-3.16,0-4.74.84,1.47,1.9,2.8,3.14,3.98,0,1.84,0,3.69,0,5.53Z"/><path class="cls-8" d="M6.81,74.1c-1.54-.88-2.95-1.91-4.18-3.09,0-3.55,0-7.1,0-10.65,1.23.72,2.64,1.36,4.18,1.9v11.83Z"/><path class="cls-3" d="M11.77,82.94c-1.76-.71-3.42-1.59-4.96-2.65v-6.15c1.54.88,3.21,1.62,4.96,2.21v6.59Z"/><path class="cls-8" d="M17.26,77.62c-1.89-.29-3.73-.74-5.48-1.32v-12.68c1.76.36,3.6.63,5.48.81,0,4.4,0,8.79,0,13.19Z"/><path class="cls-3" d="M23,85.06c-1.93,0-3.86-.18-5.74-.53,0-2.29,0-4.57,0-6.86,1.89.29,3.81.44,5.74.44,0,2.31,0,4.63,0,6.94Z"/><path class="cls-8" d="M28.74,77.62c-1.89.29-3.81.44-5.74.44,0-4.45,0-8.9,0-13.36,1.93,0,3.86-.09,5.74-.27v13.19Z"/><path class="cls-3" d="M34.23,82.94c-1.76.71-3.6,1.24-5.48,1.59v-6.86c1.89-.29,3.73-.74,5.48-1.33v6.59Z"/><path class="cls-8" d="M39.19,74.1c-1.54.88-3.21,1.62-4.96,2.21v-12.68c1.76-.36,3.42-.81,4.96-1.36v11.83Z"/><path class="cls-3" d="M43.37,76.58c-1.23,1.41-2.64,2.65-4.18,3.71v-6.15c1.54-.88,2.95-1.91,4.18-3.09v5.53Z"/><path class="cls-8" d="M46.51,67.04c-.84,1.47-1.9,2.79-3.14,3.97v-10.65c1.23-.72,2.29-1.54,3.14-2.44v9.12Z"/><path class="cls-3" d="M2.63,81.83c-1.23-1.64-2.29-3.48-3.14-5.52,0-.57,0-1.15,0-1.72.84,1.94,1.9,3.68,3.14,5.23,0,.67,0,1.34,0,2.01Z"/><path class="cls-8" d="M6.81,83.87c-1.54-1.16-2.95-2.52-4.18-4.07,0-1.07,0-2.15,0-3.22,1.23,1.41,2.64,2.65,4.18,3.71v3.58Z"/><path class="cls-3" d="M11.77,89.19c-1.76-.82-3.42-1.84-4.96-3.07v-2.24c1.54,1.16,3.21,2.13,4.96,2.91v2.4Z"/><path class="cls-8" d="M17.26,88.52c-1.89-.39-3.73-.97-5.48-1.74v-3.84c1.76.71,3.6,1.24,5.48,1.59,0,1.33,0,2.66,0,3.99Z"/><path class="cls-3" d="M23,91.64c-1.93,0-3.86-.2-5.74-.61,0-.83,0-1.66,0-2.49,1.89.39,3.81.58,5.74.58,0,.84,0,1.68,0,2.53Z"/><path class="cls-8" d="M28.74,88.52c-1.89.39-3.81.58-5.74.58,0-1.35,0-2.7,0-4.04,1.93,0,3.86-.18,5.74-.53v3.99Z"/><path class="cls-3" d="M34.23,89.19c-1.76.82-3.6,1.43-5.48,1.84v-2.49c1.89-.39,3.73-.97,5.48-1.74v2.4Z"/><path class="cls-8" d="M39.19,83.87c-1.54,1.16-3.21,2.13-4.96,2.91v-3.84c1.76-.71,3.42-1.59,4.96-2.65v3.58Z"/><path class="cls-3" d="M43.37,81.83c-1.23,1.64-2.64,3.07-4.18,4.29v-2.24c1.54-1.16,2.95-2.52,4.18-4.07v2.01Z"/><path class="cls-8" d="M46.51,74.57c-.84,1.94-1.9,3.68-3.14,5.23v-3.22c1.23-1.41,2.29-3,3.14-4.77v2.76Z"/><path class="cls-3" d="M2.63,83.44c-1.23-1.7-2.29-3.62-3.14-5.75,0-.16,0-.31,0-.47.84,2.1,1.9,3.99,3.14,5.67,0,.18,0,.36,0,.54Z"/><path class="cls-8" d="M6.81,87.3c-1.54-1.26-2.95-2.73-4.18-4.41,0-.35,0-.71,0-1.06,1.23,1.64,2.64,3.07,4.18,4.29v1.18Z"/><path class="cls-3" d="M11.77,91.1c-1.76-.85-3.42-1.92-4.96-3.19v-.61c1.54,1.26,3.21,2.31,4.96,3.15v.65Z"/><path class="cls-8" d="M17.26,92.34c-1.89-.42-3.73-1.05-5.48-1.89v-1.26c1.76.82,3.6,1.43,5.48,1.84,0,.44,0,.87,0,1.31Z"/><path class="cls-3" d="M23,93.66c-1.93,0-3.86-.21-5.74-.64,0-.22,0-.45,0-.67,1.89.42,3.81.63,5.74.63,0,.23,0,.46,0,.68Z"/><path class="cls-8" d="M28.74,92.34c-1.89.42-3.81.63-5.74.63,0-.44,0-.89,0-1.33,1.93,0,3.86-.2,5.74-.61v1.31Z"/><path class="cls-3" d="M34.23,91.1c-1.76.85-3.6,1.49-5.48,1.92v-.67c1.89-.42,3.73-1.05,5.48-1.89v.65Z"/><path class="cls-8" d="M39.19,87.3c-1.54,1.26-3.21,2.31-4.96,3.15v-1.26c1.76-.82,3.42-1.84,4.96-3.07v1.18Z"/><path class="cls-3" d="M43.37,83.44c-1.23,1.7-2.64,3.2-4.18,4.47v-.61c1.54-1.26,2.95-2.73,4.18-4.41v.54Z"/><path class="cls-8" d="M46.51,77.22c-.84,2.1-1.9,3.99-3.14,5.67v-1.06c1.23-1.64,2.29-3.48,3.14-5.52v.91Z"/><path class="cls-3" d="M2.63,60.36c-1.23-.72-2.29-1.54-3.14-2.44,0-5.93,0-11.87,0-17.8.84-.2,1.9-.38,3.14-.53,0,6.93,0,13.85,0,20.78Z"/><path class="cls-8" d="M6.81,39.17c-1.54.12-2.95.26-4.18.41,0-12.14,0-24.27,0-36.41C3.87,1.47,5.27-.02,6.81-1.29v40.46Z"/><path class="cls-3" d="M11.77,63.62c-1.76-.36-3.42-.81-4.96-1.36v-23.09c1.54-.12,3.21-.22,4.96-.3v24.75Z"/><path class="cls-8" d="M17.26,38.7c-1.89.04-3.73.1-5.48.18V-4.49c1.76-.85,3.6-1.49,5.48-1.92,0,15.03,0,30.07,0,45.1Z"/><path class="cls-3" d="M23,64.71c-1.93,0-3.86-.09-5.74-.27,0-8.58,0-17.16,0-25.74,1.89-.04,3.81-.06,5.74-.06,0,8.69,0,17.38,0,26.07Z"/><path class="cls-8" d="M28.74,38.7c-1.89-.04-3.81-.06-5.74-.06,0-15.23,0-30.45,0-45.68,1.93,0,3.86.21,5.74.64v45.1Z"/><path class="cls-3" d="M34.23,63.62c-1.76.36-3.6.63-5.48.81v-25.74c1.89.04,3.73.1,5.48.18v24.75Z"/><path class="cls-8" d="M39.19,39.17c-1.54-.12-3.21-.22-4.96-.3V-4.49c1.76.85,3.42,1.92,4.96,3.19v40.46Z"/><path class="cls-3" d="M43.37,60.36c-1.23.72-2.64,1.36-4.18,1.9v-23.09c1.54.12,2.95.26,4.18.41v20.78Z"/><path class="cls-8" d="M46.51,40.12c-.84-.2-1.9-.38-3.14-.53V3.18c1.23,1.7,2.29,3.62,3.14,5.75v31.19Z"/><path class="cls-3" d="M2.63,76.58c-1.23-1.41-2.29-3-3.14-4.77,0-1.58,0-3.16,0-4.74.84,1.47,1.9,2.8,3.14,3.98,0,1.84,0,3.69,0,5.53Z"/><path class="cls-8" d="M6.81,74.1c-1.54-.88-2.95-1.91-4.18-3.09,0-3.55,0-7.1,0-10.65,1.23.72,2.64,1.36,4.18,1.9v11.83Z"/><path class="cls-3" d="M11.77,82.94c-1.76-.71-3.42-1.59-4.96-2.65v-6.15c1.54.88,3.21,1.62,4.96,2.21v6.59Z"/><path class="cls-8" d="M17.26,77.62c-1.89-.29-3.73-.74-5.48-1.32v-12.68c1.76.36,3.6.63,5.48.81,0,4.4,0,8.79,0,13.19Z"/><path class="cls-3" d="M23,85.06c-1.93,0-3.86-.18-5.74-.53,0-2.29,0-4.57,0-6.86,1.89.29,3.81.44,5.74.44,0,2.31,0,4.63,0,6.94Z"/><path class="cls-8" d="M28.74,77.62c-1.89.29-3.81.44-5.74.44,0-4.45,0-8.9,0-13.36,1.93,0,3.86-.09,5.74-.27v13.19Z"/><path class="cls-3" d="M34.23,82.94c-1.76.71-3.6,1.24-5.48,1.59v-6.86c1.89-.29,3.73-.74,5.48-1.33v6.59Z"/><path class="cls-8" d="M39.19,74.1c-1.54.88-3.21,1.62-4.96,2.21v-12.68c1.76-.36,3.42-.81,4.96-1.36v11.83Z"/><path class="cls-3" d="M43.37,76.58c-1.23,1.41-2.64,2.65-4.18,3.71v-6.15c1.54-.88,2.95-1.91,4.18-3.09v5.53Z"/><path class="cls-8" d="M46.51,67.04c-.84,1.47-1.9,2.79-3.14,3.97v-10.65c1.23-.72,2.29-1.54,3.14-2.44v9.12Z"/><path class="cls-3" d="M2.63,81.83c-1.23-1.64-2.29-3.48-3.14-5.52,0-.57,0-1.15,0-1.72.84,1.94,1.9,3.68,3.14,5.23,0,.67,0,1.34,0,2.01Z"/><path class="cls-8" d="M6.81,83.87c-1.54-1.16-2.95-2.52-4.18-4.07,0-1.07,0-2.15,0-3.22,1.23,1.41,2.64,2.65,4.18,3.71v3.58Z"/><path class="cls-3" d="M11.77,89.19c-1.76-.82-3.42-1.84-4.96-3.07v-2.24c1.54,1.16,3.21,2.13,4.96,2.91v2.4Z"/><path class="cls-8" d="M17.26,88.52c-1.89-.39-3.73-.97-5.48-1.74v-3.84c1.76.71,3.6,1.24,5.48,1.59,0,1.33,0,2.66,0,3.99Z"/><path class="cls-3" d="M23,91.64c-1.93,0-3.86-.2-5.74-.61,0-.83,0-1.66,0-2.49,1.89.39,3.81.58,5.74.58,0,.84,0,1.68,0,2.53Z"/><path class="cls-8" d="M28.74,88.52c-1.89.39-3.81.58-5.74.58,0-1.35,0-2.7,0-4.04,1.93,0,3.86-.18,5.74-.53v3.99Z"/><path class="cls-3" d="M34.23,89.19c-1.76.82-3.6,1.43-5.48,1.84v-2.49c1.89-.39,3.73-.97,5.48-1.74v2.4Z"/><path class="cls-8" d="M39.19,83.87c-1.54,1.16-3.21,2.13-4.96,2.91v-3.84c1.76-.71,3.42-1.59,4.96-2.65v3.58Z"/><path class="cls-3" d="M43.37,81.83c-1.23,1.64-2.64,3.07-4.18,4.29v-2.24c1.54-1.16,2.95-2.52,4.18-4.07v2.01Z"/><path class="cls-8" d="M46.51,74.57c-.84,1.94-1.9,3.68-3.14,5.23v-3.22c1.23-1.41,2.29-3,3.14-4.77v2.76Z"/><path class="cls-3" d="M2.63,83.44c-1.23-1.7-2.29-3.62-3.14-5.75,0-.16,0-.31,0-.47.84,2.1,1.9,3.99,3.14,5.67,0,.18,0,.36,0,.54Z"/><path class="cls-8" d="M6.81,87.3c-1.54-1.26-2.95-2.73-4.18-4.41,0-.35,0-.71,0-1.06,1.23,1.64,2.64,3.07,4.18,4.29v1.18Z"/><path class="cls-3" d="M11.77,91.1c-1.76-.85-3.42-1.92-4.96-3.19v-.61c1.54,1.26,3.21,2.31,4.96,3.15v.65Z"/><path class="cls-8" d="M17.26,92.34c-1.89-.42-3.73-1.05-5.48-1.89v-1.26c1.76.82,3.6,1.43,5.48,1.84,0,.44,0,.87,0,1.31Z"/><path class="cls-3" d="M23,93.66c-1.93,0-3.86-.21-5.74-.64,0-.22,0-.45,0-.67,1.89.42,3.81.63,5.74.63,0,.23,0,.46,0,.68Z"/><path class="cls-8" d="M28.74,92.34c-1.89.42-3.81.63-5.74.63,0-.44,0-.89,0-1.33,1.93,0,3.86-.2,5.74-.61v1.31Z"/><path class="cls-3" d="M34.23,91.1c-1.76.85-3.6,1.49-5.48,1.92v-.67c1.89-.42,3.73-1.05,5.48-1.89v.65Z"/><path class="cls-8" d="M39.19,87.3c-1.54,1.26-3.21,2.31-4.96,3.15v-1.26c1.76-.82,3.42-1.84,4.96-3.07v1.18Z"/><path class="cls-3" d="M43.37,83.44c-1.23,1.7-2.64,3.2-4.18,4.47v-.61c1.54-1.26,2.95-2.73,4.18-4.41v.54Z"/><path class="cls-8" d="M46.51,77.22c-.84,2.1-1.9,3.99-3.14,5.67v-1.06c1.23-1.64,2.29-3.48,3.14-5.52v.91Z"/><path class="cls-2" d="M2.63,39.58c-1.23.16-2.29.34-3.14.53,0-10.4,0-20.79,0-31.19C.34,6.8,1.4,4.88,2.63,3.18c0,12.14,0,24.27,0,36.41Z"/><path class="cls-4" d="M6.81,62.26c-1.54-.54-2.95-1.18-4.18-1.9,0-6.93,0-13.85,0-20.78,1.23-.16,2.64-.3,4.18-.41v23.09Z"/><path class="cls-2" d="M11.77,38.87c-1.76.08-3.42.18-4.96.3V-1.29c1.54-1.28,3.21-2.34,4.96-3.19v43.36Z"/><path class="cls-4" d="M17.26,64.44c-1.89-.18-3.73-.45-5.48-.81v-24.75c1.76-.08,3.6-.14,5.48-.18,0,8.58,0,17.16,0,25.74Z"/><path class="cls-2" d="M23,38.64c-1.93,0-3.86.02-5.74.06,0-15.03,0-30.07,0-45.1,1.89-.43,3.81-.64,5.74-.64,0,15.23,0,30.45,0,45.68Z"/><path class="cls-4" d="M28.74,64.44c-1.89.18-3.81.27-5.74.27,0-8.69,0-17.38,0-26.07,1.93,0,3.86.02,5.74.06v25.74Z"/><path class="cls-2" d="M34.23,38.87c-1.76-.08-3.6-.14-5.48-.18V-6.41c1.89.43,3.73,1.06,5.48,1.92v43.36Z"/><path class="cls-4" d="M39.19,62.26c-1.54.54-3.21,1-4.96,1.36v-24.75c1.76.08,3.42.18,4.96.3v23.09Z"/><path class="cls-2" d="M43.37,39.58c-1.23-.16-2.64-.3-4.18-.41V-1.29c1.54,1.28,2.95,2.77,4.18,4.47v36.41Z"/><path class="cls-4" d="M46.51,57.92c-.84.91-1.9,1.72-3.14,2.44v-20.78c1.23.16,2.29.34,3.14.53v17.8Z"/><path class="cls-2" d="M2.63,71.01c-1.23-1.18-2.29-2.5-3.14-3.97,0-3.04,0-6.08,0-9.12.84.91,1.9,1.72,3.14,2.44,0,3.55,0,7.1,0,10.65Z"/><path class="cls-4" d="M6.81,80.29c-1.54-1.06-2.95-2.3-4.18-3.71,0-1.84,0-3.69,0-5.53,1.23,1.18,2.64,2.21,4.18,3.09v6.15Z"/><path class="cls-2" d="M11.77,76.3c-1.76-.59-3.42-1.32-4.96-2.21v-11.83c1.54.54,3.21,1,4.96,1.36v12.68Z"/><path class="cls-4" d="M17.26,84.53c-1.89-.35-3.73-.88-5.48-1.59v-6.59c1.76.59,3.6,1.03,5.48,1.33,0,2.29,0,4.57,0,6.86Z"/><path class="cls-2" d="M23,78.06c-1.93,0-3.86-.15-5.74-.44,0-4.4,0-8.79,0-13.19,1.89.18,3.81.27,5.74.27,0,4.45,0,8.9,0,13.36Z"/><path class="cls-4" d="M28.74,84.53c-1.89.35-3.81.53-5.74.53,0-2.31,0-4.63,0-6.94,1.93,0,3.86-.15,5.74-.44v6.86Z"/><path class="cls-2" d="M34.23,76.3c-1.76.59-3.6,1.03-5.48,1.32v-13.19c1.89-.18,3.73-.45,5.48-.81v12.68Z"/><path class="cls-4" d="M39.19,80.29c-1.54,1.06-3.21,1.94-4.96,2.65v-6.59c1.76-.59,3.42-1.32,4.96-2.21v6.15Z"/><path class="cls-2" d="M43.37,71.01c-1.23,1.18-2.64,2.21-4.18,3.09v-11.83c1.54-.54,2.95-1.18,4.18-1.9v10.65Z"/><path class="cls-4" d="M46.51,71.81c-.84,1.77-1.9,3.36-3.14,4.77v-5.53c1.23-1.18,2.29-2.5,3.14-3.98v4.74Z"/><path class="cls-2" d="M2.63,79.8c-1.23-1.55-2.29-3.29-3.14-5.23,0-.92,0-1.84,0-2.76.84,1.77,1.9,3.36,3.14,4.77,0,1.07,0,2.15,0,3.22Z"/><path class="cls-4" d="M6.81,86.12c-1.54-1.23-2.95-2.66-4.18-4.29,0-.67,0-1.34,0-2.01,1.23,1.55,2.64,2.91,4.18,4.07v2.24Z"/><path class="cls-2" d="M11.77,86.78c-1.76-.77-3.42-1.74-4.96-2.91v-3.58c1.54,1.06,3.21,1.94,4.96,2.65v3.84Z"/><path class="cls-4" d="M17.26,91.03c-1.89-.41-3.73-1.02-5.48-1.84v-2.4c1.76.78,3.6,1.36,5.48,1.74,0,.83,0,1.66,0,2.49Z"/><path class="cls-2" d="M23,89.1c-1.93,0-3.86-.19-5.74-.58,0-1.33,0-2.66,0-3.99,1.89.35,3.81.53,5.74.53,0,1.35,0,2.7,0,4.04Z"/><path class="cls-4" d="M28.74,91.03c-1.89.41-3.81.61-5.74.61,0-.84,0-1.68,0-2.53,1.93,0,3.86-.19,5.74-.58v2.49Z"/><path class="cls-2" d="M34.23,86.78c-1.76.77-3.6,1.36-5.48,1.74v-3.99c1.89-.35,3.73-.88,5.48-1.59v3.84Z"/><path class="cls-4" d="M39.19,86.12c-1.54,1.23-3.21,2.25-4.96,3.07v-2.4c1.76-.78,3.42-1.74,4.96-2.91v2.24Z"/><path class="cls-2" d="M43.37,79.8c-1.23,1.55-2.64,2.91-4.18,4.07v-3.58c1.54-1.06,2.95-2.3,4.18-3.71v3.22Z"/><path class="cls-4" d="M46.51,76.31c-.84,2.04-1.9,3.88-3.14,5.52v-2.01c1.23-1.55,2.29-3.29,3.14-5.23v1.72Z"/><path class="cls-2" d="M2.63,82.89c-1.23-1.68-2.29-3.57-3.14-5.67,0-.3,0-.6,0-.91.84,2.04,1.9,3.88,3.14,5.52,0,.35,0,.71,0,1.06Z"/><path class="cls-4" d="M6.81,87.91c-1.54-1.28-2.95-2.77-4.18-4.47,0-.18,0-.36,0-.54,1.23,1.68,2.64,3.15,4.18,4.41v.61Z"/><path class="cls-2" d="M11.77,90.45c-1.76-.84-3.42-1.89-4.96-3.15v-1.18c1.54,1.23,3.21,2.25,4.96,3.07v1.26Z"/><path class="cls-4" d="M17.26,93.02c-1.89-.43-3.73-1.07-5.48-1.92v-.65c1.76.84,3.6,1.47,5.48,1.89,0,.22,0,.45,0,.67Z"/><path class="cls-2" d="M23,92.97c-1.93,0-3.86-.21-5.74-.63,0-.44,0-.87,0-1.31,1.89.41,3.81.61,5.74.61,0,.44,0,.89,0,1.33Z"/><path class="cls-4" d="M28.74,93.02c-1.89.43-3.81.64-5.74.64,0-.23,0-.46,0-.68,1.93,0,3.86-.21,5.74-.63v.67Z"/><path class="cls-2" d="M34.23,90.45c-1.76.84-3.6,1.47-5.48,1.89v-1.31c1.89-.41,3.73-1.02,5.48-1.84v1.26Z"/><path class="cls-4" d="M39.19,87.91c-1.54,1.28-3.21,2.34-4.96,3.19v-.65c1.76-.84,3.42-1.89,4.96-3.15v.61Z"/><path class="cls-2" d="M43.37,82.89c-1.23,1.68-2.64,3.15-4.18,4.41v-1.18c1.54-1.23,2.95-2.66,4.18-4.29v1.06Z"/><path class="cls-4" d="M46.51,77.69c-.84,2.13-1.9,4.05-3.14,5.75v-.54c1.23-1.68,2.29-3.57,3.14-5.67v.47Z"/><path class="cls-2" d="M2.63,39.58c-1.23.16-2.29.34-3.14.53,0-10.4,0-20.79,0-31.19C.34,6.8,1.4,4.88,2.63,3.18c0,12.14,0,24.27,0,36.41Z"/><path class="cls-4" d="M6.81,62.26c-1.54-.54-2.95-1.18-4.18-1.9,0-6.93,0-13.85,0-20.78,1.23-.16,2.64-.3,4.18-.41v23.09Z"/><path class="cls-2" d="M11.77,38.87c-1.76.08-3.42.18-4.96.3V-1.29c1.54-1.28,3.21-2.34,4.96-3.19v43.36Z"/><path class="cls-4" d="M17.26,64.44c-1.89-.18-3.73-.45-5.48-.81v-24.75c1.76-.08,3.6-.14,5.48-.18,0,8.58,0,17.16,0,25.74Z"/><path class="cls-2" d="M23,38.64c-1.93,0-3.86.02-5.74.06,0-15.03,0-30.07,0-45.1,1.89-.43,3.81-.64,5.74-.64,0,15.23,0,30.45,0,45.68Z"/><path class="cls-4" d="M28.74,64.44c-1.89.18-3.81.27-5.74.27,0-8.69,0-17.38,0-26.07,1.93,0,3.86.02,5.74.06v25.74Z"/><path class="cls-2" d="M34.23,38.87c-1.76-.08-3.6-.14-5.48-.18V-6.41c1.89.43,3.73,1.06,5.48,1.92v43.36Z"/><path class="cls-4" d="M39.19,62.26c-1.54.54-3.21,1-4.96,1.36v-24.75c1.76.08,3.42.18,4.96.3v23.09Z"/><path class="cls-2" d="M43.37,39.58c-1.23-.16-2.64-.3-4.18-.41V-1.29c1.54,1.28,2.95,2.77,4.18,4.47v36.41Z"/><path class="cls-4" d="M46.51,57.92c-.84.91-1.9,1.72-3.14,2.44v-20.78c1.23.16,2.29.34,3.14.53v17.8Z"/><path class="cls-2" d="M2.63,71.01c-1.23-1.18-2.29-2.5-3.14-3.97,0-3.04,0-6.08,0-9.12.84.91,1.9,1.72,3.14,2.44,0,3.55,0,7.1,0,10.65Z"/><path class="cls-4" d="M6.81,80.29c-1.54-1.06-2.95-2.3-4.18-3.71,0-1.84,0-3.69,0-5.53,1.23,1.18,2.64,2.21,4.18,3.09v6.15Z"/><path class="cls-2" d="M11.77,76.3c-1.76-.59-3.42-1.32-4.96-2.21v-11.83c1.54.54,3.21,1,4.96,1.36v12.68Z"/><path class="cls-4" d="M17.26,84.53c-1.89-.35-3.73-.88-5.48-1.59v-6.59c1.76.59,3.6,1.03,5.48,1.33,0,2.29,0,4.57,0,6.86Z"/><path class="cls-2" d="M23,78.06c-1.93,0-3.86-.15-5.74-.44,0-4.4,0-8.79,0-13.19,1.89.18,3.81.27,5.74.27,0,4.45,0,8.9,0,13.36Z"/><path class="cls-4" d="M28.74,84.53c-1.89.35-3.81.53-5.74.53,0-2.31,0-4.63,0-6.94,1.93,0,3.86-.15,5.74-.44v6.86Z"/><path class="cls-2" d="M34.23,76.3c-1.76.59-3.6,1.03-5.48,1.32v-13.19c1.89-.18,3.73-.45,5.48-.81v12.68Z"/><path class="cls-4" d="M39.19,80.29c-1.54,1.06-3.21,1.94-4.96,2.65v-6.59c1.76-.59,3.42-1.32,4.96-2.21v6.15Z"/><path class="cls-2" d="M43.37,71.01c-1.23,1.18-2.64,2.21-4.18,3.09v-11.83c1.54-.54,2.95-1.18,4.18-1.9v10.65Z"/><path class="cls-4" d="M46.51,71.81c-.84,1.77-1.9,3.36-3.14,4.77v-5.53c1.23-1.18,2.29-2.5,3.14-3.98v4.74Z"/><path class="cls-2" d="M2.63,79.8c-1.23-1.55-2.29-3.29-3.14-5.23,0-.92,0-1.84,0-2.76.84,1.77,1.9,3.36,3.14,4.77,0,1.07,0,2.15,0,3.22Z"/><path class="cls-4" d="M6.81,86.12c-1.54-1.23-2.95-2.66-4.18-4.29,0-.67,0-1.34,0-2.01,1.23,1.55,2.64,2.91,4.18,4.07v2.24Z"/><path class="cls-2" d="M11.77,86.78c-1.76-.77-3.42-1.74-4.96-2.91v-3.58c1.54,1.06,3.21,1.94,4.96,2.65v3.84Z"/><path class="cls-4" d="M17.26,91.03c-1.89-.41-3.73-1.02-5.48-1.84v-2.4c1.76.78,3.6,1.36,5.48,1.74,0,.83,0,1.66,0,2.49Z"/><path class="cls-2" d="M23,89.1c-1.93,0-3.86-.19-5.74-.58,0-1.33,0-2.66,0-3.99,1.89.35,3.81.53,5.74.53,0,1.35,0,2.7,0,4.04Z"/><path class="cls-4" d="M28.74,91.03c-1.89.41-3.81.61-5.74.61,0-.84,0-1.68,0-2.53,1.93,0,3.86-.19,5.74-.58v2.49Z"/><path class="cls-2" d="M34.23,86.78c-1.76.77-3.6,1.36-5.48,1.74v-3.99c1.89-.35,3.73-.88,5.48-1.59v3.84Z"/><path class="cls-4" d="M39.19,86.12c-1.54,1.23-3.21,2.25-4.96,3.07v-2.4c1.76-.78,3.42-1.74,4.96-2.91v2.24Z"/><path class="cls-2" d="M43.37,79.8c-1.23,1.55-2.64,2.91-4.18,4.07v-3.58c1.54-1.06,2.95-2.3,4.18-3.71v3.22Z"/><path class="cls-4" d="M46.51,76.31c-.84,2.04-1.9,3.88-3.14,5.52v-2.01c1.23-1.55,2.29-3.29,3.14-5.23v1.72Z"/><path class="cls-2" d="M2.63,82.89c-1.23-1.68-2.29-3.57-3.14-5.67,0-.3,0-.6,0-.91.84,2.04,1.9,3.88,3.14,5.52,0,.35,0,.71,0,1.06Z"/><path class="cls-4" d="M6.81,87.91c-1.54-1.28-2.95-2.77-4.18-4.47,0-.18,0-.36,0-.54,1.23,1.68,2.64,3.15,4.18,4.41v.61Z"/><path class="cls-2" d="M11.77,90.45c-1.76-.84-3.42-1.89-4.96-3.15v-1.18c1.54,1.23,3.21,2.25,4.96,3.07v1.26Z"/><path class="cls-4" d="M17.26,93.02c-1.89-.43-3.73-1.07-5.48-1.92v-.65c1.76.84,3.6,1.47,5.48,1.89,0,.22,0,.45,0,.67Z"/><path class="cls-2" d="M23,92.97c-1.93,0-3.86-.21-5.74-.63,0-.44,0-.87,0-1.31,1.89.41,3.81.61,5.74.61,0,.44,0,.89,0,1.33Z"/><path class="cls-4" d="M28.74,93.02c-1.89.43-3.81.64-5.74.64,0-.23,0-.46,0-.68,1.93,0,3.86-.21,5.74-.63v.67Z"/><path class="cls-2" d="M34.23,90.45c-1.76.84-3.6,1.47-5.48,1.89v-1.31c1.89-.41,3.73-1.02,5.48-1.84v1.26Z"/><path class="cls-4" d="M39.19,87.91c-1.54,1.28-3.21,2.34-4.96,3.19v-.65c1.76-.84,3.42-1.89,4.96-3.15v.61Z"/><path class="cls-2" d="M43.37,82.89c-1.23,1.68-2.64,3.15-4.18,4.41v-1.18c1.54-1.23,2.95-2.66,4.18-4.29v1.06Z"/><path class="cls-4" d="M46.51,77.69c-.84,2.13-1.9,4.05-3.14,5.75v-.54c1.23-1.68,2.29-3.57,3.14-5.67v.47Z"/><path class="cls-2" d="M2.63,39.58c-1.23.16-2.29.34-3.14.53,0-10.4,0-20.79,0-31.19C.34,6.8,1.4,4.88,2.63,3.18c0,12.14,0,24.27,0,36.41Z"/><path class="cls-4" d="M6.81,62.26c-1.54-.54-2.95-1.18-4.18-1.9,0-6.93,0-13.85,0-20.78,1.23-.16,2.64-.3,4.18-.41v23.09Z"/><path class="cls-2" d="M11.77,38.87c-1.76.08-3.42.18-4.96.3V-1.29c1.54-1.28,3.21-2.34,4.96-3.19v43.36Z"/><path class="cls-4" d="M17.26,64.44c-1.89-.18-3.73-.45-5.48-.81v-24.75c1.76-.08,3.6-.14,5.48-.18,0,8.58,0,17.16,0,25.74Z"/><path class="cls-2" d="M23,38.64c-1.93,0-3.86.02-5.74.06,0-15.03,0-30.07,0-45.1,1.89-.43,3.81-.64,5.74-.64,0,15.23,0,30.45,0,45.68Z"/><path class="cls-4" d="M28.74,64.44c-1.89.18-3.81.27-5.74.27,0-8.69,0-17.38,0-26.07,1.93,0,3.86.02,5.74.06v25.74Z"/><path class="cls-2" d="M34.23,38.87c-1.76-.08-3.6-.14-5.48-.18V-6.41c1.89.43,3.73,1.06,5.48,1.92v43.36Z"/><path class="cls-4" d="M39.19,62.26c-1.54.54-3.21,1-4.96,1.36v-24.75c1.76.08,3.42.18,4.96.3v23.09Z"/><path class="cls-2" d="M43.37,39.58c-1.23-.16-2.64-.3-4.18-.41V-1.29c1.54,1.28,2.95,2.77,4.18,4.47v36.41Z"/><path class="cls-4" d="M46.51,57.92c-.84.91-1.9,1.72-3.14,2.44v-20.78c1.23.16,2.29.34,3.14.53v17.8Z"/><path class="cls-2" d="M2.63,71.01c-1.23-1.18-2.29-2.5-3.14-3.97,0-3.04,0-6.08,0-9.12.84.91,1.9,1.72,3.14,2.44,0,3.55,0,7.1,0,10.65Z"/><path class="cls-4" d="M6.81,80.29c-1.54-1.06-2.95-2.3-4.18-3.71,0-1.84,0-3.69,0-5.53,1.23,1.18,2.64,2.21,4.18,3.09v6.15Z"/><path class="cls-2" d="M11.77,76.3c-1.76-.59-3.42-1.32-4.96-2.21v-11.83c1.54.54,3.21,1,4.96,1.36v12.68Z"/><path class="cls-4" d="M17.26,84.53c-1.89-.35-3.73-.88-5.48-1.59v-6.59c1.76.59,3.6,1.03,5.48,1.33,0,2.29,0,4.57,0,6.86Z"/><path class="cls-2" d="M23,78.06c-1.93,0-3.86-.15-5.74-.44,0-4.4,0-8.79,0-13.19,1.89.18,3.81.27,5.74.27,0,4.45,0,8.9,0,13.36Z"/><path class="cls-4" d="M28.74,84.53c-1.89.35-3.81.53-5.74.53,0-2.31,0-4.63,0-6.94,1.93,0,3.86-.15,5.74-.44v6.86Z"/><path class="cls-2" d="M34.23,76.3c-1.76.59-3.6,1.03-5.48,1.32v-13.19c1.89-.18,3.73-.45,5.48-.81v12.68Z"/><path class="cls-4" d="M39.19,80.29c-1.54,1.06-3.21,1.94-4.96,2.65v-6.59c1.76-.59,3.42-1.32,4.96-2.21v6.15Z"/><path class="cls-2" d="M43.37,71.01c-1.23,1.18-2.64,2.21-4.18,3.09v-11.83c1.54-.54,2.95-1.18,4.18-1.9v10.65Z"/><path class="cls-4" d="M46.51,71.81c-.84,1.77-1.9,3.36-3.14,4.77v-5.53c1.23-1.18,2.29-2.5,3.14-3.98v4.74Z"/><path class="cls-2" d="M2.63,79.8c-1.23-1.55-2.29-3.29-3.14-5.23,0-.92,0-1.84,0-2.76.84,1.77,1.9,3.36,3.14,4.77,0,1.07,0,2.15,0,3.22Z"/><path class="cls-4" d="M6.81,86.12c-1.54-1.23-2.95-2.66-4.18-4.29,0-.67,0-1.34,0-2.01,1.23,1.55,2.64,2.91,4.18,4.07v2.24Z"/><path class="cls-2" d="M11.77,86.78c-1.76-.77-3.42-1.74-4.96-2.91v-3.58c1.54,1.06,3.21,1.94,4.96,2.65v3.84Z"/><path class="cls-4" d="M17.26,91.03c-1.89-.41-3.73-1.02-5.48-1.84v-2.4c1.76.78,3.6,1.36,5.48,1.74,0,.83,0,1.66,0,2.49Z"/><path class="cls-2" d="M23,89.1c-1.93,0-3.86-.19-5.74-.58,0-1.33,0-2.66,0-3.99,1.89.35,3.81.53,5.74.53,0,1.35,0,2.7,0,4.04Z"/><path class="cls-4" d="M28.74,91.03c-1.89.41-3.81.61-5.74.61,0-.84,0-1.68,0-2.53,1.93,0,3.86-.19,5.74-.58v2.49Z"/><path class="cls-2" d="M34.23,86.78c-1.76.77-3.6,1.36-5.48,1.74v-3.99c1.89-.35,3.73-.88,5.48-1.59v3.84Z"/><path class="cls-4" d="M39.19,86.12c-1.54,1.23-3.21,2.25-4.96,3.07v-2.4c1.76-.78,3.42-1.74,4.96-2.91v2.24Z"/><path class="cls-2" d="M43.37,79.8c-1.23,1.55-2.64,2.91-4.18,4.07v-3.58c1.54-1.06,2.95-2.3,4.18-3.71v3.22Z"/><path class="cls-4" d="M46.51,76.31c-.84,2.04-1.9,3.88-3.14,5.52v-2.01c1.23-1.55,2.29-3.29,3.14-5.23v1.72Z"/><path class="cls-2" d="M2.63,82.89c-1.23-1.68-2.29-3.57-3.14-5.67,0-.3,0-.6,0-.91.84,2.04,1.9,3.88,3.14,5.52,0,.35,0,.71,0,1.06Z"/><path class="cls-4" d="M6.81,87.91c-1.54-1.28-2.95-2.77-4.18-4.47,0-.18,0-.36,0-.54,1.23,1.68,2.64,3.15,4.18,4.41v.61Z"/><path class="cls-2" d="M11.77,90.45c-1.76-.84-3.42-1.89-4.96-3.15v-1.18c1.54,1.23,3.21,2.25,4.96,3.07v1.26Z"/><path class="cls-4" d="M17.26,93.02c-1.89-.43-3.73-1.07-5.48-1.92v-.65c1.76.84,3.6,1.47,5.48,1.89,0,.22,0,.45,0,.67Z"/><path class="cls-2" d="M23,92.97c-1.93,0-3.86-.21-5.74-.63,0-.44,0-.87,0-1.31,1.89.41,3.81.61,5.74.61,0,.44,0,.89,0,1.33Z"/><path class="cls-4" d="M28.74,93.02c-1.89.43-3.81.64-5.74.64,0-.23,0-.46,0-.68,1.93,0,3.86-.21,5.74-.63v.67Z"/><path class="cls-2" d="M34.23,90.45c-1.76.84-3.6,1.47-5.48,1.89v-1.31c1.89-.41,3.73-1.02,5.48-1.84v1.26Z"/><path class="cls-4" d="M39.19,87.91c-1.54,1.28-3.21,2.34-4.96,3.19v-.65c1.76-.84,3.42-1.89,4.96-3.15v.61Z"/><path class="cls-2" d="M43.37,82.89c-1.23,1.68-2.64,3.15-4.18,4.41v-1.18c1.54-1.23,2.95-2.66,4.18-4.29v1.06Z"/><path class="cls-4" d="M46.51,77.69c-.84,2.13-1.9,4.05-3.14,5.75v-.54c1.23-1.68,2.29-3.57,3.14-5.67v.47Z"/></g></svg>