<svg width="52" height="50" viewBox="0 0 52 50" fill="none" xmlns="http://www.w3.org/2000/svg">
<g clip-path="url(#clip0_2719_803)">
<path d="M25.65 0.000182956C31.88 0.000182956 38.12 0.000182956 44.35 0.000182956C44.66 0.000182956 44.97 0.030183 45.27 0.070183C45.52 0.100183 45.77 0.180183 46.02 0.230183C46.45 0.320183 46.83 0.520183 47.22 0.710183C47.84 1.02018 48.42 1.38018 48.93 1.85018C49.4 2.29018 49.82 2.76018 50.18 3.29018C50.32 3.50018 50.48 3.69018 50.59 3.91018C50.72 4.17018 50.8 4.44018 50.89 4.71018C50.98 4.96018 51.07 5.22018 51.12 5.48018C51.19 5.84018 51.23 6.21018 51.25 6.58018C51.27 7.14018 51.25 7.70018 51.25 8.25018C51.25 19.7002 51.25 31.1602 51.25 42.6102C51.25 43.1102 51.21 43.6202 51.18 44.1202C51.18 44.2202 51.15 44.3302 51.12 44.4202C50.96 44.8702 50.88 45.3502 50.65 45.7902C50.42 46.2402 50.19 46.6802 49.85 47.0702C49.66 47.2902 49.49 47.5202 49.3 47.7402C48.94 48.1302 48.52 48.4402 48.08 48.7302C47.66 49.0102 47.2 49.2002 46.76 49.4402C46.23 49.7402 45.64 49.7602 45.08 49.9102C44.78 49.9902 44.45 49.9902 44.13 49.9902C31.88 49.9902 19.63 49.9902 7.37997 49.9902C6.58997 49.9902 5.78997 49.9402 5.03997 49.6602C4.93997 49.6202 4.83997 49.5902 4.74997 49.5502C4.31997 49.3502 3.87997 49.1602 3.47997 48.9302C3.15997 48.7502 2.86997 48.5002 2.58997 48.2702C2.30997 48.0302 2.03997 47.7802 1.77997 47.5202C1.62997 47.3802 1.49997 47.2102 1.38997 47.0402C1.08997 46.5602 0.779967 46.0902 0.559967 45.5602C0.429967 45.2402 0.359967 44.9202 0.259967 44.6002C0.109967 44.1502 0.109967 43.7002 0.0799672 43.2402C-0.0500328 40.6702 0.0299672 38.1002 0.0299672 35.5202C0.0199672 26.1502 0.0299672 16.7902 0.0299672 7.42018C0.0299672 6.78018 0.0299672 6.12018 0.199967 5.49018C0.349967 4.98018 0.509967 4.47018 0.719967 3.97018C0.819967 3.72018 1.00997 3.50018 1.17997 3.28018C1.44997 2.92018 1.72997 2.57018 2.00997 2.22018C2.24997 1.93018 2.53997 1.70018 2.84997 1.50018C2.94997 1.43018 3.03997 1.34018 3.13997 1.27018C3.62997 0.930183 4.16997 0.670183 4.71997 0.430183C5.23997 0.200183 5.79997 0.100183 6.35997 0.010183C6.54997 -0.019817 6.74997 0.000182956 6.94997 0.000182956C13.18 0.000182956 19.42 0.000182956 25.65 0.000182956ZM15.86 23.8102C15.8 23.9802 15.88 24.1202 15.94 24.2602C16.01 24.4302 16.08 24.6002 16.15 24.7702C16.21 24.9402 16.27 25.1202 16.33 25.3002C16.55 25.9102 16.79 26.5102 17.01 27.1202C17.19 27.6202 17.36 28.1302 17.53 28.6302C17.62 28.9102 17.65 29.2102 17.81 29.4702C17.83 29.4902 17.81 29.5302 17.82 29.5602C17.85 29.6502 17.88 29.7302 17.91 29.8202C17.96 29.9702 18.02 30.1302 18.07 30.2802C18.17 30.6002 18.26 30.9302 18.38 31.2502C18.49 31.5602 18.62 31.8602 18.73 32.1702C18.79 32.3202 18.82 32.4902 18.89 32.6402C19.03 32.9702 19.15 33.3002 19.26 33.6502C19.36 33.9602 19.52 34.2502 19.56 34.5802C19.56 34.6002 19.56 34.6202 19.58 34.6402C19.82 34.9602 19.83 35.3702 19.99 35.7302C20.21 36.2302 20.31 36.7902 20.52 37.3002C20.74 37.8302 20.89 38.3902 21.08 38.9302C21.11 39.0302 21.15 39.1202 21.21 39.2102C21.43 39.5502 21.6 39.9002 21.83 40.2302C22.06 40.5602 22.3 40.8702 22.59 41.1502C22.96 41.5102 23.4 41.8002 23.84 42.0302C24.37 42.3102 24.91 42.5902 25.51 42.7102C25.64 42.7302 25.76 42.8002 25.89 42.8402C26.03 42.8902 26.18 42.9502 26.32 42.9802C26.57 43.0302 26.83 43.0702 27.08 43.1002C27.34 43.1302 27.61 43.1602 27.88 43.1702C28.03 43.1702 28.19 43.1402 28.34 43.1102C28.69 43.0502 29.05 43.0002 29.4 42.9202C29.66 42.8602 29.91 42.7602 30.16 42.6702C30.41 42.5802 30.66 42.4902 30.92 42.4002C31.27 42.2802 31.62 42.1602 31.97 42.0402C32.03 42.0202 32.08 41.9902 32.14 41.9702C32.52 41.8302 32.89 41.7002 33.27 41.5602C33.58 41.4402 33.89 41.3302 34.19 41.1902C34.51 41.0502 34.82 40.9002 35.12 40.7202C35.67 40.4102 36.22 40.0802 36.77 39.7602C37.11 39.5602 37.45 39.3302 37.79 39.1302C38.05 38.9802 38.26 38.7402 38.57 38.6502C38.57 38.6502 38.59 38.6402 38.59 38.6302C38.96 38.3702 39.33 38.1102 39.7 37.8502C40.01 37.6402 40.32 37.4602 40.63 37.2602C40.98 37.0302 41.32 36.7902 41.68 36.5702C41.95 36.4002 42 36.2602 41.87 35.9802C41.67 35.5602 41.45 35.1402 41.24 34.7202C41.19 34.6302 41.15 34.5402 41.1 34.4502C40.92 34.0802 40.62 33.7702 40.55 33.3502C40.55 33.3202 40.52 33.3002 40.51 33.2702C40.3 32.8602 40.09 32.4502 39.89 32.0302C39.79 31.8202 39.63 31.7502 39.42 31.8502C39.01 32.0602 38.6 32.2702 38.19 32.4902C37.86 32.6702 37.52 32.8402 37.19 33.0202C36.82 33.2202 36.45 33.4302 36.09 33.6302C35.99 33.6902 35.9 33.7502 35.8 33.8002C35.49 33.9602 35.17 34.1002 34.88 34.2802C34.57 34.4802 34.23 34.5702 33.89 34.6602C33.51 34.7502 33.13 34.8302 32.74 34.8802C32.58 34.9002 32.41 34.8802 32.25 34.8502C32.03 34.8202 31.81 34.7602 31.59 34.7102C31.52 34.7002 31.44 34.6902 31.38 34.6602C31.14 34.5302 30.88 34.4202 30.69 34.2102C30.43 33.9302 30.21 33.6302 30.01 33.3002C29.75 32.8802 29.58 32.4402 29.44 31.9802C29.38 31.7902 29.38 31.5602 29.28 31.3902C29.08 31.0802 29.03 30.7202 28.89 30.3902C28.7 29.9302 28.56 29.4402 28.4 28.9702C28.38 28.9202 28.35 28.8802 28.33 28.8302C28.27 28.6902 28.21 28.5502 28.16 28.4102C28.04 28.0702 27.92 27.7302 27.79 27.3902C27.68 27.1002 27.52 26.8302 27.47 26.5302C27.4 26.1502 27.13 25.8402 27.12 25.4502C27.12 25.4102 27.06 25.3702 27.04 25.3202C27.01 25.2702 26.98 25.2102 26.96 25.1602C26.83 24.7602 26.71 24.3602 26.57 23.9602C26.38 23.4202 26.19 22.8902 25.99 22.3602C25.96 22.2802 25.92 22.2102 25.89 22.1302C25.75 21.7902 25.6 21.4502 25.49 21.1002C25.38 20.7402 25.56 20.4902 25.93 20.4402C26.04 20.4202 26.15 20.4102 26.26 20.3702C26.92 20.1502 27.58 19.9102 28.25 19.6902C28.82 19.5002 29.39 19.3302 29.96 19.1602C30.07 19.1302 30.18 19.0902 30.28 19.0502C30.59 18.9402 30.89 18.8202 31.2 18.7102C31.47 18.6102 31.75 18.5302 32.02 18.4402C32.2 18.3802 32.39 18.3302 32.57 18.2602C32.81 18.1602 33.06 18.1102 33.3 18.0302C33.56 17.9402 33.81 17.8202 34.09 17.7602C34.38 17.7002 34.46 17.5002 34.37 17.2202C34.26 16.8802 34.13 16.5402 34.06 16.1902C33.99 15.8402 33.75 15.5302 33.77 15.1602C33.77 15.1302 33.75 15.1002 33.74 15.0702C33.61 14.6802 33.45 14.3002 33.37 13.9002C33.28 13.4602 33.15 13.0402 32.99 12.6302C32.89 12.3802 32.88 12.3602 32.61 12.3802C32.53 12.3802 32.44 12.4002 32.37 12.4402C32.17 12.5402 31.96 12.6002 31.73 12.6502C31.45 12.7102 31.18 12.8502 30.9 12.9402C30.54 13.0602 30.18 13.1902 29.83 13.3102C29.4 13.4602 28.98 13.6002 28.55 13.7502C28.32 13.8302 28.08 13.9102 27.85 13.9802C27.42 14.1202 26.97 14.2202 26.56 14.4002C26.34 14.5002 26.12 14.5502 25.89 14.6002C25.82 14.6202 25.75 14.6302 25.68 14.6602C25.39 14.7802 25.11 14.9602 24.81 15.0102C24.4 15.0802 24.18 15.2602 24.12 15.6602C24.12 15.7002 24.08 15.7302 24.07 15.7702C23.95 16.3202 23.63 16.7402 23.21 17.0802C22.86 17.3702 22.51 17.6602 22.1 17.8502C22.04 17.8802 21.98 17.9202 21.92 17.9702C21.73 18.1102 21.71 18.2702 21.86 18.4402C21.89 18.4802 21.93 18.5102 21.97 18.5502C22.24 18.8402 22.48 19.1402 22.77 19.4102C23.13 19.7302 23.52 20.0202 23.9 20.3202C24.22 20.5702 24.39 21.2602 24.19 21.6202C23.85 22.2202 23.37 22.6202 22.66 22.6602C22.6 22.6602 22.54 22.6902 22.48 22.7002C22.34 22.7302 22.2 22.7802 22.06 22.7702C21.46 22.7702 20.87 22.8002 20.27 22.6702C19.91 22.5902 19.55 22.5202 19.2 22.3902C18.78 22.2302 18.37 22.0402 17.95 21.8702C17.76 21.7902 17.57 21.8702 17.55 22.0702C17.52 22.3702 17.4 22.6502 17.29 22.9202C17.16 23.2402 16.93 23.5002 16.57 23.5802C16.35 23.6302 16.14 23.6902 15.9 23.7502L15.86 23.8102ZM13.05 17.4602C12.93 17.2702 12.8 17.1202 12.62 17.0802C12.27 17.0102 11.97 16.8202 11.67 16.6502C11.41 16.5102 11.17 16.3202 10.92 16.1602C10.54 15.9202 10.16 15.6702 9.88997 15.3002C9.84997 15.2402 9.78997 15.2002 9.72997 15.1502C9.56997 15.0002 9.40997 14.8602 9.24997 14.7102C9.14997 14.6102 9.04997 14.5002 8.93997 14.4202C8.69997 14.2402 8.46997 14.0602 8.20997 13.9002C7.96997 13.7502 7.72997 13.6402 7.45997 13.5602C7.02997 13.4402 6.67997 13.5702 6.32997 13.8102C6.02997 14.0102 5.80997 14.2802 5.60997 14.5702C5.51997 14.6902 5.41997 14.8102 5.34997 14.9502C5.19997 15.2502 5.04997 15.5502 4.90997 15.8602C4.62997 16.4802 4.04997 16.7802 3.58997 17.2202C3.58997 17.2202 3.56997 17.2302 3.55997 17.2302C3.36997 17.2602 3.34997 17.4002 3.35997 17.5602C3.37997 17.8002 3.39997 18.0302 3.41997 18.2702C3.45997 18.7902 3.54997 19.2902 3.74997 19.7702C3.88997 20.1002 3.99997 20.4502 4.17997 20.7602C4.33997 21.0402 4.50997 21.3302 4.79997 21.5102C5.11997 21.7002 5.44997 21.8602 5.79997 21.9902C6.22997 22.1502 6.65997 22.2702 7.09997 22.3702C7.42997 22.4402 7.75997 22.4202 8.06997 22.3002C8.20997 22.2402 8.34997 22.1702 8.48997 22.1002C8.76997 21.9602 9.00997 21.7802 9.21997 21.5502C9.46997 21.2602 9.75997 21.0002 10.11 20.8502C10.31 20.7602 10.47 20.6502 10.59 20.4802C10.94 19.9802 11.36 19.5402 11.78 19.1002C12.13 18.7402 12.43 18.3302 12.75 17.9402C12.77 17.9202 12.79 17.8802 12.79 17.8602C12.77 17.6702 12.9 17.5602 13.06 17.4502L13.05 17.4602ZM14.67 16.6702C14.92 16.9202 15.18 17.0702 15.5 17.1302C15.63 17.1502 15.76 17.2002 15.89 17.2202C16.19 17.2602 16.49 17.3302 16.78 17.3002C17.18 17.2602 17.55 17.3202 17.93 17.4202C18.2 17.4902 18.47 17.5402 18.75 17.5502C19.01 17.5602 19.28 17.5202 19.54 17.5002C20 17.4802 20.47 17.4502 20.93 17.4402C21.24 17.4402 21.52 17.3302 21.78 17.1902C22.19 16.9702 22.56 16.7002 22.86 16.3302C22.99 16.1702 23.13 16.0102 23.2 15.8202C23.31 15.5702 23.38 15.3002 23.35 15.0102C23.35 14.9502 23.35 14.8802 23.38 14.8302C23.48 14.6602 23.46 14.4702 23.47 14.2902C23.48 14.0502 23.4 13.8302 23.36 13.6002C23.27 13.1602 23.23 12.7002 23.02 12.2902C22.99 12.2302 22.99 12.1502 22.98 12.0802C22.92 11.6902 22.7 11.3802 22.44 11.0902C22.34 10.9802 22.21 10.8802 22.06 10.9302C21.7 11.0702 21.38 10.9102 21.07 10.8102C20.65 10.6802 20.23 10.6202 19.8 10.6002C19.52 10.5902 19.24 10.6202 18.98 10.5002C18.91 10.4702 18.82 10.4802 18.74 10.4802C18.29 10.4802 17.83 10.4802 17.38 10.4802C17.31 10.4802 17.23 10.4702 17.17 10.4902C16.92 10.5902 16.67 10.7202 16.41 10.8202C16.03 10.9702 15.89 11.2402 15.91 11.6502C15.94 12.2302 15.89 12.8002 15.79 13.3702C15.76 13.5302 15.71 13.6902 15.66 13.8402C15.55 14.2502 15.41 14.6402 15.29 15.0402C15.13 15.5902 14.89 16.1102 14.69 16.6602L14.67 16.6702ZM15.05 13.1902H15.02C15.02 12.9902 15.05 12.7902 15.02 12.6002C14.92 12.0902 14.8 11.5802 14.68 11.0702C14.6 10.7502 14.48 10.4402 14.44 10.1202C14.41 9.88018 14.34 9.68018 14.22 9.49018C14.15 9.38018 14.04 9.29018 13.96 9.19018C13.62 8.77018 13.29 8.33018 12.94 7.92018C12.76 7.71018 12.56 7.48018 12.24 7.46018C11.88 7.44018 11.52 7.43018 11.16 7.40018C10.77 7.37018 10.49 7.52018 10.3 7.87018C10.17 8.10018 10.02 8.33018 9.83997 8.53018C9.62997 8.77018 9.51997 9.03018 9.51997 9.34018C9.51997 9.62018 9.51997 9.90018 9.51997 10.1802C9.51997 10.4602 9.55997 10.7202 9.67997 10.9902C9.77997 11.2202 9.83997 11.4802 9.68997 11.7402C9.65997 11.7802 9.64997 11.8402 9.64997 11.8902C9.57997 12.7002 9.76997 13.4502 10.28 14.0902C10.56 14.4502 10.77 14.8502 11.13 15.1402C11.31 15.2902 11.48 15.4502 11.63 15.6402C11.86 15.9402 12.18 16.1302 12.47 16.3602C12.65 16.5102 12.86 16.6202 13.07 16.7302C13.3 16.8502 13.43 16.8102 13.63 16.6402C13.78 16.5002 13.94 16.3702 14.09 16.2302C14.36 15.9802 14.55 15.6802 14.56 15.2902C14.56 15.1502 14.61 15.0102 14.66 14.8702C14.76 14.5702 14.91 14.2902 14.99 13.9802C15.05 13.7402 15.05 13.4702 15.08 13.2202L15.05 13.1902ZM21.32 21.9602C21.67 21.9602 22.02 21.9602 22.37 21.9602C22.74 21.9602 23.06 21.8302 23.29 21.5302C23.45 21.3302 23.44 21.1602 23.26 20.9802C23.05 20.7802 22.84 20.5902 22.62 20.4002C22.42 20.2302 22.22 20.0502 22.04 19.8502C21.76 19.5302 21.5 19.1702 21.12 18.9502C20.94 18.8402 20.77 18.6902 20.63 18.5302C20.42 18.3002 20.15 18.2302 19.86 18.1702C19.59 18.1202 19.31 18.0702 19.05 17.9702C18.64 17.8102 18.24 17.8202 17.84 17.9402C17.5 18.0402 17.17 18.1902 16.84 18.3502C16.57 18.4802 16.37 18.6902 16.44 19.0302C16.46 19.1602 16.48 19.2902 16.49 19.4302C16.5 19.5802 16.58 19.6902 16.71 19.7402C16.92 19.8202 17.01 19.9802 17.09 20.1702C17.14 20.2802 17.19 20.4002 17.23 20.5202C17.29 20.7302 17.43 20.8802 17.6 20.9502C18.01 21.1202 18.36 21.4502 18.83 21.4802C18.85 21.4802 18.87 21.4802 18.89 21.5002C19.17 21.6102 19.46 21.7302 19.74 21.8402C19.97 21.9302 20.21 21.9802 20.46 21.9702C20.74 21.9602 21.02 21.9702 21.3 21.9702L21.32 21.9602ZM9.54997 24.8802V24.9002C9.91997 24.8502 10.28 24.8002 10.65 24.7402C10.81 24.7102 10.97 24.6802 11.13 24.6302C11.26 24.5802 11.38 24.5002 11.52 24.4402C12.06 24.2202 12.55 23.9202 13.03 23.6102C13.17 23.5202 13.28 23.3702 13.38 23.2202C13.52 23.0202 13.65 22.8102 13.75 22.5902C13.88 22.3102 13.99 22.0202 14.08 21.7302C14.12 21.5902 14.1 21.4202 14.08 21.2702C14.05 21.1302 14.06 21.0102 14.08 20.8802C14.12 20.6602 14.14 20.4302 13.99 20.2302C13.92 20.1302 13.86 20.0202 13.81 19.9102C13.68 19.6802 13.51 19.5502 13.22 19.5602C12.81 19.5802 12.44 19.7502 12.08 19.9102C11.52 20.1702 11.04 20.5502 10.67 21.0802C10.47 21.3802 10.24 21.6502 10.09 21.9802C9.97997 22.2102 9.86997 22.4402 9.81997 22.6902C9.78997 22.8302 9.72997 22.9702 9.66997 23.0902C9.56997 23.2802 9.47997 23.4702 9.32997 23.6302C9.18997 23.7702 9.11997 23.9802 9.01997 24.1602C8.82997 24.5202 9.01997 24.8602 9.40997 24.9002C9.45997 24.9002 9.50997 24.9002 9.55997 24.9002L9.54997 24.8802ZM41.83 30.9302C41.9 31.1402 42.05 31.1402 42.2 31.1502C42.83 31.1802 43.46 31.0802 44.08 31.2102C44.13 31.2102 44.18 31.2102 44.23 31.2102C44.41 31.1902 44.6 31.1602 44.78 31.1602C45.65 31.1602 46.51 31.1602 47.38 31.1602C47.44 31.1602 47.5 31.1602 47.57 31.1602C47.8 31.1402 47.9 30.9902 47.86 30.7602C47.79 30.3802 47.75 29.9902 47.55 29.6402C47.53 29.6102 47.52 29.5602 47.53 29.5202C47.55 29.3002 47.47 29.0902 47.4 28.8902C47.35 28.7402 47.29 28.5902 47.28 28.4402C47.27 28.2302 47.22 28.0402 47.14 27.8402C47.09 27.7202 47.06 27.5802 47.03 27.4602C46.95 27.1402 46.87 26.8202 46.79 26.5102C46.76 26.4102 46.72 26.3202 46.61 26.2902C46.53 26.3802 46.48 26.4702 46.4 26.5402C46.1 26.8302 45.79 27.1202 45.48 27.4002C45.03 27.8302 44.57 28.2602 44.12 28.7002C43.71 29.0902 43.3 29.4802 42.89 29.8702C42.53 30.2202 42.18 30.5802 41.82 30.9402L41.83 30.9302ZM39.96 29.2702C40.04 29.1802 40.09 29.1302 40.12 29.0802C40.33 28.7002 40.52 28.3102 40.73 27.9402C41.01 27.4602 41.3 26.9902 41.59 26.5202C41.76 26.2302 41.93 25.9302 42.1 25.6402C42.16 25.5302 42.22 25.4202 42.29 25.3302C42.45 25.1002 42.58 24.8602 42.66 24.5902C42.68 24.5302 42.74 24.4902 42.77 24.4402C42.82 24.3602 42.86 24.2802 42.89 24.1902C42.95 24.0302 42.9 23.9102 42.76 23.8302C42.7 23.7902 42.63 23.7702 42.56 23.7502C42.22 23.6402 41.87 23.5302 41.53 23.4302C41.25 23.3402 40.96 23.2502 40.68 23.1702C40.44 23.1002 40.2 23.0402 39.97 22.9702C39.58 22.8502 39.19 22.7102 38.8 22.5902C38.74 22.5702 38.68 22.5502 38.62 22.5402C38.36 22.5102 38.26 22.6102 38.31 22.8502C38.37 23.1502 38.43 23.4502 38.51 23.7502C38.66 24.3602 38.83 24.9602 38.98 25.5602C39.12 26.1202 39.25 26.6802 39.38 27.2402C39.49 27.7002 39.58 28.1602 39.7 28.6202C39.76 28.8302 39.86 29.0302 39.97 29.2802L39.96 29.2702ZM21.78 10.0002C21.74 9.87018 21.7 9.72018 21.64 9.58018C21.53 9.28018 21.42 8.98018 21.32 8.69018C21.17 8.26018 21.02 7.83018 20.87 7.41018C20.84 7.32018 20.79 7.24018 20.74 7.17018C20.64 7.02018 20.58 6.99018 20.44 7.09018C20.21 7.24018 19.98 7.40018 19.79 7.59018C19.62 7.77018 19.42 7.91018 19.22 8.05018C19.12 8.12018 19.01 8.18018 18.91 8.25018C18.61 8.46018 18.34 8.70018 18.04 8.89018C17.74 9.09018 17.55 9.37018 17.21 9.58018C17.34 9.66018 17.41 9.73018 17.49 9.74018C17.68 9.78018 17.88 9.80018 18.07 9.81018C18.77 9.84018 19.47 9.85018 20.17 9.88018C20.34 9.88018 20.52 9.92018 20.69 9.96018C20.95 10.0202 21.21 10.0802 21.46 10.1602C21.61 10.2102 21.7 10.1602 21.78 10.0102V10.0002ZM15.67 23.1002C15.79 23.0502 15.9 23.0002 16 22.9702C16.41 22.8702 16.56 22.5602 16.63 22.1902C16.65 22.1002 16.63 22.0002 16.66 21.9202C16.78 21.6102 16.72 21.3202 16.66 21.0102C16.64 20.9302 16.64 20.8402 16.6 20.7702C16.3 20.3102 15.97 19.8802 15.49 19.5902C15.38 19.5302 15.23 19.5002 15.11 19.5102C14.9 19.5302 14.62 19.9402 14.67 20.1602C14.72 20.3602 14.72 20.5402 14.67 20.7402C14.65 20.8002 14.67 20.8602 14.67 20.9202C14.7 21.2502 14.75 21.5702 14.77 21.9002C14.79 22.1302 14.83 22.3502 15 22.5202C15.14 22.6702 15.29 22.8202 15.44 22.9602C15.5 23.0202 15.59 23.0502 15.67 23.1002ZM13.04 18.4802C13.04 18.8502 13.18 18.9802 13.49 18.9902C13.69 18.9902 13.89 18.9702 14.07 19.0202C14.37 19.1002 14.65 19.0202 14.87 18.8902C15.09 18.7502 15.3 18.6702 15.56 18.6802C15.71 18.6802 15.85 18.5402 15.82 18.4002C15.76 18.0902 15.63 17.7902 15.38 17.6102C15.19 17.4702 15.01 17.3102 14.78 17.2002C14.42 17.0302 14.19 17.0302 13.89 17.3102C13.68 17.5102 13.46 17.6902 13.24 17.8802C13.2 17.9202 13.15 17.9702 13.13 18.0302C13.09 18.2002 13.06 18.3702 13.04 18.4902V18.4802ZM15.43 23.8002C15.37 23.7702 15.31 23.7502 15.25 23.7302C15.03 23.6602 14.84 23.5602 14.67 23.3902C14.47 23.1902 14.31 23.2102 14.15 23.4602C13.95 23.7702 13.7 24.0202 13.41 24.2402C13.29 24.3302 13.17 24.4302 13.1 24.6202C13.32 24.6202 13.52 24.6802 13.7 24.5702C13.84 24.4802 14 24.4402 14.16 24.4102C14.24 24.3902 14.34 24.3902 14.4 24.3502C14.59 24.2002 14.82 24.1902 15.04 24.1502C15.25 24.1102 15.36 23.9902 15.44 23.8002H15.43Z" fill="white"/>
</g>
<defs>
<clipPath id="clip0_2719_803">
<rect width="51.26" height="50" fill="white"/>
</clipPath>
</defs>
</svg>
