<svg width="101" height="23" viewBox="0 0 101 23" fill="none" xmlns="http://www.w3.org/2000/svg">
<g clip-path="url(#clip0_2719_805)">
<path d="M48.73 17.3198V17.2098L48.78 17.0898V16.9598V16.8298L48.82 16.7098L48.84 16.5898L48.82 16.4598L48.87 16.3398V16.2098L48.88 16.0898L48.91 15.9698V15.8498V15.7198L48.93 15.5798H48.79L48.66 15.5998L48.53 15.5698L48.4 15.6098L48.27 15.5898H48.14L48.01 15.6098H47.88L47.75 15.5698L47.62 15.5998H47.49H47.36L47.23 15.5698L47.1 15.5898L46.97 15.6098H46.84L46.71 15.5898L46.58 15.6098H46.45L46.32 15.5898H46.19L46.06 15.5998L45.93 15.6198L45.8 15.5798L45.67 15.6198H45.54L45.41 15.6098L45.28 15.6298H45.15H45.02L44.89 15.6098L44.76 15.6298L44.63 15.5998H44.5L44.37 15.6298L44.24 15.6098H44.1V15.7498L44 15.6598L44.02 15.5998L43.89 15.6298L43.76 15.6098H43.63L43.5 15.6398H43.37L43.24 15.6098H43.11H42.98L42.85 15.6398H42.72H42.59H42.46L42.33 15.6598H42.2L42.07 15.6498H41.94H41.81H41.68L41.55 15.6698L41.42 15.6398L41.29 15.6798L41.16 15.6398H41.03L40.9 15.6798L40.77 15.6498H40.64H40.51L40.38 15.6698H40.25H40.12H39.99H39.86L39.73 15.6398H39.6H39.47H39.34L39.21 15.6698H39.08L38.95 15.6498L38.82 15.6298L38.69 15.6498H38.56L38.43 15.6798L38.3 15.6398H38.04L37.91 15.6598L37.78 15.6398H37.65H37.52L37.39 15.6798H37.26L37.13 15.6698H37H36.87L36.74 15.6998H36.61L36.48 15.6698H36.35L36.22 15.6598L36.09 15.6998H35.96L35.83 15.6898H35.7H35.57H35.44L35.31 15.6698L35.18 15.6898H35.05L34.92 15.6498L34.79 15.6698L34.66 15.6898L34.53 15.6498H34.4H34.26L34.32 15.7798V15.9098L34.37 16.0298L34.35 16.1598L34.41 16.2798V16.4098L34.44 16.5298L34.48 16.6498L34.51 16.7698L34.54 16.8898L34.52 17.0198L34.55 17.1398L34.6 17.2598V17.3898L34.62 17.5198L34.65 17.6498L34.79 17.6198L34.92 17.6498L35.05 17.6198L35.18 17.5998H35.31H35.44H35.7L35.83 17.5898L35.96 17.6098L36.09 17.5898L36.22 17.6198L36.35 17.5798L36.47 17.5998L36.41 17.7098L36.32 17.7998L36.24 17.8998L36.16 17.9998L36.1 18.1198L36.03 18.2298L35.94 18.3198L35.87 18.4298L35.78 18.5198L35.69 18.6098L35.62 18.7198L35.55 18.8198L35.47 18.9198L35.41 19.0298L35.31 19.1198L35.25 19.2298L35.19 19.3398L35.1 19.4298L35.03 19.5298L34.93 19.6198L34.87 19.7398L34.78 19.8298L34.69 19.9198L34.64 20.0398L34.53 20.1198L34.46 20.2398L34.58 20.3098L34.7 20.3498L34.82 20.3898L34.93 20.4598H35.06L35.16 20.5498L35.28 20.5998L35.4 20.6498L35.53 20.6798L35.63 20.7598L35.75 20.7898L35.87 20.8398L35.99 20.8798L36.09 20.9698L36.22 20.9998L36.33 21.0598L36.45 21.0998L36.56 21.1598L36.67 21.2198L36.79 21.2698L36.9 21.3298L37.03 21.3498L37.14 21.4198L37.26 21.4698L37.37 21.5398L37.49 21.5698L37.61 21.6198L37.73 21.6698L37.85 21.7098L37.96 21.7798L38 21.6498L38.07 21.5398L38.12 21.4198L38.19 21.3098L38.24 21.1898L38.28 21.0698L38.34 20.9498L38.41 20.8298H38.55H38.68H38.81L38.94 20.8098L39.07 20.7898L39.2 20.8198H39.33L39.46 20.7598H39.59L39.72 20.7398H39.85L39.98 20.7498H40.24L40.37 20.7298L40.5 20.7098L40.63 20.6698L40.76 20.6898L40.89 20.6698H41.02L41.15 20.6198L41.28 20.6498L41.41 20.5998H41.54H41.67L41.8 20.5698H41.93L42.06 20.5898H42.19L42.32 20.5298L42.45 20.5598L42.38 20.4598L42.3 20.4098L42.37 20.3498L42.46 20.2998L42.58 20.3298L42.7 20.3798L42.81 20.4398L42.92 20.5298L43.05 20.4898H43.17H43.3L43.32 20.4398L43.34 20.4598L43.47 20.4898L43.6 20.4398H43.73L43.86 20.4198L43.99 20.4398H44.25L44.38 20.4198H44.51L44.64 20.3598H44.77H44.9L45.03 20.3398V20.4698L45.1 20.5798V20.7098L45.16 20.8198L45.19 20.9398V21.0698L45.23 21.1898L45.28 21.3098L45.3 21.4298L45.32 21.5498L45.36 21.6698L45.39 21.7898L45.43 21.9098L45.55 21.8798L45.66 21.8098L45.79 21.7798L45.91 21.7298L46.02 21.6698L46.13 21.6098L46.24 21.5498L46.36 21.4998L46.47 21.4398L46.6 21.4198L46.72 21.3698L46.83 21.3098L46.94 21.2498L47.05 21.1898L47.18 21.1598L47.28 21.0698L47.41 21.0498L47.53 21.0098L47.65 20.9598L47.76 20.8998L47.87 20.8298L47.98 20.7598L48.1 20.7298L48.22 20.6998L48.33 20.6198L48.45 20.5698L48.57 20.5298L48.7 20.5098L48.81 20.4498L48.93 20.4098L49.03 20.3398L48.98 20.2298L48.92 20.1198L48.81 20.0398L48.75 19.9298L48.68 19.8198L48.62 19.7098L48.57 19.5898L48.48 19.4998L48.44 19.3698L48.35 19.2798L48.27 19.1798L48.23 19.0498L48.16 18.9498L48.09 18.8498L48.01 18.7498L47.93 18.6498L47.88 18.5298L47.81 18.4298L47.76 18.3098L47.69 18.2098L47.6 18.1198L47.55 17.9998L47.49 17.8898L47.39 17.8098L47.35 17.6898L47.27 17.5898L47.22 17.4698L47.11 17.3698L47.26 17.3998L47.39 17.3598L47.52 17.3798L47.65 17.3498H47.78H47.91L48.04 17.3698L48.17 17.3398L48.3 17.3698H48.43L48.55 17.3298H48.56L48.73 17.3198ZM43 15.7698H43.07V15.8298L42.99 15.8398V15.7698H43ZM42.73 15.9798L42.81 16.0998L42.72 16.1798L42.66 16.0898L42.73 15.9798ZM38.79 20.7198L38.82 20.6798V20.7098L38.75 20.6298L38.84 20.6898V20.7298L38.79 20.7198ZM38.73 20.2898L38.65 20.1298L38.77 20.0198L38.86 20.1698L38.73 20.2798V20.2898ZM40.69 19.8398L40.55 19.6898L40.67 19.5798L40.81 19.6698L40.69 19.8398ZM41.38 18.9498L41.35 18.8798L41.39 18.8998V18.9498H41.38ZM41.68 19.1398L41.61 19.1598V19.0998L41.67 19.0698V19.1398H41.68ZM42.98 19.9498L42.91 19.8898L42.97 19.8198L43.05 19.8798L42.98 19.9398V19.9498ZM44.03 20.3498L43.91 20.3098L43.99 20.2298L44.1 20.2498L44.03 20.3498ZM44.63 17.8598L44.67 17.9598V18.0798L44.72 18.1898L44.76 18.3198L44.61 18.2998H44.48L44.35 18.3198L44.22 18.2798L44.09 18.2998H43.96L43.83 18.2798H43.7L43.57 18.2998H43.44H43.31L43.18 18.3198L43.05 18.2898L42.92 18.3298L42.79 18.3098H42.66L42.53 18.3298H42.4L42.27 18.2898L42.14 18.3198H42.01H41.88L41.75 18.2898L41.62 18.3098L41.49 18.3298H41.36L41.23 18.3098L41.1 18.3298H40.97L40.84 18.3098H40.71L40.58 18.3198L40.45 18.3398L40.32 18.2998L40.19 18.3398H40.06L39.93 18.3298L39.97 18.1998L40.03 18.0798L40.1 17.9698L40.18 17.8598L40.22 17.7298L40.3 17.6198L40.36 17.5098L40.48 17.4798L40.61 17.4998H40.74H40.87L41 17.4698L41.13 17.4998L41.26 17.4698L41.39 17.4898H41.52L41.65 17.4598H41.78L41.91 17.4898H42.04H42.17L42.3 17.4598H42.43H42.56H42.69L42.82 17.4398H42.95H43.08H43.21H43.34H43.47L43.6 17.4198L43.73 17.4498L43.86 17.4098L43.99 17.4498H44.12L44.25 17.3998L44.38 17.4298H44.51L44.64 17.4198L44.77 17.3998H44.9H45.03H45.29L45.42 17.4298L45.55 17.4098H45.68H45.81L45.94 17.3798H46.07L46.2 17.3998H46.33H46.46H46.59L46.47 17.4498H46.34L46.21 17.4798L46.08 17.5098L45.96 17.5598L45.83 17.5798L45.71 17.6198H45.58L45.46 17.6998L45.33 17.7198L45.2 17.7498L45.08 17.7898L44.95 17.8098L44.83 17.8698L44.71 17.8898H44.72L44.63 17.8598Z" fill="white"/>
<path d="M29.1 14.41L28.97 14.56L28.9 14.48L28.82 14.38L28.77 14.27L28.9 14.2L28.81 14.1L28.72 14.01L28.67 13.88L28.57 13.79L28.51 13.67L28.43 13.59H28.54H28.67H28.8L28.92 13.63L29.05 13.6H29.18L29.3 13.65H29.43L29.55 13.67H29.8H29.93H30.06L30.19 13.69H30.32L30.45 13.72L30.58 13.69L30.7 13.73H30.83L30.96 13.75H31.21L31.34 13.77H31.47L31.6 13.75L31.73 13.77L31.85 13.81H31.98L32 13.67L32.03 13.55L32.05 13.42L32.07 13.29L32.1 13.17L32.13 13.05V12.92L32.18 12.8L32.21 12.67L32.23 12.54V12.41L32.26 12.28L32.3 12.16L32.32 12.03V11.9L32.35 11.77L32.39 11.65L32.41 11.52V11.39H32.29H32.15L32.01 11.38H31.87H31.74V11.26L31.76 11.13L31.8 11.01L31.78 10.88L31.81 10.75L31.84 10.62V10.49V10.36L31.88 10.24L31.91 10.11V9.98002L31.94 9.85002V9.72002L31.98 9.59002V9.46002L32 9.33002V9.20002L32.05 9.08002V8.95002L32.08 8.82002L32.1 8.69002L32.08 8.56002L32.12 8.43002L32.03 8.37002L31.95 8.30002L32.13 8.20002L32.19 8.25002L32.25 8.13002L32.34 8.03002L32.42 7.92002L32.47 7.80002L32.55 7.70002L32.6 7.58002L32.65 7.46002L32.73 7.35002L32.81 7.25002L32.71 7.18002L32.61 7.10002L32.48 7.07002L32.38 7.00002L32.27 6.93002L32.17 6.85002L32.07 6.77002L31.94 6.75002L31.84 6.67002L31.72 6.62002L31.61 6.56002L31.51 6.49002L31.4 6.42002L31.3 6.33002L31.19 6.27002L31.06 6.24002L30.96 6.16002L30.85 6.09002L30.72 6.05002L30.61 5.99002L30.52 5.90002L30.41 5.84002L30.29 5.79002L30.19 5.72002H30.31L30.43 5.70002L30.55 5.73002L30.67 5.71002H30.79H30.91L31.03 5.75002H31.15L31.27 5.71002H31.39L31.51 5.75002H31.63L31.76 5.72002H31.88L32 5.75002H32.13H32.26H32.39L32.52 5.73002H32.64V5.61002L32.67 5.48002V5.35002V5.22002V5.09002L32.73 4.97002V4.84002V4.71002V4.58002L32.76 4.45002L32.74 4.32002L32.77 4.19002L32.8 4.06002L32.82 3.93002V3.80002L32.84 3.67002L32.81 3.54002L32.85 3.41002V3.28002L32.84 3.15002V3.02002L32.9 2.89002L32.92 2.76002L32.9 2.63002L32.78 2.61002H32.65L32.52 2.64002H32.26L32.13 2.67002L32 2.71002H31.87L31.74 2.69002L31.61 2.71002H31.48L31.35 2.73002L31.22 2.75002H30.96H30.83H30.7L30.57 2.78002L30.44 2.76002L30.31 2.79002H30.05L29.92 2.82002H29.79H29.66H29.53H29.4L29.27 2.86002H29.14H29.01L28.88 2.88002H28.75L28.62 2.90002L28.49 2.92002L28.36 2.90002L28.23 2.93002H28.1L27.97 2.91002L27.84 2.94002H27.71H27.58H27.45H27.32L27.19 2.99002H27.06H26.93V2.86002V2.73002V2.60002L26.97 2.47002V2.34002L26.99 2.21002V2.08002L26.98 1.95002V1.82002L26.99 1.69002L27.01 1.56002V1.43002V1.30002L26.89 1.25002H26.76L26.64 1.19002L26.5 1.21002L26.38 1.18002L26.27 1.11002L26.14 1.08002H26.01L25.89 1.03002L25.77 0.99002H25.64L25.52 0.94002L25.39 0.91002H25.26L25.13 0.88002L25.01 0.85002L24.88 0.83002L24.76 0.78002L24.63 0.76002L24.5 0.74002L24.38 0.71002L24.26 0.67002L24.14 0.64002L24.02 0.60002H23.89L23.77 0.54002H23.64L23.51 0.52002L23.39 0.48002L23.27 0.43002H23.14L23.02 0.38002L22.89 0.36002L22.77 0.30002H22.64L22.52 0.24002H22.39L22.26 0.21002L22.13 0.18002L22.01 0.12002H21.88L21.76 0.0700195H21.63L21.5 0.0200195V0.16002L21.49 0.29002L21.43 0.41002V0.54002V0.67002L21.37 0.79002L21.35 0.91002V1.04002L21.34 1.17002L21.31 1.29002V1.42002L21.26 1.54002V1.67002L21.2 1.79002V1.92002L21.19 2.03002L21.3 2.09002L21.43 2.12002H21.57L21.71 2.14002L21.83 2.21002H21.97L22.1 2.25002L22.16 2.13002L22.22 2.22002L22.31 2.29002L22.42 2.33002H22.54L22.65 2.37002L22.75 2.40002L22.78 2.52002V2.64002V2.76002L22.8 2.88002V3.00002L22.81 3.12002L22.83 3.25002H22.7L22.58 3.23002L22.46 3.28002H22.34H22.22H22.1H21.98L21.86 3.31002L21.74 3.29002L21.62 3.33002H21.5L21.38 3.30002L21.27 3.26002L21.15 3.22002H21.03L20.91 3.20002L20.8 3.17002L20.86 3.21002L20.78 3.33002L20.7 3.19002L20.73 3.14002L20.61 3.10002L20.49 3.06002H20.36L20.24 3.01002L20.12 2.97002L19.99 2.95002L19.87 2.92002L19.75 2.88002L19.62 2.85002L19.49 2.83002H19.36L19.23 2.79002L19.11 2.75002L18.98 2.72002L18.86 2.69002L18.74 2.65002L18.62 2.61002L18.49 2.58002L18.36 2.56002H18.23L18.11 2.53002L17.99 2.49002L17.87 2.44002L17.74 2.42002L17.62 2.38002H17.49L17.36 2.35002L17.24 2.30002H17.11L16.98 2.28002L16.86 2.22002L16.74 2.18002H16.62V2.30002V2.43002L16.67 2.55002V2.68002L16.69 2.81002V2.94002L16.73 3.07002V3.20002L16.74 3.33002L16.79 3.45002L16.76 3.58002L16.78 3.71002L16.82 3.83002L16.84 3.96002V4.09002L16.86 4.22002V4.35002L16.88 4.48002V4.61002L16.94 4.73002V4.86002L16.97 4.99002V5.12002L17 5.24002V5.37002H17.13L17.26 5.41002H17.39L17.52 5.42002H17.65L17.78 5.44002H17.91L18.03 5.48002H18.16L18.29 5.49002H18.55L18.68 5.53002L18.81 5.50002H18.94L19.06 5.56002H19.19L19.32 5.58002L19.45 5.55002L19.58 5.59002H19.71L19.84 5.62002H19.97L20.1 5.60002L20.23 5.62002L20.36 5.66002H20.49L20.62 5.67002L20.75 5.65002L20.88 5.67002H21.01L21.14 5.69002L21.27 5.71002H21.4L21.53 5.74002H21.66L21.79 5.70002L21.92 5.74002H22.05L22.18 5.73002L22.31 5.75002H22.44L22.57 5.72002L22.7 5.75002H22.83L22.96 5.72002L23.09 5.74002V5.87002L23.12 6.00002L23.1 6.13002V6.26002L23.15 6.39002L23.13 6.51002H23.02H22.9H22.65L22.53 6.52002L22.41 6.50002L22.29 6.52002H22.16L22.04 6.49002L21.92 6.54002L21.79 6.50002H21.66L21.53 6.52002H21.4L21.29 6.51002V6.40002V6.28002V6.16002V6.03002L21.16 6.08002H21.03L20.91 6.14002H20.78L20.66 6.18002H20.53L20.4 6.22002L20.27 6.25002L20.14 6.28002H20.01L19.89 6.33002L19.76 6.35002H19.63L19.5 6.38002L19.38 6.43002L19.25 6.46002H19.12L19 6.50002L18.87 6.53002L18.74 6.55002H18.61L18.49 6.60002L18.36 6.63002H18.23L18.11 6.68002L17.98 6.70002L17.85 6.72002H17.72L17.59 6.75002L17.47 6.80002L17.5 6.92002L17.52 7.05002L17.54 7.18002V7.31002L17.56 7.44002L17.6 7.56002V7.69002L17.61 7.82002V7.95002L17.62 8.08002L17.68 8.20002L17.66 8.33002V8.46002L17.7 8.59002L17.76 8.71002V8.84002L17.78 8.96002V9.09002L17.79 9.22002L17.81 9.35002L17.84 9.47002L17.89 9.59002V9.72002V9.85002L17.91 9.98002L17.95 10.1L17.97 10.23V10.49L18.02 10.61L18.05 10.73V10.86L18.08 10.98L18.1 11.11V11.24L18.13 11.36L18.11 11.49L18.15 11.61L18.19 11.73L18.17 11.86L18.19 11.99L18.24 12.11V12.24L18.27 12.37V12.5L18.28 12.63L18.31 12.76L18.35 12.88V13.01L18.37 13.14L18.41 13.26V13.39V13.52L18.44 13.64L18.48 13.76L18.51 13.89V14.02V14.15L18.55 14.26H18.67L18.8 14.22L18.93 14.19L19.06 14.17L19.17 14.09H19.3L19.43 14.06L19.55 14.02L19.68 13.99L19.8 13.93L19.93 13.91H20.06L20.18 13.86L20.31 13.83L20.44 13.8L20.56 13.77L20.69 13.75L20.81 13.68H20.94L21.07 13.65L21.19 13.61L21.3 13.57L21.33 13.44L21.29 13.3L21.33 13.18L21.44 13.16H21.57L21.7 13.2L21.83 13.18L21.96 13.22H22.09L22.22 13.2L22.35 13.23H22.48H22.61L22.51 13.31L22.39 13.36L22.29 13.43L22.2 13.53L22.1 13.6L22 13.68L21.89 13.75L21.78 13.82L21.68 13.9L21.57 13.96L21.45 14.02L21.36 14.12L21.26 14.19L21.14 14.25L21.03 14.32L20.93 14.4L20.83 14.48L20.73 14.57L20.61 14.62L20.5 14.69L20.4 14.78L20.3 14.86L20.18 14.91L20.1 15.02L19.99 15.09L19.87 15.15L19.74 15.17L19.62 15.22L19.5 15.28L19.39 15.36L19.27 15.42L19.14 15.44L19.04 15.53L18.92 15.57L18.79 15.6L18.68 15.66L18.58 15.74L18.46 15.78L18.33 15.82L18.21 15.87L18.1 15.95L17.97 15.98L17.85 16.03L17.75 16.12L17.62 16.15L17.58 16.28V16.41L17.51 16.51L17.46 16.62L17.35 16.68H17.22H17.09L17.18 16.59L17.28 16.51L17.34 16.4L17.42 16.3L17.45 16.32V16.21L17.32 16.27L17.21 16.34L17.1 16.4L16.97 16.42L16.86 16.49L16.75 16.57H16.61L16.49 16.64L16.38 16.71L16.27 16.78L16.13 16.8L16.03 16.89L15.91 16.93L15.98 17.03L16.03 17.15L16.11 17.25L16.16 17.37L16.21 17.49L16.28 17.6L16.34 17.71L16.41 17.82L16.48 17.93L16.54 18.04L16.58 18.16L16.66 18.26L16.74 18.36L16.79 18.48L16.86 18.58L16.92 18.69L17 18.79L17.04 18.91L17.1 19.02L17.16 19.13L17.24 19.23L17.32 19.33L17.35 19.46L17.43 19.56L17.48 19.68L17.54 19.79L17.62 19.89L17.69 20L17.74 20.12L17.8 20.23L17.87 20.33L17.94 20.44L18.02 20.54L18.05 20.67L18.14 20.77L18.19 20.91L18.29 20.8L18.38 20.71L18.48 20.63L18.57 20.53L18.65 20.43L18.73 20.33L18.84 20.26L18.93 20.17L19 20.06L19.11 19.99L19.2 19.9L19.29 19.81L19.4 19.74L19.48 19.64L19.56 19.54L19.67 19.47L19.74 19.36L19.83 19.27L19.95 19.21L20.03 19.11L20.11 19.01L20.21 18.93L20.3 18.84L20.4 18.76L20.5 18.68L20.57 18.57L20.67 18.49L20.77 18.41L20.87 18.33L20.93 18.21L21.02 18.12L21.12 18.04L21.21 17.95L21.32 17.88L21.41 17.79L21.49 17.68L21.46 17.57L21.44 17.46L21.42 17.34L21.55 17.43L21.65 17.54L21.75 17.46L21.82 17.35L21.91 17.26L22 17.17L22.12 17.12L22.19 17.02L22.26 16.92L22.37 16.86L22.45 16.77L22.53 16.67L22.65 16.61L22.72 16.5L22.8 16.4L22.89 16.31L23 16.24L23.09 16.15L23.19 16.04V16.19L23.15 16.32L23.17 16.45V16.58L23.14 16.71V16.97V17.1V17.23L23.13 17.36L23.11 17.49L23.09 17.62V17.75V17.88V18.14L23.06 18.27V18.53L23.05 18.66V18.79L23.07 18.92L23.05 19.05V19.18V19.31V19.44L23.02 19.57L22.99 19.7L23.02 19.83V19.96L23 20.09V20.22V20.35V20.48L22.98 20.61V20.74V20.87V21L22.96 21.13V21.65L22.94 21.77H23.06L23.18 21.73L23.3 21.7L23.42 21.66L23.54 21.63L23.67 21.61L23.79 21.55L23.91 21.51H24.04L24.16 21.46H24.29L24.41 21.41L24.53 21.37L24.65 21.33L24.78 21.31L24.91 21.29L25.03 21.24L25.16 21.22L25.29 21.2L25.4 21.13L25.53 21.11L25.65 21.08L25.78 21.06L25.91 21.03L26.04 21.01L26.16 20.98L26.28 20.92L26.41 20.9L26.53 20.87L26.65 20.82H26.78L26.9 20.78L27.02 20.74L27.04 20.61L27.02 20.48V20.35V20.22L27 20.09L26.97 19.96V19.83L26.92 19.73L26.9 19.61L26.81 19.52L26.78 19.42H26.87L26.94 19.53L26.96 19.66V19.53L27 19.4L26.98 19.27V19.14L26.96 19.01V18.88L26.95 18.75V18.62V18.49V18.36V18.23V18.1L26.94 17.97L26.92 17.84L26.95 17.71V17.58L26.94 17.45V17.32L26.92 17.19V17.06V16.93V16.8L26.9 16.67V16.54V16.41L26.93 16.28L26.9 16.15L26.88 16.02L26.9 15.9L26.95 16L27.04 16.09L27.08 16.21L27.13 16.32L27.2 16.42L27.27 16.52L27.35 16.62L27.38 16.75L27.47 16.84L27.52 16.96L27.58 17.07L27.63 17.19L27.73 17.28L27.77 17.4L27.86 17.5L27.91 17.62L27.96 17.74L28.03 17.85L28.13 17.94L28.16 18.07L28.23 18.18L28.31 18.28L28.37 18.39L28.43 18.5L28.5 18.6L28.56 18.72L28.69 18.76L28.78 18.86L28.9 18.91L29.02 18.96L29.13 19.03L29.24 19.1L29.37 19.14L29.48 19.21L29.59 19.27L29.68 19.36L29.8 19.41L29.92 19.46L30.01 19.56L30.13 19.61L30.23 19.69L30.34 19.76L30.47 19.79L30.58 19.85L30.69 19.92L30.81 19.98L30.91 20.06L31.02 20.13L31.13 20.2L31.24 20.27L31.37 20.31L31.47 20.39L31.58 20.45L31.68 20.53L31.8 20.58L31.9 20.66L32.02 20.72L32.08 20.6V20.47L32.14 20.35L32.18 20.23V20.1L32.26 19.99V19.85L32.3 19.73L32.34 19.61L32.38 19.49L32.44 19.37L32.47 19.24L32.49 19.11L32.54 18.99V18.86L32.62 18.75L32.65 18.62V18.49L32.74 18.38L32.78 18.26L32.81 18.13V18L32.86 17.88L32.91 17.76L32.94 17.63L32.98 17.51L33.01 17.39L33.06 17.27V17.13L33.13 17.02L33.15 16.89L33.19 16.77L33.21 16.64L33.24 16.51L33.32 16.4L33.35 16.27L33.38 16.14L33.42 16.02L33.44 15.89L33.46 15.78H33.35L33.22 15.74L33.09 15.72H32.96L32.83 15.68L32.71 15.63L32.57 15.65L32.45 15.59H32.32L32.2 15.55H32.07H31.94L31.82 15.49H31.69L31.56 15.47H31.43L31.3 15.45L31.17 15.42L31.04 15.38H30.91H30.78L30.66 15.32H30.53H30.4L30.28 15.27L30.14 15.29L30.02 15.23L29.89 15.21L29.76 15.19H29.63L29.56 15.08L29.48 14.98L29.37 14.91L29.29 14.81L29.24 14.69L29.16 14.59L29.09 14.47H29.06L29.1 14.41ZM31.78 8.31002L31.85 8.33002L31.82 8.42002L31.7 8.38002L31.78 8.31002ZM31.15 7.74002H31.19L31.18 7.79002L31.09 7.76002L31.16 7.74002H31.15ZM30.57 7.33002V7.35002V7.40002L30.5 7.37002L30.58 7.33002H30.57ZM30.44 9.22002L30.48 9.29002L30.43 9.39002L30.36 9.28002L30.44 9.22002ZM22.5 1.99002V1.96002H22.53L22.5 1.99002ZM22.66 1.89002V1.86002V1.80002L22.7 1.86002L22.65 1.88002L22.66 1.89002ZM18.88 2.90002L18.81 2.87002L18.84 2.83002L18.95 2.87002L18.89 2.90002H18.88ZM20.58 3.44002H20.56V3.35002L20.68 3.39002L20.57 3.44002H20.58ZM21.16 8.14002L21.09 8.11002L21.12 8.07002L21.22 8.11002L21.16 8.14002ZM29.96 9.00002L29.99 9.08002L29.93 9.18002L29.87 9.04002L29.96 9.00002ZM26.97 5.74002H27.08L27.2 5.71002H27.32L27.45 5.72002H27.58L27.7 5.71002L27.83 5.69002L27.96 5.73002L28.09 5.71002L28.22 5.74002H28.35L28.48 5.71002H28.61H28.74L28.87 5.73002L28.99 5.69002H29.12L29.25 5.73002H29.38H29.51H29.64L29.76 5.71002L29.66 5.78002L29.56 5.85002L29.45 5.92002L29.35 6.00002L29.24 6.06002L29.16 6.17002L29.04 6.21002L28.94 6.28002L28.84 6.35002L28.74 6.43002L28.64 6.50002H28.51H28.38L28.25 6.53002H28.12L27.99 6.49002L27.86 6.51002H27.73H27.6H27.47L27.34 6.52002H27.21L27.08 6.50002H26.95L26.97 6.38002V6.25002L26.98 6.12002L26.96 5.99002V5.86002L27 5.74002H26.97ZM26.84 8.36002H26.96L27.09 8.33002H27.22L27.35 8.34002H27.48L27.61 8.33002L27.74 8.31002L27.87 8.35002L28 8.33002L28.13 8.36002H28.26L28.39 8.33002H28.52H28.65L28.63 8.46002L28.67 8.59002V8.72002L28.63 8.85002V8.98002V9.10002H28.52H28.39H28.26H28.13H28H27.87H27.74L27.61 9.13002L27.48 9.10002H27.23H27.1H26.85H26.73L26.71 8.97002V8.84002L26.77 8.71002V8.58002L26.75 8.45002L26.78 8.33002L26.84 8.36002ZM21.42 7.86002H21.45V7.93002L21.37 7.87002H21.43V7.86002H21.42ZM21.32 8.36002H21.43L21.56 8.33002H21.69L21.82 8.34002L21.78 8.24002L21.82 8.20002L21.88 8.25002L21.81 8.36002L21.94 8.34002L22.06 8.37002H22.18L22.3 8.34002H22.42H22.54L22.66 8.36002L22.78 8.32002H22.9L23.02 8.36002H23.14H23.25V8.48002L23.28 8.61002V8.74002L23.3 8.87002V9.00002L23.32 9.13002L23.19 9.11002L23.06 9.15002L22.93 9.12002H22.67H22.54H22.28H22.15L22.02 9.15002H21.89L21.76 9.11002L21.63 9.13002H21.5H21.37H21.24V9.00002V8.87002L21.26 8.74002V8.61002V8.48002V8.36002H21.32ZM22.76 13.26L22.69 13.23L22.72 13.19L22.82 13.23L22.76 13.26ZM23.38 11.38H23.27L23.14 11.41H23.01L22.88 11.4H22.75L22.62 11.41L22.49 11.43L22.36 11.39L22.23 11.41L22.1 11.38H21.97L21.84 11.41H21.71H21.58L21.45 11.39L21.3 11.42V11.27L21.33 11.14V11.01V10.88V10.75L21.31 10.62H21.43H21.55H21.67H21.79H21.91L22.03 10.59L22.15 10.62H22.4H22.53H22.78H22.91L23.04 10.59H23.17L23.3 10.63L23.42 10.61V10.74L23.41 10.87V11.27L23.38 11.39V11.38ZM26.62 16.68L26.57 16.65L26.6 16.61L26.66 16.65L26.62 16.68ZM26.79 17.02L26.77 16.94L26.79 16.9L26.85 16.95L26.79 17.02ZM26.79 11.38V11.26L26.76 11.13V11V10.87V10.74L26.74 10.6L26.87 10.58L27 10.62L27.13 10.6L27.26 10.63H27.39L27.52 10.6H27.65H27.78L27.91 10.62L28.04 10.58H28.17L28.3 10.62H28.43H28.56H28.68V10.73V10.86V10.99V11.12V11.25V11.37L28.56 11.41L28.43 11.38H28.18H28.05H27.8H27.67L27.54 11.41H27.41L27.28 11.37L27.15 11.39H27.02H26.89H26.78L26.79 11.38Z" fill="white"/>
<path d="M82.91 6.86006L82.8 6.83006L82.68 6.77006L82.56 6.73006L82.44 6.68006L82.32 6.64006L82.21 6.57006L82.08 6.53006L81.96 6.48006L81.84 6.43006L81.73 6.36006L81.61 6.31006L81.48 6.27006L81.36 6.22006L81.24 6.18006L81.11 6.15006L81 6.08006H80.86L80.75 6.00006L80.63 5.94006L80.51 5.90006L80.38 5.88006L80.27 5.81006L80.14 5.79006L80.02 5.75006L79.9 5.70006L79.78 5.65006L79.66 5.59006L79.79 5.55006H79.92L80.05 5.52006H80.18L80.31 5.49006H80.57L80.69 5.42006H80.82L80.94 5.37006H81.07L81.2 5.34006L81.33 5.36006L81.45 5.31006L81.58 5.27006L81.72 5.30006L81.85 5.26006L81.98 5.23006H82.11L82.13 5.09006L82.17 4.97006V4.84006L82.22 4.72006V4.59006L82.24 4.46006L82.3 4.34006V4.21006L82.34 4.09006V3.96006L82.37 3.83006L82.4 3.70006L82.43 3.57006L82.46 3.44006V3.31006L82.49 3.19006L82.53 3.07006V2.94006L82.57 2.82006L82.61 2.70006V2.57006L82.65 2.44006L82.69 2.32006L82.72 2.19006V2.06006L82.74 1.93006L82.76 1.80006L82.82 1.68006V1.56006L82.71 1.59006H82.58L82.46 1.63006L82.34 1.66006L82.22 1.70006H82.09L81.97 1.73006L81.85 1.76006H81.72L81.59 1.77006L81.47 1.82006H81.34L81.21 1.84006L81.09 1.88006L80.97 1.92006H80.84L80.72 1.97006L80.6 2.00006L80.48 2.03006H80.35L80.22 2.06006L80.1 2.11006H79.97L79.85 2.15006L79.73 2.17006H79.6L79.48 2.20006H79.35L79.23 2.27006L79.1 2.29006L78.98 2.32006H78.85L78.73 2.38006L78.6 2.40006L78.47 2.42006L78.35 2.46006L78.22 2.48006L78.09 2.50006H77.96L77.84 2.56006H77.71H77.58H77.45H77.32L77.19 2.54006H77.06L76.93 2.52006H76.8L76.67 2.54006L76.55 2.50006H76.42L76.29 2.52006L76.17 2.48006L76.04 2.46006H75.91L75.78 2.49006L75.65 2.47006L75.53 2.43006L75.4 2.45006H75.27L75.14 2.43006H75.01L74.88 2.42006H74.75H74.62L74.49 2.40006L74.36 2.38006H74.23L74.1 2.36006H73.97L73.84 2.34006L73.71 2.32006H73.58L73.45 2.34006H73.32L73.19 2.32006H73.06L72.93 2.28006H72.8L72.68 2.31006L72.73 2.38006L72.64 2.46006L72.56 2.53006L72.52 2.39006L72.57 2.27006H72.44L72.31 2.25006H72.18L72.05 2.27006L71.92 2.24006L71.79 2.22006L71.66 2.26006H71.53L71.4 2.24006H71.27L71.14 2.21006H71.01H70.88L70.75 2.17006H70.62L70.49 2.15006H70.36H70.23L70.1 2.12006L69.97 2.15006L69.85 2.11006H69.72L69.59 2.09006L69.46 2.11006L69.33 2.09006H69.07L68.94 2.08006L68.81 2.05006L68.68 2.07006L68.55 2.04006L68.42 2.02006H68.29H68.16L68.03 2.04006L67.9 2.02006H67.77L67.64 1.98006H67.51L67.37 1.97006L67.39 2.11006L67.44 2.23006L67.42 2.36006L67.46 2.48006L67.48 2.61006L67.5 2.74006V2.87006L67.52 3.00006L67.57 3.12006L67.55 3.25006L67.59 3.37006V3.50006L67.63 3.63006L67.61 3.76006L67.64 3.89006V4.02006L67.66 4.15006L67.72 4.27006V4.40006L67.74 4.53006V4.66006L67.78 4.78006V4.91006L67.83 5.04006L67.85 5.17006L67.82 5.30006L67.86 5.43006V5.56006L67.88 5.70006H68.15L68.28 5.69006L68.41 5.67006H68.54H68.67L68.8 5.71006L68.93 5.66006L69.06 5.70006L69.19 5.68006L69.09 5.76006L68.96 5.80006L68.86 5.87006L68.76 5.94006L68.66 6.01006L68.56 6.09006L68.44 6.13006L68.34 6.22006L68.22 6.27006L68.13 6.37006L67.99 6.41006L68.07 6.53006L68.12 6.65006L68.16 6.77006L68.22 6.88006L68.28 6.99006L68.37 7.09006L68.43 7.20006L68.47 7.32006L68.54 7.43006L68.6 7.54006L68.63 7.67006L68.7 7.78006L68.76 7.89006L68.83 8.00006L68.87 8.12006L68.94 8.23006L69.01 8.34006L69.04 8.47006L69.1 8.58006L69.2 8.68006L69.24 8.80006L69.3 8.91006L69.35 9.03006L69.4 9.15006L69.46 9.27006L69.54 9.38006L69.61 9.49006L69.64 9.61006H69.53L69.4 9.63006H69.27H69.14H69.01L68.88 9.61006L68.75 9.63006L68.62 9.60006L68.49 9.63006H68.36H68.23L68.1 9.61006L67.97 9.63006L67.84 9.59006L67.71 9.61006H67.58H67.45L67.32 9.59006H67.19H67.06L66.93 9.61006L66.8 9.59006L66.67 9.63006L66.53 9.60006L66.56 9.73006L66.59 9.85006L66.63 9.97006V10.1001L66.66 10.2201L66.71 10.3401L66.74 10.4601L66.76 10.5901V10.7201L66.78 10.8501L66.84 10.9701V11.1001L66.87 11.2301L66.92 11.3501L66.94 11.4801V11.6101L66.99 11.7301L67.01 11.8601V11.9901L67.03 12.1201L67.06 12.2501L67.09 12.3801L67.23 12.2901L67.33 12.1801L67.39 12.2901L67.23 12.3101L67.11 12.3701L67.14 12.4901L67.12 12.6201L67.16 12.7401L67.22 12.8501L67.2 12.9801L67.26 13.0901L67.28 13.2101L67.3 13.3301V13.4501L67.33 13.5701L67.37 13.6801H67.48L67.6 13.6701L67.71 13.6201L67.83 13.5901L67.95 13.5701L68.07 13.5501H68.19L68.3 13.4801H68.43L68.4 13.4201L68.43 13.3601L68.57 13.4301H68.56H68.69L68.81 13.4001L68.94 13.3801L69.06 13.3401L69.18 13.3001L69.3 13.2701H69.43L69.55 13.2501H69.68L69.8 13.2001L69.93 13.1801L70.06 13.1501L70.18 13.1001L70.3 13.0601L70.43 13.0401L70.56 13.0201L70.69 13.0001H70.82L70.94 12.9601L71.06 12.9101L71.19 12.8901H71.32L71.45 12.8601L71.57 12.8301L71.7 12.8101L71.83 12.7801L71.96 12.7501L72.08 12.7101H72.21L72.33 12.6701L72.45 12.6301L72.58 12.6001L72.71 12.6401H72.84L72.99 12.6101L72.96 12.7501V13.0001V13.1301V13.2601L72.94 13.3901V13.5201L72.9 13.6401L72.93 13.7701L72.91 13.9001V14.0301V14.1601V14.2901L72.86 14.4101L72.88 14.5401V14.6701L72.85 14.8001L72.87 14.9301L72.83 15.0501V15.1801V15.3101V15.4401V15.5701L72.8 15.7001L72.83 15.8201L72.89 15.8901L73 15.9401L72.89 15.9801L72.82 16.0701V16.0401L72.8 16.1701L72.82 16.3001L72.77 16.4301L72.79 16.5601L72.76 16.6901V16.8201V16.9501V17.0801L72.78 17.2101V17.3401L72.73 17.4701L72.76 17.6001V17.7301L72.75 17.8601V17.9901L72.72 18.1201V18.2501L72.73 18.3801L72.71 18.5101V18.6401L72.69 18.7701L72.71 18.9001L72.67 19.0301V19.1601L72.68 19.2901V19.4201V19.5501L72.65 19.6801L72.63 19.8101L72.61 19.9401V20.0701L72.64 20.2001L72.59 20.3301V20.4601V20.5901V20.7201L72.57 20.8501L72.6 20.9801L72.57 21.1101V21.2401L72.54 21.3701L72.57 21.5001V21.6301L72.54 21.7701L72.68 21.7401L72.8 21.6901L72.92 21.6501L73.05 21.6301L73.17 21.5801L73.29 21.5401H73.42L73.54 21.5001H73.67L73.78 21.4201L73.9 21.3901H74.03L74.15 21.3401L74.28 21.3201L74.4 21.2601H74.53L74.66 21.2301L74.78 21.1801L74.9 21.1401L75.02 21.1001H75.15L75.27 21.0401H75.4L75.52 21.0001L75.64 20.9401H75.77L75.89 20.9101L76.01 20.8801L76.13 20.8401L76.25 20.8001L76.38 20.7801L76.5 20.7501L76.62 20.6801L76.75 20.6601H76.88L77 20.5801H77.14L77.1 20.4401L77.13 20.3101L77.09 20.1801V20.0501V19.9201L77.11 19.7901L77.09 19.6601L77.07 19.5301L77.09 19.4001L77.07 19.2701V19.1401L77.1 19.0101V18.8801L77.07 18.7501V18.6201L77.06 18.4901V18.3601L77.03 18.2301V18.1001V17.9701L77.05 17.8401L77.03 17.7101V17.5801L77 17.4501L77.04 17.3201L77 17.1901L77.02 17.0601V16.9301V16.8001L76.99 16.6701L77.01 16.5401V16.4101L76.99 16.2801V16.1501L76.96 16.0201V15.8901L76.98 15.7601V15.6301L76.97 15.5001L76.95 15.3701V15.2401V15.1101V14.9801L76.97 14.8501V14.7201L76.93 14.5901V14.4601L76.91 14.3301L76.95 14.2001L76.91 14.0701V13.9401L76.9 13.8101V13.6801L76.91 13.5501L76.89 13.4201L76.92 13.2901V13.1601L76.9 13.0301V12.9001L76.86 12.7701L76.89 12.6501H77.01L77.14 12.6201L77.27 12.6601H77.4L77.53 12.6301L77.66 12.6501L77.79 12.6701L77.92 12.6401H78.05L78.18 12.6601L78.31 12.6901L78.44 12.6701L78.57 12.6501H78.7L78.83 12.6701H78.96L79.09 12.7001H79.22L79.35 12.6701H79.6L79.73 12.6901L79.86 12.7101L79.99 12.6701L80.12 12.7201H80.25L80.38 12.6901L80.51 12.7101H80.64L80.77 12.7201H80.9H81.03H81.16H81.29H81.42H81.55L81.68 12.7401H81.81H81.94H82.07L82.2 12.7301L82.34 12.7501L82.37 12.6201L82.39 12.5001L82.28 12.4301L82.19 12.3701L82.31 12.2601L82.38 12.3001L82.43 12.1901L82.45 12.0701V11.9401L82.51 11.8201V11.6901L82.56 11.5701L82.54 11.4401L82.57 11.3201L82.63 11.2001V11.0701L82.68 10.9501L82.7 10.8301V10.7001L82.74 10.5801L82.77 10.4601L82.79 10.3401V10.2101L82.81 10.0901L82.84 9.97006V9.84006L82.88 9.72006L82.91 9.60006H82.78L82.65 9.59006L82.52 9.62006L82.39 9.60006L82.26 9.58006H82.13L82 9.62006L81.87 9.58006H81.74L81.61 9.62006L81.48 9.58006L81.35 9.60006L81.22 9.62006H81.09H80.96H80.83H80.7L80.57 9.60006L80.44 9.58006H80.31H80.18H80.05H79.92L79.79 9.61006H79.66L79.55 9.59006L79.63 9.51006L79.73 9.43006L79.82 9.34006L79.92 9.26006L80 9.15006L80.13 9.10006L80.21 8.99006L80.3 8.90006L80.39 8.81006L80.5 8.74006L80.61 8.67006L80.71 8.59006L80.81 8.51006L80.9 8.42006L81 8.34006L81.09 8.24006L81.19 8.16006L81.28 8.07006L81.38 7.98006L81.49 7.91006L81.58 7.81006L81.67 7.72006L81.78 7.65006L81.86 7.55006L81.95 7.45006L82.07 7.39006L82.16 7.29006L82.24 7.19006L82.34 7.11006L82.44 7.02006L82.53 6.93006L82.64 6.86006L82.72 6.77006L82.91 6.86006ZM80.16 8.70006L80.21 8.73006L80.15 8.75006V8.70006H80.16ZM69.26 2.32006H69.19V2.27006L69.27 2.25006V2.32006H69.26ZM69.58 2.74006L69.55 2.68006L69.61 2.70006L69.58 2.75006V2.74006ZM67.6 12.7401L67.58 12.6301L67.65 12.6001L67.71 12.7001L67.61 12.7401H67.6ZM68.63 12.9601L68.55 12.8601L68.59 12.7401L68.69 12.8301L68.63 12.9501V12.9601ZM68.91 12.3701L68.83 12.2601L68.97 12.1701L69.07 12.2801L68.91 12.3701ZM77.7 3.08006L77.74 3.15006L77.68 3.19006L77.65 3.13006L77.7 3.08006ZM77.62 3.60006V3.57006L77.64 3.59006H77.66L77.61 3.72006V3.60006H77.62ZM77.05 2.53006L77.09 2.59006H77.03L77.05 2.53006ZM77.08 3.01006L77.1 3.08006L77.05 3.11006L77.01 3.06006L77.09 3.02006L77.08 3.01006ZM76.57 17.8201L76.61 17.8801H76.55L76.57 17.8201ZM72.97 2.80006L73.03 2.84006L73 2.89006L72.94 2.87006L72.98 2.79006L72.97 2.80006ZM71.95 2.73006L71.97 2.75006L71.94 2.78006L71.92 2.76006H71.9L71.92 2.73006H71.95ZM70.01 2.99006L69.93 2.88006L70.02 2.82006L70.12 2.89006L70 2.98006L70.01 2.99006ZM70.64 2.53006L70.69 2.59006L70.63 2.62006L70.57 2.59006L70.64 2.53006ZM73.1 5.71006L73.12 5.85006V5.98006L73.13 6.11006V6.24006L73.15 6.37006L73.13 6.50006L73.15 6.63006V6.76006L73.16 6.89006L73.14 7.02006V7.15006L73.17 7.28006V7.41006L73.19 7.54006L73.21 7.67006L73.19 7.80006L73.24 7.93006L73.22 8.06006V8.17006L73.15 8.09006L73.04 8.02006L72.97 7.91006L72.85 7.85006L72.75 7.76006L72.66 7.67006L72.57 7.58006L72.48 7.49006L72.38 7.41006L72.3 7.30006L72.2 7.22006L72.12 7.12006L72.02 7.04006L71.94 6.94006L71.85 6.85006L71.73 6.79006L71.65 6.69006L71.54 6.62006L71.45 6.53006L71.35 6.45006L71.28 6.33006L71.17 6.26006L71.06 6.19006L71 6.07006L70.89 6.00006L70.79 5.92006L70.71 5.82006L70.61 5.74006H70.74H70.87L71 5.76006L71.13 5.73006H71.26L71.39 5.76006L71.52 5.73006L71.65 5.76006L71.78 5.74006H71.91H72.04H72.17H72.3L72.43 5.70006H72.56L72.69 5.73006L72.82 5.70006L72.95 5.72006H73.09V5.71006H73.1ZM73.31 9.70006H73.17H73.04H72.91H72.78H72.65L72.52 9.68006H72.39L72.26 9.69006H72.13L72 9.67006H71.74L71.61 9.68006H71.48L71.35 9.70006H71.24L71.33 9.61006L71.46 9.57006L71.58 9.52006V9.48006L71.6 9.38006L71.67 9.32006L71.72 9.40006L71.82 9.34006L71.93 9.29006L72.04 9.23006L72.15 9.18006L72.25 9.11006L72.37 9.07006L72.47 9.00006L72.59 8.96006L72.69 8.89006L72.81 8.85006L72.92 8.80006L73.01 8.71006L73.13 8.67006L73.25 8.59006V8.75006L73.27 8.89006L73.24 9.03006L73.28 9.16006L73.46 9.24006L73.26 9.31006L73.29 9.44006L73.31 9.57006V9.71006V9.70006ZM73.79 16.2901L73.74 16.2401L73.79 16.2001L73.84 16.2501L73.79 16.2901ZM76.11 19.0101L76.14 18.9001L76.24 18.9701L76.17 19.0601L76.1 19.0101H76.11ZM76.27 20.4301L76.13 20.3301L76.19 20.2201L76.35 20.3201L76.27 20.4301ZM76.35 13.1601L76.3 13.1201H76.36V13.1601H76.35ZM76.55 19.7401L76.48 19.7201L76.51 19.6601H76.58L76.55 19.7401ZM76.61 18.3701L76.56 18.4101L76.53 18.3501L76.6 18.3001V18.3701H76.61ZM76.92 19.9801V19.9201L76.97 19.9601L76.92 19.9801ZM77.06 12.5601H77.14L77.09 12.6301L77.06 12.5601ZM77.16 18.9001L77.11 19.0201L77.13 18.9001V18.8601L77.14 18.8801L77.16 18.9001ZM77.21 18.3701L77.25 18.4401L77.19 18.4801L77.16 18.4201L77.21 18.3701ZM77.21 12.0501L77.18 12.0701H77.16L77.04 12.2001H77.03V12.2401H76.98L77.02 12.1901V12.1701H77.03L77.15 12.0601H77.18L77.21 11.9901V12.0501ZM77.13 9.70006V9.56006L77.15 9.43006V9.30006V9.17006V9.04006L77.18 8.91006V8.78006V8.65006V8.52006L77.22 8.39006V8.26006V8.13006V8.00006V7.87006V7.74006L77.24 7.61006L77.21 7.48006L77.25 7.35006L77.27 7.22006V7.09006L77.25 6.96006L77.28 6.83006L77.25 6.70006V6.57006L77.27 6.44006V6.31006L77.29 6.18006V6.05006L77.31 5.92006V5.79006L77.33 5.67006H77.46H77.6H77.74L77.77 5.52006L77.84 5.40006L77.87 5.26006L77.94 5.13006L77.98 5.26006V5.39006L78.02 5.51006L78.05 5.61006L78.17 5.66006L78.29 5.64006H78.41H78.53H78.65H78.77L78.79 5.62006L78.73 5.73006L78.71 5.86006L78.67 5.98006L78.59 6.08006V6.21006L78.5 6.32006L78.47 6.44006L78.43 6.56006L78.38 6.68006L78.33 6.80006L78.28 6.92006V7.05006L78.21 7.16006L78.15 7.27006L78.13 7.40006L78.06 7.51006L78 7.62006L77.97 7.74006L77.92 7.86006L77.86 7.97006L77.81 8.09006L77.79 8.22006L77.75 8.34006L77.71 8.46006L77.63 8.57006V8.70006L77.57 8.82006L77.51 8.93006L77.62 8.99006L77.74 9.04006L77.86 9.09006L77.96 9.18006L78.08 9.22006L78.2 9.27006L78.3 9.36006L78.41 9.43006L78.53 9.47006L78.63 9.54006L78.73 9.58006H78.63H78.51L78.39 9.56006L78.27 9.58006H78.15H78.03H77.91L77.79 9.56006L77.67 9.58006L77.55 9.56006L77.43 9.58006H77.31H77.17L77.13 9.70006ZM78.83 9.19006V9.15006H78.84V9.11006L78.91 9.13006L78.85 9.17006L78.82 9.19006H78.83ZM79.54 9.79006L79.48 9.73006L79.53 9.62006L79.59 9.68006L79.54 9.80006V9.79006ZM82.01 12.0701L82.16 12.2001L82.14 12.3201L82.12 12.4501L82.05 12.3501L81.99 12.2501L82.01 12.0701ZM80.97 12.4101L81.07 12.4901L80.95 12.5801L80.87 12.4801L80.96 12.4101H80.97ZM80.56 12.2901L80.52 12.3401V12.2801H80.56V12.2901Z" fill="white"/>
<path d="M15.4399 13.2198L15.3099 13.1798L15.2199 13.0798L15.1099 13.0198L14.9899 12.9798L14.8999 12.8898L14.7899 12.8298L14.6699 12.7998L14.5599 12.7398L14.4499 12.6698L14.3399 12.5898L14.4299 12.4898L14.5099 12.3898L14.5999 12.2998L14.6599 12.1798L14.7599 12.0998L14.8299 11.9898L14.8999 11.8898L14.9999 11.8098L15.0699 11.7098L15.1399 11.5998L15.2199 11.4998L15.2899 11.3898L15.3999 11.3098L15.4499 11.1898L15.5399 11.0998L15.6199 10.9998L15.6999 10.8998L15.7999 10.8198L15.8599 10.6998L15.9499 10.6098L16.0299 10.5098L16.1099 10.4098L16.1799 10.2998L16.2799 10.2198L16.3499 10.1198L16.4099 10.0098L16.4899 9.90984L16.5899 9.82984L16.6399 9.70984L16.7399 9.61984L16.6599 9.51984L16.5899 9.41984L16.4699 9.34984L16.4199 9.22984L16.3099 9.15984L16.2499 9.04984L16.1599 8.95984L16.0699 8.86984L15.9999 8.76984L15.9199 8.67984L15.8299 8.58984L15.7499 8.48984L15.6699 8.39984L15.6099 8.28984L15.4999 8.21984L15.4499 8.09984L15.3399 8.02984L15.2799 7.91984L15.1899 7.82984L15.0999 7.73984L15.0299 7.62984L14.9699 7.50984L14.8699 7.42984L14.8299 7.52984L14.7399 7.60984L14.6999 7.70984L14.6199 7.59984L14.5599 7.48984L14.6499 7.36984L14.7399 7.25984L14.6599 7.15984L14.5899 7.04984L14.4899 6.96984L14.4199 6.85984L14.3499 6.74984L14.2699 6.64984L14.1599 6.56984L14.0799 6.46984L13.9999 6.36984L13.9099 6.27984L13.8299 6.17984L13.7599 6.06984L13.6699 5.97984L13.5899 5.87984L13.4999 5.77984L13.4099 5.68984L13.3399 5.57984L13.2499 5.47984L13.1699 5.37984L13.0799 5.28984L13.0099 5.17984L12.9099 5.09984L12.8399 4.98984L12.7399 4.89984L12.6699 4.78984L12.5899 4.68984L12.5199 4.57984L12.4099 4.49984L12.3299 4.37984L12.2299 4.46984L12.1199 4.52984L11.9999 4.57984L11.8899 4.64984L11.7799 4.71984L11.6899 4.80984L11.5699 4.85984L11.4699 4.92984L11.3799 5.01984L11.2699 5.08984L11.1499 5.13984L11.0599 5.22984L10.9499 5.28984L10.8499 5.36984L10.7499 5.44984L10.6499 5.53984L10.5199 5.56984L10.4199 5.65984L10.2999 5.71984L10.2099 5.81984L10.0999 5.88984L9.99994 5.95984L10.0599 6.06984L10.1199 6.17984L10.1799 6.28984L10.2299 6.39984L10.2899 6.50984L10.3499 6.61984L10.3999 6.73984L10.4499 6.84984L10.5299 6.94984L10.5699 7.06984L10.6199 7.17984L10.7199 7.26984L10.7499 7.39984L10.8099 7.50984L10.8599 7.61984L10.9199 7.72984L10.9799 7.83984L11.0599 7.93984L11.1199 8.05984H10.9799L10.8499 8.03984H10.7199L10.5899 8.06984H10.4599H10.3299H10.1999H10.0699H9.93994H9.80994L9.67994 8.04984H9.54994L9.41994 8.03984H9.28994H9.15994L9.02994 8.06984H8.89994L8.76994 8.02984L8.63994 8.05984H8.50994L8.37994 8.06984L8.24994 8.04984H8.11994L7.98994 8.01984L7.85994 8.06984L7.72994 8.02984L7.59994 8.05984L7.46994 8.03984H7.33994H7.20994H7.07994H6.94994L6.81994 8.07984L6.68994 8.05984H6.55994H6.42994L6.29994 8.07984L6.16994 8.09984H6.03994H5.90994H5.76994L5.85994 7.97984L5.93994 7.87984L6.01994 7.77984L6.12994 7.70984L6.20994 7.60984L6.29994 7.51984L6.37994 7.41984L6.45994 7.31984L6.51994 7.19984L6.60994 7.10984L6.70994 7.02984L6.77994 6.91984L6.87994 6.83984L6.94994 6.72984L7.04994 6.64984L7.10994 6.52984L7.18994 6.42984L7.29994 6.34984L7.36994 6.23984L7.43994 6.12984L7.52994 6.03984L7.61994 5.94984L7.68994 5.83984L7.76994 5.73984L7.84994 5.63984L7.94994 5.55984L8.03994 5.46984L8.12994 5.37984L8.21994 5.28984L8.26994 5.15984L8.36994 5.07984L8.43994 4.96984L8.53994 4.88984L8.61994 4.78984L8.70994 4.69984L8.76994 4.58984L8.87994 4.50984L8.94994 4.39984L9.03994 4.30984L9.12994 4.21984L9.20994 4.11984L9.26994 4.00984L9.37994 3.93984L9.43994 3.82984L9.52994 3.73984L9.60994 3.63984L9.68994 3.53984L9.79994 3.45984L9.86994 3.34984L9.96994 3.26984L10.0299 3.16984L9.91994 3.11984L9.80994 3.05984L9.71994 2.95984L9.58994 2.91984L9.47994 2.85984L9.36994 2.78984L9.25994 2.72984L9.15994 2.64984L9.04994 2.57984L8.92994 2.53984L8.83994 2.44984L8.72994 2.37984L8.60994 2.32984L8.48994 2.27984L8.39994 2.18984L8.26994 2.15984L8.17994 2.05984L8.04994 2.02984L7.94994 1.94984L7.84994 1.85984L7.71994 1.82984L7.62994 1.73984L7.51994 1.66984L7.38994 1.62984L7.26994 1.57984L7.16994 1.49984L7.05994 1.43984L6.95994 1.35984L6.83994 1.31984L6.73994 1.23984L6.62994 1.17984L6.52994 1.10984L6.40994 1.06984L6.31994 0.979844L6.19994 0.929844L6.07994 0.879844L5.96994 0.819844L5.86994 0.739844L5.74994 0.689844L5.64994 0.609844L5.54994 0.529844L5.42994 0.479844L5.32994 0.399844L5.19994 0.369844L5.09994 0.289844L4.97994 0.239844L4.87994 0.159844L4.76994 0.0898438L4.70994 0.199844L4.61994 0.289844L4.52994 0.389844L4.46994 0.499844L4.40994 0.619844L4.31994 0.709844L4.24994 0.819844L4.16994 0.919844L4.10994 1.02984L4.01994 1.11984L3.97994 1.24984L3.88994 1.34984L3.82994 1.46984L3.74994 1.56984L3.65994 1.65984L3.58994 1.76984L3.51994 1.87984L3.43994 1.98984L3.54994 2.05984L3.67994 2.08984L3.78994 2.15984L3.90994 2.20984L4.00994 2.28984L4.11994 2.36984L4.24994 2.39984L4.34994 2.47984L4.46994 2.52984L4.58994 2.56984L4.67994 2.66984L4.79994 2.70984L4.72994 2.81984L4.66994 2.92984L4.59994 3.03984L4.52994 3.14984L4.45994 3.25984L4.36994 3.34984L4.30994 3.45984L4.24994 3.56984L4.18994 3.68984L4.10994 3.78984L4.02994 3.88984L3.96994 4.00984L3.90994 4.11984L3.84994 4.22984L3.77994 4.32984L3.71994 4.44984L3.62994 4.54984L3.55994 4.65984L3.46994 4.75984L3.42994 4.88984L3.34994 4.98984L3.25994 5.08984L3.19994 5.19984L3.12994 5.30984L3.08994 5.43984L3.00994 5.53984L2.94994 5.64984L2.85994 5.73984L2.81994 5.86984L2.72994 5.95984L2.66994 6.06984L2.57994 6.15984L2.52994 6.27984L2.44994 6.37984L2.39994 6.49984L2.33994 6.61984L2.25994 6.71984L2.18994 6.82984L2.12994 6.94984L2.01994 7.02984L1.97994 7.15984L1.89994 7.25984L1.82994 7.36984L1.76994 7.47984L1.69994 7.58984L1.60994 7.68984L1.53994 7.79984L1.47994 7.90984L1.38994 8.00984L1.32994 8.12984L1.26994 8.23984L1.17994 8.33984L1.13994 8.46984L1.04994 8.56984L0.969941 8.66984L0.909941 8.77984L0.849941 8.88984L0.759941 8.97984L0.709941 9.09984L0.649941 9.20984L0.589941 9.31984L0.519941 9.42984L0.459941 9.53984L0.359941 9.62984L0.319941 9.74984L0.249941 9.85984L0.149941 9.94984L0.0999414 10.0698L0.00994141 10.1598L-0.0600586 10.2798L0.0799414 10.3298L0.179941 10.3998L0.279941 10.4698L0.369941 10.5698L0.479941 10.6298L0.579941 10.6998L0.679941 10.7698L0.809941 10.8098L0.899941 10.8998L1.00994 10.9598L1.11994 11.0298L1.20994 11.1198L1.32994 11.1698L1.43994 11.2298L1.53994 11.2998L1.65994 11.3498L1.73994 11.4598L1.84994 11.5298L1.95994 11.5898L2.07994 11.6398L2.16994 11.7398L2.27994 11.8098L2.38994 11.8798L2.49994 11.9198L2.59994 11.8498L2.66994 11.7398L2.75994 11.6498L2.84994 11.5598L2.90994 11.4398L3.01994 11.3698L3.09994 11.2698L3.17994 11.1698L3.26994 11.0898H3.38994H3.51994L3.64994 11.0598H3.77994L3.90994 11.0298H4.03994H4.16994L4.29994 11.0598L4.42994 11.0398H4.55994H4.68994L4.81994 11.0098H4.94994L5.07994 10.9798H5.20994L5.33994 10.9898H5.46994L5.59994 10.9798H5.72994L5.85994 10.9698H5.98994H6.11994H6.24994L6.37994 10.9198L6.50994 10.9398L6.63994 10.9198H6.76994L6.89994 10.9398L7.02994 10.8998H7.15994L7.28994 10.8798H7.54994H7.67994H7.80994L7.93994 10.8498H8.06994H8.19994L8.32994 10.8798L8.45994 10.8298H8.71994L8.84994 10.8098L8.97994 10.8498L9.10994 10.8098H9.23994H9.36994H9.62994H9.75994L9.88994 10.7698H10.0199H10.1499H10.2799L10.4099 10.7498H10.5399L10.6699 10.7398H10.7999H10.9299L11.0599 10.7698L11.1899 10.7498L11.3199 10.7198H11.4499H11.5799L11.7099 10.6998L11.8399 10.7298L11.9699 10.6898L12.0999 10.7098H12.2299L12.3599 10.6898L12.4899 10.6698L12.6099 10.6898L12.6599 10.7998L12.7399 10.8998L12.8099 11.0098L12.8499 11.1298L12.9299 11.2298L12.9799 11.3498L13.0399 11.4598L13.0899 11.5798L13.1699 11.6798L13.2399 11.7898L13.2599 11.9198L13.3199 12.0098L13.2199 11.9698L13.1099 11.9098L13.0099 11.8398L12.9099 11.7698L12.8099 11.6998L12.6899 11.6698L12.5799 11.6098L12.4799 11.5398L12.3699 11.4898L12.2699 11.4198L12.1799 11.3298L12.0599 11.3098L11.9599 11.3698L11.8499 11.4298L11.7599 11.5298L11.6299 11.5798L11.5399 11.6698L11.4299 11.7298L11.3499 11.8398L11.2399 11.8998L11.1099 11.9498L11.0199 12.0398L10.8999 12.0998L10.8099 12.1998L10.6899 12.2598L10.5899 12.3498L10.4899 12.4298L10.3699 12.4798L10.2499 12.5098L10.1199 12.4798H9.98994L9.85994 12.4998H9.72994L9.59994 12.4798L9.46994 12.5198H9.33994L9.20994 12.4998L9.07994 12.5198H8.94994L8.81994 12.4798L8.68994 12.5098L8.55994 12.4798H8.42994L8.29994 12.5098H8.16994L8.03994 12.4898H7.90994L7.77994 12.4998H7.64994H7.51994L7.38994 12.4798L7.25994 12.5098H7.12994L7.16994 12.5998L7.04994 12.6698L6.98994 12.5098H6.86994L6.74994 12.4898L6.62994 12.5198H6.50994L6.38994 12.4998H6.26994V12.2298V12.0898V11.9498L6.24994 11.8098V11.6698L6.25994 11.5398L6.13994 11.5598H6.00994L5.88994 11.6098L5.75994 11.6398L5.63994 11.6798L5.51994 11.7198L5.38994 11.7398L5.25994 11.7698L5.13994 11.8098L5.01994 11.8698L4.89994 11.9098H4.76994L4.63994 11.9398L4.51994 11.9898L4.39994 12.0298L4.26994 12.0598L4.13994 12.0798L4.00994 12.1098L3.87994 12.1398L3.74994 12.1698L3.61994 12.1998L3.49994 12.2498L3.36994 12.2698L3.23994 12.2998L3.10994 12.3298L2.97994 12.3498L2.85994 12.3998H2.72994L2.60994 12.4598H2.47994L2.35994 12.5298H2.21994L2.09994 12.5798H1.96994L1.84994 12.6198L1.71994 12.6398L1.59994 12.6998L1.47994 12.7398V12.6998L1.54994 12.7298L1.58994 12.7798L1.49994 12.8198H1.47994L1.52994 12.9298V13.0598L1.55994 13.1898V13.3198L1.61994 13.4398V13.5698L1.66994 13.6898L1.69994 13.8198L1.71994 13.9498V14.0798L1.73994 14.1998L1.75994 14.3298L1.80994 14.4498V14.5798L1.82994 14.7098L1.88994 14.8298V14.9598L1.92994 15.0798L1.95994 15.2098L1.98994 15.3398L1.96994 15.4698L2.02994 15.5898L2.05994 15.7198V15.8498L2.09994 15.9798L2.11994 16.1098L2.13994 16.2398L2.15994 16.3698V16.4998L2.18994 16.6298L2.23994 16.7498V16.8798L2.28994 16.9998V17.1298L2.30994 17.2598L2.33994 17.3798V17.5098L2.36994 17.6398L2.39994 17.7698L2.41994 17.8998L2.44994 18.0198L2.46994 18.1498V18.2798L2.51994 18.3998L2.53994 18.5298L2.56994 18.6598V18.7898L2.62994 18.9098V19.0498L2.71994 19.0898L2.82994 19.1298L2.74994 19.2398L2.70994 19.3398L2.67994 19.3198V19.4498L2.73994 19.5698L2.76994 19.6898L2.74994 19.8198L2.79994 19.9398V20.0698L2.83994 20.1898L2.85994 20.3098V20.4398L2.89994 20.5598V20.6898L2.95994 20.8098V20.9398L2.99994 21.0598L3.01994 21.1898L3.05994 21.3098V21.4398V21.5698L3.12994 21.6898V21.8198V21.9598L3.26994 21.9298L3.39994 21.9098L3.51994 21.8598H3.64994L3.76994 21.7798L3.88994 21.7398H4.01994L4.14994 21.7198L4.26994 21.6698L4.39994 21.6498L4.51994 21.5898H4.64994L4.76994 21.5198L4.89994 21.4898L5.02994 21.4698L5.15994 21.4498L5.27994 21.3998L5.39994 21.3598H5.52994L5.65994 21.3398L5.77994 21.2898L5.90994 21.2598L6.02994 21.2098H6.15994L6.26994 21.1598V21.0298L6.29994 20.8898V20.7498L6.25994 20.6098L6.28994 20.4898H6.39994L6.51994 20.5198H6.64994L6.77994 20.5398L6.89994 20.5698L7.02994 20.5498H7.15994L7.27994 20.6098H7.40994L7.53994 20.6298L7.66994 20.6498H7.79994H7.92994L8.04994 20.6998H8.17994L8.29994 20.7398H8.42994L8.54994 20.7798H8.93994L9.05994 20.8398L9.18994 20.8598L9.31994 20.8398L9.43994 20.8998H9.56994L9.69994 20.9298H9.82994L9.95994 20.9598H10.0899H10.2199L10.3499 20.9998L10.3299 20.8898V20.7898V20.6898L10.3499 20.5998L10.4499 20.6598L10.5799 20.6798L10.6799 20.7498L10.7999 20.7898L10.8199 20.7998H10.7799L10.6999 20.9098L10.5999 21.0198H10.7299L10.8599 21.0498L10.9899 21.0698L11.1199 21.1098L11.2499 21.0798L11.3799 21.0998L11.4999 21.1498H11.6299L11.7599 21.1698L11.8899 21.1898L12.0199 21.2298H12.1499H12.2799L12.4099 21.2498L12.5299 21.2998H12.6599L12.7899 21.2898L12.9099 21.3398L13.0399 21.3598L13.1699 21.3398L13.2899 21.3998H13.4199H13.5499L13.6699 21.4498L13.7999 21.4698H13.9299L14.0599 21.4898L14.1899 21.5198L14.3199 21.5398H14.4499L14.5899 21.5698V21.4198L14.6299 21.2898L14.6699 21.1698V21.0398L14.6899 20.9198L14.7099 20.7898L14.7499 20.6698L14.7699 20.5398V20.4098L14.8399 20.2898V20.1598L14.8499 20.0298L14.8799 19.9098L14.9399 19.7898V19.6598L14.9499 19.5298L14.9899 19.4098V19.2798L15.0099 19.1498L15.0399 19.0198L15.0599 18.8898L15.0899 18.7598L15.1199 18.6298L15.1399 18.4998L15.1699 18.3698L15.1999 18.2398L15.2299 18.1098L15.2499 17.9798L15.1099 17.9598H14.9799L14.8499 17.9998H14.7199L14.5899 17.9698H14.4599L14.3299 17.9998H14.1799L14.2199 17.8598L14.2499 17.7398L14.2799 17.6198V17.4898L14.3299 17.3698L14.3599 17.2498L14.3799 17.1198L14.4099 16.9998V16.8698L14.4199 16.7398L14.4799 16.6198V16.4898L14.5199 16.3698V16.2398L14.5599 16.1198L14.5899 15.9998L14.6299 15.8798L14.6599 15.7598V15.6298L14.6899 15.5098V15.3798L14.7299 15.2598V15.1298L14.7799 15.0098L14.7999 14.8798L14.8699 14.7698L14.9399 14.6598L14.9799 14.5298L15.0799 14.4298L15.1399 14.3098L15.1799 14.1798L15.2299 14.0598L15.2899 13.9398L15.3599 13.8298L15.4399 13.7198L15.4799 13.5898L15.5299 13.4698L15.6199 13.3598H15.6399L15.4399 13.2198ZM2.96994 6.03984L2.85994 6.01984L2.91994 5.98984L2.99994 6.01984L2.96994 6.03984ZM4.09994 7.32984H4.03994L4.08994 7.24984L4.15994 7.26984L4.09994 7.31984V7.32984ZM4.41994 6.92984L4.27994 6.84984L4.36994 6.68984L4.42994 6.77984L4.53994 6.85984L4.40994 6.91984L4.41994 6.92984ZM4.94994 6.46984L4.83994 6.33984L4.92994 6.25984L5.03994 6.35984L4.95994 6.46984H4.94994ZM5.87994 5.40984H5.93994L5.88994 5.43984V5.40984H5.87994ZM2.59994 12.6798L2.66994 12.5998L2.73994 12.7098L2.82994 12.7698L2.74994 12.8598L2.67994 12.7598L2.59994 12.6798ZM2.82994 18.7898L2.75994 18.6998H2.87994L2.91994 18.7598L2.82994 18.7898ZM3.03994 13.1198H3.00994H3.06994V12.9698L3.14994 12.9998L3.03994 13.1198ZM3.36994 12.6398L3.28994 12.5998L3.25994 12.4998V12.4198V12.3098L3.31994 12.4098L3.37994 12.4898L3.35994 12.6498L3.36994 12.6398ZM9.58994 20.5398L9.48994 20.6298V20.4998L9.56994 20.4598L9.58994 20.5398ZM10.6199 17.8698L10.4999 17.8998L10.3699 17.8598H10.2399L10.1099 17.8898L9.97994 17.8598H9.84994L9.71994 17.8998H9.45994L9.32994 17.8898H9.19994H9.06994L8.93994 17.8698L8.80994 17.8998L8.67994 17.8798H8.54994L8.41994 17.8998L8.28994 17.8698H8.15994L8.02994 17.8898H7.76994L7.63994 17.8698L7.50994 17.9098H7.37994L7.24994 17.8998H7.11994L6.98994 17.8698L6.85994 17.8998H6.72994H6.59994H6.46994L6.33994 17.9098L6.20994 17.8798H6.08994L6.06994 17.7698V17.6398L6.09994 17.5098L6.06994 17.3798L6.08994 17.2498V17.1198L6.10994 16.9898L6.05994 16.8598L6.10994 16.7298L6.06994 16.5998L6.08994 16.4698V16.3398L6.06994 16.2098V16.0798V15.9498V15.8198L6.05994 15.6898V15.5598L6.07994 15.4298L6.03994 15.2998L6.07994 15.1698L6.03994 15.0398L6.06994 14.9198H6.18994L6.31994 14.8898L6.44994 14.9098L6.57994 14.9398L6.70994 14.9098H6.83994L6.96994 14.9398H7.09994L7.22994 14.9198H7.35994H7.48994H7.61994H7.74994H7.87994L8.00994 14.9098L8.13994 14.9298L8.26994 14.9498H8.39994L8.52994 14.9198H8.78994H8.91994H9.04994L9.17994 14.9398H9.30994L9.43994 14.9298H9.56994L9.69994 14.9098L9.82994 14.9298H9.95994H10.0899H10.2199H10.3499L10.4799 14.9098H10.6099L10.6299 15.0498L10.6099 15.1798V15.3098L10.5899 15.4398L10.6199 15.5698L10.5999 15.6998L10.6199 15.8298V15.9598L10.5899 16.0898V16.3498L10.6099 16.4798L10.5899 16.6098V16.7398L10.6099 16.8698V16.9998L10.5899 17.1298L10.6099 17.2598V17.3898V17.5198V17.6498L10.6399 17.7798L10.6099 17.8998L10.6199 17.8698ZM11.0899 20.5298L10.9499 20.5098L11.0499 20.3698L11.1199 20.3898L11.0799 20.5298H11.0899Z" fill="white"/>
<path d="M34.94 14.26L35.06 14.23H35.19L35.31 14.21L35.43 14.17L35.55 14.13L35.67 14.11H35.8L35.75 13.99L35.68 13.89L35.63 13.78L35.57 13.67L35.54 13.55V13.52L35.53 13.5L35.55 13.55L35.62 13.67L35.72 13.76L35.81 13.87L35.88 13.99L35.97 14.11L36.15 14.07V14.2L36.18 14.33L36.22 14.46L36.26 14.59L36.28 14.72V14.86L36.3 14.99L36.33 15.12L36.35 15.25H36.48L36.61 15.23L36.74 15.26L36.87 15.23L37 15.27L37.13 15.24H37.26L37.39 15.28L37.52 15.24H37.65L37.78 15.26H37.91L38.04 15.24L38.17 15.26H38.3H38.43H38.56L38.69 15.28H38.82L38.95 15.24L39.08 15.27H39.21L39.34 15.26H39.6L39.73 15.25H39.86L39.99 15.26H40.12L40.25 15.28H40.38H40.51H40.64H40.77H40.9H41.03L41.16 15.25L41.29 15.28L41.42 15.26H41.55L41.68 15.28L41.81 15.25L41.94 15.29H42.07L42.2 15.26L42.33 15.28H42.46L42.59 15.27L42.72 15.3L42.85 15.25L42.98 15.3L43.11 15.26H43.24L43.37 15.27H43.5H43.63L43.76 15.29H43.89H44.02H44.15L44.28 15.26L44.41 15.3L44.54 15.26L44.67 15.29H44.8L44.93 15.26L45.06 15.28L45.19 15.25L45.32 15.27H45.45L45.58 15.29L45.71 15.25H45.97H46.1H46.23L46.36 15.28H46.49L46.62 15.25H46.75L46.88 15.29H47.01L47.14 15.25L47.27 15.27H47.38L47.43 15.14V15.01L47.47 14.88V14.75L47.49 14.62V14.49L47.52 14.36L47.56 14.23V14.1L47.58 13.97V13.85H47.46L47.33 13.82H47.2H47.07H46.94L46.81 13.84H46.55H46.42H46.29L46.16 13.82H46.03L45.9 13.84L45.77 13.82H45.64L45.51 13.81L45.38 13.83L45.25 13.8L45.12 13.82L44.99 13.79L44.86 13.81L44.73 13.79H44.6L44.47 13.81H44.21L44.08 13.78L43.95 13.81L43.82 13.79H43.69L43.56 13.77H43.43L43.3 13.8L43.17 13.76H43.04H42.91H42.78L42.88 13.71L42.96 13.61L43.05 13.53L43.15 13.46L43.26 13.4L43.36 13.33L43.45 13.24L43.54 13.15L43.64 13.07L43.76 13.02L43.84 12.92L43.93 12.83L44.03 12.76L44.14 12.7L44.23 12.62L44.33 12.54L44.42 12.45L44.53 12.39L44.6 12.29L44.64 12.17L44.69 12.05L44.74 11.93L44.77 11.8L44.8 11.67L44.84 11.54L44.88 11.42L44.94 11.3L44.96 11.17L44.99 11.04L45.05 10.92L45.09 10.8V10.66L45.15 10.54L45.27 10.56H45.39H45.51L45.63 10.52L45.75 10.55H45.87L45.82 10.66L45.79 10.78L45.75 10.9L45.72 11.03L45.7 11.16L45.65 11.28L45.61 11.4L45.56 11.52L45.54 11.65L45.49 11.77L45.46 11.9L45.43 12.02L45.38 12.14L45.34 12.26L45.28 12.38L45.25 12.5L45.22 12.62L45.2 12.75L45.16 12.86L45.22 12.96L45.32 13.03L45.43 13.09L45.51 13.18L45.6 13.27L45.69 13.36L45.78 13.45L45.89 13.51L45.97 13.61L46.08 13.68L46.21 13.63L46.32 13.55L46.45 13.51L46.57 13.47L46.67 13.38L46.8 13.35L46.91 13.28L47.03 13.23L47.14 13.16L47.26 13.1L47.38 13.04L47.51 13.01L47.62 12.93L47.75 12.89L47.85 12.81L47.98 12.77L47.96 12.9V13.03L47.94 13.16L47.91 13.29V13.42V13.55L47.86 13.67V13.8L47.83 13.93V14.06V14.19L47.79 14.31V14.44L47.77 14.58L47.9 14.53L48.02 14.49L48.14 14.47H48.27L48.39 14.43L48.51 14.37H48.64L48.76 14.34L48.87 14.28L48.99 14.25L49.11 14.21H49.24L49.36 14.15L49.48 14.12L49.6 14.08H49.73L49.85 14.03L49.97 13.99H50.1L50.23 13.96L50.37 13.93L50.33 13.79V13.66L50.3 13.54L50.28 13.42L50.26 13.3L50.24 13.18L50.22 13.06V12.93V12.8L50.17 12.68L50.15 12.56L50.13 12.44L50.1 12.32V12.19L50.08 12.07L50.04 11.95L50.07 11.82L50.03 11.7L50.01 11.58V11.45L49.95 11.33L49.93 11.21L49.95 11.08L49.89 10.96V10.83L49.87 10.71L49.85 10.59H49.72L49.59 10.61H49.46H49.33H49.2L49.07 10.59L48.94 10.63H48.81L48.68 10.62H48.55L48.42 10.63L48.28 10.61V10.75V10.88L48.23 10.99L48.11 11.02L47.97 10.99L47.83 11.02H47.69L47.71 10.88L47.75 10.76L47.8 10.65L47.85 10.54V10.41L47.9 10.29L47.92 10.17L47.99 10.06V9.92998L48.06 9.81998L48.09 9.69998V9.57998L48.08 9.53998L48.1 9.50998L48.13 9.52998L48.15 9.39998L48.2 9.27998L48.22 9.15998L48.27 9.04998L48.3 8.92998L48.32 8.80998L48.36 8.68998L48.41 8.57998V8.44998L48.48 8.33998L48.52 8.21998V8.08998L48.58 7.97998V7.84998L48.65 7.73998L48.67 7.61998V7.49998L48.69 7.39998L48.76 7.42998L48.82 7.48998L48.91 7.40998L49 7.32998L49.09 7.24998L49.18 7.16998L49.25 7.06998L49.35 6.98998L49.43 6.89998L49.5 6.78998L49.61 6.71998L49.7 6.62998L49.6 6.54998L49.47 6.51998L49.37 6.43998L49.26 6.37998L49.16 6.29998L49.05 6.23998L48.94 6.17998L48.84 6.09998L48.73 6.02998L48.62 5.97998L48.51 5.91998L48.41 5.84998L48.3 5.78998L48.2 5.71998L48.08 5.66998L47.96 5.61998L47.86 5.51998L47.75 5.59998L47.65 5.67998L47.53 5.70998L47.43 5.77998L47.31 5.82998L47.21 5.89998L47.1 5.94998L46.99 5.99998L46.89 6.07998L46.77 6.11998H46.66H46.56L46.61 5.99998L46.65 5.86998V5.72998L46.71 5.59998L46.59 5.57998L46.48 5.52998L46.36 5.50998L46.24 5.47998H46.12L46 5.43998H45.88L45.77 5.35998L45.64 5.37998L45.51 5.32998L45.65 5.29998H45.78L45.91 5.27998L46.04 5.30998L46.17 5.27998L46.3 5.25998H46.43H46.56H46.69L46.82 5.23998H46.95L47.08 5.20998L47.21 5.22998H47.34L47.47 5.17998H47.6L47.73 5.16998H47.99H48.12L48.25 5.12998H48.38H48.51H48.64L48.77 5.09998L48.9 5.07998H49.16H49.29L49.42 5.04998H49.55H49.69V4.91998L49.74 4.79998L49.72 4.66998V4.53998L49.76 4.41998L49.78 4.29998L49.83 4.17998L49.81 4.04998L49.83 3.91998L49.88 3.79998L49.9 3.67998V3.54998L49.93 3.42998V3.29998L49.96 3.17998L50.01 3.05998V2.92998L50.04 2.80998V2.67998L50.05 2.54998L50.09 2.42998V2.29998L50.12 2.17998V2.04998V1.93998L50.01 1.97998H49.88L49.76 2.02998H49.63L49.51 2.06998L49.39 2.10998L49.27 2.14998L49.15 2.18998H49.02L48.9 2.22998L48.78 2.27998H48.65L48.52 2.32998L48.4 2.36998L48.28 2.40998H48.14L48.02 2.46998L47.9 2.50998H47.77L47.64 2.53998L47.51 2.55998L47.38 2.58998L47.26 2.62998L47.14 2.68998H47.01L46.89 2.75998H46.75L46.62 2.77998L46.5 2.84998L46.37 2.86998L46.25 2.91998H46.12L45.99 2.93998L45.87 2.99998L45.74 3.01998L45.61 3.04998L45.59 3.16998L45.52 3.25998L45.43 3.32998L45.39 3.42998L45.36 3.27998V3.11998L45.25 3.15998H45.13L45.02 3.22998H44.89L44.77 3.24998L44.67 3.28998V3.16998L44.73 3.04998L44.77 2.92998L44.8 2.80998L44.85 2.68998V2.55998L44.92 2.43998L44.94 2.30998L44.99 2.18998L45.01 2.05998L45.03 1.92998L45.07 1.80998L45.12 1.68998L45.17 1.56998L45.21 1.44998L45.23 1.31998L45.27 1.19998L45.29 1.06998L45.35 0.94998L45.38 0.80998H45.24L45.11 0.78998H44.98L44.85 0.75998L44.72 0.73998H44.59H44.46H44.33L44.2 0.72998L44.07 0.70998H43.94L43.81 0.65998H43.55H43.42H43.29L43.16 0.61998L43.03 0.63998L42.9 0.59998L42.77 0.57998L42.64 0.60998L42.51 0.55998H42.36L42.37 0.69998L42.35 0.82998L42.32 0.95998L42.34 1.08998L42.31 1.21998V1.34998V1.47998L42.26 1.59998L42.28 1.72998L42.24 1.85998L42.27 1.98998L42.24 2.11998L42.22 2.24998V2.37998L42.21 2.50998L42.17 2.63998V2.76998V2.89998L42.14 3.02998V3.15998V3.28998V3.41998L42.11 3.54998L42.13 3.67998V3.80998L42.11 3.93998V4.06998L42.09 4.19998V4.32998L42.07 4.45998L42.05 4.58998V4.71998V4.84998V4.97998V5.10998V5.23998L42.03 5.36998L41.99 5.49998V5.62998L42.11 5.60998L42.23 5.58998H42.36H42.48H42.61L42.73 5.56998H42.85L42.97 5.53998L43.09 5.51998L43.22 5.53998L43.34 5.50998L43.47 5.52998H43.6L43.72 5.47998H43.84H43.97L44.1 5.49998L44.22 5.45998H44.35H44.47L44.44 5.57998V5.69998L44.37 5.80998V5.92998L44.32 6.03998V6.17998H44.18H44.05L43.92 6.13998L43.79 6.16998H43.66H43.53H43.4H43.27H43.14H43.01L42.88 6.14998L42.76 6.16998L42.74 6.28998L42.78 6.40998L42.76 6.53998L42.78 6.65998L42.81 6.77998V6.90998L42.83 7.02998V7.15998L42.85 7.28998L42.89 7.40998V7.53998V7.65998V7.78998L42.92 7.90998V8.03998L42.93 8.16998L42.95 8.29998H43.07H43.19L43.31 8.24998H43.43L43.55 8.23998H43.67H43.78L43.74 8.33998V8.45998L43.73 8.57998L43.7 8.68998L43.67 8.81998L43.53 8.76998L43.4 8.78998H43.27L43.14 8.76998L43.01 8.73998L42.88 8.75998L42.75 8.70998L42.63 8.73998V8.84998V8.97998V9.23998L42.66 9.36998L42.69 9.48998L42.67 9.61998V9.74998L42.74 9.86998L42.76 9.99998L42.73 10.13L42.79 10.25L42.77 10.38V10.51L42.82 10.62L42.94 10.64L43.08 10.62H43.23L43.2 10.75L43.17 10.86L43.12 10.97V11.1L42.99 11.15L42.88 11.21L42.77 11.26L42.67 11.34L42.57 11.41L42.46 11.46L42.34 11.51L42.24 11.59L42.11 11.61L42.02 11.7L41.89 11.73L41.79 11.8L41.68 11.86L41.57 11.93L41.45 11.98L41.35 12.04H41.23L41.1 12.07H40.97H40.84L40.71 12.04L40.58 12.07L40.47 12.04V11.94L40.42 11.82L40.39 11.7V11.58V11.48H40.5L40.63 11.46H40.76L40.89 11.48L41.02 11.45L41.15 11.48H41.28L41.41 11.46L41.54 11.48L41.67 11.46H41.8L41.81 11.34L41.86 11.22V11.09L41.87 10.97L41.92 10.85L41.96 10.73V10.6L41.99 10.48L41.94 10.56L41.88 10.41L41.95 10.25L42.02 10.29V10.16L42.09 10.03H41.96L41.83 10.04H41.57H41.44L41.31 9.99998H41.18L41.05 10.04L40.92 10.02H40.79L40.66 10.04H40.53L40.4 10.02H40.27L40.14 10.05L40.01 10.01L39.88 10.05L39.75 10.03H39.62L39.49 10.01H39.36L39.23 10.02H39.1L38.97 10.05L38.84 10.01H38.71L38.57 10.03L38.65 9.92998L38.72 9.82998L38.82 9.74998L38.9 9.65998H39.02L39.15 9.63998H39.28L39.41 9.65998H39.54L39.67 9.63998H39.8L39.93 9.65998H40.06H40.19H40.32L40.45 9.63998L40.58 9.61998H40.71L40.84 9.64998L40.97 9.62998L41.1 9.65998H41.23L41.36 9.62998L41.49 9.64998H41.74H41.87L42 9.61998H42.13V9.58998H42.15H42.19V9.61998H42.3L42.34 9.49998L42.36 9.36998V9.23998L42.42 9.10998V8.96998L42.45 8.83998V8.70998L42.48 8.57998L42.52 8.44998L42.55 8.31998L42.58 8.18998L42.45 8.20998L42.32 8.16998H42.19L42.06 8.19998L41.93 8.16998L41.8 8.19998L41.67 8.15998L41.54 8.18998H41.41L41.28 8.15998H41.15L41.02 8.19998H40.89L40.76 8.15998H40.5L40.37 8.17998H40.24L40.23 8.04998L40.25 7.92998L40.22 7.78998H40.36L40.49 7.81998L40.62 7.77998H40.75L40.88 7.80998H41.01L41.14 7.79998L41.27 7.82998L41.4 7.80998H41.53L41.66 7.77998L41.79 7.80998H41.92H42.05H42.18L42.31 7.78998L42.33 7.65998L42.38 7.52998V7.39998L42.43 7.26998V7.12998L42.44 6.99998L42.51 6.87998L42.53 6.74998V6.60998L42.58 6.47998L42.62 6.33998L42.48 6.35998L42.36 6.33998H42.24H42.12H41.87L41.75 6.30998H41.63L41.5 6.33998L41.38 6.31998L41.25 6.33998H41.13H41.01L40.89 6.29998L40.76 6.32998H40.64L40.52 6.28998L40.39 6.31998L40.27 6.29998L40.25 6.15998V5.87998L40.29 5.73998L40.25 5.58998L40.37 5.52998L40.5 5.50998L40.62 5.45998L40.73 5.39998L40.84 5.33998L40.96 5.28998L41.07 5.21998L41.19 5.17998L41.3 5.11998L41.42 5.06998L41.55 5.04998L41.66 4.97998L41.78 4.92998L41.75 4.80998V4.67998L41.73 4.55998L41.7 4.42998L41.67 4.30998L41.65 4.17998L41.63 4.04998L41.61 3.91998L41.59 3.78998L41.57 3.65998V3.52998L41.54 3.39998L41.51 3.26998L41.48 3.14998L41.46 3.01998V2.88998L41.4 2.76998V2.63998L41.37 2.50998V2.37998L41.33 2.25998V2.12998L41.28 2.00998V1.87998L41.26 1.74998L41.22 1.62998V1.49998L41.19 1.37998V1.24998L41.13 1.12998L41.15 0.99998L41.1 0.87998V0.74998L41.08 0.61998L41.03 0.49998V0.36998L41.02 0.22998L40.89 0.29998L40.76 0.31998L40.64 0.36998L40.51 0.38998L40.39 0.42998L40.26 0.44998L40.14 0.49998L40.02 0.52998L39.89 0.55998H39.75L39.63 0.59998L39.51 0.63998H39.38L39.25 0.67998L39.13 0.72998L39 0.75998L38.87 0.78998L38.75 0.83998H38.62L38.5 0.89998H38.37L38.25 0.96998L38.12 0.98998L37.99 1.00998L37.87 1.05998L37.75 1.08998L37.79 1.19998L37.85 1.30998L37.87 1.43998L37.95 1.54998L37.98 1.66998L38 1.79998L38.07 1.90998L38.09 2.03998L38.14 2.15998L38.19 2.27998L38.23 2.39998L38.28 2.51998L38.31 2.63998L38.35 2.73998L38.24 2.75998H38.11L37.98 2.74998L37.85 2.71998H37.72L37.59 2.73998H37.46H37.33H37.2H37.07L36.94 2.75998L36.81 2.72998H36.55H36.42L36.29 2.74998L36.16 2.71998L36.03 2.74998L35.9 2.72998H35.77L35.64 2.76998L35.51 2.74998H35.38L35.25 2.76998H35.12H34.99L34.86 2.73998H34.73L34.6 2.74998H34.47H34.34H34.21H34.1L34.12 2.85998V2.98998L34.16 3.11998V3.37998L34.17 3.50998L34.22 3.62998V3.88998L34.27 4.00998V4.13998V4.26998L34.32 4.38998V4.51998L34.35 4.64998L34.38 4.77998V4.90998L34.39 5.03998L34.43 5.15998L34.46 5.28998V5.54998L34.52 5.66998V5.80998L34.65 5.76998H34.78L34.9 5.71998L35.02 5.67998L35.14 5.64998L35.26 5.59998L35.38 5.56998L35.5 5.53998L35.63 5.51998H35.76L35.88 5.46998L36 5.43998L36.12 5.39998L36.25 5.41998L36.37 5.37998L36.49 5.34998L36.61 5.30998L36.73 5.27998L36.85 5.22998H36.98L37.1 5.17998H37.23L37.34 5.11998H37.47L37.6 5.09998L37.72 5.05998L37.84 5.00998L37.96 4.97998H38.09L38.21 4.92998L38.33 4.89998L38.45 4.85998H38.58L38.7 4.78998H38.83L38.77 4.65998L38.7 4.54998L38.82 4.46998L38.87 4.60998L38.95 4.74998H38.99L39.05 4.83998L39.11 4.94998V5.07998L39.16 5.18998L39.23 5.28998L39.25 5.40998L39.32 5.53998L39.17 5.51998L39.04 5.49998H38.91L38.78 5.47998L38.65 5.49998H38.52L38.39 5.46998H38.26L38.13 5.44998H38H37.87H37.74H37.61L37.48 5.41998H37.35H37.22L37.09 5.38998H36.94V5.53998L36.99 5.66998V5.79998L37.05 5.92998L37.07 6.05998V6.17998H36.95H36.83L36.71 6.16998L36.59 6.18998L36.47 6.15998H36.35L36.23 6.18998L36.11 6.16998H35.99L35.87 6.14998L35.75 6.16998H35.63L35.51 6.15998H35.39L35.27 6.17998L35.15 6.14998L35.04 6.16998V6.27998L35.08 6.39998L35.06 6.52998L35.1 6.64998L35.14 6.76998V6.89998L35.17 7.01998V7.14998L35.23 7.26998L35.25 7.38998V7.51998L35.27 7.63998L35.3 7.74998L35.42 7.77998H35.54L35.66 7.75998L35.78 7.77998L35.9 7.75998H36.02L36.14 7.73998L36.26 7.75998L36.38 7.73998L36.5 7.76998H36.62L36.74 7.74998L36.86 7.76998L36.98 7.72998L37.1 7.76998H37.25L37.38 7.78998L37.5 7.81998L37.4 7.85998L37.28 7.90998V8.01998L37.32 8.12998H37.18H37.05L36.92 8.08998H36.79L36.66 8.11998H36.53H36.4L36.27 8.09998H36.14L36.01 8.12998H35.88L35.75 8.11998L35.62 8.13998H35.49L35.36 8.09998L35.23 8.13998L35.1 8.08998L34.97 8.13998L34.84 8.09998L34.71 8.11998L34.58 8.09998H34.44L34.48 8.24998V8.38998L34.54 8.50998V8.63998L34.57 8.76998L34.59 8.89998L34.62 9.02998V9.15998L34.65 9.28998V9.41998L34.7 9.53998H34.96H35.09H35.22L35.35 9.54998H35.48L35.61 9.51998L35.74 9.54998L35.88 9.52998L35.76 9.59998L35.69 9.71998L35.57 9.77998L35.48 9.86998L35.39 9.95998L35.29 10.04L35.2 10.13L35.11 10.22L35 10.29L34.9 10.37L34.8 10.45L34.71 10.55L34.62 10.64L34.52 10.72L34.44 10.82L34.33 10.89L34.42 10.98L34.54 11.03L34.62 11.13L34.73 11.19L34.82 11.28L34.93 11.35L35.04 11.41L35.15 11.48L35.24 11.58L35.36 11.64L35.45 11.73L35.55 11.81L35.67 11.86L35.74 11.94H35.64L35.52 11.96L35.4 11.92L35.28 11.94H35.16L35.04 11.96H34.92L34.8 11.94H34.68L34.54 11.93L34.61 12.06L34.63 12.18V12.31L34.68 12.43L34.72 12.55V12.68L34.79 12.8V12.93L34.82 13.05L34.84 13.18L34.91 13.29L34.89 13.42L34.94 13.54L34.97 13.66L34.99 13.78L35.03 13.9V14.03L35.08 14.15L35.12 14.27H35.14L34.94 14.26ZM48.34 10.62L48.38 10.65L48.34 10.74L48.32 10.65L48.34 10.62ZM48.18 7.66998L48.26 7.71998L48.33 7.77998L48.23 7.85998L48.11 7.76998L48.18 7.65998V7.66998ZM47.59 8.84998L47.7 8.96998L47.54 9.08998V9.11998L47.56 8.97998L47.59 8.85998V8.84998ZM46.27 12.2L46.22 12.3L46.2 12.19L46.26 12.11V12.21H46.27V12.2ZM45.86 7.88998L45.99 7.86998H46.12H46.25L46.38 7.83998L46.51 7.80998H46.65L46.58 7.92998L46.54 8.05998L46.52 8.18998L46.48 8.31998L46.45 8.44998L46.39 8.56998L46.33 8.68998V8.83998L46.19 8.82998L46.07 8.79998L45.95 8.81998H45.83L45.71 8.77998H45.6L45.63 8.64998L45.68 8.52998L45.71 8.39998L45.74 8.26998L45.76 8.13998L45.8 8.00998L45.86 7.88998ZM46.73 2.83998L46.82 2.92998L46.88 3.02998L46.78 3.14998L46.7 3.28998L46.62 3.22998L46.56 3.12998L46.63 3.03998L46.68 2.94998L46.73 2.85998V2.83998ZM44.88 3.30998L44.92 3.27998L44.95 3.37998H44.89V3.30998H44.88ZM44.44 2.25998L44.52 2.30998L44.59 2.36998L44.45 2.41998L44.37 2.37998L44.44 2.25998ZM43.21 9.71998L43.29 9.81998L43.22 9.89998L43.18 9.81998L43.21 9.71998ZM41.45 9.97998H41.5L41.48 10.03H41.46L41.45 9.97998ZM42.38 12.89V12.92L42.35 12.9H42.38V12.89ZM41.16 13.18L41.2 13.05L41.26 12.93L41.3 12.82L41.37 12.9L41.46 12.99L41.54 13.09L41.59 13.21L41.67 13.31L41.76 13.4L41.84 13.5L41.93 13.59L41.99 13.7L41.86 13.68L41.73 13.71H41.6L41.47 13.68L41.34 13.7H41.21L41.08 13.68H40.95H40.82L40.69 13.66H40.56L40.43 13.68L40.3 13.7H40.17L40.04 13.66H39.91L39.78 13.68H39.65L39.52 13.66L39.39 13.69L39.26 13.66L39.13 13.69L39 13.65L38.87 13.68H38.74L38.61 13.63L38.46 13.65L38.6 13.61H38.73L38.86 13.59L38.98 13.54H39.11L39.24 13.52L39.37 13.49L39.49 13.46H39.62L39.74 13.43L39.86 13.38H39.99H40.12L40.24 13.33L40.37 13.31H40.5L40.62 13.25H40.75L40.88 13.22L41.01 13.2L41.14 13.18H41.16ZM41.58 9.04998L41.63 9.07998L41.61 9.11998L41.56 9.07998L41.58 9.05998V9.04998ZM41.27 9.29998L41.36 9.32998L41.31 9.35998L41.25 9.31998L41.27 9.29998ZM38.13 3.47998H38.12L38.14 3.45998L38.12 3.34998L38.08 3.24998H38.18L38.17 3.35998L38.12 3.45998L38.14 3.47998H38.13ZM38.25 2.75998L38.27 2.70998L38.29 2.76998H38.25V2.75998ZM39.83 3.34998L39.82 3.35998H39.8V3.33998H39.82L39.83 3.34998ZM39.23 3.72998L39.28 3.80998L39.24 3.83998L39.21 3.75998L39.23 3.73998V3.72998ZM37.25 11.31H37.38H37.51H37.64H37.77V11.28L37.9 11.16L37.99 11.33L37.93 11.37L37.95 11.51V11.79L37.94 11.93L37.81 11.91L37.68 11.95H37.55L37.42 11.93L37.29 11.95H37.16L37.03 11.93H36.9H36.77L36.87 11.85L36.95 11.75L37.02 11.64L37.09 11.53L37.18 11.43L37.28 11.35L37.25 11.31Z" fill="white"/>
<path d="M98.9 13.2298L98.77 13.1798L98.67 13.0998L98.57 13.0298L98.46 12.9698L98.35 12.9098L98.25 12.8398L98.14 12.7898L98.04 12.7098L97.92 12.6698L97.82 12.5998L97.89 12.4998L97.98 12.4098L98.05 12.3098L98.1 12.1898L98.18 12.0898L98.28 12.0098L98.37 11.9198L98.43 11.8098L98.51 11.7098L98.58 11.5998L98.66 11.4998L98.75 11.4098L98.82 11.2998L98.91 11.2098L99.01 11.1298L99.07 11.0098L99.15 10.9098L99.25 10.8298L99.32 10.7298L99.39 10.6298L99.46 10.5198L99.56 10.4398L99.65 10.3498L99.7 10.2298L99.77 10.1198L99.86 10.0298L99.96 9.9498L100.02 9.8398L100.1 9.7398L100.16 9.6398L100.1 9.5298L100 9.4398L99.91 9.3498L99.86 9.2298L99.77 9.1298L99.67 9.0498L99.58 8.9598L99.49 8.8698L99.43 8.7498L99.33 8.6598L99.24 8.5698L99.18 8.4598L99.09 8.3698L99 8.2698L98.93 8.1598L98.82 8.0798L98.76 7.9598L98.69 7.8498L98.58 7.7798L98.5 7.6798L98.42 7.5798L98.37 7.4598L98.25 7.3898L98.2 7.2698L98.1 7.1798L98.02 7.0798L97.91 6.9998L97.86 6.8698L97.77 6.7798L97.68 6.6898L97.61 6.5798L97.5 6.5098L97.4 6.5498H97.26L97.27 6.5698H97.24V6.5598L97.29 6.4298L97.31 6.2998L97.24 6.1998L97.15 6.1098L97.08 5.9998L96.98 5.9098L96.9 5.8098L96.81 5.7198L96.74 5.6098L96.66 5.5098L96.56 5.4198L96.49 5.3098L96.4 5.2198L96.3 5.1398L96.23 5.0298L96.13 4.9398L96.06 4.8298L95.96 4.7498L95.9 4.6298L95.8 4.5498L95.74 4.4198L95.64 4.5198L95.52 4.5698L95.43 4.6598L95.33 4.7298L95.22 4.7898L95.11 4.8498L95.01 4.9198L94.91 4.9998L94.8 5.0598L94.68 5.1098L94.58 5.1998L94.47 5.2698L94.35 5.3198L94.25 5.3998L94.15 5.4798L94.03 5.5298L93.94 5.6198L93.85 5.7098L93.74 5.7698L93.62 5.8298L93.52 5.8998L93.4 5.9698L93.48 6.0798L93.52 6.1998L93.59 6.3098L93.64 6.4198L93.72 6.5198L93.74 6.6498L93.82 6.7498L93.9 6.8498L93.95 6.9698L94.03 7.0698L94.07 7.1898L94.15 7.2898L94.2 7.3998L94.26 7.5098L94.3 7.6298L94.37 7.7398L94.44 7.8398L94.48 7.9598L94.57 8.0698H94.43L94.3 8.0598L94.17 8.0398L94.04 8.0798H93.91L93.78 8.0598H93.65L93.52 8.0698H93.39L93.26 8.0398H93.13H93L92.87 8.0798H92.74L92.61 8.0698H92.48H92.35L92.22 8.0498L92.09 8.0698H91.96L91.83 8.0598H91.7H91.57H91.44L91.31 8.0298L91.18 8.0598H91.05L90.92 8.0398H90.79H90.66L90.53 8.0198L90.4 8.0498L90.27 8.0698H90.14L90.01 8.0298H89.88H89.75L89.62 8.0698L89.49 8.0498H89.36L89.21 8.0598L89.33 7.9698L89.4 7.8598L89.47 7.7498L89.57 7.6698L89.63 7.5498L89.72 7.4598L89.79 7.3498L89.88 7.2598L89.99 7.1898L90.06 7.0898L90.15 6.9998L90.23 6.8998L90.31 6.7998L90.4 6.7098L90.5 6.6298L90.57 6.5198L90.64 6.4098L90.72 6.3098L90.82 6.2298L90.91 6.1398L91 6.0498L91.08 5.9498L91.14 5.8298L91.22 5.7298L91.31 5.6398L91.38 5.5298L91.49 5.4598L91.57 5.3598L91.64 5.2498L91.71 5.1398L91.81 5.0598L91.9 4.9698L91.99 4.8798L92.05 4.7598L92.16 4.6798L92.23 4.5698L92.32 4.4798L92.4 4.3798L92.5 4.2898L92.55 4.1598L92.64 4.0698L92.73 3.9798L92.82 3.8898L92.9 3.7898L92.97 3.6798L93.06 3.5798L93.14 3.4798L93.22 3.3798L93.3 3.2798L93.39 3.1898L93.48 3.0998L93.37 3.0398L93.26 2.9698L93.14 2.9298L93.05 2.8398L92.94 2.7698L92.81 2.7298L92.71 2.6498L92.6 2.5798L92.49 2.5098L92.37 2.4598L92.27 2.3798L92.16 2.3198L92.05 2.2498L91.93 2.2098L91.81 2.1598L91.72 2.0598L91.61 1.9998L91.49 1.9598L91.39 1.8798L91.28 1.8098L91.15 1.7798L91.04 1.7198L90.94 1.6398L90.84 1.5598L90.72 1.5098L90.6 1.4598L90.5 1.3798L90.39 1.3198L90.27 1.2698L90.16 1.2098L90.06 1.1298L89.94 1.0798L89.85 0.989805L89.74 0.919805L89.63 0.859805L89.5 0.829805L89.39 0.759805L89.28 0.699805L89.16 0.649805L89.06 0.569805L88.95 0.509805L88.85 0.419805L88.74 0.349805L88.61 0.309805L88.51 0.229805L88.4 0.169805L88.3 0.0898047L88.18 0.0498047L88.12 0.149805L88.02 0.239805L87.98 0.369805L87.89 0.459805L87.83 0.579805L87.72 0.659805L87.68 0.789805L87.59 0.889805L87.5 0.989805L87.45 1.1098L87.38 1.2198L87.3 1.3198L87.22 1.4198L87.15 1.5298L87.05 1.6198L86.99 1.7398L86.92 1.8498L86.84 1.9498L86.96 2.0098L87.08 2.0598L87.2 2.1098L87.31 2.1698L87.4 2.2698L87.52 2.3098L87.64 2.3498L87.76 2.3998L87.86 2.4798L87.97 2.5498L88.09 2.5998L88.23 2.6498L88.13 2.7598L88.05 2.8598L88.02 2.9898L87.92 3.0798L87.85 3.1898L87.79 3.2998L87.74 3.4198L87.68 3.5298L87.59 3.6198L87.53 3.7398L87.46 3.8498L87.38 3.9498L87.31 4.0598L87.26 4.1798L87.17 4.2798L87.12 4.3998L87.06 4.5098L86.97 4.6098L86.92 4.7298L86.84 4.8298L86.75 4.9298L86.7 5.0498L86.6 5.1398L86.55 5.2598L86.48 5.3698L86.41 5.4798L86.34 5.5898L86.26 5.6898L86.21 5.8098L86.12 5.9098L86.09 6.0398L86.01 6.1398L85.91 6.2298L85.88 6.3598L85.79 6.4498L85.71 6.5498L85.66 6.6698L85.6 6.7798L85.54 6.8898L85.46 6.9898L85.36 7.0798L85.3 7.1898L85.26 7.3198L85.15 7.3998L85.11 7.5298L85.04 7.6398L84.96 7.7398L84.87 7.8298L84.8 7.9398L84.74 8.0598L84.68 8.1798L84.62 8.2998L84.54 8.3998L84.48 8.5198L84.39 8.6098L84.32 8.7198L84.28 8.8398L84.18 8.9298L84.12 9.0398L84.05 9.1498L83.98 9.2598L83.91 9.3698L83.86 9.4898L83.76 9.5798L83.7 9.6998L83.64 9.8198L83.57 9.9298L83.51 10.0398L83.43 10.1398L83.35 10.2498L83.47 10.3198L83.59 10.3698L83.69 10.4498L83.8 10.5198L83.91 10.5898L84.02 10.6598L84.12 10.7398L84.22 10.8198L84.34 10.8498L84.36 10.7498L84.42 10.6498L84.45 10.5598L84.47 10.6698L84.53 10.7898L84.57 10.9098V11.0498L84.71 11.0898L84.8 11.1898L84.91 11.2498L85.01 11.3298L85.12 11.3998L85.24 11.4498L85.35 11.5198L85.46 11.5998L85.57 11.6698L85.68 11.7498L85.79 11.8198L85.9 11.8998L86 11.8098L86.09 11.7198L86.17 11.6198L86.25 11.5198L86.31 11.4098L86.39 11.3098L86.48 11.2198L86.57 11.1298L86.66 11.0398L86.78 11.0198H86.91H87.04L87.17 10.9898L87.3 11.0098H87.43H87.56H87.69L87.82 10.9598L87.95 10.9798L88.08 10.9598H88.21H88.34L88.47 10.9798L88.6 10.9398H88.73V10.8598L88.75 10.7598L88.82 10.6698L88.88 10.7798L88.96 10.8698L88.92 10.9198H89.04H89.17L89.3 10.9398L89.43 10.9198H89.56H89.69H89.82L89.95 10.8998H90.08H90.21L90.34 10.8698L90.47 10.9098H90.6L90.73 10.8798H90.86H90.99L91.12 10.8498H91.25H91.38L91.51 10.8698L91.64 10.8298H91.77L91.9 10.8198L92.03 10.8398H92.16L92.29 10.7898H92.42L92.55 10.8098L92.68 10.7898L92.81 10.8198L92.94 10.7998H93.07L93.2 10.7698H93.33L93.46 10.7898L93.59 10.7698H93.72L93.85 10.7598H94.11H94.24L94.37 10.7398H94.5L94.63 10.6998L94.76 10.7298L94.89 10.6998L95.01 10.6798L95.12 10.5998L95.2 10.7098H95.33L95.45 10.6598H95.58L95.71 10.6798L95.84 10.6498H95.97L96.01 10.7798L96.08 10.8898L96.16 10.9898L96.22 11.0998L96.26 11.2198L96.33 11.3298L96.4 11.4398L96.45 11.5598L96.51 11.6698L96.6 11.7698L96.66 11.8798L96.72 12.0098L96.61 11.9198L96.49 11.8798L96.39 11.8098L96.29 11.7298L96.16 11.6998L96.08 11.5998L95.97 11.5398L95.86 11.4698L95.73 11.4398L95.62 11.3798L95.53 11.2798L95.41 11.2298L95.31 11.3198L95.19 11.3698L95.11 11.4798L95 11.5498L94.87 11.5898L94.77 11.6798L94.67 11.7698L94.56 11.8298L94.46 11.9098L94.34 11.9698L94.26 12.0798L94.13 12.1298L94.03 12.2198L93.92 12.2898L93.83 12.3798L93.7 12.4198L93.58 12.4598L93.45 12.4298L93.32 12.4098H93.19L93.06 12.4498L92.93 12.4298H92.8H92.67H92.54L92.41 12.4198H92.28H92.15L92.02 12.4398L91.89 12.4198H91.76L91.63 12.4498H91.5H91.37H91.24L91.11 12.4198L90.98 12.4498H90.85L90.72 12.4698L90.59 12.4298H90.46L90.33 12.4598H90.2L90.07 12.4198L89.94 12.4398H89.81H89.68H89.53L89.55 12.2898V12.1498V12.0098V11.8698V11.7298V11.5898V11.4498L89.43 11.5098L89.31 11.5398H89.18L89.06 11.5598L88.95 11.6298L88.82 11.6598H88.69L88.57 11.7098L88.44 11.7298L88.32 11.7798H88.19L88.07 11.8398L87.94 11.8698H87.81L87.69 11.9198L87.56 11.9398L87.44 11.9898L87.32 12.0298H87.19L87.06 12.0498L86.94 12.0998L86.81 12.1198L86.68 12.1498L86.56 12.1998L86.44 12.2398L86.31 12.2598L86.19 12.3098L86.06 12.3398L85.93 12.3698L85.81 12.4098H85.68L85.55 12.4298L85.43 12.4898L85.31 12.5398H85.18L85.21 12.5998L85.06 12.6198H85.04H85.07H85.03L85.05 12.7298V12.8398L85.1 12.9598H85.01V12.8498V12.7398L85.07 12.6298H85.06L85.11 12.5898H84.99L84.88 12.6398L84.77 12.6598L84.79 12.7798V12.9098L84.83 13.0298L84.86 13.1498V13.2798V13.4098L84.92 13.5298L84.95 13.6498V13.9098L84.97 14.0398L85.02 14.1598L85.04 14.2898L85.06 14.4198V14.5498L85.12 14.6698L85.15 14.7898L85.13 14.9198L85.18 15.0398L85.21 15.1598V15.2898L85.23 15.4198V15.5498L85.27 15.6698L85.31 15.7898V15.9198L85.37 16.0398V16.1698L85.38 16.2998L85.43 16.4198V16.5498L85.48 16.6698V16.7998L85.51 16.9198L85.54 17.0498L85.57 17.1698L85.59 17.2998V17.4298L85.61 17.5498L85.66 17.6698L85.69 17.7898V17.9198V18.0498L85.76 18.1698V18.2998L85.78 18.4298L85.8 18.5598L85.82 18.6898L85.85 18.8098L85.9 18.9298L85.93 19.0598V19.1898V19.3198L85.98 19.4398L86 19.5698L86.04 19.6898L86.06 19.8198V19.9498L86.11 20.0698V20.1998L86.14 20.3198L86.18 20.4398V20.5698L86.2 20.6998L86.22 20.8298L86.27 20.9498V21.0798L86.32 21.1998L86.34 21.3298L86.36 21.4598L86.4 21.5798V21.7098L86.42 21.8398L86.55 21.7998L86.67 21.7598L86.8 21.7198L86.93 21.6998H87.06L87.18 21.6298V21.5998L87.24 21.4898L87.29 21.3498L87.36 21.4498L87.39 21.5498L87.35 21.5898H87.48L87.6 21.5598L87.72 21.5198L87.84 21.4798L87.96 21.4398L88.08 21.3998L88.2 21.3798L88.32 21.3498H88.45L88.58 21.3298L88.69 21.2698H88.82L88.94 21.2198L89.06 21.1698H89.19L89.31 21.1298L89.43 21.0898L89.54 21.0398V20.9098L89.57 20.7698V20.6298L89.53 20.4898L89.56 20.3598L89.68 20.3798H89.81L89.94 20.4098L90.07 20.3898L90.19 20.4498H90.45L90.57 20.4998L90.7 20.4698L90.82 20.5098H90.95L91.07 20.5698L91.2 20.5498H91.33L91.46 20.5898H91.59L91.71 20.6398H91.84L91.97 20.6498L92.09 20.6898H92.22L92.34 20.7298L92.47 20.7498H92.6L92.73 20.7798H92.86L92.99 20.7998H93.12L93.25 20.8298L93.38 20.8598L93.51 20.8398L93.64 20.8598L93.77 20.8898H93.9L94.02 20.9198L94.15 20.9398L94.28 20.9698L94.41 20.9398L94.53 20.9898H94.66L94.78 21.0298H94.91L95.04 21.0598H95.17L95.3 21.0898L95.43 21.1098H95.56L95.69 21.1298H95.82L95.95 21.1498H96.08L96.21 21.1898L96.33 21.2298L96.46 21.1998H96.59L96.72 21.2498L96.85 21.2698L96.97 21.3098H97.1H97.23H97.36L97.49 21.3398L97.61 21.3798L97.74 21.3598L97.86 21.3898L97.9 21.2698V21.1398L97.96 21.0198L97.98 20.8898V20.7598L98.04 20.6398V20.5098L98.07 20.3898L98.1 20.2598V20.1298L98.15 20.0098L98.17 19.8798L98.21 19.7598L98.19 19.6298L98.24 19.5098V19.3798L98.29 19.2598L98.31 19.1298V18.9998L98.34 18.8798L98.39 18.7598V18.6298L98.41 18.4998L98.43 18.3698L98.47 18.2498L98.5 18.1198L98.52 17.9898L98.55 17.8598H98.41H98.28L98.15 17.8398L98.02 17.8698H97.89H97.76H97.63H97.48L97.52 17.7298V17.5998L97.56 17.4798L97.6 17.3598L97.63 17.2398V17.1098L97.66 16.9798L97.68 16.8498L97.7 16.7198L97.75 16.5998L97.79 16.4798V16.3498L97.83 16.2298V16.0998L97.88 15.9798V15.8498L97.9 15.7198L97.92 15.5898L97.95 15.4698L98 15.3498V15.2198V15.0898L98.06 14.9698V14.8398L98.11 14.7198L98.16 14.5998L98.24 14.4998L98.27 14.3698L98.34 14.2598L98.4 14.1398L98.46 14.0198L98.54 13.9198L98.6 13.7998L98.68 13.6898L98.71 13.5598L98.81 13.4598L98.85 13.3298L98.93 13.2098L98.9 13.2298ZM93.85 6.2398L93.74 6.1898L93.69 6.0798L93.76 5.9698L93.84 5.8598L93.89 5.9498L93.94 6.0498L94.01 6.1498L93.86 6.2298L93.85 6.2398ZM90.23 5.7298L90.29 5.8698V5.9198L90.36 6.0498L90.42 6.1798L90.38 6.0498L90.29 5.9298V5.8598L90.21 5.7398H90.24V5.7298H90.23ZM90.09 6.7798L90.13 6.8698H90.07V6.7698H90.1L90.09 6.7798ZM89.88 6.3798V6.4298H89.84V6.3998L89.88 6.3898V6.3798ZM85.98 10.7098L85.87 10.5798L85.98 10.5398L86.05 10.6698L85.98 10.7098ZM86.14 10.1998H86.1L86.15 10.1798V10.1998H86.14ZM86.26 10.7298L86.21 10.6498L86.27 10.6198L86.3 10.7098L86.27 10.7298H86.26ZM86.45 10.2998L86.33 10.1898L86.45 10.1398L86.53 10.1898L86.61 10.2398L86.53 10.2798L86.44 10.2998H86.45ZM87.71 1.3398L87.74 1.3798H87.69L87.71 1.3398ZM87.73 1.8498L87.7 1.8898L87.68 1.8298L87.73 1.8098V1.8398V1.8498ZM88.28 2.3798L88.25 2.5098L88.28 2.3998L88.3 2.3798V2.3998H88.28V2.3798ZM88.34 1.9498L88.3 1.9098L88.35 1.8798V1.9198L88.34 1.9398V1.9498ZM88.9 10.0998L88.81 10.0698L88.75 9.9898L88.85 9.9098L88.96 9.9898L89.07 10.0698L88.9 10.0998ZM85.51 12.8798L85.4 12.8598L85.51 12.7298L85.6 12.7798L85.51 12.8798ZM85.67 13.4898L85.69 13.6698L85.66 13.4898H85.67ZM86.05 13.4698V13.4298L86.07 13.4798H86.05V13.4698ZM88.13 20.7498H88.02L88.07 20.6298L88.15 20.6898L88.12 20.7498H88.13ZM88.62 20.2398L88.6 20.2098H88.66V20.2398H88.63H88.62ZM89.21 20.1298L89.16 20.0998L89.21 20.0698L89.23 20.1098L89.2 20.1298H89.21ZM95.15 15.2998L95.18 15.3398H95.13L95.15 15.2998ZM89.69 17.8998L89.59 17.8798V17.7498V17.6198V17.4898V17.3598V17.2298L89.6 17.0998L89.57 16.9698V16.8398V16.7098L89.59 16.5798V16.4498L89.55 16.3198V16.1898L89.58 16.0598L89.6 15.9298L89.58 15.7998V15.6698L89.57 15.5398V15.4098L89.58 15.2798L89.56 15.1498L89.58 15.0198L89.6 14.9098L89.71 14.8898H89.84L89.97 14.9098H90.1L90.23 14.8998L90.36 14.8798L90.49 14.9098H90.62L90.75 14.8898H90.88H91.01L91.14 14.9198L91.27 14.8898H91.53L91.66 14.8998L91.79 14.8798H91.92L92.05 14.9098H92.18L92.31 14.8798H92.44L92.57 14.8598L92.7 14.8898L92.83 14.8698H92.96L93.09 14.8798H93.22L93.35 14.8598L93.48 14.8798L93.61 14.8498L93.74 14.8798L93.87 14.8998L94 14.8598H94.14V15.0098L94.1 15.1398L94.15 15.2698L94.11 15.3998L94.13 15.5298V15.6598L94.16 15.7898L94.12 15.9198V16.0498L94.14 16.1798V16.3098L94.16 16.4398V16.5698L94.11 16.6998V16.8298L94.15 16.9598V17.0898L94.14 17.2198L94.16 17.3498L94.14 17.4798V17.6098L94.13 17.7398L94.15 17.8698H94.02L93.89 17.8898L93.76 17.8698H93.63L93.5 17.8798L93.37 17.8598H93.24L93.11 17.8898L92.98 17.8698L92.85 17.8898L92.72 17.8698L92.59 17.8898L92.46 17.8598L92.33 17.8898L92.2 17.8498L92.07 17.8798L91.94 17.8598L91.81 17.8898H91.68H91.55H91.42L91.29 17.8798L91.16 17.8998H91.03L90.9 17.8698L90.77 17.8898H90.64L90.51 17.8598L90.38 17.8798H90.25L90.12 17.8598L89.99 17.8798L89.93 17.9898L89.83 18.0698L89.75 17.8998H89.69ZM94 18.2298L94.09 18.1598L94.15 18.2598L94.07 18.3198L94 18.2198V18.2298ZM94.18 18.8398L94.1 18.7698L94.22 18.7498L94.25 18.7798L94.17 18.8298L94.18 18.8398ZM95.17 18.7198H95.11L95.19 18.6598L95.21 18.6998L95.17 18.7198ZM95.39 14.5298L95.35 14.4798H95.41V14.5198H95.39V14.5298ZM95.83 18.4798L95.84 18.5098V18.4898H95.82L95.83 18.4798ZM96.37 15.0398L96.26 15.0198L96.33 14.9298L96.42 14.9698L96.37 15.0398ZM97.3 21.2098L97.24 21.1598L97.29 21.1298V21.1998H97.32V21.1798L97.3 21.1998V21.2098ZM97.31 20.6498H97.2L97.29 20.5398L97.33 20.6198L97.31 20.6398V20.6498ZM97.65 14.5998L97.53 14.4798L97.59 14.3798L97.67 14.4398L97.75 14.4798L97.65 14.5898V14.5998ZM97.79 15.4898L97.74 15.4698L97.8 15.4498V15.4798L97.79 15.4898ZM97.79 15.2298V15.1998L97.82 15.2298H97.79ZM97.91 14.5998L97.85 14.5098L97.91 14.4698L97.94 14.5798L97.91 14.6098V14.5998Z" fill="white"/>
<path d="M60.65 14.6302L60.72 14.5602L60.79 14.4702L60.91 14.4202L60.98 14.3202V14.3402L60.86 14.3102L60.76 14.2502H60.64L60.68 14.1302L60.78 14.2002L60.87 14.2602L60.97 14.3102L61.09 14.2602L61.17 14.1602L61.27 14.0902L61.36 14.0102L61.43 13.9002L61.55 13.8402L61.65 13.7702L61.74 13.6802L61.83 13.5902L61.94 13.5302L62.01 13.4202L62.11 13.3402L62.21 13.2702L62.32 13.2002L62.39 13.0902L62.51 13.0402L62.59 12.9302L62.68 12.8402L62.77 12.7502L62.87 12.6802L62.98 12.6102L63.08 12.5402L63.17 12.4602L63.26 12.3702L63.36 12.2902L63.44 12.1902L63.54 12.1102L63.63 12.0202L63.72 11.9302L63.83 11.8602L63.91 11.7602L64 11.6802L64.03 11.5602V11.4302L64.05 11.3002V11.1702L64.07 11.0402V10.9102L64.04 10.7802L64.07 10.6502V10.5202L64.09 10.3902V10.2602V10.1302V10.0002L64.1 9.87023V9.74023L64.11 9.61023V9.48023V9.35023L64.14 9.22023L64.16 9.09023V8.96023L64.14 8.83023V8.57023L64.17 8.44023V8.31024L64.18 8.18023L64.2 8.05023L64.18 7.92023L64.23 7.79023L64.21 7.66023V7.53023L64.23 7.40023V7.27023L64.25 7.14023V7.01023V6.88023H64.37L64.49 6.83023L64.61 6.79023H64.74L64.86 6.77023H64.99L65.11 6.70023L65.23 6.67023H65.36L65.48 6.65023H65.61L65.73 6.61023L65.84 6.55023V6.52023L65.83 6.40023L65.91 6.30023L65.98 6.34023L66.03 6.23023V6.10023V5.97023L66.1 5.85023V5.72023L66.13 5.59023V5.46023L66.15 5.34023L66.18 5.22023L66.23 5.10023V4.97023L66.26 4.84023L66.29 4.72023V4.46023L66.34 4.34023L66.36 4.21023V4.08023L66.4 3.96023L66.45 3.84023V3.71023V3.58023L66.5 3.46023V3.33023L66.53 3.20023V3.07023L66.58 2.93023L66.44 2.98023L66.32 3.03023L66.2 3.07023L66.08 3.10023H65.95L65.83 3.14023L65.71 3.18023H65.58L65.47 3.25023L65.35 3.28023L65.23 3.30023H65.1L64.98 3.33023L64.86 3.39023L64.73 3.41023H64.6L64.48 3.46023L64.36 3.49023L64.24 3.54023H64.11L63.99 3.60023L63.87 3.63023H63.74L63.62 3.70023L63.5 3.75023L63.37 3.77023H63.24L63.12 3.83023L62.99 3.85023L62.87 3.88023L62.75 3.93023L62.62 3.95023L62.5 3.98023L62.38 4.02023H62.25L62.13 4.09023L62 4.11023L61.88 4.15023L61.92 4.17023L61.8 4.28023L61.67 4.20023H61.55L61.44 4.28023L61.32 4.30023H61.08L60.96 4.33023H60.72L60.6 4.32023H60.48H60.35L60.37 4.18023L60.39 4.05023L60.43 3.92023L60.4 3.79023L60.42 3.66023L60.45 3.53023V3.40023L60.5 3.28023V3.15023V3.02023L60.52 2.89023L60.56 2.76023L60.54 2.63023L60.59 2.51023V2.38023L60.62 2.25023V2.12023L60.65 1.99023V1.86023V1.73023L60.71 1.61023V1.48023V1.37023L60.61 1.31023H60.48L60.36 1.26023L60.23 1.24023L60.11 1.20023H59.98L59.86 1.17023L59.74 1.13023L59.62 1.07023H59.49L59.37 1.03023H59.24L59.11 1.00023L59 0.920234L58.87 0.900234H58.74L58.62 0.860234H58.49L58.37 0.780234H58.24L58.12 0.740234L58 0.700234L57.87 0.670234L57.75 0.630234H57.62L57.5 0.590234L57.38 0.550234H57.25L57.13 0.480234H57L56.87 0.450234L56.74 0.430234L56.61 0.410234L56.49 0.340234L56.36 0.320234H56.23L56.1 0.290234L55.98 0.240234L55.86 0.190234H55.72L55.6 0.170234H55.59L55.55 0.310234L55.47 0.410234L55.43 0.270234V0.120234L55.3 0.0702344H55.17L55.04 0.0302344L54.91 -0.00976562L54.88 0.120234L54.84 0.240234L54.81 0.360234V0.490234L54.75 0.610234V0.740234L54.71 0.860234V0.990234L54.64 1.11023V1.24023L54.6 1.36023L54.58 1.49023L54.52 1.62023L54.66 1.64023L54.78 1.68023L54.9 1.71023L55.02 1.74023L55.14 1.77023H55.27L55.39 1.81023H55.52L55.64 1.86023L55.76 1.91023L55.88 1.93023L56 1.98023H56.13L56.25 2.01023L56.37 2.04023L56.4 2.16023L56.38 2.29023V2.42023L56.4 2.55023V2.68023L56.41 2.81023V2.94023V3.07023V3.20023V3.33023L56.43 3.46023L56.4 3.59023V3.72023V3.85023L56.45 3.97023L56.43 4.10023V4.23023L56.46 4.37023L56.32 4.35023L56.19 4.33023L56.06 4.38023H55.93L55.8 4.35023L55.67 4.37023L55.54 4.35023H55.41L55.28 4.37023L55.15 4.33023L55.02 4.36023L54.89 4.34023L54.76 4.36023H54.63H54.5L54.37 4.33023L54.24 4.36023H54.11L53.99 4.31023L53.87 4.27023H53.74L53.62 4.24023L53.5 4.19023L53.38 4.15023H53.25L53.12 4.12023L53 4.08023H52.87L52.75 4.05023L52.62 4.03023L52.5 3.99023L52.37 3.97023L52.25 3.92023H52.12L52 3.89023L51.88 3.84023H51.75L51.62 3.82023L51.5 3.78023H51.37L51.24 3.75023L51.12 3.71023L51 3.67023L50.87 3.65023L50.75 3.60023H50.62L50.5 3.54023L50.37 3.52023L50.24 3.50023V3.64023L50.29 3.77023V3.90023V4.03023L50.31 4.16023L50.35 4.29023L50.32 4.42023V4.55023L50.38 4.68023V4.81023L50.41 4.94023L50.43 5.07023V5.20023L50.46 5.33023V5.46023L50.5 5.59023L50.48 5.72023L50.54 5.84023V5.97023L50.53 6.10023L50.58 6.23023L50.61 6.36023V6.49023L50.63 6.62023V6.88023L50.67 7.01023L50.7 7.14023L50.68 7.27023L50.7 7.41023H50.84L50.98 7.38023L51.12 7.42023L51.26 7.38023H51.4L51.54 7.40023V7.28023V7.17023L51.51 7.06023L51.6 6.97023L51.66 6.87023V7.00023L51.72 7.13023V7.27023V7.41023L51.85 7.39023H51.98L52.11 7.44023H52.36L52.49 7.41023L52.62 7.44023L52.75 7.42023H52.88L53.01 7.45023H53.14L53.27 7.44023L53.4 7.42023H53.53L53.66 7.46023H53.91H54.04H54.17L54.3 7.44023L54.41 7.46023L54.31 7.52023L54.19 7.56023H54.06L53.95 7.65023L53.83 7.69023L53.7 7.71023L53.59 7.77023L53.46 7.80023L53.34 7.84023L53.23 7.90023L53.1 7.92023L52.99 7.99023H52.85L52.74 8.08023L52.61 8.11023L52.48 8.14023L52.35 8.16023L52.24 8.24023L52.12 8.29023H51.99L51.87 8.36023L51.9 8.49023L51.96 8.60023L52 8.72023L52.06 8.83023L52.1 8.95023V9.08023L52.19 9.19023L52.21 9.32023L52.27 9.43023L52.29 9.56024L52.36 9.67023L52.42 9.78023L52.46 9.90023L52.5 10.0202L52.54 10.1402L52.59 10.2602L52.63 10.3802L52.67 10.5002L52.71 10.6202L52.75 10.7402L52.8 10.8602L52.87 10.9702L52.9 11.0902L52.92 11.2202L52.99 11.3302L53.03 11.4502L53.06 11.5802L53.13 11.6902V11.8202L53.19 11.9402L53.23 12.0602L53.3 12.1702L53.32 12.3002L53.39 12.4102L53.42 12.5402L53.47 12.6602L53.53 12.7802L53.56 12.9102L53.59 13.0302L53.65 13.1502L53.7 13.2702L53.76 13.3902L53.8 13.5102L53.85 13.6302L53.89 13.7502L53.99 13.8302L54.08 13.9302L54.17 14.0302L54.29 14.0902L54.38 14.1802L54.45 14.2902L54.56 14.3602L54.66 14.4402L54.76 14.5302L54.85 14.6202L54.95 14.7102L55.04 14.8002L55.13 14.9002L55.25 14.9802L55.14 15.0702L55.02 15.1302L54.91 15.2002L54.83 15.3002L54.73 15.3802L54.63 15.4502L54.55 15.5502L54.45 15.6302L54.35 15.7002L54.26 15.7902L54.15 15.8502L54.06 15.9402L53.96 16.0102L53.84 16.0502L53.73 16.1102L53.62 16.1702L53.51 16.2102L53.45 16.2902L53.37 16.3702L53.31 16.2402L53.18 16.2902L53.07 16.3502L52.94 16.3702L52.82 16.4202L52.7 16.4702L52.57 16.5002L52.45 16.5602L52.32 16.5802L52.2 16.6302L52.08 16.6902L51.95 16.7102L51.83 16.7602L51.71 16.8002L51.59 16.8402L51.47 16.8902L51.35 16.9302L51.23 16.9702L51.11 17.0102L50.99 17.0602L50.86 17.0802L50.74 17.1302L50.62 17.1702H50.49L50.38 17.2502L50.26 17.2902L50.14 17.3402L50.02 17.3802H49.89L49.78 17.4502L49.65 17.4802L49.53 17.5302L49.41 17.5702L49.47 17.6802L49.51 17.8002L49.6 17.9002L49.66 18.0102L49.69 18.1402L49.77 18.2402L49.85 18.3502L49.89 18.4702L49.97 18.5802L50.03 18.7002L50.08 18.8202L50.15 18.9302L50.22 19.0402L50.27 19.1602L50.31 19.2802L50.4 19.3802L50.44 19.5102L50.51 19.6202L50.59 19.7202L50.63 19.8402L50.69 19.9602L50.74 20.0802L50.8 20.2002L50.86 20.3202L50.96 20.4202L51.02 20.5402L51.07 20.6602L51.11 20.7802L51.17 20.8902L51.23 21.0002L51.27 21.1202L51.35 21.2302L51.41 21.3402L51.47 21.4502L51.51 21.5702L51.57 21.6902L51.63 21.8002L51.71 21.9102L51.77 22.0302L51.83 22.1702L51.94 22.0702L52.04 22.0002L52.14 21.9202L52.21 21.8102L52.32 21.7502L52.4 21.6502L52.5 21.5802L52.59 21.4902L52.69 21.4202L52.8 21.3502L52.88 21.2502L52.97 21.1602L53.08 21.1002L53.17 21.0202L53.28 20.9502L53.22 20.8902L53.25 20.7802L53.31 20.7102L53.44 20.7502L53.53 20.6702L53.63 20.5902L53.73 20.5202L53.83 20.4402L53.94 20.3702L54.04 20.2902L54.11 20.1802L54.22 20.1102L54.31 20.0202L54.41 19.9402L54.52 19.8702L54.62 19.8002L54.7 19.7002L54.79 19.6102L54.89 19.5302L55.01 19.4702L55.09 19.3702L55.19 19.2902L55.3 19.2202L55.38 19.1202L55.49 19.0502L55.59 18.9702L55.69 18.8902L55.77 18.7902L55.86 18.7002L55.96 18.6202L56.07 18.5502L56.16 18.4602L56.27 18.3902L56.36 18.3002L56.45 18.2102L56.55 18.1302L56.66 18.0602L56.74 17.9602L56.83 17.8702L56.93 17.7902L57.04 17.7202L57.13 17.6302L57.23 17.5602L57.33 17.4802L57.41 17.3802L57.52 17.3202L57.6 17.2202L57.7 17.1102L57.78 17.2402L57.91 17.3002L57.99 17.4202L58.01 17.2602L58.11 17.3502L58.08 17.5002L58.17 17.6002L58.29 17.6602L58.39 17.7402L58.46 17.8502L58.57 17.9302L58.67 18.0202L58.76 18.1102L58.86 18.2002L58.94 18.3002L59.05 18.3702L59.14 18.4602L59.23 18.5502L59.33 18.6302L59.44 18.7002L59.52 18.8002L59.63 18.8702L59.71 18.9702L59.83 19.0302L59.93 19.1202L60.03 19.2002L60.12 19.3002L60.21 19.4002L60.3 19.4902L60.4 19.5702L60.5 19.6502L60.58 19.7602L60.69 19.8302L60.78 19.9202L60.89 19.9902L60.99 20.0702L61.06 20.1902L61.18 20.2502L61.25 20.3702L61.37 20.4302L61.46 20.5302L61.55 20.6202L61.65 20.7002L61.74 20.7902L61.83 20.8902L61.94 20.9702L62.02 21.0702L62.15 21.1202L62.24 21.2202L62.33 21.3302L62.46 21.3002L62.58 21.2702L62.69 21.2002L62.81 21.1702H62.94L63.05 21.1002H63.18L63.3 21.0802L63.42 21.0402L63.53 20.9802L63.66 20.9602L63.78 20.9202L63.9 20.8902H64.03L64.15 20.8702L64.27 20.8402L64.38 20.7602H64.51L64.63 20.7002H64.76L64.88 20.6602L65 20.6302L65.11 20.5802L65.17 20.4602L65.24 20.3102L65.28 20.4402L65.31 20.5802L65.44 20.5402L65.57 20.4902L65.69 20.4402H65.83L65.96 20.4002L66.08 20.3602V20.2402L66.15 20.1202L66.13 19.9902L66.16 19.8702L66.19 19.7502V19.6202L66.23 19.5002L66.26 19.3702L66.3 19.2502L66.32 19.1202L66.35 19.0002V18.8702L66.4 18.7502V18.6202L66.44 18.5002V18.3702L66.49 18.2502V18.1202L66.52 17.9902V17.8602L66.55 17.7402L66.57 17.6102L66.61 17.4902V17.3602L66.63 17.2302L66.67 17.1102V16.9802L66.74 16.8602L66.76 16.7302V16.6002L66.8 16.4802V16.3502L66.85 16.2302V16.1002L66.87 15.9702L66.9 15.8502V15.7202L66.94 15.6002L66.97 15.4802L67 15.3502V15.2202L67.03 15.0902L66.9 15.1302L66.77 15.1502L66.65 15.2002L66.53 15.2502L66.41 15.2802L66.29 15.3102L66.17 15.3602L66.05 15.3902L65.93 15.4202L65.81 15.4802L65.68 15.5002L65.56 15.5502L65.44 15.6002L65.31 15.6202L65.19 15.6702L65.08 15.7302H64.95L64.83 15.7702L64.71 15.8202L64.6 15.8802L64.48 15.9202H64.35L64.23 15.9602L64.11 16.0202L63.98 16.0402L63.86 16.0802L63.74 16.1202L63.63 16.1802L63.5 16.2002L63.37 16.2202L63.25 16.2702L63.13 16.3102L63 16.3302L62.88 16.3802L62.76 16.4402L62.66 16.3502L62.55 16.2802L62.46 16.1902L62.38 16.0902L62.29 16.0002L62.18 15.9302L62.07 15.8702L61.97 15.7902L61.89 15.6802L61.8 15.5902L61.68 15.5402L61.6 15.4302L61.5 15.3602L61.41 15.2702L61.32 15.1802L61.22 15.1002L61.1 15.0502L61.01 14.9602L60.93 14.8602L60.82 14.8002L60.72 14.7202L60.65 14.6202V14.6302ZM65.87 6.01023H65.89V6.07023L65.86 6.03023V6.00023L65.87 6.01023ZM65.58 5.60023L65.7 5.67023L65.62 5.84023L65.56 5.67023L65.58 5.60023ZM61.31 11.0602L61.33 11.0802H61.27L61.31 11.0602ZM55.66 0.610234H55.64V0.550234L55.67 0.580234V0.610234H55.66ZM56.37 1.18023V1.15023H56.44L56.42 1.20023H56.37V1.18023ZM51.44 6.16023V6.14023V6.13023V6.15023L51.5 6.05023L51.46 6.16023H51.44ZM51.51 6.85023H51.47L51.51 6.73023L51.58 6.83023L51.51 6.86023V6.85023ZM52.26 6.66023H52.28V6.72023L52.25 6.69023V6.66023H52.26ZM52.24 7.10023V7.07023H52.31L52.29 7.12023H52.24V7.10023ZM53.81 13.0502V12.9602L53.85 13.0202L53.81 13.0502ZM54.08 13.4502L54 13.5502L53.94 13.4502L54.02 13.3702L54.05 13.2602L54.1 13.3602L54.08 13.4602V13.4502ZM54.35 13.4702V13.5002V13.4602L54.37 13.5102L54.35 13.4702L54.41 13.4402L54.36 13.4802L54.35 13.4702ZM50.18 18.3302L50.09 18.2402L50.13 18.1202L50.22 18.2702L50.18 18.3402V18.3302ZM51.5 16.9902V16.9602L51.55 17.0102L51.5 16.9902ZM51.66 17.1002L51.61 17.0202L51.67 16.9002L51.7 17.0202L51.65 17.1002H51.66ZM53.01 17.4702V17.4302L53.07 17.4202V17.4702H53.01ZM53.73 17.2802L53.68 17.2602H53.73V17.2802ZM61.06 10.4302L61.08 10.4702L61.02 10.5002L61.04 10.4102L61.06 10.4302ZM60.93 10.1402L60.96 10.1702L60.91 10.2002L60.93 10.1402ZM56.38 7.26023L56.4 7.29023H56.34L56.38 7.26023ZM55.98 15.0502L55.89 15.1502L55.82 15.0502L55.9 14.9702L55.95 14.8602L55.98 15.0402V15.0502ZM55.88 9.98023V9.95023L55.95 9.99023H55.89L55.88 9.98023ZM56.15 10.5302L56.1 10.4602L56.04 10.3702L56.15 10.2602L56.25 10.3702L56.21 10.4702L56.14 10.5202L56.15 10.5302ZM57.54 17.1902L57.5 17.1302L57.55 17.0502L57.57 17.1102L57.55 17.2002L57.54 17.1902ZM58.15 17.1602L58.17 17.1802V17.2002L58.15 17.1602ZM58.21 16.8802V16.8602L58.26 16.8802H58.21ZM58.91 16.8002L58.81 16.7602L58.91 16.7802V16.8002ZM58.15 12.5202L58.06 12.4602L57.95 12.4002L57.88 12.2902L57.76 12.2302L57.66 12.1602L57.57 12.0802L57.5 11.9702L57.39 11.9102L57.3 11.8302L57.21 11.7502L57.12 11.6702L57.02 11.6002L56.92 11.5202L56.85 11.4202L56.8 11.3102L56.77 11.1902L56.73 11.0702L56.66 10.9602V10.8302L56.62 10.7102L56.57 10.5902L56.52 10.4702V10.3402L56.43 10.2302L56.4 10.1102L56.37 9.99023L56.35 9.86023L56.28 9.75023V9.62023L56.21 9.51023L56.17 9.39023L56.13 9.27024L56.1 9.15023L56.08 9.02024L56.05 8.90023L56.01 8.78023L55.97 8.66023L55.93 8.54023L55.87 8.43023L55.83 8.31024L55.78 8.19023L55.73 8.07023L55.71 7.94023L55.65 7.83023L55.61 7.71023L55.59 7.58023L55.54 7.45023L55.69 7.47023L55.83 7.45023L55.97 7.48023H56.12L56.01 7.32023L56.07 7.18023L56.13 7.06023L56.17 7.20023L56.21 7.34023L56.26 7.46023H56.39H56.52H56.65H56.78H56.91H57.04L57.17 7.49023H57.3H57.43L57.56 7.47023H57.69H57.82L57.95 7.49023H58.08H58.21H58.34H58.47L58.6 7.53023L58.73 7.51023H58.86H58.99L59.12 7.49023L59.25 7.52023H59.38H59.51L59.64 7.54023H59.77L59.9 7.51023L60.03 7.54023H60.29L60.42 7.51023H60.56V7.65023V7.78023V7.91023V8.04023L60.62 8.16023L60.59 8.29023L60.63 8.41023L60.61 8.54023L60.65 8.66023L60.63 8.79023L60.67 8.91023L60.69 9.04023L60.65 9.17023L60.67 9.30023L60.69 9.43023L60.73 9.55023V9.68023V9.81024L60.71 9.94023L60.73 10.0702V10.2002L60.74 10.3302L60.77 10.4502L60.68 10.5502L60.56 10.6202L60.46 10.7102L60.37 10.8102L60.26 10.8802L60.21 10.9902V11.1102L60.19 11.2302L60.15 11.3202V11.2302L60.12 11.1202L60.09 11.0202L59.97 11.0802L59.88 11.1802L59.79 11.2702L59.7 11.3602L59.6 11.4402L59.48 11.4902L59.39 11.5802L59.3 11.6702L59.18 11.7302L59.11 11.8402L59.01 11.9202L58.91 12.0002L58.79 12.0602L58.69 12.1402L58.61 12.2502L58.5 12.3302L58.38 12.3902L58.29 12.4802L58.2 12.5502L58.15 12.5202ZM60.41 11.0702L60.38 11.0902L60.32 11.0602H60.42V11.0702H60.41ZM60.41 11.3702L60.33 11.3302L60.39 11.2302L60.48 11.2902L60.41 11.3702ZM61.23 18.2902V18.1902L61.27 18.2502L61.23 18.2802V18.2902ZM62.01 17.9902V17.9702L62.07 17.9902H62.01ZM65.04 20.0302L65.09 20.1102L65.03 20.2202L65 20.1002L65.04 20.0302ZM64.68 19.7402L64.72 19.8102L64.68 19.8702L64.65 19.8202L64.67 19.7402H64.68ZM64.41 16.9602L64.44 16.9802L64.39 17.0302V16.9402L64.41 16.9502V16.9602ZM64.15 19.2302V19.2602L64.11 19.3102L64.09 19.2602L64.14 19.2302H64.15Z" fill="white"/>
</g>
<defs>
<clipPath id="clip0_2719_805">
<rect width="100.19" height="22.2" fill="white"/>
</clipPath>
</defs>
</svg>
