<svg width="152" height="30" viewBox="0 0 152 30" fill="none" xmlns="http://www.w3.org/2000/svg">
<g clip-path="url(#clip0_3401_6228)">
<path d="M5.4787 26.0216C5.4787 26.0216 4.21323 23.9528 4.57696 22.4979C5.77423 17.671 15.7616 11.821 15.7616 11.821L12.776 8.88086C12.776 8.88086 3.66006 12.9804 1.25794 19.6563C0.682034 21.2552 1.81868 22.7783 1.81868 22.7783L5.47112 26.0216H5.4787Z" fill="white"/>
<path d="M17.5726 29.6891C21.4903 28.9086 23.8545 27.5749 23.8545 27.5749L21.6722 23.8013C21.6722 23.8013 15.5646 26.3701 11.897 26.5671C5.78937 26.893 1.86414 22.8086 1.86414 22.8086C1.86414 22.8086 4.00104 29.2041 11.4423 29.8937C13.6474 30.0983 15.9131 30.0301 17.5726 29.6967" fill="white"/>
<path d="M14.5339 12.0714L15.9661 11.8213C15.9661 11.8213 22.0661 11.2757 23.8696 11.4576C29.1058 11.9956 28.9997 13.2156 28.9997 13.2156L29.2574 12.0183C29.2574 12.0183 28.7875 10.3209 26.3551 10.0178C20.7779 9.31311 14.5264 12.0638 14.5264 12.0638" fill="white"/>
<path d="M29.068 11.6016C29.068 11.6016 29.3105 12.5336 28.6058 13.7385C25.9308 18.2851 16.2542 22.7559 16.2542 22.7559L17.7394 25.1201C17.7394 25.1201 25.3322 21.786 29.1741 16.0269C30.0682 14.6933 29.894 13.4581 29.894 13.4581L29.0604 11.6016H29.068Z" fill="white"/>
<path d="M12.5032 5.93355L12.8821 6.99442C12.8821 6.99442 19.9596 4.19069 22.1647 4.19069C28.2723 4.19069 28.0222 7.59306 28.0222 7.59306L28.4087 5.56224L28.4239 4.0164C28.4239 4.0164 28.1208 2.2508 25.1655 2.09925C18.391 1.75068 12.5108 5.93355 12.5108 5.93355" fill="white"/>
<path d="M28.2496 3.60693C28.2496 3.60693 28.6739 6.30458 27.5449 7.85801C23.7863 13.0336 12.4956 17.906 12.4956 17.906L14.7462 21.422C14.7462 21.422 22.9073 18.0272 28.8255 10.927C30.2425 9.22957 29.9849 7.46397 29.9849 7.46397L28.2496 3.60693Z" fill="white"/>
<path d="M17.5196 15.2993H15.7692L21.998 0H23.6878L17.5196 15.2993Z" fill="white"/>
<path d="M11.2983 0.447266H7.17603L13.3973 15.2995H17.5195L11.2983 0.447266Z" fill="white"/>
<path d="M0.939618 13.2383C0.697132 13.2383 0.50769 13.4505 0.50769 13.7081C0.50769 13.9657 0.70471 14.1855 0.939618 14.1855C1.1821 14.1855 1.37154 13.9733 1.37154 13.7157C1.37154 13.458 1.17453 13.2383 0.939618 13.2383Z" fill="white"/>
<path d="M1.83382 11.4194C1.52313 11.4194 1.27307 11.6922 1.27307 12.0332C1.27307 12.3742 1.52313 12.647 1.83382 12.647C2.1445 12.647 2.39457 12.3742 2.39457 12.0332C2.39457 11.6922 2.1445 11.4194 1.83382 11.4194Z" fill="white"/>
<path d="M2.85678 9.61621C2.49305 9.61621 2.18994 9.94205 2.18994 10.3361C2.18994 10.7301 2.48547 11.0635 2.85678 11.0635C3.2205 11.0635 3.52361 10.7453 3.52361 10.3437C3.52361 9.94205 3.22808 9.61621 2.85678 9.61621Z" fill="white"/>
<path d="M3.81153 7.69873C3.36445 7.69873 3.0083 8.08519 3.0083 8.57016C3.0083 9.05513 3.37203 9.44917 3.81153 9.44917C4.25862 9.44917 4.61477 9.06271 4.61477 8.57774C4.61477 8.09277 4.25862 7.69873 3.81153 7.69873Z" fill="white"/>
<path d="M4.69055 5.979C4.198 5.979 3.79639 6.41093 3.79639 6.94895C3.79639 7.48696 4.198 7.92647 4.69055 7.92647C5.1831 7.92647 5.58472 7.49454 5.58472 6.95652C5.58472 6.41851 5.1831 5.979 4.69055 5.979Z" fill="white"/>
<path d="M5.5999 4.08447C5.03157 4.08447 4.56934 4.5846 4.56934 5.20597C4.56934 5.82734 5.03157 6.33504 5.5999 6.33504C6.16822 6.33504 6.63046 5.83491 6.63046 5.21355C6.63046 4.59218 6.16822 4.08447 5.5999 4.08447Z" fill="white"/>
<path d="M6.42591 2.28076C5.8197 2.28076 5.32715 2.8112 5.32715 3.47046C5.32715 4.12971 5.8197 4.66773 6.42591 4.66773C7.03212 4.66773 7.52467 4.13729 7.52467 3.47803C7.52467 2.81878 7.03212 2.28076 6.42591 2.28076Z" fill="white"/>
<path d="M7.30493 0.447266C6.64567 0.447266 6.11523 1.02317 6.11523 1.73547C6.11523 2.44777 6.64567 3.03125 7.30493 3.03125C7.96419 3.03125 8.49462 2.45535 8.49462 1.74305C8.49462 1.03075 7.96419 0.447266 7.30493 0.447266Z" fill="white"/>
<path d="M2.72038 13.2456C2.47789 13.2456 2.28845 13.4578 2.28845 13.7154C2.28845 13.9731 2.48547 14.1928 2.72038 14.1928C2.96286 14.1928 3.15231 13.9806 3.15231 13.723C3.15231 13.4654 2.95529 13.2456 2.72038 13.2456Z" fill="white"/>
<path d="M3.61458 11.4272C3.3039 11.4272 3.05383 11.7 3.05383 12.041C3.05383 12.382 3.3039 12.6548 3.61458 12.6548C3.92526 12.6548 4.17533 12.382 4.17533 12.041C4.17533 11.7 3.92526 11.4272 3.61458 11.4272Z" fill="white"/>
<path d="M4.63754 9.62354C4.27381 9.62354 3.9707 9.94937 3.9707 10.3434C3.9707 10.7375 4.26623 11.0709 4.63754 11.0709C5.00127 11.0709 5.30437 10.745 5.30437 10.351C5.30437 9.95695 5.00884 9.62354 4.63754 9.62354Z" fill="white"/>
<path d="M5.5923 7.70654C5.14521 7.70654 4.78906 8.10058 4.78906 8.57797C4.78906 9.05537 5.14521 9.45698 5.5923 9.45698C6.03938 9.45698 6.39553 9.06295 6.39553 8.58555C6.39553 8.10816 6.03938 7.70654 5.5923 7.70654Z" fill="white"/>
<path d="M6.47131 5.979C5.97876 5.979 5.57715 6.41093 5.57715 6.94895C5.57715 7.48696 5.97876 7.92647 6.47131 7.92647C6.96386 7.92647 7.36548 7.49454 7.36548 6.95652C7.36548 6.41851 6.96386 5.979 6.47131 5.979Z" fill="white"/>
<path d="M7.38066 4.0918C6.81234 4.0918 6.3501 4.59192 6.3501 5.21329C6.3501 5.83466 6.81234 6.34237 7.38066 6.34237C7.94899 6.34237 8.41122 5.84224 8.41122 5.22087C8.41122 4.5995 7.94899 4.0918 7.38066 4.0918Z" fill="white"/>
<path d="M8.20667 2.28076C7.60046 2.28076 7.10791 2.8112 7.10791 3.47803C7.10791 4.13729 7.60046 4.67531 8.20667 4.67531C8.81289 4.67531 9.30543 4.14487 9.30543 3.47803C9.30543 2.8112 8.81289 2.28076 8.20667 2.28076Z" fill="white"/>
<path d="M9.09326 0.447266C8.434 0.447266 7.90356 1.02317 7.90356 1.74305C7.90356 2.46293 8.434 3.03883 9.09326 3.04641C9.75252 3.04641 10.283 2.4705 10.283 1.75063C10.283 1.03075 9.75252 0.454843 9.09326 0.447266Z" fill="white"/>
<path d="M4.4102 13.2456C4.16771 13.2456 3.97827 13.4578 3.97827 13.723C3.97827 13.9882 4.17529 14.1928 4.4102 14.1928C4.64511 14.1928 4.84213 13.9806 4.84213 13.723C4.84213 13.4654 4.64511 13.2456 4.4102 13.2456Z" fill="white"/>
<path d="M0.431927 14.9131C0.189442 14.9131 0 15.1253 0 15.3829C0 15.6405 0.197019 15.8603 0.431927 15.8603C0.674413 15.8603 0.863854 15.6481 0.863854 15.3905C0.863854 15.1328 0.666835 14.9131 0.431927 14.9131Z" fill="white"/>
<path d="M2.14445 14.9131C1.90197 14.9131 1.71252 15.1253 1.71252 15.3829C1.71252 15.6481 1.90954 15.8603 2.14445 15.8603C2.38694 15.8603 2.57638 15.6481 2.57638 15.3905C2.57638 15.1328 2.37936 14.9131 2.14445 14.9131Z" fill="white"/>
<path d="M3.75847 14.9131C3.51598 14.9131 3.32654 15.1253 3.32654 15.3905C3.32654 15.6557 3.52356 15.8603 3.75847 15.8603C4.00095 15.8603 4.19039 15.6481 4.19039 15.3905C4.19039 15.1328 3.99337 14.9131 3.75847 14.9131Z" fill="white"/>
<path d="M5.3044 11.4575C4.99372 11.4575 4.74365 11.7303 4.74365 12.0713C4.74365 12.4123 4.99372 12.6851 5.3044 12.6851C5.61508 12.6851 5.86515 12.4123 5.86515 12.0713C5.86515 11.7303 5.61508 11.4575 5.3044 11.4575Z" fill="white"/>
<path d="M6.32736 9.64648C5.96363 9.64648 5.66052 9.97232 5.66052 10.3739C5.66052 10.7756 5.95605 11.1014 6.32736 11.1014C6.69866 11.1014 6.99419 10.7756 6.99419 10.3739C6.99419 9.97232 6.69866 9.64648 6.32736 9.64648Z" fill="white"/>
<path d="M7.28211 7.72168C6.83503 7.72168 6.47888 8.11572 6.47888 8.60069C6.47888 9.08566 6.83503 9.4797 7.28211 9.4797C7.7292 9.4797 8.08535 9.08566 8.08535 8.60069C8.08535 8.11572 7.7292 7.72168 7.28211 7.72168Z" fill="white"/>
<path d="M8.16113 5.99414C7.66858 5.99414 7.26697 6.43365 7.26697 6.97166C7.26697 7.50967 7.66858 7.94918 8.16113 7.94918C8.65368 7.94918 9.0553 7.50967 9.0553 6.97166C9.0553 6.43365 8.65368 5.99414 8.16113 5.99414Z" fill="white"/>
<path d="M9.07048 4.09961C8.50216 4.09961 8.03992 4.60731 8.03992 5.22868C8.03992 5.85005 8.50216 6.35776 9.07048 6.35776C9.63881 6.35776 10.101 5.85005 10.101 5.22868C10.101 4.60731 9.63881 4.09961 9.07048 4.09961Z" fill="white"/>
<path d="M9.89649 2.28857C9.29028 2.28857 8.79773 2.82659 8.79773 3.48585C8.79773 4.1451 9.29028 4.68312 9.89649 4.68312C10.5027 4.68312 10.9953 4.1451 10.9953 3.48585C10.9953 2.82659 10.5027 2.28857 9.89649 2.28857Z" fill="white"/>
<path d="M10.7831 0.447266C10.1238 0.447266 9.59338 1.03075 9.59338 1.74305C9.59338 2.46293 10.1238 3.03883 10.7831 3.03883C11.4423 3.03883 11.9728 2.45535 11.9728 1.74305C11.9728 1.03075 11.4423 0.447266 10.7831 0.447266Z" fill="white"/>
<path fill-rule="evenodd" clip-rule="evenodd" d="M125.426 14.8068C126.183 14.481 126.911 14.1097 127.737 13.852C127.828 13.7762 127.828 13.602 127.904 13.511C128.207 13.4504 128.199 13.7005 128.464 13.6777V9.33573C127.691 9.42666 127.078 10.3511 125.645 10.0708C124.069 9.76766 126.123 8.84318 126.827 8.60827C127.517 8.38094 128.442 8.10057 129.139 8.16119C130.253 8.25212 131.427 9.13113 130.548 10.0177C130.457 12.3516 130.73 14.9356 130.434 16.9513C131.018 17.3908 131.821 18.5047 131.109 19.3761C129.321 19.361 129.002 17.8758 128.01 17.065C128.04 16.8528 128.207 16.777 128.464 16.7846C128.313 16.3299 128.116 15.9283 128.07 15.3751C128.025 15.163 128.419 15.269 128.464 15.3221V14.5871C127.381 15.2539 126.608 16.2314 125.759 17.1256C124.872 17.8909 123.895 18.8609 122.493 18.9291C122.311 18.7472 122.402 18.4138 122.44 18.141C123.448 17.6257 124.448 17.1104 125.198 16.3375C124.531 16.6709 122.622 16.5269 123.395 15.3221C123.258 12.7911 123.342 10.0101 124.971 9.06294C124.236 8.65374 123.918 7.72927 123.508 6.86541C123.243 6.30466 122.758 5.77423 122.773 5.11497C124.175 4.59211 126.918 5.01646 126.327 6.86541C126.721 6.71386 127.252 6.21373 127.509 5.73634C126.767 5.55447 125.956 5.44839 125.759 4.72093C126.623 4.28143 129.01 3.84192 130.215 4.27385C130.488 4.37236 131.071 4.94068 131.063 5.22863C131.048 5.86516 129.624 6.3274 129.26 6.69112C129.26 6.94877 129.283 7.24429 129.207 7.42616C128.684 7.65349 127.964 8.23697 127.35 7.98691C126.183 8.54765 124.895 8.98716 124.19 10.0177C124.547 11.3741 124.365 13.261 124.698 14.6401C124.979 14.6174 125.388 14.2385 125.6 13.9657C125.357 13.7762 124.956 13.7459 124.812 13.458C124.895 12.6396 125.6 12.4426 125.941 11.8818C125.683 11.5333 124.895 11.2908 124.986 10.7528C125.115 9.97983 128.426 9.83586 128.085 11.3135C127.972 11.8061 127.29 11.7227 126.79 12.0485C127.54 12.0864 127.949 12.4653 127.919 13.2913C127.229 13.943 125.926 13.9657 125.441 14.8144" fill="white"/>
<path fill-rule="evenodd" clip-rule="evenodd" d="M93.9177 7.13825C94.145 7.26707 94.5845 7.19129 94.7058 7.41862C94.8649 7.78235 94.683 8.25217 94.5391 8.48707C94.7891 8.59316 95.0316 8.70683 95.0468 9.04782C95.7894 8.72198 96.7366 9.08571 96.7366 9.66919C96.7366 10.7073 94.3042 10.2906 94.4784 11.5863C95.1301 11.4803 96.8806 11.018 96.9033 12.041C96.9184 12.6472 95.3044 13.1777 94.5921 13.4504C93.5085 13.8672 92.4628 13.9885 92.1142 14.6932C93.2509 14.4204 94.6527 13.9733 95.6681 13.3368C96.0243 13.117 96.3501 12.7381 96.6835 12.7154C97.1079 12.6927 97.6686 13.0867 97.6989 13.5035C97.6383 13.9809 97.0397 13.9354 96.6305 14.0642C96.2668 14.4355 96.0773 14.9811 95.9561 15.5874C96.7214 16.868 99.4721 16.1708 100.018 17.6712C99.313 18.0956 98.0475 18.429 97.0321 18.1259C96.4183 17.944 95.994 17.2317 95.456 17.1635C94.6527 17.7394 93.2887 18.8306 92.1294 19.1337C91.5762 19.2777 90.9397 19.0125 90.6062 18.5123C90.6517 17.3984 90.7881 16.3603 90.773 15.1857C89.75 15.3752 88.8179 15.0569 88.5754 14.284C89.121 13.6854 90.0985 13.5111 90.9397 13.2155V12.7609C90.3183 12.5563 89.6969 12.3517 89.4772 11.7455C88.7573 12.9655 88.0677 15.0569 87.219 16.3679C86.8401 16.9513 85.9763 17.7167 85.0215 17.1559C84.9988 16.2921 85.749 15.5495 86.2036 14.7311C86.8856 13.5035 87.5524 11.9425 88.1208 10.5634C88.439 9.79043 88.6361 8.9872 88.9695 8.36583C89.3484 7.64595 90.485 7.4944 90.6593 8.6462C91.4019 8.19154 92.2506 7.83539 92.6295 7.00943C91.5004 7.24434 90.5532 6.50172 90.3713 5.43327C91.114 5.02408 92.0763 4.31178 93.3039 4.3042C94.2966 4.3042 95.706 5.00135 95.7288 5.71365C95.7591 6.60781 94.5769 6.75179 93.9253 7.12309M92.1142 9.84348V10.3512C92.5916 10.1163 93.0008 9.80559 93.5767 9.67677V9.16906C92.8644 9.16906 92.6522 9.66919 92.1142 9.84348ZM92.1142 12.329C92.1445 12.4426 92.046 12.7003 92.1672 12.723C92.3036 12.4275 92.7583 12.4502 92.9023 12.1622C92.7128 11.8894 92.3794 12.3214 92.1142 12.329ZM93.7434 14.7462C93.9783 15.1327 94.5542 15.1706 94.9255 15.4206C95.2286 15.0872 95.4408 14.6553 95.7136 14.2916C94.9634 14.1324 94.342 14.5719 93.7434 14.7462ZM91.6595 17.6257C92.5764 17.3226 93.2963 16.8225 93.9707 16.2693C93.5009 15.9662 93.1675 15.3676 92.4476 15.4813C92.4173 15.2842 92.6446 15.3449 92.6143 15.1403C92.5007 14.9736 92.1748 15.019 91.993 14.9129C92.099 14.8447 92.1445 14.7462 91.9399 14.7462C91.4625 15.3146 91.7353 16.6406 91.6595 17.6182" fill="white"/>
<path fill-rule="evenodd" clip-rule="evenodd" d="M113.756 6.18344C113.271 6.58506 112.43 6.62295 112.006 7.08519C112.203 7.46407 112.68 7.10034 113.074 7.13823C113.726 7.20643 114.165 7.66109 114.089 8.49463C113.627 9.26756 112.21 9.09327 111.831 9.95712C112.672 9.8283 113.832 9.97986 113.915 10.7452C114.006 11.5181 112.938 11.6242 112.339 12.1016C111.786 12.5335 111.468 12.9655 111.384 13.3974C111.68 13.3368 111.596 12.7912 112.006 12.723C112.415 12.6472 112.627 13.0109 112.96 13.2307C113.726 13.0337 114.567 13.2079 115.272 13.0033C115.719 12.8745 115.954 12.5184 116.401 12.4956C117.105 12.4653 117.53 12.8745 118.151 13.3443C118.181 13.6171 118.265 13.9884 118.151 14.2461C117.333 14.5795 116.62 13.9354 115.954 13.799C115.014 13.602 114.188 13.8975 113.135 13.9127C112.763 14.3673 112.589 15.0266 112.4 15.6631C113.059 15.9132 113.786 16.2163 114.483 16.6179C115.37 17.1256 116.454 17.656 116.287 18.9821C114.9 19.7475 114.302 18.4441 113.415 17.8531C112.854 17.4818 112.278 17.3302 111.665 17.118C111.172 17.3302 110.998 17.8834 110.422 18.1865C108.967 18.967 106.542 18.4744 105.746 17.4514C107.186 17.8076 109.3 17.7167 109.975 16.5497C109.081 16.0193 108.27 16.7543 107.717 16.8301C107.065 16.042 108.194 15.3448 108.391 14.6856C107.444 14.9887 106.428 15.307 105.519 15.8147C105.011 16.095 104.314 16.7846 103.602 16.095C103.587 15.6101 103.86 15.413 104.057 15.1402C105.686 14.7538 107.239 14.2991 108.906 13.9581C109.172 13.7156 109.376 13.4125 109.581 13.1094C109.52 12.8745 109.338 12.7533 109.3 12.4881C108.535 12.776 107.542 14.0718 106.595 13.2761C106.989 12.185 107.754 11.4651 108.512 10.7376C107.792 10.4876 106.83 9.91923 106.936 9.16147C107.004 8.65376 107.671 8.62345 108.179 8.42643C108.709 8.22184 109.134 7.88842 109.475 7.63836C109.467 7.38829 109.353 7.22916 109.247 7.07761C108.164 7.23674 107.906 6.57748 107.671 5.89549C109.179 5.53934 110.445 4.94828 111.672 4.31934C112.597 4.71337 113.354 5.26654 113.756 6.17587M109.641 15.2009C110.058 15.216 110.422 15.2842 110.823 15.3145C110.899 14.9357 111.089 14.678 111.051 14.1855C110.232 14.1703 109.907 14.6553 109.641 15.2009Z" fill="white"/>
<path fill-rule="evenodd" clip-rule="evenodd" d="M138.277 11.2C137.823 11.3591 137.33 12.6321 136.307 12.3821C135.011 12.0638 136.519 10.3816 136.982 9.79052C138.383 7.97946 139.982 5.85771 141.437 4.43311C143.317 4.8423 144.673 6.00168 146.34 7.13833C146.961 7.56268 147.825 8.19163 148.765 8.49474C149.576 8.75238 151.387 8.84331 151.19 9.85114C151.008 10.7756 148.265 10.3058 147.355 10.1315C146.439 10.9499 145.613 12.6625 144.256 12.8974C143.983 12.9428 143.665 12.8064 143.354 12.8443C142.748 12.9049 141.612 13.4808 141.498 14.1401C142.301 13.9961 142.998 12.9353 144.036 13.1247C144.355 13.1853 144.991 13.7915 145.052 14.1401C145.082 14.322 144.931 14.6023 144.885 14.9888C144.734 16.1861 145.362 17.982 144.885 18.7094C144.34 19.543 143.165 18.9974 143.029 18.0881C142.528 18.179 142.089 18.0502 141.733 18.2017C141.415 18.3381 141.407 18.8458 141.058 18.7094C140.611 18.1487 140.475 16.5498 140.551 15.4435C140.611 14.5417 140.99 13.8976 141.566 13.5263C141.574 13.4808 141.619 13.4733 141.619 13.4126C141.18 13.5718 140.861 13.9128 140.437 13.8673C140.051 13.8218 140.005 13.5036 139.763 13.1929C139.316 12.6246 138.353 11.8744 138.3 11.2227M142.165 6.18355C141.892 6.53212 141.612 6.87312 141.316 7.19896C141.816 7.02467 142.271 6.80492 142.892 6.75187C142.771 6.43361 142.46 6.31237 142.157 6.19113M143.18 8.54778C143.711 8.43412 144.385 8.472 144.931 8.38107C144.574 8.12343 144.408 7.66877 143.976 7.47933C143.809 7.93399 143.241 7.97946 143.188 8.54778M140.475 8.20679C140.104 8.79784 139.459 9.40406 139.293 10.0103C139.907 9.60865 140.649 9.33586 141.49 9.16157V8.82058C141.142 8.63114 140.892 8.33561 140.475 8.19921M143.241 9.84356C143.21 10.0103 142.991 10.2679 143.127 10.4043C144.089 10.1012 143.855 11.4121 143.013 11.253C142.922 11.4273 142.771 11.6319 142.9 11.8744C143.18 11.7986 143.4 11.6622 143.748 11.647C144.158 10.8665 144.627 10.1618 145.044 9.3889C144.324 9.41921 143.855 9.69959 143.241 9.83598M139.747 11.594C139.944 11.935 140.498 12.1548 140.141 12.7231C140.543 12.6928 140.892 12.6094 141.21 12.4957C141.233 12.3139 141.316 12.1926 141.324 11.988C141.043 11.8744 140.642 11.882 140.536 11.594C140.695 11.2985 141.036 11.1924 141.324 11.0333V10.6392C140.664 10.8211 140.149 11.1621 139.747 11.594ZM141.998 14.5266C141.93 14.7463 141.786 14.8827 141.831 15.201C142.195 15.2843 142.657 15.2768 143.074 15.3146C143.21 14.9433 143.044 14.6175 143.074 14.1856C142.65 14.231 142.438 14.4887 142.006 14.5266M141.998 17.6258C142.324 17.5122 142.665 17.3909 143.066 17.5122C143.066 17.1181 143.271 16.6332 143.12 16.2694C142.71 16.3679 142.491 16.6559 142.104 16.7771C142.119 16.5043 142.187 16.2997 142.218 16.0421C142.15 15.9739 142.021 15.9815 141.877 15.9815C141.877 16.565 141.915 17.1105 141.99 17.6183" fill="white"/>
<path fill-rule="evenodd" clip-rule="evenodd" d="M77.0043 6.18339C77.6029 6.29706 78.4137 6.20612 78.8077 6.52439C79.179 7.57768 78.2925 8.1839 77.4513 8.38092C78.2091 8.828 79.3154 9.29781 80.2702 9.6767C81.2023 10.048 82.4147 10.3738 82.0207 11.7606C80.293 11.9576 79.0957 10.7148 77.6256 10.2981C77.3756 10.4799 77.1861 10.7224 77.0649 11.0331C77.3604 11.3059 77.959 11.3286 77.9666 11.7681C77.9818 12.3819 75.6403 13.0412 75.6024 13.6853C76.1177 13.5186 76.9815 13.1018 77.4589 13.5716C77.7393 14.4052 77.2695 15.0341 77.2922 15.9359C77.7772 16.3375 78.4516 16.4284 79.0957 16.8376C79.5655 17.1331 80.3915 17.7242 80.3384 18.3001C80.3081 18.6108 80.005 18.8911 79.6034 18.9215C78.8911 18.9669 78.6031 18.3531 78.0803 17.9667C77.5271 17.5499 76.9815 17.4135 76.5041 17.118C75.7767 17.3301 74.7537 17.9136 73.8519 17.6257C73.5034 17.512 73.3291 17.1407 72.9502 17.118C72.6395 17.5878 72.7456 18.4289 72.2152 18.5805C71.5408 18.7775 70.98 18.0652 70.7527 17.512C70.7299 17.2695 70.9952 17.4665 71.0937 17.459C70.9724 17.2241 70.6693 16.8679 70.7527 16.6103C70.6542 16.4966 70.3586 16.5951 70.298 16.4436C69.8509 15.4509 70.6845 14.5795 71.0861 13.905C70.98 13.8217 70.6996 14.1475 70.4647 13.9581C69.904 12.2531 71.5559 11.8288 72.0409 10.7982C71.7605 10.6845 71.2755 10.7755 71.0255 10.6315C70.6239 11.0634 70.2829 11.7984 69.8964 12.6623C69.5099 13.5262 69.1538 15.072 67.9792 14.4127C68.0247 12.7305 69.1538 11.5408 69.7827 10.1844C69.5251 9.75247 69.2447 8.81284 69.616 8.26725C70.1616 8.20663 70.2753 8.58551 70.5708 8.77495C70.8588 8.44912 71.033 7.99446 71.2452 7.59284C71.0103 7.25184 70.4041 7.1306 70.3965 6.6911C70.3965 6.43345 71.1619 5.65295 71.806 5.56202C72.7986 5.42562 74.4354 6.45619 73.6625 7.1988C74.1247 7.31246 74.5491 7.34277 75.0189 7.47917C75.4357 7.60042 75.8524 7.91868 76.201 7.92626C77.0043 7.94899 77.618 7.16091 78.1712 6.68352C76.9891 6.04699 75.7767 7.03209 74.7916 7.30489C74.7613 7.22153 74.7006 7.16849 74.6249 7.13818C74.5718 6.72898 74.7916 6.59259 74.9659 6.40314C74.8977 6.26675 74.5567 6.40314 74.5718 6.17581C75.4129 6.1455 76.3829 4.59966 77.3907 4.6527C77.762 4.67543 78.3 4.90276 78.3531 5.21345C78.4667 5.9106 77.5271 5.97122 76.9967 6.17581M71.5408 9.90403C72.4652 9.87372 73.5413 9.37359 73.8519 10.1314C74.1778 10.9422 72.8668 11.3514 72.7229 12.1016C74.0565 12.7078 72.2303 13.708 72.1015 14.5795C72.5031 14.5719 72.7608 14.7083 72.8365 15.0341C73.1018 14.7916 73.4579 14.784 73.8519 14.9204C73.6928 14.1021 74.3142 14.0717 74.4733 13.564C73.3745 13.4504 73.905 9.52514 74.4733 9.39632C74.7764 9.32812 75.0947 9.63123 75.322 9.90403C75.466 9.66912 75.7009 9.53272 75.9434 9.39632C75.4736 9.2675 75.1174 9.01744 74.7613 8.77495C74.4885 8.85073 73.8747 8.90378 73.7459 8.66129C73.8974 8.6234 74.1929 8.72949 74.2536 8.60825C73.7989 8.44154 73.2685 8.2521 73.3518 7.7065C72.2758 7.96414 72.147 9.16899 71.5483 9.90403M75.2008 12.829C75.269 12.4729 75.7312 12.4198 75.8221 11.9803C75.8828 11.6924 75.6857 11.3362 75.7691 11.0255C75.86 10.6694 76.1859 10.6315 76.2162 10.2905C75.1932 10.4117 75.0871 11.753 75.2008 12.829ZM75.0341 15.2008C75.3826 15.2463 75.6857 15.3372 75.9888 15.4282C76.2313 15.1857 76.3602 14.8219 76.3829 14.3597C75.8676 14.5795 75.4357 14.8826 75.0265 15.2084M71.1391 16.3829C71.2452 16.8073 71.518 17.0574 71.9878 17.118C71.9727 16.4436 72.3895 15.898 72.2682 15.3145C71.806 15.5873 71.465 15.9813 71.1391 16.3829ZM73.0032 16.3299C73.617 16.4966 74.6779 16.7618 75.1477 16.2768C74.3596 16.0268 73.7913 15.5721 73.0032 15.3221V16.3375V16.3299Z" fill="white"/>
<path fill-rule="evenodd" clip-rule="evenodd" d="M59.6438 6.00914C60.4546 5.78181 61.3185 6.06219 62.1217 6.06219C62.3112 6.06219 62.5006 5.97883 62.6825 6.00914C63.3569 6.10008 65.3574 8.00207 63.9252 8.37338C63.5994 8.45673 63.1371 8.28245 62.7961 8.25971C61.5761 8.16878 60.1439 8.22182 59.1892 8.25971C60.1591 7.68381 61.1366 7.13064 62.1748 6.62294C61.5989 6.33498 60.5001 6.4638 59.7499 6.50927C59.318 6.91089 59.5377 7.44132 59.2422 7.91872C58.6511 8.88866 56.8174 8.25213 56.7037 7.18368C55.6125 7.29735 54.8775 7.75959 54.1652 8.25214C54.3243 9.11599 54.9684 10.3436 54.5062 11.1241C52.8163 11.5636 52.5587 10.0708 52.4753 8.41884C52.4375 7.62319 52.2783 6.75933 52.6421 6.27436C53.3316 6.27436 53.5362 6.76691 53.8242 7.17611C54.9078 7.01697 55.7262 6.6002 56.8098 6.44107C57.075 5.90306 57.2038 5.49386 57.1508 4.86492C58.1207 4.68305 59.4544 5.00889 59.6287 5.99399" fill="white"/>
<path fill-rule="evenodd" clip-rule="evenodd" d="M47.8606 5.95616C47.6181 8.46437 47.906 11.3439 48.0273 14.0188C48.1258 16.1102 48.3759 18.3153 46.6709 18.5881C46.1404 18.3229 46.2086 17.4742 45.8828 17.012C45.9662 16.9817 46.1707 17.0802 46.1632 16.9589C46.345 13.3292 46.0343 9.55556 46.2768 6.02436C44.6173 5.83492 42.9427 6.10772 41.4877 6.30473C41.8212 6.5548 42.3819 6.57753 42.5562 6.97915C43.2458 6.81244 44.0035 7.25194 44.0187 7.71418C44.0414 8.30524 43.2003 8.35828 42.8896 8.78263C43.0184 9.92686 43.4428 10.7907 43.6777 11.8289C44.1172 11.45 44.2763 10.8438 44.1854 10.0784C44.1399 9.72226 43.9581 9.41158 43.9581 9.06301C43.9581 8.51742 44.3218 7.35045 44.6325 7.25952C44.9659 7.16101 45.3675 7.45654 45.4206 7.71418C45.5494 8.3204 44.7765 8.94176 44.6325 9.29034C44.9053 9.90413 45.3978 10.4194 45.3675 11.0938C45.3296 11.988 44.3976 12.4426 43.9581 13.011C44.0793 13.6778 44.3673 14.1779 44.6325 14.7008C45.4054 14.6402 45.7312 15.0342 45.7616 15.7162C45.1402 16.2012 43.9429 16.1102 42.7153 16.2239C42.1925 16.2694 41.6696 16.3376 41.1922 16.4512C40.6921 16.5649 40.0631 16.7771 39.6691 16.6786C39.1462 16.5422 38.7598 15.792 38.7674 15.2691C39.4797 14.769 40.6012 15.254 41.4726 14.9887C41.8363 14.8751 42.1091 14.4659 42.3213 14.2007C42.5259 13.9354 42.9502 13.5793 42.6623 13.1853C41.5711 13.352 40.5178 14.3446 39.4494 14.5417C38.2369 13.6854 39.7146 12.6245 40.1238 11.8895C39.4721 12.0713 38.8356 11.8364 38.7674 11.4424C38.6537 10.6998 40.0859 10.0405 40.2299 9.4722C40.1238 8.97208 39.2751 8.66897 39.3812 8.17642C39.4948 7.67629 40.639 7.83542 41.0179 7.38834C41.0179 7.05492 40.8512 6.87306 40.9043 6.4866C39.9798 6.65331 39.1311 6.89579 38.3657 7.22163C38.1763 9.62375 37.9035 12.3214 38.0248 15.2237C38.0475 15.7617 38.2748 17.2545 37.7444 17.4212C37.0624 17.6409 36.5623 16.6634 36.5016 16.1254C36.3728 14.9887 36.6608 13.3595 36.729 11.844C36.7593 11.2226 36.7593 10.5482 36.782 9.98748C36.8502 8.44164 36.638 6.82002 37.2291 5.75914C38.4036 6.19107 39.6085 5.67579 41.1771 5.41815C42.2379 5.24386 43.3215 5.09989 44.2763 5.02411C45.8298 4.90287 47.0498 5.04684 47.8303 5.9789M41.2074 10.2375C41.3817 10.2754 41.3741 10.139 41.5484 10.1845C41.5484 10.086 41.6999 9.85866 41.5484 9.79046C41.4953 9.99506 41.2983 10.0708 41.2074 10.2375ZM41.1543 12.1017C41.4726 11.988 41.7984 11.8819 41.8894 11.5409C41.5484 11.6318 41.3438 11.8667 41.1543 12.1017ZM42.5107 14.8069C42.7456 14.822 42.8745 14.7235 43.0715 14.6932C43.1776 14.0567 42.5335 14.5644 42.5107 14.8069Z" fill="white"/>
<path fill-rule="evenodd" clip-rule="evenodd" d="M56.825 11.8742C57.1205 12.3895 57.8101 12.5032 58.2875 12.829C58.8785 12.2304 59.5226 10.927 60.5986 10.7982C61.3564 10.7072 62.1293 11.0937 62.2354 11.6999C62.4097 12.6699 61.3564 12.9124 61.167 13.6701C60.8184 13.5186 60.6517 13.905 60.4319 14.0642C60.144 14.0035 60.1516 13.9581 59.8106 14.0111C61.7883 14.2157 63.857 14.6249 63.6979 16.7694C62.4097 17.2771 61.5383 16.0343 60.538 15.7009C60.5456 15.5797 60.682 15.5797 60.8184 15.5873C60.5001 15.1326 59.8788 14.9811 59.409 14.6855C59.659 16.2314 59.6135 18.391 58.0525 18.5729C57.1887 18.679 55.9763 18.2849 55.2943 17.6181C54.6956 17.0346 54.1046 15.898 54.1122 15.1402C54.1197 14.1248 54.976 13.8217 55.2412 12.882C54.7638 12.7153 54.15 12.6926 53.8318 12.3743C54.832 11.5105 56.0217 10.8436 57.0978 10.0631C56.9159 9.74488 56.484 9.69942 56.4764 9.32811C56.4612 8.73705 58.2268 8.61581 58.7876 8.42637C59.3938 8.22177 60.2804 9.23718 60.2501 9.60849C60.2122 10.1617 59.2044 10.586 58.6739 10.9043C58.098 11.2528 57.5145 11.5408 56.8174 11.8591M59.2498 13.8444C59.9015 13.1397 60.5229 12.1167 60.7123 11.1392C59.9167 11.3817 57.9086 13.3746 59.2498 13.8444ZM54.8548 15.9889C55.3928 16.6254 56.0066 17.3983 56.9993 17.3983C58.3708 17.3983 58.78 15.8222 58.295 14.3521C57.6282 15.2084 57.3099 16.4132 56.4309 17.0573C55.999 16.883 55.9156 16.3981 55.9838 15.9889C56.143 15.0189 57.3706 13.9278 57.2796 12.9427C55.9763 13.4579 56.0748 15.3827 54.8548 15.9889Z" fill="white"/>
<path fill-rule="evenodd" clip-rule="evenodd" d="M127.684 23.0359C127.138 22.9602 126.941 22.2857 126.388 22.1342C123.486 21.3385 123.175 26.9839 125.827 27.0369C126.532 27.0521 127.131 26.6353 127.464 26.1882C127.532 26.0973 127.532 25.8094 127.744 25.8473C128.244 26.1352 127.396 26.893 127.07 27.09C125.501 28.0145 123.395 26.9233 123.008 25.4002C122.485 23.3163 124.41 21.2021 126.562 21.9069C127.078 22.0736 127.782 22.5585 127.691 23.0359" fill="white"/>
<path fill-rule="evenodd" clip-rule="evenodd" d="M37.6004 21.9072C38.5249 23.15 39.4266 24.4003 40.4193 25.5748C40.4345 24.6958 40.4042 23.6577 40.4193 22.7029C40.4193 22.4756 40.2753 21.9982 40.586 21.9148C40.9801 21.9527 40.8134 22.6953 40.8134 23.0969C40.8134 24.3851 40.8588 26.0446 40.7603 27.2646C40.2375 27.2646 39.9419 26.6963 39.6919 26.3629C38.8659 25.2793 38.0551 24.1123 37.1533 23.0363C37.1382 24.0366 37.1761 25.3399 37.1533 26.4766C37.1533 26.7418 37.3125 27.3707 36.8124 27.2646C36.5547 25.7112 36.7745 23.6577 36.6987 21.9072H37.6004Z" fill="white"/>
<path fill-rule="evenodd" clip-rule="evenodd" d="M73.1169 21.9068C75.1553 21.725 76.8603 22.1114 77.3983 23.483C78.4895 26.264 76.0798 27.8098 73.0563 27.2567C73.0942 25.4911 72.9805 23.5739 73.1093 21.8992M75.7085 26.7565C77.368 25.8775 76.7618 21.5886 74.1323 22.1872C74.0641 22.2099 74.0187 22.263 74.0187 22.3539V26.9232C74.5339 26.9839 75.2917 26.9763 75.7085 26.7565Z" fill="white"/>
<path fill-rule="evenodd" clip-rule="evenodd" d="M52.1496 22.9225C53.9152 22.6951 55.1731 24.4835 54.4077 26.1884C53.3847 28.4542 49.1337 27.1129 50.4067 24.1046C50.6037 23.6348 51.0508 23.0589 52.1572 22.9225M52.3693 27.1508C54.2637 27.1811 54.241 22.8694 52.2557 23.1498C50.6189 23.3847 50.6568 27.1205 52.3693 27.1508Z" fill="white"/>
<path fill-rule="evenodd" clip-rule="evenodd" d="M94.3648 22.9224C95.6909 22.7633 96.6305 23.6196 96.7896 24.7259C97.0321 26.4157 95.8348 27.3478 94.7058 27.3781C93.0463 27.416 91.8263 25.6579 92.675 23.9984C92.9023 23.5438 93.3418 23.0512 94.3648 22.93M95.0468 27.0977C96.3653 26.6582 96.3577 22.8997 94.486 23.1497C92.5916 23.4074 93.0159 27.7645 95.0468 27.0977Z" fill="white"/>
<path fill-rule="evenodd" clip-rule="evenodd" d="M130.616 22.9226C133.14 22.5892 133.928 26.1886 131.965 27.1509C130.184 28.03 128.373 26.4311 128.752 24.5594C128.919 23.7258 129.54 23.0666 130.616 22.9226ZM130.162 26.9236C130.495 27.1737 131.154 27.2798 131.624 26.9236C132.738 26.0901 132.39 22.9453 130.775 23.1499C129.366 23.3242 129.161 26.1734 130.154 26.9236" fill="white"/>
<path fill-rule="evenodd" clip-rule="evenodd" d="M146.226 23.8241C145.719 23.7937 145.544 23.1421 144.931 23.089C142.771 22.9147 142.513 26.7036 144.37 27.037C145.158 27.1734 145.681 26.749 146.06 26.302C146.075 26.2792 146.128 25.9382 146.287 26.1883C146.613 26.3474 146.151 26.7415 146.007 26.8627C145.203 27.5598 143.498 27.4689 142.794 26.6354C141.498 25.1047 142.733 22.7177 144.764 22.8617C145.347 22.8996 146.082 23.2254 146.226 23.8165" fill="white"/>
<path fill-rule="evenodd" clip-rule="evenodd" d="M43.3519 22.9756C44.0566 24.3017 44.6249 25.7566 45.2084 27.2039C44.9735 27.3327 44.5416 27.2191 44.4203 27.2039C44.2536 26.8629 44.1096 26.4992 43.9657 26.1355H42.5032C42.1697 26.4462 42.1546 27.4009 41.7151 27.2645C42.1015 25.9006 42.882 24.4457 43.3519 22.9832M42.5638 25.9081H43.8596C43.6398 25.3929 43.458 24.8473 43.1852 24.385C42.9654 24.8776 42.776 25.4004 42.5638 25.9081Z" fill="white"/>
<path fill-rule="evenodd" clip-rule="evenodd" d="M47.8075 23.0893C47.7166 23.3394 47.1786 23.1348 46.9058 23.203V27.204C46.6254 27.3177 46.3374 27.2192 46.1177 27.204C46.1177 26.1204 46.1177 24.2866 46.1177 23.203C45.8449 23.1348 45.3069 23.3394 45.2159 23.0893C45.8222 22.8999 47.2013 22.8999 47.8075 23.0893Z" fill="white"/>
<path fill-rule="evenodd" clip-rule="evenodd" d="M49.3837 22.9756V27.2039C49.2245 27.2949 48.7547 27.2949 48.5956 27.2039V22.9756H49.3837Z" fill="white"/>
<path fill-rule="evenodd" clip-rule="evenodd" d="M55.4155 22.9755C56.4688 22.7709 56.878 23.8546 57.3327 24.438C57.7949 25.0291 58.1889 25.5065 58.5754 25.9005C58.6057 25.2034 58.5375 24.3244 58.5754 23.5363C58.583 23.3772 58.4466 22.9604 58.7421 22.9755C59.0528 23.1271 58.9088 23.6121 58.9088 23.9303C58.9088 24.9306 58.9543 26.2567 58.8558 27.1963C58.386 27.3403 58.2117 26.772 58.0071 26.5219C57.3175 25.6656 56.5294 24.7108 55.8096 23.8697V25.7262C55.8096 26.3097 55.9308 27.0675 55.6428 27.2494C55.2564 27.1963 55.4155 26.6204 55.4155 26.3476C55.4155 25.3777 55.4155 24.1122 55.4155 23.1347V22.968V22.9755Z" fill="white"/>
<path fill-rule="evenodd" clip-rule="evenodd" d="M61.4473 22.9756C62.0535 24.3623 62.8113 25.893 63.2508 27.257C62.9553 27.2721 62.69 27.257 62.4627 27.2039C62.3187 26.8402 62.152 26.4992 62.0156 26.1355H60.5531C60.25 26.4083 60.2652 27.2494 59.8787 27.2645C59.8257 26.6053 60.2728 25.9385 60.5531 25.2337C60.8638 24.476 61.129 23.703 61.4549 22.9756M60.6592 25.9081H61.902C61.7125 25.3626 61.5003 24.8473 61.2275 24.385C61.0608 24.9155 60.7729 25.3171 60.6668 25.9081" fill="white"/>
<path fill-rule="evenodd" clip-rule="evenodd" d="M64.9407 22.9756V26.9236C65.509 26.9993 66.3653 26.7796 66.7442 27.0372C66.6153 27.3479 66.0015 27.257 65.5014 27.2645C64.9786 27.2645 64.433 27.2645 64.145 27.2115V22.9832H64.9331L64.9407 22.9756Z" fill="white"/>
<path fill-rule="evenodd" clip-rule="evenodd" d="M78.6411 22.9757C79.5049 23.0136 80.5203 22.9 81.2933 23.0288C81.0811 23.4077 80.0126 23.097 79.4898 23.1955V24.8853C79.9066 25.0899 80.8538 24.7565 81.1796 25.052C80.8538 25.3097 80.0581 25.0899 79.5428 25.1657C79.414 25.6355 79.5201 26.3478 79.4898 26.9161C79.9596 27.0828 80.8234 26.8631 81.2933 27.0298C81.0584 27.492 80.0429 27.1965 79.4898 27.1965C79.2246 27.1965 78.9215 27.3177 78.7017 27.2495C78.5729 25.931 78.679 24.3776 78.6487 22.9682" fill="white"/>
<path fill-rule="evenodd" clip-rule="evenodd" d="M82.1344 22.9754H82.9831C83.3468 23.9453 83.7636 24.8622 84.1652 25.7943C84.5214 25.1199 84.7563 24.2863 85.12 23.4831C85.2261 23.2557 85.2412 22.8238 85.6807 22.9754C85.1655 24.4682 84.4986 25.8094 83.9909 27.3174C83.3089 25.9382 82.733 24.4379 82.1344 22.9754Z" fill="white"/>
<path fill-rule="evenodd" clip-rule="evenodd" d="M86.5294 22.9757C87.3932 23.0136 88.4087 22.9 89.1816 23.0288C88.9694 23.4077 87.9009 23.097 87.3781 23.1955V24.8853C87.7949 25.0899 88.7421 24.7565 89.0679 25.052C88.7269 25.3097 87.9085 25.0899 87.3781 25.1657V26.9161C87.8479 27.0828 88.7118 26.8631 89.1816 27.0298C88.977 27.5299 87.4236 27.0904 86.59 27.2571C86.4612 25.9386 86.5673 24.3852 86.537 22.9757" fill="white"/>
<path fill-rule="evenodd" clip-rule="evenodd" d="M90.8184 22.9756V26.9236C91.3867 26.9993 92.243 26.7796 92.6218 27.0372C92.5233 27.4313 91.7959 27.2645 91.3261 27.2645C90.7956 27.2645 90.2879 27.2645 90.0303 27.2115V22.9832H90.8184V22.9756Z" fill="white"/>
<path fill-rule="evenodd" clip-rule="evenodd" d="M98.4794 25.4609C98.3582 25.8095 98.5855 26.8401 98.4264 27.2114H97.6383V22.983C98.1687 23.1043 99.3963 22.8087 100.063 23.0361C100.859 23.3164 101.109 24.5289 100.518 25.1199C100.116 25.5215 99.366 25.4382 98.487 25.4609M98.4794 25.2336C100.442 25.711 100.457 22.6572 98.4794 23.1497C98.4643 23.6347 98.487 24.5668 98.4794 25.2336Z" fill="white"/>
<path fill-rule="evenodd" clip-rule="evenodd" d="M101.579 22.9756H102.533C102.95 23.9304 103.397 24.8548 103.776 25.8475C104.276 24.9761 104.595 23.9228 105.019 22.9756H105.921V27.2039C105.678 27.2494 105.36 27.2949 105.072 27.2039V23.8243C104.519 24.923 104.072 26.1279 103.609 27.3176C103.018 26.2113 102.556 24.9912 102.033 23.8243C101.829 24.8245 102.162 26.3552 101.867 27.2645C101.435 27.2645 101.586 26.7114 101.586 26.4158C101.571 25.4383 101.601 24.135 101.586 23.1423V22.9756H101.579Z" fill="white"/>
<path fill-rule="evenodd" clip-rule="evenodd" d="M106.709 22.9757C107.573 23.0136 108.588 22.9 109.361 23.0288C109.149 23.4077 108.08 23.097 107.557 23.1955V24.8853C107.989 25.052 108.815 24.8323 109.247 24.999C109.028 25.3779 108.111 25.0672 107.61 25.1657C107.482 25.6355 107.595 26.3478 107.557 26.9161C108.027 27.0828 108.891 26.8631 109.361 27.0298C109.156 27.4314 108.452 27.2647 108.005 27.2571C107.512 27.2495 107.088 27.2723 106.709 27.2041V22.9757Z" fill="white"/>
<path fill-rule="evenodd" clip-rule="evenodd" d="M110.21 22.9753C111.013 22.7783 111.149 23.2481 111.505 23.7104C112.066 24.4302 112.786 25.2714 113.309 25.9079C113.339 25.2107 113.271 24.3317 113.309 23.5436C113.317 23.3845 113.18 22.9677 113.476 22.9829C113.794 23.142 113.642 23.6346 113.642 23.9377V27.2643C112.915 27.09 112.521 26.2716 112.066 25.6881C111.574 25.0592 111.058 24.4605 110.604 23.8846C110.399 24.8622 110.733 26.3777 110.437 27.2643C110.051 27.2112 110.21 26.6353 110.21 26.3625C110.21 25.3926 110.21 24.1271 110.21 23.1496V22.9829V22.9753Z" fill="white"/>
<path fill-rule="evenodd" clip-rule="evenodd" d="M117.083 23.0363C117.052 23.3621 116.469 23.1348 116.181 23.203V27.2646H115.393C115.393 26.1659 115.393 24.3548 115.393 23.2636C115.219 23.0742 114.567 23.3773 114.491 23.0969C115.112 22.8772 116.37 22.9833 117.083 23.0439" fill="white"/>
<path fill-rule="evenodd" clip-rule="evenodd" d="M134.731 22.9753C134.928 24.1422 134.443 25.4001 134.784 26.3549C135.042 27.0672 136.368 27.2491 136.701 26.5216C136.966 25.9457 136.731 24.4908 136.754 23.7027C136.754 23.4754 136.61 23.0359 136.921 22.9677C137.323 22.9828 137.141 23.4981 137.148 23.7558C137.163 24.4832 137.27 26.2034 137.035 26.6883C136.641 27.4916 135.027 27.6204 134.329 27.0293C133.556 26.3701 134.102 24.4984 133.935 23.142C133.913 22.801 134.481 23.051 134.723 22.9753" fill="white"/>
<path fill-rule="evenodd" clip-rule="evenodd" d="M137.997 22.9757C138.8 22.7863 138.929 23.2561 139.293 23.7107C139.861 24.423 140.566 25.2717 141.096 25.9083C141.172 24.9686 140.945 23.7335 141.21 22.9757C141.604 23.006 141.437 23.5819 141.437 23.8774C141.437 24.8777 141.483 26.2568 141.377 27.204C140.717 27.1207 140.323 26.272 139.853 25.6809C139.369 25.0671 138.831 24.423 138.391 23.8774C138.239 24.5746 138.391 25.7264 138.338 26.6433C138.323 26.8555 138.452 27.348 138.111 27.204C137.898 27.1207 137.997 26.6433 137.997 26.3553V22.9757Z" fill="white"/>
<path fill-rule="evenodd" clip-rule="evenodd" d="M148.03 22.9756V27.2039C147.878 27.2494 147.378 27.2873 147.242 27.2039C147.242 26.0218 147.242 24.1653 147.242 22.9756H148.03Z" fill="white"/>
<path fill-rule="evenodd" clip-rule="evenodd" d="M149.667 22.9756V26.9236C150.212 26.9918 151.053 26.7796 151.417 27.0372C151.387 27.3706 150.75 27.257 150.235 27.2645C149.659 27.2645 149.174 27.2494 148.825 27.2115V22.9832H149.674L149.667 22.9756Z" fill="white"/>
</g>
<defs>
<clipPath id="clip0_3401_6228">
<rect width="151.409" height="30" fill="white"/>
</clipPath>
</defs>
</svg>
