<svg width="50" height="50" viewBox="0 0 50 50" fill="none" xmlns="http://www.w3.org/2000/svg">
<g clip-path="url(#clip0_2719_798)">
<path d="M25 0C11.19 0 0 11.19 0 25C0 38.81 11.19 50 25 50C38.81 50 50 38.81 50 25C50 11.19 38.81 0 25 0ZM41.19 29.99C40.94 37.88 38.12 40.92 30.17 41.19C26.78 41.31 22.93 41.31 19.54 41.19C13.15 40.96 9.37 38.58 8.88 31.85C8.62 28.29 8.68 24.03 8.79 20.43C9.04 12.06 11.63 9.11 20.1 8.82C23.19 8.72 26.55 8.7 29.64 8.79C36.23 8.99 40.54 10.77 41.1 18.04C41.38 21.71 41.31 26.28 41.19 30V29.99Z" fill="white"/>
<path d="M21.08 11.65C23.57 11.58 26.18 11.56 28.67 11.62C34.04 11.75 37.83 12.04 38.27 18.39C38.51 21.8 38.46 25.84 38.36 29.28C38.21 34.52 37.59 37.85 31.59 38.26C28.3 38.49 24.46 38.44 21.14 38.35C15.73 38.21 12.05 37.76 11.71 31.4C11.5 27.32 11.49 22.64 11.71 18.56C12.05 12.19 15.67 11.79 21.08 11.64V11.65ZM33.2 14.47C31.02 14.84 31.43 18.44 33.79 18.25C36.33 18.05 36.09 13.98 33.2 14.47ZM24.62 16.69C18.02 17 14.39 24.59 18.32 29.93C21.93 34.84 29.55 34.24 32.36 28.85C35.31 23.17 31 16.39 24.63 16.69H24.62Z" fill="white"/>
<path d="M24.08 19.6098C30.28 18.8298 32.83 26.7698 27.72 29.7098C23.32 32.2398 18.14 27.8898 19.87 23.0998C20.48 21.4098 22.27 19.8298 24.08 19.6098Z" fill="white"/>
</g>
<defs>
<clipPath id="clip0_2719_798">
<rect width="50" height="50" fill="white"/>
</clipPath>
</defs>
</svg>
