<svg width="50" height="50" viewBox="0 0 50 50" fill="none" xmlns="http://www.w3.org/2000/svg">
<g clip-path="url(#clip0_2719_795)">
<path d="M25.6401 0C25.8101 0.05 26.0101 0.02 26.1901 0.02C38.5401 0.52 48.7501 10.36 49.9101 22.67L50.0101 23.98V26.18L49.9101 27.51C49.4601 32.25 47.6401 36.78 44.7301 40.52C40.6801 45.73 34.6101 49.23 28.0301 49.99V32.78C28.0301 32.78 28.0601 32.74 28.0701 32.74H34.7801L36.1801 25.07H28.0301C28.0601 24.02 27.9901 22.97 28.0301 21.92C28.0501 21.43 28.1001 20.92 28.1801 20.43C28.8801 16.59 32.2601 16.68 35.4101 16.78C35.8101 16.79 36.2001 16.8 36.5901 16.83V9.9C35.5901 9.66 34.5501 9.51 33.5301 9.41C28.1401 8.9 22.2501 9.74 20.0101 15.36C18.7801 18.45 18.9901 21.79 18.9701 25.06H13.8201V32.73H18.9701V49.44C12.0801 47.71 6.16006 43.04 2.87006 36.75C1.15006 33.48 0.0700597 29.6 0.0300597 25.86C0.0300597 25.82 0.0500597 25.75 0.0100597 25.73C0.0100597 25.31 5.96792e-05 24.88 0.0100597 24.46C0.39006 11.07 11.0401 0.39 24.3701 0H25.6401Z" fill="white"/>
</g>
<defs>
<clipPath id="clip0_2719_795">
<rect width="50" height="50" fill="white"/>
</clipPath>
</defs>
</svg>
