<svg width="91" height="30" viewBox="0 0 91 30" fill="none" xmlns="http://www.w3.org/2000/svg">
<g clip-path="url(#clip0_3401_6298)">
<path d="M17.6822 12.0732C17.9572 11.8669 18.2323 11.653 18.4998 11.4237C19.2563 10.7895 19.9516 10.0865 20.5859 9.33763C21.243 8.55821 21.8773 7.7253 22.3205 6.8007C22.7789 5.86081 23.1152 4.79866 22.9471 3.74415C22.8019 2.79662 22.1294 2.04777 21.266 1.74211C20.838 1.58929 20.4178 1.55108 19.9822 1.574C19.4626 1.60457 18.9277 1.76504 18.4387 1.97135C17.3841 2.41455 16.4137 3.07171 15.4967 3.74415C12.891 5.66978 10.7132 8.15322 9.13147 10.9805C11.0495 10.9652 12.9751 11.1181 14.8701 11.4466C15.7795 11.6071 16.7193 11.8058 17.6669 12.0656" fill="white"/>
<path d="M7.10652 24.1466C6.82379 23.9021 6.5487 23.6499 6.28125 23.3901C6.35766 24.8344 6.56398 26.2633 6.90784 27.6693C9.23082 29.1441 11.9817 29.9999 14.9389 29.9999C17.43 29.9999 19.7759 29.3886 21.8467 28.3112C21.3959 28.4334 20.9374 28.5251 20.4865 28.5863C15.6496 29.2434 10.7132 27.3254 7.11416 24.1466" fill="white"/>
<path d="M4.6918 21.8162C4.01172 21.1056 3.34692 20.3797 2.70504 19.6384C1.76516 18.561 0.848192 17.4607 0 16.3145C0.343861 20.2727 2.22364 23.7877 5.03566 26.2635C4.98217 25.9502 4.92868 25.6293 4.89047 25.316C4.73765 24.1545 4.67652 22.9854 4.69944 21.8239" fill="white"/>
<path d="M8.52772 15.7563C8.56592 15.7563 8.75696 15.7257 8.75696 15.7257C8.87922 15.7104 8.99384 15.6951 9.1161 15.6722C9.61279 15.5958 10.1171 15.4965 10.6062 15.3818C11.6148 15.145 12.4477 14.8775 13.3953 14.4954C14.4803 14.0522 15.5119 13.5173 16.4977 12.8907C14.8166 12.4705 13.0973 12.2107 11.3703 12.0884C10.4533 12.0273 9.52109 12.0044 8.59649 12.0273C8.26791 12.6997 7.96225 13.3874 7.70245 14.0828C7.48849 14.6635 7.28981 15.2519 7.1217 15.848C7.32038 15.8403 7.5267 15.8327 7.72537 15.8174C7.99282 15.8021 8.26027 15.7715 8.52007 15.7486" fill="white"/>
<path d="M6.41877 11.1257C6.77028 11.0951 7.12178 11.0645 7.48092 11.0416C7.61847 10.7818 7.76366 10.522 7.90884 10.2622C9.10089 8.22194 10.5833 6.38037 12.3103 4.77568C13.1814 3.9657 14.106 3.21684 15.0917 2.5444C16.1921 1.79555 17.3536 1.11547 18.6373 0.748683C18.8284 0.695193 19.027 0.649345 19.2257 0.618779C17.8655 0.213787 16.429 -0.0078125 14.9389 -0.0078125C7.40451 -0.000171135 1.16151 5.56274 0.0993652 12.8068C0.664826 12.2719 1.51302 11.9815 2.23131 11.8134C3.60675 11.4848 5.01276 11.2708 6.41877 11.1333" fill="white"/>
<path d="M3.69841 12.5851C3.36219 12.6539 3.01833 12.7227 2.68211 12.8067C2.58277 12.8296 2.48343 12.8526 2.38409 12.8831C2.34589 12.8908 2.30768 12.9061 2.26183 12.9213C2.24655 12.9213 2.17013 12.9519 2.15485 12.9595C1.93325 13.0436 1.73458 13.1353 1.58175 13.2346C1.406 13.3569 1.3143 13.418 1.19968 13.5861C0.695351 14.3044 1.43656 14.9845 2.01731 15.229C2.514 15.443 2.80437 15.4888 3.3087 15.5882C3.80539 15.6799 4.30972 15.7563 4.81405 15.8021C5.05857 15.8251 5.30309 15.848 5.54762 15.8556C5.89912 14.5795 6.3576 13.334 6.92306 12.1343C5.83799 12.226 4.75292 12.3712 3.68312 12.5851" fill="white"/>
<path d="M1.79573 16.3374C1.8645 16.4291 1.92563 16.5132 1.9944 16.6049C2.88844 17.7434 3.82833 18.8514 4.79878 19.9288C4.89812 18.9049 5.06623 17.8886 5.29547 16.8876C4.9134 16.8647 4.53134 16.8341 4.14927 16.7959C3.36221 16.7042 2.55222 16.5896 1.78809 16.345" fill="white"/>
<path d="M18.6831 13.5479C18.4691 13.4715 18.2475 13.4028 18.0259 13.334C15.8558 14.8011 13.4029 15.8556 10.8583 16.4287C9.54402 16.7191 8.20678 16.8796 6.8619 16.9101C6.51039 18.4078 6.31172 19.9361 6.26587 21.472C6.81605 22.0375 7.36623 22.5877 7.94697 23.1226C8.56592 23.6957 9.13138 24.1847 9.76561 24.6432C11.5995 25.9652 13.762 26.9509 15.978 27.3941C17.1395 27.631 18.2857 27.7227 19.4625 27.6463C20.3795 27.5851 21.3805 27.3865 22.2669 27.0273C24.0855 26.2861 25.5221 24.8037 25.8354 22.7864C26.1487 20.7767 25.4381 18.6218 24.1543 17.0783C22.733 15.3742 20.7463 14.2815 18.6831 13.5479Z" fill="white"/>
<path d="M24.4676 3.41553C24.4829 3.46138 24.4906 3.51487 24.4982 3.56071C24.7122 4.68399 24.3759 5.88369 23.9022 6.89999C23.4131 7.94686 22.7254 8.90203 21.9842 9.78078C21.136 10.7894 20.1808 11.6988 19.1416 12.5164C22.5114 13.655 25.6673 15.5959 26.9358 18.9886C27.4936 20.4787 27.6312 22.1292 27.1956 23.6346C28.9149 21.1893 29.9312 18.2169 29.9312 14.9998C29.9312 10.331 27.7993 6.16642 24.46 3.41553" fill="white"/>
<path d="M40.3159 6.0827C40.3159 6.0827 40.3388 6.10563 40.3464 6.12091C40.3464 6.12855 40.3617 6.14383 40.3694 6.15148C40.4534 6.25081 40.5298 6.35779 40.6139 6.46477C40.6521 6.51062 40.7056 6.54119 40.7667 6.54119C40.7973 6.54119 40.8279 6.53354 40.8584 6.51826C41.0265 6.42656 41.2023 6.34251 41.3933 6.2661C41.4544 6.24317 41.4927 6.19732 41.5079 6.13619C41.5232 6.07506 41.5079 6.01393 41.4621 5.96808C41.2558 5.73884 41.0877 5.55545 40.9425 5.39498C40.8813 5.32621 40.7896 5.31093 40.7132 5.35677C40.5528 5.44083 40.3847 5.52488 40.2089 5.6013C40.1554 5.62422 40.1172 5.67771 40.1019 5.73884C40.0866 5.79997 40.1019 5.8611 40.1478 5.90695C40.2013 5.96044 40.2471 6.02157 40.3159 6.09799" fill="white"/>
<path d="M48.9277 10.9197C48.5762 10.9426 48.0948 10.9579 47.4911 10.9579H47.216V10.1403H47.43C47.7738 10.1403 48.1559 10.1632 48.5609 10.2167C48.6144 10.2167 48.6679 10.209 48.7061 10.1708C48.7443 10.1326 48.7672 10.0868 48.7672 10.0333V9.54425C48.7672 9.49076 48.7443 9.44491 48.7061 9.4067C48.6679 9.37614 48.622 9.35321 48.5762 9.35321C48.5762 9.35321 48.5685 9.35321 48.5609 9.35321C48.2094 9.37614 47.8273 9.39142 47.4223 9.39142H47.2084V8.67313H47.5446C47.8503 8.67313 48.1865 8.68842 48.5609 8.71134C48.6068 8.71134 48.6602 8.7037 48.7061 8.65785C48.7443 8.61964 48.7672 8.57379 48.7672 8.52031V8.01598C48.7672 7.96249 48.7443 7.91664 48.7061 7.87843C48.6679 7.84022 48.6144 7.82494 48.5685 7.83258C48.1941 7.85551 47.8503 7.87079 47.5522 7.87079H47.216V7.30533H47.6134C47.919 7.30533 48.2858 7.32061 48.6908 7.34353C48.7367 7.34353 48.7901 7.32825 48.836 7.29005C48.8742 7.25184 48.8971 7.20599 48.8971 7.1525V6.69402C48.8971 6.64053 48.8742 6.59468 48.836 6.55647C48.7901 6.51827 48.7367 6.49534 48.6984 6.50299C48.2858 6.52591 47.8808 6.54119 47.4988 6.54119H44.916L44.9695 6.4877C45.1529 6.29667 45.3362 6.10563 45.5349 5.93752C45.5808 5.89932 45.6037 5.83055 45.5961 5.76941C45.5884 5.70828 45.5502 5.65479 45.4891 5.62423C45.2828 5.52489 45.0764 5.41791 44.8472 5.30329C44.7555 5.25744 44.6409 5.28801 44.595 5.3797C44.404 5.73885 44.1442 6.10563 43.8385 6.47242C43.6169 6.72458 43.3801 6.96911 43.1279 7.19835C43.082 7.23656 43.0591 7.29005 43.0668 7.35118L43.0056 7.38938C42.9445 7.42759 42.9063 7.48872 42.9139 7.56513C42.9139 7.63391 42.9598 7.69504 43.0286 7.7256C43.189 7.80202 43.3418 7.87843 43.4718 7.95484C43.5634 8.00833 43.6704 7.98541 43.7316 7.89371C43.785 7.8173 43.8462 7.74089 43.915 7.67211L43.9684 7.61862V10.8204C43.9684 11.2253 43.9532 11.5769 43.9302 11.8519C43.9302 11.9054 43.9455 11.9589 43.9761 11.9971C44.0143 12.0353 44.0601 12.0583 44.1136 12.0583H44.6638C44.7708 12.0583 44.8548 11.9742 44.8548 11.8672V11.6456H47.5293C48.1101 11.6456 48.5915 11.6609 48.9659 11.6838C49.0194 11.6838 49.0652 11.6685 49.1111 11.6303C49.1493 11.5921 49.1722 11.5463 49.1722 11.4928V11.0878C49.1722 11.0343 49.1493 10.9885 49.1111 10.9503C49.0729 10.9121 49.0194 10.8968 48.9659 10.8968M46.2074 10.9579H44.8701V10.1403H46.2074V10.9579ZM46.2074 9.38378H44.8701V8.66549H46.2074V9.38378ZM46.2074 7.86315H44.8701V7.29769H46.2074V7.86315Z" fill="white"/>
<path d="M37.8324 7.66408L37.8859 7.62587V10.9804C37.8859 11.2632 37.8706 11.5765 37.8401 11.9127C37.8401 11.9662 37.8554 12.0197 37.8859 12.0579C37.9241 12.0961 37.97 12.119 38.0235 12.119H38.6348C38.7417 12.119 38.8258 12.0349 38.8258 11.928V11.8133H41.4391C42.0123 11.8133 42.4937 11.8286 42.8757 11.8515C42.9216 11.8515 42.9751 11.8439 43.0209 11.7981C43.0591 11.7598 43.082 11.714 43.082 11.6605V11.2097C43.082 11.1562 43.0591 11.1103 43.0209 11.0721C42.9827 11.0339 42.9292 11.0186 42.8834 11.0186C42.5089 11.0416 42.0275 11.0568 41.4468 11.0568H41.1717V10.3386H41.4468C41.8212 10.3386 42.2186 10.3538 42.6465 10.3768C42.7 10.3768 42.7458 10.3691 42.7917 10.3233C42.8299 10.2851 42.8528 10.2392 42.8528 10.1857V9.6814C42.8528 9.62791 42.8299 9.58206 42.7917 9.54385C42.7458 9.50565 42.6923 9.48272 42.6541 9.49036C42.2721 9.51329 41.8671 9.52857 41.4544 9.52857H41.1793V8.81028H41.5156C41.8594 8.81028 42.2415 8.82557 42.6541 8.84849C42.7076 8.84849 42.7535 8.83321 42.7993 8.795C42.8375 8.75679 42.8604 8.71094 42.8604 8.65745V8.19897C42.8604 8.14548 42.8375 8.09964 42.7993 8.06143C42.7687 8.0385 42.7229 8.0003 42.6618 8.00794C42.2644 8.03086 41.8823 8.04615 41.5232 8.04615H41.187V7.4272H41.4621C41.7907 7.4272 42.1727 7.44248 42.6006 7.4654C42.6465 7.4654 42.7076 7.45012 42.7458 7.41191C42.784 7.37371 42.807 7.32786 42.807 7.27437V6.81589C42.807 6.7624 42.784 6.71655 42.7458 6.67834C42.7076 6.64013 42.6541 6.62485 42.6083 6.62485C42.2262 6.64778 41.8441 6.66306 41.4697 6.66306H38.9557L39.0321 6.60193C39.2461 6.43382 39.4753 6.28099 39.7198 6.1358C39.781 6.10524 39.8115 6.03647 39.8115 5.97534C39.8115 5.90656 39.7733 5.84543 39.7122 5.81487C39.46 5.67732 39.2155 5.51685 38.9863 5.35639C38.9481 5.32582 38.8946 5.31054 38.8411 5.32582C38.7876 5.33346 38.7494 5.36403 38.7188 5.40987C38.4208 5.85307 38.0922 6.25042 37.7407 6.579C37.3892 6.90758 36.969 7.25144 36.4875 7.61059C36.4417 7.6488 36.4111 7.70228 36.4111 7.76342C36.4111 7.82455 36.4417 7.87804 36.4875 7.91624C36.6327 8.02322 36.7779 8.13784 36.9078 8.24482C36.9766 8.30595 37.0836 8.29831 37.1523 8.24482C37.4198 7.99266 37.6567 7.79398 37.8554 7.6488M38.8258 7.45012H40.2165V8.06907H38.8258V7.45012ZM38.8258 8.81792H40.2165V9.53621H38.8258V8.81792ZM38.8258 10.3462H40.2165V11.0645H38.8258V10.3462Z" fill="white"/>
<path d="M46.6811 6.37311C46.7193 6.4266 46.7728 6.45717 46.8339 6.45717C46.8568 6.45717 46.8798 6.45717 46.9027 6.44189L47.5216 6.21264C47.5751 6.18972 47.621 6.14387 47.6363 6.08274C47.6515 6.02161 47.6363 5.96048 47.598 5.91463C47.4376 5.70831 47.2695 5.51728 47.109 5.32625C47.0555 5.26511 46.9638 5.24219 46.8874 5.2804C46.6887 5.37209 46.5053 5.45615 46.3219 5.5402C46.2684 5.56313 46.2226 5.61662 46.215 5.67011C46.1997 5.73124 46.215 5.79237 46.2608 5.83822C46.406 5.99869 46.5512 6.18208 46.6811 6.37311Z" fill="white"/>
<path d="M48.7672 16.1235C47.8732 16.2228 47.025 16.2458 46.2609 16.1846C45.4509 16.1235 44.7479 15.9936 44.1671 15.8178L44.0984 15.7949L44.1519 15.7567C44.9542 15.2065 45.5502 14.6793 45.9399 14.1902C46.2685 13.7776 46.5895 13.3497 46.8798 12.9218C46.918 12.8606 46.9257 12.7919 46.8951 12.7307C46.8645 12.6696 46.7958 12.6314 46.727 12.6314H40.7438C39.8268 12.6314 39.1391 12.6161 38.6883 12.5932C38.6424 12.5855 38.5889 12.6008 38.5431 12.6467C38.5049 12.6849 38.482 12.7307 38.482 12.7842V13.2045C38.482 13.3115 38.566 13.3955 38.673 13.3955H40.0714V13.4108C40.7132 14.5112 41.3857 15.2829 42.0811 15.7032L42.1575 15.7491L42.0734 15.7644C41.3246 15.9172 40.7056 16.0242 40.2318 16.0929C39.3072 16.2152 38.2986 16.2305 37.3128 16.1235C37.3128 16.1235 37.3052 16.1235 37.2976 16.1235C37.2364 16.1235 37.1829 16.1541 37.1447 16.1923C37.1065 16.2458 37.0912 16.3145 37.1142 16.3757C37.2059 16.6202 37.267 16.8724 37.2976 17.1322C37.3052 17.2239 37.3893 17.3003 37.4809 17.3003H37.4962C38.0693 17.2697 38.6577 17.2162 39.2461 17.1551C39.8803 17.0863 40.4764 16.9946 41.0265 16.8724C41.5767 16.7577 42.2339 16.5743 42.9675 16.3451H42.9751H42.9827C43.4489 16.4826 43.8462 16.6049 44.1595 16.7195C44.4804 16.8341 44.8549 16.9411 45.2828 17.0252C45.7031 17.1092 46.1921 17.1704 46.7346 17.2009C47.2848 17.2315 47.9038 17.2697 48.5609 17.2926C48.6526 17.2926 48.7367 17.2239 48.7443 17.1245C48.7749 16.8571 48.8437 16.6125 48.943 16.3833C48.9736 16.3222 48.9583 16.2534 48.9201 16.1999C48.8819 16.1464 48.8131 16.1235 48.752 16.1235M45.3363 13.4414C45.0765 13.7852 44.7708 14.1215 44.4117 14.4424C44.0296 14.7939 43.6017 15.0996 43.1432 15.367H43.1279H43.1126C42.3791 14.9773 41.7372 14.3278 41.2176 13.4414L41.187 13.3879H45.3745L45.3363 13.4414Z" fill="white"/>
<path d="M55.3006 12.7841C55.3006 12.7306 55.2853 12.6848 55.2471 12.6466C55.2089 12.6084 55.1631 12.5854 55.1096 12.5854H51.3959C51.3424 12.5854 51.2965 12.6084 51.2583 12.6466C51.2201 12.6848 51.2048 12.7383 51.2048 12.7841C51.2278 13.2044 51.243 13.8616 51.243 14.7403C51.243 15.6191 51.2278 16.3221 51.2048 16.7958C51.2048 16.8493 51.2201 16.8952 51.2583 16.9334C51.2965 16.9716 51.3424 16.9945 51.3959 16.9945H52.0148C52.1218 16.9945 52.2059 16.9105 52.2059 16.8035V15.9247H54.2996V16.7041C54.2996 16.8111 54.3836 16.8952 54.4906 16.8952H55.1172C55.1707 16.8952 55.2165 16.8723 55.2548 16.834C55.293 16.7958 55.3082 16.75 55.3082 16.6965C55.2777 15.7566 55.2624 14.9772 55.2624 14.3812C55.2624 13.7851 55.2777 13.2655 55.3006 12.7765M54.2996 15.1224H52.2059V13.4413H54.2996V15.1224Z" fill="white"/>
<path d="M53.1533 6.75487C53.1763 6.80072 53.2221 6.83892 53.268 6.85421C53.2833 6.85421 53.2985 6.86185 53.3215 6.86185C53.3597 6.86185 53.3902 6.85421 53.4208 6.83128C53.6195 6.70902 53.8182 6.5944 54.0092 6.5027C54.055 6.47978 54.0932 6.43393 54.1085 6.38044C54.1238 6.32695 54.1085 6.27346 54.0856 6.22761C53.8869 5.92196 53.6653 5.59338 53.4132 5.24188C53.3597 5.16546 53.2527 5.14254 53.1686 5.18075C52.9929 5.28009 52.8171 5.36414 52.6567 5.44055C52.6108 5.46348 52.5726 5.50933 52.5573 5.55517C52.542 5.60866 52.5497 5.66215 52.5802 5.708C52.8018 6.0595 52.9929 6.41101 53.161 6.74723" fill="white"/>
<path d="M55.2088 9.07043C55.2088 9.01694 55.1859 8.97109 55.1477 8.93288C55.1095 8.89468 55.0483 8.87939 55.0101 8.87939C54.5517 8.90232 53.9633 8.9176 53.2603 8.9176C52.5573 8.9176 51.9842 8.90232 51.5028 8.87939C51.5028 8.87939 51.4951 8.87939 51.4875 8.87939C51.4416 8.87939 51.4034 8.89468 51.3652 8.93288C51.327 8.97109 51.3041 9.01694 51.3041 9.07043V9.62825C51.3041 9.68174 51.327 9.72759 51.3652 9.76579C51.4034 9.804 51.4416 9.81928 51.4875 9.81928H51.5028C51.9842 9.79636 52.5725 9.78108 53.2603 9.78108C53.948 9.78108 54.5364 9.79636 55.0101 9.81928C55.0101 9.81928 55.0178 9.81928 55.0254 9.81928C55.0713 9.81928 55.1171 9.804 55.1553 9.76579C55.1935 9.72759 55.2165 9.68174 55.2165 9.62825V9.07043H55.2088Z" fill="white"/>
<path d="M62.0097 12.6235C62.0097 12.57 61.9944 12.5241 61.9562 12.4859C61.918 12.4477 61.8721 12.4248 61.8186 12.4248H56.8823C56.8288 12.4248 56.783 12.4477 56.7448 12.4859C56.7066 12.5241 56.6913 12.57 56.6913 12.6235C56.7218 13.1584 56.7295 13.8843 56.7295 14.786C56.7295 15.6877 56.7142 16.3372 56.6913 16.8415C56.6913 16.895 56.7066 16.9409 56.7448 16.9791C56.783 17.0173 56.8288 17.0402 56.8823 17.0402H57.5089C57.6159 17.0402 57.6999 16.9561 57.6999 16.8492V16.2761H61.0087V16.9485C61.0087 17.0555 61.0927 17.1395 61.1997 17.1395H61.8263C61.8798 17.1395 61.9256 17.1166 61.9638 17.0784C62.002 17.0402 62.0173 16.9943 62.0173 16.9409C61.9868 16.192 61.9715 15.4355 61.9715 14.679C61.9715 13.9225 61.9868 13.2119 62.0173 12.6158M61.001 15.4814H57.6923V13.3418H61.001V15.4814Z" fill="white"/>
<path d="M62.8273 10.7359C62.4529 10.7588 62.0861 10.7741 61.7499 10.7741H61.7117L61.9944 8.31357C61.9944 8.26008 61.9868 8.20659 61.9486 8.16839C61.9104 8.13018 61.8645 8.10725 61.811 8.10725H59.2283L59.4728 6.79294H59.5034C60.5426 6.79294 61.4977 6.80822 62.3307 6.83879C62.3689 6.83879 62.43 6.82351 62.4682 6.7853C62.5064 6.74709 62.5293 6.70124 62.5293 6.64775V6.07465C62.5293 6.02116 62.5064 5.97531 62.4682 5.93711C62.43 5.8989 62.3765 5.87598 62.3307 5.88362C61.8493 5.91418 60.917 5.92182 59.5645 5.92182C58.212 5.92182 57.0887 5.90654 56.3857 5.87598C56.3245 5.87598 56.2787 5.8989 56.2481 5.92947C56.2099 5.96767 56.187 6.01352 56.187 6.06701V6.64011C56.187 6.6936 56.2099 6.73945 56.2481 6.77766C56.2863 6.80822 56.3322 6.83115 56.378 6.83115C56.9893 6.80058 57.6618 6.7853 58.3724 6.7853H58.4106L58.1126 8.09961H58.0821C57.5472 8.09961 57.0428 8.08433 56.5767 8.05377C56.5309 8.05377 56.4774 8.06141 56.4315 8.10725C56.3933 8.14546 56.3704 8.19131 56.3704 8.2448V8.8179C56.3704 8.87139 56.3933 8.91724 56.4315 8.95545C56.4621 8.98601 56.5079 9.0013 56.5691 9.00894C57.2033 8.97837 57.6236 8.96309 57.8987 8.96309H57.9369L57.593 10.7665H57.5624C57.104 10.7665 56.5767 10.7512 56.0036 10.7206C55.9501 10.7206 55.9043 10.7359 55.8661 10.7741C55.8279 10.8123 55.8049 10.8581 55.8049 10.9116V11.4847C55.8049 11.5382 55.8279 11.5841 55.8661 11.6223C55.9043 11.6528 55.9501 11.6758 55.996 11.6758H56.0036C56.7372 11.6452 57.9063 11.6299 59.4881 11.6299C61.0698 11.6299 62.1625 11.6452 62.8197 11.6758C62.8808 11.6758 62.9267 11.6528 62.9573 11.6223C62.9955 11.5841 63.0184 11.5382 63.0184 11.4847V10.9116C63.0184 10.8581 62.9955 10.8123 62.9573 10.7741C62.919 10.7359 62.8656 10.7206 62.8197 10.7282M60.9017 8.97073L60.6572 10.7741H58.7239L59.0219 8.97073H60.9094H60.9017Z" fill="white"/>
<path d="M55.4152 7.10659C54.8879 7.13716 54.1773 7.1448 53.3062 7.1448C52.4351 7.1448 51.7244 7.12951 51.1437 7.09895C51.0902 7.09895 51.052 7.11423 51.0138 7.15244C50.9756 7.19065 50.9526 7.23649 50.9526 7.28998V7.80196C50.9526 7.85544 50.9756 7.90129 51.0138 7.9395C51.052 7.97007 51.0978 7.99299 51.1437 7.99299H51.1513C51.7397 7.96242 52.4733 7.94714 53.3138 7.94714C54.1544 7.94714 54.8956 7.96242 55.4228 7.98535C55.4763 7.98535 55.5222 7.97007 55.5604 7.93186C55.5986 7.89365 55.6215 7.8478 55.6215 7.79431V7.28234C55.6215 7.22885 55.5986 7.183 55.5604 7.1448C55.5145 7.10659 55.4687 7.08367 55.4228 7.09131" fill="white"/>
<path d="M55.0026 10.7666C54.5976 10.7895 54.0703 10.8048 53.4514 10.8048C52.8019 10.8048 52.1905 10.7895 51.648 10.7666C51.5945 10.7666 51.5487 10.7819 51.5105 10.8201C51.4723 10.8583 51.4493 10.9041 51.4493 10.9576V11.4696C51.4493 11.5231 51.4723 11.5689 51.5105 11.6072C51.5487 11.6377 51.5945 11.6606 51.6404 11.6606H51.648C52.2058 11.6301 52.7942 11.6224 53.4055 11.6224C54.0168 11.6224 54.5594 11.6377 55.0026 11.6606C55.0561 11.6606 55.1019 11.653 55.1401 11.6072C55.1783 11.5689 55.2012 11.5231 55.2012 11.4696V10.9576C55.2012 10.9041 55.1783 10.8583 55.1401 10.8201C55.0943 10.7819 55.0484 10.759 54.9949 10.7666" fill="white"/>
<path d="M76.4061 7.09871H72.8681L72.8834 7.06814V7.05286C73.0286 6.67843 73.1432 6.24287 73.2425 5.75383C73.2502 5.70034 73.2425 5.63921 73.2043 5.601C73.1661 5.55515 73.1126 5.53223 73.0591 5.53223H72.1957C72.104 5.53223 72.0276 5.601 72.0123 5.6927C71.7907 7.09871 71.2252 8.24491 70.3235 9.11603C70.2853 9.15423 70.2624 9.20008 70.2624 9.25357V9.628C70.2624 9.69677 70.3006 9.7579 70.3541 9.78847C70.4152 9.81903 70.484 9.81903 70.5451 9.78847C70.7056 9.68913 70.8431 9.61272 70.973 9.5363L71.0113 9.51338V9.55923C71.3551 11.546 71.9359 13.0743 72.7382 14.1135L72.7535 14.1364L72.7382 14.1593C72.1193 14.9464 71.3093 15.6418 70.3465 16.2378C70.293 16.2683 70.2548 16.3371 70.2548 16.3982V16.8185C70.2548 16.8873 70.293 16.9484 70.3465 16.979C70.377 16.9943 70.4076 17.0019 70.4458 17.0019C70.4764 17.0019 70.5069 17.0019 70.5375 16.979C71.699 16.3524 72.6465 15.68 73.3572 14.9693L73.3801 14.9464L73.403 14.9693C74.022 15.5883 75 16.2607 76.322 16.9714C76.3831 17.0019 76.4519 17.0019 76.5054 16.9714C76.5589 16.9408 76.5971 16.872 76.5971 16.8109V16.383C76.5971 16.3218 76.5665 16.2607 76.513 16.2225C75.4432 15.5348 74.6256 14.8318 74.0678 14.144L74.0525 14.1211L74.0678 14.0982C75.0383 12.8221 75.6037 10.7436 75.7413 7.91633V7.88577H76.4137C76.5207 7.88577 76.6047 7.80171 76.6047 7.69473V7.27446C76.6047 7.16748 76.5207 7.08342 76.4137 7.08342M71.5079 9.07782L71.5767 9.01669C71.9435 8.71868 72.2492 8.34425 72.486 7.90869V7.89341H74.5798V7.92397C74.511 10.1247 74.1136 11.8746 73.403 13.1201L73.3724 13.1736L73.3419 13.1201C72.7917 12.0809 72.3714 10.7742 72.0963 9.23065C72.081 9.13895 72.0046 9.07782 71.9129 9.07782H71.5003H71.5079Z" fill="white"/>
<path d="M70.6521 15.1298V14.7095C70.6521 14.6484 70.6292 14.5949 70.5833 14.5643C70.5375 14.5261 70.4763 14.5185 70.4229 14.5261C70.3159 14.549 70.186 14.5796 70.0561 14.6178L68.9328 14.7783V11.0493H70.1707C70.2777 11.0493 70.3617 10.9652 70.3617 10.8583V10.3845C70.3617 10.2775 70.2777 10.1935 70.1707 10.1935H68.9328V7.2821H70.4687C70.5757 7.2821 70.6597 7.19805 70.6597 7.09107V6.6173C70.6597 6.51032 70.5757 6.42627 70.4687 6.42627H65.2726C65.1656 6.42627 65.0815 6.51032 65.0815 6.6173V7.09107C65.0815 7.19805 65.1656 7.2821 65.2726 7.2821H67.8248V14.9617H67.7942C67.458 15.0381 67.0989 15.0687 66.7168 15.0687H66.6862V9.00905C66.6862 8.90207 66.6022 8.81802 66.4952 8.81802H65.7693C65.6623 8.81802 65.5782 8.90207 65.5782 9.00905V15.168H65.0051C64.8981 15.168 64.8141 15.252 64.8141 15.359V15.9245C64.8141 15.978 64.837 16.0238 64.8752 16.062C64.9134 16.0926 64.9593 16.1155 65.0051 16.1155C66.9766 16.0391 68.8258 15.764 70.4993 15.3055C70.5833 15.2826 70.6368 15.2062 70.6368 15.1221" fill="white"/>
<path d="M83.9786 7.86293V8.13038C83.9786 8.19151 84.0092 8.245 84.0551 8.28321C84.1085 8.32142 84.1697 8.32906 84.2232 8.30613C85.2013 7.96991 85.8813 7.48087 86.2481 6.83899V6.82371H87.0581V6.84663C87.2797 7.29747 87.4096 7.8018 87.4631 8.3367C87.4707 8.43604 87.5548 8.50481 87.6465 8.50481H88.3419C88.3953 8.50481 88.4488 8.48188 88.487 8.43604C88.5253 8.39019 88.5405 8.3367 88.5252 8.27557C88.4412 7.88586 88.3113 7.41209 88.1203 6.86956L88.105 6.82371H89.8625C89.9695 6.82371 90.0535 6.73965 90.0535 6.63267V6.26589C90.0535 6.15891 89.9695 6.07485 89.8625 6.07485H86.6455V6.04429C86.6455 6.04429 86.6608 5.96788 86.6837 5.90674C86.6913 5.89146 86.699 5.87618 86.699 5.85325C86.7142 5.74628 86.7372 5.6393 86.7601 5.5476C86.7754 5.48647 86.7601 5.43298 86.7295 5.38713C86.6913 5.34128 86.6378 5.31836 86.5843 5.31836H85.8049C85.7132 5.31836 85.6368 5.37949 85.6215 5.47119C85.4305 6.51805 84.9109 7.25927 84.078 7.69482C84.0168 7.72539 83.9786 7.79416 83.9786 7.86293Z" fill="white"/>
<path d="M89.9923 16.1384C88.8767 15.6646 87.9292 15.0991 87.1803 14.4496C87.1498 14.4267 87.1115 14.4114 87.0733 14.4038L86.8135 14.1593C86.1029 13.4792 85.5221 12.7609 85.0789 12.0197L85.0484 11.9662H88.38V12.929C88.3953 13.0589 88.38 13.2423 88.2654 13.3569C88.1813 13.441 88.0514 13.4715 87.8604 13.4562H87.4936C87.3866 13.4562 87.3026 13.5403 87.3026 13.6473V13.9682C87.3026 14.0752 87.3866 14.1593 87.4936 14.1593H88.2272C88.2272 14.1593 88.296 14.1593 88.3265 14.1593C88.7468 14.1593 89.0601 14.0523 89.2664 13.8536C89.488 13.632 89.595 13.2881 89.5721 12.8297V11.3702C89.5721 11.2632 89.488 11.1791 89.381 11.1791H84.9643V9.99471H89.7555C89.8624 9.99471 89.9465 9.91065 89.9465 9.80367V9.3834C89.9465 9.27642 89.8624 9.19236 89.7555 9.19236H84.9643V8.77209C84.9643 8.66511 84.8803 8.58105 84.7733 8.58105H83.841C83.7341 8.58105 83.65 8.66511 83.65 8.77209V9.19236H78.8589C78.7519 9.19236 78.6678 9.27642 78.6678 9.3834V9.80367C78.6678 9.91065 78.7519 9.99471 78.8589 9.99471H83.65V11.1791H79.2792C79.1722 11.1791 79.0881 11.2632 79.0881 11.3702V13.8765C79.0881 13.9835 79.1722 14.0676 79.2792 14.0676H80.1044C80.2114 14.0676 80.2955 13.9835 80.2955 13.8765V11.9815H83.5201L83.4895 12.0273C82.6261 13.6244 80.9832 15.0074 78.622 16.146C78.5609 16.1766 78.515 16.2453 78.515 16.3141V16.7115C78.515 16.7726 78.5456 16.8337 78.5991 16.8643C78.6526 16.8949 78.7137 16.9025 78.7748 16.8796C81.0672 15.932 82.6872 14.8699 83.5889 13.7161L83.65 13.6396V17.0171C83.65 17.1241 83.7341 17.2082 83.841 17.2082H84.7733C84.8803 17.2082 84.9643 17.1241 84.9643 17.0171V13.632L85.0255 13.7084C85.9577 14.931 87.5777 16.0008 89.8395 16.8872C89.9007 16.9101 89.9618 16.9025 90.0153 16.8643C90.0688 16.8261 90.0993 16.7726 90.0993 16.7115V16.3141C90.0993 16.2377 90.0535 16.1689 89.9847 16.1384" fill="white"/>
<path d="M78.6374 8.51245C79.6842 8.14566 80.4178 7.60313 80.8151 6.90012V6.88484H81.4723V6.90012C81.6633 7.26691 81.8085 7.77124 81.9155 8.39783C81.9308 8.48953 82.0072 8.5583 82.0989 8.5583H82.779C82.8325 8.5583 82.8859 8.53537 82.9242 8.48953C82.9624 8.45132 82.9776 8.39019 82.97 8.34434C82.9089 7.90878 82.7637 7.43502 82.5421 6.93069L82.5192 6.88484H84.1773C84.2843 6.88484 84.3684 6.80078 84.3684 6.69381V6.27353C84.3684 6.16655 84.2843 6.0825 84.1773 6.0825H81.1972L81.2201 6.03665C81.2736 5.92967 81.3271 5.7692 81.3806 5.55524C81.3959 5.50175 81.3806 5.44062 81.3424 5.39477C81.3042 5.34892 81.2507 5.31836 81.1972 5.31836H80.3719C80.2802 5.31836 80.2038 5.37949 80.1885 5.47119C79.9669 6.5639 79.3938 7.37389 78.4845 7.8935C78.4234 7.92406 78.3928 7.99284 78.3928 8.05397V8.32906C78.3928 8.39019 78.4234 8.45132 78.4692 8.48188C78.5227 8.52009 78.5839 8.52773 78.6374 8.50481" fill="white"/>
<path d="M37.374 24.9109V24.7886L37.4733 24.758C37.5574 24.7275 37.6109 24.6816 37.6414 24.6358C37.672 24.5823 37.6873 24.5135 37.6873 24.4295C37.6873 24.2002 37.6873 23.971 37.6873 23.7417V22.8324C37.6873 22.6032 37.6873 22.3739 37.6873 22.137C37.6873 21.9078 37.6873 21.6786 37.6873 21.4417C37.6873 21.3423 37.672 21.2736 37.6491 21.2201C37.6185 21.1666 37.565 21.1284 37.4733 21.1055L37.374 21.0749V20.9526H39.0627C39.5441 20.9526 39.888 21.0443 40.1019 21.2201C40.3159 21.3958 40.4229 21.6251 40.4229 21.8925C40.4229 22.0988 40.3465 22.2899 40.1936 22.4503C40.0408 22.6185 39.7734 22.7331 39.3989 22.8095C39.8345 22.8553 40.1554 22.97 40.3541 23.1533C40.5528 23.3367 40.6445 23.5507 40.6445 23.8105C40.6445 23.9404 40.6139 24.0703 40.5604 24.2002C40.5069 24.3301 40.4076 24.4524 40.2777 24.5594C40.1478 24.6663 39.9644 24.7504 39.7352 24.8192C39.5059 24.8879 39.2232 24.9185 38.8717 24.9185H37.3663L37.374 24.9109ZM38.5431 22.7636H38.8258C39.1009 22.7636 39.292 22.7025 39.4142 22.5802C39.5365 22.458 39.5976 22.2517 39.5976 21.9537C39.5976 21.6556 39.5441 21.434 39.4295 21.3041C39.3149 21.1742 39.1391 21.1207 38.9022 21.1207H38.5431V22.7636ZM38.5431 24.7351H38.8717C39.1697 24.7351 39.3913 24.6587 39.5441 24.5135C39.6893 24.3683 39.7657 24.1314 39.7657 23.8029C39.7657 23.4743 39.6969 23.268 39.5518 23.1381C39.4066 23.0082 39.1773 22.947 38.8564 22.947H38.5431V24.7428V24.7351Z" fill="white"/>
<path d="M41.7524 24.9106V24.796L41.8441 24.7731C41.9282 24.7501 41.9817 24.7119 42.0046 24.6661C42.0352 24.6202 42.0505 24.5515 42.0505 24.4751V23.0308C42.0505 22.9239 42.0505 22.8169 42.0505 22.7023C42.0505 22.6258 42.0352 22.5571 42.0046 22.5112C41.974 22.4654 41.9206 22.4348 41.8365 22.4195L41.7524 22.4042V22.2973L42.7993 21.9534L42.8681 22.0222L42.8528 22.8704V24.4903C42.8528 24.5668 42.8681 24.6355 42.8986 24.6814C42.9292 24.7272 42.9827 24.7654 43.0591 24.7883L43.1279 24.8036V24.9183H41.7524V24.9106ZM42.4402 21.6095C42.3103 21.6095 42.1956 21.5713 42.1039 21.4873C42.0122 21.4032 41.9664 21.2962 41.9664 21.1663C41.9664 21.0364 42.0122 20.9295 42.1039 20.8454C42.1956 20.7614 42.3103 20.7231 42.4402 20.7231C42.5701 20.7231 42.6847 20.7614 42.7764 20.8454C42.8681 20.9295 42.9139 21.0364 42.9139 21.1663C42.9139 21.2962 42.8681 21.4032 42.7764 21.4873C42.6847 21.5713 42.5701 21.6095 42.4402 21.6095Z" fill="white"/>
<path d="M44.2283 24.9111V24.7965L44.32 24.7735C44.4499 24.7277 44.5186 24.6283 44.5186 24.4755C44.5186 24.338 44.5186 24.2004 44.5186 24.0629C44.5186 23.9253 44.5186 23.7878 44.5186 23.6503V21.3731C44.5186 21.2891 44.5034 21.2279 44.4804 21.1821C44.4499 21.1439 44.3964 21.1057 44.32 21.0904L44.2283 21.0675V20.9528L45.2751 20.7007L45.3516 20.7542L45.3286 21.6024V24.4755C45.3286 24.5596 45.3516 24.6207 45.3821 24.6666C45.4127 24.72 45.4662 24.7506 45.5426 24.7735L45.6266 24.7965V24.9111H44.2283Z" fill="white"/>
<path d="M46.7269 24.9106V24.796L46.8186 24.7731C46.9027 24.7501 46.9562 24.7119 46.9791 24.6661C47.0097 24.6202 47.0249 24.5515 47.0249 24.4751V23.0308C47.0249 22.9239 47.0249 22.8169 47.0249 22.7023C47.0249 22.6258 47.0097 22.5571 46.9791 22.5112C46.9485 22.4654 46.895 22.4348 46.811 22.4195L46.7269 22.4042V22.2973L47.7738 21.9534L47.8426 22.0222L47.8273 22.8704V24.4903C47.8273 24.5668 47.8426 24.6355 47.8731 24.6814C47.9037 24.7272 47.9572 24.7654 48.0336 24.7883L48.1024 24.8036V24.9183H46.7269V24.9106ZM47.4146 21.6095C47.2847 21.6095 47.1701 21.5713 47.0784 21.4873C46.9867 21.4032 46.9409 21.2962 46.9409 21.1663C46.9409 21.0364 46.9867 20.9295 47.0784 20.8454C47.1701 20.7614 47.2847 20.7231 47.4146 20.7231C47.5446 20.7231 47.6592 20.7614 47.7509 20.8454C47.8426 20.9295 47.8884 21.0364 47.8884 21.1663C47.8884 21.2962 47.8426 21.4032 47.7509 21.4873C47.6592 21.5713 47.5446 21.6095 47.4146 21.6095Z" fill="white"/>
<path d="M49.1875 24.911V24.7964L49.2868 24.7734C49.4167 24.7352 49.4855 24.6359 49.4855 24.4831V22.7179C49.4855 22.6339 49.4702 22.5727 49.4397 22.5269C49.4167 22.481 49.3632 22.4505 49.2868 22.4352L49.1875 22.4123V22.3053L50.158 21.9614L50.2267 22.0302L50.2649 22.4046C50.4101 22.2747 50.5706 22.1754 50.7463 22.0913C50.9221 22.0073 51.0978 21.9691 51.2736 21.9691C51.541 21.9691 51.7397 22.0378 51.8849 22.183C52.0301 22.3282 52.0989 22.5498 52.0989 22.8402V24.506C52.0989 24.6588 52.1676 24.7582 52.3128 24.7964L52.3816 24.8117V24.9263H51.0061V24.8117L51.0978 24.7887C51.2277 24.7429 51.2965 24.6435 51.2965 24.4984V22.7179C51.2965 22.5804 51.266 22.4734 51.2048 22.4123C51.1437 22.3511 51.0444 22.3129 50.9068 22.3129C50.7081 22.3129 50.5095 22.397 50.2955 22.5727V24.4984C50.2955 24.6512 50.3643 24.7505 50.5018 24.7887L50.5629 24.804V24.9186H49.1875V24.911Z" fill="white"/>
<path d="M54.7504 23.8867C54.483 23.8867 54.2614 23.8409 54.0703 23.7568V23.9708C54.0703 24.093 54.1315 24.1618 54.2537 24.1847L55.3235 24.3834C55.5298 24.4216 55.7056 24.4751 55.8661 24.5286C56.0189 24.5897 56.1412 24.6661 56.2328 24.7731C56.3169 24.8801 56.3628 25.0253 56.3628 25.201C56.3628 25.3921 56.3016 25.5755 56.1717 25.7359C56.0495 25.904 55.8584 26.0339 55.6139 26.1409C55.3694 26.2479 55.0637 26.2937 54.6969 26.2937C54.3836 26.2937 54.1315 26.2632 53.9481 26.1944C53.7647 26.1256 53.6271 26.0416 53.5507 25.9422C53.4667 25.8353 53.4285 25.7283 53.4285 25.606C53.4285 25.4608 53.4743 25.3156 53.5737 25.1781C53.673 25.0406 53.7953 24.9107 53.9557 24.819C53.7112 24.7273 53.5889 24.5821 53.5889 24.3834C53.5889 24.307 53.6042 24.2382 53.6424 24.1771C53.6806 24.1159 53.7188 24.0472 53.7723 23.986L53.9863 23.7186C53.6959 23.5505 53.5507 23.2907 53.5507 22.9315C53.5507 22.6412 53.6501 22.4043 53.8564 22.2285C54.0627 22.0451 54.3607 21.9611 54.7428 21.9611C55.1249 21.9611 55.4305 22.0528 55.6445 22.2285C55.7744 22.2056 55.889 22.175 56.0036 22.1292C56.1182 22.0833 56.2176 22.0222 56.3169 21.9458L56.401 22.0069V22.3432H55.7514C55.8813 22.5036 55.9425 22.6947 55.9425 22.9315C55.9425 23.2143 55.8431 23.4435 55.6368 23.6269C55.4305 23.8103 55.1325 23.8944 54.7504 23.8944V23.8867ZM53.8869 25.4303C53.8869 25.6519 53.9557 25.8123 54.0933 25.927C54.2308 26.0339 54.4524 26.0951 54.7581 26.0951C55.0943 26.0951 55.3388 26.0416 55.5069 25.927C55.675 25.8123 55.7514 25.6748 55.7514 25.4914C55.7514 25.3768 55.7132 25.2927 55.6292 25.2239C55.5451 25.1552 55.4076 25.1093 55.2165 25.0711L54.1468 24.8648C54.1468 24.8648 54.1162 24.8572 54.1009 24.8495C54.0398 24.9259 53.9939 25.0176 53.9481 25.1246C53.9099 25.2316 53.8869 25.3309 53.8869 25.4226V25.4303ZM54.7351 23.7186C54.9032 23.7186 55.0255 23.6575 55.1019 23.5276C55.1783 23.3977 55.2165 23.1913 55.2165 22.901C55.2165 22.6106 55.1783 22.4119 55.1019 22.2897C55.0255 22.1674 54.9109 22.1063 54.7504 22.1063C54.59 22.1063 54.4753 22.1674 54.3913 22.2973C54.3072 22.4272 54.2767 22.6335 54.2767 22.9163C54.2767 23.199 54.3149 23.4129 54.3836 23.5352C54.4524 23.6575 54.5747 23.7262 54.7351 23.7262V23.7186Z" fill="white"/>
<path d="M58.51 24.9951C58.3571 24.9951 58.2119 24.9645 58.082 24.911C57.9521 24.8499 57.8528 24.7582 57.7764 24.6206C57.7 24.4831 57.6694 24.3074 57.6694 24.0934L57.6847 22.588C57.6847 22.504 57.6694 22.4352 57.6388 22.397C57.6083 22.3588 57.5624 22.3282 57.486 22.313L57.4172 22.29V22.1831L58.4412 21.9844L58.51 22.0531L58.4794 22.9013V24.2615C58.4794 24.399 58.5176 24.4984 58.5864 24.5595C58.6551 24.6206 58.7545 24.6512 58.8615 24.6512C58.9684 24.6512 59.0831 24.6359 59.1748 24.5977C59.2664 24.5672 59.3658 24.5137 59.4651 24.4449L59.4804 22.6033C59.4804 22.5116 59.4651 22.4505 59.4422 22.4123C59.4193 22.3741 59.3658 22.3512 59.297 22.3282L59.2282 22.313V22.206L60.2293 21.9997L60.298 22.0684L60.2827 22.9166V24.4831C60.2827 24.5672 60.2904 24.6359 60.3133 24.6818C60.3362 24.7353 60.3821 24.7658 60.4585 24.7888L60.5349 24.8117V24.9263L59.5186 24.9874L59.4651 24.613C59.3276 24.7276 59.1824 24.827 59.0219 24.9034C58.8615 24.9798 58.6857 25.018 58.4794 25.018L58.51 24.9951Z" fill="white"/>
<path d="M62.4988 24.995C62.2695 24.995 62.0785 24.9263 61.918 24.804C61.7576 24.6741 61.6812 24.4907 61.6812 24.2462C61.6812 24.0551 61.7728 23.8794 61.9562 23.7189C62.1396 23.5584 62.4376 23.4362 62.835 23.3598C62.9038 23.3445 62.9802 23.3292 63.0719 23.3139C63.1636 23.2986 63.2476 23.2834 63.3393 23.2681V22.8402C63.3393 22.5651 63.3088 22.3817 63.24 22.2747C63.1712 22.1677 63.0642 22.1219 62.919 22.1219H62.9038C62.8121 22.1219 62.7357 22.1524 62.6822 22.2059C62.6287 22.2671 62.5905 22.3588 62.5752 22.4887L62.5599 22.5651C62.5446 22.7255 62.5064 22.8402 62.4376 22.9166C62.3689 22.993 62.2772 23.0236 62.1702 23.0236C62.0709 23.0236 61.9868 22.993 61.918 22.9319C61.8493 22.8707 61.8187 22.7867 61.8187 22.6873C61.8187 22.5269 61.8722 22.3893 61.9868 22.2747C62.1014 22.1601 62.2466 22.076 62.43 22.0225C62.6134 21.969 62.8197 21.9385 63.0337 21.9385C63.3852 21.9385 63.6603 22.0225 63.8513 22.1983C64.0423 22.374 64.134 22.6491 64.134 23.0388V24.3761C64.134 24.5442 64.2181 24.6359 64.3786 24.6359H64.5161L64.5772 24.7047C64.5085 24.7963 64.4244 24.8651 64.3403 24.9186C64.2486 24.9721 64.134 24.995 63.9812 24.995C63.8131 24.995 63.6755 24.9568 63.5686 24.8728C63.4692 24.7887 63.4005 24.6817 63.3699 24.5442C63.24 24.6817 63.1177 24.7887 62.9955 24.8728C62.8732 24.9568 62.7127 24.995 62.5064 24.995H62.4988ZM62.8503 24.6053C62.9267 24.6053 63.0031 24.59 63.0795 24.5518C63.1559 24.5136 63.24 24.4525 63.347 24.3684V23.4133C63.24 23.4285 63.1407 23.4515 63.026 23.4744C62.8579 23.5126 62.7127 23.589 62.6134 23.696C62.5141 23.803 62.4529 23.9482 62.4529 24.1315C62.4529 24.292 62.4911 24.4066 62.5599 24.4907C62.6363 24.5671 62.728 24.6053 62.8426 24.6053H62.8503Z" fill="white"/>
<path d="M65.5476 24.9111V24.7965L65.6393 24.7735C65.7692 24.7277 65.838 24.6283 65.838 24.4755C65.838 24.338 65.838 24.2004 65.838 24.0629C65.838 23.9253 65.838 23.7878 65.838 23.6503V21.3731C65.838 21.2891 65.8227 21.2279 65.7998 21.1821C65.7692 21.1439 65.7157 21.1057 65.6393 21.0904L65.5476 21.0675V20.9528L66.5945 20.7007L66.6709 20.7542L66.648 21.6024V24.4755C66.648 24.5596 66.6709 24.6207 66.7015 24.6666C66.732 24.72 66.7855 24.7506 66.8619 24.7735L66.946 24.7965V24.9111H65.5476Z" fill="white"/>
<path d="M70.8125 24.911V24.7888L70.9348 24.7582C71.0112 24.7353 71.0647 24.6971 71.0876 24.6512C71.1105 24.6054 71.1258 24.5366 71.1258 24.4526C71.1258 24.2233 71.1258 23.9941 71.1258 23.7572V22.1143C71.1258 21.8851 71.1258 21.6482 71.1258 21.4189C71.1258 21.3349 71.1105 21.2737 71.0876 21.2279C71.0647 21.182 71.0112 21.1438 70.9271 21.1209L70.8125 21.0827V20.9604H72.2567C72.8375 20.9604 73.2654 21.0674 73.5328 21.289C73.8003 21.503 73.9302 21.7934 73.9302 22.1525C73.9302 22.3741 73.8767 22.5804 73.7621 22.7715C73.6474 22.9625 73.4717 23.1153 73.2195 23.2223C72.9674 23.3369 72.6311 23.3904 72.2032 23.3904H71.9893V23.91C71.9893 24.0858 71.9893 24.2692 71.9893 24.4526C71.9893 24.613 72.0657 24.72 72.2109 24.7506L72.3943 24.7964V24.9187H70.8125V24.911ZM71.9816 23.1994H72.2338C72.4325 23.1994 72.5929 23.1688 72.7228 23.1077C72.8527 23.0465 72.9444 22.9396 73.0056 22.7867C73.0667 22.6339 73.0973 22.4276 73.0973 22.1601C73.0973 21.8927 73.0667 21.6864 72.9979 21.5336C72.9292 21.3807 72.8298 21.2814 72.6999 21.2126C72.57 21.1515 72.4019 21.1209 72.2109 21.1209H71.9893C71.9893 21.396 71.9893 21.6787 71.9893 21.9538V23.1994H71.9816Z" fill="white"/>
<path d="M76.3602 24.995C76.0621 24.995 75.8023 24.9339 75.5807 24.8116C75.3591 24.6894 75.191 24.5136 75.0688 24.2844C74.9465 24.0551 74.8854 23.7877 74.8854 23.4667C74.8854 23.1458 74.9465 22.8784 75.0764 22.6491C75.2063 22.4199 75.3821 22.2441 75.6037 22.1219C75.8253 21.9996 76.0774 21.9385 76.3525 21.9385C76.6276 21.9385 76.8798 21.9996 77.1014 22.1219C77.323 22.2441 77.4987 22.4199 77.6286 22.6415C77.7585 22.8707 77.8197 23.1382 77.8197 23.4591C77.8197 23.78 77.7585 24.0475 77.6363 24.2767C77.514 24.506 77.3459 24.6817 77.1243 24.804C76.9027 24.9263 76.6429 24.9874 76.3449 24.9874L76.3602 24.995ZM76.3602 24.8269C76.5053 24.8269 76.62 24.7887 76.7117 24.7123C76.8034 24.6359 76.8645 24.4983 76.9027 24.2997C76.9409 24.101 76.9638 23.8335 76.9638 23.482C76.9638 23.1305 76.9409 22.8478 76.9027 22.6491C76.8645 22.4504 76.7957 22.3129 76.7117 22.2365C76.62 22.1601 76.5053 22.1219 76.3602 22.1219C76.215 22.1219 76.1004 22.1601 76.0087 22.2365C75.917 22.3129 75.8558 22.4504 75.8176 22.6491C75.7794 22.8478 75.7565 23.1229 75.7565 23.482C75.7565 23.8412 75.7794 24.1086 75.8176 24.2997C75.8635 24.4983 75.9246 24.6282 76.0087 24.7123C76.0927 24.7887 76.215 24.8269 76.3602 24.8269Z" fill="white"/>
<path d="M78.92 24.9111V24.7965L79.0117 24.7735C79.1416 24.7277 79.2104 24.6283 79.2104 24.4755C79.2104 24.338 79.2104 24.2004 79.2104 24.0629C79.2104 23.9253 79.2104 23.7878 79.2104 23.6503V21.3731C79.2104 21.2891 79.1951 21.2279 79.1722 21.1821C79.1416 21.1439 79.0882 21.1057 79.0117 21.0904L78.92 21.0675V20.9528L79.9669 20.7007L80.0433 20.7542L80.0204 21.6024V24.4755C80.0204 24.5596 80.0433 24.6207 80.0739 24.6666C80.1045 24.72 80.1579 24.7506 80.2344 24.7735L80.3184 24.7965V24.9111H78.92Z" fill="white"/>
<path d="M81.4187 24.9106V24.796L81.5104 24.7731C81.5944 24.7501 81.6479 24.7119 81.6709 24.6661C81.7014 24.6202 81.7167 24.5515 81.7167 24.4751V23.0308C81.7167 22.9239 81.7167 22.8169 81.7167 22.7023C81.7167 22.6258 81.7014 22.5571 81.6709 22.5112C81.6403 22.4654 81.5868 22.4348 81.5028 22.4195L81.4187 22.4042V22.2973L82.4656 21.9534L82.5343 22.0222L82.5191 22.8704V24.4903C82.5191 24.5668 82.5343 24.6355 82.5649 24.6814C82.5955 24.7272 82.649 24.7654 82.7254 24.7883L82.7941 24.8036V24.9183H81.4187V24.9106ZM82.1064 21.6095C81.9765 21.6095 81.8619 21.5713 81.7702 21.4873C81.6785 21.4032 81.6327 21.2962 81.6327 21.1663C81.6327 21.0364 81.6785 20.9295 81.7702 20.8454C81.8619 20.7614 81.9765 20.7231 82.1064 20.7231C82.2363 20.7231 82.3509 20.7614 82.4426 20.8454C82.5343 20.9295 82.5802 21.0364 82.5802 21.1663C82.5802 21.2962 82.5343 21.4032 82.4426 21.4873C82.3509 21.5713 82.2363 21.6095 82.1064 21.6095Z" fill="white"/>
<path d="M85.354 24.9947C85.0789 24.9947 84.8344 24.9336 84.6204 24.819C84.4065 24.7043 84.2307 24.5286 84.1008 24.307C83.9709 24.0854 83.9098 23.8103 83.9098 23.4817C83.9098 23.1531 83.9786 22.8857 84.1161 22.6564C84.2537 22.4272 84.4447 22.2515 84.6739 22.1292C84.9108 22.0069 85.163 21.9458 85.4457 21.9458C85.6749 21.9458 85.866 21.984 86.0265 22.0604C86.1869 22.1368 86.3092 22.2362 86.3932 22.3508C86.4773 22.4654 86.5155 22.5953 86.5155 22.7252C86.5155 22.8398 86.4849 22.9239 86.4162 22.985C86.3474 23.0462 86.2633 23.0767 86.164 23.0767C86.0494 23.0767 85.9577 23.0385 85.8889 22.9545C85.8201 22.878 85.7819 22.7711 85.7666 22.6488C85.7666 22.5724 85.7666 22.5036 85.7666 22.4425C85.7666 22.3814 85.7666 22.3355 85.7666 22.282C85.7514 22.2132 85.7208 22.1674 85.6826 22.1445C85.6444 22.1216 85.5909 22.1063 85.5221 22.1063C85.27 22.1063 85.0789 22.2056 84.9414 22.4119C84.8038 22.6106 84.7427 22.9392 84.7427 23.39C84.7427 23.7797 84.8191 24.0777 84.9643 24.2841C85.1095 24.4904 85.3387 24.5974 85.652 24.5974C85.8354 24.5974 85.9882 24.5591 86.1105 24.4904C86.2328 24.4216 86.3397 24.3223 86.4391 24.1847L86.5384 24.2535C86.4391 24.4904 86.2863 24.6738 86.0799 24.8037C85.8736 24.9259 85.6291 24.9947 85.3464 24.9947H85.354Z" fill="white"/>
<path d="M88.1508 26.3553C87.9903 26.3553 87.8681 26.3171 87.7764 26.2407C87.6847 26.1643 87.6388 26.0649 87.6388 25.9427C87.6388 25.828 87.677 25.744 87.7534 25.6752C87.8298 25.6064 87.9215 25.5759 88.0132 25.5759C88.1049 25.5759 88.1966 25.5912 88.2578 25.6294C88.3189 25.6676 88.38 25.7134 88.4259 25.7822L88.4641 25.828C88.5558 25.9427 88.6398 25.935 88.7239 25.828C88.7774 25.7593 88.8232 25.6752 88.8767 25.5759C88.9302 25.4765 88.9837 25.3466 89.0448 25.1785L87.9063 22.4582C87.8757 22.3818 87.8451 22.3206 87.8069 22.2824C87.7687 22.2366 87.7152 22.206 87.6465 22.1755L87.5471 22.1373V22.0303H89.0295V22.1373L88.9073 22.1755C88.8232 22.206 88.7697 22.2442 88.7697 22.3054C88.7697 22.3665 88.7697 22.4353 88.8079 22.527L89.4193 24.124L90.0076 22.5193C90.0382 22.4353 90.0535 22.3589 90.0458 22.2977C90.0382 22.2366 89.9847 22.1984 89.893 22.1755L89.7631 22.1373V22.0303H90.6572V22.1373L90.5273 22.1755C90.4356 22.1984 90.3744 22.2366 90.3362 22.2824C90.298 22.3283 90.2598 22.3971 90.2292 22.4811L89.2741 25.0563C89.1136 25.4918 88.9531 25.8204 88.785 26.0267C88.6169 26.233 88.4106 26.34 88.1737 26.34L88.1508 26.3553Z" fill="white"/>
</g>
<defs>
<clipPath id="clip0_3401_6298">
<rect width="90.6342" height="30" fill="white"/>
</clipPath>
</defs>
</svg>
