<svg width="390" height="111" viewBox="0 0 390 111" fill="none" xmlns="http://www.w3.org/2000/svg">
<mask id="mask0_1047_757" style="mask-type:luminance" maskUnits="userSpaceOnUse" x="0" y="0" width="390" height="111">
<path d="M389.218 0H0V111H389.218V0Z" fill="white"/>
</mask>
<g mask="url(#mask0_1047_757)">
<path d="M98.5882 77.5815C86.4584 77.5815 80.2947 75.6891 74.3286 73.8575C68.4916 72.0638 62.4495 70.2094 50.5781 70.2094V68.4766C62.7079 68.4766 68.8717 70.369 74.8378 72.2006C80.6747 73.9943 86.7168 75.8487 98.5882 75.8487C110.46 75.8487 116.502 73.9943 122.339 72.2006C128.297 70.369 134.468 68.4766 146.598 68.4766V70.2094C134.727 70.2094 128.685 72.0638 122.848 73.8575C116.889 75.6891 110.718 77.5815 98.5882 77.5815Z" fill="url(#paint0_linear_1047_757)"/>
<path d="M98.5882 74.1761C86.466 74.1761 80.3023 72.2836 74.3438 70.452C68.4993 68.6584 62.4571 66.804 50.5781 66.804V65.1699C62.7003 65.1699 68.864 67.0624 74.8226 68.894C80.6671 70.6876 86.7092 72.5421 98.5882 72.5421C110.467 72.5421 116.509 70.6876 122.354 68.894C128.312 67.0624 134.476 65.1699 146.598 65.1699V66.804C134.719 66.804 128.677 68.6584 122.833 70.452C116.874 72.2836 110.71 74.1761 98.5882 74.1761Z" fill="url(#paint1_linear_1047_757)"/>
<path d="M98.5882 70.7802C86.4736 70.7802 80.3099 68.8878 74.359 67.0637C68.5145 65.2701 62.4647 63.4081 50.5781 63.4081V61.8652C62.6927 61.8652 68.8565 63.7577 74.8074 65.5817C80.6519 67.3753 86.7016 69.2374 98.5882 69.2374C110.475 69.2374 116.517 67.3829 122.369 65.5817C128.328 63.7501 134.484 61.8652 146.598 61.8652V63.4081C134.712 63.4081 128.67 65.2625 122.817 67.0637C116.859 68.8954 110.703 70.7802 98.5882 70.7802Z" fill="url(#paint2_linear_1047_757)"/>
<path d="M98.5882 67.3748C86.4736 67.3748 80.3251 65.4823 74.3742 63.6583C68.522 61.8647 62.4723 60.0026 50.5781 60.0026V58.5586C62.6927 58.5586 68.8413 60.451 74.7922 62.2751C80.6443 64.0687 86.694 65.9307 98.5882 65.9307C110.482 65.9307 116.532 64.0763 122.384 62.2751C128.335 60.451 134.491 58.5586 146.598 58.5586V60.0026C134.704 60.0026 128.654 61.8571 122.802 63.6583C116.851 65.4823 110.695 67.3748 98.5882 67.3748Z" fill="url(#paint3_linear_1047_757)"/>
<path d="M98.5882 63.9769C86.4812 63.9769 80.3327 62.0845 74.3818 60.2604C68.5297 58.4668 62.4723 56.6048 50.5781 56.6048V55.252C62.6851 55.252 68.8337 57.1444 74.7846 58.9684C80.6367 60.7621 86.694 62.6241 98.5882 62.6241C110.482 62.6241 116.54 60.7621 122.392 58.9684C128.343 57.1444 134.491 55.252 146.598 55.252V56.6048C134.696 56.6048 128.647 58.4668 122.795 60.2604C116.844 62.0845 110.695 63.9769 98.5882 63.9769Z" fill="url(#paint4_linear_1047_757)"/>
<path d="M98.5882 60.5734C86.4888 60.5734 80.3479 58.6886 74.397 56.857C68.5372 55.0557 62.4875 53.2013 50.5781 53.2013V51.9473C62.6775 51.9473 68.8185 53.8321 74.7694 55.6637C80.6291 57.465 86.6788 59.3194 98.5882 59.3194C110.498 59.3194 116.555 57.4574 122.407 55.6637C128.35 53.8397 134.499 51.9473 146.598 51.9473V53.2013C134.689 53.2013 128.632 55.0633 122.779 56.857C116.836 58.681 110.688 60.5734 98.5882 60.5734Z" fill="url(#paint5_linear_1047_757)"/>
<path d="M98.5882 57.1758C86.4964 57.1758 80.3555 55.291 74.4122 53.4669C68.5525 51.6657 62.4951 49.8037 50.5781 49.8037V48.6484C62.6699 48.6484 68.8109 50.5333 74.7542 52.3573C80.6139 54.1585 86.6712 56.0206 98.5882 56.0206C110.505 56.0206 116.563 54.1585 122.422 52.3573C128.366 50.5333 134.506 48.6484 146.598 48.6484V49.8037C134.681 49.8037 128.624 51.6657 122.764 53.4669C116.821 55.291 110.68 57.1758 98.5882 57.1758Z" fill="url(#paint6_linear_1047_757)"/>
<path d="M98.5882 53.7701C86.504 53.7701 80.3631 51.8853 74.4274 50.0613C68.5677 48.26 62.5027 46.398 50.5781 46.398V45.334C62.6623 45.334 68.8033 47.2188 74.739 49.0428C80.5987 50.8441 86.6636 52.7061 98.5882 52.7061C110.513 52.7061 116.57 50.8441 122.437 49.0428C128.373 47.2188 134.514 45.334 146.598 45.334V46.398C134.674 46.398 128.609 48.26 122.749 50.0613C116.813 51.8853 110.672 53.7701 98.5882 53.7701Z" fill="url(#paint7_linear_1047_757)"/>
<path d="M98.5882 50.3725C86.5116 50.3725 80.3783 48.4877 74.4426 46.6636C68.5752 44.8624 62.5103 43.0004 50.5781 43.0004V42.0352C62.6547 42.0352 68.7881 43.92 74.7238 45.744C80.5911 47.5453 86.656 49.4073 98.5882 49.4073C110.52 49.4073 116.585 47.5453 122.453 45.744C128.388 43.92 134.522 42.0352 146.598 42.0352V43.0004C134.666 43.0004 128.601 44.8624 122.734 46.6636C116.798 48.4877 110.665 50.3725 98.5882 50.3725Z" fill="url(#paint8_linear_1047_757)"/>
<path d="M98.5882 46.9692C86.5192 46.9692 80.3859 45.0844 74.4578 43.268C68.5905 41.4667 62.5179 39.6047 50.5781 39.6047V38.7383C62.6471 38.7383 68.7805 40.6231 74.7086 42.4395C80.5759 44.2408 86.6484 46.1028 98.5882 46.1028C110.528 46.1028 116.593 44.2408 122.468 42.4395C128.396 40.6155 134.529 38.7383 146.598 38.7383V39.6047C134.658 39.6047 128.594 41.4667 122.719 43.268C116.791 45.092 110.657 46.9692 98.5882 46.9692Z" fill="url(#paint9_linear_1047_757)"/>
<path d="M98.5882 43.5712C86.5268 43.5712 80.4011 41.6863 74.473 39.8699C68.5981 38.0687 62.5255 36.199 50.5781 36.199V35.4238C62.6395 35.4238 68.7653 37.3087 74.6934 39.1251C80.5683 40.9263 86.6408 42.796 98.5882 42.796C110.536 42.796 116.608 40.9339 122.483 39.1251C128.411 37.3011 134.544 35.4238 146.598 35.4238V36.199C134.651 36.199 128.578 38.0611 122.703 39.8699C116.775 41.6939 110.642 43.5712 98.5882 43.5712Z" fill="url(#paint10_linear_1047_757)"/>
<path d="M98.5882 40.1657C86.5344 40.1657 80.4087 38.2809 74.4806 36.4645C68.6057 34.6632 62.5255 32.7936 50.5781 32.7936V32.1172C62.6319 32.1172 68.7577 34.002 74.6858 35.8185C80.5607 37.6197 86.6408 39.4893 98.5882 39.4893C110.536 39.4893 116.616 37.6197 122.491 35.8185C128.419 34.002 134.544 32.1172 146.598 32.1172V32.7936C134.643 32.7936 128.571 34.6632 122.696 36.4645C116.768 38.2809 110.642 40.1657 98.5882 40.1657Z" fill="url(#paint11_linear_1047_757)"/>
<path d="M98.5882 36.7679C86.542 36.7679 80.4163 34.8907 74.4958 33.0666C68.6133 31.2578 62.5331 29.3958 50.5781 29.3958V28.8105C62.6243 28.8105 68.7501 30.6878 74.6706 32.5118C80.5531 34.3206 86.6332 36.1827 98.5882 36.1827C110.543 36.1827 116.631 34.313 122.506 32.5118C128.426 30.6954 134.552 28.8105 146.598 28.8105V29.3958C134.636 29.3958 128.556 31.2654 122.681 33.0666C116.76 34.8831 110.634 36.7679 98.5882 36.7679Z" fill="url(#paint12_linear_1047_757)"/>
<path d="M98.5882 33.3644C86.5496 33.3644 80.4315 31.4872 74.511 29.6707C68.6285 27.8619 62.5407 25.9923 50.5781 25.9923V25.5059C62.6167 25.5059 68.7348 27.3831 74.6554 29.1995C80.5379 31.0084 86.6256 32.878 98.5882 32.878C110.551 32.878 116.639 31.0084 122.521 29.1995C128.442 27.3831 134.56 25.5059 146.598 25.5059V25.9923C134.636 25.9923 128.548 27.8619 122.665 29.6707C116.745 31.4872 110.627 33.3644 98.5882 33.3644Z" fill="url(#paint13_linear_1047_757)"/>
<path d="M98.5882 29.9668C86.5572 29.9668 80.4391 28.0895 74.5262 26.2731C68.6361 24.4643 62.5483 22.5946 50.5781 22.5946V22.207C62.6091 22.207 68.7273 24.0843 74.6402 25.9007C80.5303 27.7095 86.618 29.5792 98.5882 29.5792C110.558 29.5792 116.646 27.7095 122.536 25.9007C128.449 24.0843 134.567 22.207 146.598 22.207V22.5946C134.628 22.5946 128.54 24.4643 122.65 26.2731C116.737 28.0895 110.619 29.9668 98.5882 29.9668Z" fill="url(#paint14_linear_1047_757)"/>
<path d="M50.5777 70.6284C38.4479 70.6284 32.2766 68.736 26.3181 66.9043C20.4812 65.1107 14.4391 63.2563 2.56768 63.2563C-9.30373 63.2563 -15.3458 65.1107 -21.1827 66.9043C-27.1413 68.736 -33.3126 70.6284 -45.4424 70.6284V68.8956C-33.571 68.8956 -27.5289 67.0411 -21.692 65.2475C-15.7334 63.4159 -9.56214 61.5234 2.56768 61.5234C14.6975 61.5234 20.8612 63.4159 26.8273 65.2475C32.6642 67.0411 38.7063 68.8956 50.5777 68.8956V70.6284Z" fill="url(#paint15_linear_1047_757)"/>
<path d="M50.5777 73.9339C38.4555 73.9339 32.2918 72.0415 26.3333 70.2098C20.4888 68.4162 14.4467 66.5618 2.56768 66.5618C-9.31133 66.5618 -15.3534 68.4162 -21.1979 70.2098C-27.1564 72.0415 -33.3202 73.9339 -45.4424 73.9339V72.2999C-33.5634 72.2999 -27.5213 70.4454 -21.6768 68.6518C-15.7182 66.8202 -9.55454 64.9277 2.56768 64.9277C14.6899 64.9277 20.8536 66.8202 26.8121 68.6518C32.6566 70.4454 38.6987 72.2999 50.5777 72.2999V73.9339Z" fill="url(#paint16_linear_1047_757)"/>
<path d="M50.5777 77.2392C38.4631 77.2392 32.2994 75.3467 26.3485 73.5227C20.504 71.7291 14.4543 69.867 2.56768 69.867C-9.31893 69.867 -15.361 71.7215 -21.2131 73.5227C-27.1716 75.3543 -33.3278 77.2392 -45.4424 77.2392V75.6963C-33.5558 75.6963 -27.5137 73.8419 -21.6615 72.0407C-15.703 70.2091 -9.54694 68.3242 2.56768 68.3242C14.6823 68.3242 20.846 70.2167 26.7969 72.0407C32.6414 73.8343 38.6911 75.6963 50.5777 75.6963V77.2392Z" fill="url(#paint17_linear_1047_757)"/>
<path d="M50.5777 80.5447C38.4631 80.5447 32.3146 78.6522 26.3637 76.8282C20.5116 75.0346 14.4619 73.1725 2.56768 73.1725C-9.32653 73.1725 -15.3762 75.027 -21.2283 76.8282C-27.1793 78.6522 -33.3354 80.5447 -45.4424 80.5447V79.1007C-33.5482 79.1007 -27.4985 77.2462 -21.6464 75.445C-15.6954 73.6209 -9.53934 71.7285 2.56768 71.7285C14.6747 71.7285 20.8308 73.6209 26.7817 75.445C32.6338 77.2386 38.6835 79.1007 50.5777 79.1007V80.5447Z" fill="url(#paint18_linear_1047_757)"/>
<path d="M50.5777 83.8519C38.4707 83.8519 32.3222 81.9595 26.3713 80.1354C20.5192 78.3342 14.4619 76.4798 2.56768 76.4798C-9.32653 76.4798 -15.3838 78.3418 -21.2359 80.1354C-27.1868 81.9595 -33.3354 83.8519 -45.4424 83.8519V82.4991C-33.5406 82.4991 -27.4909 80.6371 -21.6387 78.8434C-15.6878 77.0194 -9.53934 75.127 2.56768 75.127C14.6747 75.127 20.8232 77.0118 26.7741 78.8434C32.6262 80.6371 38.6835 82.4991 50.5777 82.4991V83.8519Z" fill="url(#paint19_linear_1047_757)"/>
<path d="M50.5777 87.1574C38.4783 87.1574 32.3298 85.2726 26.3865 83.4409C20.5268 81.6397 14.4771 79.7853 2.56768 79.7853C-9.34173 79.7853 -15.399 81.6473 -21.2511 83.4409C-27.1945 85.265 -33.343 87.1574 -45.4424 87.1574V85.9034C-33.533 85.9034 -27.4757 84.0413 -21.6236 82.2477C-15.6802 80.4237 -9.53174 78.5312 2.56768 78.5312C14.6671 78.5312 20.808 80.4161 26.7589 82.2477C32.6186 84.0489 38.6683 85.9034 50.5777 85.9034V87.1574Z" fill="url(#paint20_linear_1047_757)"/>
<path d="M50.5777 90.457C38.4859 90.457 32.345 88.5722 26.4017 86.7482C20.542 84.9469 14.4847 83.0849 2.56768 83.0849C-9.34933 83.0849 -15.4066 84.9469 -21.2663 86.7482C-27.2097 88.5722 -33.3506 90.457 -45.4424 90.457V89.3018C-33.5254 89.3018 -27.4681 87.4398 -21.6084 85.6386C-15.665 83.8145 -9.52414 81.9297 2.56768 81.9297C14.6595 81.9297 20.8004 83.8145 26.7437 85.6386C32.6034 87.4398 38.6607 89.3018 50.5777 89.3018V90.457Z" fill="url(#paint21_linear_1047_757)"/>
<path d="M50.5777 93.7623C38.4935 93.7623 32.3526 91.8775 26.4169 90.0535C20.5496 88.2522 14.4923 86.3902 2.56768 86.3902C-9.35693 86.3902 -15.4218 88.2522 -21.2815 90.0535C-27.2172 91.8775 -33.3582 93.7623 -45.4424 93.7623V92.6983C-33.5178 92.6983 -27.4529 90.8363 -21.5931 89.035C-15.6574 87.211 -9.51654 85.3262 2.56768 85.3262C14.6519 85.3262 20.7928 87.211 26.7285 89.035C32.5958 90.8363 38.6531 92.6983 50.5777 92.6983V93.7623Z" fill="url(#paint22_linear_1047_757)"/>
<path d="M50.5777 97.0678C38.5011 97.0678 32.3678 95.183 26.4321 93.3589C20.5648 91.5577 14.4999 89.6957 2.56768 89.6957C-9.36453 89.6957 -15.4294 91.5577 -21.2967 93.3589C-27.2325 95.183 -33.3658 97.0678 -45.4424 97.0678V96.1026C-33.5102 96.1026 -27.4453 94.2406 -21.5779 92.4393C-15.6422 90.6153 -9.50894 88.7305 2.56768 88.7305C14.6443 88.7305 20.7776 90.6153 26.7133 92.4393C32.5806 94.2406 38.6455 96.1026 50.5777 96.1026V97.0678Z" fill="url(#paint23_linear_1047_757)"/>
<path d="M50.5777 100.374C38.5087 100.374 32.3754 98.4887 26.4473 96.6723C20.58 94.871 14.5075 93.009 2.56768 93.009C-9.37213 93.009 -15.437 94.871 -21.3119 96.6723C-27.2401 98.4963 -33.3734 100.374 -45.4424 100.374V99.5071C-33.5026 99.5071 -27.4377 97.6451 -21.5628 95.8438C-15.6346 94.0198 -9.50134 92.1426 2.56768 92.1426C14.6367 92.1426 20.77 94.0274 26.6981 95.8438C32.5654 97.6451 38.6379 99.5071 50.5777 99.5071V100.374Z" fill="url(#paint24_linear_1047_757)"/>
<path d="M50.5777 103.681C38.5163 103.681 32.3906 101.796 26.4625 99.9793C20.5876 98.1781 14.5151 96.3084 2.56768 96.3084C-9.37973 96.3084 -15.4522 98.1705 -21.3271 99.9793C-27.2552 101.803 -33.3886 103.681 -45.4424 103.681V102.905C-33.495 102.905 -27.4225 101.043 -21.5476 99.2345C-15.6194 97.4104 -9.48614 95.5332 2.56768 95.5332C14.6215 95.5332 20.7548 97.418 26.6829 99.2345C32.5578 101.036 38.6303 102.905 50.5777 102.905V103.681Z" fill="url(#paint25_linear_1047_757)"/>
<path d="M50.5777 106.986C38.5239 106.986 32.3982 105.101 26.4701 103.285C20.5952 101.484 14.5151 99.6139 2.56768 99.6139C-9.37973 99.6139 -15.4598 101.484 -21.3347 103.285C-27.2629 105.101 -33.3886 106.986 -45.4424 106.986V106.31C-33.4874 106.31 -27.4149 104.44 -21.54 102.639C-15.6118 100.822 -9.48614 98.9375 2.56768 98.9375C14.6215 98.9375 20.7472 100.822 26.6753 102.639C32.5502 104.44 38.6303 106.31 50.5777 106.31V106.986Z" fill="url(#paint26_linear_1047_757)"/>
<path d="M50.5777 110.293C38.5315 110.293 32.4058 108.416 26.4853 106.592C20.6028 104.783 14.5227 102.921 2.56768 102.921C-9.38733 102.921 -15.475 104.791 -21.35 106.592C-27.2705 108.408 -33.3962 110.293 -45.4424 110.293V109.708C-33.4874 109.708 -27.3997 107.838 -21.5248 106.037C-15.6042 104.221 -9.47854 102.336 2.56768 102.336C14.6139 102.336 20.7396 104.213 26.6601 106.037C32.5426 107.846 38.6227 109.708 50.5777 109.708V110.293Z" fill="url(#paint27_linear_1047_757)"/>
<path d="M50.5777 113.599C38.5391 113.599 32.421 111.722 26.5005 109.905C20.618 108.096 14.5303 106.227 2.56768 106.227C-9.39493 106.227 -15.4826 108.096 -21.3651 109.905C-27.2856 111.722 -33.4038 113.599 -45.4424 113.599V113.112C-33.4798 113.112 -27.3921 111.243 -21.5095 109.434C-15.589 107.617 -9.47094 105.74 2.56768 105.74C14.6063 105.74 20.7244 107.617 26.6449 109.434C32.5274 111.243 38.6151 113.112 50.5777 113.112V113.599Z" fill="url(#paint28_linear_1047_757)"/>
<path d="M50.5777 116.896C38.5467 116.896 32.4286 115.019 26.5157 113.203C20.6256 111.394 14.5379 109.524 2.56768 109.524C-9.40253 109.524 -15.4902 111.394 -21.3803 113.203C-27.2933 115.019 -33.4114 116.896 -45.4424 116.896V116.509C-33.4722 116.509 -27.3844 114.639 -21.4943 112.83C-15.5814 111.014 -9.46334 109.137 2.56768 109.137C14.5987 109.137 20.7168 111.014 26.6297 112.83C32.5198 114.639 38.6075 116.509 50.5777 116.509V116.896Z" fill="url(#paint29_linear_1047_757)"/>
<path d="M290.628 77.5815C278.498 77.5815 272.335 75.6891 266.369 73.8575C260.532 72.0638 254.49 70.2094 242.618 70.2094V68.4766C254.748 68.4766 260.912 70.369 266.878 72.2006C272.715 73.9943 278.757 75.8487 290.628 75.8487C302.5 75.8487 308.542 73.9943 314.379 72.2006C320.337 70.369 326.508 68.4766 338.638 68.4766V70.2094C326.767 70.2094 320.725 72.0638 314.888 73.8575C308.929 75.6891 302.758 77.5815 290.628 77.5815Z" fill="url(#paint30_linear_1047_757)"/>
<path d="M290.628 74.1761C278.506 74.1761 272.342 72.2836 266.384 70.452C260.539 68.6584 254.497 66.804 242.618 66.804V65.1699C254.74 65.1699 260.904 67.0624 266.863 68.894C272.707 70.6876 278.749 72.5421 290.628 72.5421C302.507 72.5421 308.549 70.6876 314.394 68.894C320.352 67.0624 326.516 65.1699 338.638 65.1699V66.804C326.759 66.804 320.717 68.6584 314.873 70.452C308.914 72.2836 302.75 74.1761 290.628 74.1761Z" fill="url(#paint31_linear_1047_757)"/>
<path d="M290.628 70.7802C278.514 70.7802 272.35 68.8878 266.399 67.0637C260.555 65.2701 254.505 63.4081 242.618 63.4081V61.8652C254.733 61.8652 260.896 63.7577 266.847 65.5817C272.692 67.3753 278.742 69.2374 290.628 69.2374C302.515 69.2374 308.557 67.3829 314.409 65.5817C320.368 63.7501 326.524 61.8652 338.638 61.8652V63.4081C326.752 63.4081 320.71 65.2625 314.857 67.0637C308.899 68.8954 302.743 70.7802 290.628 70.7802Z" fill="url(#paint32_linear_1047_757)"/>
<path d="M290.628 67.3748C278.514 67.3748 272.365 65.4823 266.414 63.6583C260.562 61.8647 254.512 60.0026 242.618 60.0026V58.5586C254.733 58.5586 260.881 60.451 266.832 62.2751C272.684 64.0687 278.734 65.9307 290.628 65.9307C302.522 65.9307 308.572 64.0763 314.424 62.2751C320.375 60.451 326.531 58.5586 338.638 58.5586V60.0026C326.744 60.0026 320.694 61.8571 314.842 63.6583C308.891 65.4823 302.735 67.3748 290.628 67.3748Z" fill="url(#paint33_linear_1047_757)"/>
<path d="M290.628 63.9769C278.521 63.9769 272.373 62.0845 266.422 60.2604C260.57 58.4668 254.512 56.6048 242.618 56.6048V55.252C254.725 55.252 260.874 57.1444 266.825 58.9684C272.677 60.7621 278.734 62.6241 290.628 62.6241C302.522 62.6241 308.58 60.7621 314.432 58.9684C320.383 57.1444 326.531 55.252 338.638 55.252V56.6048C326.737 56.6048 320.687 58.4668 314.835 60.2604C308.884 62.0845 302.735 63.9769 290.628 63.9769Z" fill="url(#paint34_linear_1047_757)"/>
<path d="M290.628 60.5734C278.529 60.5734 272.388 58.6886 266.437 56.857C260.577 55.0557 254.528 53.2013 242.618 53.2013V51.9473C254.718 51.9473 260.859 53.8321 266.809 55.6637C272.669 57.465 278.719 59.3194 290.628 59.3194C302.538 59.3194 308.595 57.4574 314.447 55.6637C320.39 53.8397 326.539 51.9473 338.638 51.9473V53.2013C326.729 53.2013 320.672 55.0633 314.819 56.857C308.876 58.681 302.728 60.5734 290.628 60.5734Z" fill="url(#paint35_linear_1047_757)"/>
<path d="M290.628 57.1758C278.536 57.1758 272.395 55.291 266.452 53.4669C260.592 51.6657 254.535 49.8037 242.618 49.8037V48.6484C254.71 48.6484 260.851 50.5333 266.794 52.3573C272.654 54.1585 278.711 56.0206 290.628 56.0206C302.545 56.0206 308.603 54.1585 314.462 52.3573C320.406 50.5333 326.546 48.6484 338.638 48.6484V49.8037C326.721 49.8037 320.664 51.6657 314.804 53.4669C308.861 55.291 302.72 57.1758 290.628 57.1758Z" fill="url(#paint36_linear_1047_757)"/>
<path d="M290.628 53.7701C278.544 53.7701 272.403 51.8853 266.467 50.0613C260.608 48.26 254.543 46.398 242.618 46.398V45.334C254.702 45.334 260.843 47.2188 266.779 49.0428C272.639 50.8441 278.704 52.7061 290.628 52.7061C302.553 52.7061 308.61 50.8441 314.477 49.0428C320.413 47.2188 326.554 45.334 338.638 45.334V46.398C326.714 46.398 320.649 48.26 314.789 50.0613C308.853 51.8853 302.712 53.7701 290.628 53.7701Z" fill="url(#paint37_linear_1047_757)"/>
<path d="M290.628 50.3725C278.552 50.3725 272.418 48.4877 266.483 46.6636C260.615 44.8624 254.55 43.0004 242.618 43.0004V42.0352C254.695 42.0352 260.828 43.92 266.764 45.744C272.631 47.5453 278.696 49.4073 290.628 49.4073C302.56 49.4073 308.625 47.5453 314.493 45.744C320.428 43.92 326.562 42.0352 338.638 42.0352V43.0004C326.706 43.0004 320.641 44.8624 314.774 46.6636C308.838 48.4877 302.705 50.3725 290.628 50.3725Z" fill="url(#paint38_linear_1047_757)"/>
<path d="M290.628 46.9692C278.559 46.9692 272.426 45.0844 266.498 43.268C260.631 41.4667 254.558 39.6047 242.618 39.6047V38.7383C254.687 38.7383 260.82 40.6231 266.749 42.4395C272.616 44.2408 278.688 46.1028 290.628 46.1028C302.568 46.1028 308.633 44.2408 314.508 42.4395C320.436 40.6155 326.569 38.7383 338.638 38.7383V39.6047C326.699 39.6047 320.634 41.4667 314.759 43.268C308.831 45.092 302.697 46.9692 290.628 46.9692Z" fill="url(#paint39_linear_1047_757)"/>
<path d="M290.628 43.5712C278.567 43.5712 272.441 41.6863 266.513 39.8699C260.638 38.0687 254.566 36.199 242.618 36.199V35.4238C254.68 35.4238 260.805 37.3087 266.733 39.1251C272.608 40.9263 278.681 42.796 290.628 42.796C302.576 42.796 308.648 40.9339 314.523 39.1251C320.451 37.3011 326.584 35.4238 338.638 35.4238V36.199C326.691 36.199 320.618 38.0611 314.743 39.8699C308.815 41.6939 302.682 43.5712 290.628 43.5712Z" fill="url(#paint40_linear_1047_757)"/>
<path d="M290.628 40.1657C278.574 40.1657 272.449 38.2809 266.521 36.4645C260.646 34.6632 254.566 32.7936 242.618 32.7936V32.1172C254.672 32.1172 260.798 34.002 266.726 35.8185C272.601 37.6197 278.681 39.4893 290.628 39.4893C302.576 39.4893 308.656 37.6197 314.531 35.8185C320.459 34.002 326.584 32.1172 338.638 32.1172V32.7936C326.683 32.7936 320.611 34.6632 314.736 36.4645C308.808 38.2809 302.682 40.1657 290.628 40.1657Z" fill="url(#paint41_linear_1047_757)"/>
<path d="M290.628 36.7679C278.582 36.7679 272.456 34.8907 266.536 33.0666C260.653 31.2578 254.573 29.3958 242.618 29.3958V28.8105C254.664 28.8105 260.79 30.6878 266.711 32.5118C272.593 34.3206 278.673 36.1827 290.628 36.1827C302.583 36.1827 308.671 34.313 314.546 32.5118C320.466 30.6954 326.592 28.8105 338.638 28.8105V29.3958C326.676 29.3958 320.596 31.2654 314.721 33.0666C308.8 34.8831 302.674 36.7679 290.628 36.7679Z" fill="url(#paint42_linear_1047_757)"/>
<path d="M290.628 33.3644C278.59 33.3644 272.471 31.4872 266.551 29.6707C260.668 27.8619 254.581 25.9923 242.618 25.9923V25.5059C254.657 25.5059 260.775 27.3831 266.695 29.1995C272.578 31.0084 278.666 32.878 290.628 32.878C302.591 32.878 308.679 31.0084 314.561 29.1995C320.482 27.3831 326.6 25.5059 338.638 25.5059V25.9923C326.676 25.9923 320.588 27.8619 314.705 29.6707C308.785 31.4872 302.667 33.3644 290.628 33.3644Z" fill="url(#paint43_linear_1047_757)"/>
<path d="M290.628 29.9668C278.597 29.9668 272.479 28.0895 266.566 26.2731C260.676 24.4643 254.588 22.5946 242.618 22.5946V22.207C254.649 22.207 260.767 24.0843 266.68 25.9007C272.57 27.7095 278.658 29.5792 290.628 29.5792C302.598 29.5792 308.686 27.7095 314.576 25.9007C320.489 24.0843 326.607 22.207 338.638 22.207V22.5946C326.668 22.5946 320.58 24.4643 314.69 26.2731C308.777 28.0895 302.659 29.9668 290.628 29.9668Z" fill="url(#paint44_linear_1047_757)"/>
<path d="M242.619 70.6284C230.489 70.6284 224.318 68.736 218.359 66.9043C212.522 65.1107 206.48 63.2563 194.609 63.2563C182.737 63.2563 176.695 65.1107 170.858 66.9043C164.9 68.736 158.728 70.6284 146.599 70.6284V68.8956C158.47 68.8956 164.512 67.0411 170.349 65.2475C176.308 63.4159 182.479 61.5234 194.609 61.5234C206.739 61.5234 212.902 63.4159 218.868 65.2475C224.705 67.0411 230.747 68.8956 242.619 68.8956V70.6284Z" fill="url(#paint45_linear_1047_757)"/>
<path d="M242.619 73.9339C230.497 73.9339 224.333 72.0415 218.374 70.2098C212.53 68.4162 206.488 66.5618 194.609 66.5618C182.73 66.5618 176.688 68.4162 170.843 70.2098C164.885 72.0415 158.721 73.9339 146.599 73.9339V72.2999C158.478 72.2999 164.52 70.4454 170.364 68.6518C176.323 66.8202 182.486 64.9277 194.609 64.9277C206.731 64.9277 212.895 66.8202 218.853 68.6518C224.698 70.4454 230.74 72.2999 242.619 72.2999V73.9339Z" fill="url(#paint46_linear_1047_757)"/>
<path d="M242.619 77.2392C230.504 77.2392 224.34 75.3467 218.39 73.5227C212.545 71.7291 206.495 69.867 194.609 69.867C182.722 69.867 176.68 71.7215 170.828 73.5227C164.869 75.3543 158.713 77.2392 146.599 77.2392V75.6963C158.485 75.6963 164.527 73.8419 170.379 72.0407C176.338 70.2091 182.494 68.3242 194.609 68.3242C206.723 68.3242 212.887 70.2167 218.838 72.0407C224.682 73.8343 230.732 75.6963 242.619 75.6963V77.2392Z" fill="url(#paint47_linear_1047_757)"/>
<path d="M242.619 80.5447C230.504 80.5447 224.356 78.6522 218.405 76.8282C212.553 75.0346 206.503 73.1725 194.609 73.1725C182.714 73.1725 176.665 75.027 170.813 76.8282C164.862 78.6522 158.706 80.5447 146.599 80.5447V79.1007C158.493 79.1007 164.543 77.2462 170.395 75.445C176.346 73.6209 182.502 71.7285 194.609 71.7285C206.716 71.7285 212.872 73.6209 218.823 75.445C224.675 77.2386 230.725 79.1007 242.619 79.1007V80.5447Z" fill="url(#paint48_linear_1047_757)"/>
<path d="M242.619 83.8519C230.512 83.8519 224.363 81.9595 218.412 80.1354C212.56 78.3342 206.503 76.4798 194.609 76.4798C182.714 76.4798 176.657 78.3418 170.805 80.1354C164.854 81.9595 158.706 83.8519 146.599 83.8519V82.4991C158.5 82.4991 164.55 80.6371 170.402 78.8434C176.353 77.0194 182.502 75.127 194.609 75.127C206.716 75.127 212.864 77.0118 218.815 78.8434C224.667 80.6371 230.725 82.4991 242.619 82.4991V83.8519Z" fill="url(#paint49_linear_1047_757)"/>
<path d="M242.619 87.1574C230.519 87.1574 224.371 85.2726 218.428 83.4409C212.568 81.6397 206.518 79.7853 194.609 79.7853C182.699 79.7853 176.642 81.6473 170.79 83.4409C164.847 85.265 158.698 87.1574 146.599 87.1574V85.9034C158.508 85.9034 164.565 84.0413 170.417 82.2477C176.361 80.4237 182.509 78.5312 194.609 78.5312C206.708 78.5312 212.849 80.4161 218.8 82.2477C224.66 84.0489 230.709 85.9034 242.619 85.9034V87.1574Z" fill="url(#paint50_linear_1047_757)"/>
<path d="M242.619 90.457C230.527 90.457 224.386 88.5722 218.443 86.7482C212.583 84.9469 206.526 83.0849 194.609 83.0849C182.692 83.0849 176.634 84.9469 170.775 86.7482C164.831 88.5722 158.69 90.457 146.599 90.457V89.3018C158.516 89.3018 164.573 87.4398 170.433 85.6386C176.376 83.8145 182.517 81.9297 194.609 81.9297C206.701 81.9297 212.841 83.8145 218.785 85.6386C224.644 87.4398 230.702 89.3018 242.619 89.3018V90.457Z" fill="url(#paint51_linear_1047_757)"/>
<path d="M242.619 93.7623C230.535 93.7623 224.394 91.8775 218.458 90.0535C212.591 88.2522 206.533 86.3902 194.609 86.3902C182.684 86.3902 176.619 88.2522 170.759 90.0535C164.824 91.8775 158.683 93.7623 146.599 93.7623V92.6983C158.523 92.6983 164.588 90.8363 170.448 89.035C176.384 87.211 182.524 85.3262 194.609 85.3262C206.693 85.3262 212.834 87.211 218.77 89.035C224.637 90.8363 230.694 92.6983 242.619 92.6983V93.7623Z" fill="url(#paint52_linear_1047_757)"/>
<path d="M242.619 97.0678C230.542 97.0678 224.409 95.183 218.473 93.3589C212.606 91.5577 206.541 89.6957 194.609 89.6957C182.676 89.6957 176.612 91.5577 170.744 93.3589C164.809 95.183 158.675 97.0678 146.599 97.0678V96.1026C158.531 96.1026 164.596 94.2406 170.463 92.4393C176.399 90.6153 182.532 88.7305 194.609 88.7305C206.685 88.7305 212.819 90.6153 218.754 92.4393C224.622 94.2406 230.687 96.1026 242.619 96.1026V97.0678Z" fill="url(#paint53_linear_1047_757)"/>
<path d="M242.619 100.374C230.55 100.374 224.416 98.4887 218.488 96.6723C212.621 94.871 206.549 93.009 194.609 93.009C182.669 93.009 176.604 94.871 170.729 96.6723C164.801 98.4963 158.668 100.374 146.599 100.374V99.5071C158.538 99.5071 164.603 97.6451 170.478 95.8438C176.406 94.0198 182.54 92.1426 194.609 92.1426C206.678 92.1426 212.811 94.0274 218.739 95.8438C224.606 97.6451 230.679 99.5071 242.619 99.5071V100.374Z" fill="url(#paint54_linear_1047_757)"/>
<path d="M242.619 103.681C230.557 103.681 224.432 101.796 218.504 99.9793C212.629 98.1781 206.556 96.3084 194.609 96.3084C182.661 96.3084 176.589 98.1705 170.714 99.9793C164.786 101.803 158.652 103.681 146.599 103.681V102.905C158.546 102.905 164.619 101.043 170.493 99.2345C176.422 97.4104 182.555 95.5332 194.609 95.5332C206.663 95.5332 212.796 97.418 218.724 99.2345C224.599 101.036 230.671 102.905 242.619 102.905V103.681Z" fill="url(#paint55_linear_1047_757)"/>
<path d="M242.619 106.986C230.565 106.986 224.439 105.101 218.511 103.285C212.636 101.484 206.556 99.6139 194.609 99.6139C182.661 99.6139 176.581 101.484 170.706 103.285C164.778 105.101 158.652 106.986 146.599 106.986V106.31C158.554 106.31 164.626 104.44 170.501 102.639C176.429 100.822 182.555 98.9375 194.609 98.9375C206.663 98.9375 212.788 100.822 218.716 102.639C224.591 104.44 230.671 106.31 242.619 106.31V106.986Z" fill="url(#paint56_linear_1047_757)"/>
<path d="M242.619 110.293C230.573 110.293 224.447 108.416 218.526 106.592C212.644 104.783 206.564 102.921 194.609 102.921C182.654 102.921 176.566 104.791 170.691 106.592C164.771 108.408 158.645 110.293 146.599 110.293V109.708C158.554 109.708 164.641 107.838 170.516 106.037C176.437 104.221 182.562 102.336 194.609 102.336C206.655 102.336 212.781 104.213 218.701 106.037C224.584 107.846 230.664 109.708 242.619 109.708V110.293Z" fill="url(#paint57_linear_1047_757)"/>
<path d="M242.619 113.599C230.58 113.599 224.462 111.722 218.542 109.905C212.659 108.096 206.571 106.227 194.609 106.227C182.646 106.227 176.558 108.096 170.676 109.905C164.755 111.722 158.637 113.599 146.599 113.599V113.112C158.561 113.112 164.649 111.243 170.531 109.434C176.452 107.617 182.57 105.74 194.609 105.74C206.647 105.74 212.765 107.617 218.686 109.434C224.568 111.243 230.656 113.112 242.619 113.112V113.599Z" fill="url(#paint58_linear_1047_757)"/>
<path d="M242.619 116.896C230.588 116.896 224.47 115.019 218.557 113.203C212.667 111.394 206.579 109.524 194.609 109.524C182.638 109.524 176.551 111.394 170.661 113.203C164.748 115.019 158.63 116.896 146.599 116.896V116.509C158.569 116.509 164.657 114.639 170.547 112.83C176.46 111.014 182.578 109.137 194.609 109.137C206.64 109.137 212.758 111.014 218.671 112.83C224.561 114.639 230.649 116.509 242.619 116.509V116.896Z" fill="url(#paint59_linear_1047_757)"/>
<path d="M434.651 70.6284C422.521 70.6284 416.357 68.736 410.391 66.9043C404.554 65.1107 398.512 63.2563 386.641 63.2563C374.769 63.2563 368.727 65.1107 362.89 66.9043C356.932 68.736 350.761 70.6284 338.631 70.6284V68.8956C350.502 68.8956 356.544 67.0411 362.381 65.2475C368.34 63.4159 374.511 61.5234 386.641 61.5234C398.771 61.5234 404.934 63.4159 410.901 65.2475C416.737 67.0411 422.78 68.8956 434.651 68.8956V70.6284Z" fill="url(#paint60_linear_1047_757)"/>
<path d="M434.651 73.9339C422.529 73.9339 416.365 72.0415 410.407 70.2098C404.562 68.4162 398.52 66.5618 386.641 66.5618C374.762 66.5618 368.72 68.4162 362.875 70.2098C356.917 72.0415 350.753 73.9339 338.631 73.9339V72.2999C350.51 72.2999 356.552 70.4454 362.397 68.6518C368.355 66.8202 374.519 64.9277 386.641 64.9277C398.763 64.9277 404.927 66.8202 410.885 68.6518C416.73 70.4454 422.772 72.2999 434.651 72.2999V73.9339Z" fill="url(#paint61_linear_1047_757)"/>
<path d="M434.651 77.2392C422.536 77.2392 416.373 75.3467 410.422 73.5227C404.577 71.7291 398.528 69.867 386.641 69.867C374.754 69.867 368.712 71.7215 362.86 73.5227C356.902 75.3543 350.745 77.2392 338.631 77.2392V75.6963C350.517 75.6963 356.56 73.8419 362.412 72.0407C368.37 70.2091 374.526 68.3242 386.641 68.3242C398.756 68.3242 404.919 70.2167 410.87 72.0407C416.715 73.8343 422.764 75.6963 434.651 75.6963V77.2392Z" fill="url(#paint62_linear_1047_757)"/>
<path d="M434.651 80.5447C422.536 80.5447 416.388 78.6522 410.437 76.8282C404.585 75.0346 398.535 73.1725 386.641 73.1725C374.747 73.1725 368.697 75.027 362.845 76.8282C356.894 78.6522 350.738 80.5447 338.631 80.5447V79.1007C350.525 79.1007 356.575 77.2462 362.427 75.445C368.378 73.6209 374.534 71.7285 386.641 71.7285C398.748 71.7285 404.904 73.6209 410.855 75.445C416.707 77.2386 422.757 79.1007 434.651 79.1007V80.5447Z" fill="url(#paint63_linear_1047_757)"/>
<path d="M434.651 83.8519C422.544 83.8519 416.395 81.9595 410.445 80.1354C404.592 78.3342 398.535 76.4798 386.641 76.4798C374.747 76.4798 368.689 78.3418 362.837 80.1354C356.886 81.9595 350.738 83.8519 338.631 83.8519V82.4991C350.533 82.4991 356.582 80.6371 362.434 78.8434C368.385 77.0194 374.534 75.127 386.641 75.127C398.748 75.127 404.896 77.0118 410.847 78.8434C416.699 80.6371 422.757 82.4991 434.651 82.4991V83.8519Z" fill="url(#paint64_linear_1047_757)"/>
<path d="M434.651 87.1574C422.552 87.1574 416.411 85.2726 410.46 83.4409C404.6 81.6397 398.55 79.7853 386.641 79.7853C374.731 79.7853 368.674 81.6473 362.822 83.4409C356.879 85.265 350.73 87.1574 338.631 87.1574V85.9034C350.54 85.9034 356.598 84.0413 362.45 82.2477C368.393 80.4237 374.541 78.5312 386.641 78.5312C398.74 78.5312 404.881 80.4161 410.832 82.2477C416.692 84.0489 422.742 85.9034 434.651 85.9034V87.1574Z" fill="url(#paint65_linear_1047_757)"/>
<path d="M434.651 90.457C422.559 90.457 416.418 88.5722 410.475 86.7482C404.615 84.9469 398.558 83.0849 386.641 83.0849C374.724 83.0849 368.667 84.9469 362.807 86.7482C356.864 88.5722 350.723 90.457 338.631 90.457V89.3018C350.548 89.3018 356.605 87.4398 362.465 85.6386C368.408 83.8145 374.549 81.9297 386.641 81.9297C398.733 81.9297 404.874 83.8145 410.817 85.6386C416.677 87.4398 422.734 89.3018 434.651 89.3018V90.457Z" fill="url(#paint66_linear_1047_757)"/>
<path d="M434.651 93.7623C422.567 93.7623 416.426 91.8775 410.49 90.0535C404.63 88.2522 398.566 86.3902 386.641 86.3902C374.716 86.3902 368.651 88.2522 362.792 90.0535C356.856 91.8775 350.715 93.7623 338.631 93.7623V92.6983C350.555 92.6983 356.62 90.8363 362.48 89.035C368.416 87.211 374.557 85.3262 386.641 85.3262C398.725 85.3262 404.866 87.211 410.802 89.035C416.661 90.8363 422.726 92.6983 434.651 92.6983V93.7623Z" fill="url(#paint67_linear_1047_757)"/>
<path d="M434.651 97.0678C422.574 97.0678 416.441 95.183 410.505 93.3589C404.638 91.5577 398.573 89.6957 386.641 89.6957C374.709 89.6957 368.644 91.5577 362.777 93.3589C356.841 95.183 350.707 97.0678 338.631 97.0678V96.1026C350.563 96.1026 356.628 94.2406 362.495 92.4393C368.431 90.6153 374.564 88.7305 386.641 88.7305C398.718 88.7305 404.851 90.6153 410.787 92.4393C416.654 94.2406 422.719 96.1026 434.651 96.1026V97.0678Z" fill="url(#paint68_linear_1047_757)"/>
<path d="M434.651 100.374C422.582 100.374 416.449 98.4887 410.521 96.6723C404.653 94.871 398.581 93.009 386.641 93.009C374.701 93.009 368.636 94.871 362.761 96.6723C356.833 98.4963 350.7 100.374 338.631 100.374V99.5071C350.571 99.5071 356.636 97.6451 362.51 95.8438C368.439 94.0198 374.572 92.1426 386.641 92.1426C398.71 92.1426 404.843 94.0274 410.771 95.8438C416.639 97.6451 422.711 99.5071 434.651 99.5071V100.374Z" fill="url(#paint69_linear_1047_757)"/>
<path d="M434.651 103.681C422.59 103.681 416.464 101.796 410.536 99.9793C404.661 98.1781 398.588 96.3084 386.641 96.3084C374.693 96.3084 368.621 98.1705 362.746 99.9793C356.818 101.803 350.685 103.681 338.631 103.681V102.905C350.578 102.905 356.651 101.043 362.526 99.2345C368.454 97.4104 374.587 95.5332 386.641 95.5332C398.695 95.5332 404.828 97.418 410.756 99.2345C416.631 101.036 422.704 102.905 434.651 102.905V103.681Z" fill="url(#paint70_linear_1047_757)"/>
<path d="M434.651 106.986C422.597 106.986 416.471 105.101 410.543 103.285C404.668 101.484 398.588 99.6139 386.641 99.6139C374.693 99.6139 368.613 101.484 362.738 103.285C356.81 105.101 350.685 106.986 338.631 106.986V106.31C350.586 106.31 356.658 104.44 362.533 102.639C368.461 100.822 374.587 98.9375 386.641 98.9375C398.695 98.9375 404.82 100.822 410.749 102.639C416.623 104.44 422.704 106.31 434.651 106.31V106.986Z" fill="url(#paint71_linear_1047_757)"/>
<path d="M434.651 110.293C422.605 110.293 416.479 108.416 410.559 106.592C404.676 104.783 398.596 102.921 386.641 102.921C374.686 102.921 368.598 104.791 362.723 106.592C356.803 108.408 350.677 110.293 338.631 110.293V109.708C350.586 109.708 356.674 107.838 362.548 106.037C368.469 104.221 374.595 102.336 386.641 102.336C398.687 102.336 404.813 104.213 410.733 106.037C416.616 107.846 422.696 109.708 434.651 109.708V110.293Z" fill="url(#paint72_linear_1047_757)"/>
<path d="M434.651 113.599C422.612 113.599 416.494 111.722 410.574 109.905C404.691 108.096 398.604 106.227 386.641 106.227C374.678 106.227 368.591 108.096 362.708 109.905C356.788 111.722 350.669 113.599 338.631 113.599V113.112C350.593 113.112 356.681 111.243 362.564 109.434C368.484 107.617 374.602 105.74 386.641 105.74C398.68 105.74 404.798 107.617 410.718 109.434C416.601 111.243 422.688 113.112 434.651 113.112V113.599Z" fill="url(#paint73_linear_1047_757)"/>
<path d="M434.651 116.896C422.62 116.896 416.502 115.019 410.589 113.203C404.699 111.394 398.611 109.524 386.641 109.524C374.671 109.524 368.583 111.394 362.693 113.203C356.78 115.019 350.662 116.896 338.631 116.896V116.509C350.601 116.509 356.689 114.639 362.579 112.83C368.492 111.014 374.61 109.137 386.641 109.137C398.672 109.137 404.79 111.014 410.703 112.83C416.593 114.639 422.681 116.509 434.651 116.509V116.896Z" fill="url(#paint74_linear_1047_757)"/>
</g>
<defs>
<linearGradient id="paint0_linear_1047_757" x1="98.5882" y1="24.5554" x2="98.5882" y2="87.5149" gradientUnits="userSpaceOnUse">
<stop stop-color="#5D95C3" stop-opacity="0"/>
<stop offset="1" stop-color="#5D95C3"/>
</linearGradient>
<linearGradient id="paint1_linear_1047_757" x1="98.5882" y1="24.5548" x2="98.5882" y2="87.5143" gradientUnits="userSpaceOnUse">
<stop stop-color="#5D95C3" stop-opacity="0"/>
<stop offset="1" stop-color="#5D95C3"/>
</linearGradient>
<linearGradient id="paint2_linear_1047_757" x1="98.5882" y1="24.5562" x2="98.5882" y2="87.5157" gradientUnits="userSpaceOnUse">
<stop stop-color="#5D95C3" stop-opacity="0"/>
<stop offset="1" stop-color="#5D95C3"/>
</linearGradient>
<linearGradient id="paint3_linear_1047_757" x1="98.5882" y1="24.5556" x2="98.5882" y2="87.5151" gradientUnits="userSpaceOnUse">
<stop stop-color="#5D95C3" stop-opacity="0"/>
<stop offset="1" stop-color="#5D95C3"/>
</linearGradient>
<linearGradient id="paint4_linear_1047_757" x1="98.5882" y1="24.555" x2="98.5882" y2="87.5145" gradientUnits="userSpaceOnUse">
<stop stop-color="#5D95C3" stop-opacity="0"/>
<stop offset="1" stop-color="#5D95C3"/>
</linearGradient>
<linearGradient id="paint5_linear_1047_757" x1="98.5882" y1="24.5564" x2="98.5882" y2="87.5159" gradientUnits="userSpaceOnUse">
<stop stop-color="#5D95C3" stop-opacity="0"/>
<stop offset="1" stop-color="#5D95C3"/>
</linearGradient>
<linearGradient id="paint6_linear_1047_757" x1="98.5882" y1="24.556" x2="98.5882" y2="87.5155" gradientUnits="userSpaceOnUse">
<stop stop-color="#5D95C3" stop-opacity="0"/>
<stop offset="1" stop-color="#5D95C3"/>
</linearGradient>
<linearGradient id="paint7_linear_1047_757" x1="98.5882" y1="24.5552" x2="98.5882" y2="87.5147" gradientUnits="userSpaceOnUse">
<stop stop-color="#5D95C3" stop-opacity="0"/>
<stop offset="1" stop-color="#5D95C3"/>
</linearGradient>
<linearGradient id="paint8_linear_1047_757" x1="98.5882" y1="24.5548" x2="98.5882" y2="87.5144" gradientUnits="userSpaceOnUse">
<stop stop-color="#5D95C3" stop-opacity="0"/>
<stop offset="1" stop-color="#5D95C3"/>
</linearGradient>
<linearGradient id="paint9_linear_1047_757" x1="98.5882" y1="24.5564" x2="98.5882" y2="87.5159" gradientUnits="userSpaceOnUse">
<stop stop-color="#5D95C3" stop-opacity="0"/>
<stop offset="1" stop-color="#5D95C3"/>
</linearGradient>
<linearGradient id="paint10_linear_1047_757" x1="98.5882" y1="24.5556" x2="98.5882" y2="87.5152" gradientUnits="userSpaceOnUse">
<stop stop-color="#5D95C3" stop-opacity="0"/>
<stop offset="1" stop-color="#5D95C3"/>
</linearGradient>
<linearGradient id="paint11_linear_1047_757" x1="98.5882" y1="24.5551" x2="98.5882" y2="87.5146" gradientUnits="userSpaceOnUse">
<stop stop-color="#5D95C3" stop-opacity="0"/>
<stop offset="1" stop-color="#5D95C3"/>
</linearGradient>
<linearGradient id="paint12_linear_1047_757" x1="98.5882" y1="24.5545" x2="98.5882" y2="87.514" gradientUnits="userSpaceOnUse">
<stop stop-color="#5D95C3" stop-opacity="0"/>
<stop offset="1" stop-color="#5D95C3"/>
</linearGradient>
<linearGradient id="paint13_linear_1047_757" x1="98.5882" y1="24.5558" x2="98.5882" y2="87.5154" gradientUnits="userSpaceOnUse">
<stop stop-color="#5D95C3" stop-opacity="0"/>
<stop offset="1" stop-color="#5D95C3"/>
</linearGradient>
<linearGradient id="paint14_linear_1047_757" x1="98.5882" y1="24.5555" x2="98.5882" y2="87.515" gradientUnits="userSpaceOnUse">
<stop stop-color="#5D95C3" stop-opacity="0"/>
<stop offset="1" stop-color="#5D95C3"/>
</linearGradient>
<linearGradient id="paint15_linear_1047_757" x1="2.56768" y1="24.5564" x2="2.56768" y2="87.5159" gradientUnits="userSpaceOnUse">
<stop stop-color="#5D95C3" stop-opacity="0"/>
<stop offset="1" stop-color="#5D95C3"/>
</linearGradient>
<linearGradient id="paint16_linear_1047_757" x1="2.56768" y1="24.5558" x2="2.56768" y2="87.5153" gradientUnits="userSpaceOnUse">
<stop stop-color="#5D95C3" stop-opacity="0"/>
<stop offset="1" stop-color="#5D95C3"/>
</linearGradient>
<linearGradient id="paint17_linear_1047_757" x1="2.56768" y1="24.555" x2="2.56768" y2="87.5146" gradientUnits="userSpaceOnUse">
<stop stop-color="#5D95C3" stop-opacity="0"/>
<stop offset="1" stop-color="#5D95C3"/>
</linearGradient>
<linearGradient id="paint18_linear_1047_757" x1="2.56768" y1="24.5544" x2="2.56768" y2="87.514" gradientUnits="userSpaceOnUse">
<stop stop-color="#5D95C3" stop-opacity="0"/>
<stop offset="1" stop-color="#5D95C3"/>
</linearGradient>
<linearGradient id="paint19_linear_1047_757" x1="2.56768" y1="24.5556" x2="2.56768" y2="87.5152" gradientUnits="userSpaceOnUse">
<stop stop-color="#5D95C3" stop-opacity="0"/>
<stop offset="1" stop-color="#5D95C3"/>
</linearGradient>
<linearGradient id="paint20_linear_1047_757" x1="2.56768" y1="24.5551" x2="2.56768" y2="87.5146" gradientUnits="userSpaceOnUse">
<stop stop-color="#5D95C3" stop-opacity="0"/>
<stop offset="1" stop-color="#5D95C3"/>
</linearGradient>
<linearGradient id="paint21_linear_1047_757" x1="2.56768" y1="24.5563" x2="2.56768" y2="87.5158" gradientUnits="userSpaceOnUse">
<stop stop-color="#5D95C3" stop-opacity="0"/>
<stop offset="1" stop-color="#5D95C3"/>
</linearGradient>
<linearGradient id="paint22_linear_1047_757" x1="2.56768" y1="24.5554" x2="2.56768" y2="87.515" gradientUnits="userSpaceOnUse">
<stop stop-color="#5D95C3" stop-opacity="0"/>
<stop offset="1" stop-color="#5D95C3"/>
</linearGradient>
<linearGradient id="paint23_linear_1047_757" x1="2.56768" y1="24.5549" x2="2.56768" y2="87.5145" gradientUnits="userSpaceOnUse">
<stop stop-color="#5D95C3" stop-opacity="0"/>
<stop offset="1" stop-color="#5D95C3"/>
</linearGradient>
<linearGradient id="paint24_linear_1047_757" x1="2.56768" y1="24.5545" x2="2.56768" y2="87.5141" gradientUnits="userSpaceOnUse">
<stop stop-color="#5D95C3" stop-opacity="0"/>
<stop offset="1" stop-color="#5D95C3"/>
</linearGradient>
<linearGradient id="paint25_linear_1047_757" x1="2.56768" y1="24.5555" x2="2.56768" y2="87.5151" gradientUnits="userSpaceOnUse">
<stop stop-color="#5D95C3" stop-opacity="0"/>
<stop offset="1" stop-color="#5D95C3"/>
</linearGradient>
<linearGradient id="paint26_linear_1047_757" x1="2.56768" y1="24.5549" x2="2.56768" y2="87.5145" gradientUnits="userSpaceOnUse">
<stop stop-color="#5D95C3" stop-opacity="0"/>
<stop offset="1" stop-color="#5D95C3"/>
</linearGradient>
<linearGradient id="paint27_linear_1047_757" x1="2.56768" y1="24.5561" x2="2.56768" y2="87.5157" gradientUnits="userSpaceOnUse">
<stop stop-color="#5D95C3" stop-opacity="0"/>
<stop offset="1" stop-color="#5D95C3"/>
</linearGradient>
<linearGradient id="paint28_linear_1047_757" x1="2.56768" y1="24.5556" x2="2.56768" y2="87.5151" gradientUnits="userSpaceOnUse">
<stop stop-color="#5D95C3" stop-opacity="0"/>
<stop offset="1" stop-color="#5D95C3"/>
</linearGradient>
<linearGradient id="paint29_linear_1047_757" x1="2.56768" y1="24.5549" x2="2.56768" y2="87.5143" gradientUnits="userSpaceOnUse">
<stop stop-color="#5D95C3" stop-opacity="0"/>
<stop offset="1" stop-color="#5D95C3"/>
</linearGradient>
<linearGradient id="paint30_linear_1047_757" x1="290.628" y1="24.5554" x2="290.628" y2="87.5149" gradientUnits="userSpaceOnUse">
<stop stop-color="#5D95C3" stop-opacity="0"/>
<stop offset="1" stop-color="#5D95C3"/>
</linearGradient>
<linearGradient id="paint31_linear_1047_757" x1="290.628" y1="24.5548" x2="290.628" y2="87.5143" gradientUnits="userSpaceOnUse">
<stop stop-color="#5D95C3" stop-opacity="0"/>
<stop offset="1" stop-color="#5D95C3"/>
</linearGradient>
<linearGradient id="paint32_linear_1047_757" x1="290.628" y1="24.5562" x2="290.628" y2="87.5157" gradientUnits="userSpaceOnUse">
<stop stop-color="#5D95C3" stop-opacity="0"/>
<stop offset="1" stop-color="#5D95C3"/>
</linearGradient>
<linearGradient id="paint33_linear_1047_757" x1="290.628" y1="24.5556" x2="290.628" y2="87.5151" gradientUnits="userSpaceOnUse">
<stop stop-color="#5D95C3" stop-opacity="0"/>
<stop offset="1" stop-color="#5D95C3"/>
</linearGradient>
<linearGradient id="paint34_linear_1047_757" x1="290.628" y1="24.555" x2="290.628" y2="87.5145" gradientUnits="userSpaceOnUse">
<stop stop-color="#5D95C3" stop-opacity="0"/>
<stop offset="1" stop-color="#5D95C3"/>
</linearGradient>
<linearGradient id="paint35_linear_1047_757" x1="290.628" y1="24.5564" x2="290.628" y2="87.5159" gradientUnits="userSpaceOnUse">
<stop stop-color="#5D95C3" stop-opacity="0"/>
<stop offset="1" stop-color="#5D95C3"/>
</linearGradient>
<linearGradient id="paint36_linear_1047_757" x1="290.628" y1="24.556" x2="290.628" y2="87.5155" gradientUnits="userSpaceOnUse">
<stop stop-color="#5D95C3" stop-opacity="0"/>
<stop offset="1" stop-color="#5D95C3"/>
</linearGradient>
<linearGradient id="paint37_linear_1047_757" x1="290.628" y1="24.5552" x2="290.628" y2="87.5147" gradientUnits="userSpaceOnUse">
<stop stop-color="#5D95C3" stop-opacity="0"/>
<stop offset="1" stop-color="#5D95C3"/>
</linearGradient>
<linearGradient id="paint38_linear_1047_757" x1="290.628" y1="24.5548" x2="290.628" y2="87.5144" gradientUnits="userSpaceOnUse">
<stop stop-color="#5D95C3" stop-opacity="0"/>
<stop offset="1" stop-color="#5D95C3"/>
</linearGradient>
<linearGradient id="paint39_linear_1047_757" x1="290.628" y1="24.5564" x2="290.628" y2="87.5159" gradientUnits="userSpaceOnUse">
<stop stop-color="#5D95C3" stop-opacity="0"/>
<stop offset="1" stop-color="#5D95C3"/>
</linearGradient>
<linearGradient id="paint40_linear_1047_757" x1="290.628" y1="24.5556" x2="290.628" y2="87.5152" gradientUnits="userSpaceOnUse">
<stop stop-color="#5D95C3" stop-opacity="0"/>
<stop offset="1" stop-color="#5D95C3"/>
</linearGradient>
<linearGradient id="paint41_linear_1047_757" x1="290.628" y1="24.5551" x2="290.628" y2="87.5146" gradientUnits="userSpaceOnUse">
<stop stop-color="#5D95C3" stop-opacity="0"/>
<stop offset="1" stop-color="#5D95C3"/>
</linearGradient>
<linearGradient id="paint42_linear_1047_757" x1="290.628" y1="24.5545" x2="290.628" y2="87.514" gradientUnits="userSpaceOnUse">
<stop stop-color="#5D95C3" stop-opacity="0"/>
<stop offset="1" stop-color="#5D95C3"/>
</linearGradient>
<linearGradient id="paint43_linear_1047_757" x1="290.628" y1="24.5558" x2="290.628" y2="87.5154" gradientUnits="userSpaceOnUse">
<stop stop-color="#5D95C3" stop-opacity="0"/>
<stop offset="1" stop-color="#5D95C3"/>
</linearGradient>
<linearGradient id="paint44_linear_1047_757" x1="290.628" y1="24.5555" x2="290.628" y2="87.515" gradientUnits="userSpaceOnUse">
<stop stop-color="#5D95C3" stop-opacity="0"/>
<stop offset="1" stop-color="#5D95C3"/>
</linearGradient>
<linearGradient id="paint45_linear_1047_757" x1="194.609" y1="24.5564" x2="194.609" y2="87.5159" gradientUnits="userSpaceOnUse">
<stop stop-color="#5D95C3" stop-opacity="0"/>
<stop offset="1" stop-color="#5D95C3"/>
</linearGradient>
<linearGradient id="paint46_linear_1047_757" x1="194.609" y1="24.5558" x2="194.609" y2="87.5153" gradientUnits="userSpaceOnUse">
<stop stop-color="#5D95C3" stop-opacity="0"/>
<stop offset="1" stop-color="#5D95C3"/>
</linearGradient>
<linearGradient id="paint47_linear_1047_757" x1="194.609" y1="24.555" x2="194.609" y2="87.5146" gradientUnits="userSpaceOnUse">
<stop stop-color="#5D95C3" stop-opacity="0"/>
<stop offset="1" stop-color="#5D95C3"/>
</linearGradient>
<linearGradient id="paint48_linear_1047_757" x1="194.609" y1="24.5544" x2="194.609" y2="87.514" gradientUnits="userSpaceOnUse">
<stop stop-color="#5D95C3" stop-opacity="0"/>
<stop offset="1" stop-color="#5D95C3"/>
</linearGradient>
<linearGradient id="paint49_linear_1047_757" x1="194.609" y1="24.5556" x2="194.609" y2="87.5152" gradientUnits="userSpaceOnUse">
<stop stop-color="#5D95C3" stop-opacity="0"/>
<stop offset="1" stop-color="#5D95C3"/>
</linearGradient>
<linearGradient id="paint50_linear_1047_757" x1="194.609" y1="24.5551" x2="194.609" y2="87.5146" gradientUnits="userSpaceOnUse">
<stop stop-color="#5D95C3" stop-opacity="0"/>
<stop offset="1" stop-color="#5D95C3"/>
</linearGradient>
<linearGradient id="paint51_linear_1047_757" x1="194.609" y1="24.5563" x2="194.609" y2="87.5158" gradientUnits="userSpaceOnUse">
<stop stop-color="#5D95C3" stop-opacity="0"/>
<stop offset="1" stop-color="#5D95C3"/>
</linearGradient>
<linearGradient id="paint52_linear_1047_757" x1="194.609" y1="24.5554" x2="194.609" y2="87.515" gradientUnits="userSpaceOnUse">
<stop stop-color="#5D95C3" stop-opacity="0"/>
<stop offset="1" stop-color="#5D95C3"/>
</linearGradient>
<linearGradient id="paint53_linear_1047_757" x1="194.609" y1="24.5549" x2="194.609" y2="87.5145" gradientUnits="userSpaceOnUse">
<stop stop-color="#5D95C3" stop-opacity="0"/>
<stop offset="1" stop-color="#5D95C3"/>
</linearGradient>
<linearGradient id="paint54_linear_1047_757" x1="194.609" y1="24.5545" x2="194.609" y2="87.5141" gradientUnits="userSpaceOnUse">
<stop stop-color="#5D95C3" stop-opacity="0"/>
<stop offset="1" stop-color="#5D95C3"/>
</linearGradient>
<linearGradient id="paint55_linear_1047_757" x1="194.609" y1="24.5555" x2="194.609" y2="87.5151" gradientUnits="userSpaceOnUse">
<stop stop-color="#5D95C3" stop-opacity="0"/>
<stop offset="1" stop-color="#5D95C3"/>
</linearGradient>
<linearGradient id="paint56_linear_1047_757" x1="194.609" y1="24.5549" x2="194.609" y2="87.5145" gradientUnits="userSpaceOnUse">
<stop stop-color="#5D95C3" stop-opacity="0"/>
<stop offset="1" stop-color="#5D95C3"/>
</linearGradient>
<linearGradient id="paint57_linear_1047_757" x1="194.609" y1="24.5561" x2="194.609" y2="87.5157" gradientUnits="userSpaceOnUse">
<stop stop-color="#5D95C3" stop-opacity="0"/>
<stop offset="1" stop-color="#5D95C3"/>
</linearGradient>
<linearGradient id="paint58_linear_1047_757" x1="194.609" y1="24.5556" x2="194.609" y2="87.5151" gradientUnits="userSpaceOnUse">
<stop stop-color="#5D95C3" stop-opacity="0"/>
<stop offset="1" stop-color="#5D95C3"/>
</linearGradient>
<linearGradient id="paint59_linear_1047_757" x1="194.609" y1="24.5549" x2="194.609" y2="87.5143" gradientUnits="userSpaceOnUse">
<stop stop-color="#5D95C3" stop-opacity="0"/>
<stop offset="1" stop-color="#5D95C3"/>
</linearGradient>
<linearGradient id="paint60_linear_1047_757" x1="386.649" y1="24.5564" x2="386.649" y2="87.5159" gradientUnits="userSpaceOnUse">
<stop stop-color="#5D95C3" stop-opacity="0"/>
<stop offset="1" stop-color="#5D95C3"/>
</linearGradient>
<linearGradient id="paint61_linear_1047_757" x1="386.649" y1="24.5558" x2="386.649" y2="87.5153" gradientUnits="userSpaceOnUse">
<stop stop-color="#5D95C3" stop-opacity="0"/>
<stop offset="1" stop-color="#5D95C3"/>
</linearGradient>
<linearGradient id="paint62_linear_1047_757" x1="386.649" y1="24.555" x2="386.649" y2="87.5146" gradientUnits="userSpaceOnUse">
<stop stop-color="#5D95C3" stop-opacity="0"/>
<stop offset="1" stop-color="#5D95C3"/>
</linearGradient>
<linearGradient id="paint63_linear_1047_757" x1="386.649" y1="24.5544" x2="386.649" y2="87.514" gradientUnits="userSpaceOnUse">
<stop stop-color="#5D95C3" stop-opacity="0"/>
<stop offset="1" stop-color="#5D95C3"/>
</linearGradient>
<linearGradient id="paint64_linear_1047_757" x1="386.649" y1="24.5556" x2="386.649" y2="87.5152" gradientUnits="userSpaceOnUse">
<stop stop-color="#5D95C3" stop-opacity="0"/>
<stop offset="1" stop-color="#5D95C3"/>
</linearGradient>
<linearGradient id="paint65_linear_1047_757" x1="386.649" y1="24.5551" x2="386.649" y2="87.5146" gradientUnits="userSpaceOnUse">
<stop stop-color="#5D95C3" stop-opacity="0"/>
<stop offset="1" stop-color="#5D95C3"/>
</linearGradient>
<linearGradient id="paint66_linear_1047_757" x1="386.649" y1="24.5563" x2="386.649" y2="87.5158" gradientUnits="userSpaceOnUse">
<stop stop-color="#5D95C3" stop-opacity="0"/>
<stop offset="1" stop-color="#5D95C3"/>
</linearGradient>
<linearGradient id="paint67_linear_1047_757" x1="386.649" y1="24.5554" x2="386.649" y2="87.515" gradientUnits="userSpaceOnUse">
<stop stop-color="#5D95C3" stop-opacity="0"/>
<stop offset="1" stop-color="#5D95C3"/>
</linearGradient>
<linearGradient id="paint68_linear_1047_757" x1="386.649" y1="24.5549" x2="386.649" y2="87.5145" gradientUnits="userSpaceOnUse">
<stop stop-color="#5D95C3" stop-opacity="0"/>
<stop offset="1" stop-color="#5D95C3"/>
</linearGradient>
<linearGradient id="paint69_linear_1047_757" x1="386.649" y1="24.5545" x2="386.649" y2="87.5141" gradientUnits="userSpaceOnUse">
<stop stop-color="#5D95C3" stop-opacity="0"/>
<stop offset="1" stop-color="#5D95C3"/>
</linearGradient>
<linearGradient id="paint70_linear_1047_757" x1="386.649" y1="24.5555" x2="386.649" y2="87.5151" gradientUnits="userSpaceOnUse">
<stop stop-color="#5D95C3" stop-opacity="0"/>
<stop offset="1" stop-color="#5D95C3"/>
</linearGradient>
<linearGradient id="paint71_linear_1047_757" x1="386.649" y1="24.5549" x2="386.649" y2="87.5145" gradientUnits="userSpaceOnUse">
<stop stop-color="#5D95C3" stop-opacity="0"/>
<stop offset="1" stop-color="#5D95C3"/>
</linearGradient>
<linearGradient id="paint72_linear_1047_757" x1="386.649" y1="24.5561" x2="386.649" y2="87.5157" gradientUnits="userSpaceOnUse">
<stop stop-color="#5D95C3" stop-opacity="0"/>
<stop offset="1" stop-color="#5D95C3"/>
</linearGradient>
<linearGradient id="paint73_linear_1047_757" x1="386.649" y1="24.5556" x2="386.649" y2="87.5151" gradientUnits="userSpaceOnUse">
<stop stop-color="#5D95C3" stop-opacity="0"/>
<stop offset="1" stop-color="#5D95C3"/>
</linearGradient>
<linearGradient id="paint74_linear_1047_757" x1="386.649" y1="24.5549" x2="386.649" y2="87.5143" gradientUnits="userSpaceOnUse">
<stop stop-color="#5D95C3" stop-opacity="0"/>
<stop offset="1" stop-color="#5D95C3"/>
</linearGradient>
</defs>
</svg>
