<svg width="366" height="182" viewBox="0 0 366 182" fill="none" xmlns="http://www.w3.org/2000/svg">
<mask id="mask0_1047_562" style="mask-type:alpha" maskUnits="userSpaceOnUse" x="0" y="0" width="366" height="182">
<rect width="366" height="182" fill="#D9D9D9"/>
</mask>
<g mask="url(#mask0_1047_562)">
<rect width="1280" height="222" transform="translate(0 -40)" fill="#3858A1"/>
<mask id="mask1_1047_562" style="mask-type:luminance" maskUnits="userSpaceOnUse" x="0" y="-29" width="1280" height="211">
<path d="M1280 -28.8809H0V181.91H1280V-28.8809Z" fill="white"/>
</mask>
<g mask="url(#mask1_1047_562)">
<path d="M91.4603 118.445C68.3603 118.445 56.6203 114.855 45.2603 111.374C34.1403 107.974 22.6403 104.443 0.0302734 104.443V101.152C23.1303 101.152 34.8703 104.742 46.2303 108.223C57.3503 111.624 68.8503 115.154 91.4603 115.154C114.07 115.154 125.57 111.634 136.69 108.223C148.04 104.742 159.78 101.152 182.89 101.152V104.443C160.28 104.443 148.78 107.964 137.66 111.374C126.31 114.855 114.57 118.445 91.4603 118.445Z" fill="url(#paint0_linear_1047_562)"/>
<path d="M91.46 111.992C68.37 111.992 56.64 108.402 45.29 104.921C34.16 101.511 22.66 97.9904 0.0400391 97.9904V94.8789C23.13 94.8789 34.86 98.469 46.21 101.949C57.34 105.36 68.84 108.88 91.46 108.88C114.08 108.88 125.59 105.36 136.71 101.949C148.06 98.479 159.79 94.8789 182.88 94.8789V97.9904C160.26 97.9904 148.75 101.511 137.63 104.921C126.28 108.392 114.55 111.992 91.46 111.992Z" fill="url(#paint1_linear_1047_562)"/>
<path d="M91.46 105.529C68.38 105.529 56.66 101.939 45.32 98.4684C34.19 95.0577 22.68 91.5374 0.0400391 91.5374V88.6055C23.12 88.6055 34.84 92.1956 46.18 95.6661C57.31 99.0767 68.82 102.597 91.46 102.597C114.1 102.597 125.61 99.0667 136.74 95.6661C148.08 92.1956 159.81 88.6055 182.88 88.6055V91.5374C160.24 91.5374 148.73 95.0677 137.6 98.4684C126.26 101.939 114.53 105.529 91.46 105.529Z" fill="url(#paint2_linear_1047_562)"/>
<path d="M91.4603 99.0682C68.4003 99.0682 56.6803 95.4781 45.3403 92.0076C34.2003 88.597 22.6803 85.0667 0.0302734 85.0667V82.3242C23.0903 82.3242 34.8103 85.9143 46.1503 89.3848C57.2903 92.7954 68.8103 96.3257 91.4603 96.3257C114.11 96.3257 125.63 92.7954 136.77 89.3848C148.1 85.9143 159.82 82.3242 182.89 82.3242V85.0667C160.24 85.0667 148.72 88.597 137.58 92.0076C126.25 95.4781 114.53 99.0682 91.4603 99.0682Z" fill="url(#paint3_linear_1047_562)"/>
<path d="M91.46 92.6153C68.41 92.6153 56.7 89.0251 45.37 85.5547C34.22 82.144 22.7 78.6137 0.0400391 78.6137V76.0508C23.09 76.0508 34.8 79.6409 46.13 83.1114C57.28 86.522 68.8 90.0523 91.46 90.0523C114.12 90.0523 125.65 86.522 136.79 83.1114C148.12 79.6409 159.83 76.0508 182.88 76.0508V78.6137C160.22 78.6137 148.69 82.144 137.55 85.5547C126.22 89.0251 114.51 92.6153 91.46 92.6153Z" fill="url(#paint4_linear_1047_562)"/>
<path d="M91.46 86.1526C68.42 86.1526 56.72 82.5724 45.4 79.1019C34.25 75.6913 22.72 72.151 0.0400391 72.151V69.7676C23.08 69.7676 34.78 73.3477 46.1 76.8182C57.25 80.2288 68.78 83.7691 91.46 83.7691C114.14 83.7691 125.67 80.2388 136.82 76.8182C148.14 73.3477 159.85 69.7676 182.88 69.7676V72.151C160.2 72.151 148.67 75.6813 137.52 79.1019C126.2 82.5724 114.49 86.1526 91.46 86.1526Z" fill="url(#paint5_linear_1047_562)"/>
<path d="M91.46 79.6916C68.44 79.6916 56.74 76.1114 45.43 72.641C34.27 69.2204 22.73 65.6901 0.0400391 65.6901V63.4961C23.06 63.4961 34.76 67.0763 46.07 70.5467C57.23 73.9673 68.77 77.4976 91.46 77.4976C114.15 77.4976 125.69 73.9673 136.85 70.5467C148.16 67.0763 159.86 63.4961 182.89 63.4961V65.6901C160.2 65.6901 148.66 69.2204 137.5 72.641C126.19 76.1114 114.49 79.6916 91.47 79.6916H91.46Z" fill="url(#paint6_linear_1047_562)"/>
<path d="M91.46 73.2384C68.45 73.2384 56.76 69.6583 45.45 66.1978C34.28 62.7772 22.74 59.2469 0.0400391 59.2469V57.2324C23.05 57.2324 34.74 60.8126 46.05 64.2731C57.22 67.6937 68.76 71.224 91.46 71.224C114.16 71.224 125.71 67.6837 136.87 64.2731C148.18 60.8126 159.87 57.2324 182.88 57.2324V59.2469C160.18 59.2469 148.63 62.7872 137.46 66.1978C126.15 69.6583 114.46 73.2384 91.45 73.2384H91.46Z" fill="url(#paint7_linear_1047_562)"/>
<path d="M91.46 66.7759C68.47 66.7759 56.78 63.1958 45.48 59.7353C34.31 56.3147 22.76 52.7744 0.0400391 52.7744V50.9395C23.03 50.9395 34.72 54.5196 46.02 57.9801C57.19 61.4007 68.74 64.941 91.46 64.941C114.18 64.941 125.73 61.4007 136.9 57.9801C148.2 54.5196 159.89 50.9395 182.88 50.9395V52.7744C160.16 52.7744 148.61 56.3147 137.44 59.7353C126.14 63.1958 114.45 66.7759 91.46 66.7759Z" fill="url(#paint8_linear_1047_562)"/>
<path d="M91.46 60.313C68.48 60.313 56.8 56.7329 45.51 53.2823C34.33 49.8617 22.77 46.3215 0.0400391 46.3215V44.666C23.02 44.666 34.7 48.2462 45.99 51.6967C57.17 55.1173 68.73 58.6576 91.46 58.6576C114.19 58.6576 125.75 55.1173 136.93 51.6967C148.22 48.2362 159.9 44.666 182.89 44.666V46.3215C160.16 46.3215 148.6 49.8617 137.42 53.2823C126.13 56.7428 114.45 60.313 91.47 60.313H91.46Z" fill="url(#paint9_linear_1047_562)"/>
<path d="M91.4603 53.862C68.4903 53.862 56.8203 50.2918 45.5303 46.8313C34.3503 43.4107 22.7803 39.8605 0.0302734 39.8605V38.3945C23.0003 38.3945 34.6703 41.9647 45.9603 45.4252C57.1403 48.8458 68.7103 52.3961 91.4603 52.3961C114.21 52.3961 125.77 48.8558 136.96 45.4252C148.25 41.9647 159.92 38.3945 182.89 38.3945V39.8605C160.14 39.8605 148.58 43.4008 137.39 46.8313C126.1 50.2918 114.43 53.862 91.4603 53.862Z" fill="url(#paint10_linear_1047_562)"/>
<path d="M91.46 47.3993C68.51 47.3993 56.84 43.8291 45.56 40.3686C34.37 36.9381 22.8 33.3978 0.0400391 33.3978V32.1113C22.99 32.1113 34.66 35.6815 45.94 39.142C57.13 42.5726 68.7 46.1129 91.46 46.1129C114.22 46.1129 125.79 42.5726 136.98 39.142C148.26 35.6915 159.93 32.1113 182.88 32.1113V33.3978C160.12 33.3978 148.55 36.9381 137.36 40.3686C126.08 43.8192 114.41 47.3993 91.46 47.3993Z" fill="url(#paint11_linear_1047_562)"/>
<path d="M91.46 40.9364C68.52 40.9364 56.86 37.3662 45.59 33.9157C34.39 30.4851 22.81 26.9448 0.0400391 26.9448V25.8379C22.98 25.8379 34.64 29.4081 45.91 32.8586C57.11 36.2892 68.69 39.8294 91.46 39.8294C114.23 39.8294 125.81 36.2792 137.01 32.8586C148.29 29.4081 159.95 25.8379 182.88 25.8379V26.9448C160.11 26.9448 148.53 30.4951 137.33 33.9157C126.05 37.3662 114.39 40.9364 91.46 40.9364Z" fill="url(#paint12_linear_1047_562)"/>
<path d="M91.4603 34.4856C68.5403 34.4856 56.8803 30.9154 45.6103 27.4649C34.4103 24.0343 22.8203 20.4841 0.0302734 20.4841V19.5566C22.9603 19.5566 34.6103 23.1268 45.8803 26.5774C57.0803 30.0079 68.6703 33.5582 91.4603 33.5582C114.25 33.5582 125.83 30.0079 137.04 26.5774C148.31 23.1268 159.96 19.5566 182.89 19.5566V20.4841C160.1 20.4841 148.52 24.0343 137.31 27.4649C126.04 30.9154 114.39 34.4856 91.4603 34.4856Z" fill="url(#paint13_linear_1047_562)"/>
<path d="M91.46 28.0227C68.55 28.0227 56.9 24.4525 45.64 21.002C34.43 17.5714 22.84 14.0212 0.0400391 14.0212V13.2832C22.95 13.2832 34.6 16.8534 45.86 20.3039C57.07 23.7345 68.66 27.2847 91.46 27.2847C114.26 27.2847 125.85 23.7345 137.06 20.3039C148.32 16.8534 159.97 13.2832 182.88 13.2832V14.0212C160.08 14.0212 148.49 17.5714 137.28 21.002C126.02 24.4525 114.37 28.0127 91.46 28.0127V28.0227Z" fill="url(#paint14_linear_1047_562)"/>
<path d="M457.151 118.445C434.051 118.445 422.311 114.855 410.951 111.374C399.831 107.974 388.331 104.443 365.721 104.443V101.152C388.821 101.152 400.561 104.742 411.921 108.223C423.041 111.624 434.541 115.154 457.151 115.154C479.761 115.154 491.261 111.634 502.381 108.223C513.731 104.742 525.471 101.152 548.581 101.152V104.443C525.971 104.443 514.471 107.964 503.351 111.374C492.001 114.855 480.261 118.445 457.151 118.445Z" fill="url(#paint15_linear_1047_562)"/>
<path d="M457.15 111.992C434.06 111.992 422.33 108.402 410.98 104.921C399.85 101.511 388.35 97.9904 365.73 97.9904V94.8789C388.82 94.8789 400.55 98.469 411.9 101.949C423.03 105.36 434.53 108.88 457.15 108.88C479.77 108.88 491.28 105.36 502.4 101.949C513.75 98.479 525.48 94.8789 548.57 94.8789V97.9904C525.95 97.9904 514.44 101.511 503.32 104.921C491.97 108.392 480.24 111.992 457.15 111.992Z" fill="url(#paint16_linear_1047_562)"/>
<path d="M457.15 105.529C434.07 105.529 422.35 101.939 411.01 98.4684C399.88 95.0577 388.37 91.5374 365.73 91.5374V88.6055C388.81 88.6055 400.53 92.1956 411.87 95.6661C423 99.0767 434.51 102.597 457.15 102.597C479.79 102.597 491.3 99.0667 502.43 95.6661C513.77 92.1956 525.5 88.6055 548.57 88.6055V91.5374C525.93 91.5374 514.42 95.0677 503.29 98.4684C491.95 101.939 480.22 105.529 457.15 105.529Z" fill="url(#paint17_linear_1047_562)"/>
<path d="M457.151 99.0682C434.091 99.0682 422.371 95.4781 411.031 92.0076C399.891 88.597 388.371 85.0667 365.721 85.0667V82.3242C388.781 82.3242 400.501 85.9143 411.841 89.3848C422.981 92.7954 434.501 96.3257 457.151 96.3257C479.801 96.3257 491.321 92.7954 502.461 89.3848C513.791 85.9143 525.511 82.3242 548.581 82.3242V85.0667C525.931 85.0667 514.411 88.597 503.271 92.0076C491.941 95.4781 480.221 99.0682 457.151 99.0682Z" fill="url(#paint18_linear_1047_562)"/>
<path d="M457.15 92.6153C434.1 92.6153 422.39 89.0251 411.06 85.5547C399.91 82.144 388.39 78.6137 365.73 78.6137V76.0508C388.78 76.0508 400.49 79.6409 411.82 83.1114C422.97 86.522 434.49 90.0523 457.15 90.0523C479.81 90.0523 491.34 86.522 502.48 83.1114C513.81 79.6409 525.52 76.0508 548.57 76.0508V78.6137C525.91 78.6137 514.38 82.144 503.23 85.5547C491.9 89.0251 480.19 92.6153 457.14 92.6153H457.15Z" fill="url(#paint19_linear_1047_562)"/>
<path d="M457.15 86.1526C434.11 86.1526 422.41 82.5724 411.09 79.1019C399.94 75.6913 388.41 72.151 365.73 72.151V69.7676C388.77 69.7676 400.47 73.3477 411.79 76.8182C422.94 80.2288 434.47 83.7691 457.15 83.7691C479.83 83.7691 491.36 80.2388 502.51 76.8182C513.83 73.3477 525.54 69.7676 548.57 69.7676V72.151C525.89 72.151 514.36 75.6813 503.21 79.1019C491.89 82.5724 480.18 86.1526 457.15 86.1526Z" fill="url(#paint20_linear_1047_562)"/>
<path d="M457.15 79.6916C434.13 79.6916 422.43 76.1114 411.12 72.641C399.96 69.2204 388.42 65.6901 365.73 65.6901V63.4961C388.75 63.4961 400.45 67.0763 411.76 70.5467C422.92 73.9673 434.46 77.4976 457.15 77.4976C479.84 77.4976 491.38 73.9673 502.54 70.5467C513.85 67.0763 525.55 63.4961 548.58 63.4961V65.6901C525.89 65.6901 514.35 69.2204 503.19 72.641C491.88 76.1114 480.18 79.6916 457.16 79.6916H457.15Z" fill="url(#paint21_linear_1047_562)"/>
<path d="M457.15 73.2384C434.14 73.2384 422.45 69.6583 411.14 66.1978C399.97 62.7772 388.43 59.2469 365.73 59.2469V57.2324C388.74 57.2324 400.43 60.8126 411.74 64.2731C422.91 67.6937 434.45 71.224 457.15 71.224C479.85 71.224 491.4 67.6837 502.56 64.2731C513.87 60.8126 525.56 57.2324 548.57 57.2324V59.2469C525.87 59.2469 514.32 62.7872 503.15 66.1978C491.84 69.6583 480.15 73.2384 457.14 73.2384H457.15Z" fill="url(#paint22_linear_1047_562)"/>
<path d="M457.15 66.7759C434.16 66.7759 422.47 63.1958 411.17 59.7353C400 56.3147 388.45 52.7744 365.73 52.7744V50.9395C388.72 50.9395 400.41 54.5196 411.71 57.9801C422.88 61.4007 434.43 64.941 457.15 64.941C479.87 64.941 491.42 61.4007 502.59 57.9801C513.89 54.5196 525.58 50.9395 548.57 50.9395V52.7744C525.85 52.7744 514.3 56.3147 503.13 59.7353C491.83 63.1958 480.14 66.7759 457.15 66.7759Z" fill="url(#paint23_linear_1047_562)"/>
<path d="M457.15 60.313C434.17 60.313 422.49 56.7329 411.2 53.2823C400.02 49.8617 388.46 46.3215 365.73 46.3215V44.666C388.71 44.666 400.39 48.2462 411.68 51.6967C422.86 55.1173 434.42 58.6576 457.15 58.6576C479.88 58.6576 491.44 55.1173 502.62 51.6967C513.91 48.2362 525.59 44.666 548.58 44.666V46.3215C525.85 46.3215 514.29 49.8617 503.11 53.2823C491.82 56.7428 480.14 60.313 457.16 60.313H457.15Z" fill="url(#paint24_linear_1047_562)"/>
<path d="M457.151 53.862C434.181 53.862 422.511 50.2918 411.221 46.8313C400.041 43.4107 388.471 39.8605 365.721 39.8605V38.3945C388.691 38.3945 400.361 41.9647 411.651 45.4252C422.831 48.8458 434.401 52.3961 457.151 52.3961C479.901 52.3961 491.461 48.8558 502.651 45.4252C513.941 41.9647 525.611 38.3945 548.581 38.3945V39.8605C525.831 39.8605 514.271 43.4008 503.081 46.8313C491.791 50.2918 480.121 53.862 457.151 53.862Z" fill="url(#paint25_linear_1047_562)"/>
<path d="M457.15 47.3993C434.2 47.3993 422.53 43.8291 411.25 40.3686C400.06 36.9381 388.49 33.3978 365.73 33.3978V32.1113C388.68 32.1113 400.35 35.6815 411.63 39.142C422.82 42.5726 434.39 46.1129 457.15 46.1129C479.91 46.1129 491.48 42.5726 502.67 39.142C513.95 35.6915 525.62 32.1113 548.57 32.1113V33.3978C525.81 33.3978 514.24 36.9381 503.05 40.3686C491.77 43.8192 480.1 47.3993 457.15 47.3993Z" fill="url(#paint26_linear_1047_562)"/>
<path d="M457.15 40.9364C434.21 40.9364 422.55 37.3662 411.28 33.9157C400.08 30.4851 388.5 26.9448 365.73 26.9448V25.8379C388.67 25.8379 400.33 29.4081 411.6 32.8586C422.8 36.2892 434.38 39.8294 457.15 39.8294C479.92 39.8294 491.5 36.2792 502.7 32.8586C513.98 29.4081 525.64 25.8379 548.57 25.8379V26.9448C525.8 26.9448 514.22 30.4951 503.02 33.9157C491.74 37.3662 480.08 40.9364 457.15 40.9364Z" fill="url(#paint27_linear_1047_562)"/>
<path d="M457.151 34.4856C434.231 34.4856 422.571 30.9154 411.301 27.4649C400.101 24.0343 388.511 20.4841 365.721 20.4841V19.5566C388.651 19.5566 400.301 23.1268 411.571 26.5774C422.771 30.0079 434.361 33.5582 457.151 33.5582C479.941 33.5582 491.521 30.0079 502.731 26.5774C514.001 23.1268 525.651 19.5566 548.581 19.5566V20.4841C525.791 20.4841 514.211 24.0343 503.001 27.4649C491.731 30.9154 480.081 34.4856 457.151 34.4856Z" fill="url(#paint28_linear_1047_562)"/>
<path d="M457.15 28.0227C434.24 28.0227 422.59 24.4525 411.33 21.002C400.12 17.5714 388.53 14.0212 365.73 14.0212V13.2832C388.64 13.2832 400.29 16.8534 411.55 20.3039C422.76 23.7345 434.35 27.2847 457.15 27.2847C479.95 27.2847 491.54 23.7345 502.75 20.3039C514.01 16.8534 525.66 13.2832 548.57 13.2832V14.0212C525.77 14.0212 514.18 17.5714 502.97 21.002C491.71 24.4525 480.06 28.0127 457.15 28.0127V28.0227Z" fill="url(#paint29_linear_1047_562)"/>
<path d="M365.73 105.251C342.63 105.251 330.89 101.661 319.53 98.1809C308.41 94.7802 296.91 91.2499 274.3 91.2499C251.69 91.2499 240.19 94.7703 229.07 98.1809C217.72 101.661 205.98 105.251 182.87 105.251V101.961C205.48 101.961 216.98 98.4402 228.1 95.0296C239.45 91.5491 251.19 87.959 274.3 87.959C297.41 87.959 309.14 91.5491 320.5 95.0296C331.62 98.4402 343.12 101.961 365.73 101.961V105.251Z" fill="url(#paint30_linear_1047_562)"/>
<path d="M365.731 111.523C342.641 111.523 330.911 107.933 319.561 104.453C308.431 101.042 296.931 97.5216 274.311 97.5216C251.691 97.5216 240.181 101.042 229.061 104.453C217.711 107.923 205.981 111.523 182.891 111.523V108.412C205.511 108.412 217.021 104.891 228.141 101.481C239.491 98.0103 251.221 94.4102 274.311 94.4102C297.401 94.4102 309.131 98.0003 320.481 101.481C331.611 104.891 343.111 108.412 365.731 108.412V111.523Z" fill="url(#paint31_linear_1047_562)"/>
<path d="M365.731 117.797C342.651 117.797 330.931 114.206 319.591 110.736C308.461 107.325 296.951 103.805 274.311 103.805C251.671 103.805 240.161 107.335 229.031 110.736C217.691 114.206 205.961 117.797 182.891 117.797V114.865C205.531 114.865 217.041 111.334 228.171 107.934C239.511 104.463 251.241 100.873 274.311 100.873C297.381 100.873 309.111 104.463 320.451 107.934C331.581 111.344 343.101 114.865 365.731 114.865V117.797Z" fill="url(#paint32_linear_1047_562)"/>
<path d="M365.73 124.078C342.67 124.078 330.95 120.488 319.61 117.017C308.47 113.607 296.95 110.076 274.3 110.076C251.65 110.076 240.13 113.607 228.99 117.017C217.66 120.488 205.94 124.078 182.87 124.078V121.336C205.52 121.336 217.04 117.805 228.18 114.395C239.51 110.924 251.23 107.334 274.3 107.334C297.37 107.334 309.08 110.924 320.42 114.395C331.56 117.805 343.08 121.336 365.73 121.336V124.078Z" fill="url(#paint33_linear_1047_562)"/>
<path d="M365.731 130.352C342.681 130.352 330.971 126.761 319.641 123.291C308.491 119.88 296.971 116.35 274.311 116.35C251.651 116.35 240.121 119.88 228.981 123.291C217.651 126.761 205.941 130.352 182.891 130.352V127.789C205.551 127.789 217.081 124.258 228.221 120.848C239.551 117.377 251.261 113.787 274.311 113.787C297.361 113.787 309.071 117.377 320.401 120.848C331.551 124.258 343.071 127.789 365.731 127.789V130.352Z" fill="url(#paint34_linear_1047_562)"/>
<path d="M365.731 136.635C342.691 136.635 330.991 133.055 319.671 129.584C308.521 126.174 296.991 122.633 274.311 122.633C251.631 122.633 240.101 126.164 228.951 129.584C217.631 133.055 205.921 136.635 182.891 136.635V134.252C205.571 134.252 217.101 130.721 228.251 127.301C239.571 123.83 251.281 120.25 274.311 120.25C297.341 120.25 309.051 123.83 320.371 127.301C331.521 130.711 343.051 134.252 365.731 134.252V136.635Z" fill="url(#paint35_linear_1047_562)"/>
<path d="M365.73 142.906C342.71 142.906 331.01 139.326 319.69 135.856C308.53 132.435 296.99 128.905 274.3 128.905C251.61 128.905 240.07 132.435 228.91 135.856C217.6 139.316 205.9 142.906 182.88 142.906V140.712C205.57 140.712 217.11 137.182 228.27 133.762C239.58 130.301 251.28 126.711 274.3 126.711C297.32 126.711 309.02 130.291 320.33 133.762C331.49 137.182 343.03 140.712 365.72 140.712V142.906H365.73Z" fill="url(#paint36_linear_1047_562)"/>
<path d="M365.731 149.18C342.721 149.18 331.031 145.6 319.721 142.139C308.551 138.719 297.011 135.188 274.311 135.188C251.611 135.188 240.061 138.729 228.901 142.139C217.591 145.6 205.901 149.18 182.891 149.18V147.165C205.591 147.165 217.141 143.625 228.301 140.214C239.611 136.754 251.301 133.174 274.311 133.174C297.321 133.174 309.011 136.754 320.321 140.214C331.491 143.635 343.031 147.165 365.741 147.165V149.18H365.731Z" fill="url(#paint37_linear_1047_562)"/>
<path d="M365.731 155.463C342.741 155.463 331.051 151.883 319.751 148.423C308.581 145.002 297.031 141.462 274.311 141.462C251.591 141.462 240.041 145.002 228.871 148.423C217.571 151.883 205.881 155.463 182.891 155.463V153.628C205.611 153.628 217.161 150.088 228.331 146.668C239.631 143.207 251.321 139.627 274.311 139.627C297.301 139.627 308.991 143.207 320.291 146.668C331.461 150.088 343.011 153.628 365.731 153.628V155.463Z" fill="url(#paint38_linear_1047_562)"/>
<path d="M365.73 161.735C342.75 161.735 331.07 158.155 319.77 154.704C308.59 151.284 297.03 147.743 274.3 147.743C251.57 147.743 240.01 151.284 228.83 154.704C217.54 158.165 205.86 161.735 182.88 161.735V160.079C205.61 160.079 217.17 156.539 228.35 153.119C239.64 149.658 251.32 146.088 274.3 146.088C297.28 146.088 308.96 149.668 320.25 153.119C331.43 156.539 342.99 160.079 365.72 160.079V161.735H365.73Z" fill="url(#paint39_linear_1047_562)"/>
<path d="M365.73 168.018C342.76 168.018 331.09 164.448 319.8 160.988C308.62 157.567 297.05 154.017 274.3 154.017C251.55 154.017 239.99 157.557 228.8 160.988C217.51 164.448 205.84 168.018 182.87 168.018V166.552C205.62 166.552 217.18 163.012 228.37 159.581C239.66 156.121 251.33 152.551 274.3 152.551C297.27 152.551 308.94 156.121 320.23 159.581C331.41 163.002 342.98 166.552 365.73 166.552V168.018Z" fill="url(#paint40_linear_1047_562)"/>
<path d="M365.731 174.29C342.781 174.29 331.111 170.72 319.831 167.259C308.641 163.829 297.071 160.288 274.311 160.288C251.551 160.288 239.981 163.829 228.791 167.259C217.511 170.71 205.841 174.29 182.891 174.29V173.003C205.651 173.003 217.221 169.463 228.411 166.033C239.691 162.582 251.361 159.002 274.311 159.002C297.261 159.002 308.931 162.572 320.211 166.033C331.401 169.463 342.971 173.003 365.731 173.003V174.29Z" fill="url(#paint41_linear_1047_562)"/>
<path d="M365.731 180.563C342.791 180.563 331.131 176.993 319.861 173.543C308.661 170.112 297.081 166.572 274.311 166.572C251.541 166.572 239.961 170.122 228.761 173.543C217.481 176.993 205.821 180.563 182.891 180.563V179.456C205.661 179.456 217.241 175.906 228.441 172.486C239.721 169.035 251.381 165.465 274.311 165.465C297.241 165.465 308.911 169.035 320.181 172.486C331.381 175.916 342.961 179.456 365.731 179.456V180.563Z" fill="url(#paint42_linear_1047_562)"/>
<path d="M365.73 186.847C342.8 186.847 331.15 183.277 319.88 179.826C308.68 176.396 297.09 172.845 274.3 172.845C251.51 172.845 239.93 176.396 228.72 179.826C217.45 183.277 205.8 186.847 182.87 186.847V185.919C205.66 185.919 217.24 182.369 228.45 178.939C239.72 175.488 251.37 171.918 274.3 171.918C297.23 171.918 308.88 175.488 320.15 178.939C331.35 182.369 342.94 185.919 365.73 185.919V186.847Z" fill="url(#paint43_linear_1047_562)"/>
<path d="M365.731 193.118C342.821 193.118 331.171 189.548 319.911 186.098C308.701 182.667 297.111 179.117 274.311 179.117C251.511 179.117 239.921 182.667 228.711 186.098C217.451 189.548 205.801 193.118 182.891 193.118V192.38C205.691 192.38 217.281 188.83 228.491 185.4C239.751 181.949 251.401 178.379 274.311 178.379C297.221 178.379 308.871 181.949 320.131 185.39C331.341 188.82 342.931 192.37 365.731 192.37V193.108V193.118Z" fill="url(#paint44_linear_1047_562)"/>
</g>
</g>
<defs>
<linearGradient id="paint0_linear_1047_562" x1="91.4603" y1="17.7615" x2="91.4603" y2="137.323" gradientUnits="userSpaceOnUse">
<stop stop-color="#6A95C0" stop-opacity="0"/>
<stop offset="1" stop-color="#6A95C0"/>
</linearGradient>
<linearGradient id="paint1_linear_1047_562" x1="3.93395e-05" y1="17.7608" x2="0.994566" y2="137.322" gradientUnits="userSpaceOnUse">
<stop stop-color="#6A95C0" stop-opacity="0"/>
<stop offset="1" stop-color="#6A95C0"/>
</linearGradient>
<linearGradient id="paint2_linear_1047_562" x1="91.4601" y1="17.7601" x2="91.4601" y2="137.322" gradientUnits="userSpaceOnUse">
<stop stop-color="#6A95C0" stop-opacity="0"/>
<stop offset="1" stop-color="#6A95C0"/>
</linearGradient>
<linearGradient id="paint3_linear_1047_562" x1="91.4603" y1="17.7616" x2="91.4603" y2="137.323" gradientUnits="userSpaceOnUse">
<stop stop-color="#6A95C0" stop-opacity="0"/>
<stop offset="1" stop-color="#6A95C0"/>
</linearGradient>
<linearGradient id="paint4_linear_1047_562" x1="91.4601" y1="17.7609" x2="91.4601" y2="137.322" gradientUnits="userSpaceOnUse">
<stop stop-color="#6A95C0" stop-opacity="0"/>
<stop offset="1" stop-color="#6A95C0"/>
</linearGradient>
<linearGradient id="paint5_linear_1047_562" x1="91.4601" y1="17.7605" x2="91.4601" y2="137.322" gradientUnits="userSpaceOnUse">
<stop stop-color="#6A95C0" stop-opacity="0"/>
<stop offset="1" stop-color="#6A95C0"/>
</linearGradient>
<linearGradient id="paint6_linear_1047_562" x1="91.46" y1="17.7617" x2="91.46" y2="137.323" gradientUnits="userSpaceOnUse">
<stop stop-color="#6A95C0" stop-opacity="0"/>
<stop offset="1" stop-color="#6A95C0"/>
</linearGradient>
<linearGradient id="paint7_linear_1047_562" x1="91.4601" y1="17.7609" x2="91.4601" y2="137.322" gradientUnits="userSpaceOnUse">
<stop stop-color="#6A95C0" stop-opacity="0"/>
<stop offset="1" stop-color="#6A95C0"/>
</linearGradient>
<linearGradient id="paint8_linear_1047_562" x1="91.4601" y1="17.7606" x2="91.4601" y2="137.322" gradientUnits="userSpaceOnUse">
<stop stop-color="#6A95C0" stop-opacity="0"/>
<stop offset="1" stop-color="#6A95C0"/>
</linearGradient>
<linearGradient id="paint9_linear_1047_562" x1="91.46" y1="17.7599" x2="91.46" y2="137.321" gradientUnits="userSpaceOnUse">
<stop stop-color="#6A95C0" stop-opacity="0"/>
<stop offset="1" stop-color="#6A95C0"/>
</linearGradient>
<linearGradient id="paint10_linear_1047_562" x1="91.4603" y1="17.7612" x2="91.4603" y2="137.323" gradientUnits="userSpaceOnUse">
<stop stop-color="#6A95C0" stop-opacity="0"/>
<stop offset="1" stop-color="#6A95C0"/>
</linearGradient>
<linearGradient id="paint11_linear_1047_562" x1="91.4601" y1="17.7608" x2="91.4601" y2="137.322" gradientUnits="userSpaceOnUse">
<stop stop-color="#6A95C0" stop-opacity="0"/>
<stop offset="1" stop-color="#6A95C0"/>
</linearGradient>
<linearGradient id="paint12_linear_1047_562" x1="91.4601" y1="17.7601" x2="91.4601" y2="137.322" gradientUnits="userSpaceOnUse">
<stop stop-color="#6A95C0" stop-opacity="0"/>
<stop offset="1" stop-color="#6A95C0"/>
</linearGradient>
<linearGradient id="paint13_linear_1047_562" x1="91.4603" y1="17.7616" x2="91.4603" y2="137.323" gradientUnits="userSpaceOnUse">
<stop stop-color="#6A95C0" stop-opacity="0"/>
<stop offset="1" stop-color="#6A95C0"/>
</linearGradient>
<linearGradient id="paint14_linear_1047_562" x1="91.4601" y1="17.7609" x2="91.4601" y2="137.322" gradientUnits="userSpaceOnUse">
<stop stop-color="#6A95C0" stop-opacity="0"/>
<stop offset="1" stop-color="#6A95C0"/>
</linearGradient>
<linearGradient id="paint15_linear_1047_562" x1="457.151" y1="17.7615" x2="457.151" y2="137.323" gradientUnits="userSpaceOnUse">
<stop stop-color="#6A95C0" stop-opacity="0"/>
<stop offset="1" stop-color="#6A95C0"/>
</linearGradient>
<linearGradient id="paint16_linear_1047_562" x1="457.15" y1="17.7608" x2="457.15" y2="137.322" gradientUnits="userSpaceOnUse">
<stop stop-color="#6A95C0" stop-opacity="0"/>
<stop offset="1" stop-color="#6A95C0"/>
</linearGradient>
<linearGradient id="paint17_linear_1047_562" x1="457.15" y1="17.7601" x2="457.15" y2="137.322" gradientUnits="userSpaceOnUse">
<stop stop-color="#6A95C0" stop-opacity="0"/>
<stop offset="1" stop-color="#6A95C0"/>
</linearGradient>
<linearGradient id="paint18_linear_1047_562" x1="457.151" y1="17.7616" x2="457.151" y2="137.323" gradientUnits="userSpaceOnUse">
<stop stop-color="#6A95C0" stop-opacity="0"/>
<stop offset="1" stop-color="#6A95C0"/>
</linearGradient>
<linearGradient id="paint19_linear_1047_562" x1="457.15" y1="17.7609" x2="457.15" y2="137.322" gradientUnits="userSpaceOnUse">
<stop stop-color="#6A95C0" stop-opacity="0"/>
<stop offset="1" stop-color="#6A95C0"/>
</linearGradient>
<linearGradient id="paint20_linear_1047_562" x1="457.15" y1="17.7605" x2="457.15" y2="137.322" gradientUnits="userSpaceOnUse">
<stop stop-color="#6A95C0" stop-opacity="0"/>
<stop offset="1" stop-color="#6A95C0"/>
</linearGradient>
<linearGradient id="paint21_linear_1047_562" x1="457.15" y1="17.7617" x2="457.15" y2="137.323" gradientUnits="userSpaceOnUse">
<stop stop-color="#6A95C0" stop-opacity="0"/>
<stop offset="1" stop-color="#6A95C0"/>
</linearGradient>
<linearGradient id="paint22_linear_1047_562" x1="457.15" y1="17.7609" x2="457.15" y2="137.322" gradientUnits="userSpaceOnUse">
<stop stop-color="#6A95C0" stop-opacity="0"/>
<stop offset="1" stop-color="#6A95C0"/>
</linearGradient>
<linearGradient id="paint23_linear_1047_562" x1="457.15" y1="17.7606" x2="457.15" y2="137.322" gradientUnits="userSpaceOnUse">
<stop stop-color="#6A95C0" stop-opacity="0"/>
<stop offset="1" stop-color="#6A95C0"/>
</linearGradient>
<linearGradient id="paint24_linear_1047_562" x1="457.15" y1="17.7599" x2="457.15" y2="137.321" gradientUnits="userSpaceOnUse">
<stop stop-color="#6A95C0" stop-opacity="0"/>
<stop offset="1" stop-color="#6A95C0"/>
</linearGradient>
<linearGradient id="paint25_linear_1047_562" x1="457.151" y1="17.7612" x2="457.151" y2="137.323" gradientUnits="userSpaceOnUse">
<stop stop-color="#6A95C0" stop-opacity="0"/>
<stop offset="1" stop-color="#6A95C0"/>
</linearGradient>
<linearGradient id="paint26_linear_1047_562" x1="457.15" y1="17.7608" x2="457.15" y2="137.322" gradientUnits="userSpaceOnUse">
<stop stop-color="#6A95C0" stop-opacity="0"/>
<stop offset="1" stop-color="#6A95C0"/>
</linearGradient>
<linearGradient id="paint27_linear_1047_562" x1="457.15" y1="17.7601" x2="457.15" y2="137.322" gradientUnits="userSpaceOnUse">
<stop stop-color="#6A95C0" stop-opacity="0"/>
<stop offset="1" stop-color="#6A95C0"/>
</linearGradient>
<linearGradient id="paint28_linear_1047_562" x1="457.151" y1="17.7616" x2="457.151" y2="137.323" gradientUnits="userSpaceOnUse">
<stop stop-color="#6A95C0" stop-opacity="0"/>
<stop offset="1" stop-color="#6A95C0"/>
</linearGradient>
<linearGradient id="paint29_linear_1047_562" x1="457.15" y1="17.7609" x2="457.15" y2="137.322" gradientUnits="userSpaceOnUse">
<stop stop-color="#6A95C0" stop-opacity="0"/>
<stop offset="1" stop-color="#6A95C0"/>
</linearGradient>
<linearGradient id="paint30_linear_1047_562" x1="274.31" y1="17.7619" x2="274.31" y2="137.323" gradientUnits="userSpaceOnUse">
<stop stop-color="#6A95C0" stop-opacity="0"/>
<stop offset="1" stop-color="#6A95C0"/>
</linearGradient>
<linearGradient id="paint31_linear_1047_562" x1="274.311" y1="17.7608" x2="274.311" y2="137.322" gradientUnits="userSpaceOnUse">
<stop stop-color="#6A95C0" stop-opacity="0"/>
<stop offset="1" stop-color="#6A95C0"/>
</linearGradient>
<linearGradient id="paint32_linear_1047_562" x1="274.311" y1="17.7614" x2="274.311" y2="137.323" gradientUnits="userSpaceOnUse">
<stop stop-color="#6A95C0" stop-opacity="0"/>
<stop offset="1" stop-color="#6A95C0"/>
</linearGradient>
<linearGradient id="paint33_linear_1047_562" x1="274.31" y1="17.7601" x2="274.31" y2="137.322" gradientUnits="userSpaceOnUse">
<stop stop-color="#6A95C0" stop-opacity="0"/>
<stop offset="1" stop-color="#6A95C0"/>
</linearGradient>
<linearGradient id="paint34_linear_1047_562" x1="274.311" y1="17.761" x2="274.311" y2="137.322" gradientUnits="userSpaceOnUse">
<stop stop-color="#6A95C0" stop-opacity="0"/>
<stop offset="1" stop-color="#6A95C0"/>
</linearGradient>
<linearGradient id="paint35_linear_1047_562" x1="274.311" y1="17.7616" x2="274.311" y2="137.323" gradientUnits="userSpaceOnUse">
<stop stop-color="#6A95C0" stop-opacity="0"/>
<stop offset="1" stop-color="#6A95C0"/>
</linearGradient>
<linearGradient id="paint36_linear_1047_562" x1="274.31" y1="17.7604" x2="274.31" y2="137.322" gradientUnits="userSpaceOnUse">
<stop stop-color="#6A95C0" stop-opacity="0"/>
<stop offset="1" stop-color="#6A95C0"/>
</linearGradient>
<linearGradient id="paint37_linear_1047_562" x1="274.311" y1="17.7609" x2="274.311" y2="137.322" gradientUnits="userSpaceOnUse">
<stop stop-color="#6A95C0" stop-opacity="0"/>
<stop offset="1" stop-color="#6A95C0"/>
</linearGradient>
<linearGradient id="paint38_linear_1047_562" x1="274.311" y1="17.7618" x2="274.311" y2="137.323" gradientUnits="userSpaceOnUse">
<stop stop-color="#6A95C0" stop-opacity="0"/>
<stop offset="1" stop-color="#6A95C0"/>
</linearGradient>
<linearGradient id="paint39_linear_1047_562" x1="274.31" y1="17.7605" x2="274.31" y2="137.322" gradientUnits="userSpaceOnUse">
<stop stop-color="#6A95C0" stop-opacity="0"/>
<stop offset="1" stop-color="#6A95C0"/>
</linearGradient>
<linearGradient id="paint40_linear_1047_562" x1="274.31" y1="17.7611" x2="274.31" y2="137.323" gradientUnits="userSpaceOnUse">
<stop stop-color="#6A95C0" stop-opacity="0"/>
<stop offset="1" stop-color="#6A95C0"/>
</linearGradient>
<linearGradient id="paint41_linear_1047_562" x1="274.311" y1="17.76" x2="274.311" y2="137.322" gradientUnits="userSpaceOnUse">
<stop stop-color="#6A95C0" stop-opacity="0"/>
<stop offset="1" stop-color="#6A95C0"/>
</linearGradient>
<linearGradient id="paint42_linear_1047_562" x1="274.311" y1="17.7607" x2="274.311" y2="137.322" gradientUnits="userSpaceOnUse">
<stop stop-color="#6A95C0" stop-opacity="0"/>
<stop offset="1" stop-color="#6A95C0"/>
</linearGradient>
<linearGradient id="paint43_linear_1047_562" x1="274.31" y1="17.7615" x2="274.31" y2="137.323" gradientUnits="userSpaceOnUse">
<stop stop-color="#6A95C0" stop-opacity="0"/>
<stop offset="1" stop-color="#6A95C0"/>
</linearGradient>
<linearGradient id="paint44_linear_1047_562" x1="274.311" y1="17.7603" x2="274.311" y2="137.322" gradientUnits="userSpaceOnUse">
<stop stop-color="#6A95C0" stop-opacity="0"/>
<stop offset="1" stop-color="#6A95C0"/>
</linearGradient>
</defs>
</svg>
