<svg width="279" height="203" viewBox="0 0 279 203" fill="none" xmlns="http://www.w3.org/2000/svg">
<g clip-path="url(#clip0_2001_9851)">
<path d="M0.358276 28.1935C0.358276 12.6284 6.66069 4.53577 16.3342 4.53577C26.0076 4.53577 32.2449 12.6936 32.2449 28.1935C32.2449 43.6935 26.0076 52.3082 16.3342 52.3082C6.66069 52.3082 0.358276 43.824 0.358276 28.1935ZM23.402 28.1935C23.402 15.4347 20.4055 11.8615 16.3342 11.8615C12.2628 11.8615 9.2012 15.4347 9.2012 28.1935C9.2012 40.9524 12.2628 44.9661 16.3342 44.9661C20.4055 44.9661 23.402 41.0177 23.402 28.1935Z" fill="#F1E462"/>
<path d="M59.4251 13.2647H38.2216V5.41681H69.5383V11.1599C58.8388 24.2288 57.1289 33.4798 56.3635 51.4108H46.8854C47.716 35.5356 50.6473 25.5178 59.4251 13.2647Z" fill="#F1E462"/>
<path d="M89.2761 0H95.4482L79.6678 63.0112H73.4305L89.2761 0Z" fill="#F1E462"/>
<path d="M100.041 28.1935C100.041 12.6284 106.343 4.53577 116.017 4.53577C125.69 4.53577 131.927 12.6936 131.927 28.1935C131.927 43.6935 125.69 52.3082 116.017 52.3082C106.343 52.3082 100.041 43.824 100.041 28.1935ZM123.084 28.1935C123.084 15.4347 120.088 11.8615 116.017 11.8615C111.945 11.8615 108.884 15.4347 108.884 28.1935C108.884 40.9524 111.945 44.9661 116.017 44.9661C120.088 44.9661 123.084 41.0177 123.084 28.1935Z" fill="#F1E462"/>
<path d="M136.39 45.7329L140.787 39.794C143.588 42.535 147.024 44.6398 151.291 44.6398C156.062 44.6398 159.319 42.3393 159.319 38.3909C159.319 33.9204 156.583 31.1793 146.34 31.1793V24.4246C155.004 24.4246 157.805 21.5531 157.805 17.6047C157.805 14.0315 155.508 11.9268 151.502 11.9268C148.131 11.9268 145.395 13.5257 142.594 16.1362L137.823 10.3931C141.894 6.81997 146.421 4.51945 151.958 4.51945C161.062 4.51945 167.234 8.98996 167.234 16.8868C167.234 21.863 164.303 25.3057 159.401 27.2799V27.6062C164.677 29.0093 168.765 32.8925 168.765 38.9619C168.765 47.3808 161.192 52.2918 152.219 52.2918C144.776 52.2918 139.744 49.4855 136.438 45.7166L136.39 45.7329Z" fill="#F1E462"/>
<path d="M187.118 16.2831H207.345V21.7978H193.681V30.3799H205.342V35.8946H193.681V49.2245H187.118V16.2831Z" fill="#F1E462"/>
<path d="M220.357 24.3267H225.682L226.17 28.732H226.301C228.125 25.4851 230.779 23.7067 233.352 23.7067C234.72 23.7067 235.518 23.9351 236.284 24.2451L235.176 29.8904C234.297 29.6293 233.58 29.4825 232.554 29.4825C230.6 29.4825 228.255 30.7714 226.871 34.3772V49.2245H220.357V24.3267Z" fill="#F1E462"/>
<path d="M249.703 16.7236C249.703 14.5862 251.25 13.1668 253.513 13.1668C255.777 13.1668 257.292 14.5862 257.292 16.7236C257.292 18.861 255.745 20.3294 253.513 20.3294C251.282 20.3294 249.703 18.9099 249.703 16.7236ZM250.224 24.3267H256.738V49.2245H250.224V24.3267Z" fill="#F1E462"/>
<path d="M270.89 45.5698C270.89 43.1224 272.616 41.295 274.929 41.295C277.241 41.295 279.016 43.1224 279.016 45.5698C279.016 48.0171 277.29 49.8445 274.929 49.8445C272.567 49.8445 270.89 47.9845 270.89 45.5698Z" fill="#F1E462"/>
<path d="M193.909 161.493H184.675V155.978H209.787V161.493H200.472V188.92H193.909V161.493Z" fill="#F1E462"/>
<path d="M214.592 153.449H221.106V162.39L220.796 167.057C222.799 165.197 225.226 163.418 228.597 163.418C233.971 163.418 236.267 167.154 236.267 173.42V188.936H229.753V174.219C229.753 170.352 228.695 169.014 226.252 169.014C224.216 169.014 222.93 169.993 221.106 171.821V188.936H214.592V153.466V153.449Z" fill="#F1E462"/>
<path d="M242.716 179.571V164.005H249.23V178.722C249.23 182.54 250.289 183.927 252.683 183.927C254.719 183.927 256.054 183.046 257.748 180.811V164.005H264.262V188.903H258.936L258.448 185.346H258.269C256.135 187.875 253.741 189.523 250.37 189.523C244.996 189.523 242.7 185.787 242.7 179.571H242.716Z" fill="#F1E462"/>
<path d="M270.89 185.265C270.89 182.817 272.616 180.99 274.929 180.99C277.241 180.99 279.016 182.817 279.016 185.265C279.016 187.712 277.29 189.54 274.929 189.54C272.567 189.54 270.89 187.68 270.89 185.265Z" fill="#F1E462"/>
<path d="M0 168.166C0 152.601 6.30242 144.508 15.9759 144.508C25.6494 144.508 31.8866 152.666 31.8866 168.166C31.8866 183.666 25.6494 192.281 15.9759 192.281C6.30242 192.281 0 183.796 0 168.166ZM23.0437 168.166C23.0437 155.407 20.0472 151.834 15.9759 151.834C11.9046 151.834 8.84293 155.407 8.84293 168.166C8.84293 180.925 11.9046 184.938 15.9759 184.938C20.0472 184.938 23.0437 180.99 23.0437 168.166Z" fill="#F1E462"/>
<path d="M37.6842 179.652C37.6842 173.974 41.4461 170.336 45.7617 168.052V167.791C42.1952 165.18 39.5244 161.803 39.5244 156.941C39.5244 149.354 45.5663 144.508 53.7252 144.508C61.8842 144.508 67.4049 149.484 67.4049 157.006C67.4049 161.542 64.3433 165.229 61.3631 167.334V167.66C65.6298 170.091 69.2614 173.469 69.2614 179.652C69.2614 186.798 62.959 192.281 53.4158 192.281C44.4426 192.281 37.6842 187.043 37.6842 179.652ZM60.5488 179.326C60.5488 174.741 56.1518 173.077 50.1099 170.581C47.6345 172.555 45.778 175.361 45.778 178.624C45.778 182.899 49.2793 185.64 53.6764 185.64C57.6826 185.64 60.5488 183.405 60.5488 179.326ZM59.7834 157.642C59.7834 153.808 57.4871 151.132 53.5461 151.132C50.3705 151.132 47.8137 153.172 47.8137 156.941C47.8137 161.15 51.5104 163.124 56.4123 165.033C58.5783 162.733 59.7834 160.253 59.7834 157.642Z" fill="#F1E462"/>
<path d="M88.9341 139.989H95.1062L79.3258 203H73.0885L88.9341 139.989Z" fill="#F1E462"/>
<path d="M99.6172 185.966C111.896 174.235 119.99 166.192 119.99 159.372C119.99 154.722 117.45 151.916 112.922 151.916C109.486 151.916 106.685 154.216 104.259 156.827L99.1613 151.72C103.493 147.07 107.695 144.508 114.127 144.508C123.036 144.508 128.963 150.186 128.963 158.866C128.963 166.91 121.586 175.198 113.183 183.992C115.544 183.731 118.655 183.486 120.886 183.486H131.194V191.4H99.6172V185.983V185.966Z" fill="#F1E462"/>
<path d="M137.188 168.166C137.188 152.601 143.49 144.508 153.163 144.508C162.837 144.508 169.074 152.666 169.074 168.166C169.074 183.666 162.837 192.281 153.163 192.281C143.49 192.281 137.188 183.796 137.188 168.166ZM160.231 168.166C160.231 155.407 157.235 151.834 153.163 151.834C149.092 151.834 146.03 155.407 146.03 168.166C146.03 180.925 149.092 184.938 153.163 184.938C157.235 184.938 160.231 180.99 160.231 168.166Z" fill="#F1E462"/>
<path d="M141.373 72.8659H137.627V124.946H141.373V72.8659Z" fill="#F1E462"/>
</g>
<defs>
<clipPath id="clip0_2001_9851">
<rect width="279" height="203" fill="white"/>
</clipPath>
</defs>
</svg>
