<svg width="512" height="174" viewBox="0 0 512 174" fill="none" xmlns="http://www.w3.org/2000/svg">
<mask id="mask0_1047_446" style="mask-type:alpha" maskUnits="userSpaceOnUse" x="0" y="0" width="512" height="174">
<rect width="512" height="174" fill="#D9D9D9"/>
</mask>
<g mask="url(#mask0_1047_446)">
<g clip-path="url(#clip0_1047_446)">
<path d="M0 147.421C31.1595 147.341 48.4938 142.804 63.9486 138.05C79.8433 133.166 96.2778 128.111 128.627 128.111C160.976 128.111 177.411 133.166 193.315 138.05C208.88 142.844 224.975 147.788 256.634 147.788V149.66C288.713 149.66 305.008 154.664 320.782 159.518C336.477 164.343 352.712 169.327 384.631 169.327C416.55 169.327 432.785 164.343 448.469 159.518C464.244 154.664 480.549 149.66 512.628 149.66V147.788C544.277 147.788 560.372 142.844 575.947 138.05C591.841 133.166 608.276 128.111 640.625 128.111C672.974 128.111 689.408 133.166 705.313 138.05C720.878 142.844 736.973 147.788 768.632 147.788V149.66C800.711 149.66 817.016 154.664 832.78 159.518C848.475 164.343 864.71 169.327 896.629 169.327C928.548 169.327 944.783 164.343 960.477 159.518C976.242 154.664 992.547 149.66 1024.63 149.66V147.788C1056.28 147.788 1072.37 142.844 1087.94 138.05C1103.84 133.166 1120.27 128.111 1152.62 128.111C1184.97 128.111 1201.41 133.166 1217.31 138.05C1232.76 142.804 1248.83 147.708 1280 147.788V175.002L0 174.368V147.421Z" fill="#3858A1"/>
<path d="M127.997 0C160.356 0 176.781 5.05436 192.685 9.94857C208.26 14.7327 224.355 19.677 256.004 19.677V24.311C223.655 24.311 207.22 19.2566 191.326 14.3624C175.751 9.57826 159.656 4.63399 127.997 4.63399C96.3376 4.63399 80.243 9.57826 64.6783 14.3624C48.7836 19.2566 32.3491 24.311 0 24.311V19.677C31.6494 19.677 47.754 14.7327 63.3187 9.94857C79.2134 5.05436 95.6479 0 127.997 0Z" fill="url(#paint0_linear_1047_446)"/>
<path d="M127.997 9.07812C160.326 9.07812 176.751 14.1325 192.645 19.0067C208.22 23.8008 224.335 28.7451 256.004 28.7451V33.1188C223.685 33.1188 207.25 28.0745 191.366 23.1903C175.791 18.4062 159.676 13.4519 127.997 13.4519C96.3176 13.4519 80.2131 18.4062 64.6383 23.1903C48.7536 28.0645 32.3191 33.1188 0 33.1188V28.7451C31.6794 28.7451 47.7839 23.7908 63.3587 19.0067C79.2434 14.1325 95.6779 9.07812 127.997 9.07812Z" fill="url(#paint1_linear_1047_446)"/>
<path d="M127.997 18.1562C160.316 18.1562 176.73 23.2006 192.605 28.0848C208.19 32.8789 224.314 37.8332 256.004 37.8332V41.9468C223.695 41.9468 207.28 36.9024 191.405 32.0182C175.821 27.2241 159.696 22.2698 128.007 22.2698C96.3174 22.2698 80.1928 27.2241 64.6081 32.0182C48.7334 36.9024 32.3189 41.9468 0.00976562 41.9468V37.8332C31.6991 37.8332 47.8237 32.8789 63.4085 28.0848C79.2831 23.2006 95.6976 18.1562 128.007 18.1562H127.997Z" fill="url(#paint2_linear_1047_446)"/>
<path d="M127.997 27.2441C160.286 27.2441 176.701 32.2885 192.566 37.1727C208.17 41.9668 224.295 46.9311 256.004 46.9311V50.7844C223.715 50.7844 207.311 45.7401 191.436 40.8559C175.831 36.0617 159.707 31.0975 127.997 31.0975C96.2879 31.0975 80.1533 36.0617 64.5585 40.8559C48.6939 45.7301 32.2794 50.7844 -0.00976562 50.7844V46.9311C31.6996 46.9311 47.8342 41.9668 63.4289 37.1727C79.2936 32.2985 95.7081 27.2441 127.997 27.2441Z" fill="url(#paint3_linear_1047_446)"/>
<path d="M127.997 36.3105C160.266 36.3105 176.671 41.3549 192.535 46.2391C208.14 51.0332 224.275 55.9975 256.004 55.9975V59.6106C223.735 59.6106 207.34 54.5663 191.476 49.6821C175.871 44.8879 159.736 39.9237 127.997 39.9237C96.2577 39.9237 80.1331 44.8879 64.5283 49.6821C48.6637 54.5563 32.2692 59.6106 0 59.6106V55.9975C31.7293 55.9975 47.8639 51.0332 63.4687 46.2391C79.3334 41.3649 95.7278 36.3105 127.997 36.3105Z" fill="url(#paint4_linear_1047_446)"/>
<path d="M127.997 45.3984C160.256 45.3984 176.641 50.4328 192.495 55.307C208.11 60.1111 224.255 65.0654 256.004 65.0654V68.4183C223.755 68.4183 207.36 63.3839 191.516 58.5097C175.901 53.7056 159.746 48.7513 127.997 48.7513C96.2477 48.7513 80.1031 53.7156 64.4883 58.5097C48.6437 63.3839 32.2492 68.4183 0 68.4183V65.0654C31.7493 65.0654 47.8939 60.1011 63.5087 55.307C79.3533 50.4328 95.7478 45.3984 127.997 45.3984Z" fill="url(#paint5_linear_1047_446)"/>
<path d="M127.997 54.4766C160.226 54.4766 176.621 59.5109 192.455 64.3851C208.08 69.1892 224.235 74.1535 256.004 74.1535V77.2462C223.775 77.2462 207.39 72.2119 191.556 67.3376C175.931 62.5335 159.776 57.5692 127.997 57.5692C96.2177 57.5692 80.0731 62.5435 64.4484 67.3376C48.6137 72.2119 32.2292 77.2462 0 77.2462V74.1535C31.7693 74.1535 47.9239 69.1792 63.5487 64.3851C79.3833 59.5109 95.7678 54.4766 127.997 54.4766Z" fill="url(#paint6_linear_1047_446)"/>
<path d="M127.997 63.5547C160.216 63.5547 176.591 68.589 192.415 73.4532C208.05 78.2574 224.215 83.2317 256.004 83.2317V86.0641C223.795 86.0641 207.42 81.0297 191.596 76.1656C175.961 71.3614 159.786 66.3871 127.997 66.3871C96.2077 66.3871 80.0531 71.3614 64.4084 76.1656C48.5737 81.0398 32.2092 86.0641 0 86.0641V83.2317C31.7893 83.2317 47.9439 78.2574 63.5886 73.4532C79.4233 68.579 95.7878 63.5547 127.997 63.5547Z" fill="url(#paint7_linear_1047_446)"/>
<path d="M127.997 72.6328C160.186 72.6328 176.55 77.6671 192.385 82.5213C208.02 87.3255 224.194 92.2998 256.004 92.2998V94.882C223.815 94.882 207.45 89.8477 191.635 84.9935C175.991 80.1893 159.816 75.215 128.007 75.215C96.1975 75.215 80.0329 80.1893 64.3781 84.9935C48.5535 89.8577 32.199 94.882 0.00976562 94.882V92.2998C31.8191 92.2998 47.9836 87.3255 63.6384 82.5213C79.4631 77.6571 95.8176 72.6328 128.007 72.6328H127.997Z" fill="url(#paint8_linear_1047_446)"/>
<path d="M127.997 81.7109C160.176 81.7109 176.53 86.7453 192.345 91.5995C207.99 96.4036 224.174 101.388 256.004 101.388V103.71C223.835 103.71 207.48 98.6756 191.665 93.8214C176.021 89.0172 159.826 84.0329 128.007 84.0329C96.1875 84.0329 80.0029 89.0072 64.3481 93.8214C48.5335 98.6856 32.179 103.71 0.00976562 103.71V101.388C31.8391 101.388 48.0136 96.4136 63.6684 91.5995C79.4831 86.7353 95.8376 81.7109 128.007 81.7109H127.997Z" fill="url(#paint9_linear_1047_446)"/>
<path d="M127.997 90.7891C160.156 90.7891 176.501 95.8134 192.306 100.678C207.96 105.492 224.155 110.476 255.994 110.476V112.538C223.835 112.538 207.501 107.513 191.686 102.649C176.031 97.8351 159.837 92.8508 127.987 92.8508C96.1379 92.8508 79.9434 97.8251 64.2986 102.649C48.4939 107.513 32.1494 112.538 -0.00976562 112.538V110.476C31.8295 110.476 48.0341 105.502 63.6788 100.678C79.4835 95.8134 95.828 90.7891 127.987 90.7891H127.997Z" fill="url(#paint10_linear_1047_446)"/>
<path d="M127.997 99.877C160.136 99.877 176.471 104.901 192.275 109.755C207.94 114.57 224.145 119.554 256.004 119.554V121.355C223.875 121.355 207.54 116.331 191.736 111.477C176.071 106.663 159.866 101.679 127.997 101.679C96.1277 101.679 79.9331 106.663 64.2684 111.477C48.4737 116.331 32.1392 121.355 0 121.355V119.554C31.8693 119.554 48.0639 114.57 63.7286 109.755C79.5233 104.901 95.8578 99.877 127.997 99.877Z" fill="url(#paint11_linear_1047_446)"/>
<path d="M127.997 108.943C160.116 108.943 176.441 113.968 192.235 118.812C207.91 123.636 224.125 128.61 256.004 128.61V130.172C223.885 130.172 207.57 125.147 191.776 120.303C176.101 115.479 159.886 110.505 127.997 110.505C96.1077 110.505 79.9032 115.479 64.2284 120.303C48.4337 125.147 32.1192 130.172 0 130.172V128.61C31.8793 128.61 48.0938 123.636 63.7686 118.812C79.5633 113.968 95.8778 108.943 127.997 108.943Z" fill="url(#paint12_linear_1047_446)"/>
<path d="M127.997 118.021C160.096 118.021 176.421 123.036 192.195 127.89C207.88 132.714 224.095 137.698 256.004 137.698V139C223.905 139 207.59 133.985 191.816 129.131C176.131 124.307 159.906 119.323 127.997 119.323C96.0877 119.323 79.8732 124.307 64.1884 129.131C48.4137 133.985 32.0892 139 0 139V137.698C31.8993 137.698 48.1238 132.714 63.8086 127.89C79.5833 123.036 95.9078 118.021 127.997 118.021Z" fill="url(#paint13_linear_1047_446)"/>
<path d="M127.997 127.1C160.076 127.1 176.391 132.114 192.155 136.958C207.85 141.782 224.085 146.777 256.004 146.777V147.817C223.925 147.817 207.62 142.803 191.856 137.959C176.151 133.135 159.926 128.141 127.997 128.141C96.0677 128.141 79.8432 133.135 64.1484 137.959C48.3837 142.803 32.0792 147.817 0 147.817V146.777C31.9193 146.777 48.1538 141.782 63.8486 136.958C79.6133 132.114 95.9178 127.1 127.997 127.1Z" fill="url(#paint14_linear_1047_446)"/>
<path d="M256.004 145.055C288.353 145.055 304.788 150.109 320.682 155.003C336.257 159.787 352.352 164.732 384.001 164.732C415.65 164.732 431.755 159.787 447.32 155.003C463.214 150.109 479.649 145.055 511.998 145.055V149.689C480.349 149.689 464.244 154.633 448.679 159.417C432.785 164.311 416.35 169.366 384.001 169.366C351.652 169.366 335.217 164.311 319.323 159.417C303.748 154.633 287.653 149.689 256.004 149.689V145.055Z" fill="url(#paint15_linear_1047_446)"/>
<path d="M256.004 136.227C288.323 136.227 304.758 141.281 320.642 146.165C336.217 150.949 352.322 155.904 384.001 155.904C415.68 155.904 431.785 150.949 447.36 146.165C463.244 141.281 479.679 136.227 511.998 136.227V140.6C480.319 140.6 464.214 145.555 448.639 150.339C432.755 155.223 416.32 160.277 384.001 160.277C351.682 160.277 335.247 155.223 319.363 150.339C303.788 145.555 287.683 140.6 256.004 140.6V136.227Z" fill="url(#paint16_linear_1047_446)"/>
<path d="M256.004 127.42C288.313 127.42 304.728 132.464 320.602 137.348C336.187 142.143 352.312 147.097 384.001 147.097C415.69 147.097 431.815 142.143 447.4 137.348C463.274 132.474 479.689 127.42 511.998 127.42V131.533C480.309 131.533 464.184 136.488 448.599 141.282C432.725 146.156 416.31 151.21 384.001 151.21C351.692 151.21 335.277 146.166 319.403 141.282C303.818 136.488 287.693 131.533 256.004 131.533V127.42Z" fill="url(#paint17_linear_1047_446)"/>
<path d="M256.004 118.592C288.293 118.592 304.698 123.636 320.572 128.52C336.167 133.314 352.292 138.279 384.011 138.279C415.73 138.279 431.855 133.314 447.45 128.52C463.314 123.646 479.729 118.592 512.018 118.592V122.445C480.309 122.445 464.174 127.409 448.579 132.204C432.715 137.078 416.3 142.132 384.011 142.132C351.722 142.132 335.317 137.088 319.443 132.204C303.848 127.409 287.723 122.445 256.004 122.445V118.592Z" fill="url(#paint18_linear_1047_446)"/>
<path d="M256.004 109.764C288.273 109.764 304.668 114.808 320.532 119.692C336.137 124.486 352.272 129.451 384.001 129.451C415.73 129.451 431.865 124.486 447.47 119.692C463.334 114.818 479.729 109.764 511.998 109.764V113.377C480.269 113.377 464.134 118.341 448.529 123.135C432.665 128.009 416.27 133.064 384.001 133.064C351.732 133.064 335.337 128.019 319.473 123.135C303.868 118.341 287.733 113.377 256.004 113.377V109.764Z" fill="url(#paint19_linear_1047_446)"/>
<path d="M256.004 100.947C288.253 100.947 304.648 105.982 320.492 110.856C336.107 115.66 352.252 120.614 384.001 120.614C415.75 120.614 431.895 115.65 447.51 110.856C463.354 105.982 479.749 100.947 511.998 100.947V104.3C480.249 104.3 464.104 109.264 448.489 114.059C432.645 118.933 416.25 123.967 384.001 123.967C351.752 123.967 335.357 118.933 319.513 114.059C303.898 109.254 287.753 104.3 256.004 104.3V100.947Z" fill="url(#paint20_linear_1047_446)"/>
<path d="M256.004 92.1289C288.233 92.1289 304.618 97.1632 320.452 102.037C336.077 106.842 352.232 111.806 384.001 111.806C415.77 111.806 431.925 106.832 447.55 102.037C463.384 97.1632 479.769 92.1289 511.998 92.1289V95.2216C480.229 95.2216 464.074 100.196 448.449 104.99C432.615 109.864 416.23 114.899 384.001 114.899C351.772 114.899 335.387 109.864 319.553 104.99C303.928 100.186 287.773 95.2216 256.004 95.2216V92.1289Z" fill="url(#paint21_linear_1047_446)"/>
<path d="M256.004 83.3027C288.213 83.3027 304.588 88.3371 320.412 93.2013C336.047 98.0054 352.212 102.98 384.001 102.98C415.79 102.98 431.945 98.0054 447.59 93.2013C463.424 88.3271 479.789 83.3027 511.998 83.3027V86.1352C480.209 86.1352 464.054 91.1095 448.409 95.9136C432.575 100.788 416.21 105.812 384.001 105.812C351.792 105.812 335.417 100.778 319.593 95.9136C303.958 91.1095 287.793 86.1352 256.004 86.1352V83.3027Z" fill="url(#paint22_linear_1047_446)"/>
<path d="M256.004 74.4746C288.193 74.4746 304.558 79.5089 320.382 84.3731C336.017 89.1773 352.192 94.1516 384.001 94.1516C415.81 94.1516 431.975 89.1773 447.62 84.3731C463.454 79.4989 479.809 74.4746 511.998 74.4746V77.0568C480.189 77.0568 464.024 82.0311 448.379 86.8353C432.545 91.7095 416.19 96.7338 384.001 96.7338C351.812 96.7338 335.447 91.6995 319.623 86.8353C303.988 82.0311 287.813 77.0568 256.004 77.0568V74.4746Z" fill="url(#paint23_linear_1047_446)"/>
<path d="M256.004 65.6562C288.173 65.6562 304.528 70.6906 320.342 75.5448C335.987 80.3589 352.172 85.3332 384.001 85.3332C415.83 85.3332 432.005 80.3589 447.66 75.5448C463.474 70.6906 479.829 65.6562 511.998 65.6562V67.9783C480.169 67.9783 463.994 72.9525 448.339 77.7667C432.525 82.6209 416.17 87.6552 384.001 87.6552C351.832 87.6552 335.477 82.6209 319.663 77.7667C304.018 72.9525 287.833 67.9783 256.004 67.9783V65.6562Z" fill="url(#paint24_linear_1047_446)"/>
<path d="M256.004 56.8398C288.163 56.8398 304.498 61.8642 320.312 66.7284C335.967 71.5425 352.162 76.5268 384.001 76.5268C415.84 76.5268 432.045 71.5525 447.69 66.7284C463.494 61.8642 479.839 56.8398 511.998 56.8398V58.9016C480.159 58.9016 463.954 63.8759 448.309 68.7001C432.505 73.5643 416.16 78.5886 384.001 78.5886C351.842 78.5886 335.507 73.5643 319.692 68.7001C304.038 63.8859 287.843 58.9016 256.004 58.9016V56.8398Z" fill="url(#paint25_linear_1047_446)"/>
<path d="M256.004 48.0117C288.133 48.0117 304.468 53.036 320.272 57.8902C335.937 62.7044 352.142 67.6887 384.001 67.6887C415.86 67.6887 432.065 62.7044 447.729 57.8902C463.524 53.036 479.859 48.0117 511.998 48.0117V49.8133C480.129 49.8133 463.934 54.7976 448.269 59.6117C432.475 64.4659 416.14 69.4902 384.001 69.4902C351.862 69.4902 335.537 64.4659 319.732 59.6117C304.068 54.7976 287.863 49.8133 256.004 49.8133V48.0117Z" fill="url(#paint26_linear_1047_446)"/>
<path d="M256.004 39.1836C288.123 39.1836 304.438 44.2079 320.232 49.0621C335.907 53.8763 352.122 58.8606 384.001 58.8606C415.88 58.8606 432.095 53.8763 447.769 49.0621C463.564 44.2079 479.879 39.1836 511.998 39.1836V40.7449C480.119 40.7449 463.904 45.7292 448.229 50.5434C432.435 55.3976 416.12 60.4219 384.001 60.4219C351.882 60.4219 335.567 55.3976 319.772 50.5434C304.098 45.7292 287.883 40.7449 256.004 40.7449V39.1836Z" fill="url(#paint27_linear_1047_446)"/>
<path d="M256.004 30.3652C288.103 30.3652 304.418 35.3796 320.192 40.2237C335.877 45.0479 352.092 50.0322 384.001 50.0322C415.91 50.0322 432.125 45.0479 447.809 40.2237C463.584 35.3796 479.909 30.3652 511.998 30.3652V31.6664C480.099 31.6664 463.874 36.6507 448.189 41.4748C432.415 46.319 416.09 51.3333 384.001 51.3333C351.912 51.3333 335.587 46.319 319.812 41.4748C304.128 36.6507 287.913 31.6664 256.004 31.6664V30.3652Z" fill="url(#paint28_linear_1047_446)"/>
<path d="M256.004 21.5488C288.083 21.5488 304.388 26.5631 320.152 31.4073C335.847 36.2315 352.082 41.2258 384.001 41.2258C415.92 41.2258 432.155 36.2315 447.849 31.4073C463.614 26.5631 479.919 21.5488 511.998 21.5488V22.5897C480.079 22.5897 463.844 27.584 448.149 32.4082C432.385 37.2524 416.08 42.2667 384.001 42.2667C351.922 42.2667 335.617 37.2524 319.852 32.4082C304.158 27.584 287.923 22.5897 256.004 22.5897V21.5488Z" fill="url(#paint29_linear_1047_446)"/>
<path d="M639.995 0C672.354 0 688.779 5.05436 704.683 9.94857C720.258 14.7327 736.353 19.677 768.002 19.677V24.311C735.653 24.311 719.218 19.2566 703.324 14.3624C687.749 9.57826 671.654 4.63399 639.995 4.63399C608.336 4.63399 592.241 9.57826 576.676 14.3624C560.782 19.2566 544.347 24.311 511.998 24.311V19.677C543.647 19.677 559.752 14.7327 575.317 9.94857C591.211 5.05436 607.646 0 639.995 0Z" fill="url(#paint30_linear_1047_446)"/>
<path d="M639.995 9.07812C672.324 9.07812 688.749 14.1325 704.643 19.0067C720.218 23.8008 736.333 28.7451 768.002 28.7451V33.1188C735.683 33.1188 719.248 28.0745 703.364 23.1903C687.789 18.4062 671.674 13.4519 639.995 13.4519C608.316 13.4519 592.211 18.4062 576.636 23.1903C560.752 28.0645 544.317 33.1188 511.998 33.1188V28.7451C543.677 28.7451 559.782 23.7908 575.357 19.0067C591.241 14.1325 607.676 9.07812 639.995 9.07812Z" fill="url(#paint31_linear_1047_446)"/>
<path d="M639.995 27.2441C672.284 27.2441 688.699 32.2885 704.564 37.1727C720.168 41.9668 736.293 46.9311 768.002 46.9311V50.7844C735.713 50.7844 719.309 45.7401 703.434 40.8559C687.829 36.0617 671.705 31.0975 639.995 31.0975C608.286 31.0975 592.151 36.0617 576.557 40.8559C560.692 45.7301 544.277 50.7844 511.988 50.7844V46.9311C543.698 46.9311 559.832 41.9668 575.427 37.1727C591.292 32.2985 607.706 27.2441 639.995 27.2441Z" fill="url(#paint32_linear_1047_446)"/>
<path d="M639.995 36.3105C672.264 36.3105 688.669 41.3549 704.533 46.2391C720.138 51.0332 736.273 55.9975 768.002 55.9975V59.6106C735.733 59.6106 719.338 54.5663 703.474 49.6821C687.869 44.8879 671.734 39.9237 639.995 39.9237C608.256 39.9237 592.131 44.8879 576.526 49.6821C560.662 54.5563 544.267 59.6106 511.998 59.6106V55.9975C543.727 55.9975 559.862 51.0332 575.467 46.2391C591.331 41.3649 607.726 36.3105 639.995 36.3105Z" fill="url(#paint33_linear_1047_446)"/>
<path d="M639.995 45.3984C672.254 45.3984 688.639 50.4328 704.493 55.307C720.108 60.1111 736.253 65.0654 768.002 65.0654V68.4183C735.753 68.4183 719.358 63.3839 703.514 58.5097C687.899 53.7056 671.744 48.7513 639.995 48.7513C608.246 48.7513 592.101 53.7156 576.486 58.5097C560.642 63.3839 544.247 68.4183 511.998 68.4183V65.0654C543.747 65.0654 559.892 60.1011 575.507 55.307C591.351 50.4328 607.746 45.3984 639.995 45.3984Z" fill="url(#paint34_linear_1047_446)"/>
<path d="M639.995 54.4766C672.224 54.4766 688.619 59.5109 704.453 64.3851C720.078 69.1892 736.233 74.1535 768.002 74.1535V77.2462C735.773 77.2462 719.388 72.2119 703.554 67.3376C687.929 62.5335 671.774 57.5692 639.995 57.5692C608.216 57.5692 592.071 62.5435 576.446 67.3376C560.612 72.2119 544.227 77.2462 511.998 77.2462V74.1535C543.767 74.1535 559.922 69.1792 575.547 64.3851C591.381 59.5109 607.766 54.4766 639.995 54.4766Z" fill="url(#paint35_linear_1047_446)"/>
<path d="M639.995 63.5547C672.214 63.5547 688.589 68.589 704.413 73.4532C720.048 78.2574 736.213 83.2317 768.002 83.2317V86.0641C735.793 86.0641 719.418 81.0297 703.594 76.1656C687.959 71.3614 671.784 66.3871 639.995 66.3871C608.206 66.3871 592.051 71.3614 576.406 76.1656C560.572 81.0398 544.207 86.0641 511.998 86.0641V83.2317C543.787 83.2317 559.942 78.2574 575.587 73.4532C591.421 68.579 607.786 63.5547 639.995 63.5547Z" fill="url(#paint36_linear_1047_446)"/>
<path d="M639.995 90.7891C672.155 90.7891 688.499 95.8134 704.304 100.678C719.958 105.492 736.153 110.476 767.992 110.476V112.538C735.833 112.538 719.499 107.513 703.684 102.649C688.029 97.8351 671.835 92.8508 639.985 92.8508C608.136 92.8508 591.941 97.8251 576.297 102.649C560.492 107.513 544.147 112.538 511.988 112.538V110.476C543.828 110.476 560.032 105.502 575.677 100.678C591.482 95.8134 607.826 90.7891 639.985 90.7891H639.995Z" fill="url(#paint37_linear_1047_446)"/>
<path d="M639.995 99.877C672.134 99.877 688.469 104.901 704.273 109.755C719.938 114.57 736.143 119.554 768.002 119.554V121.355C735.873 121.355 719.538 116.331 703.734 111.477C688.069 106.663 671.864 101.679 639.995 101.679C608.126 101.679 591.931 106.663 576.266 111.477C560.472 116.331 544.137 121.355 511.998 121.355V119.554C543.867 119.554 560.062 114.57 575.727 109.755C591.521 104.901 607.856 99.877 639.995 99.877Z" fill="url(#paint38_linear_1047_446)"/>
<path d="M639.995 108.943C672.114 108.943 688.439 113.968 704.233 118.812C719.908 123.636 736.123 128.61 768.002 128.61V130.172C735.883 130.172 719.568 125.147 703.774 120.303C688.099 115.479 671.884 110.505 639.995 110.505C608.106 110.505 591.901 115.479 576.226 120.303C560.432 125.147 544.117 130.172 511.998 130.172V128.61C543.877 128.61 560.092 123.636 575.767 118.812C591.561 113.968 607.876 108.943 639.995 108.943Z" fill="url(#paint39_linear_1047_446)"/>
<path d="M639.995 118.021C672.094 118.021 688.419 123.036 704.193 127.89C719.878 132.714 736.093 137.698 768.002 137.698V139C735.903 139 719.588 133.985 703.814 129.131C688.129 124.307 671.904 119.323 639.995 119.323C608.086 119.323 591.871 124.307 576.187 129.131C560.412 133.985 544.087 139 511.998 139V137.698C543.897 137.698 560.122 132.714 575.807 127.89C591.581 123.036 607.906 118.021 639.995 118.021Z" fill="url(#paint40_linear_1047_446)"/>
<path d="M639.995 127.1C672.074 127.1 688.389 132.114 704.154 136.958C719.848 141.782 736.083 146.777 768.002 146.777V147.817C735.923 147.817 719.618 142.803 703.854 137.959C688.149 133.135 671.924 128.141 639.995 128.141C608.066 128.141 591.841 133.135 576.147 137.959C560.382 142.803 544.077 147.817 511.998 147.817V146.777C543.917 146.777 560.152 141.782 575.847 136.958C591.611 132.114 607.916 127.1 639.995 127.1Z" fill="url(#paint41_linear_1047_446)"/>
</g>
</g>
<defs>
<linearGradient id="paint0_linear_1047_446" x1="127.997" y1="6.76583" x2="127.997" y2="136.538" gradientUnits="userSpaceOnUse">
<stop stop-color="#3858A1" stop-opacity="0.1"/>
<stop offset="1" stop-color="#3858A1"/>
</linearGradient>
<linearGradient id="paint1_linear_1047_446" x1="-1.05688e-06" y1="0.000299394" x2="1.00206" y2="136.538" gradientUnits="userSpaceOnUse">
<stop stop-color="#3858A1" stop-opacity="0.1"/>
<stop offset="1" stop-color="#3858A1"/>
</linearGradient>
<linearGradient id="paint2_linear_1047_446" x1="127.997" y1="6.76643" x2="127.997" y2="136.538" gradientUnits="userSpaceOnUse">
<stop stop-color="#3858A1" stop-opacity="0.1"/>
<stop offset="1" stop-color="#3858A1"/>
</linearGradient>
<linearGradient id="paint3_linear_1047_446" x1="127.997" y1="0.000655255" x2="127.997" y2="136.538" gradientUnits="userSpaceOnUse">
<stop stop-color="#3858A1" stop-opacity="0.1"/>
<stop offset="1" stop-color="#3858A1"/>
</linearGradient>
<linearGradient id="paint4_linear_1047_446" x1="127.997" y1="6.76507" x2="127.997" y2="136.537" gradientUnits="userSpaceOnUse">
<stop stop-color="#3858A1" stop-opacity="0.1"/>
<stop offset="1" stop-color="#3858A1"/>
</linearGradient>
<linearGradient id="paint5_linear_1047_446" x1="127.997" y1="-0.000698718" x2="127.997" y2="136.537" gradientUnits="userSpaceOnUse">
<stop stop-color="#3858A1" stop-opacity="0.1"/>
<stop offset="1" stop-color="#3858A1"/>
</linearGradient>
<linearGradient id="paint6_linear_1047_446" x1="127.997" y1="6.76543" x2="127.997" y2="136.537" gradientUnits="userSpaceOnUse">
<stop stop-color="#3858A1" stop-opacity="0.1"/>
<stop offset="1" stop-color="#3858A1"/>
</linearGradient>
<linearGradient id="paint7_linear_1047_446" x1="127.997" y1="6.76574" x2="127.997" y2="136.538" gradientUnits="userSpaceOnUse">
<stop stop-color="#3858A1" stop-opacity="0.1"/>
<stop offset="1" stop-color="#3858A1"/>
</linearGradient>
<linearGradient id="paint8_linear_1047_446" x1="127.997" y1="6.76602" x2="127.997" y2="136.538" gradientUnits="userSpaceOnUse">
<stop stop-color="#3858A1" stop-opacity="0.1"/>
<stop offset="1" stop-color="#3858A1"/>
</linearGradient>
<linearGradient id="paint9_linear_1047_446" x1="127.997" y1="0.000488536" x2="127.997" y2="136.538" gradientUnits="userSpaceOnUse">
<stop stop-color="#3858A1" stop-opacity="0.1"/>
<stop offset="1" stop-color="#3858A1"/>
</linearGradient>
<linearGradient id="paint10_linear_1047_446" x1="127.997" y1="0.000790277" x2="127.997" y2="136.539" gradientUnits="userSpaceOnUse">
<stop stop-color="#3858A1" stop-opacity="0.1"/>
<stop offset="1" stop-color="#3858A1"/>
</linearGradient>
<linearGradient id="paint11_linear_1047_446" x1="127.997" y1="0.00086394" x2="127.997" y2="136.539" gradientUnits="userSpaceOnUse">
<stop stop-color="#3858A1" stop-opacity="0.1"/>
<stop offset="1" stop-color="#3858A1"/>
</linearGradient>
<linearGradient id="paint12_linear_1047_446" x1="127.997" y1="6.76528" x2="127.997" y2="136.537" gradientUnits="userSpaceOnUse">
<stop stop-color="#3858A1" stop-opacity="0.1"/>
<stop offset="1" stop-color="#3858A1"/>
</linearGradient>
<linearGradient id="paint13_linear_1047_446" x1="127.997" y1="6.76554" x2="127.997" y2="136.537" gradientUnits="userSpaceOnUse">
<stop stop-color="#3858A1" stop-opacity="0.1"/>
<stop offset="1" stop-color="#3858A1"/>
</linearGradient>
<linearGradient id="paint14_linear_1047_446" x1="127.997" y1="6.76585" x2="127.997" y2="136.538" gradientUnits="userSpaceOnUse">
<stop stop-color="#3858A1" stop-opacity="0.1"/>
<stop offset="1" stop-color="#3858A1"/>
</linearGradient>
<linearGradient id="paint15_linear_1047_446" x1="384.001" y1="6.76544" x2="384.001" y2="136.537" gradientUnits="userSpaceOnUse">
<stop stop-color="#3858A1" stop-opacity="0.1"/>
<stop offset="1" stop-color="#3858A1"/>
</linearGradient>
<linearGradient id="paint16_linear_1047_446" x1="384.001" y1="6.76497" x2="384.001" y2="136.537" gradientUnits="userSpaceOnUse">
<stop stop-color="#3858A1" stop-opacity="0.1"/>
<stop offset="1" stop-color="#3858A1"/>
</linearGradient>
<linearGradient id="paint17_linear_1047_446" x1="384.001" y1="6.7659" x2="384.001" y2="136.538" gradientUnits="userSpaceOnUse">
<stop stop-color="#3858A1" stop-opacity="0.1"/>
<stop offset="1" stop-color="#3858A1"/>
</linearGradient>
<linearGradient id="paint18_linear_1047_446" x1="384.001" y1="6.76541" x2="384.001" y2="136.537" gradientUnits="userSpaceOnUse">
<stop stop-color="#3858A1" stop-opacity="0.1"/>
<stop offset="1" stop-color="#3858A1"/>
</linearGradient>
<linearGradient id="paint19_linear_1047_446" x1="384.001" y1="6.76488" x2="384.001" y2="136.537" gradientUnits="userSpaceOnUse">
<stop stop-color="#3858A1" stop-opacity="0.1"/>
<stop offset="1" stop-color="#3858A1"/>
</linearGradient>
<linearGradient id="paint20_linear_1047_446" x1="384.001" y1="6.76608" x2="384.001" y2="136.538" gradientUnits="userSpaceOnUse">
<stop stop-color="#3858A1" stop-opacity="0.1"/>
<stop offset="1" stop-color="#3858A1"/>
</linearGradient>
<linearGradient id="paint21_linear_1047_446" x1="384.001" y1="6.76532" x2="384.001" y2="136.537" gradientUnits="userSpaceOnUse">
<stop stop-color="#3858A1" stop-opacity="0.1"/>
<stop offset="1" stop-color="#3858A1"/>
</linearGradient>
<linearGradient id="paint22_linear_1047_446" x1="384.001" y1="6.76677" x2="384.001" y2="136.539" gradientUnits="userSpaceOnUse">
<stop stop-color="#3858A1" stop-opacity="0.1"/>
<stop offset="1" stop-color="#3858A1"/>
</linearGradient>
<linearGradient id="paint23_linear_1047_446" x1="384.001" y1="6.76625" x2="384.001" y2="136.538" gradientUnits="userSpaceOnUse">
<stop stop-color="#3858A1" stop-opacity="0.1"/>
<stop offset="1" stop-color="#3858A1"/>
</linearGradient>
<linearGradient id="paint24_linear_1047_446" x1="384.001" y1="6.76547" x2="384.001" y2="136.537" gradientUnits="userSpaceOnUse">
<stop stop-color="#3858A1" stop-opacity="0.1"/>
<stop offset="1" stop-color="#3858A1"/>
</linearGradient>
<linearGradient id="paint25_linear_1047_446" x1="384.001" y1="6.76669" x2="384.001" y2="136.539" gradientUnits="userSpaceOnUse">
<stop stop-color="#3858A1" stop-opacity="0.1"/>
<stop offset="1" stop-color="#3858A1"/>
</linearGradient>
<linearGradient id="paint26_linear_1047_446" x1="384.001" y1="6.76617" x2="384.001" y2="136.538" gradientUnits="userSpaceOnUse">
<stop stop-color="#3858A1" stop-opacity="0.1"/>
<stop offset="1" stop-color="#3858A1"/>
</linearGradient>
<linearGradient id="paint27_linear_1047_446" x1="384.001" y1="6.76565" x2="384.001" y2="136.538" gradientUnits="userSpaceOnUse">
<stop stop-color="#3858A1" stop-opacity="0.1"/>
<stop offset="1" stop-color="#3858A1"/>
</linearGradient>
<linearGradient id="paint28_linear_1047_446" x1="384.001" y1="6.76489" x2="384.001" y2="136.537" gradientUnits="userSpaceOnUse">
<stop stop-color="#3858A1" stop-opacity="0.1"/>
<stop offset="1" stop-color="#3858A1"/>
</linearGradient>
<linearGradient id="paint29_linear_1047_446" x1="384.001" y1="6.76609" x2="384.001" y2="136.538" gradientUnits="userSpaceOnUse">
<stop stop-color="#3858A1" stop-opacity="0.1"/>
<stop offset="1" stop-color="#3858A1"/>
</linearGradient>
<linearGradient id="paint30_linear_1047_446" x1="640.005" y1="6.76583" x2="640.005" y2="136.538" gradientUnits="userSpaceOnUse">
<stop stop-color="#3858A1" stop-opacity="0.1"/>
<stop offset="1" stop-color="#3858A1"/>
</linearGradient>
<linearGradient id="paint31_linear_1047_446" x1="640.005" y1="6.76613" x2="640.005" y2="136.538" gradientUnits="userSpaceOnUse">
<stop stop-color="#3858A1" stop-opacity="0.1"/>
<stop offset="1" stop-color="#3858A1"/>
</linearGradient>
<linearGradient id="paint32_linear_1047_446" x1="640.005" y1="6.76649" x2="640.005" y2="136.538" gradientUnits="userSpaceOnUse">
<stop stop-color="#3858A1" stop-opacity="0.1"/>
<stop offset="1" stop-color="#3858A1"/>
</linearGradient>
<linearGradient id="paint33_linear_1047_446" x1="640.005" y1="6.76507" x2="640.005" y2="136.537" gradientUnits="userSpaceOnUse">
<stop stop-color="#3858A1" stop-opacity="0.1"/>
<stop offset="1" stop-color="#3858A1"/>
</linearGradient>
<linearGradient id="paint34_linear_1047_446" x1="640.005" y1="6.76513" x2="640.005" y2="136.537" gradientUnits="userSpaceOnUse">
<stop stop-color="#3858A1" stop-opacity="0.1"/>
<stop offset="1" stop-color="#3858A1"/>
</linearGradient>
<linearGradient id="paint35_linear_1047_446" x1="640.005" y1="6.76543" x2="640.005" y2="136.537" gradientUnits="userSpaceOnUse">
<stop stop-color="#3858A1" stop-opacity="0.1"/>
<stop offset="1" stop-color="#3858A1"/>
</linearGradient>
<linearGradient id="paint36_linear_1047_446" x1="640.005" y1="6.76574" x2="640.005" y2="136.538" gradientUnits="userSpaceOnUse">
<stop stop-color="#3858A1" stop-opacity="0.1"/>
<stop offset="1" stop-color="#3858A1"/>
</linearGradient>
<linearGradient id="paint37_linear_1047_446" x1="640.005" y1="6.76662" x2="640.005" y2="136.539" gradientUnits="userSpaceOnUse">
<stop stop-color="#3858A1" stop-opacity="0.1"/>
<stop offset="1" stop-color="#3858A1"/>
</linearGradient>
<linearGradient id="paint38_linear_1047_446" x1="640.005" y1="6.76669" x2="640.005" y2="136.539" gradientUnits="userSpaceOnUse">
<stop stop-color="#3858A1" stop-opacity="0.1"/>
<stop offset="1" stop-color="#3858A1"/>
</linearGradient>
<linearGradient id="paint39_linear_1047_446" x1="640.005" y1="6.76528" x2="640.005" y2="136.537" gradientUnits="userSpaceOnUse">
<stop stop-color="#3858A1" stop-opacity="0.1"/>
<stop offset="1" stop-color="#3858A1"/>
</linearGradient>
<linearGradient id="paint40_linear_1047_446" x1="640.005" y1="6.76554" x2="640.005" y2="136.537" gradientUnits="userSpaceOnUse">
<stop stop-color="#3858A1" stop-opacity="0.1"/>
<stop offset="1" stop-color="#3858A1"/>
</linearGradient>
<linearGradient id="paint41_linear_1047_446" x1="640.005" y1="6.76585" x2="640.005" y2="136.538" gradientUnits="userSpaceOnUse">
<stop stop-color="#3858A1" stop-opacity="0.1"/>
<stop offset="1" stop-color="#3858A1"/>
</linearGradient>
<clipPath id="clip0_1047_446">
<rect width="1280" height="174" fill="white"/>
</clipPath>
</defs>
</svg>
