<svg width="391" height="92" viewBox="0 0 391 92" fill="none" xmlns="http://www.w3.org/2000/svg">
<mask id="mask0_1047_676" style="mask-type:luminance" maskUnits="userSpaceOnUse" x="0" y="0" width="391" height="92">
<path d="M390.973 0H0V92H390.973V0Z" fill="white"/>
</mask>
<g mask="url(#mask0_1047_676)">
<path d="M-130.237 81.0937C-114.354 81.0555 -106.226 78.5598 -98.3495 76.1403C-90.2516 73.6522 -81.8713 71.0801 -65.3855 71.0801C-48.8997 71.0801 -40.527 73.6522 -32.4215 76.1403C-24.4915 78.5827 -16.2867 81.0937 -0.152012 81.0937V82.0477C16.1964 82.0477 24.5004 84.5969 32.5372 87.0622C40.5359 89.5198 48.8093 92.0537 65.0738 92.0537C81.3383 92.0537 89.6117 89.5198 97.6028 87.0622C105.64 84.5893 113.951 82.0477 130.3 82.0477V81.0937C146.427 81.0937 154.631 78.575 162.569 76.1403C170.667 73.6522 179.047 71.0801 195.533 71.0801C212.019 71.0801 220.392 73.6522 228.497 76.1403C236.427 78.5827 244.632 81.0937 260.767 81.0937V82.0477C277.115 82.0477 285.427 84.5969 293.456 87.0622C301.454 89.5198 309.728 92.0537 325.992 92.0537C342.257 92.0537 350.53 89.5198 358.529 87.0622C366.566 84.5893 374.87 82.0477 391.218 82.0477V81.0937C407.345 81.0937 415.55 78.575 423.488 76.1403C431.586 73.6522 439.966 71.0801 456.452 71.0801C472.937 71.0801 481.31 73.6522 489.416 76.1403C497.285 78.5598 505.421 81.0555 521.303 81.0937L521.525 73.8353H521.876V199.471H-130.207" fill="#3858A1"/>
<path d="M-65.1259 5.86914C-48.6401 5.86914 -40.2598 8.44123 -32.1619 10.9294C-24.2243 13.3641 -16.0272 15.8827 0.107512 15.8827V18.2411C-16.3783 18.2411 -24.7509 15.669 -32.8565 13.1809C-40.7941 10.7462 -48.9912 8.22753 -65.1259 8.22753C-81.2607 8.22753 -89.4578 10.7462 -97.3954 13.1809C-105.501 15.669 -113.874 18.2411 -130.359 18.2411V15.8827C-114.232 15.8827 -106.028 13.3641 -98.0899 10.9294C-89.9844 8.44123 -81.6117 5.86914 -65.1259 5.86914Z" fill="url(#paint0_linear_1047_676)"/>
<path d="M-65.1257 10.4941C-48.6476 10.4941 -40.2825 13.0662 -32.177 15.5467C-24.2394 17.9891 -16.027 20.5077 0.107697 20.5077V22.7364C-16.3629 22.7364 -24.7355 20.1643 -32.8334 17.6838C-40.771 15.2491 -48.9834 12.7228 -65.1257 12.7228C-81.2681 12.7228 -89.4729 15.2414 -97.4105 17.6838C-105.508 20.1643 -113.881 22.7364 -130.352 22.7364V20.5077C-114.209 20.5077 -106.004 17.9891 -98.0668 15.5467C-89.969 13.0662 -81.5963 10.4941 -65.1257 10.4941Z" fill="url(#paint1_linear_1047_676)"/>
<path d="M-65.1256 15.1113C-48.655 15.1113 -40.29 17.6834 -32.1997 20.1639C-24.2545 22.6063 -16.0421 25.1249 0.107891 25.1249V27.2162C-16.355 27.2162 -24.72 24.6441 -32.8103 22.1636C-40.7556 19.7213 -48.9679 17.2026 -65.1179 17.2026C-81.2679 17.2026 -89.4803 19.7213 -97.4255 22.1636C-105.516 24.6517 -113.881 27.2162 -130.344 27.2162V25.1249C-114.194 25.1249 -105.981 22.6063 -98.0361 20.1639C-89.9459 17.6758 -81.5808 15.1113 -65.1179 15.1113H-65.1256Z" fill="url(#paint2_linear_1047_676)"/>
<path d="M-65.1259 19.7363C-48.6706 19.7363 -40.3056 22.3084 -32.223 24.7889C-24.2701 27.2313 -16.0577 29.7576 0.0998843 29.7576V31.7191C-16.3554 31.7191 -24.7128 29.147 -32.803 26.6665C-40.7559 24.2241 -48.9683 21.6978 -65.1336 21.6978C-81.2988 21.6978 -89.5112 24.2241 -97.4564 26.6665C-105.539 29.147 -113.904 31.7191 -130.359 31.7191V29.7576C-114.202 29.7576 -105.982 27.2313 -98.0365 24.7889C-89.9539 22.3084 -81.5888 19.7363 -65.1336 19.7363H-65.1259Z" fill="url(#paint3_linear_1047_676)"/>
<path d="M-65.1257 24.3555C-48.6781 24.3555 -40.3207 26.9276 -32.2381 29.4081C-24.2852 31.8504 -16.0576 34.3767 0.107697 34.3767V36.2161C-16.34 36.2161 -24.6897 33.644 -32.7723 31.1635C-40.7252 28.7212 -48.9529 26.1949 -65.1257 26.1949C-81.2986 26.1949 -89.5186 28.7212 -97.4715 31.1635C-105.554 33.644 -113.912 36.2161 -130.352 36.2161V34.3767C-114.186 34.3767 -105.959 31.8504 -98.0058 29.4081C-89.9232 26.9276 -81.5658 24.3555 -65.1257 24.3555Z" fill="url(#paint4_linear_1047_676)"/>
<path d="M-65.1259 28.9805C-48.6859 28.9805 -40.3361 31.5449 -32.2612 34.0254C-24.3006 36.4678 -16.073 38.9941 0.107512 38.9941V40.6961C-16.3249 40.6961 -24.6823 38.1316 -32.7572 35.6511C-40.7178 33.2088 -48.9454 30.6825 -65.1259 30.6825C-81.3064 30.6825 -89.5341 33.2088 -97.4946 35.6511C-105.57 38.1316 -113.927 40.6961 -130.359 40.6961V38.9941C-114.179 38.9941 -105.951 36.4678 -97.9907 34.0254C-89.9157 31.5449 -81.5583 28.9805 -65.1259 28.9805Z" fill="url(#paint5_linear_1047_676)"/>
<path d="M-65.1257 33.5977C-48.701 33.5977 -40.3512 36.1621 -32.2762 38.6426C-24.3157 41.085 -16.0805 43.6189 0.107697 43.6189V45.1912C-16.3171 45.1912 -24.6668 42.6267 -32.7342 40.1462C-40.6947 37.7038 -48.93 35.1699 -65.1257 35.1699C-81.3215 35.1699 -89.5492 37.6962 -97.5097 40.1462C-105.577 42.6267 -113.927 45.1912 -130.352 45.1912V43.6189C-114.163 43.6189 -105.928 41.0926 -97.9676 38.6426C-89.9003 36.1621 -81.5505 33.5977 -65.1257 33.5977Z" fill="url(#paint6_linear_1047_676)"/>
<path d="M-65.1259 38.2227C-48.7088 38.2227 -40.3667 40.7795 -32.2993 43.26C-24.3312 45.71 -16.0959 48.2363 0.107512 48.2363V49.6788C-16.3096 49.6788 -24.6517 47.1219 -32.7191 44.6414C-40.6872 42.1991 -48.9301 39.6652 -65.1259 39.6652C-81.3217 39.6652 -89.557 42.1915 -97.5328 44.6414C-105.6 47.1219 -113.942 49.6788 -130.359 49.6788V48.2363C-114.156 48.2363 -105.928 45.71 -97.9525 43.26C-89.8852 40.7795 -81.543 38.2227 -65.1259 38.2227Z" fill="url(#paint7_linear_1047_676)"/>
<path d="M-65.1257 42.8398C-48.7163 42.8398 -40.3818 45.3967 -32.3144 47.8772C-24.3463 50.3272 -16.1034 52.8534 0.107697 52.8534V54.1662C-16.3018 54.1662 -24.6363 51.6094 -32.696 49.1289C-40.6718 46.6789 -48.9147 44.1526 -65.1257 44.1526C-81.3368 44.1526 -89.5721 46.6789 -97.5478 49.1289C-105.608 51.6018 -113.95 54.1662 -130.352 54.1662V52.8534C-114.141 52.8534 -105.905 50.3272 -97.9295 47.8772C-89.8697 45.4043 -81.5276 42.8398 -65.1257 42.8398Z" fill="url(#paint8_linear_1047_676)"/>
<path d="M-65.1257 47.457C-48.7239 47.457 -40.3894 50.0139 -32.3297 52.4944C-24.3539 54.9443 -16.111 57.4783 0.107697 57.4783V58.6613C-16.2865 58.6613 -24.621 56.1045 -32.6807 53.6239C-40.6565 51.174 -48.9071 48.64 -65.1257 48.64C-81.3444 48.64 -89.595 51.174 -97.5631 53.6239C-105.623 56.0968 -113.957 58.6613 -130.352 58.6613V57.4783C-114.133 57.4783 -105.882 54.9443 -97.9142 52.4944C-89.8545 50.0215 -81.52 47.457 -65.1257 47.457Z" fill="url(#paint9_linear_1047_676)"/>
<path d="M-65.1259 52.082C-48.7393 52.082 -40.4048 54.6389 -32.3527 57.1117C-24.377 59.5617 -16.1188 62.0956 0.107512 62.0956V63.1489C-16.2791 63.1489 -24.6059 60.5921 -32.6657 58.1192C-40.6414 55.6692 -48.8996 53.1353 -65.1259 53.1353C-81.3522 53.1353 -89.6104 55.6692 -97.5862 58.1192C-105.638 60.5921 -113.973 63.1489 -130.359 63.1489V62.0956C-114.133 62.0956 -105.875 59.5617 -97.8991 57.1117C-89.847 54.6389 -81.5125 52.082 -65.1259 52.082Z" fill="url(#paint10_linear_1047_676)"/>
<path d="M-65.1257 56.707C-48.7468 56.707 -40.4199 59.2639 -32.3678 61.7367C-24.3844 64.1867 -16.1263 66.7283 0.107697 66.7283V67.6441C-16.2713 67.6441 -24.5905 65.0873 -32.6426 62.6144C-40.626 60.1645 -48.8842 57.6229 -65.1257 57.6229C-81.3673 57.6229 -89.6179 60.1568 -97.6013 62.6144C-105.653 65.0873 -113.98 67.6441 -130.352 67.6441V66.7283C-114.11 66.7283 -105.859 64.1943 -97.876 61.7367C-89.8239 59.2639 -81.4971 56.707 -65.1257 56.707Z" fill="url(#paint11_linear_1047_676)"/>
<path d="M-65.1256 61.3262C-48.7619 61.3262 -40.435 63.883 -32.3905 66.3482C-24.3995 68.8058 -16.1413 71.3398 0.107891 71.3398V72.1335C-16.2558 72.1335 -24.575 69.5767 -32.6195 67.1115C-40.6105 64.6539 -48.8687 62.1199 -65.1179 62.1199C-81.3671 62.1199 -89.6253 64.6539 -97.6164 67.1115C-105.661 69.5767 -113.98 72.1335 -130.344 72.1335V71.3398C-114.095 71.3398 -105.836 68.8058 -97.8453 66.3482C-89.8009 63.883 -81.4816 61.3262 -65.1179 61.3262H-65.1256Z" fill="url(#paint12_linear_1047_676)"/>
<path d="M-65.1259 65.9434C-48.7699 65.9434 -40.4506 68.4926 -32.4138 70.9654C-24.4228 73.423 -16.157 75.957 0.0998843 75.957V76.621C-16.2562 76.621 -24.5754 74.0718 -32.6122 71.5989C-40.6033 69.1413 -48.8767 66.6074 -65.1336 66.6074C-81.3904 66.6074 -89.6562 69.1413 -97.6472 71.5989C-105.684 74.0718 -114.003 76.621 -130.359 76.621V75.957C-114.103 75.957 -105.837 73.423 -97.8457 70.9654C-89.8089 68.4926 -81.4896 65.9434 -65.1336 65.9434H-65.1259Z" fill="url(#paint13_linear_1047_676)"/>
<path d="M-65.1256 70.5684C-48.7771 70.5684 -40.4655 73.1176 -32.4287 75.5904C-24.43 78.048 -16.1566 80.5896 0.107891 80.5896V81.1162C-16.2405 81.1162 -24.5521 78.567 -32.5813 76.0942C-40.58 73.6366 -48.8535 71.095 -65.1179 71.095C-81.3824 71.095 -89.6558 73.6366 -97.6545 76.0942C-105.691 78.5594 -113.995 81.1162 -130.344 81.1162V80.5896C-114.079 80.5896 -105.806 78.048 -97.8072 75.5904C-89.7703 73.1252 -81.4664 70.5684 -65.1179 70.5684H-65.1256Z" fill="url(#paint14_linear_1047_676)"/>
<path d="M0.107422 79.7051C16.5932 79.7051 24.9659 82.2772 33.0714 84.7653C41.009 87.2 49.2061 89.7187 65.3409 89.7187C81.4756 89.7187 89.6727 87.2 97.6103 84.7653C105.716 82.2772 114.089 79.7051 130.574 79.7051V82.0635C114.447 82.0635 106.242 84.5821 98.3049 87.0168C90.1993 89.505 81.8267 92.0771 65.3409 92.0771C48.8551 92.0771 40.4824 89.505 32.3769 87.0168C24.4393 84.5821 16.2421 82.0635 0.107422 82.0635V79.7051Z" fill="url(#paint15_linear_1047_676)"/>
<path d="M0.107422 75.2168C16.578 75.2168 24.9506 77.7889 33.0485 80.277C40.9861 82.7117 49.1909 85.238 65.3333 85.238C81.4756 85.238 89.6804 82.7194 97.618 80.277C105.716 77.7889 114.089 75.2168 130.559 75.2168V77.4454C114.417 77.4454 106.212 79.9641 98.2743 82.4064C90.1764 84.8946 81.8038 87.4667 65.3333 87.4667C48.8627 87.4667 40.49 84.8946 32.3921 82.4064C24.4545 79.9717 16.2498 77.4454 0.107422 77.4454V75.2168Z" fill="url(#paint16_linear_1047_676)"/>
<path d="M0.107422 70.7285C16.5703 70.7285 24.9354 73.3006 33.0256 75.7811C40.9709 78.2235 49.1833 80.7421 65.3333 80.7421C81.4832 80.7421 89.6956 78.2235 97.6409 75.7811C105.731 73.3006 114.096 70.7285 130.559 70.7285V72.8198C114.409 72.8198 106.197 75.3384 98.2514 77.7808C90.1612 80.2613 81.7962 82.8334 65.3333 82.8334C48.8703 82.8334 40.5053 80.2613 32.415 77.7808C24.4698 75.3384 16.2574 72.8198 0.107422 72.8198V70.7285Z" fill="url(#paint17_linear_1047_676)"/>
<path d="M0.107422 66.2324C16.5627 66.2324 24.9201 68.8045 33.0104 71.285C40.9556 73.7274 49.1756 76.2537 65.3333 76.2537C81.4909 76.2537 89.7109 73.7274 97.6561 71.285C105.739 68.8045 114.104 66.2324 130.559 66.2324V68.1939C114.401 68.1939 106.181 70.7202 98.2362 73.1626C90.1536 75.6431 81.7885 78.2152 65.3333 78.2152C48.878 78.2152 40.5206 75.6431 32.4303 73.1626C24.4851 70.7202 16.265 68.1939 0.107422 68.1939V66.2324Z" fill="url(#paint18_linear_1047_676)"/>
<path d="M0.107422 61.7461C16.5551 61.7461 24.9048 64.3182 32.9875 66.7987C40.9403 69.241 49.168 71.7673 65.3333 71.7673C81.4985 71.7673 89.7261 69.241 97.679 66.7987C105.762 64.3182 114.119 61.7461 130.559 61.7461V63.5855C114.394 63.5855 106.166 66.1118 98.2133 68.5541C90.1307 71.0346 81.7733 73.6067 65.3333 73.6067C48.8932 73.6067 40.5358 71.0346 32.4532 68.5541C24.5003 66.1118 16.2727 63.5855 0.107422 63.5855V61.7461Z" fill="url(#paint19_linear_1047_676)"/>
<path d="M0.107422 57.2578C16.5398 57.2578 24.8972 59.8223 32.9722 62.3028C40.9327 64.7451 49.1604 67.2714 65.3409 67.2714C81.5214 67.2714 89.749 64.7451 97.7095 62.3028C105.785 59.8223 114.142 57.2578 130.574 57.2578V58.9598C114.394 58.9598 106.166 61.4861 98.2056 63.9285C90.1306 66.409 81.7733 68.9734 65.3409 68.9734C48.9085 68.9734 40.5511 66.409 32.4761 63.9285C24.5156 61.4861 16.2879 58.9598 0.107422 58.9598V57.2578Z" fill="url(#paint20_linear_1047_676)"/>
<path d="M0.107422 52.7617C16.5322 52.7617 24.8819 55.3262 32.9493 57.8067C40.9098 60.249 49.1451 62.783 65.3333 62.783C81.5214 62.783 89.7567 60.2567 97.7172 57.8067C105.785 55.3262 114.134 52.7617 130.559 52.7617V54.334C114.371 54.334 106.136 56.8603 98.1751 59.3103C90.1078 61.7908 81.758 64.3552 65.3333 64.3552C48.9085 64.3552 40.5587 61.7908 32.4914 59.3103C24.5309 56.8679 16.2956 54.334 0.107422 54.334V52.7617Z" fill="url(#paint21_linear_1047_676)"/>
<path d="M0.107422 48.2734C16.5245 48.2734 24.8667 50.8303 32.934 53.3108C40.9022 55.7607 49.1375 58.287 65.3409 58.287C81.5443 58.287 89.7719 55.7607 97.7477 53.3108C105.815 50.8303 114.157 48.2734 130.574 48.2734V49.7159C114.371 49.7159 106.143 52.2422 98.1675 54.6922C90.1001 57.1727 81.758 59.7296 65.3409 59.7296C48.9237 59.7296 40.5816 57.1727 32.5143 54.6922C24.5461 52.2422 16.3108 49.7159 0.107422 49.7159V48.2734Z" fill="url(#paint22_linear_1047_676)"/>
<path d="M0.107422 43.7793C16.5169 43.7793 24.8514 46.3361 32.9188 48.8166C40.8869 51.2666 49.1298 53.7929 65.3409 53.7929C81.5519 53.7929 89.7872 51.2666 97.763 48.8166C105.83 46.3361 114.165 43.7793 130.574 43.7793V45.0921C114.363 45.0921 106.128 47.6184 98.1522 50.0683C90.0849 52.5488 81.7504 55.1057 65.3409 55.1057C48.9314 55.1057 40.5969 52.5488 32.5295 50.0683C24.5614 47.6184 16.3185 45.0921 0.107422 45.0921V43.7793Z" fill="url(#paint23_linear_1047_676)"/>
<path d="M0.107422 39.291C16.5016 39.291 24.8361 41.8478 32.8959 44.3207C40.8717 46.7707 49.1146 49.3046 65.3333 49.3046C81.5519 49.3046 89.8025 46.7783 97.7706 44.3207C105.83 41.8478 114.165 39.291 130.559 39.291V40.474C114.34 40.474 106.09 43.0003 98.1217 45.4579C90.062 47.9308 81.7275 50.4876 65.3333 50.4876C48.939 50.4876 40.6045 47.9308 32.5448 45.4579C24.569 43.008 16.3261 40.474 0.107422 40.474V39.291Z" fill="url(#paint24_linear_1047_676)"/>
<path d="M0.107422 34.8027C16.494 34.8027 24.8209 37.3596 32.8806 39.8324C40.8564 42.2824 49.1146 44.8163 65.3409 44.8163C81.5672 44.8163 89.8254 42.2824 97.8011 39.8324C105.853 37.3596 114.188 34.8027 130.574 34.8027V35.856C114.348 35.856 106.09 38.3899 98.1141 40.8399C90.062 43.3128 81.7275 45.8696 65.3409 45.8696C48.9543 45.8696 40.6274 43.3128 32.5677 40.8399C24.5919 38.3899 16.3337 35.856 0.107422 35.856V34.8027Z" fill="url(#paint25_linear_1047_676)"/>
<path d="M0.107422 30.3086C16.4864 30.3086 24.8056 32.8654 32.8577 35.3383C40.8411 37.7883 49.0993 40.3298 65.3333 40.3298C81.5672 40.3298 89.8254 37.7959 97.8088 35.3383C105.861 32.8654 114.188 30.3086 130.559 30.3086V31.2245C114.317 31.2245 106.067 33.7584 98.0835 36.216C90.0314 38.6889 81.7046 41.2457 65.3333 41.2457C48.9619 41.2457 40.635 38.6889 32.583 36.216C24.5995 33.766 16.3414 31.2245 0.107422 31.2245V30.3086Z" fill="url(#paint26_linear_1047_676)"/>
<path d="M0.107422 25.8203C16.4711 25.8203 24.7904 28.3771 32.8348 30.85C40.8259 33.3 49.084 35.8415 65.3333 35.8415C81.5825 35.8415 89.8406 33.3076 97.8317 30.85C105.876 28.3771 114.195 25.8203 130.559 25.8203V26.6141C114.31 26.6141 106.052 29.148 98.0606 31.6056C90.0162 34.0785 81.697 36.6353 65.3333 36.6353C48.9696 36.6353 40.6503 34.0785 32.6058 31.6056C24.6148 29.1556 16.3566 26.6141 0.107422 26.6141V25.8203Z" fill="url(#paint27_linear_1047_676)"/>
<path d="M0.107422 21.332C16.4635 21.332 24.7827 23.8812 32.8196 26.3541C40.8106 28.8117 49.0764 31.3456 65.3333 31.3456C81.5901 31.3456 89.8559 28.8117 97.8469 26.3541C105.884 23.8889 114.203 21.332 130.559 21.332V21.996C114.302 21.996 106.036 24.53 98.0454 26.9876C90.0085 29.4528 81.6893 32.0096 65.3333 32.0096C48.9772 32.0096 40.6579 29.4605 32.6211 26.9876C24.6301 24.53 16.3643 21.996 0.107422 21.996V21.332Z" fill="url(#paint28_linear_1047_676)"/>
<path d="M0.107422 16.8359C16.4559 16.8359 24.7675 19.3851 32.7967 21.858C40.7953 24.3156 49.0688 26.8572 65.3333 26.8572C81.5977 26.8572 89.8711 24.3156 97.8698 21.858C105.907 19.3928 114.211 16.8359 130.559 16.8359V17.3626C114.295 17.3626 106.021 19.9041 98.0225 22.3617C89.9856 24.827 81.6817 27.3838 65.3333 27.3838C48.9848 27.3838 40.6732 24.8346 32.644 22.3617C24.6453 19.9041 16.3719 17.3626 0.107422 17.3626V16.8359Z" fill="url(#paint29_linear_1047_676)"/>
<path d="M195.792 5.86914C212.278 5.86914 220.658 8.44123 228.756 10.9294C236.694 13.3641 244.891 15.8827 261.025 15.8827V18.2411C244.54 18.2411 236.167 15.669 228.061 13.1809C220.124 10.7462 211.927 8.22753 195.792 8.22753C179.657 8.22753 171.46 10.7462 163.523 13.1809C155.417 15.669 147.044 18.2411 130.559 18.2411V15.8827C146.686 15.8827 154.89 13.3641 162.828 10.9294C170.934 8.44123 179.306 5.86914 195.792 5.86914Z" fill="url(#paint30_linear_1047_676)"/>
<path d="M195.792 10.4941C212.27 10.4941 220.635 13.0662 228.741 15.5467C236.679 17.9891 244.891 20.5077 261.026 20.5077V22.7364C244.555 22.7364 236.182 20.1643 228.085 17.6838C220.147 15.2491 211.935 12.7228 195.792 12.7228C179.65 12.7228 171.445 15.2414 163.508 17.6838C155.41 20.1643 147.037 22.7364 130.566 22.7364V20.5077C146.709 20.5077 154.914 17.9891 162.851 15.5467C170.949 13.0662 179.322 10.4941 195.792 10.4941Z" fill="url(#paint31_linear_1047_676)"/>
<path d="M195.792 15.1113C212.263 15.1113 220.628 17.6834 228.718 20.1639C236.663 22.6063 244.876 25.1249 261.026 25.1249V27.2162C244.563 27.2162 236.198 24.6441 228.108 22.1636C220.162 19.7213 211.95 17.2026 195.8 17.2026C179.65 17.2026 171.438 19.7213 163.492 22.1636C155.402 24.6517 147.037 27.2162 130.574 27.2162V25.1249C146.724 25.1249 154.937 22.6063 162.882 20.1639C170.972 17.6758 179.337 15.1113 195.8 15.1113H195.792Z" fill="url(#paint32_linear_1047_676)"/>
<path d="M195.792 19.7363C212.247 19.7363 220.612 22.3084 228.695 24.7889C236.648 27.2313 244.86 29.7576 261.018 29.7576V31.7191C244.563 31.7191 236.205 29.147 228.115 26.6665C220.162 24.2241 211.95 21.6978 195.784 21.6978C179.619 21.6978 171.407 24.2241 163.462 26.6665C155.379 29.147 147.014 31.7191 130.559 31.7191V29.7576C146.716 29.7576 154.936 27.2313 162.881 24.7889C170.964 22.3084 179.329 19.7363 195.784 19.7363H195.792Z" fill="url(#paint33_linear_1047_676)"/>
<path d="M195.792 24.3555C212.24 24.3555 220.597 26.9276 228.68 29.4081C236.633 31.8504 244.86 34.3767 261.026 34.3767V36.2161C244.578 36.2161 236.228 33.644 228.146 31.1635C220.193 28.7212 211.965 26.1949 195.792 26.1949C179.619 26.1949 171.399 28.7212 163.446 31.1635C155.364 33.644 147.006 36.2161 130.566 36.2161V34.3767C146.732 34.3767 154.959 31.8504 162.912 29.4081C170.995 26.9276 179.352 24.3555 195.792 24.3555Z" fill="url(#paint34_linear_1047_676)"/>
<path d="M195.792 28.9805C212.232 28.9805 220.582 31.5449 228.657 34.0254C236.617 36.4678 244.845 38.9941 261.025 38.9941V40.6961C244.593 40.6961 236.236 38.1316 228.161 35.6511C220.2 33.2088 211.973 30.6825 195.792 30.6825C179.612 30.6825 171.384 33.2088 163.423 35.6511C155.348 38.1316 146.991 40.6961 130.559 40.6961V38.9941C146.739 38.9941 154.967 36.4678 162.927 34.0254C171.002 31.5449 179.36 28.9805 195.792 28.9805Z" fill="url(#paint35_linear_1047_676)"/>
<path d="M195.792 33.5977C212.217 33.5977 220.567 36.1621 228.642 38.6426C236.602 41.085 244.838 43.6189 261.026 43.6189V45.1912C244.601 45.1912 236.251 42.6267 228.184 40.1462C220.223 37.7038 211.988 35.1699 195.792 35.1699C179.596 35.1699 171.369 37.6962 163.408 40.1462C155.341 42.6267 146.991 45.1912 130.566 45.1912V43.6189C146.755 43.6189 154.99 41.0926 162.95 38.6426C171.018 36.1621 179.367 33.5977 195.792 33.5977Z" fill="url(#paint36_linear_1047_676)"/>
<path d="M195.792 38.2227C212.209 38.2227 220.551 40.7795 228.619 43.26C236.587 45.71 244.822 48.2363 261.025 48.2363V49.6788C244.608 49.6788 236.266 47.1219 228.199 44.6414C220.231 42.1991 211.988 39.6652 195.792 39.6652C179.596 39.6652 171.361 42.1915 163.385 44.6414C155.318 47.1219 146.976 49.6788 130.559 49.6788V48.2363C146.762 48.2363 154.99 45.71 162.965 43.26C171.033 40.7795 179.375 38.2227 195.792 38.2227Z" fill="url(#paint37_linear_1047_676)"/>
<path d="M195.792 42.8398C212.202 42.8398 220.536 45.3967 228.604 47.8772C236.572 50.3272 244.815 52.8534 261.026 52.8534V54.1662C244.616 54.1662 236.282 51.6094 228.222 49.1289C220.246 46.6789 212.003 44.1526 195.792 44.1526C179.581 44.1526 171.346 46.6789 163.37 49.1289C155.31 51.6018 146.968 54.1662 130.566 54.1662V52.8534C146.777 52.8534 155.013 50.3272 162.989 47.8772C171.048 45.4043 179.39 42.8398 195.792 42.8398Z" fill="url(#paint38_linear_1047_676)"/>
<path d="M195.792 47.457C212.194 47.457 220.529 50.0139 228.588 52.4944C236.564 54.9443 244.807 57.4783 261.026 57.4783V58.6613C244.631 58.6613 236.297 56.1045 228.237 53.6239C220.261 51.174 212.011 48.64 195.792 48.64C179.574 48.64 171.323 51.174 163.355 53.6239C155.295 56.0968 146.961 58.6613 130.566 58.6613V57.4783C146.785 57.4783 155.036 54.9443 163.004 52.4944C171.064 50.0215 179.398 47.457 195.792 47.457Z" fill="url(#paint39_linear_1047_676)"/>
<path d="M195.792 52.082C212.179 52.082 220.513 54.6389 228.565 57.1117C236.541 59.5617 244.799 62.0956 261.025 62.0956V63.1489C244.639 63.1489 236.312 60.5921 228.252 58.1192C220.277 55.6692 212.018 53.1353 195.792 53.1353C179.566 53.1353 171.308 55.6692 163.332 58.1192C155.28 60.5921 146.945 63.1489 130.559 63.1489V62.0956C146.785 62.0956 155.043 59.5617 163.019 57.1117C171.071 54.6389 179.405 52.082 195.792 52.082Z" fill="url(#paint40_linear_1047_676)"/>
<path d="M195.792 56.707C212.171 56.707 220.498 59.2639 228.55 61.7367C236.534 64.1867 244.792 66.7283 261.026 66.7283V67.6441C244.647 67.6441 236.327 65.0873 228.275 62.6144C220.292 60.1645 212.034 57.6229 195.792 57.6229C179.551 57.6229 171.3 60.1568 163.317 62.6144C155.265 65.0873 146.938 67.6441 130.566 67.6441V66.7283C146.808 66.7283 155.059 64.1943 163.042 61.7367C171.094 59.2639 179.421 56.707 195.792 56.707Z" fill="url(#paint41_linear_1047_676)"/>
<path d="M195.792 61.3262C212.156 61.3262 220.483 63.883 228.527 66.3482C236.518 68.8058 244.777 71.3398 261.026 71.3398V72.1335C244.662 72.1335 236.343 69.5767 228.298 67.1115C220.307 64.6539 212.049 62.1199 195.8 62.1199C179.551 62.1199 171.293 64.6539 163.302 67.1115C155.257 69.5767 146.938 72.1335 130.574 72.1335V71.3398C146.823 71.3398 155.082 68.8058 163.073 66.3482C171.117 63.883 179.436 61.3262 195.8 61.3262H195.792Z" fill="url(#paint42_linear_1047_676)"/>
<path d="M195.792 65.9434C212.148 65.9434 220.467 68.4926 228.504 70.9654C236.495 73.423 244.761 75.957 261.018 75.957V76.621C244.662 76.621 236.343 74.0718 228.306 71.5989C220.315 69.1413 212.041 66.6074 195.784 66.6074C179.528 66.6074 171.262 69.1413 163.271 71.5989C155.234 74.0718 146.915 76.621 130.559 76.621V75.957C146.815 75.957 155.081 73.423 163.072 70.9654C171.109 68.4926 179.428 65.9434 195.784 65.9434H195.792Z" fill="url(#paint43_linear_1047_676)"/>
<path d="M195.792 70.5684C212.141 70.5684 220.452 73.1176 228.489 75.5904C236.488 78.048 244.761 80.5896 261.026 80.5896V81.1162C244.677 81.1162 236.366 78.567 228.337 76.0942C220.338 73.6366 212.065 71.095 195.8 71.095C179.536 71.095 171.262 73.6366 163.263 76.0942C155.227 78.5594 146.923 81.1162 130.574 81.1162V80.5896C146.839 80.5896 155.112 78.048 163.111 75.5904C171.148 73.1252 179.452 70.5684 195.8 70.5684H195.792Z" fill="url(#paint44_linear_1047_676)"/>
<path d="M261.025 79.7051C277.511 79.7051 285.884 82.2772 293.989 84.7653C301.927 87.2 310.124 89.7187 326.259 89.7187C342.394 89.7187 350.591 87.2 358.528 84.7653C366.634 82.2772 375.006 79.7051 391.492 79.7051V82.0635C375.365 82.0635 367.16 84.5821 359.223 87.0168C351.117 89.505 342.745 92.0771 326.259 92.0771C309.773 92.0771 301.4 89.505 293.295 87.0168C285.357 84.5821 277.16 82.0635 261.025 82.0635V79.7051Z" fill="url(#paint45_linear_1047_676)"/>
<path d="M261.025 75.2168C277.496 75.2168 285.869 77.7889 293.967 80.277C301.904 82.7117 310.109 85.238 326.251 85.238C342.394 85.238 350.598 82.7194 358.536 80.277C366.634 77.7889 375.007 75.2168 391.477 75.2168V77.4454C375.335 77.4454 367.13 79.9641 359.192 82.4064C351.094 84.8946 342.722 87.4667 326.251 87.4667C309.781 87.4667 301.408 84.8946 293.31 82.4064C285.373 79.9717 277.168 77.4454 261.025 77.4454V75.2168Z" fill="url(#paint46_linear_1047_676)"/>
<path d="M261.025 70.7285C277.488 70.7285 285.853 73.3006 293.944 75.7811C301.889 78.2235 310.101 80.7421 326.251 80.7421C342.401 80.7421 350.614 78.2235 358.559 75.7811C366.649 73.3006 375.014 70.7285 391.477 70.7285V72.8198C375.327 72.8198 367.115 75.3384 359.169 77.7808C351.079 80.2613 342.714 82.8334 326.251 82.8334C309.788 82.8334 301.423 80.2613 293.333 77.7808C285.388 75.3384 277.175 72.8198 261.025 72.8198V70.7285Z" fill="url(#paint47_linear_1047_676)"/>
<path d="M261.025 66.2324C277.481 66.2324 285.838 68.8045 293.928 71.285C301.874 73.7274 310.094 76.2537 326.251 76.2537C342.409 76.2537 350.629 73.7274 358.574 71.285C366.657 68.8045 375.022 66.2324 391.477 66.2324V68.1939C375.319 68.1939 367.099 70.7202 359.154 73.1626C351.072 75.6431 342.707 78.2152 326.251 78.2152C309.796 78.2152 301.439 75.6431 293.348 73.1626C285.403 70.7202 277.183 68.1939 261.025 68.1939V66.2324Z" fill="url(#paint48_linear_1047_676)"/>
<path d="M261.025 61.7461C277.473 61.7461 285.823 64.3182 293.905 66.7987C301.858 69.241 310.086 71.7673 326.251 71.7673C342.416 71.7673 350.644 69.241 358.597 66.7987C366.68 64.3182 375.037 61.7461 391.477 61.7461V63.5855C375.312 63.5855 367.084 66.1118 359.131 68.5541C351.049 71.0346 342.691 73.6067 326.251 73.6067C309.811 73.6067 301.454 71.0346 293.371 68.5541C285.418 66.1118 277.191 63.5855 261.025 63.5855V61.7461Z" fill="url(#paint49_linear_1047_676)"/>
<path d="M261.025 57.2578C277.458 57.2578 285.815 59.8223 293.89 62.3028C301.851 64.7451 310.078 67.2714 326.259 67.2714C342.439 67.2714 350.667 64.7451 358.628 62.3028C366.703 59.8223 375.06 57.2578 391.492 57.2578V58.9598C375.312 58.9598 367.084 61.4861 359.124 63.9285C351.049 66.409 342.691 68.9734 326.259 68.9734C309.826 68.9734 301.469 66.409 293.394 63.9285C285.434 61.4861 277.206 58.9598 261.025 58.9598V57.2578Z" fill="url(#paint50_linear_1047_676)"/>
<path d="M261.025 52.7617C277.45 52.7617 285.8 55.3262 293.867 57.8067C301.828 60.249 310.063 62.783 326.251 62.783C342.439 62.783 350.675 60.2567 358.635 57.8067C366.703 55.3262 375.052 52.7617 391.477 52.7617V54.334C375.289 54.334 367.054 56.8603 359.093 59.3103C351.026 61.7908 342.676 64.3552 326.251 64.3552C309.826 64.3552 301.477 61.7908 293.409 59.3103C285.449 56.8679 277.214 54.334 261.025 54.334V52.7617Z" fill="url(#paint51_linear_1047_676)"/>
<path d="M261.025 48.2734C277.443 48.2734 285.785 50.8303 293.852 53.3108C301.82 55.7607 310.055 58.287 326.259 58.287C342.462 58.287 350.69 55.7607 358.666 53.3108C366.733 50.8303 375.075 48.2734 391.492 48.2734V49.7159C375.289 49.7159 367.061 52.2422 359.085 54.6922C351.018 57.1727 342.676 59.7296 326.259 59.7296C309.842 59.7296 301.5 57.1727 293.432 54.6922C285.464 52.2422 277.229 49.7159 261.025 49.7159V48.2734Z" fill="url(#paint52_linear_1047_676)"/>
<path d="M261.025 43.7793C277.435 43.7793 285.769 46.3361 293.837 48.8166C301.805 51.2666 310.048 53.7929 326.259 53.7929C342.47 53.7929 350.705 51.2666 358.681 48.8166C366.748 46.3361 375.083 43.7793 391.492 43.7793V45.0921C375.281 45.0921 367.046 47.6184 359.07 50.0683C351.003 52.5488 342.668 55.1057 326.259 55.1057C309.849 55.1057 301.515 52.5488 293.448 50.0683C285.479 47.6184 277.236 45.0921 261.025 45.0921V43.7793Z" fill="url(#paint53_linear_1047_676)"/>
<path d="M261.025 39.291C277.42 39.291 285.754 41.8478 293.814 44.3207C301.79 46.7707 310.033 49.3046 326.251 49.3046C342.47 49.3046 350.72 46.7783 358.689 44.3207C366.748 41.8478 375.083 39.291 391.477 39.291V40.474C375.258 40.474 367.008 43.0003 359.04 45.4579C350.98 47.9308 342.645 50.4876 326.251 50.4876C309.857 50.4876 301.522 47.9308 293.463 45.4579C285.487 43.008 277.244 40.474 261.025 40.474V39.291Z" fill="url(#paint54_linear_1047_676)"/>
<path d="M261.025 34.8027C277.412 34.8027 285.739 37.3596 293.799 39.8324C301.774 42.2824 310.033 44.8163 326.259 44.8163C342.485 44.8163 350.743 42.2824 358.719 39.8324C366.771 37.3596 375.106 34.8027 391.492 34.8027V35.856C375.266 35.856 367.008 38.3899 359.032 40.8399C350.98 43.3128 342.645 45.8696 326.259 45.8696C309.872 45.8696 301.545 43.3128 293.486 40.8399C285.51 38.3899 277.252 35.856 261.025 35.856V34.8027Z" fill="url(#paint55_linear_1047_676)"/>
<path d="M261.025 30.3086C277.404 30.3086 285.724 32.8654 293.776 35.3383C301.759 37.7883 310.017 40.3298 326.251 40.3298C342.485 40.3298 350.743 37.7959 358.727 35.3383C366.779 32.8654 375.106 30.3086 391.477 30.3086V31.2245C375.235 31.2245 366.985 33.7584 359.002 36.216C350.949 38.6889 342.623 41.2457 326.251 41.2457C309.88 41.2457 301.553 38.6889 293.501 36.216C285.518 33.766 277.259 31.2245 261.025 31.2245V30.3086Z" fill="url(#paint56_linear_1047_676)"/>
<path d="M261.025 25.8203C277.389 25.8203 285.708 28.3771 293.753 30.85C301.744 33.3 310.002 35.8415 326.251 35.8415C342.5 35.8415 350.759 33.3076 358.75 30.85C366.794 28.3771 375.113 25.8203 391.477 25.8203V26.6141C375.228 26.6141 366.97 29.148 358.979 31.6056C350.934 34.0785 342.615 36.6353 326.251 36.6353C309.888 36.6353 301.568 34.0785 293.524 31.6056C285.533 29.1556 277.275 26.6141 261.025 26.6141V25.8203Z" fill="url(#paint57_linear_1047_676)"/>
<path d="M261.025 21.332C277.381 21.332 285.701 23.8812 293.738 26.3541C301.729 28.8117 309.994 31.3456 326.251 31.3456C342.508 31.3456 350.774 28.8117 358.765 26.3541C366.802 23.8889 375.121 21.332 391.477 21.332V21.996C375.22 21.996 366.954 24.53 358.963 26.9876C350.927 29.4528 342.607 32.0096 326.251 32.0096C309.895 32.0096 301.576 29.4605 293.539 26.9876C285.548 24.53 277.282 21.996 261.025 21.996V21.332Z" fill="url(#paint58_linear_1047_676)"/>
<path d="M261.025 16.8359C277.374 16.8359 285.685 19.3851 293.715 21.858C301.713 24.3156 309.987 26.8572 326.251 26.8572C342.516 26.8572 350.789 24.3156 358.788 21.858C366.825 19.3928 375.129 16.8359 391.477 16.8359V17.3626C375.213 17.3626 366.939 19.9041 358.94 22.3617C350.904 24.827 342.6 27.3838 326.251 27.3838C309.903 27.3838 301.591 24.8346 293.562 22.3617C285.563 19.9041 277.29 17.3626 261.025 17.3626V16.8359Z" fill="url(#paint59_linear_1047_676)"/>
</g>
<defs>
<linearGradient id="paint0_linear_1047_676" x1="-65.1183" y1="9.31132" x2="-65.1183" y2="75.3691" gradientUnits="userSpaceOnUse">
<stop stop-color="#3858A1" stop-opacity="0.1"/>
<stop offset="1" stop-color="#3858A1"/>
</linearGradient>
<linearGradient id="paint1_linear_1047_676" x1="-130.352" y1="9.31113" x2="-129.588" y2="75.3689" gradientUnits="userSpaceOnUse">
<stop stop-color="#3858A1" stop-opacity="0.1"/>
<stop offset="1" stop-color="#3858A1"/>
</linearGradient>
<linearGradient id="paint2_linear_1047_676" x1="-130.351" y1="9.31076" x2="-129.588" y2="75.3685" gradientUnits="userSpaceOnUse">
<stop stop-color="#3858A1" stop-opacity="0.1"/>
<stop offset="1" stop-color="#3858A1"/>
</linearGradient>
<linearGradient id="paint3_linear_1047_676" x1="-130.352" y1="9.31058" x2="-129.589" y2="75.3683" gradientUnits="userSpaceOnUse">
<stop stop-color="#3858A1" stop-opacity="0.1"/>
<stop offset="1" stop-color="#3858A1"/>
</linearGradient>
<linearGradient id="paint4_linear_1047_676" x1="-130.352" y1="9.31216" x2="-129.588" y2="75.3699" gradientUnits="userSpaceOnUse">
<stop stop-color="#3858A1" stop-opacity="0.1"/>
<stop offset="1" stop-color="#3858A1"/>
</linearGradient>
<linearGradient id="paint5_linear_1047_676" x1="-65.1183" y1="0.000548624" x2="-65.1183" y2="75.3697" gradientUnits="userSpaceOnUse">
<stop stop-color="#3858A1" stop-opacity="0.1"/>
<stop offset="1" stop-color="#3858A1"/>
</linearGradient>
<linearGradient id="paint6_linear_1047_676" x1="-65.1181" y1="9.31161" x2="-65.1181" y2="75.3693" gradientUnits="userSpaceOnUse">
<stop stop-color="#3858A1" stop-opacity="0.1"/>
<stop offset="1" stop-color="#3858A1"/>
</linearGradient>
<linearGradient id="paint7_linear_1047_676" x1="-65.1183" y1="9.31143" x2="-65.1183" y2="75.3692" gradientUnits="userSpaceOnUse">
<stop stop-color="#3858A1" stop-opacity="0.1"/>
<stop offset="1" stop-color="#3858A1"/>
</linearGradient>
<linearGradient id="paint8_linear_1047_676" x1="-65.1181" y1="9.31105" x2="-65.1181" y2="75.3688" gradientUnits="userSpaceOnUse">
<stop stop-color="#3858A1" stop-opacity="0.1"/>
<stop offset="1" stop-color="#3858A1"/>
</linearGradient>
<linearGradient id="paint9_linear_1047_676" x1="-65.1181" y1="9.31069" x2="-65.1181" y2="75.3684" gradientUnits="userSpaceOnUse">
<stop stop-color="#3858A1" stop-opacity="0.1"/>
<stop offset="1" stop-color="#3858A1"/>
</linearGradient>
<linearGradient id="paint10_linear_1047_676" x1="-65.1183" y1="9.3105" x2="-65.1183" y2="75.3682" gradientUnits="userSpaceOnUse">
<stop stop-color="#3858A1" stop-opacity="0.1"/>
<stop offset="1" stop-color="#3858A1"/>
</linearGradient>
<linearGradient id="paint11_linear_1047_676" x1="-65.1181" y1="9.31034" x2="-65.1181" y2="75.368" gradientUnits="userSpaceOnUse">
<stop stop-color="#3858A1" stop-opacity="0.1"/>
<stop offset="1" stop-color="#3858A1"/>
</linearGradient>
<linearGradient id="paint12_linear_1047_676" x1="-65.1179" y1="9.31189" x2="-65.1179" y2="75.3696" gradientUnits="userSpaceOnUse">
<stop stop-color="#3858A1" stop-opacity="0.1"/>
<stop offset="1" stop-color="#3858A1"/>
</linearGradient>
<linearGradient id="paint13_linear_1047_676" x1="-65.1183" y1="9.31155" x2="-65.1183" y2="75.3693" gradientUnits="userSpaceOnUse">
<stop stop-color="#3858A1" stop-opacity="0.1"/>
<stop offset="1" stop-color="#3858A1"/>
</linearGradient>
<linearGradient id="paint14_linear_1047_676" x1="-65.1179" y1="9.31135" x2="-65.1179" y2="75.3691" gradientUnits="userSpaceOnUse">
<stop stop-color="#3858A1" stop-opacity="0.1"/>
<stop offset="1" stop-color="#3858A1"/>
</linearGradient>
<linearGradient id="paint15_linear_1047_676" x1="65.3409" y1="9.31218" x2="65.3409" y2="75.3699" gradientUnits="userSpaceOnUse">
<stop stop-color="#3858A1" stop-opacity="0.1"/>
<stop offset="1" stop-color="#3858A1"/>
</linearGradient>
<linearGradient id="paint16_linear_1047_676" x1="65.3409" y1="9.31172" x2="65.3409" y2="75.3694" gradientUnits="userSpaceOnUse">
<stop stop-color="#3858A1" stop-opacity="0.1"/>
<stop offset="1" stop-color="#3858A1"/>
</linearGradient>
<linearGradient id="paint17_linear_1047_676" x1="65.3409" y1="9.31122" x2="65.3409" y2="75.369" gradientUnits="userSpaceOnUse">
<stop stop-color="#3858A1" stop-opacity="0.1"/>
<stop offset="1" stop-color="#3858A1"/>
</linearGradient>
<linearGradient id="paint18_linear_1047_676" x1="65.3409" y1="9.31055" x2="65.3409" y2="75.3683" gradientUnits="userSpaceOnUse">
<stop stop-color="#3858A1" stop-opacity="0.1"/>
<stop offset="1" stop-color="#3858A1"/>
</linearGradient>
<linearGradient id="paint19_linear_1047_676" x1="65.3409" y1="9.31205" x2="65.3409" y2="75.3698" gradientUnits="userSpaceOnUse">
<stop stop-color="#3858A1" stop-opacity="0.1"/>
<stop offset="1" stop-color="#3858A1"/>
</linearGradient>
<linearGradient id="paint20_linear_1047_676" x1="65.3409" y1="9.31155" x2="65.3409" y2="75.3693" gradientUnits="userSpaceOnUse">
<stop stop-color="#3858A1" stop-opacity="0.1"/>
<stop offset="1" stop-color="#3858A1"/>
</linearGradient>
<linearGradient id="paint21_linear_1047_676" x1="65.3409" y1="9.3109" x2="65.3409" y2="75.3687" gradientUnits="userSpaceOnUse">
<stop stop-color="#3858A1" stop-opacity="0.1"/>
<stop offset="1" stop-color="#3858A1"/>
</linearGradient>
<linearGradient id="paint22_linear_1047_676" x1="65.3409" y1="9.31043" x2="65.3409" y2="75.3682" gradientUnits="userSpaceOnUse">
<stop stop-color="#3858A1" stop-opacity="0.1"/>
<stop offset="1" stop-color="#3858A1"/>
</linearGradient>
<linearGradient id="paint23_linear_1047_676" x1="65.3409" y1="9.31174" x2="65.3409" y2="75.3695" gradientUnits="userSpaceOnUse">
<stop stop-color="#3858A1" stop-opacity="0.1"/>
<stop offset="1" stop-color="#3858A1"/>
</linearGradient>
<linearGradient id="paint24_linear_1047_676" x1="65.3409" y1="9.31125" x2="65.3409" y2="75.369" gradientUnits="userSpaceOnUse">
<stop stop-color="#3858A1" stop-opacity="0.1"/>
<stop offset="1" stop-color="#3858A1"/>
</linearGradient>
<linearGradient id="paint25_linear_1047_676" x1="65.3409" y1="9.31078" x2="65.3409" y2="75.3685" gradientUnits="userSpaceOnUse">
<stop stop-color="#3858A1" stop-opacity="0.1"/>
<stop offset="1" stop-color="#3858A1"/>
</linearGradient>
<linearGradient id="paint26_linear_1047_676" x1="65.3409" y1="9.31207" x2="65.3409" y2="75.3698" gradientUnits="userSpaceOnUse">
<stop stop-color="#3858A1" stop-opacity="0.1"/>
<stop offset="1" stop-color="#3858A1"/>
</linearGradient>
<linearGradient id="paint27_linear_1047_676" x1="65.3409" y1="9.3116" x2="65.3409" y2="75.3693" gradientUnits="userSpaceOnUse">
<stop stop-color="#3858A1" stop-opacity="0.1"/>
<stop offset="1" stop-color="#3858A1"/>
</linearGradient>
<linearGradient id="paint28_linear_1047_676" x1="65.3409" y1="9.31113" x2="65.3409" y2="75.3689" gradientUnits="userSpaceOnUse">
<stop stop-color="#3858A1" stop-opacity="0.1"/>
<stop offset="1" stop-color="#3858A1"/>
</linearGradient>
<linearGradient id="paint29_linear_1047_676" x1="65.3409" y1="9.31047" x2="65.3409" y2="75.3682" gradientUnits="userSpaceOnUse">
<stop stop-color="#3858A1" stop-opacity="0.1"/>
<stop offset="1" stop-color="#3858A1"/>
</linearGradient>
<linearGradient id="paint30_linear_1047_676" x1="195.8" y1="9.31132" x2="195.8" y2="75.3691" gradientUnits="userSpaceOnUse">
<stop stop-color="#3858A1" stop-opacity="0.1"/>
<stop offset="1" stop-color="#3858A1"/>
</linearGradient>
<linearGradient id="paint31_linear_1047_676" x1="195.8" y1="9.31113" x2="195.8" y2="75.3689" gradientUnits="userSpaceOnUse">
<stop stop-color="#3858A1" stop-opacity="0.1"/>
<stop offset="1" stop-color="#3858A1"/>
</linearGradient>
<linearGradient id="paint32_linear_1047_676" x1="195.8" y1="9.31076" x2="195.8" y2="75.3685" gradientUnits="userSpaceOnUse">
<stop stop-color="#3858A1" stop-opacity="0.1"/>
<stop offset="1" stop-color="#3858A1"/>
</linearGradient>
<linearGradient id="paint33_linear_1047_676" x1="195.8" y1="9.31058" x2="195.8" y2="75.3683" gradientUnits="userSpaceOnUse">
<stop stop-color="#3858A1" stop-opacity="0.1"/>
<stop offset="1" stop-color="#3858A1"/>
</linearGradient>
<linearGradient id="paint34_linear_1047_676" x1="195.8" y1="9.31216" x2="195.8" y2="75.3699" gradientUnits="userSpaceOnUse">
<stop stop-color="#2557A3" stop-opacity="0.1"/>
<stop offset="1" stop-color="#2557A3"/>
</linearGradient>
<linearGradient id="paint35_linear_1047_676" x1="195.8" y1="9.31198" x2="195.8" y2="75.3697" gradientUnits="userSpaceOnUse">
<stop stop-color="#3858A1" stop-opacity="0.1"/>
<stop offset="1" stop-color="#3858A1"/>
</linearGradient>
<linearGradient id="paint36_linear_1047_676" x1="195.8" y1="9.31161" x2="195.8" y2="75.3693" gradientUnits="userSpaceOnUse">
<stop stop-color="#3858A1" stop-opacity="0.1"/>
<stop offset="1" stop-color="#3858A1"/>
</linearGradient>
<linearGradient id="paint37_linear_1047_676" x1="195.8" y1="9.31143" x2="195.8" y2="75.3692" gradientUnits="userSpaceOnUse">
<stop stop-color="#3858A1" stop-opacity="0.1"/>
<stop offset="1" stop-color="#3858A1"/>
</linearGradient>
<linearGradient id="paint38_linear_1047_676" x1="195.8" y1="9.31105" x2="195.8" y2="75.3688" gradientUnits="userSpaceOnUse">
<stop stop-color="#3858A1" stop-opacity="0.1"/>
<stop offset="1" stop-color="#3858A1"/>
</linearGradient>
<linearGradient id="paint39_linear_1047_676" x1="195.8" y1="9.31069" x2="195.8" y2="75.3684" gradientUnits="userSpaceOnUse">
<stop stop-color="#3858A1" stop-opacity="0.1"/>
<stop offset="1" stop-color="#3858A1"/>
</linearGradient>
<linearGradient id="paint40_linear_1047_676" x1="195.8" y1="9.3105" x2="195.8" y2="75.3682" gradientUnits="userSpaceOnUse">
<stop stop-color="#3858A1" stop-opacity="0.1"/>
<stop offset="1" stop-color="#3858A1"/>
</linearGradient>
<linearGradient id="paint41_linear_1047_676" x1="195.8" y1="9.31034" x2="195.8" y2="75.368" gradientUnits="userSpaceOnUse">
<stop stop-color="#3858A1" stop-opacity="0.1"/>
<stop offset="1" stop-color="#3858A1"/>
</linearGradient>
<linearGradient id="paint42_linear_1047_676" x1="195.8" y1="9.31189" x2="195.8" y2="75.3696" gradientUnits="userSpaceOnUse">
<stop stop-color="#3858A1" stop-opacity="0.1"/>
<stop offset="1" stop-color="#3858A1"/>
</linearGradient>
<linearGradient id="paint43_linear_1047_676" x1="195.8" y1="9.31155" x2="195.8" y2="75.3693" gradientUnits="userSpaceOnUse">
<stop stop-color="#3858A1" stop-opacity="0.1"/>
<stop offset="1" stop-color="#3858A1"/>
</linearGradient>
<linearGradient id="paint44_linear_1047_676" x1="195.8" y1="9.31135" x2="195.8" y2="75.3691" gradientUnits="userSpaceOnUse">
<stop stop-color="#3858A1" stop-opacity="0.1"/>
<stop offset="1" stop-color="#3858A1"/>
</linearGradient>
<linearGradient id="paint45_linear_1047_676" x1="326.251" y1="9.31218" x2="326.251" y2="75.3699" gradientUnits="userSpaceOnUse">
<stop stop-color="#3858A1" stop-opacity="0.1"/>
<stop offset="1" stop-color="#3858A1"/>
</linearGradient>
<linearGradient id="paint46_linear_1047_676" x1="326.251" y1="9.31172" x2="326.251" y2="75.3694" gradientUnits="userSpaceOnUse">
<stop stop-color="#3858A1" stop-opacity="0.1"/>
<stop offset="1" stop-color="#3858A1"/>
</linearGradient>
<linearGradient id="paint47_linear_1047_676" x1="326.251" y1="9.31122" x2="326.251" y2="75.369" gradientUnits="userSpaceOnUse">
<stop stop-color="#3858A1" stop-opacity="0.1"/>
<stop offset="1" stop-color="#3858A1"/>
</linearGradient>
<linearGradient id="paint48_linear_1047_676" x1="326.251" y1="9.31055" x2="326.251" y2="75.3683" gradientUnits="userSpaceOnUse">
<stop stop-color="#3858A1" stop-opacity="0.1"/>
<stop offset="1" stop-color="#3858A1"/>
</linearGradient>
<linearGradient id="paint49_linear_1047_676" x1="326.251" y1="9.31205" x2="326.251" y2="75.3698" gradientUnits="userSpaceOnUse">
<stop stop-color="#3858A1" stop-opacity="0.1"/>
<stop offset="1" stop-color="#3858A1"/>
</linearGradient>
<linearGradient id="paint50_linear_1047_676" x1="326.251" y1="9.31155" x2="326.251" y2="75.3693" gradientUnits="userSpaceOnUse">
<stop stop-color="#3858A1" stop-opacity="0.1"/>
<stop offset="1" stop-color="#3858A1"/>
</linearGradient>
<linearGradient id="paint51_linear_1047_676" x1="326.251" y1="9.3109" x2="326.251" y2="75.3687" gradientUnits="userSpaceOnUse">
<stop stop-color="#3858A1" stop-opacity="0.1"/>
<stop offset="1" stop-color="#3858A1"/>
</linearGradient>
<linearGradient id="paint52_linear_1047_676" x1="326.251" y1="9.31043" x2="326.251" y2="75.3682" gradientUnits="userSpaceOnUse">
<stop stop-color="#3858A1" stop-opacity="0.1"/>
<stop offset="1" stop-color="#3858A1"/>
</linearGradient>
<linearGradient id="paint53_linear_1047_676" x1="326.251" y1="9.31174" x2="326.251" y2="75.3695" gradientUnits="userSpaceOnUse">
<stop stop-color="#3858A1" stop-opacity="0.1"/>
<stop offset="1" stop-color="#3858A1"/>
</linearGradient>
<linearGradient id="paint54_linear_1047_676" x1="326.251" y1="9.31125" x2="326.251" y2="75.369" gradientUnits="userSpaceOnUse">
<stop stop-color="#3858A1" stop-opacity="0.1"/>
<stop offset="1" stop-color="#3858A1"/>
</linearGradient>
<linearGradient id="paint55_linear_1047_676" x1="326.251" y1="9.31078" x2="326.251" y2="75.3685" gradientUnits="userSpaceOnUse">
<stop stop-color="#3858A1" stop-opacity="0.1"/>
<stop offset="1" stop-color="#3858A1"/>
</linearGradient>
<linearGradient id="paint56_linear_1047_676" x1="326.251" y1="9.31207" x2="326.251" y2="75.3698" gradientUnits="userSpaceOnUse">
<stop stop-color="#3858A1" stop-opacity="0.1"/>
<stop offset="1" stop-color="#3858A1"/>
</linearGradient>
<linearGradient id="paint57_linear_1047_676" x1="326.251" y1="9.3116" x2="326.251" y2="75.3693" gradientUnits="userSpaceOnUse">
<stop stop-color="#3858A1" stop-opacity="0.1"/>
<stop offset="1" stop-color="#3858A1"/>
</linearGradient>
<linearGradient id="paint58_linear_1047_676" x1="326.251" y1="9.31113" x2="326.251" y2="75.3689" gradientUnits="userSpaceOnUse">
<stop stop-color="#3858A1" stop-opacity="0.1"/>
<stop offset="1" stop-color="#3858A1"/>
</linearGradient>
<linearGradient id="paint59_linear_1047_676" x1="326.251" y1="9.31047" x2="326.251" y2="75.3682" gradientUnits="userSpaceOnUse">
<stop stop-color="#3858A1" stop-opacity="0.1"/>
<stop offset="1" stop-color="#3858A1"/>
</linearGradient>
</defs>
</svg>
