<svg width="390" height="75" viewBox="0 0 390 75" fill="none" xmlns="http://www.w3.org/2000/svg">
<mask id="mask0_1175_1006" style="mask-type:luminance" maskUnits="userSpaceOnUse" x="0" y="0" width="390" height="75">
<path d="M0 75L390 75V7.62939e-06L0 7.62939e-06V75Z" fill="white"/>
</mask>
<g mask="url(#mask0_1175_1006)">
<path d="M351.107 34.0859C360.963 34.0859 365.973 35.622 370.82 37.1112C375.565 38.5662 380.472 40.0767 390.119 40.0767V41.4848C380.263 41.4848 375.253 39.9487 370.406 38.4596C365.661 37.0045 360.754 35.494 351.107 35.494C341.459 35.494 336.552 37.0003 331.807 38.4596C326.964 39.9487 321.955 41.4848 312.094 41.4848V40.0767C321.741 40.0767 326.648 38.5705 331.393 37.1112C336.236 35.622 341.246 34.0859 351.107 34.0859Z" fill="url(#paint0_linear_1175_1006)"/>
<path d="M351.106 36.8516C360.959 36.8516 365.964 38.3877 370.807 39.8768C375.556 41.3361 380.463 42.8424 390.115 42.8424V44.1737C380.263 44.1737 375.257 42.6376 370.414 41.1484C365.665 39.6891 360.758 38.1829 351.106 38.1829C341.455 38.1829 336.543 39.6891 331.798 41.1484C326.955 42.6333 321.95 44.1737 312.098 44.1737V42.8424C321.75 42.8424 326.661 41.3361 331.406 39.8768C336.249 38.3919 341.254 36.8516 351.106 36.8516Z" fill="url(#paint1_linear_1175_1006)"/>
<path d="M351.106 39.6113C360.955 39.6113 365.955 41.1474 370.794 42.6323C375.543 44.0916 380.455 45.5979 390.115 45.5979V46.8524C380.267 46.8524 375.266 45.3163 370.427 43.8313C365.678 42.372 360.767 40.8658 351.106 40.8658C341.446 40.8658 336.535 42.3763 331.786 43.8313C326.947 45.3163 321.942 46.8524 312.098 46.8524V45.5979C321.758 45.5979 326.67 44.0874 331.419 42.6323C336.257 41.1474 341.263 39.6113 351.106 39.6113Z" fill="url(#paint2_linear_1175_1006)"/>
<path d="M351.107 42.377C360.946 42.377 365.947 43.9131 370.786 45.398C375.539 46.8573 380.455 48.3678 390.119 48.3678V49.5412C380.28 49.5412 375.279 48.0051 370.44 46.5202C365.687 45.0609 360.771 43.5504 351.107 43.5504C341.442 43.5504 336.526 45.0609 331.773 46.5202C326.938 48.0051 321.938 49.5412 312.094 49.5412V48.3678C321.758 48.3678 326.674 46.8573 331.427 45.398C336.262 43.9131 341.263 42.377 351.107 42.377Z" fill="url(#paint3_linear_1175_1006)"/>
<path d="M351.106 45.1426C360.942 45.1426 365.938 46.6787 370.773 48.1636C375.531 49.6229 380.446 51.1334 390.115 51.1334V52.23C380.28 52.23 375.283 50.6939 370.449 49.209C365.691 47.7497 360.775 46.2392 351.106 46.2392C341.438 46.2392 336.518 47.7497 331.764 49.209C326.93 50.6939 321.933 52.23 312.098 52.23V51.1334C321.767 51.1334 326.687 49.6229 331.444 48.1636C336.279 46.6787 341.275 45.1426 351.111 45.1426H351.106Z" fill="url(#paint4_linear_1175_1006)"/>
<path d="M351.106 47.9023C360.938 47.9023 365.93 49.4342 370.76 50.9191C375.518 52.3784 380.438 53.8932 390.115 53.8932V54.913C380.284 54.913 375.292 53.3811 370.461 51.8962C365.704 50.4369 360.784 48.9221 351.106 48.9221C341.429 48.9221 336.509 50.4327 331.752 51.8962C326.921 53.3811 321.925 54.913 312.098 54.913V53.8932C321.775 53.8932 326.695 52.3827 331.453 50.9191C336.283 49.4342 341.28 47.9023 351.106 47.9023Z" fill="url(#paint5_linear_1175_1006)"/>
<path d="M351.107 50.668C360.929 50.668 365.921 52.1998 370.747 53.6847C375.509 55.1483 380.433 56.6588 390.115 56.6588V57.5975C380.293 57.5975 375.3 56.0657 370.474 54.5808C365.712 53.1172 360.788 51.6067 351.107 51.6067C341.425 51.6067 336.501 53.1172 331.739 54.5808C326.913 56.0657 321.921 57.5975 312.094 57.5975V56.6588C321.775 56.6588 326.7 55.1483 331.461 53.6847C336.287 52.1998 341.28 50.668 351.102 50.668H351.107Z" fill="url(#paint6_linear_1175_1006)"/>
<path d="M351.106 53.4336C360.925 53.4336 365.913 54.9654 370.739 56.4461C375.505 57.9096 380.429 59.4201 390.115 59.4201V60.2821C380.297 60.2821 375.309 58.7502 370.483 57.2696C365.717 55.806 360.792 54.2955 351.106 54.2955C341.42 54.2955 336.492 55.8103 331.73 57.2696C326.904 58.7502 321.916 60.2821 312.098 60.2821V59.4201C321.784 59.4201 326.712 57.9054 331.478 56.4461C336.304 54.9654 341.292 53.4336 351.111 53.4336H351.106Z" fill="url(#paint7_linear_1175_1006)"/>
<path d="M351.106 56.1934C360.916 56.1934 365.904 57.7252 370.726 59.2058C375.492 60.6694 380.42 62.1842 390.115 62.1842V62.9693C380.305 62.9693 375.317 61.4374 370.495 59.9568C365.729 58.4932 360.801 56.9785 351.106 56.9785C341.412 56.9785 336.484 58.4932 331.717 59.9568C326.896 61.4374 321.908 62.9693 312.098 62.9693V62.1842C321.792 62.1842 326.721 60.6694 331.487 59.2058C336.309 57.7252 341.297 56.1934 351.106 56.1934Z" fill="url(#paint8_linear_1175_1006)"/>
<path d="M351.107 58.959C360.912 58.959 365.896 60.4908 370.713 61.9672C375.484 63.4308 380.416 64.9455 390.115 64.9455V65.6538C380.31 65.6538 375.326 64.122 370.508 62.6456C365.738 61.1821 360.805 59.6673 351.107 59.6673C341.408 59.6673 336.475 61.1821 331.705 62.6456C326.887 64.1263 321.903 65.6538 312.094 65.6538V64.9455C321.793 64.9455 326.725 63.4308 331.496 61.9672C336.313 60.4866 341.297 58.959 351.102 58.959H351.107Z" fill="url(#paint9_linear_1175_1006)"/>
<path d="M351.107 61.7246C360.908 61.7246 365.887 63.2522 370.705 64.7328C375.475 66.1964 380.412 67.7154 390.119 67.7154V68.3427C380.318 68.3427 375.339 66.8151 370.521 65.3345C365.751 63.8709 360.814 62.3519 351.107 62.3519C341.399 62.3519 336.467 63.8666 331.692 65.3345C326.874 66.8151 321.895 68.3427 312.094 68.3427V67.7154C321.801 67.7154 326.734 66.2007 331.508 64.7328C336.326 63.2522 341.305 61.7246 351.107 61.7246Z" fill="url(#paint10_linear_1175_1006)"/>
<path d="M351.106 64.4844C360.899 64.4844 365.879 66.0119 370.692 67.4926C375.467 68.9604 380.403 70.4752 390.115 70.4752V71.0256C380.322 71.0256 375.343 69.4981 370.53 68.0174C365.755 66.5496 360.818 65.0348 351.106 65.0348C341.395 65.0348 336.458 66.5496 331.683 68.0174C326.87 69.4938 321.891 71.0256 312.098 71.0256V70.4752C321.809 70.4752 326.746 68.9604 331.521 67.4926C336.334 66.0162 341.314 64.4844 351.106 64.4844Z" fill="url(#paint11_linear_1175_1006)"/>
<path d="M351.106 67.25C360.895 67.25 365.87 68.7776 370.679 70.2539C375.458 71.7218 380.399 73.2365 390.115 73.2365V73.7102C380.327 73.7102 375.351 72.1826 370.542 70.7062C365.763 69.2384 360.822 67.7236 351.106 67.7236C341.391 67.7236 336.449 69.2427 331.67 70.7062C326.857 72.1826 321.882 73.7102 312.098 73.7102V73.2365C321.814 73.2365 326.755 71.7175 331.534 70.2539C336.347 68.7776 341.322 67.25 351.106 67.25Z" fill="url(#paint12_linear_1175_1006)"/>
<path d="M351.107 70.0098C360.886 70.0098 365.862 71.5373 370.671 73.0137C375.45 74.4815 380.395 76.0006 390.119 76.0006V76.3974C380.335 76.3974 375.364 74.8698 370.555 73.3935C365.776 71.9256 360.831 70.4066 351.107 70.4066C341.382 70.4066 336.441 71.9256 331.658 73.3935C326.849 74.8698 321.878 76.3974 312.094 76.3974V76.0006C321.818 76.0006 326.759 74.4815 331.543 73.0137C336.351 71.5373 341.322 70.0098 351.107 70.0098Z" fill="url(#paint13_linear_1175_1006)"/>
<path d="M351.106 72.7754C360.882 72.7754 365.853 74.303 370.658 75.7793C375.441 77.2472 380.386 78.7662 390.115 78.7662V79.082C380.339 79.082 375.368 77.5544 370.564 76.078C365.781 74.6102 360.835 73.0911 351.106 73.0911C341.378 73.0911 336.432 74.6102 331.649 76.078C326.845 77.5544 321.874 79.082 312.098 79.082V78.7662C321.827 78.7662 326.772 77.2472 331.555 75.7793C336.36 74.303 341.331 72.7797 351.106 72.7797V72.7754Z" fill="url(#paint14_linear_1175_1006)"/>
<path d="M195.064 34.0859C204.92 34.0859 209.93 35.622 214.777 37.1112C219.522 38.5662 224.429 40.0767 234.076 40.0767V41.4848C224.22 41.4848 219.21 39.9487 214.363 38.4596C209.618 37.0045 204.711 35.494 195.064 35.494C185.416 35.494 180.509 37.0003 175.764 38.4596C170.921 39.9487 165.912 41.4848 156.051 41.4848V40.0767C165.698 40.0767 170.605 38.5705 175.35 37.1112C180.193 35.622 185.203 34.0859 195.064 34.0859Z" fill="url(#paint15_linear_1175_1006)"/>
<path d="M195.063 36.8516C204.916 36.8516 209.921 38.3877 214.764 39.8768C219.513 41.3361 224.42 42.8424 234.072 42.8424V44.1737C224.22 44.1737 219.214 42.6376 214.371 41.1484C209.622 39.6891 204.715 38.1829 195.063 38.1829C185.412 38.1829 180.5 39.6891 175.755 41.1484C170.912 42.6333 165.907 44.1737 156.055 44.1737V42.8424C165.707 42.8424 170.618 41.3361 175.363 39.8768C180.206 38.3919 185.211 36.8516 195.063 36.8516Z" fill="url(#paint16_linear_1175_1006)"/>
<path d="M195.063 39.6113C204.912 39.6113 209.912 41.1474 214.751 42.6323C219.5 44.0916 224.412 45.5979 234.072 45.5979V46.8524C224.224 46.8524 219.223 45.3163 214.384 43.8313C209.635 42.372 204.724 40.8658 195.063 40.8658C185.403 40.8658 180.492 42.3763 175.743 43.8313C170.904 45.3163 165.899 46.8524 156.055 46.8524V45.5979C165.715 45.5979 170.627 44.0874 175.376 42.6323C180.214 41.1474 185.22 39.6113 195.063 39.6113Z" fill="url(#paint17_linear_1175_1006)"/>
<path d="M195.064 42.377C204.903 42.377 209.904 43.9131 214.743 45.398C219.496 46.8573 224.412 48.3678 234.076 48.3678V49.5412C224.237 49.5412 219.236 48.0051 214.397 46.5202C209.644 45.0609 204.728 43.5504 195.064 43.5504C185.399 43.5504 180.483 45.0609 175.73 46.5202C170.896 48.0051 165.895 49.5412 156.051 49.5412V48.3678C165.715 48.3678 170.631 46.8573 175.384 45.398C180.219 43.9131 185.22 42.377 195.064 42.377Z" fill="url(#paint18_linear_1175_1006)"/>
<path d="M195.063 45.1426C204.899 45.1426 209.895 46.6787 214.73 48.1636C219.488 49.6229 224.403 51.1334 234.072 51.1334V52.23C224.237 52.23 219.24 50.6939 214.406 49.209C209.648 47.7497 204.732 46.2392 195.063 46.2392C185.395 46.2392 180.475 47.7497 175.721 49.209C170.887 50.6939 165.89 52.23 156.055 52.23V51.1334C165.724 51.1334 170.644 49.6229 175.401 48.1636C180.236 46.6787 185.232 45.1426 195.068 45.1426H195.063Z" fill="url(#paint19_linear_1175_1006)"/>
<path d="M195.063 47.9023C204.895 47.9023 209.887 49.4342 214.717 50.9191C219.475 52.3784 224.395 53.8932 234.072 53.8932V54.913C224.241 54.913 219.249 53.3811 214.418 51.8962C209.661 50.4369 204.741 48.9221 195.063 48.9221C185.386 48.9221 180.466 50.4327 175.709 51.8962C170.878 53.3811 165.882 54.913 156.055 54.913V53.8932C165.732 53.8932 170.652 52.3827 175.41 50.9191C180.24 49.4342 185.237 47.9023 195.063 47.9023Z" fill="url(#paint20_linear_1175_1006)"/>
<path d="M195.064 50.668C204.886 50.668 209.878 52.1998 214.704 53.6847C219.466 55.1483 224.39 56.6588 234.072 56.6588V57.5975C224.25 57.5975 219.257 56.0657 214.431 54.5808C209.669 53.1172 204.745 51.6067 195.064 51.6067C185.382 51.6067 180.458 53.1172 175.696 54.5808C170.87 56.0657 165.878 57.5975 156.051 57.5975V56.6588C165.733 56.6588 170.657 55.1483 175.418 53.6847C180.244 52.1998 185.237 50.668 195.059 50.668H195.064Z" fill="url(#paint21_linear_1175_1006)"/>
<path d="M195.063 53.4336C204.882 53.4336 209.87 54.9654 214.696 56.4461C219.462 57.9096 224.386 59.4201 234.072 59.4201V60.2821C224.254 60.2821 219.266 58.7502 214.44 57.2696C209.674 55.806 204.749 54.2955 195.063 54.2955C185.377 54.2955 180.449 55.8103 175.687 57.2696C170.861 58.7502 165.873 60.2821 156.055 60.2821V59.4201C165.741 59.4201 170.669 57.9054 175.435 56.4461C180.261 54.9654 185.249 53.4336 195.068 53.4336H195.063Z" fill="url(#paint22_linear_1175_1006)"/>
<path d="M195.063 56.1934C204.873 56.1934 209.861 57.7252 214.683 59.2058C219.449 60.6694 224.377 62.1842 234.072 62.1842V62.9693C224.262 62.9693 219.274 61.4374 214.453 59.9568C209.686 58.4932 204.758 56.9785 195.063 56.9785C185.369 56.9785 180.441 58.4932 175.674 59.9568C170.853 61.4374 165.865 62.9693 156.055 62.9693V62.1842C165.749 62.1842 170.678 60.6694 175.444 59.2058C180.266 57.7252 185.254 56.1934 195.063 56.1934Z" fill="url(#paint23_linear_1175_1006)"/>
<path d="M195.064 58.959C204.869 58.959 209.853 60.4908 214.67 61.9672C219.441 63.4308 224.373 64.9455 234.072 64.9455V65.6538C224.267 65.6538 219.283 64.122 214.465 62.6456C209.695 61.1821 204.762 59.6673 195.064 59.6673C185.365 59.6673 180.432 61.1821 175.662 62.6456C170.844 64.1263 165.861 65.6538 156.051 65.6538V64.9455C165.75 64.9455 170.682 63.4308 175.453 61.9672C180.27 60.4866 185.254 58.959 195.059 58.959H195.064Z" fill="url(#paint24_linear_1175_1006)"/>
<path d="M195.064 61.7246C204.865 61.7246 209.844 63.2522 214.662 64.7328C219.432 66.1964 224.369 67.7154 234.076 67.7154V68.3427C224.275 68.3427 219.296 66.8151 214.478 65.3345C209.708 63.8709 204.771 62.3519 195.064 62.3519C185.356 62.3519 180.424 63.8666 175.649 65.3345C170.832 66.8151 165.852 68.3427 156.051 68.3427V67.7154C165.758 67.7154 170.691 66.2007 175.465 64.7328C180.283 63.2522 185.262 61.7246 195.064 61.7246Z" fill="url(#paint25_linear_1175_1006)"/>
<path d="M195.063 64.4844C204.856 64.4844 209.836 66.0119 214.649 67.4926C219.424 68.9604 224.36 70.4752 234.072 70.4752V71.0256C224.279 71.0256 219.3 69.4981 214.487 68.0174C209.712 66.5496 204.775 65.0348 195.063 65.0348C185.352 65.0348 180.415 66.5496 175.64 68.0174C170.827 69.4938 165.848 71.0256 156.055 71.0256V70.4752C165.767 70.4752 170.703 68.9604 175.478 67.4926C180.291 66.0162 185.271 64.4844 195.063 64.4844Z" fill="url(#paint26_linear_1175_1006)"/>
<path d="M195.063 67.25C204.852 67.25 209.827 68.7776 214.636 70.2539C219.415 71.7218 224.356 73.2365 234.072 73.2365V73.7102C224.284 73.7102 219.308 72.1826 214.499 70.7062C209.72 69.2384 204.779 67.7236 195.063 67.7236C185.348 67.7236 180.406 69.2427 175.627 70.7062C170.814 72.1826 165.839 73.7102 156.055 73.7102V73.2365C165.771 73.2365 170.712 71.7175 175.491 70.2539C180.304 68.7776 185.279 67.25 195.063 67.25Z" fill="url(#paint27_linear_1175_1006)"/>
<path d="M195.064 70.0137C204.843 70.0137 209.819 71.5412 214.628 73.0176C219.407 74.4854 224.352 76.0045 234.076 76.0045V76.4013C224.292 76.4013 219.321 74.8737 214.512 73.3974C209.733 71.9295 204.788 70.4105 195.064 70.4105C185.339 70.4105 180.398 71.9295 175.615 73.3974C170.806 74.8737 165.835 76.4013 156.051 76.4013V76.0045C165.775 76.0045 170.716 74.4854 175.5 73.0176C180.308 71.5412 185.279 70.0137 195.064 70.0137Z" fill="url(#paint28_linear_1175_1006)"/>
<path d="M195.063 72.7754C204.839 72.7754 209.81 74.303 214.615 75.7793C219.398 77.2472 224.343 78.7662 234.072 78.7662V79.082C224.296 79.082 219.325 77.5544 214.521 76.078C209.738 74.6102 204.792 73.0911 195.063 73.0911C185.335 73.0911 180.389 74.6102 175.606 76.078C170.802 77.5544 165.831 79.082 156.055 79.082V78.7662C165.784 78.7662 170.729 77.2472 175.512 75.7793C180.317 74.303 185.288 72.7797 195.063 72.7797V72.7754Z" fill="url(#paint29_linear_1175_1006)"/>
<path d="M234.077 39.7363C243.934 39.7363 248.943 41.2724 253.79 42.7616C258.535 44.2166 263.442 45.7271 273.09 45.7271C282.737 45.7271 287.644 44.2209 292.389 42.7616C297.232 41.2724 302.242 39.7363 312.103 39.7363V41.1444C302.455 41.1444 297.548 42.6507 292.803 44.11C287.96 45.5991 282.951 47.1352 273.09 47.1352C263.233 47.1352 258.224 45.5991 253.376 44.11C248.631 42.6507 243.724 41.1444 234.077 41.1444V39.7363Z" fill="url(#paint30_linear_1175_1006)"/>
<path d="M234.077 37.0469C243.929 37.0469 248.934 38.583 253.777 40.0722C258.527 41.5314 263.434 43.0377 273.085 43.0377C282.737 43.0377 287.649 41.5314 292.393 40.0722C297.236 38.5872 302.242 37.0469 312.094 37.0469V38.3782C302.442 38.3782 297.531 39.8844 292.786 41.3437C287.943 42.8286 282.938 44.369 273.085 44.369C263.233 44.369 258.228 42.8329 253.385 41.3437C248.636 39.8844 243.729 38.3782 234.077 38.3782V37.0469Z" fill="url(#paint31_linear_1175_1006)"/>
<path d="M234.077 34.3633C243.925 34.3633 248.926 35.8994 253.765 37.3843C258.514 38.8436 263.425 40.3498 273.085 40.3498C282.746 40.3498 287.657 38.8393 292.406 37.3843C297.245 35.8994 302.25 34.3633 312.094 34.3633V35.6178C302.434 35.6178 297.522 37.1283 292.773 38.5833C287.934 40.0682 282.929 41.6043 273.085 41.6043C263.237 41.6043 258.236 40.0682 253.398 38.5833C248.649 37.124 243.733 35.6178 234.077 35.6178V34.3633Z" fill="url(#paint32_linear_1175_1006)"/>
<path d="M234.077 31.6758C243.917 31.6758 248.917 33.2119 253.756 34.6968C258.51 36.1561 263.425 37.6666 273.09 37.6666C282.754 37.6666 287.67 36.1561 292.423 34.6968C297.258 33.2119 302.259 31.6758 312.103 31.6758V32.8492C302.438 32.8492 297.522 34.3597 292.769 35.819C287.934 37.3039 282.934 38.84 273.09 38.84C263.25 38.84 258.249 37.3039 253.41 35.819C248.657 34.3597 243.742 32.8492 234.077 32.8492V31.6758Z" fill="url(#paint33_linear_1175_1006)"/>
<path d="M234.077 28.9922C243.912 28.9922 248.909 30.5283 253.743 32.0132C258.501 33.4725 263.417 34.983 273.085 34.983C282.754 34.983 287.674 33.4725 292.428 32.0132C297.262 30.5283 302.259 28.9922 312.094 28.9922V30.0888C302.425 30.0888 297.505 31.5993 292.752 33.0586C287.917 34.5435 282.921 36.0796 273.085 36.0796C263.25 36.0796 258.253 34.5435 253.419 33.0586C248.661 31.5993 243.746 30.0888 234.077 30.0888V28.9922Z" fill="url(#paint34_linear_1175_1006)"/>
<path d="M234.077 26.3086C243.908 26.3086 248.9 27.8404 253.731 29.3253C258.488 30.7846 263.408 32.2994 273.085 32.2994C282.763 32.2994 287.683 30.7889 292.44 29.3253C297.271 27.8404 302.267 26.3086 312.094 26.3086V27.3284C302.416 27.3284 297.497 28.8389 292.739 30.3025C287.909 31.7874 282.912 33.3192 273.085 33.3192C263.259 33.3192 258.262 31.7874 253.432 30.3025C248.674 28.8432 243.754 27.3284 234.077 27.3284V26.3086Z" fill="url(#paint35_linear_1175_1006)"/>
<path d="M234.077 23.6191C243.899 23.6191 248.892 25.151 253.722 26.6359C258.484 28.0994 263.408 29.61 273.09 29.61C282.771 29.61 287.696 28.0994 292.457 26.6359C297.283 25.1552 302.276 23.6191 312.098 23.6191V24.5579C302.417 24.5579 297.492 26.0684 292.73 27.5319C287.905 29.0126 282.912 30.5487 273.09 30.5487C263.267 30.5487 258.275 29.0168 253.449 27.5319C248.687 26.0684 243.763 24.5579 234.081 24.5579V23.6191H234.077Z" fill="url(#paint36_linear_1175_1006)"/>
<path d="M234.076 20.9355C243.894 20.9355 248.882 22.4674 253.708 23.948C258.475 25.4116 263.399 26.9221 273.085 26.9221C282.771 26.9221 287.699 25.4073 292.461 23.948C297.287 22.4674 302.275 20.9355 312.093 20.9355V21.7975C302.407 21.7975 297.479 23.3122 292.717 24.7715C287.891 26.2522 282.903 27.784 273.085 27.784C263.266 27.784 258.278 26.2522 253.452 24.7715C248.686 23.308 243.762 21.7975 234.072 21.7975V20.9355H234.076Z" fill="url(#paint37_linear_1175_1006)"/>
<path d="M234.077 18.248C243.887 18.248 248.875 19.7799 253.696 21.2605C258.463 22.7241 263.391 24.2389 273.085 24.2389C282.78 24.2389 287.708 22.7241 292.474 21.2605C297.296 19.7799 302.284 18.248 312.094 18.248V19.0332C302.399 19.0332 297.471 20.5479 292.705 22.0115C287.883 23.4921 282.895 25.024 273.085 25.024C263.276 25.024 258.288 23.4921 253.466 22.0115C248.7 20.5479 243.771 19.0332 234.077 19.0332V18.248Z" fill="url(#paint38_linear_1175_1006)"/>
<path d="M234.077 15.5645C243.882 15.5645 248.866 17.0963 253.688 18.5727C258.458 20.0362 263.391 21.551 273.09 21.551C282.788 21.551 287.721 20.0362 292.492 18.5727C297.309 17.092 302.293 15.5645 312.098 15.5645V16.2728C302.399 16.2728 297.467 17.7875 292.696 19.2511C287.879 20.7317 282.895 22.2593 273.09 22.2593C263.284 22.2593 258.3 20.7275 253.483 19.2511C248.713 17.7875 243.78 16.2728 234.081 16.2728V15.5645H234.077Z" fill="url(#paint39_linear_1175_1006)"/>
<path d="M234.077 12.8789C243.878 12.8789 248.858 14.4065 253.675 15.8871C258.446 17.3507 263.382 18.8697 273.09 18.8697C282.797 18.8697 287.73 17.3549 292.504 15.8871C297.322 14.4065 302.301 12.8789 312.103 12.8789V13.5061C302.395 13.5061 297.463 15.0209 292.688 16.4888C287.87 17.9694 282.891 19.497 273.09 19.497C263.288 19.497 258.309 17.9694 253.492 16.4888C248.721 15.0252 243.784 13.5061 234.077 13.5061V12.8789Z" fill="url(#paint40_linear_1175_1006)"/>
<path d="M234.077 10.1914C243.87 10.1914 248.849 11.719 253.662 13.1996C258.437 14.6674 263.374 16.1822 273.085 16.1822C282.797 16.1822 287.734 14.6674 292.509 13.1996C297.322 11.7232 302.301 10.1914 312.094 10.1914V10.7418C302.382 10.7418 297.446 12.2566 292.671 13.7244C287.858 15.2008 282.878 16.7327 273.085 16.7327C263.293 16.7327 258.313 15.2051 253.5 13.7244C248.725 12.2566 243.789 10.7418 234.077 10.7418V10.1914Z" fill="url(#paint41_linear_1175_1006)"/>
<path d="M234.077 7.50781C243.865 7.50781 248.841 9.03538 253.649 10.5118C258.428 11.9796 263.37 13.4944 273.085 13.4944C282.801 13.4944 287.742 11.9753 292.521 10.5118C297.335 9.03538 302.31 7.50781 312.094 7.50781V7.98144C302.378 7.98144 297.437 9.50048 292.658 10.964C287.845 12.4404 282.87 13.968 273.085 13.968C263.297 13.968 258.322 12.4404 253.513 10.964C248.734 9.49622 243.793 7.98144 234.077 7.98144V7.50781Z" fill="url(#paint42_linear_1175_1006)"/>
<path d="M234.077 4.81836C243.861 4.81836 248.832 6.34593 253.641 7.8223C258.42 9.29013 263.365 10.8092 273.09 10.8092C282.814 10.8092 287.755 9.29013 292.539 7.8223C297.347 6.34593 302.318 4.81836 312.103 4.81836V5.21519C302.378 5.21519 297.437 6.73422 292.654 8.20206C287.845 9.67842 282.874 11.206 273.09 11.206C263.31 11.206 258.335 9.67842 253.526 8.20206C248.747 6.73422 243.801 5.21519 234.077 5.21519V4.81836Z" fill="url(#paint43_linear_1175_1006)"/>
<path d="M234.077 2.13477C243.853 2.13477 248.824 3.66234 253.628 5.1387C258.411 6.60654 263.357 8.12557 273.085 8.12557C282.814 8.12557 287.759 6.60654 292.543 5.1387C297.352 3.66234 302.318 2.13477 312.094 2.13477V2.45052C302.365 2.45052 297.42 3.96956 292.637 5.43739C287.832 6.91376 282.861 8.44133 273.085 8.44133C263.31 8.44133 258.339 6.91376 253.534 5.44166C248.751 3.97382 243.806 2.45479 234.077 2.45479V2.13477Z" fill="url(#paint44_linear_1175_1006)"/>
<path d="M39.0253 34.0859C48.8819 34.0859 53.8913 35.622 58.7386 37.1112C63.4835 38.5662 68.3905 40.0767 78.0381 40.0767V41.4848C68.1814 41.4848 63.172 39.9487 58.3247 38.4596C53.5799 37.0045 48.6728 35.494 39.0253 35.494C29.3777 35.494 24.4707 37.0003 19.7258 38.4596C14.8828 39.9487 9.87339 41.4848 0.0124512 41.4848V40.0767C9.66004 40.0767 14.567 38.5705 19.3119 37.1112C24.1549 35.622 29.1643 34.0859 39.0253 34.0859Z" fill="url(#paint45_linear_1175_1006)"/>
<path d="M39.0251 36.8516C48.8775 36.8516 53.8827 38.3877 58.7257 39.8768C63.4748 41.3361 68.3818 42.8424 78.0337 42.8424V44.1737C68.1813 44.1737 63.1761 42.6376 58.3331 41.1484C53.584 39.6891 48.677 38.1829 39.0251 38.1829C29.3733 38.1829 24.462 39.6891 19.7171 41.1484C14.8742 42.6333 9.86901 44.1737 0.0166016 44.1737V42.8424C9.66846 42.8424 14.5797 41.3361 19.3246 39.8768C24.1676 38.3919 29.1727 36.8516 39.0251 36.8516Z" fill="url(#paint46_linear_1175_1006)"/>
<path d="M39.0251 39.6113C48.8733 39.6113 53.8742 41.1474 58.7129 42.6323C63.462 44.0916 68.3733 45.5979 78.0337 45.5979V46.8524C68.1855 46.8524 63.1847 45.3163 58.3459 43.8313C53.5968 42.372 48.6855 40.8658 39.0251 40.8658C29.3647 40.8658 24.4535 42.3763 19.7043 43.8313C14.8656 45.3163 9.86047 46.8524 0.0166016 46.8524V45.5979C9.677 45.5979 14.5883 44.0874 19.3374 42.6323C24.1761 41.1474 29.1813 39.6113 39.0251 39.6113Z" fill="url(#paint47_linear_1175_1006)"/>
<path d="M39.0253 42.377C48.8649 42.377 53.8657 43.9131 58.7045 45.398C63.4579 46.8573 68.3734 48.3678 78.0381 48.3678V49.5412C68.1984 49.5412 63.1976 48.0051 58.3588 46.5202C53.6055 45.0609 48.6899 43.5504 39.0253 43.5504C29.3606 43.5504 24.4451 45.0609 19.6917 46.5202C14.8572 48.0051 9.85632 49.5412 0.0124512 49.5412V48.3678C9.67711 48.3678 14.5926 46.8573 19.346 45.398C24.1805 43.9131 29.1814 42.377 39.0253 42.377Z" fill="url(#paint48_linear_1175_1006)"/>
<path d="M39.0251 45.1426C48.8605 45.1426 53.8571 46.6787 58.6916 48.1636C63.4492 49.6229 68.3647 51.1334 78.0337 51.1334V52.23C68.1983 52.23 63.2017 50.6939 58.3673 49.209C53.6096 47.7497 48.6941 46.2392 39.0251 46.2392C29.3562 46.2392 24.4364 47.7497 19.683 49.209C14.8485 50.6939 9.85194 52.23 0.0166016 52.23V51.1334C9.68553 51.1334 14.6053 49.6229 19.3587 48.1636C24.1932 46.6787 29.1898 45.1426 39.0251 45.1426Z" fill="url(#paint49_linear_1175_1006)"/>
<path d="M39.0251 47.9023C48.8562 47.9023 53.8486 49.4342 58.6788 50.9191C63.4364 52.3784 68.3562 53.8932 78.0337 53.8932V54.913C68.2026 54.913 63.2103 53.3811 58.3801 51.8962C53.6224 50.4369 48.7026 48.9221 39.0251 48.9221C29.3477 48.9221 24.4279 50.4327 19.6702 51.8962C14.84 53.3811 9.84341 54.913 0.0166016 54.913V53.8932C9.69406 53.8932 14.6139 52.3827 19.3715 50.9191C24.2017 49.4342 29.1983 47.9023 39.0251 47.9023Z" fill="url(#paint50_linear_1175_1006)"/>
<path d="M39.0251 50.668C48.8477 50.668 53.84 52.1998 58.666 53.6847C63.4279 55.1483 68.3519 56.6588 78.0337 56.6588V57.5975C68.2111 57.5975 63.2188 56.0657 58.3929 54.5808C53.6309 53.1172 48.7069 51.6067 39.0251 51.6067C29.3434 51.6067 24.4193 53.1172 19.6574 54.5808C14.8315 56.0657 9.83914 57.5975 0.0166016 57.5975V56.6588C9.69833 56.6588 14.6224 55.1483 19.3843 53.6847C24.2103 52.1998 29.2026 50.668 39.0251 50.668Z" fill="url(#paint51_linear_1175_1006)"/>
<path d="M39.0251 53.4336C48.8434 53.4336 53.8315 54.9654 58.6574 56.4461C63.4236 57.9096 68.3477 59.4201 78.0337 59.4201V60.2821C68.2154 60.2821 63.2273 58.7502 58.4014 57.2696C53.6352 55.806 48.7111 54.2955 39.0251 54.2955C29.3391 54.2955 24.4108 55.8103 19.6489 57.2696C14.8229 58.7502 9.83487 60.2821 0.0166016 60.2821V59.4201C9.7026 59.4201 14.6309 57.9054 19.3929 56.4461C24.2188 54.9654 29.2069 53.4336 39.0251 53.4336Z" fill="url(#paint52_linear_1175_1006)"/>
<path d="M39.0251 56.1934C48.8349 56.1934 53.823 57.7252 58.6446 59.2058C63.4108 60.6694 68.3391 62.1842 78.0337 62.1842V62.9693C68.2239 62.9693 63.2359 61.4374 58.4142 59.9568C53.648 58.4932 48.7197 56.9785 39.0251 56.9785C29.3306 56.9785 24.4023 58.4932 19.6361 59.9568C14.8144 61.4374 9.82634 62.9693 0.0166016 62.9693V62.1842C9.71113 62.1842 14.6395 60.6694 19.4057 59.2058C24.2273 57.7252 29.2154 56.1934 39.0251 56.1934Z" fill="url(#paint53_linear_1175_1006)"/>
<path d="M39.0251 58.959C48.8306 58.959 53.8144 60.4908 58.6318 61.9672C63.4023 63.4308 68.3349 64.9455 78.0337 64.9455V65.6538C68.2282 65.6538 63.2444 64.122 58.427 62.6456C53.6565 61.1821 48.7239 59.6673 39.0251 59.6673C29.3263 59.6673 24.3937 61.1821 19.6233 62.6456C14.8059 64.1263 9.82207 65.6538 0.0166016 65.6538V64.9455C9.7154 64.9455 14.648 63.4308 19.4185 61.9672C24.2359 60.4866 29.2197 58.959 39.0251 58.959Z" fill="url(#paint54_linear_1175_1006)"/>
<path d="M39.0253 61.7246C48.8265 61.7246 53.806 63.2522 58.6234 64.7328C63.3939 66.1964 68.3307 67.7154 78.0381 67.7154V68.3427C68.2369 68.3427 63.2573 66.8151 58.4399 65.3345C53.6695 63.8709 48.7326 62.3519 39.0253 62.3519C29.3179 62.3519 24.3853 63.8666 19.6106 65.3345C14.7932 66.8151 9.81365 68.3427 0.0124512 68.3427V67.7154C9.71978 67.7154 14.6524 66.2007 19.4271 64.7328C24.2445 63.2522 29.224 61.7246 39.0253 61.7246Z" fill="url(#paint55_linear_1175_1006)"/>
<path d="M39.0251 64.4844C48.8178 64.4844 53.7974 66.0119 58.6105 67.4926C63.3852 68.9604 68.3221 70.4752 78.0337 70.4752V71.0256C68.241 71.0256 63.2615 69.4981 58.4483 68.0174C53.6736 66.5496 48.7367 65.0348 39.0251 65.0348C29.3135 65.0348 24.3767 66.5496 19.6019 68.0174C14.7888 69.4938 9.80927 71.0256 0.0166016 71.0256V70.4752C9.7282 70.4752 14.6651 68.9604 19.4398 67.4926C24.2529 66.0162 29.2325 64.4844 39.0251 64.4844Z" fill="url(#paint56_linear_1175_1006)"/>
<path d="M39.0251 67.25C48.8135 67.25 53.7888 68.7776 58.5977 70.2539C63.3767 71.7218 68.3178 73.2365 78.0337 73.2365V73.7102C68.2453 73.7102 63.27 72.1826 58.4611 70.7062C53.6821 69.2384 48.741 67.7236 39.0251 67.7236C29.3093 67.7236 24.3681 69.2427 19.5891 70.7062C14.776 72.1826 9.80074 73.7102 0.0166016 73.7102V73.2365C9.73247 73.2365 14.6736 71.7175 19.4526 70.2539C24.2657 68.7776 29.241 67.25 39.0251 67.25Z" fill="url(#paint57_linear_1175_1006)"/>
<path d="M39.0253 70.0137C48.8051 70.0137 53.7804 71.5412 58.5893 73.0176C63.3683 74.4854 68.3137 76.0045 78.0381 76.0045V76.4013C68.2539 76.4013 63.2829 74.8737 58.474 73.3974C53.6951 71.9295 48.7497 70.4105 39.0253 70.4105C29.3009 70.4105 24.3597 71.9295 19.5765 73.3974C14.7676 74.8737 9.79659 76.4013 0.0124512 76.4013V76.0045C9.73685 76.0045 14.678 74.4854 19.4612 73.0176C24.2701 71.5412 29.2411 70.0137 39.0253 70.0137Z" fill="url(#paint58_linear_1175_1006)"/>
<path d="M39.0251 72.7738C48.8007 72.7738 53.7717 74.3014 58.5763 75.7735C63.3596 77.2413 68.305 78.7603 78.0337 78.7603V79.0761C68.2581 79.0761 63.2871 77.5485 58.4825 76.0722C53.6992 74.6043 48.7538 73.0853 39.0251 73.0853C29.2965 73.0853 24.3511 74.6043 19.5678 76.0722C14.7632 77.5485 9.7922 79.0761 0.0166016 79.0761V78.7603C9.74527 78.7603 14.6907 77.2413 19.4739 75.7735C24.2785 74.2971 29.2495 72.7695 39.0251 72.7695V72.7738Z" fill="url(#paint59_linear_1175_1006)"/>
<path d="M78.0337 39.7363C87.8904 39.7363 92.8998 41.2724 97.747 42.7616C102.492 44.2166 107.399 45.7271 117.046 45.7271C126.694 45.7271 131.601 44.2209 136.346 42.7616C141.189 41.2724 146.198 39.7363 156.059 39.7363V41.1444C146.412 41.1444 141.505 42.6507 136.76 44.11C131.917 45.5991 126.907 47.1352 117.046 47.1352C107.19 47.1352 102.18 45.5991 97.3331 44.11C92.5883 42.6549 87.6813 41.1444 78.0337 41.1444V39.7363Z" fill="url(#paint60_linear_1175_1006)"/>
<path d="M78.0337 37.0469C87.8861 37.0469 92.8912 38.583 97.7342 40.0722C102.483 41.5314 107.39 43.0377 117.042 43.0377C126.694 43.0377 131.605 41.5314 136.35 40.0722C141.193 38.5872 146.198 37.0469 156.051 37.0469V38.3782C146.399 38.3782 141.488 39.8844 136.743 41.3437C131.9 42.8286 126.895 44.369 117.042 44.369C107.19 44.369 102.185 42.8329 97.3417 41.3437C92.5926 39.8844 87.6856 38.3782 78.0337 38.3782V37.0469Z" fill="url(#paint61_linear_1175_1006)"/>
<path d="M78.0337 34.3633C87.8818 34.3633 92.8827 35.8994 97.7214 37.3843C102.471 38.8436 107.382 40.3498 117.042 40.3498C126.703 40.3498 131.614 38.8393 136.363 37.3843C141.202 35.8994 146.207 34.3633 156.051 34.3633V35.6178C146.39 35.6178 141.479 37.1283 136.73 38.5833C131.891 40.0682 126.886 41.6043 117.042 41.6043C107.194 41.6043 102.193 40.0682 97.3545 38.5833C92.6054 37.124 87.6941 35.6178 78.0337 35.6178V34.3633Z" fill="url(#paint62_linear_1175_1006)"/>
<path d="M78.0337 31.6758C87.8733 31.6758 92.8742 33.2119 97.7129 34.6968C102.466 36.1561 107.382 37.6666 117.046 37.6666C126.711 37.6666 131.627 36.1561 136.38 34.6968C141.215 33.2119 146.215 31.6758 156.059 31.6758V32.8492C146.395 32.8492 141.479 34.3597 136.726 35.819C131.891 37.3039 126.89 38.84 117.046 38.84C107.207 38.84 102.206 37.3039 97.3673 35.819C92.6139 34.3597 87.6984 32.8492 78.0337 32.8492V31.6758Z" fill="url(#paint63_linear_1175_1006)"/>
<path d="M78.0337 28.9922C87.869 28.9922 92.8656 30.5283 97.7001 32.0132C102.458 33.4725 107.373 34.983 117.042 34.983C126.711 34.983 131.631 33.4725 136.384 32.0132C141.219 30.5283 146.215 28.9922 156.051 28.9922V30.0888C146.382 30.0888 141.462 31.5993 136.709 33.0586C131.874 34.5435 126.878 36.0796 117.042 36.0796C107.207 36.0796 102.21 34.5435 97.3758 33.0586C92.6182 31.5993 87.7026 30.0888 78.0337 30.0888V28.9922Z" fill="url(#paint64_linear_1175_1006)"/>
<path d="M78.0337 26.3086C87.8648 26.3086 92.8571 27.8404 97.6873 29.3253C102.445 30.7846 107.365 32.2994 117.042 32.2994C126.72 32.2994 131.639 30.7889 136.397 29.3253C141.227 27.8404 146.224 26.3086 156.051 26.3086V27.3284C146.373 27.3284 141.453 28.8389 136.696 30.3025C131.866 31.7874 126.869 33.3192 117.042 33.3192C107.215 33.3192 102.219 31.7874 97.3886 30.3025C92.631 28.8432 87.7112 27.3284 78.0337 27.3284V26.3086Z" fill="url(#paint65_linear_1175_1006)"/>
<path d="M78.0337 23.6191C87.8562 23.6191 92.8486 25.151 97.6745 26.6359C102.436 28.0994 107.36 29.61 117.042 29.61C126.724 29.61 131.648 28.0994 136.41 26.6359C141.236 25.1552 146.228 23.6191 156.051 23.6191V24.5579C146.369 24.5579 141.445 26.0684 136.683 27.5319C131.857 29.0126 126.865 30.5487 117.042 30.5487C107.22 30.5487 102.227 29.0168 97.4014 27.5319C92.6395 26.0684 87.7154 24.5579 78.0337 24.5579V23.6191Z" fill="url(#paint66_linear_1175_1006)"/>
<path d="M78.0337 20.9355C87.852 20.9355 92.84 22.4674 97.666 23.948C102.432 25.4116 107.356 26.9221 117.042 26.9221C126.728 26.9221 131.657 25.4073 136.418 23.948C141.244 22.4674 146.232 20.9355 156.051 20.9355V21.7975C146.365 21.7975 141.436 23.3122 136.674 24.7715C131.849 26.2522 126.86 27.784 117.042 27.784C107.224 27.784 102.236 26.2522 97.4099 24.7715C92.6438 23.308 87.7197 21.7975 78.0337 21.7975V20.9355Z" fill="url(#paint67_linear_1175_1006)"/>
<path d="M78.0337 18.248C87.8434 18.248 92.8315 19.7799 97.6532 21.2605C102.419 22.7241 107.348 24.2389 117.042 24.2389C126.737 24.2389 131.665 22.7241 136.431 21.2605C141.253 19.7799 146.241 18.248 156.051 18.248V19.0332C146.356 19.0332 141.428 20.5479 136.662 22.0115C131.84 23.4921 126.852 25.024 117.042 25.024C107.232 25.024 102.244 23.4921 97.4228 22.0115C92.6566 20.5479 87.7282 19.0332 78.0337 19.0332V18.248Z" fill="url(#paint68_linear_1175_1006)"/>
<path d="M78.0337 15.5645C87.8392 15.5645 92.823 17.0963 97.6404 18.5727C102.411 20.0362 107.343 21.551 117.042 21.551C126.741 21.551 131.674 20.0362 136.444 18.5727C141.261 17.092 146.245 15.5645 156.051 15.5645V16.2728C146.352 16.2728 141.419 17.7875 136.649 19.2511C131.832 20.7317 126.848 22.2593 117.042 22.2593C107.237 22.2593 102.253 20.7275 97.4356 19.2511C92.6651 17.7875 87.7325 16.2728 78.0337 16.2728V15.5645Z" fill="url(#paint69_linear_1175_1006)"/>
<path d="M78.0337 12.8789C87.8349 12.8789 92.8144 14.4065 97.6318 15.8871C102.402 17.3507 107.339 18.8697 117.046 18.8697C126.754 18.8697 131.686 17.3549 136.461 15.8871C141.279 14.4065 146.258 12.8789 156.059 12.8789V13.5061C146.352 13.5061 141.419 15.0209 136.645 16.4888C131.827 17.9694 126.848 19.497 117.046 19.497C107.245 19.497 102.266 17.9694 97.4484 16.4888C92.6779 15.0252 87.741 13.5061 78.0337 13.5061V12.8789Z" fill="url(#paint70_linear_1175_1006)"/>
<path d="M78.0337 10.1914C87.8264 10.1914 92.8059 11.719 97.619 13.1996C102.394 14.6674 107.331 16.1822 117.042 16.1822C126.754 16.1822 131.691 14.6674 136.465 13.1996C141.279 11.7232 146.258 10.1914 156.051 10.1914V10.7418C146.339 10.7418 141.402 12.2566 136.628 13.7244C131.814 15.2008 126.835 16.7327 117.042 16.7327C107.25 16.7327 102.27 15.2051 97.4569 13.7244C92.6822 12.2566 87.7453 10.7418 78.0337 10.7418V10.1914Z" fill="url(#paint71_linear_1175_1006)"/>
<path d="M78.0337 7.50781C87.8221 7.50781 92.7974 9.03538 97.6062 10.5118C102.385 11.9796 107.326 13.4944 117.042 13.4944C126.758 13.4944 131.699 11.9753 136.478 10.5118C141.291 9.03538 146.267 7.50781 156.051 7.50781V7.98144C146.335 7.98144 141.394 9.50048 136.615 10.964C131.802 12.4404 126.826 13.968 117.042 13.968C107.254 13.968 102.279 12.4404 97.4697 10.964C92.6907 9.49622 87.7496 7.98144 78.0337 7.98144V7.50781Z" fill="url(#paint72_linear_1175_1006)"/>
<path d="M78.0337 4.81836C87.8178 4.81836 92.7888 6.34593 97.5977 7.8223C102.377 9.29013 107.322 10.8092 117.046 10.8092C126.771 10.8092 131.712 9.29013 136.495 7.8223C141.304 6.34593 146.275 4.81836 156.059 4.81836V5.21519C146.335 5.21519 141.394 6.73422 136.61 8.20206C131.802 9.67842 126.831 11.206 117.046 11.206C107.262 11.206 102.291 9.67842 97.4825 8.20206C92.7035 6.73422 87.7581 5.21519 78.0337 5.21519V4.81836Z" fill="url(#paint73_linear_1175_1006)"/>
<path d="M78.0337 2.13477C87.8093 2.13477 92.7803 3.66234 97.5849 5.1387C102.368 6.60654 107.314 8.12557 117.042 8.12557C126.771 8.12557 131.716 6.60654 136.5 5.1387C141.308 3.66234 146.279 2.13477 156.055 2.13477V2.45052C146.326 2.45052 141.381 3.96956 136.598 5.43739C131.793 6.91376 126.822 8.44133 117.046 8.44133C107.271 8.44133 102.3 6.91376 97.4953 5.43739C92.712 3.96956 87.7666 2.45052 78.038 2.45052V2.13477H78.0337Z" fill="url(#paint74_linear_1175_1006)"/>
</g>
<defs>
<linearGradient id="paint0_linear_1175_1006" x1="351.107" y1="79.128" x2="351.107" y2="-2.33256" gradientUnits="userSpaceOnUse">
<stop stop-color="#B6D5EC" stop-opacity="0"/>
<stop offset="0.1" stop-color="#B6D5EC" stop-opacity="0.03"/>
<stop offset="0.23" stop-color="#B6D5EC" stop-opacity="0.1"/>
<stop offset="0.38" stop-color="#B6D5EC" stop-opacity="0.22"/>
<stop offset="0.54" stop-color="#B6D5EC" stop-opacity="0.38"/>
<stop offset="0.72" stop-color="#B6D5EC" stop-opacity="0.59"/>
<stop offset="0.9" stop-color="#B6D5EC" stop-opacity="0.85"/>
<stop offset="1" stop-color="#B6D5EC"/>
</linearGradient>
<linearGradient id="paint1_linear_1175_1006" x1="351.106" y1="79.1286" x2="351.106" y2="-2.33191" gradientUnits="userSpaceOnUse">
<stop stop-color="#B6D5EC" stop-opacity="0"/>
<stop offset="0.1" stop-color="#B6D5EC" stop-opacity="0.03"/>
<stop offset="0.23" stop-color="#B6D5EC" stop-opacity="0.1"/>
<stop offset="0.38" stop-color="#B6D5EC" stop-opacity="0.22"/>
<stop offset="0.54" stop-color="#B6D5EC" stop-opacity="0.38"/>
<stop offset="0.72" stop-color="#B6D5EC" stop-opacity="0.59"/>
<stop offset="0.9" stop-color="#B6D5EC" stop-opacity="0.85"/>
<stop offset="1" stop-color="#B6D5EC"/>
</linearGradient>
<linearGradient id="paint2_linear_1175_1006" x1="351.106" y1="79.1276" x2="351.106" y2="-2.33288" gradientUnits="userSpaceOnUse">
<stop stop-color="#B6D5EC" stop-opacity="0"/>
<stop offset="0.1" stop-color="#B6D5EC" stop-opacity="0.03"/>
<stop offset="0.23" stop-color="#B6D5EC" stop-opacity="0.1"/>
<stop offset="0.38" stop-color="#B6D5EC" stop-opacity="0.22"/>
<stop offset="0.54" stop-color="#B6D5EC" stop-opacity="0.38"/>
<stop offset="0.72" stop-color="#B6D5EC" stop-opacity="0.59"/>
<stop offset="0.9" stop-color="#B6D5EC" stop-opacity="0.85"/>
<stop offset="1" stop-color="#B6D5EC"/>
</linearGradient>
<linearGradient id="paint3_linear_1175_1006" x1="351.107" y1="79.1283" x2="351.107" y2="-2.33224" gradientUnits="userSpaceOnUse">
<stop stop-color="#B6D5EC" stop-opacity="0"/>
<stop offset="0.1" stop-color="#B6D5EC" stop-opacity="0.03"/>
<stop offset="0.23" stop-color="#B6D5EC" stop-opacity="0.1"/>
<stop offset="0.38" stop-color="#B6D5EC" stop-opacity="0.22"/>
<stop offset="0.54" stop-color="#B6D5EC" stop-opacity="0.38"/>
<stop offset="0.72" stop-color="#B6D5EC" stop-opacity="0.59"/>
<stop offset="0.9" stop-color="#B6D5EC" stop-opacity="0.85"/>
<stop offset="1" stop-color="#B6D5EC"/>
</linearGradient>
<linearGradient id="paint4_linear_1175_1006" x1="351.106" y1="79.1289" x2="351.106" y2="-2.3316" gradientUnits="userSpaceOnUse">
<stop stop-color="#B6D5EC" stop-opacity="0"/>
<stop offset="0.1" stop-color="#B6D5EC" stop-opacity="0.03"/>
<stop offset="0.23" stop-color="#B6D5EC" stop-opacity="0.1"/>
<stop offset="0.38" stop-color="#B6D5EC" stop-opacity="0.22"/>
<stop offset="0.54" stop-color="#B6D5EC" stop-opacity="0.38"/>
<stop offset="0.72" stop-color="#B6D5EC" stop-opacity="0.59"/>
<stop offset="0.9" stop-color="#B6D5EC" stop-opacity="0.85"/>
<stop offset="1" stop-color="#B6D5EC"/>
</linearGradient>
<linearGradient id="paint5_linear_1175_1006" x1="351.106" y1="79.1279" x2="351.106" y2="-2.33256" gradientUnits="userSpaceOnUse">
<stop stop-color="#B6D5EC" stop-opacity="0"/>
<stop offset="0.1" stop-color="#B6D5EC" stop-opacity="0.03"/>
<stop offset="0.23" stop-color="#B6D5EC" stop-opacity="0.1"/>
<stop offset="0.38" stop-color="#B6D5EC" stop-opacity="0.22"/>
<stop offset="0.54" stop-color="#B6D5EC" stop-opacity="0.38"/>
<stop offset="0.72" stop-color="#B6D5EC" stop-opacity="0.59"/>
<stop offset="0.9" stop-color="#B6D5EC" stop-opacity="0.85"/>
<stop offset="1" stop-color="#B6D5EC"/>
</linearGradient>
<linearGradient id="paint6_linear_1175_1006" x1="351.107" y1="79.1286" x2="351.107" y2="-2.33192" gradientUnits="userSpaceOnUse">
<stop stop-color="#B6D5EC" stop-opacity="0"/>
<stop offset="0.1" stop-color="#B6D5EC" stop-opacity="0.03"/>
<stop offset="0.23" stop-color="#B6D5EC" stop-opacity="0.1"/>
<stop offset="0.38" stop-color="#B6D5EC" stop-opacity="0.22"/>
<stop offset="0.54" stop-color="#B6D5EC" stop-opacity="0.38"/>
<stop offset="0.72" stop-color="#B6D5EC" stop-opacity="0.59"/>
<stop offset="0.9" stop-color="#B6D5EC" stop-opacity="0.85"/>
<stop offset="1" stop-color="#B6D5EC"/>
</linearGradient>
<linearGradient id="paint7_linear_1175_1006" x1="351.106" y1="79.1292" x2="351.106" y2="-2.3313" gradientUnits="userSpaceOnUse">
<stop stop-color="#B6D5EC" stop-opacity="0"/>
<stop offset="0.1" stop-color="#B6D5EC" stop-opacity="0.03"/>
<stop offset="0.23" stop-color="#B6D5EC" stop-opacity="0.1"/>
<stop offset="0.38" stop-color="#B6D5EC" stop-opacity="0.22"/>
<stop offset="0.54" stop-color="#B6D5EC" stop-opacity="0.38"/>
<stop offset="0.72" stop-color="#B6D5EC" stop-opacity="0.59"/>
<stop offset="0.9" stop-color="#B6D5EC" stop-opacity="0.85"/>
<stop offset="1" stop-color="#B6D5EC"/>
</linearGradient>
<linearGradient id="paint8_linear_1175_1006" x1="351.106" y1="79.1283" x2="351.106" y2="-2.33226" gradientUnits="userSpaceOnUse">
<stop stop-color="#B6D5EC" stop-opacity="0"/>
<stop offset="0.1" stop-color="#B6D5EC" stop-opacity="0.03"/>
<stop offset="0.23" stop-color="#B6D5EC" stop-opacity="0.1"/>
<stop offset="0.38" stop-color="#B6D5EC" stop-opacity="0.22"/>
<stop offset="0.54" stop-color="#B6D5EC" stop-opacity="0.38"/>
<stop offset="0.72" stop-color="#B6D5EC" stop-opacity="0.59"/>
<stop offset="0.9" stop-color="#B6D5EC" stop-opacity="0.85"/>
<stop offset="1" stop-color="#B6D5EC"/>
</linearGradient>
<linearGradient id="paint9_linear_1175_1006" x1="351.107" y1="79.1289" x2="351.107" y2="-2.33162" gradientUnits="userSpaceOnUse">
<stop stop-color="#B6D5EC" stop-opacity="0"/>
<stop offset="0.1" stop-color="#B6D5EC" stop-opacity="0.03"/>
<stop offset="0.23" stop-color="#B6D5EC" stop-opacity="0.1"/>
<stop offset="0.38" stop-color="#B6D5EC" stop-opacity="0.22"/>
<stop offset="0.54" stop-color="#B6D5EC" stop-opacity="0.38"/>
<stop offset="0.72" stop-color="#B6D5EC" stop-opacity="0.59"/>
<stop offset="0.9" stop-color="#B6D5EC" stop-opacity="0.85"/>
<stop offset="1" stop-color="#B6D5EC"/>
</linearGradient>
<linearGradient id="paint10_linear_1175_1006" x1="351.107" y1="79.1295" x2="351.107" y2="-2.33101" gradientUnits="userSpaceOnUse">
<stop stop-color="#B6D5EC" stop-opacity="0"/>
<stop offset="0.1" stop-color="#B6D5EC" stop-opacity="0.03"/>
<stop offset="0.23" stop-color="#B6D5EC" stop-opacity="0.1"/>
<stop offset="0.38" stop-color="#B6D5EC" stop-opacity="0.22"/>
<stop offset="0.54" stop-color="#B6D5EC" stop-opacity="0.38"/>
<stop offset="0.72" stop-color="#B6D5EC" stop-opacity="0.59"/>
<stop offset="0.9" stop-color="#B6D5EC" stop-opacity="0.85"/>
<stop offset="1" stop-color="#B6D5EC"/>
</linearGradient>
<linearGradient id="paint11_linear_1175_1006" x1="351.106" y1="79.1286" x2="351.106" y2="-2.33193" gradientUnits="userSpaceOnUse">
<stop stop-color="#B6D5EC" stop-opacity="0"/>
<stop offset="0.1" stop-color="#B6D5EC" stop-opacity="0.03"/>
<stop offset="0.23" stop-color="#B6D5EC" stop-opacity="0.1"/>
<stop offset="0.38" stop-color="#B6D5EC" stop-opacity="0.22"/>
<stop offset="0.54" stop-color="#B6D5EC" stop-opacity="0.38"/>
<stop offset="0.72" stop-color="#B6D5EC" stop-opacity="0.59"/>
<stop offset="0.9" stop-color="#B6D5EC" stop-opacity="0.85"/>
<stop offset="1" stop-color="#B6D5EC"/>
</linearGradient>
<linearGradient id="paint12_linear_1175_1006" x1="351.106" y1="79.1292" x2="351.106" y2="-2.33129" gradientUnits="userSpaceOnUse">
<stop stop-color="#B6D5EC" stop-opacity="0"/>
<stop offset="0.1" stop-color="#B6D5EC" stop-opacity="0.03"/>
<stop offset="0.23" stop-color="#B6D5EC" stop-opacity="0.1"/>
<stop offset="0.38" stop-color="#B6D5EC" stop-opacity="0.22"/>
<stop offset="0.54" stop-color="#B6D5EC" stop-opacity="0.38"/>
<stop offset="0.72" stop-color="#B6D5EC" stop-opacity="0.59"/>
<stop offset="0.9" stop-color="#B6D5EC" stop-opacity="0.85"/>
<stop offset="1" stop-color="#B6D5EC"/>
</linearGradient>
<linearGradient id="paint13_linear_1175_1006" x1="351.107" y1="79.1282" x2="351.107" y2="-2.33218" gradientUnits="userSpaceOnUse">
<stop stop-color="#B6D5EC" stop-opacity="0"/>
<stop offset="0.1" stop-color="#B6D5EC" stop-opacity="0.03"/>
<stop offset="0.23" stop-color="#B6D5EC" stop-opacity="0.1"/>
<stop offset="0.38" stop-color="#B6D5EC" stop-opacity="0.22"/>
<stop offset="0.54" stop-color="#B6D5EC" stop-opacity="0.38"/>
<stop offset="0.72" stop-color="#B6D5EC" stop-opacity="0.59"/>
<stop offset="0.9" stop-color="#B6D5EC" stop-opacity="0.85"/>
<stop offset="1" stop-color="#B6D5EC"/>
</linearGradient>
<linearGradient id="paint14_linear_1175_1006" x1="351.106" y1="79.1289" x2="351.106" y2="-2.3316" gradientUnits="userSpaceOnUse">
<stop stop-color="#B6D5EC" stop-opacity="0"/>
<stop offset="0.1" stop-color="#B6D5EC" stop-opacity="0.03"/>
<stop offset="0.23" stop-color="#B6D5EC" stop-opacity="0.1"/>
<stop offset="0.38" stop-color="#B6D5EC" stop-opacity="0.22"/>
<stop offset="0.54" stop-color="#B6D5EC" stop-opacity="0.38"/>
<stop offset="0.72" stop-color="#B6D5EC" stop-opacity="0.59"/>
<stop offset="0.9" stop-color="#B6D5EC" stop-opacity="0.85"/>
<stop offset="1" stop-color="#B6D5EC"/>
</linearGradient>
<linearGradient id="paint15_linear_1175_1006" x1="195.064" y1="79.128" x2="195.064" y2="-2.33256" gradientUnits="userSpaceOnUse">
<stop stop-color="#B6D5EC" stop-opacity="0"/>
<stop offset="0.1" stop-color="#B6D5EC" stop-opacity="0.03"/>
<stop offset="0.23" stop-color="#B6D5EC" stop-opacity="0.1"/>
<stop offset="0.38" stop-color="#B6D5EC" stop-opacity="0.22"/>
<stop offset="0.54" stop-color="#B6D5EC" stop-opacity="0.38"/>
<stop offset="0.72" stop-color="#B6D5EC" stop-opacity="0.59"/>
<stop offset="0.9" stop-color="#B6D5EC" stop-opacity="0.85"/>
<stop offset="1" stop-color="#B6D5EC"/>
</linearGradient>
<linearGradient id="paint16_linear_1175_1006" x1="195.063" y1="79.1286" x2="195.063" y2="-2.33191" gradientUnits="userSpaceOnUse">
<stop stop-color="#B6D5EC" stop-opacity="0"/>
<stop offset="0.1" stop-color="#B6D5EC" stop-opacity="0.03"/>
<stop offset="0.23" stop-color="#B6D5EC" stop-opacity="0.1"/>
<stop offset="0.38" stop-color="#B6D5EC" stop-opacity="0.22"/>
<stop offset="0.54" stop-color="#B6D5EC" stop-opacity="0.38"/>
<stop offset="0.72" stop-color="#B6D5EC" stop-opacity="0.59"/>
<stop offset="0.9" stop-color="#B6D5EC" stop-opacity="0.85"/>
<stop offset="1" stop-color="#B6D5EC"/>
</linearGradient>
<linearGradient id="paint17_linear_1175_1006" x1="195.063" y1="79.1276" x2="195.063" y2="-2.33288" gradientUnits="userSpaceOnUse">
<stop stop-color="#B6D5EC" stop-opacity="0"/>
<stop offset="0.1" stop-color="#B6D5EC" stop-opacity="0.03"/>
<stop offset="0.23" stop-color="#B6D5EC" stop-opacity="0.1"/>
<stop offset="0.38" stop-color="#B6D5EC" stop-opacity="0.22"/>
<stop offset="0.54" stop-color="#B6D5EC" stop-opacity="0.38"/>
<stop offset="0.72" stop-color="#B6D5EC" stop-opacity="0.59"/>
<stop offset="0.9" stop-color="#B6D5EC" stop-opacity="0.85"/>
<stop offset="1" stop-color="#B6D5EC"/>
</linearGradient>
<linearGradient id="paint18_linear_1175_1006" x1="195.064" y1="79.1283" x2="195.064" y2="-2.33224" gradientUnits="userSpaceOnUse">
<stop stop-color="#B6D5EC" stop-opacity="0"/>
<stop offset="0.1" stop-color="#B6D5EC" stop-opacity="0.03"/>
<stop offset="0.23" stop-color="#B6D5EC" stop-opacity="0.1"/>
<stop offset="0.38" stop-color="#B6D5EC" stop-opacity="0.22"/>
<stop offset="0.54" stop-color="#B6D5EC" stop-opacity="0.38"/>
<stop offset="0.72" stop-color="#B6D5EC" stop-opacity="0.59"/>
<stop offset="0.9" stop-color="#B6D5EC" stop-opacity="0.85"/>
<stop offset="1" stop-color="#B6D5EC"/>
</linearGradient>
<linearGradient id="paint19_linear_1175_1006" x1="195.063" y1="79.1289" x2="195.063" y2="-2.3316" gradientUnits="userSpaceOnUse">
<stop stop-color="#B6D5EC" stop-opacity="0"/>
<stop offset="0.1" stop-color="#B6D5EC" stop-opacity="0.03"/>
<stop offset="0.23" stop-color="#B6D5EC" stop-opacity="0.1"/>
<stop offset="0.38" stop-color="#B6D5EC" stop-opacity="0.22"/>
<stop offset="0.54" stop-color="#B6D5EC" stop-opacity="0.38"/>
<stop offset="0.72" stop-color="#B6D5EC" stop-opacity="0.59"/>
<stop offset="0.9" stop-color="#B6D5EC" stop-opacity="0.85"/>
<stop offset="1" stop-color="#B6D5EC"/>
</linearGradient>
<linearGradient id="paint20_linear_1175_1006" x1="195.063" y1="79.1279" x2="195.063" y2="-2.33256" gradientUnits="userSpaceOnUse">
<stop stop-color="#B6D5EC" stop-opacity="0"/>
<stop offset="0.1" stop-color="#B6D5EC" stop-opacity="0.03"/>
<stop offset="0.23" stop-color="#B6D5EC" stop-opacity="0.1"/>
<stop offset="0.38" stop-color="#B6D5EC" stop-opacity="0.22"/>
<stop offset="0.54" stop-color="#B6D5EC" stop-opacity="0.38"/>
<stop offset="0.72" stop-color="#B6D5EC" stop-opacity="0.59"/>
<stop offset="0.9" stop-color="#B6D5EC" stop-opacity="0.85"/>
<stop offset="1" stop-color="#B6D5EC"/>
</linearGradient>
<linearGradient id="paint21_linear_1175_1006" x1="195.064" y1="79.1286" x2="195.064" y2="-2.33192" gradientUnits="userSpaceOnUse">
<stop stop-color="#B6D5EC" stop-opacity="0"/>
<stop offset="0.1" stop-color="#B6D5EC" stop-opacity="0.03"/>
<stop offset="0.23" stop-color="#B6D5EC" stop-opacity="0.1"/>
<stop offset="0.38" stop-color="#B6D5EC" stop-opacity="0.22"/>
<stop offset="0.54" stop-color="#B6D5EC" stop-opacity="0.38"/>
<stop offset="0.72" stop-color="#B6D5EC" stop-opacity="0.59"/>
<stop offset="0.9" stop-color="#B6D5EC" stop-opacity="0.85"/>
<stop offset="1" stop-color="#B6D5EC"/>
</linearGradient>
<linearGradient id="paint22_linear_1175_1006" x1="195.063" y1="79.1292" x2="195.063" y2="-2.3313" gradientUnits="userSpaceOnUse">
<stop stop-color="#B6D5EC" stop-opacity="0"/>
<stop offset="0.1" stop-color="#B6D5EC" stop-opacity="0.03"/>
<stop offset="0.23" stop-color="#B6D5EC" stop-opacity="0.1"/>
<stop offset="0.38" stop-color="#B6D5EC" stop-opacity="0.22"/>
<stop offset="0.54" stop-color="#B6D5EC" stop-opacity="0.38"/>
<stop offset="0.72" stop-color="#B6D5EC" stop-opacity="0.59"/>
<stop offset="0.9" stop-color="#B6D5EC" stop-opacity="0.85"/>
<stop offset="1" stop-color="#B6D5EC"/>
</linearGradient>
<linearGradient id="paint23_linear_1175_1006" x1="195.063" y1="79.1283" x2="195.063" y2="-2.33226" gradientUnits="userSpaceOnUse">
<stop stop-color="#B6D5EC" stop-opacity="0"/>
<stop offset="0.1" stop-color="#B6D5EC" stop-opacity="0.03"/>
<stop offset="0.23" stop-color="#B6D5EC" stop-opacity="0.1"/>
<stop offset="0.38" stop-color="#B6D5EC" stop-opacity="0.22"/>
<stop offset="0.54" stop-color="#B6D5EC" stop-opacity="0.38"/>
<stop offset="0.72" stop-color="#B6D5EC" stop-opacity="0.59"/>
<stop offset="0.9" stop-color="#B6D5EC" stop-opacity="0.85"/>
<stop offset="1" stop-color="#B6D5EC"/>
</linearGradient>
<linearGradient id="paint24_linear_1175_1006" x1="195.064" y1="79.1289" x2="195.064" y2="-2.33162" gradientUnits="userSpaceOnUse">
<stop stop-color="#B6D5EC" stop-opacity="0"/>
<stop offset="0.1" stop-color="#B6D5EC" stop-opacity="0.03"/>
<stop offset="0.23" stop-color="#B6D5EC" stop-opacity="0.1"/>
<stop offset="0.38" stop-color="#B6D5EC" stop-opacity="0.22"/>
<stop offset="0.54" stop-color="#B6D5EC" stop-opacity="0.38"/>
<stop offset="0.72" stop-color="#B6D5EC" stop-opacity="0.59"/>
<stop offset="0.9" stop-color="#B6D5EC" stop-opacity="0.85"/>
<stop offset="1" stop-color="#B6D5EC"/>
</linearGradient>
<linearGradient id="paint25_linear_1175_1006" x1="195.064" y1="79.1295" x2="195.064" y2="-2.33101" gradientUnits="userSpaceOnUse">
<stop stop-color="#B6D5EC" stop-opacity="0"/>
<stop offset="0.1" stop-color="#B6D5EC" stop-opacity="0.03"/>
<stop offset="0.23" stop-color="#B6D5EC" stop-opacity="0.1"/>
<stop offset="0.38" stop-color="#B6D5EC" stop-opacity="0.22"/>
<stop offset="0.54" stop-color="#B6D5EC" stop-opacity="0.38"/>
<stop offset="0.72" stop-color="#B6D5EC" stop-opacity="0.59"/>
<stop offset="0.9" stop-color="#B6D5EC" stop-opacity="0.85"/>
<stop offset="1" stop-color="#B6D5EC"/>
</linearGradient>
<linearGradient id="paint26_linear_1175_1006" x1="195.063" y1="79.1286" x2="195.063" y2="-2.33193" gradientUnits="userSpaceOnUse">
<stop stop-color="#B6D5EC" stop-opacity="0"/>
<stop offset="0.1" stop-color="#B6D5EC" stop-opacity="0.03"/>
<stop offset="0.23" stop-color="#B6D5EC" stop-opacity="0.1"/>
<stop offset="0.38" stop-color="#B6D5EC" stop-opacity="0.22"/>
<stop offset="0.54" stop-color="#B6D5EC" stop-opacity="0.38"/>
<stop offset="0.72" stop-color="#B6D5EC" stop-opacity="0.59"/>
<stop offset="0.9" stop-color="#B6D5EC" stop-opacity="0.85"/>
<stop offset="1" stop-color="#B6D5EC"/>
</linearGradient>
<linearGradient id="paint27_linear_1175_1006" x1="195.063" y1="79.1292" x2="195.063" y2="-2.33129" gradientUnits="userSpaceOnUse">
<stop stop-color="#B6D5EC" stop-opacity="0"/>
<stop offset="0.1" stop-color="#B6D5EC" stop-opacity="0.03"/>
<stop offset="0.23" stop-color="#B6D5EC" stop-opacity="0.1"/>
<stop offset="0.38" stop-color="#B6D5EC" stop-opacity="0.22"/>
<stop offset="0.54" stop-color="#B6D5EC" stop-opacity="0.38"/>
<stop offset="0.72" stop-color="#B6D5EC" stop-opacity="0.59"/>
<stop offset="0.9" stop-color="#B6D5EC" stop-opacity="0.85"/>
<stop offset="1" stop-color="#B6D5EC"/>
</linearGradient>
<linearGradient id="paint28_linear_1175_1006" x1="195.064" y1="79.1279" x2="195.064" y2="-2.33261" gradientUnits="userSpaceOnUse">
<stop stop-color="#B6D5EC" stop-opacity="0"/>
<stop offset="0.1" stop-color="#B6D5EC" stop-opacity="0.03"/>
<stop offset="0.23" stop-color="#B6D5EC" stop-opacity="0.1"/>
<stop offset="0.38" stop-color="#B6D5EC" stop-opacity="0.22"/>
<stop offset="0.54" stop-color="#B6D5EC" stop-opacity="0.38"/>
<stop offset="0.72" stop-color="#B6D5EC" stop-opacity="0.59"/>
<stop offset="0.9" stop-color="#B6D5EC" stop-opacity="0.85"/>
<stop offset="1" stop-color="#B6D5EC"/>
</linearGradient>
<linearGradient id="paint29_linear_1175_1006" x1="195.063" y1="79.1289" x2="195.063" y2="-2.3316" gradientUnits="userSpaceOnUse">
<stop stop-color="#B6D5EC" stop-opacity="0"/>
<stop offset="0.1" stop-color="#B6D5EC" stop-opacity="0.03"/>
<stop offset="0.23" stop-color="#B6D5EC" stop-opacity="0.1"/>
<stop offset="0.38" stop-color="#B6D5EC" stop-opacity="0.22"/>
<stop offset="0.54" stop-color="#B6D5EC" stop-opacity="0.38"/>
<stop offset="0.72" stop-color="#B6D5EC" stop-opacity="0.59"/>
<stop offset="0.9" stop-color="#B6D5EC" stop-opacity="0.85"/>
<stop offset="1" stop-color="#B6D5EC"/>
</linearGradient>
<linearGradient id="paint30_linear_1175_1006" x1="273.085" y1="79.1289" x2="273.085" y2="-2.33161" gradientUnits="userSpaceOnUse">
<stop stop-color="#B6D5EC" stop-opacity="0"/>
<stop offset="0.1" stop-color="#B6D5EC" stop-opacity="0.03"/>
<stop offset="0.23" stop-color="#B6D5EC" stop-opacity="0.1"/>
<stop offset="0.38" stop-color="#B6D5EC" stop-opacity="0.22"/>
<stop offset="0.54" stop-color="#B6D5EC" stop-opacity="0.38"/>
<stop offset="0.72" stop-color="#B6D5EC" stop-opacity="0.59"/>
<stop offset="0.9" stop-color="#B6D5EC" stop-opacity="0.85"/>
<stop offset="1" stop-color="#B6D5EC"/>
</linearGradient>
<linearGradient id="paint31_linear_1175_1006" x1="273.085" y1="79.1276" x2="273.085" y2="-2.33289" gradientUnits="userSpaceOnUse">
<stop stop-color="#B6D5EC" stop-opacity="0"/>
<stop offset="0.1" stop-color="#B6D5EC" stop-opacity="0.03"/>
<stop offset="0.23" stop-color="#B6D5EC" stop-opacity="0.1"/>
<stop offset="0.38" stop-color="#B6D5EC" stop-opacity="0.22"/>
<stop offset="0.54" stop-color="#B6D5EC" stop-opacity="0.38"/>
<stop offset="0.72" stop-color="#B6D5EC" stop-opacity="0.59"/>
<stop offset="0.9" stop-color="#B6D5EC" stop-opacity="0.85"/>
<stop offset="1" stop-color="#B6D5EC"/>
</linearGradient>
<linearGradient id="paint32_linear_1175_1006" x1="273.085" y1="79.1279" x2="273.085" y2="-2.33256" gradientUnits="userSpaceOnUse">
<stop stop-color="#B6D5EC" stop-opacity="0"/>
<stop offset="0.1" stop-color="#B6D5EC" stop-opacity="0.03"/>
<stop offset="0.23" stop-color="#B6D5EC" stop-opacity="0.1"/>
<stop offset="0.38" stop-color="#B6D5EC" stop-opacity="0.22"/>
<stop offset="0.54" stop-color="#B6D5EC" stop-opacity="0.38"/>
<stop offset="0.72" stop-color="#B6D5EC" stop-opacity="0.59"/>
<stop offset="0.9" stop-color="#B6D5EC" stop-opacity="0.85"/>
<stop offset="1" stop-color="#B6D5EC"/>
</linearGradient>
<linearGradient id="paint33_linear_1175_1006" x1="273.085" y1="79.1286" x2="273.085" y2="-2.33187" gradientUnits="userSpaceOnUse">
<stop stop-color="#B6D5EC" stop-opacity="0"/>
<stop offset="0.1" stop-color="#B6D5EC" stop-opacity="0.03"/>
<stop offset="0.23" stop-color="#B6D5EC" stop-opacity="0.1"/>
<stop offset="0.38" stop-color="#B6D5EC" stop-opacity="0.22"/>
<stop offset="0.54" stop-color="#B6D5EC" stop-opacity="0.38"/>
<stop offset="0.72" stop-color="#B6D5EC" stop-opacity="0.59"/>
<stop offset="0.9" stop-color="#B6D5EC" stop-opacity="0.85"/>
<stop offset="1" stop-color="#B6D5EC"/>
</linearGradient>
<linearGradient id="paint34_linear_1175_1006" x1="273.085" y1="79.129" x2="273.085" y2="-2.33156" gradientUnits="userSpaceOnUse">
<stop stop-color="#B6D5EC" stop-opacity="0"/>
<stop offset="0.1" stop-color="#B6D5EC" stop-opacity="0.03"/>
<stop offset="0.23" stop-color="#B6D5EC" stop-opacity="0.1"/>
<stop offset="0.38" stop-color="#B6D5EC" stop-opacity="0.22"/>
<stop offset="0.54" stop-color="#B6D5EC" stop-opacity="0.38"/>
<stop offset="0.72" stop-color="#B6D5EC" stop-opacity="0.59"/>
<stop offset="0.9" stop-color="#B6D5EC" stop-opacity="0.85"/>
<stop offset="1" stop-color="#B6D5EC"/>
</linearGradient>
<linearGradient id="paint35_linear_1175_1006" x1="273.085" y1="79.1293" x2="273.085" y2="-2.33123" gradientUnits="userSpaceOnUse">
<stop stop-color="#B6D5EC" stop-opacity="0"/>
<stop offset="0.1" stop-color="#B6D5EC" stop-opacity="0.03"/>
<stop offset="0.23" stop-color="#B6D5EC" stop-opacity="0.1"/>
<stop offset="0.38" stop-color="#B6D5EC" stop-opacity="0.22"/>
<stop offset="0.54" stop-color="#B6D5EC" stop-opacity="0.38"/>
<stop offset="0.72" stop-color="#B6D5EC" stop-opacity="0.59"/>
<stop offset="0.9" stop-color="#B6D5EC" stop-opacity="0.85"/>
<stop offset="1" stop-color="#B6D5EC"/>
</linearGradient>
<linearGradient id="paint36_linear_1175_1006" x1="273.085" y1="79.128" x2="273.085" y2="-2.3325" gradientUnits="userSpaceOnUse">
<stop stop-color="#B6D5EC" stop-opacity="0"/>
<stop offset="0.1" stop-color="#B6D5EC" stop-opacity="0.03"/>
<stop offset="0.23" stop-color="#B6D5EC" stop-opacity="0.1"/>
<stop offset="0.38" stop-color="#B6D5EC" stop-opacity="0.22"/>
<stop offset="0.54" stop-color="#B6D5EC" stop-opacity="0.38"/>
<stop offset="0.72" stop-color="#B6D5EC" stop-opacity="0.59"/>
<stop offset="0.9" stop-color="#B6D5EC" stop-opacity="0.85"/>
<stop offset="1" stop-color="#B6D5EC"/>
</linearGradient>
<linearGradient id="paint37_linear_1175_1006" x1="273.085" y1="79.1283" x2="273.085" y2="-2.33218" gradientUnits="userSpaceOnUse">
<stop stop-color="#B6D5EC" stop-opacity="0"/>
<stop offset="0.1" stop-color="#B6D5EC" stop-opacity="0.03"/>
<stop offset="0.23" stop-color="#B6D5EC" stop-opacity="0.1"/>
<stop offset="0.38" stop-color="#B6D5EC" stop-opacity="0.22"/>
<stop offset="0.54" stop-color="#B6D5EC" stop-opacity="0.38"/>
<stop offset="0.72" stop-color="#B6D5EC" stop-opacity="0.59"/>
<stop offset="0.9" stop-color="#B6D5EC" stop-opacity="0.85"/>
<stop offset="1" stop-color="#B6D5EC"/>
</linearGradient>
<linearGradient id="paint38_linear_1175_1006" x1="273.085" y1="79.129" x2="273.085" y2="-2.3315" gradientUnits="userSpaceOnUse">
<stop stop-color="#B6D5EC" stop-opacity="0"/>
<stop offset="0.1" stop-color="#B6D5EC" stop-opacity="0.03"/>
<stop offset="0.23" stop-color="#B6D5EC" stop-opacity="0.1"/>
<stop offset="0.38" stop-color="#B6D5EC" stop-opacity="0.22"/>
<stop offset="0.54" stop-color="#B6D5EC" stop-opacity="0.38"/>
<stop offset="0.72" stop-color="#B6D5EC" stop-opacity="0.59"/>
<stop offset="0.9" stop-color="#B6D5EC" stop-opacity="0.85"/>
<stop offset="1" stop-color="#B6D5EC"/>
</linearGradient>
<linearGradient id="paint39_linear_1175_1006" x1="273.085" y1="79.1293" x2="273.085" y2="-2.33117" gradientUnits="userSpaceOnUse">
<stop stop-color="#B6D5EC" stop-opacity="0"/>
<stop offset="0.1" stop-color="#B6D5EC" stop-opacity="0.03"/>
<stop offset="0.23" stop-color="#B6D5EC" stop-opacity="0.1"/>
<stop offset="0.38" stop-color="#B6D5EC" stop-opacity="0.22"/>
<stop offset="0.54" stop-color="#B6D5EC" stop-opacity="0.38"/>
<stop offset="0.72" stop-color="#B6D5EC" stop-opacity="0.59"/>
<stop offset="0.9" stop-color="#B6D5EC" stop-opacity="0.85"/>
<stop offset="1" stop-color="#B6D5EC"/>
</linearGradient>
<linearGradient id="paint40_linear_1175_1006" x1="273.085" y1="79.1277" x2="273.085" y2="-2.3328" gradientUnits="userSpaceOnUse">
<stop stop-color="#B6D5EC" stop-opacity="0"/>
<stop offset="0.1" stop-color="#B6D5EC" stop-opacity="0.03"/>
<stop offset="0.23" stop-color="#B6D5EC" stop-opacity="0.1"/>
<stop offset="0.38" stop-color="#B6D5EC" stop-opacity="0.22"/>
<stop offset="0.54" stop-color="#B6D5EC" stop-opacity="0.38"/>
<stop offset="0.72" stop-color="#B6D5EC" stop-opacity="0.59"/>
<stop offset="0.9" stop-color="#B6D5EC" stop-opacity="0.85"/>
<stop offset="1" stop-color="#B6D5EC"/>
</linearGradient>
<linearGradient id="paint41_linear_1175_1006" x1="273.085" y1="79.1284" x2="273.085" y2="-2.33212" gradientUnits="userSpaceOnUse">
<stop stop-color="#B6D5EC" stop-opacity="0"/>
<stop offset="0.1" stop-color="#B6D5EC" stop-opacity="0.03"/>
<stop offset="0.23" stop-color="#B6D5EC" stop-opacity="0.1"/>
<stop offset="0.38" stop-color="#B6D5EC" stop-opacity="0.22"/>
<stop offset="0.54" stop-color="#B6D5EC" stop-opacity="0.38"/>
<stop offset="0.72" stop-color="#B6D5EC" stop-opacity="0.59"/>
<stop offset="0.9" stop-color="#B6D5EC" stop-opacity="0.85"/>
<stop offset="1" stop-color="#B6D5EC"/>
</linearGradient>
<linearGradient id="paint42_linear_1175_1006" x1="273.085" y1="79.1287" x2="273.085" y2="-2.33179" gradientUnits="userSpaceOnUse">
<stop stop-color="#B6D5EC" stop-opacity="0"/>
<stop offset="0.1" stop-color="#B6D5EC" stop-opacity="0.03"/>
<stop offset="0.23" stop-color="#B6D5EC" stop-opacity="0.1"/>
<stop offset="0.38" stop-color="#B6D5EC" stop-opacity="0.22"/>
<stop offset="0.54" stop-color="#B6D5EC" stop-opacity="0.38"/>
<stop offset="0.72" stop-color="#B6D5EC" stop-opacity="0.59"/>
<stop offset="0.9" stop-color="#B6D5EC" stop-opacity="0.85"/>
<stop offset="1" stop-color="#B6D5EC"/>
</linearGradient>
<linearGradient id="paint43_linear_1175_1006" x1="273.085" y1="79.1274" x2="273.085" y2="-2.33306" gradientUnits="userSpaceOnUse">
<stop stop-color="#B6D5EC" stop-opacity="0"/>
<stop offset="0.1" stop-color="#B6D5EC" stop-opacity="0.03"/>
<stop offset="0.23" stop-color="#B6D5EC" stop-opacity="0.1"/>
<stop offset="0.38" stop-color="#B6D5EC" stop-opacity="0.22"/>
<stop offset="0.54" stop-color="#B6D5EC" stop-opacity="0.38"/>
<stop offset="0.72" stop-color="#B6D5EC" stop-opacity="0.59"/>
<stop offset="0.9" stop-color="#B6D5EC" stop-opacity="0.85"/>
<stop offset="1" stop-color="#B6D5EC"/>
</linearGradient>
<linearGradient id="paint44_linear_1175_1006" x1="273.085" y1="79.1278" x2="273.085" y2="-2.33274" gradientUnits="userSpaceOnUse">
<stop stop-color="#B6D5EC" stop-opacity="0"/>
<stop offset="0.1" stop-color="#B6D5EC" stop-opacity="0.03"/>
<stop offset="0.23" stop-color="#B6D5EC" stop-opacity="0.1"/>
<stop offset="0.38" stop-color="#B6D5EC" stop-opacity="0.22"/>
<stop offset="0.54" stop-color="#B6D5EC" stop-opacity="0.38"/>
<stop offset="0.72" stop-color="#B6D5EC" stop-opacity="0.59"/>
<stop offset="0.9" stop-color="#B6D5EC" stop-opacity="0.85"/>
<stop offset="1" stop-color="#B6D5EC"/>
</linearGradient>
<linearGradient id="paint45_linear_1175_1006" x1="39.0253" y1="79.128" x2="39.0253" y2="-2.33256" gradientUnits="userSpaceOnUse">
<stop stop-color="#B6D5EC" stop-opacity="0"/>
<stop offset="0.1" stop-color="#B6D5EC" stop-opacity="0.03"/>
<stop offset="0.23" stop-color="#B6D5EC" stop-opacity="0.1"/>
<stop offset="0.38" stop-color="#B6D5EC" stop-opacity="0.22"/>
<stop offset="0.54" stop-color="#B6D5EC" stop-opacity="0.38"/>
<stop offset="0.72" stop-color="#B6D5EC" stop-opacity="0.59"/>
<stop offset="0.9" stop-color="#B6D5EC" stop-opacity="0.85"/>
<stop offset="1" stop-color="#B6D5EC"/>
</linearGradient>
<linearGradient id="paint46_linear_1175_1006" x1="39.0251" y1="79.1286" x2="39.0251" y2="-2.33191" gradientUnits="userSpaceOnUse">
<stop stop-color="#B6D5EC" stop-opacity="0"/>
<stop offset="0.1" stop-color="#B6D5EC" stop-opacity="0.03"/>
<stop offset="0.23" stop-color="#B6D5EC" stop-opacity="0.1"/>
<stop offset="0.38" stop-color="#B6D5EC" stop-opacity="0.22"/>
<stop offset="0.54" stop-color="#B6D5EC" stop-opacity="0.38"/>
<stop offset="0.72" stop-color="#B6D5EC" stop-opacity="0.59"/>
<stop offset="0.9" stop-color="#B6D5EC" stop-opacity="0.85"/>
<stop offset="1" stop-color="#B6D5EC"/>
</linearGradient>
<linearGradient id="paint47_linear_1175_1006" x1="39.0251" y1="79.1276" x2="39.0251" y2="-2.33288" gradientUnits="userSpaceOnUse">
<stop stop-color="#B6D5EC" stop-opacity="0"/>
<stop offset="0.1" stop-color="#B6D5EC" stop-opacity="0.03"/>
<stop offset="0.23" stop-color="#B6D5EC" stop-opacity="0.1"/>
<stop offset="0.38" stop-color="#B6D5EC" stop-opacity="0.22"/>
<stop offset="0.54" stop-color="#B6D5EC" stop-opacity="0.38"/>
<stop offset="0.72" stop-color="#B6D5EC" stop-opacity="0.59"/>
<stop offset="0.9" stop-color="#B6D5EC" stop-opacity="0.85"/>
<stop offset="1" stop-color="#B6D5EC"/>
</linearGradient>
<linearGradient id="paint48_linear_1175_1006" x1="39.0253" y1="79.1283" x2="39.0253" y2="-2.33224" gradientUnits="userSpaceOnUse">
<stop stop-color="#B6D5EC" stop-opacity="0"/>
<stop offset="0.1" stop-color="#B6D5EC" stop-opacity="0.03"/>
<stop offset="0.23" stop-color="#B6D5EC" stop-opacity="0.1"/>
<stop offset="0.38" stop-color="#B6D5EC" stop-opacity="0.22"/>
<stop offset="0.54" stop-color="#B6D5EC" stop-opacity="0.38"/>
<stop offset="0.72" stop-color="#B6D5EC" stop-opacity="0.59"/>
<stop offset="0.9" stop-color="#B6D5EC" stop-opacity="0.85"/>
<stop offset="1" stop-color="#B6D5EC"/>
</linearGradient>
<linearGradient id="paint49_linear_1175_1006" x1="39.0251" y1="79.1289" x2="39.0251" y2="-2.3316" gradientUnits="userSpaceOnUse">
<stop stop-color="#B6D5EC" stop-opacity="0"/>
<stop offset="0.1" stop-color="#B6D5EC" stop-opacity="0.03"/>
<stop offset="0.23" stop-color="#B6D5EC" stop-opacity="0.1"/>
<stop offset="0.38" stop-color="#B6D5EC" stop-opacity="0.22"/>
<stop offset="0.54" stop-color="#B6D5EC" stop-opacity="0.38"/>
<stop offset="0.72" stop-color="#B6D5EC" stop-opacity="0.59"/>
<stop offset="0.9" stop-color="#B6D5EC" stop-opacity="0.85"/>
<stop offset="1" stop-color="#B6D5EC"/>
</linearGradient>
<linearGradient id="paint50_linear_1175_1006" x1="39.0251" y1="79.1279" x2="39.0251" y2="-2.33256" gradientUnits="userSpaceOnUse">
<stop stop-color="#B6D5EC" stop-opacity="0"/>
<stop offset="0.1" stop-color="#B6D5EC" stop-opacity="0.03"/>
<stop offset="0.23" stop-color="#B6D5EC" stop-opacity="0.1"/>
<stop offset="0.38" stop-color="#B6D5EC" stop-opacity="0.22"/>
<stop offset="0.54" stop-color="#B6D5EC" stop-opacity="0.38"/>
<stop offset="0.72" stop-color="#B6D5EC" stop-opacity="0.59"/>
<stop offset="0.9" stop-color="#B6D5EC" stop-opacity="0.85"/>
<stop offset="1" stop-color="#B6D5EC"/>
</linearGradient>
<linearGradient id="paint51_linear_1175_1006" x1="39.0251" y1="79.1286" x2="39.0251" y2="-2.33192" gradientUnits="userSpaceOnUse">
<stop stop-color="#B6D5EC" stop-opacity="0"/>
<stop offset="0.1" stop-color="#B6D5EC" stop-opacity="0.03"/>
<stop offset="0.23" stop-color="#B6D5EC" stop-opacity="0.1"/>
<stop offset="0.38" stop-color="#B6D5EC" stop-opacity="0.22"/>
<stop offset="0.54" stop-color="#B6D5EC" stop-opacity="0.38"/>
<stop offset="0.72" stop-color="#B6D5EC" stop-opacity="0.59"/>
<stop offset="0.9" stop-color="#B6D5EC" stop-opacity="0.85"/>
<stop offset="1" stop-color="#B6D5EC"/>
</linearGradient>
<linearGradient id="paint52_linear_1175_1006" x1="39.0251" y1="79.1292" x2="39.0251" y2="-2.3313" gradientUnits="userSpaceOnUse">
<stop stop-color="#B6D5EC" stop-opacity="0"/>
<stop offset="0.1" stop-color="#B6D5EC" stop-opacity="0.03"/>
<stop offset="0.23" stop-color="#B6D5EC" stop-opacity="0.1"/>
<stop offset="0.38" stop-color="#B6D5EC" stop-opacity="0.22"/>
<stop offset="0.54" stop-color="#B6D5EC" stop-opacity="0.38"/>
<stop offset="0.72" stop-color="#B6D5EC" stop-opacity="0.59"/>
<stop offset="0.9" stop-color="#B6D5EC" stop-opacity="0.85"/>
<stop offset="1" stop-color="#B6D5EC"/>
</linearGradient>
<linearGradient id="paint53_linear_1175_1006" x1="39.0251" y1="79.1283" x2="39.0251" y2="-2.33226" gradientUnits="userSpaceOnUse">
<stop stop-color="#B6D5EC" stop-opacity="0"/>
<stop offset="0.1" stop-color="#B6D5EC" stop-opacity="0.03"/>
<stop offset="0.23" stop-color="#B6D5EC" stop-opacity="0.1"/>
<stop offset="0.38" stop-color="#B6D5EC" stop-opacity="0.22"/>
<stop offset="0.54" stop-color="#B6D5EC" stop-opacity="0.38"/>
<stop offset="0.72" stop-color="#B6D5EC" stop-opacity="0.59"/>
<stop offset="0.9" stop-color="#B6D5EC" stop-opacity="0.85"/>
<stop offset="1" stop-color="#B6D5EC"/>
</linearGradient>
<linearGradient id="paint54_linear_1175_1006" x1="39.0251" y1="79.1289" x2="39.0251" y2="-2.33162" gradientUnits="userSpaceOnUse">
<stop stop-color="#B6D5EC" stop-opacity="0"/>
<stop offset="0.1" stop-color="#B6D5EC" stop-opacity="0.03"/>
<stop offset="0.23" stop-color="#B6D5EC" stop-opacity="0.1"/>
<stop offset="0.38" stop-color="#B6D5EC" stop-opacity="0.22"/>
<stop offset="0.54" stop-color="#B6D5EC" stop-opacity="0.38"/>
<stop offset="0.72" stop-color="#B6D5EC" stop-opacity="0.59"/>
<stop offset="0.9" stop-color="#B6D5EC" stop-opacity="0.85"/>
<stop offset="1" stop-color="#B6D5EC"/>
</linearGradient>
<linearGradient id="paint55_linear_1175_1006" x1="39.0253" y1="79.1295" x2="39.0253" y2="-2.33101" gradientUnits="userSpaceOnUse">
<stop stop-color="#B6D5EC" stop-opacity="0"/>
<stop offset="0.1" stop-color="#B6D5EC" stop-opacity="0.03"/>
<stop offset="0.23" stop-color="#B6D5EC" stop-opacity="0.1"/>
<stop offset="0.38" stop-color="#B6D5EC" stop-opacity="0.22"/>
<stop offset="0.54" stop-color="#B6D5EC" stop-opacity="0.38"/>
<stop offset="0.72" stop-color="#B6D5EC" stop-opacity="0.59"/>
<stop offset="0.9" stop-color="#B6D5EC" stop-opacity="0.85"/>
<stop offset="1" stop-color="#B6D5EC"/>
</linearGradient>
<linearGradient id="paint56_linear_1175_1006" x1="39.0251" y1="79.1286" x2="39.0251" y2="-2.33193" gradientUnits="userSpaceOnUse">
<stop stop-color="#B6D5EC" stop-opacity="0"/>
<stop offset="0.1" stop-color="#B6D5EC" stop-opacity="0.03"/>
<stop offset="0.23" stop-color="#B6D5EC" stop-opacity="0.1"/>
<stop offset="0.38" stop-color="#B6D5EC" stop-opacity="0.22"/>
<stop offset="0.54" stop-color="#B6D5EC" stop-opacity="0.38"/>
<stop offset="0.72" stop-color="#B6D5EC" stop-opacity="0.59"/>
<stop offset="0.9" stop-color="#B6D5EC" stop-opacity="0.85"/>
<stop offset="1" stop-color="#B6D5EC"/>
</linearGradient>
<linearGradient id="paint57_linear_1175_1006" x1="39.0251" y1="79.1292" x2="39.0251" y2="-2.33129" gradientUnits="userSpaceOnUse">
<stop stop-color="#B6D5EC" stop-opacity="0"/>
<stop offset="0.1" stop-color="#B6D5EC" stop-opacity="0.03"/>
<stop offset="0.23" stop-color="#B6D5EC" stop-opacity="0.1"/>
<stop offset="0.38" stop-color="#B6D5EC" stop-opacity="0.22"/>
<stop offset="0.54" stop-color="#B6D5EC" stop-opacity="0.38"/>
<stop offset="0.72" stop-color="#B6D5EC" stop-opacity="0.59"/>
<stop offset="0.9" stop-color="#B6D5EC" stop-opacity="0.85"/>
<stop offset="1" stop-color="#B6D5EC"/>
</linearGradient>
<linearGradient id="paint58_linear_1175_1006" x1="39.0253" y1="79.1279" x2="39.0253" y2="-2.33261" gradientUnits="userSpaceOnUse">
<stop stop-color="#B6D5EC" stop-opacity="0"/>
<stop offset="0.1" stop-color="#B6D5EC" stop-opacity="0.03"/>
<stop offset="0.23" stop-color="#B6D5EC" stop-opacity="0.1"/>
<stop offset="0.38" stop-color="#B6D5EC" stop-opacity="0.22"/>
<stop offset="0.54" stop-color="#B6D5EC" stop-opacity="0.38"/>
<stop offset="0.72" stop-color="#B6D5EC" stop-opacity="0.59"/>
<stop offset="0.9" stop-color="#B6D5EC" stop-opacity="0.85"/>
<stop offset="1" stop-color="#B6D5EC"/>
</linearGradient>
<linearGradient id="paint59_linear_1175_1006" x1="39.0251" y1="79.1273" x2="39.0251" y2="-2.33328" gradientUnits="userSpaceOnUse">
<stop stop-color="#B6D5EC" stop-opacity="0"/>
<stop offset="0.1" stop-color="#B6D5EC" stop-opacity="0.03"/>
<stop offset="0.23" stop-color="#B6D5EC" stop-opacity="0.1"/>
<stop offset="0.38" stop-color="#B6D5EC" stop-opacity="0.22"/>
<stop offset="0.54" stop-color="#B6D5EC" stop-opacity="0.38"/>
<stop offset="0.72" stop-color="#B6D5EC" stop-opacity="0.59"/>
<stop offset="0.9" stop-color="#B6D5EC" stop-opacity="0.85"/>
<stop offset="1" stop-color="#B6D5EC"/>
</linearGradient>
<linearGradient id="paint60_linear_1175_1006" x1="117.046" y1="79.1289" x2="117.046" y2="-2.33161" gradientUnits="userSpaceOnUse">
<stop stop-color="#B6D5EC" stop-opacity="0"/>
<stop offset="0.1" stop-color="#B6D5EC" stop-opacity="0.03"/>
<stop offset="0.23" stop-color="#B6D5EC" stop-opacity="0.1"/>
<stop offset="0.38" stop-color="#B6D5EC" stop-opacity="0.22"/>
<stop offset="0.54" stop-color="#B6D5EC" stop-opacity="0.38"/>
<stop offset="0.72" stop-color="#B6D5EC" stop-opacity="0.59"/>
<stop offset="0.9" stop-color="#B6D5EC" stop-opacity="0.85"/>
<stop offset="1" stop-color="#B6D5EC"/>
</linearGradient>
<linearGradient id="paint61_linear_1175_1006" x1="117.046" y1="79.1276" x2="117.046" y2="-2.33289" gradientUnits="userSpaceOnUse">
<stop stop-color="#B6D5EC" stop-opacity="0"/>
<stop offset="0.1" stop-color="#B6D5EC" stop-opacity="0.03"/>
<stop offset="0.23" stop-color="#B6D5EC" stop-opacity="0.1"/>
<stop offset="0.38" stop-color="#B6D5EC" stop-opacity="0.22"/>
<stop offset="0.54" stop-color="#B6D5EC" stop-opacity="0.38"/>
<stop offset="0.72" stop-color="#B6D5EC" stop-opacity="0.59"/>
<stop offset="0.9" stop-color="#B6D5EC" stop-opacity="0.85"/>
<stop offset="1" stop-color="#B6D5EC"/>
</linearGradient>
<linearGradient id="paint62_linear_1175_1006" x1="117.046" y1="79.1279" x2="117.046" y2="-2.33256" gradientUnits="userSpaceOnUse">
<stop stop-color="#B6D5EC" stop-opacity="0"/>
<stop offset="0.1" stop-color="#B6D5EC" stop-opacity="0.03"/>
<stop offset="0.23" stop-color="#B6D5EC" stop-opacity="0.1"/>
<stop offset="0.38" stop-color="#B6D5EC" stop-opacity="0.22"/>
<stop offset="0.54" stop-color="#B6D5EC" stop-opacity="0.38"/>
<stop offset="0.72" stop-color="#B6D5EC" stop-opacity="0.59"/>
<stop offset="0.9" stop-color="#B6D5EC" stop-opacity="0.85"/>
<stop offset="1" stop-color="#B6D5EC"/>
</linearGradient>
<linearGradient id="paint63_linear_1175_1006" x1="117.046" y1="79.1286" x2="117.046" y2="-2.33187" gradientUnits="userSpaceOnUse">
<stop stop-color="#B6D5EC" stop-opacity="0"/>
<stop offset="0.1" stop-color="#B6D5EC" stop-opacity="0.03"/>
<stop offset="0.23" stop-color="#B6D5EC" stop-opacity="0.1"/>
<stop offset="0.38" stop-color="#B6D5EC" stop-opacity="0.22"/>
<stop offset="0.54" stop-color="#B6D5EC" stop-opacity="0.38"/>
<stop offset="0.72" stop-color="#B6D5EC" stop-opacity="0.59"/>
<stop offset="0.9" stop-color="#B6D5EC" stop-opacity="0.85"/>
<stop offset="1" stop-color="#B6D5EC"/>
</linearGradient>
<linearGradient id="paint64_linear_1175_1006" x1="117.046" y1="79.129" x2="117.046" y2="-2.33156" gradientUnits="userSpaceOnUse">
<stop stop-color="#B6D5EC" stop-opacity="0"/>
<stop offset="0.1" stop-color="#B6D5EC" stop-opacity="0.03"/>
<stop offset="0.23" stop-color="#B6D5EC" stop-opacity="0.1"/>
<stop offset="0.38" stop-color="#B6D5EC" stop-opacity="0.22"/>
<stop offset="0.54" stop-color="#B6D5EC" stop-opacity="0.38"/>
<stop offset="0.72" stop-color="#B6D5EC" stop-opacity="0.59"/>
<stop offset="0.9" stop-color="#B6D5EC" stop-opacity="0.85"/>
<stop offset="1" stop-color="#B6D5EC"/>
</linearGradient>
<linearGradient id="paint65_linear_1175_1006" x1="117.046" y1="79.1293" x2="117.046" y2="-2.33123" gradientUnits="userSpaceOnUse">
<stop stop-color="#B6D5EC" stop-opacity="0"/>
<stop offset="0.1" stop-color="#B6D5EC" stop-opacity="0.03"/>
<stop offset="0.23" stop-color="#B6D5EC" stop-opacity="0.1"/>
<stop offset="0.38" stop-color="#B6D5EC" stop-opacity="0.22"/>
<stop offset="0.54" stop-color="#B6D5EC" stop-opacity="0.38"/>
<stop offset="0.72" stop-color="#B6D5EC" stop-opacity="0.59"/>
<stop offset="0.9" stop-color="#B6D5EC" stop-opacity="0.85"/>
<stop offset="1" stop-color="#B6D5EC"/>
</linearGradient>
<linearGradient id="paint66_linear_1175_1006" x1="117.046" y1="79.128" x2="117.046" y2="-2.3325" gradientUnits="userSpaceOnUse">
<stop stop-color="#B6D5EC" stop-opacity="0"/>
<stop offset="0.1" stop-color="#B6D5EC" stop-opacity="0.03"/>
<stop offset="0.23" stop-color="#B6D5EC" stop-opacity="0.1"/>
<stop offset="0.38" stop-color="#B6D5EC" stop-opacity="0.22"/>
<stop offset="0.54" stop-color="#B6D5EC" stop-opacity="0.38"/>
<stop offset="0.72" stop-color="#B6D5EC" stop-opacity="0.59"/>
<stop offset="0.9" stop-color="#B6D5EC" stop-opacity="0.85"/>
<stop offset="1" stop-color="#B6D5EC"/>
</linearGradient>
<linearGradient id="paint67_linear_1175_1006" x1="117.046" y1="79.1283" x2="117.046" y2="-2.33218" gradientUnits="userSpaceOnUse">
<stop stop-color="#B6D5EC" stop-opacity="0"/>
<stop offset="0.1" stop-color="#B6D5EC" stop-opacity="0.03"/>
<stop offset="0.23" stop-color="#B6D5EC" stop-opacity="0.1"/>
<stop offset="0.38" stop-color="#B6D5EC" stop-opacity="0.22"/>
<stop offset="0.54" stop-color="#B6D5EC" stop-opacity="0.38"/>
<stop offset="0.72" stop-color="#B6D5EC" stop-opacity="0.59"/>
<stop offset="0.9" stop-color="#B6D5EC" stop-opacity="0.85"/>
<stop offset="1" stop-color="#B6D5EC"/>
</linearGradient>
<linearGradient id="paint68_linear_1175_1006" x1="117.046" y1="79.129" x2="117.046" y2="-2.3315" gradientUnits="userSpaceOnUse">
<stop stop-color="#B6D5EC" stop-opacity="0"/>
<stop offset="0.1" stop-color="#B6D5EC" stop-opacity="0.03"/>
<stop offset="0.23" stop-color="#B6D5EC" stop-opacity="0.1"/>
<stop offset="0.38" stop-color="#B6D5EC" stop-opacity="0.22"/>
<stop offset="0.54" stop-color="#B6D5EC" stop-opacity="0.38"/>
<stop offset="0.72" stop-color="#B6D5EC" stop-opacity="0.59"/>
<stop offset="0.9" stop-color="#B6D5EC" stop-opacity="0.85"/>
<stop offset="1" stop-color="#B6D5EC"/>
</linearGradient>
<linearGradient id="paint69_linear_1175_1006" x1="117.046" y1="79.1293" x2="117.046" y2="-2.33117" gradientUnits="userSpaceOnUse">
<stop stop-color="#B6D5EC" stop-opacity="0"/>
<stop offset="0.1" stop-color="#B6D5EC" stop-opacity="0.03"/>
<stop offset="0.23" stop-color="#B6D5EC" stop-opacity="0.1"/>
<stop offset="0.38" stop-color="#B6D5EC" stop-opacity="0.22"/>
<stop offset="0.54" stop-color="#B6D5EC" stop-opacity="0.38"/>
<stop offset="0.72" stop-color="#B6D5EC" stop-opacity="0.59"/>
<stop offset="0.9" stop-color="#B6D5EC" stop-opacity="0.85"/>
<stop offset="1" stop-color="#B6D5EC"/>
</linearGradient>
<linearGradient id="paint70_linear_1175_1006" x1="117.046" y1="79.1277" x2="117.046" y2="-2.3328" gradientUnits="userSpaceOnUse">
<stop stop-color="#B6D5EC" stop-opacity="0"/>
<stop offset="0.1" stop-color="#B6D5EC" stop-opacity="0.03"/>
<stop offset="0.23" stop-color="#B6D5EC" stop-opacity="0.1"/>
<stop offset="0.38" stop-color="#B6D5EC" stop-opacity="0.22"/>
<stop offset="0.54" stop-color="#B6D5EC" stop-opacity="0.38"/>
<stop offset="0.72" stop-color="#B6D5EC" stop-opacity="0.59"/>
<stop offset="0.9" stop-color="#B6D5EC" stop-opacity="0.85"/>
<stop offset="1" stop-color="#B6D5EC"/>
</linearGradient>
<linearGradient id="paint71_linear_1175_1006" x1="117.046" y1="79.1284" x2="117.046" y2="-2.33212" gradientUnits="userSpaceOnUse">
<stop stop-color="#B6D5EC" stop-opacity="0"/>
<stop offset="0.1" stop-color="#B6D5EC" stop-opacity="0.03"/>
<stop offset="0.23" stop-color="#B6D5EC" stop-opacity="0.1"/>
<stop offset="0.38" stop-color="#B6D5EC" stop-opacity="0.22"/>
<stop offset="0.54" stop-color="#B6D5EC" stop-opacity="0.38"/>
<stop offset="0.72" stop-color="#B6D5EC" stop-opacity="0.59"/>
<stop offset="0.9" stop-color="#B6D5EC" stop-opacity="0.85"/>
<stop offset="1" stop-color="#B6D5EC"/>
</linearGradient>
<linearGradient id="paint72_linear_1175_1006" x1="117.046" y1="79.1287" x2="117.046" y2="-2.33179" gradientUnits="userSpaceOnUse">
<stop stop-color="#B6D5EC" stop-opacity="0"/>
<stop offset="0.1" stop-color="#B6D5EC" stop-opacity="0.03"/>
<stop offset="0.23" stop-color="#B6D5EC" stop-opacity="0.1"/>
<stop offset="0.38" stop-color="#B6D5EC" stop-opacity="0.22"/>
<stop offset="0.54" stop-color="#B6D5EC" stop-opacity="0.38"/>
<stop offset="0.72" stop-color="#B6D5EC" stop-opacity="0.59"/>
<stop offset="0.9" stop-color="#B6D5EC" stop-opacity="0.85"/>
<stop offset="1" stop-color="#B6D5EC"/>
</linearGradient>
<linearGradient id="paint73_linear_1175_1006" x1="117.046" y1="79.1274" x2="117.046" y2="-2.33306" gradientUnits="userSpaceOnUse">
<stop stop-color="#B6D5EC" stop-opacity="0"/>
<stop offset="0.1" stop-color="#B6D5EC" stop-opacity="0.03"/>
<stop offset="0.23" stop-color="#B6D5EC" stop-opacity="0.1"/>
<stop offset="0.38" stop-color="#B6D5EC" stop-opacity="0.22"/>
<stop offset="0.54" stop-color="#B6D5EC" stop-opacity="0.38"/>
<stop offset="0.72" stop-color="#B6D5EC" stop-opacity="0.59"/>
<stop offset="0.9" stop-color="#B6D5EC" stop-opacity="0.85"/>
<stop offset="1" stop-color="#B6D5EC"/>
</linearGradient>
<linearGradient id="paint74_linear_1175_1006" x1="117.046" y1="79.1278" x2="117.046" y2="-2.33274" gradientUnits="userSpaceOnUse">
<stop stop-color="#B6D5EC" stop-opacity="0"/>
<stop offset="0.1" stop-color="#B6D5EC" stop-opacity="0.03"/>
<stop offset="0.23" stop-color="#B6D5EC" stop-opacity="0.1"/>
<stop offset="0.38" stop-color="#B6D5EC" stop-opacity="0.22"/>
<stop offset="0.54" stop-color="#B6D5EC" stop-opacity="0.38"/>
<stop offset="0.72" stop-color="#B6D5EC" stop-opacity="0.59"/>
<stop offset="0.9" stop-color="#B6D5EC" stop-opacity="0.85"/>
<stop offset="1" stop-color="#B6D5EC"/>
</linearGradient>
</defs>
</svg>
