<svg width="390" height="75" viewBox="0 0 390 75" fill="none" xmlns="http://www.w3.org/2000/svg">
<mask id="mask0_1175_1224" style="mask-type:luminance" maskUnits="userSpaceOnUse" x="0" y="0" width="390" height="75">
<path d="M390 6.81898e-05L0 3.40949e-05L-6.55671e-06 75L390 75.0001L390 6.81898e-05Z" fill="white"/>
</mask>
<g mask="url(#mask0_1175_1224)">
<path d="M38.8935 40.9141C29.0368 40.9141 24.0274 39.378 19.1801 37.8888C14.4352 36.4338 9.52823 34.9233 -0.119368 34.9233L-0.119367 33.5152C9.73731 33.5152 14.7467 35.0513 19.594 36.5405C24.3388 37.9955 29.2459 39.506 38.8935 39.506C48.541 39.506 53.448 37.9998 58.1929 36.5405C63.0359 35.0513 68.0453 33.5152 77.9063 33.5152L77.9063 34.9233C68.2587 34.9233 63.3516 36.4295 58.6068 37.8888C53.7638 39.378 48.7544 40.9141 38.8935 40.9141Z" fill="url(#paint0_linear_1175_1224)"/>
<path d="M38.8936 38.1485C29.0412 38.1485 24.036 36.6124 19.193 35.1232C14.4439 33.6639 9.53688 32.1577 -0.114981 32.1577L-0.114981 30.8264C9.73743 30.8264 14.7426 32.3625 19.5856 33.8516C24.3347 35.3109 29.2417 36.8172 38.8936 36.8172C48.5454 36.8172 53.4567 35.3109 58.2016 33.8516C63.0446 32.3667 68.0497 30.8264 77.9021 30.8264L77.9021 32.1577C68.2502 32.1577 63.339 33.6639 58.5941 35.1232C53.7511 36.6081 48.746 38.1485 38.8936 38.1485Z" fill="url(#paint1_linear_1175_1224)"/>
<path d="M38.8936 35.3887C29.0454 35.3887 24.0446 33.8526 19.2058 32.3677C14.4567 30.9084 9.54541 29.4022 -0.114981 29.4022L-0.114981 28.1477C9.73316 28.1477 14.734 29.6838 19.5728 31.1687C24.3219 32.628 29.2332 34.1342 38.8936 34.1342C48.554 34.1342 53.4652 32.6237 58.2143 31.1687C63.0531 29.6838 68.0582 28.1477 77.9021 28.1477L77.9021 29.4022C68.2417 29.4022 63.3304 30.9127 58.5813 32.3677C53.7426 33.8526 48.7374 35.3887 38.8936 35.3887Z" fill="url(#paint2_linear_1175_1224)"/>
<path d="M38.8935 32.6231C29.0538 32.6231 24.053 31.087 19.2142 29.6021C14.4609 28.1428 9.54529 26.6323 -0.119368 26.6323L-0.119367 25.4589C9.72024 25.4589 14.7211 26.995 19.5599 28.4799C24.3133 29.9392 29.2288 31.4497 38.8935 31.4497C48.5581 31.4497 53.4736 29.9392 58.227 28.4799C63.0615 26.995 68.0624 25.4589 77.9063 25.4589L77.9063 26.6323C68.2416 26.6323 63.3261 28.1428 58.5727 29.6021C53.7382 31.087 48.7373 32.6231 38.8935 32.6231Z" fill="url(#paint3_linear_1175_1224)"/>
<path d="M38.8936 29.8575C29.0582 29.8575 24.0616 28.3213 19.2271 26.8364C14.4695 25.3771 9.55395 23.8666 -0.114981 23.8666L-0.114981 22.77C9.72036 22.77 14.717 24.3061 19.5514 25.791C24.3091 27.2503 29.2246 28.7608 38.8936 28.7608C48.5625 28.7608 53.4823 27.2503 58.2357 25.791C63.0701 24.3061 68.0668 22.77 77.9021 22.77L77.9021 23.8666C68.2332 23.8666 63.3134 25.3771 58.5557 26.8364C53.7212 28.3213 48.7246 29.8575 38.8893 29.8575L38.8936 29.8575Z" fill="url(#paint4_linear_1175_1224)"/>
<path d="M38.8936 27.0977C29.0625 27.0977 24.0702 25.5658 19.24 24.0809C14.4823 22.6216 9.56248 21.1069 -0.114981 21.1069L-0.114981 20.0871C9.71609 20.0871 14.7084 21.6189 19.5386 23.1038C24.2963 24.5631 29.2161 26.0779 38.8936 26.0779C48.571 26.0779 53.4908 24.5674 58.2485 23.1038C63.0787 21.6189 68.0753 20.0871 77.9021 20.0871L77.9021 21.1069C68.2246 21.1069 63.3048 22.6174 58.5472 24.0809C53.717 25.5659 48.7204 27.0977 38.8936 27.0977Z" fill="url(#paint5_linear_1175_1224)"/>
<path d="M38.8935 24.3321C29.0709 24.3321 24.0786 22.8002 19.2526 21.3153C14.4907 19.8518 9.56663 18.3412 -0.115096 18.3412L-0.115096 17.4025C9.70744 17.4025 14.6998 18.9344 19.5257 20.4193C24.2876 21.8828 29.2117 23.3933 38.8935 23.3933C48.5752 23.3933 53.4992 21.8828 58.2612 20.4193C63.0871 18.9344 68.0794 17.4025 77.9063 17.4025L77.9063 18.3413C68.2245 18.3413 63.3004 19.8518 58.5385 21.3153C53.7126 22.8002 48.7202 24.3321 38.8977 24.3321L38.8935 24.3321Z" fill="url(#paint6_linear_1175_1224)"/>
<path d="M38.8936 21.5664C29.0753 21.5664 24.0872 20.0346 19.2613 18.554C14.4951 17.0904 9.57102 15.5799 -0.114981 15.5799L-0.114981 14.718C9.70329 14.718 14.6914 16.2498 19.5173 17.7304C24.2835 19.194 29.2076 20.7045 38.8936 20.7045C48.5796 20.7045 53.5079 19.1897 58.2698 17.7304C63.0957 16.2498 68.0838 14.718 77.9021 14.718L77.9021 15.5799C68.2161 15.5799 63.2878 17.0947 58.5216 18.554C53.6957 20.0346 48.7076 21.5664 38.8893 21.5664L38.8936 21.5664Z" fill="url(#paint7_linear_1175_1224)"/>
<path d="M38.8936 18.8067C29.0838 18.8067 24.0957 17.2748 19.2741 15.7942C14.5079 14.3306 9.57955 12.8159 -0.114981 12.8159L-0.114981 12.0307C9.69476 12.0307 14.6828 13.5626 19.5045 15.0432C24.2707 16.5068 29.199 18.0216 38.8936 18.0216C48.5881 18.0216 53.5164 16.5068 58.2826 15.0432C63.1043 13.5626 68.0924 12.0307 77.9021 12.0307L77.9021 12.8159C68.2076 12.8159 63.2792 14.3306 58.513 15.7942C53.6914 17.2748 48.7033 18.8067 38.8936 18.8067Z" fill="url(#paint8_linear_1175_1224)"/>
<path d="M38.8935 16.041C29.088 16.041 24.1042 14.5092 19.2868 13.0328C14.5163 11.5693 9.5837 10.0545 -0.115096 10.0545L-0.115096 9.34618C9.69037 9.34618 14.6742 10.878 19.4916 12.3544C24.262 13.818 29.1947 15.3327 38.8935 15.3327C48.5922 15.3327 53.5248 13.818 58.2953 12.3544C63.1127 10.8738 68.0965 9.34619 77.9063 9.34619L77.9063 10.0545C68.2075 10.0545 63.2748 11.5693 58.5044 13.0328C53.687 14.5135 48.7032 16.041 38.8977 16.041L38.8935 16.041Z" fill="url(#paint9_linear_1175_1224)"/>
<path d="M38.8935 13.2754C29.0923 13.2754 24.1127 11.7478 19.2953 10.2672C14.5248 8.80365 9.58796 7.28461 -0.119368 7.2846L-0.119368 6.65736C9.68184 6.65736 14.6614 8.18493 19.4788 9.66557C24.2493 11.1291 29.1861 12.6482 38.8935 12.6482C48.6008 12.6482 53.5334 11.1334 58.3081 9.66557C63.1255 8.18494 68.105 6.65737 77.9063 6.65737L77.9063 7.28461C68.1989 7.28461 63.2663 8.79938 58.4916 10.2672C53.6742 11.7479 48.6947 13.2754 38.8935 13.2754Z" fill="url(#paint10_linear_1175_1224)"/>
<path d="M38.8936 10.5157C29.1009 10.5157 24.1214 8.98808 19.3082 7.50745C14.5335 6.03961 9.59662 4.52484 -0.114981 4.52484L-0.114981 3.9744C9.67769 3.97441 14.6572 5.50198 19.4704 6.98261C24.2451 8.45045 29.182 9.96521 38.8936 9.96521C48.6052 9.96522 53.542 8.45045 58.3167 6.98262C63.1299 5.50625 68.1094 3.97441 77.9021 3.97441L77.9021 4.52485C68.1905 4.52485 63.2536 6.03962 58.4789 7.50745C53.6658 8.98382 48.6862 10.5157 38.8936 10.5157Z" fill="url(#paint11_linear_1175_1224)"/>
<path d="M38.8936 7.75003C29.1052 7.75003 24.1299 6.22246 19.321 4.74609C14.542 3.27826 9.60088 1.76349 -0.114981 1.76349L-0.114981 1.28985C9.67342 1.28985 14.6487 2.81743 19.4576 4.2938C24.2365 5.76163 29.1777 7.2764 38.8936 7.2764C48.6094 7.2764 53.5506 5.75737 58.3296 4.2938C63.1427 2.81743 68.118 1.28986 77.9021 1.28986L77.9021 1.76349C68.1862 1.76349 63.2451 3.28253 58.4661 4.7461C53.653 6.22246 48.6777 7.75003 38.8936 7.75003Z" fill="url(#paint12_linear_1175_1224)"/>
<path d="M38.8935 4.99027C29.1136 4.99026 24.1383 3.4627 19.3294 1.98633C14.5504 0.518493 9.60503 -1.00054 -0.119368 -1.00055L-0.119368 -1.39737C9.66477 -1.39737 14.6358 0.1302 19.4447 1.60657C24.2236 3.0744 29.1691 4.59344 38.8935 4.59344C48.6179 4.59344 53.559 3.07441 58.3422 1.60657C63.1511 0.130205 68.1221 -1.39736 77.9063 -1.39736L77.9063 -1.00054C68.1819 -1.00054 63.2407 0.518497 58.4574 1.98633C53.6486 3.4627 48.6776 4.99027 38.8935 4.99027Z" fill="url(#paint13_linear_1175_1224)"/>
<path d="M38.8936 2.22464C29.118 2.22464 24.147 0.697071 19.3424 -0.779297C14.5591 -2.24713 9.61368 -3.76617 -0.114981 -3.76617L-0.114981 -4.08193C9.66062 -4.08193 14.6316 -2.55435 19.4362 -1.07798C24.2195 0.389851 29.1649 1.90889 38.8936 1.90889C48.6222 1.90889 53.5676 0.389853 58.3509 -1.07798C63.1555 -2.55435 68.1265 -4.08192 77.9021 -4.08192L77.9021 -3.76616C68.1734 -3.76616 63.228 -2.24713 58.4448 -0.779294C53.6402 0.697073 48.6692 2.22038 38.8936 2.22038L38.8936 2.22464Z" fill="url(#paint14_linear_1175_1224)"/>
<path d="M194.936 40.9141C185.08 40.9141 180.07 39.378 175.223 37.8888C170.478 36.4338 165.571 34.9233 155.924 34.9233L155.924 33.5152C165.78 33.5152 170.79 35.0513 175.637 36.5405C180.382 37.9955 185.289 39.506 194.936 39.506C204.584 39.506 209.491 37.9998 214.236 36.5405C219.079 35.0513 224.088 33.5152 233.949 33.5152L233.949 34.9233C224.302 34.9233 219.395 36.4295 214.65 37.8888C209.807 39.378 204.797 40.9141 194.936 40.9141Z" fill="url(#paint15_linear_1175_1224)"/>
<path d="M194.937 38.1485C185.084 38.1485 180.079 36.6124 175.236 35.1232C170.487 33.6639 165.58 32.1577 155.928 32.1577L155.928 30.8264C165.78 30.8264 170.786 32.3625 175.629 33.8516C180.378 35.3109 185.285 36.8172 194.937 36.8172C204.588 36.8172 209.5 35.3109 214.245 33.8516C219.088 32.3667 224.093 30.8264 233.945 30.8264L233.945 32.1577C224.293 32.1577 219.382 33.6639 214.637 35.1232C209.794 36.6081 204.789 38.1485 194.937 38.1485Z" fill="url(#paint16_linear_1175_1224)"/>
<path d="M194.937 35.3887C185.088 35.3887 180.088 33.8526 175.249 32.3677C170.5 30.9084 165.588 29.4022 155.928 29.4022L155.928 28.1477C165.776 28.1477 170.777 29.6838 175.616 31.1687C180.365 32.628 185.276 34.1342 194.937 34.1342C204.597 34.1342 209.508 32.6237 214.257 31.1687C219.096 29.6838 224.101 28.1477 233.945 28.1477L233.945 29.4022C224.285 29.4022 219.373 30.9127 214.624 32.3677C209.786 33.8526 204.78 35.3887 194.937 35.3887Z" fill="url(#paint17_linear_1175_1224)"/>
<path d="M194.936 32.6231C185.097 32.6231 180.096 31.087 175.257 29.6021C170.504 28.1428 165.588 26.6323 155.924 26.6323L155.924 25.4589C165.763 25.4589 170.764 26.995 175.603 28.4799C180.356 29.9392 185.272 31.4497 194.936 31.4497C204.601 31.4497 209.517 29.9392 214.27 28.4799C219.104 26.995 224.105 25.4589 233.949 25.4589L233.949 26.6323C224.285 26.6323 219.369 28.1428 214.616 29.6021C209.781 31.087 204.78 32.6231 194.936 32.6231Z" fill="url(#paint18_linear_1175_1224)"/>
<path d="M194.937 29.8575C185.101 29.8575 180.105 28.3213 175.27 26.8364C170.512 25.3771 165.597 23.8666 155.928 23.8666L155.928 22.77C165.763 22.77 170.76 24.3061 175.594 25.791C180.352 27.2503 185.268 28.7608 194.937 28.7608C204.605 28.7608 209.525 27.2503 214.279 25.791C219.113 24.3061 224.11 22.77 233.945 22.77L233.945 23.8666C224.276 23.8666 219.356 25.3771 214.599 26.8364C209.764 28.3213 204.768 29.8575 194.932 29.8575L194.937 29.8575Z" fill="url(#paint19_linear_1175_1224)"/>
<path d="M194.937 27.0977C185.105 27.0977 180.113 25.5658 175.283 24.0809C170.525 22.6216 165.605 21.1069 155.928 21.1069L155.928 20.0871C165.759 20.0871 170.751 21.6189 175.582 23.1038C180.339 24.5631 185.259 26.0779 194.937 26.0779C204.614 26.0779 209.534 24.5674 214.291 23.1038C219.122 21.6189 224.118 20.0871 233.945 20.0871L233.945 21.1069C224.268 21.1069 219.348 22.6174 214.59 24.0809C209.76 25.5659 204.763 27.0977 194.937 27.0977Z" fill="url(#paint20_linear_1175_1224)"/>
<path d="M194.936 24.3321C185.114 24.3321 180.122 22.8002 175.296 21.3153C170.534 19.8518 165.61 18.3412 155.928 18.3412L155.928 17.4025C165.75 17.4025 170.743 18.9344 175.569 20.4193C180.331 21.8828 185.255 23.3933 194.936 23.3933C204.618 23.3933 209.542 21.8828 214.304 20.4193C219.13 18.9344 224.122 17.4025 233.949 17.4025L233.949 18.3413C224.267 18.3413 219.343 19.8518 214.582 21.3153C209.756 22.8002 204.763 24.3321 194.941 24.3321L194.936 24.3321Z" fill="url(#paint21_linear_1175_1224)"/>
<path d="M194.937 21.5664C185.118 21.5664 180.13 20.0346 175.304 18.554C170.538 17.0904 165.614 15.5799 155.928 15.5799L155.928 14.718C165.746 14.718 170.734 16.2498 175.56 17.7304C180.326 19.194 185.251 20.7045 194.937 20.7045C204.623 20.7045 209.551 19.1897 214.313 17.7304C219.139 16.2498 224.127 14.718 233.945 14.718L233.945 15.5799C224.259 15.5799 219.331 17.0947 214.565 18.554C209.739 20.0346 204.751 21.5664 194.932 21.5664L194.937 21.5664Z" fill="url(#paint22_linear_1175_1224)"/>
<path d="M194.937 18.8067C185.127 18.8067 180.139 17.2748 175.317 15.7942C170.551 14.3306 165.623 12.8159 155.928 12.8159L155.928 12.0307C165.738 12.0307 170.726 13.5626 175.547 15.0432C180.314 16.5068 185.242 18.0216 194.937 18.0216C204.631 18.0216 209.559 16.5068 214.326 15.0432C219.147 13.5626 224.135 12.0307 233.945 12.0307L233.945 12.8159C224.251 12.8159 219.322 14.3306 214.556 15.7942C209.734 17.2748 204.746 18.8067 194.937 18.8067Z" fill="url(#paint23_linear_1175_1224)"/>
<path d="M194.936 16.041C185.131 16.041 180.147 14.5092 175.33 13.0328C170.559 11.5693 165.627 10.0545 155.928 10.0545L155.928 9.34618C165.733 9.34618 170.717 10.878 175.535 12.3544C180.305 13.818 185.238 15.3327 194.936 15.3327C204.635 15.3327 209.568 13.818 214.338 12.3544C219.156 10.8738 224.139 9.34619 233.949 9.34619L233.949 10.0545C224.25 10.0545 219.318 11.5693 214.547 13.0328C209.73 14.5135 204.746 16.041 194.941 16.041L194.936 16.041Z" fill="url(#paint24_linear_1175_1224)"/>
<path d="M194.936 13.2754C185.135 13.2754 180.156 11.7478 175.338 10.2672C170.568 8.80365 165.631 7.28461 155.924 7.2846L155.924 6.65736C165.725 6.65736 170.704 8.18493 175.522 9.66557C180.292 11.1291 185.229 12.6482 194.936 12.6482C204.644 12.6482 209.576 11.1334 214.351 9.66557C219.168 8.18494 224.148 6.65737 233.949 6.65737L233.949 7.28461C224.242 7.28461 219.309 8.79938 214.535 10.2672C209.717 11.7479 204.738 13.2754 194.936 13.2754Z" fill="url(#paint25_linear_1175_1224)"/>
<path d="M194.937 10.5157C185.144 10.5157 180.164 8.98808 175.351 7.50745C170.576 6.03961 165.64 4.52484 155.928 4.52484L155.928 3.9744C165.721 3.97441 170.7 5.50198 175.513 6.98261C180.288 8.45045 185.225 9.96521 194.937 9.96521C204.648 9.96522 209.585 8.45045 214.36 6.98262C219.173 5.50625 224.152 3.97441 233.945 3.97441L233.945 4.52485C224.233 4.52485 219.297 6.03962 214.522 7.50745C209.709 8.98382 204.729 10.5157 194.937 10.5157Z" fill="url(#paint26_linear_1175_1224)"/>
<path d="M194.937 7.75003C185.148 7.75003 180.173 6.22246 175.364 4.74609C170.585 3.27826 165.644 1.76349 155.928 1.76349L155.928 1.28985C165.716 1.28985 170.692 2.81743 175.501 4.2938C180.28 5.76163 185.221 7.2764 194.937 7.2764C204.652 7.2764 209.594 5.75737 214.373 4.2938C219.186 2.81743 224.161 1.28986 233.945 1.28986L233.945 1.76349C224.229 1.76349 219.288 3.28253 214.509 4.7461C209.696 6.22246 204.721 7.75003 194.937 7.75003Z" fill="url(#paint27_linear_1175_1224)"/>
<path d="M194.936 4.98636C185.157 4.98636 180.181 3.45879 175.372 1.98242C170.593 0.514587 165.648 -1.00445 155.924 -1.00445L155.924 -1.40128C165.708 -1.40128 170.679 0.126294 175.488 1.60266C180.267 3.0705 185.212 4.58953 194.936 4.58953C204.661 4.58954 209.602 3.0705 214.385 1.60267C219.194 0.126299 224.165 -1.40128 233.949 -1.40127L233.949 -1.00444C224.225 -1.00445 219.284 0.514592 214.5 1.98242C209.692 3.45879 204.721 4.98636 194.936 4.98636Z" fill="url(#paint28_linear_1175_1224)"/>
<path d="M194.937 2.22464C185.161 2.22464 180.19 0.697071 175.385 -0.779297C170.602 -2.24713 165.657 -3.76617 155.928 -3.76617L155.928 -4.08193C165.704 -4.08193 170.675 -2.55435 175.479 -1.07798C180.262 0.389851 185.208 1.90889 194.937 1.90889C204.665 1.90889 209.611 0.389853 214.394 -1.07798C219.198 -2.55435 224.169 -4.08192 233.945 -4.08192L233.945 -3.76616C224.216 -3.76616 219.271 -2.24713 214.488 -0.779294C209.683 0.697073 204.712 2.22038 194.937 2.22038L194.937 2.22464Z" fill="url(#paint29_linear_1175_1224)"/>
<path d="M155.923 35.2637C146.066 35.2637 141.057 33.7276 136.21 32.2384C131.465 30.7834 126.558 29.2729 116.91 29.2729C107.263 29.2729 102.356 30.7791 97.6109 32.2384C92.7679 33.7276 87.7584 35.2637 77.8975 35.2637L77.8975 33.8556C87.5451 33.8556 92.4521 32.3494 97.1969 30.8901C102.04 29.4009 107.049 27.8648 116.91 27.8648C126.767 27.8648 131.776 29.4009 136.624 30.8901C141.369 32.3494 146.276 33.8556 155.923 33.8556L155.923 35.2637Z" fill="url(#paint30_linear_1175_1224)"/>
<path d="M155.923 37.9532C146.071 37.9532 141.066 36.4171 136.223 34.9279C131.473 33.4686 126.566 31.9623 116.915 31.9623C107.263 31.9623 102.351 33.4686 97.6066 34.9279C92.7636 36.4128 87.7585 37.9532 77.906 37.9532L77.906 36.6219C87.5579 36.6219 92.4692 35.1156 97.214 33.6563C102.057 32.1714 107.062 30.6311 116.915 30.6311C126.767 30.6311 131.772 32.1672 136.615 33.6563C141.364 35.1156 146.271 36.6219 155.923 36.6219L155.923 37.9532Z" fill="url(#paint31_linear_1175_1224)"/>
<path d="M155.923 40.6368C146.075 40.6368 141.074 39.1006 136.235 37.6157C131.486 36.1564 126.575 34.6502 116.915 34.6502C107.254 34.6502 102.343 36.1607 97.5938 37.6157C92.755 39.1006 87.7499 40.6367 77.906 40.6367L77.906 39.3823C87.5664 39.3823 92.4777 37.8718 97.2268 36.4167C102.066 34.9318 107.071 33.3957 116.915 33.3957C126.763 33.3957 131.764 34.9318 136.602 36.4167C141.351 37.876 146.267 39.3823 155.923 39.3823L155.923 40.6368Z" fill="url(#paint32_linear_1175_1224)"/>
<path d="M155.923 43.3243C146.083 43.3243 141.083 41.7881 136.244 40.3032C131.49 38.8439 126.575 37.3334 116.91 37.3334C107.246 37.3334 102.33 38.8439 97.5767 40.3032C92.7422 41.7881 87.7414 43.3242 77.8975 43.3242L77.8975 42.1508C87.5622 42.1508 92.4777 40.6403 97.2311 39.181C102.066 37.6961 107.066 36.16 116.91 36.16C126.75 36.16 131.751 37.6961 136.59 39.181C141.343 40.6403 146.258 42.1508 155.923 42.1508L155.923 43.3243Z" fill="url(#paint33_linear_1175_1224)"/>
<path d="M155.923 46.0078C146.088 46.0078 141.091 44.4717 136.257 42.9868C131.499 41.5275 126.583 40.017 116.915 40.017C107.246 40.017 102.326 41.5275 97.5724 42.9868C92.738 44.4717 87.7414 46.0078 77.906 46.0078L77.906 44.9112C87.575 44.9112 92.4948 43.4007 97.2481 41.9414C102.083 40.4565 107.079 38.9204 116.915 38.9204C126.75 38.9204 131.747 40.4565 136.581 41.9414C141.339 43.4007 146.254 44.9112 155.923 44.9112L155.923 46.0078Z" fill="url(#paint34_linear_1175_1224)"/>
<path d="M155.923 48.6914C146.092 48.6914 141.1 47.1596 136.269 45.6747C131.512 44.2154 126.592 42.7006 116.915 42.7006C107.237 42.7006 102.317 44.2111 97.5597 45.6747C92.7295 47.1596 87.7329 48.6914 77.906 48.6914L77.906 47.6716C87.5835 47.6716 92.5033 46.1611 97.261 44.6976C102.091 43.2127 107.088 41.6808 116.915 41.6808C126.741 41.6808 131.738 43.2127 136.568 44.6976C141.326 46.1569 146.246 47.6716 155.923 47.6716L155.923 48.6914Z" fill="url(#paint35_linear_1175_1224)"/>
<path d="M155.923 51.3809C146.101 51.3809 141.108 49.8491 136.278 48.3642C131.516 46.9006 126.592 45.3901 116.91 45.3901C107.229 45.3901 102.304 46.9006 97.5426 48.3641C92.7166 49.8448 87.7243 51.3809 77.9018 51.3809L77.9018 50.4422C87.5835 50.4422 92.5076 48.9317 97.2695 47.4681C102.095 45.9875 107.088 44.4513 116.91 44.4514C126.733 44.4514 131.725 45.9832 136.551 47.4681C141.313 48.9317 146.237 50.4422 155.919 50.4422L155.919 51.3809L155.923 51.3809Z" fill="url(#paint36_linear_1175_1224)"/>
<path d="M155.924 54.0645C146.106 54.0645 141.118 52.5326 136.292 51.052C131.525 49.5884 126.601 48.0779 116.915 48.0779C107.229 48.0779 102.301 49.5927 97.5392 51.052C92.7132 52.5326 87.7252 54.0645 77.9069 54.0645L77.9069 53.2026C87.5929 53.2026 92.5212 51.6878 97.2831 50.2285C102.109 48.7479 107.097 47.216 116.915 47.216C126.734 47.216 131.722 48.7479 136.548 50.2285C141.314 51.6921 146.238 53.2026 155.928 53.2026L155.928 54.0645L155.924 54.0645Z" fill="url(#paint37_linear_1175_1224)"/>
<path d="M155.923 56.752C146.113 56.752 141.125 55.2201 136.304 53.7395C131.537 52.2759 126.609 50.7612 116.915 50.7612C107.22 50.7612 102.292 52.2759 97.5255 53.7395C92.7038 55.2201 87.7158 56.752 77.906 56.752L77.906 55.9669C87.6006 55.9669 92.5289 54.4521 97.2951 52.9885C102.117 51.5079 107.105 49.9761 116.915 49.9761C126.724 49.9761 131.712 51.5079 136.534 52.9885C141.3 54.4521 146.229 55.9669 155.923 55.9669L155.923 56.752Z" fill="url(#paint38_linear_1175_1224)"/>
<path d="M155.923 59.4356C146.118 59.4356 141.134 57.9037 136.312 56.4274C131.542 54.9638 126.609 53.449 116.91 53.449C107.212 53.449 102.279 54.9638 97.5084 56.4274C92.6911 57.908 87.7072 59.4356 77.9018 59.4356L77.9018 58.7273C87.6006 58.7273 92.5332 57.2125 97.3036 55.7489C102.121 54.2683 107.105 52.7407 116.91 52.7407C126.716 52.7407 131.7 54.2726 136.517 55.7489C141.287 57.2125 146.22 58.7273 155.919 58.7273L155.919 59.4356L155.923 59.4356Z" fill="url(#paint39_linear_1175_1224)"/>
<path d="M155.923 62.1211C146.122 62.1211 141.142 60.5936 136.325 59.1129C131.554 57.6494 126.618 56.1303 116.91 56.1303C107.203 56.1303 102.27 57.6451 97.4956 59.1129C92.6782 60.5936 87.6987 62.1211 77.8975 62.1211L77.8975 61.4939C87.6048 61.4939 92.5374 59.9791 97.3122 58.5113C102.13 57.0306 107.109 55.5031 116.91 55.5031C126.712 55.5031 131.691 57.0306 136.508 58.5113C141.279 59.9748 146.216 61.4939 155.923 61.4939L155.923 62.1211Z" fill="url(#paint40_linear_1175_1224)"/>
<path d="M155.923 64.8086C146.13 64.8086 141.151 63.2811 136.338 61.8004C131.563 60.3326 126.626 58.8178 116.915 58.8178C107.203 58.8178 102.266 60.3326 97.4914 61.8004C92.6782 63.2768 87.6987 64.8086 77.906 64.8086L77.906 64.2582C87.6176 64.2582 92.5545 62.7434 97.3292 61.2756C102.142 59.7992 107.122 58.2674 116.915 58.2674C126.707 58.2674 131.687 59.7949 136.5 61.2756C141.275 62.7434 146.211 64.2582 155.923 64.2582L155.923 64.8086Z" fill="url(#paint41_linear_1175_1224)"/>
<path d="M155.923 67.4922C146.135 67.4922 141.159 65.9646 136.351 64.4883C131.572 63.0204 126.63 61.5057 116.915 61.5057C107.199 61.5057 102.258 63.0247 97.4786 64.4883C92.6655 65.9646 87.6902 67.4922 77.906 67.4922L77.906 67.0186C87.6219 67.0186 92.563 65.4995 97.342 64.036C102.155 62.5596 107.13 61.032 116.915 61.032C126.703 61.032 131.678 62.5596 136.487 64.036C141.266 65.5038 146.207 67.0186 155.923 67.0186L155.923 67.4922Z" fill="url(#paint42_linear_1175_1224)"/>
<path d="M155.923 70.1817C146.139 70.1817 141.168 68.6541 136.359 67.1777C131.58 65.7099 126.635 64.1909 116.91 64.1909C107.186 64.1909 102.245 65.7099 97.4615 67.1777C92.6526 68.6541 87.6816 70.1817 77.8975 70.1817L77.8975 69.7848C87.6219 69.7848 92.563 68.2658 97.3463 66.798C102.155 65.3216 107.126 63.794 116.91 63.794C126.69 63.794 131.665 65.3216 136.474 66.798C141.253 68.2658 146.199 69.7848 155.923 69.7848L155.923 70.1817Z" fill="url(#paint43_linear_1175_1224)"/>
<path d="M155.923 72.8653C146.147 72.8653 141.176 71.3377 136.372 69.8613C131.589 68.3935 126.643 66.8745 116.915 66.8745C107.186 66.8745 102.241 68.3935 97.4573 69.8613C92.6484 71.3377 87.6816 72.8653 77.906 72.8653L77.906 72.5495C87.6347 72.5495 92.5801 71.0305 97.3634 69.5626C102.168 68.0863 107.139 66.5587 116.915 66.5587C126.69 66.5587 131.661 68.0863 136.466 69.5584C141.249 71.0262 146.194 72.5452 155.923 72.5452L155.923 72.8653Z" fill="url(#paint44_linear_1175_1224)"/>
<path d="M350.975 40.9141C341.118 40.9141 336.109 39.378 331.261 37.8888C326.517 36.4338 321.61 34.9233 311.962 34.9233L311.962 33.5152C321.819 33.5152 326.828 35.0513 331.675 36.5405C336.42 37.9955 341.327 39.506 350.975 39.506C360.622 39.506 365.529 37.9998 370.274 36.5405C375.117 35.0513 380.127 33.5152 389.988 33.5152L389.988 34.9233C380.34 34.9233 375.433 36.4295 370.688 37.8888C365.845 39.378 360.836 40.9141 350.975 40.9141Z" fill="url(#paint45_linear_1175_1224)"/>
<path d="M350.975 38.1485C341.122 38.1485 336.117 36.6124 331.274 35.1232C326.525 33.6639 321.618 32.1577 311.966 32.1577L311.966 30.8264C321.819 30.8264 326.824 32.3625 331.667 33.8516C336.416 35.3109 341.323 36.8172 350.975 36.8172C360.627 36.8172 365.538 35.3109 370.283 33.8516C375.126 32.3667 380.131 30.8264 389.983 30.8264L389.983 32.1577C380.332 32.1577 375.42 33.6639 370.675 35.1232C365.832 36.6081 360.827 38.1485 350.975 38.1485Z" fill="url(#paint46_linear_1175_1224)"/>
<path d="M350.975 35.3887C341.127 35.3887 336.126 33.8526 331.287 32.3677C326.538 30.9084 321.627 29.4022 311.966 29.4022L311.966 28.1477C321.814 28.1477 326.815 29.6838 331.654 31.1687C336.403 32.628 341.314 34.1342 350.975 34.1342C360.635 34.1342 365.547 32.6237 370.296 31.1687C375.134 29.6838 380.14 28.1477 389.983 28.1477L389.983 29.4022C380.323 29.4022 375.412 30.9127 370.663 32.3677C365.824 33.8526 360.819 35.3887 350.975 35.3887Z" fill="url(#paint47_linear_1175_1224)"/>
<path d="M350.975 32.6231C341.135 32.6231 336.134 31.087 331.296 29.6021C326.542 28.1428 321.627 26.6323 311.962 26.6323L311.962 25.4589C321.802 25.4589 326.802 26.995 331.641 28.4799C336.395 29.9392 341.31 31.4497 350.975 31.4497C360.639 31.4497 365.555 29.9392 370.308 28.4799C375.143 26.995 380.144 25.4589 389.988 25.4589L389.988 26.6323C380.323 26.6323 375.407 28.1428 370.654 29.6021C365.819 31.087 360.819 32.6231 350.975 32.6231Z" fill="url(#paint48_linear_1175_1224)"/>
<path d="M350.975 29.8575C341.14 29.8575 336.143 28.3213 331.308 26.8364C326.551 25.3771 321.635 23.8666 311.966 23.8666L311.966 22.77C321.802 22.77 326.798 24.3061 331.633 25.791C336.39 27.2503 341.306 28.7608 350.975 28.7608C360.644 28.7608 365.564 27.2503 370.317 25.791C375.151 24.3061 380.148 22.77 389.983 22.77L389.983 23.8666C380.314 23.8666 375.395 25.3771 370.641 26.8364C365.807 28.3213 360.81 29.8575 350.975 29.8575Z" fill="url(#paint49_linear_1175_1224)"/>
<path d="M350.975 27.0977C341.144 27.0977 336.151 25.5658 331.321 24.0809C326.564 22.6216 321.644 21.1069 311.966 21.1069L311.966 20.0871C321.797 20.0871 326.79 21.6189 331.62 23.1038C336.378 24.5631 341.297 26.0779 350.975 26.0779C360.652 26.0779 365.572 24.5674 370.33 23.1038C375.16 21.6189 380.157 20.0871 389.983 20.0871L389.983 21.1069C380.306 21.1069 375.386 22.6174 370.628 24.0809C365.798 25.5659 360.802 27.0977 350.975 27.0977Z" fill="url(#paint50_linear_1175_1224)"/>
<path d="M350.975 24.3321C341.152 24.3321 336.16 22.8002 331.334 21.3153C326.572 19.8518 321.648 18.3412 311.966 18.3412L311.966 17.4025C321.789 17.4025 326.781 18.9344 331.607 20.4193C336.369 21.8828 341.293 23.3933 350.975 23.3933C360.657 23.3933 365.581 21.8828 370.343 20.4193C375.169 18.9344 380.161 17.4025 389.983 17.4025L389.983 18.3413C380.302 18.3413 375.378 19.8518 370.616 21.3153C365.79 22.8002 360.797 24.3321 350.975 24.3321Z" fill="url(#paint51_linear_1175_1224)"/>
<path d="M350.975 21.5664C341.157 21.5664 336.169 20.0346 331.343 18.554C326.576 17.0904 321.652 15.5799 311.966 15.5799L311.966 14.718C321.785 14.718 326.773 16.2498 331.599 17.7304C336.365 19.194 341.289 20.7045 350.975 20.7045C360.661 20.7045 365.589 19.1897 370.351 17.7304C375.177 16.2498 380.165 14.718 389.983 14.718L389.983 15.5799C380.297 15.5799 375.369 17.0947 370.607 18.554C365.781 20.0346 360.793 21.5664 350.975 21.5664Z" fill="url(#paint52_linear_1175_1224)"/>
<path d="M350.975 18.8067C341.165 18.8067 336.177 17.2748 331.355 15.7942C326.589 14.3306 321.661 12.8159 311.966 12.8159L311.966 12.0307C321.776 12.0307 326.764 13.5626 331.586 15.0432C336.352 16.5068 341.28 18.0216 350.975 18.0216C360.669 18.0216 365.598 16.5068 370.364 15.0432C375.186 13.5626 380.174 12.0307 389.983 12.0307L389.983 12.8159C380.289 12.8159 375.361 14.3306 370.594 15.7942C365.773 17.2748 360.785 18.8067 350.975 18.8067Z" fill="url(#paint53_linear_1175_1224)"/>
<path d="M350.975 16.041C341.169 16.041 336.186 14.5092 331.368 13.0328C326.598 11.5693 321.665 10.0545 311.966 10.0545L311.966 9.34618C321.772 9.34618 326.756 10.878 331.573 12.3544C336.343 13.818 341.276 15.3327 350.975 15.3327C360.674 15.3327 365.606 13.818 370.377 12.3544C375.194 10.8738 380.178 9.34619 389.983 9.34619L389.983 10.0545C380.285 10.0545 375.352 11.5693 370.582 13.0328C365.764 14.5135 360.78 16.041 350.975 16.041Z" fill="url(#paint54_linear_1175_1224)"/>
<path d="M350.975 13.2754C341.174 13.2754 336.194 11.7478 331.377 10.2672C326.606 8.80365 321.669 7.28461 311.962 7.2846L311.962 6.65736C321.763 6.65736 326.743 8.18493 331.56 9.66557C336.331 11.1291 341.267 12.6482 350.975 12.6482C360.682 12.6482 365.615 11.1334 370.389 9.66557C375.207 8.18494 380.186 6.65737 389.988 6.65737L389.988 7.28461C380.28 7.28461 375.348 8.79938 370.573 10.2672C365.755 11.7479 360.776 13.2754 350.975 13.2754Z" fill="url(#paint55_linear_1175_1224)"/>
<path d="M350.975 10.5157C341.182 10.5157 336.203 8.98808 331.39 7.50745C326.615 6.03961 321.678 4.52484 311.966 4.52484L311.966 3.9744C321.759 3.97441 326.739 5.50198 331.552 6.98261C336.326 8.45045 341.263 9.96521 350.975 9.96521C360.686 9.96522 365.623 8.45045 370.398 6.98262C375.211 5.50625 380.191 3.97441 389.983 3.97441L389.983 4.52485C380.272 4.52485 375.335 6.03962 370.56 7.50745C365.747 8.98382 360.768 10.5157 350.975 10.5157Z" fill="url(#paint56_linear_1175_1224)"/>
<path d="M350.975 7.75003C341.186 7.75003 336.211 6.22246 331.402 4.74609C326.623 3.27826 321.682 1.76349 311.966 1.76349L311.966 1.28985C321.755 1.28985 326.73 2.81743 331.539 4.2938C336.318 5.76163 341.259 7.2764 350.975 7.2764C360.691 7.2764 365.632 5.75737 370.411 4.2938C375.224 2.81743 380.199 1.28986 389.983 1.28986L389.983 1.76349C380.268 1.76349 375.326 3.28253 370.547 4.7461C365.734 6.22246 360.759 7.75003 350.975 7.75003Z" fill="url(#paint57_linear_1175_1224)"/>
<path d="M350.975 4.98636C341.195 4.98636 336.22 3.45879 331.411 1.98242C326.632 0.514587 321.686 -1.00445 311.962 -1.00445L311.962 -1.40128C321.746 -1.40128 326.717 0.126294 331.526 1.60266C336.305 3.0705 341.25 4.58953 350.975 4.58953C360.699 4.58954 365.64 3.0705 370.424 1.60267C375.232 0.126299 380.203 -1.40128 389.988 -1.40127L389.988 -1.00444C380.263 -1.00445 375.322 0.514592 370.539 1.98242C365.73 3.45879 360.759 4.98636 350.975 4.98636Z" fill="url(#paint58_linear_1175_1224)"/>
<path d="M350.975 2.22623C341.199 2.22623 336.228 0.698656 331.424 -0.773445C326.64 -2.24128 321.695 -3.76032 311.966 -3.76032L311.966 -4.07607C321.742 -4.07607 326.713 -2.5485 331.518 -1.07213C336.301 0.395704 341.246 1.91474 350.975 1.91474C360.704 1.91474 365.649 0.395706 370.432 -1.07213C375.237 -2.54849 380.208 -4.07607 389.983 -4.07607L389.983 -3.76031C380.255 -3.76031 375.309 -2.24127 370.526 -0.773441C365.721 0.702926 360.75 2.2305 350.975 2.2305L350.975 2.22623Z" fill="url(#paint59_linear_1175_1224)"/>
<path d="M311.966 35.2637C302.11 35.2637 297.1 33.7276 292.253 32.2384C287.508 30.7834 282.601 29.2729 272.954 29.2729C263.306 29.2729 258.399 30.7791 253.654 32.2384C248.811 33.7276 243.802 35.2637 233.941 35.2637L233.941 33.8556C243.588 33.8556 248.495 32.3494 253.24 30.8901C258.083 29.4009 263.093 27.8648 272.954 27.8648C282.81 27.8648 287.82 29.4009 292.667 30.8901C297.412 32.3451 302.319 33.8556 311.966 33.8556L311.966 35.2637Z" fill="url(#paint60_linear_1175_1224)"/>
<path d="M311.966 37.9532C302.114 37.9532 297.109 36.4171 292.266 34.9279C287.517 33.4686 282.61 31.9623 272.958 31.9623C263.306 31.9623 258.395 33.4686 253.65 34.9279C248.807 36.4128 243.802 37.9532 233.949 37.9532L233.949 36.6219C243.601 36.6219 248.512 35.1156 253.257 33.6563C258.1 32.1714 263.105 30.6311 272.958 30.6311C282.81 30.6311 287.815 32.1672 292.658 33.6563C297.407 35.1156 302.314 36.6219 311.966 36.6219L311.966 37.9532Z" fill="url(#paint61_linear_1175_1224)"/>
<path d="M311.966 40.6368C302.118 40.6368 297.117 39.1006 292.279 37.6157C287.529 36.1564 282.618 34.6502 272.958 34.6502C263.297 34.6502 258.386 36.1607 253.637 37.6157C248.798 39.1006 243.793 40.6367 233.949 40.6367L233.949 39.3823C243.61 39.3823 248.521 37.8718 253.27 36.4167C258.109 34.9318 263.114 33.3957 272.958 33.3957C282.806 33.3957 287.807 34.9318 292.646 36.4167C297.395 37.876 302.306 39.3823 311.966 39.3823L311.966 40.6368Z" fill="url(#paint62_linear_1175_1224)"/>
<path d="M311.966 43.3243C302.127 43.3243 297.126 41.7881 292.287 40.3032C287.534 38.8439 282.618 37.3334 272.954 37.3334C263.289 37.3334 258.373 38.8439 253.62 40.3032C248.785 41.7881 243.785 43.3242 233.941 43.3242L233.941 42.1508C243.605 42.1508 248.521 40.6403 253.274 39.181C258.109 37.6961 263.11 36.16 272.954 36.16C282.793 36.16 287.794 37.6961 292.633 39.181C297.386 40.6403 302.302 42.1508 311.966 42.1508L311.966 43.3243Z" fill="url(#paint63_linear_1175_1224)"/>
<path d="M311.966 46.0078C302.131 46.0078 297.134 44.4717 292.3 42.9868C287.542 41.5275 282.627 40.017 272.958 40.017C263.289 40.017 258.369 41.5275 253.616 42.9868C248.781 44.4717 243.785 46.0078 233.949 46.0078L233.949 44.9112C243.618 44.9112 248.538 43.4007 253.291 41.9414C258.126 40.4565 263.122 38.9204 272.958 38.9204C282.793 38.9204 287.79 40.4565 292.624 41.9414C297.382 43.4007 302.297 44.9112 311.966 44.9112L311.966 46.0078Z" fill="url(#paint64_linear_1175_1224)"/>
<path d="M311.966 48.6914C302.135 48.6914 297.143 47.1596 292.313 45.6747C287.555 44.2154 282.635 42.7006 272.958 42.7006C263.28 42.7006 258.361 44.2111 253.603 45.6747C248.773 47.1596 243.776 48.6914 233.949 48.6914L233.949 47.6716C243.627 47.6716 248.547 46.1611 253.304 44.6976C258.134 43.2127 263.131 41.6808 272.958 41.6808C282.785 41.6808 287.781 43.2127 292.611 44.6976C297.369 46.1569 302.289 47.6716 311.966 47.6716L311.966 48.6914Z" fill="url(#paint65_linear_1175_1224)"/>
<path d="M311.966 51.3809C302.144 51.3809 297.151 49.8491 292.325 48.3642C287.564 46.9006 282.64 45.3901 272.958 45.3901C263.276 45.3901 258.352 46.9006 253.59 48.3641C248.764 49.8448 243.772 51.3809 233.949 51.3809L233.949 50.4422C243.631 50.4422 248.555 48.9317 253.317 47.4681C258.143 45.9875 263.135 44.4513 272.958 44.4514C282.78 44.4514 287.773 45.9832 292.599 47.4681C297.361 48.9317 302.285 50.4422 311.966 50.4422L311.966 51.3809Z" fill="url(#paint66_linear_1175_1224)"/>
<path d="M311.966 54.0645C302.148 54.0645 297.16 52.5326 292.334 51.052C287.568 49.5884 282.644 48.0779 272.958 48.0779C263.272 48.0779 258.343 49.5927 253.582 51.052C248.756 52.5326 243.768 54.0645 233.949 54.0645L233.949 53.2026C243.635 53.2026 248.564 51.6878 253.326 50.2285C258.151 48.7479 263.14 47.216 272.958 47.216C282.776 47.216 287.764 48.7479 292.59 50.2285C297.356 51.6921 302.28 53.2026 311.966 53.2026L311.966 54.0645Z" fill="url(#paint67_linear_1175_1224)"/>
<path d="M311.966 56.752C302.157 56.752 297.168 55.2201 292.347 53.7395C287.581 52.2759 282.652 50.7612 272.958 50.7612C263.263 50.7612 258.335 52.2759 253.569 53.7395C248.747 55.2201 243.759 56.752 233.949 56.752L233.949 55.9669C243.644 55.9669 248.572 54.4521 253.338 52.9885C258.16 51.5079 263.148 49.9761 272.958 49.9761C282.768 49.9761 287.756 51.5079 292.577 52.9885C297.343 54.4521 302.272 55.9669 311.966 55.9669L311.966 56.752Z" fill="url(#paint68_linear_1175_1224)"/>
<path d="M311.966 59.4356C302.161 59.4356 297.177 57.9037 292.36 56.4274C287.589 54.9638 282.657 53.449 272.958 53.449C263.259 53.449 258.326 54.9638 253.556 56.4274C248.739 57.908 243.755 59.4356 233.949 59.4356L233.949 58.7273C243.648 58.7273 248.581 57.2125 253.351 55.7489C258.168 54.2683 263.152 52.7407 272.958 52.7407C282.763 52.7407 287.747 54.2726 292.564 55.7489C297.335 57.2125 302.268 58.7273 311.966 58.7273L311.966 59.4356Z" fill="url(#paint69_linear_1175_1224)"/>
<path d="M311.966 62.1211C302.165 62.1211 297.186 60.5936 292.368 59.1129C287.598 57.6494 282.661 56.1303 272.954 56.1303C263.246 56.1303 258.314 57.6451 253.539 59.1129C248.721 60.5936 243.742 62.1211 233.941 62.1211L233.941 61.4939C243.648 61.4939 248.581 59.9791 253.355 58.5113C258.173 57.0306 263.152 55.5031 272.954 55.5031C282.755 55.5031 287.734 57.0306 292.552 58.5113C297.322 59.9748 302.259 61.4939 311.966 61.4939L311.966 62.1211Z" fill="url(#paint70_linear_1175_1224)"/>
<path d="M311.966 64.8086C302.174 64.8086 297.194 63.2811 292.381 61.8004C287.606 60.3326 282.669 58.8178 272.958 58.8178C263.246 58.8178 258.309 60.3326 253.535 61.8004C248.721 63.2768 243.742 64.8086 233.949 64.8086L233.949 64.2582C243.661 64.2582 248.598 62.7434 253.372 61.2756C258.186 59.7992 263.165 58.2674 272.958 58.2674C282.75 58.2674 287.73 59.7949 292.543 61.2756C297.318 62.7434 302.255 64.2582 311.966 64.2582L311.966 64.8086Z" fill="url(#paint71_linear_1175_1224)"/>
<path d="M311.966 67.4922C302.178 67.4922 297.203 65.9646 292.394 64.4883C287.615 63.0204 282.674 61.5057 272.958 61.5057C263.242 61.5057 258.301 63.0247 253.522 64.4883C248.709 65.9646 243.733 67.4922 233.949 67.4922L233.949 67.0186C243.665 67.0186 248.606 65.4995 253.385 64.036C258.198 62.5596 263.174 61.032 272.958 61.032C282.746 61.032 287.721 62.5596 292.53 64.036C297.309 65.5038 302.25 67.0186 311.966 67.0186L311.966 67.4922Z" fill="url(#paint72_linear_1175_1224)"/>
<path d="M311.966 70.1817C302.182 70.1817 297.211 68.6541 292.402 67.1777C287.623 65.7099 282.678 64.1909 272.954 64.1909C263.229 64.1909 258.288 65.7099 253.505 67.1777C248.696 68.6541 243.725 70.1817 233.941 70.1817L233.941 69.7848C243.665 69.7848 248.606 68.2658 253.39 66.798C258.198 65.3216 263.169 63.794 272.954 63.794C282.738 63.794 287.709 65.3216 292.518 66.798C297.297 68.2658 302.242 69.7848 311.966 69.7848L311.966 70.1817Z" fill="url(#paint73_linear_1175_1224)"/>
<path d="M311.966 72.8653C302.191 72.8653 297.22 71.3377 292.415 69.8613C287.632 68.3935 282.686 66.8745 272.958 66.8745C263.229 66.8745 258.284 68.3935 253.5 69.8613C248.692 71.3377 243.721 72.8653 233.945 72.8653L233.945 72.5495C243.674 72.5495 248.619 71.0305 253.402 69.5626C258.207 68.0863 263.178 66.5587 272.954 66.5587C282.729 66.5587 287.7 68.0863 292.505 69.5626C297.288 71.0305 302.233 72.5495 311.962 72.5495L311.962 72.8653L311.966 72.8653Z" fill="url(#paint74_linear_1175_1224)"/>
</g>
<defs>
<linearGradient id="paint0_linear_1175_1224" x1="38.8934" y1="-4.12793" x2="38.8934" y2="77.3326" gradientUnits="userSpaceOnUse">
<stop stop-color="#B6D5EC" stop-opacity="0"/>
<stop offset="0.1" stop-color="#B6D5EC" stop-opacity="0.03"/>
<stop offset="0.23" stop-color="#B6D5EC" stop-opacity="0.1"/>
<stop offset="0.38" stop-color="#B6D5EC" stop-opacity="0.22"/>
<stop offset="0.54" stop-color="#B6D5EC" stop-opacity="0.38"/>
<stop offset="0.72" stop-color="#B6D5EC" stop-opacity="0.59"/>
<stop offset="0.9" stop-color="#B6D5EC" stop-opacity="0.85"/>
<stop offset="1" stop-color="#B6D5EC"/>
</linearGradient>
<linearGradient id="paint1_linear_1175_1224" x1="38.8936" y1="-4.12855" x2="38.8936" y2="77.3319" gradientUnits="userSpaceOnUse">
<stop stop-color="#B6D5EC" stop-opacity="0"/>
<stop offset="0.1" stop-color="#B6D5EC" stop-opacity="0.03"/>
<stop offset="0.23" stop-color="#B6D5EC" stop-opacity="0.1"/>
<stop offset="0.38" stop-color="#B6D5EC" stop-opacity="0.22"/>
<stop offset="0.54" stop-color="#B6D5EC" stop-opacity="0.38"/>
<stop offset="0.72" stop-color="#B6D5EC" stop-opacity="0.59"/>
<stop offset="0.9" stop-color="#B6D5EC" stop-opacity="0.85"/>
<stop offset="1" stop-color="#B6D5EC"/>
</linearGradient>
<linearGradient id="paint2_linear_1175_1224" x1="38.8936" y1="-4.1276" x2="38.8936" y2="77.3329" gradientUnits="userSpaceOnUse">
<stop stop-color="#B6D5EC" stop-opacity="0"/>
<stop offset="0.1" stop-color="#B6D5EC" stop-opacity="0.03"/>
<stop offset="0.23" stop-color="#B6D5EC" stop-opacity="0.1"/>
<stop offset="0.38" stop-color="#B6D5EC" stop-opacity="0.22"/>
<stop offset="0.54" stop-color="#B6D5EC" stop-opacity="0.38"/>
<stop offset="0.72" stop-color="#B6D5EC" stop-opacity="0.59"/>
<stop offset="0.9" stop-color="#B6D5EC" stop-opacity="0.85"/>
<stop offset="1" stop-color="#B6D5EC"/>
</linearGradient>
<linearGradient id="paint3_linear_1175_1224" x1="38.8934" y1="-4.12824" x2="38.8934" y2="77.3323" gradientUnits="userSpaceOnUse">
<stop stop-color="#B6D5EC" stop-opacity="0"/>
<stop offset="0.1" stop-color="#B6D5EC" stop-opacity="0.03"/>
<stop offset="0.23" stop-color="#B6D5EC" stop-opacity="0.1"/>
<stop offset="0.38" stop-color="#B6D5EC" stop-opacity="0.22"/>
<stop offset="0.54" stop-color="#B6D5EC" stop-opacity="0.38"/>
<stop offset="0.72" stop-color="#B6D5EC" stop-opacity="0.59"/>
<stop offset="0.9" stop-color="#B6D5EC" stop-opacity="0.85"/>
<stop offset="1" stop-color="#B6D5EC"/>
</linearGradient>
<linearGradient id="paint4_linear_1175_1224" x1="38.8936" y1="-4.12887" x2="38.8936" y2="77.3316" gradientUnits="userSpaceOnUse">
<stop stop-color="#B6D5EC" stop-opacity="0"/>
<stop offset="0.1" stop-color="#B6D5EC" stop-opacity="0.03"/>
<stop offset="0.23" stop-color="#B6D5EC" stop-opacity="0.1"/>
<stop offset="0.38" stop-color="#B6D5EC" stop-opacity="0.22"/>
<stop offset="0.54" stop-color="#B6D5EC" stop-opacity="0.38"/>
<stop offset="0.72" stop-color="#B6D5EC" stop-opacity="0.59"/>
<stop offset="0.9" stop-color="#B6D5EC" stop-opacity="0.85"/>
<stop offset="1" stop-color="#B6D5EC"/>
</linearGradient>
<linearGradient id="paint5_linear_1175_1224" x1="38.8936" y1="-4.12792" x2="38.8936" y2="77.3326" gradientUnits="userSpaceOnUse">
<stop stop-color="#B6D5EC" stop-opacity="0"/>
<stop offset="0.1" stop-color="#B6D5EC" stop-opacity="0.03"/>
<stop offset="0.23" stop-color="#B6D5EC" stop-opacity="0.1"/>
<stop offset="0.38" stop-color="#B6D5EC" stop-opacity="0.22"/>
<stop offset="0.54" stop-color="#B6D5EC" stop-opacity="0.38"/>
<stop offset="0.72" stop-color="#B6D5EC" stop-opacity="0.59"/>
<stop offset="0.9" stop-color="#B6D5EC" stop-opacity="0.85"/>
<stop offset="1" stop-color="#B6D5EC"/>
</linearGradient>
<linearGradient id="paint6_linear_1175_1224" x1="38.8934" y1="-4.12855" x2="38.8934" y2="77.3319" gradientUnits="userSpaceOnUse">
<stop stop-color="#B6D5EC" stop-opacity="0"/>
<stop offset="0.1" stop-color="#B6D5EC" stop-opacity="0.03"/>
<stop offset="0.23" stop-color="#B6D5EC" stop-opacity="0.1"/>
<stop offset="0.38" stop-color="#B6D5EC" stop-opacity="0.22"/>
<stop offset="0.54" stop-color="#B6D5EC" stop-opacity="0.38"/>
<stop offset="0.72" stop-color="#B6D5EC" stop-opacity="0.59"/>
<stop offset="0.9" stop-color="#B6D5EC" stop-opacity="0.85"/>
<stop offset="1" stop-color="#B6D5EC"/>
</linearGradient>
<linearGradient id="paint7_linear_1175_1224" x1="38.8936" y1="-4.12919" x2="38.8936" y2="77.3313" gradientUnits="userSpaceOnUse">
<stop stop-color="#B6D5EC" stop-opacity="0"/>
<stop offset="0.1" stop-color="#B6D5EC" stop-opacity="0.03"/>
<stop offset="0.23" stop-color="#B6D5EC" stop-opacity="0.1"/>
<stop offset="0.38" stop-color="#B6D5EC" stop-opacity="0.22"/>
<stop offset="0.54" stop-color="#B6D5EC" stop-opacity="0.38"/>
<stop offset="0.72" stop-color="#B6D5EC" stop-opacity="0.59"/>
<stop offset="0.9" stop-color="#B6D5EC" stop-opacity="0.85"/>
<stop offset="1" stop-color="#B6D5EC"/>
</linearGradient>
<linearGradient id="paint8_linear_1175_1224" x1="38.8936" y1="-4.12824" x2="38.8936" y2="77.3323" gradientUnits="userSpaceOnUse">
<stop stop-color="#B6D5EC" stop-opacity="0"/>
<stop offset="0.1" stop-color="#B6D5EC" stop-opacity="0.03"/>
<stop offset="0.23" stop-color="#B6D5EC" stop-opacity="0.1"/>
<stop offset="0.38" stop-color="#B6D5EC" stop-opacity="0.22"/>
<stop offset="0.54" stop-color="#B6D5EC" stop-opacity="0.38"/>
<stop offset="0.72" stop-color="#B6D5EC" stop-opacity="0.59"/>
<stop offset="0.9" stop-color="#B6D5EC" stop-opacity="0.85"/>
<stop offset="1" stop-color="#B6D5EC"/>
</linearGradient>
<linearGradient id="paint9_linear_1175_1224" x1="38.8934" y1="-4.12887" x2="38.8934" y2="77.3317" gradientUnits="userSpaceOnUse">
<stop stop-color="#B6D5EC" stop-opacity="0"/>
<stop offset="0.1" stop-color="#B6D5EC" stop-opacity="0.03"/>
<stop offset="0.23" stop-color="#B6D5EC" stop-opacity="0.1"/>
<stop offset="0.38" stop-color="#B6D5EC" stop-opacity="0.22"/>
<stop offset="0.54" stop-color="#B6D5EC" stop-opacity="0.38"/>
<stop offset="0.72" stop-color="#B6D5EC" stop-opacity="0.59"/>
<stop offset="0.9" stop-color="#B6D5EC" stop-opacity="0.85"/>
<stop offset="1" stop-color="#B6D5EC"/>
</linearGradient>
<linearGradient id="paint10_linear_1175_1224" x1="38.8934" y1="-4.12951" x2="38.8934" y2="77.331" gradientUnits="userSpaceOnUse">
<stop stop-color="#B6D5EC" stop-opacity="0"/>
<stop offset="0.1" stop-color="#B6D5EC" stop-opacity="0.03"/>
<stop offset="0.23" stop-color="#B6D5EC" stop-opacity="0.1"/>
<stop offset="0.38" stop-color="#B6D5EC" stop-opacity="0.22"/>
<stop offset="0.54" stop-color="#B6D5EC" stop-opacity="0.38"/>
<stop offset="0.72" stop-color="#B6D5EC" stop-opacity="0.59"/>
<stop offset="0.9" stop-color="#B6D5EC" stop-opacity="0.85"/>
<stop offset="1" stop-color="#B6D5EC"/>
</linearGradient>
<linearGradient id="paint11_linear_1175_1224" x1="38.8936" y1="-4.12855" x2="38.8936" y2="77.332" gradientUnits="userSpaceOnUse">
<stop stop-color="#B6D5EC" stop-opacity="0"/>
<stop offset="0.1" stop-color="#B6D5EC" stop-opacity="0.03"/>
<stop offset="0.23" stop-color="#B6D5EC" stop-opacity="0.1"/>
<stop offset="0.38" stop-color="#B6D5EC" stop-opacity="0.22"/>
<stop offset="0.54" stop-color="#B6D5EC" stop-opacity="0.38"/>
<stop offset="0.72" stop-color="#B6D5EC" stop-opacity="0.59"/>
<stop offset="0.9" stop-color="#B6D5EC" stop-opacity="0.85"/>
<stop offset="1" stop-color="#B6D5EC"/>
</linearGradient>
<linearGradient id="paint12_linear_1175_1224" x1="38.8936" y1="-4.12918" x2="38.8936" y2="77.3313" gradientUnits="userSpaceOnUse">
<stop stop-color="#B6D5EC" stop-opacity="0"/>
<stop offset="0.1" stop-color="#B6D5EC" stop-opacity="0.03"/>
<stop offset="0.23" stop-color="#B6D5EC" stop-opacity="0.1"/>
<stop offset="0.38" stop-color="#B6D5EC" stop-opacity="0.22"/>
<stop offset="0.54" stop-color="#B6D5EC" stop-opacity="0.38"/>
<stop offset="0.72" stop-color="#B6D5EC" stop-opacity="0.59"/>
<stop offset="0.9" stop-color="#B6D5EC" stop-opacity="0.85"/>
<stop offset="1" stop-color="#B6D5EC"/>
</linearGradient>
<linearGradient id="paint13_linear_1175_1224" x1="38.8934" y1="-4.12822" x2="38.8934" y2="77.3322" gradientUnits="userSpaceOnUse">
<stop stop-color="#B6D5EC" stop-opacity="0"/>
<stop offset="0.1" stop-color="#B6D5EC" stop-opacity="0.03"/>
<stop offset="0.23" stop-color="#B6D5EC" stop-opacity="0.1"/>
<stop offset="0.38" stop-color="#B6D5EC" stop-opacity="0.22"/>
<stop offset="0.54" stop-color="#B6D5EC" stop-opacity="0.38"/>
<stop offset="0.72" stop-color="#B6D5EC" stop-opacity="0.59"/>
<stop offset="0.9" stop-color="#B6D5EC" stop-opacity="0.85"/>
<stop offset="1" stop-color="#B6D5EC"/>
</linearGradient>
<linearGradient id="paint14_linear_1175_1224" x1="38.8936" y1="-4.12886" x2="38.8936" y2="77.3316" gradientUnits="userSpaceOnUse">
<stop stop-color="#B6D5EC" stop-opacity="0"/>
<stop offset="0.1" stop-color="#B6D5EC" stop-opacity="0.03"/>
<stop offset="0.23" stop-color="#B6D5EC" stop-opacity="0.1"/>
<stop offset="0.38" stop-color="#B6D5EC" stop-opacity="0.22"/>
<stop offset="0.54" stop-color="#B6D5EC" stop-opacity="0.38"/>
<stop offset="0.72" stop-color="#B6D5EC" stop-opacity="0.59"/>
<stop offset="0.9" stop-color="#B6D5EC" stop-opacity="0.85"/>
<stop offset="1" stop-color="#B6D5EC"/>
</linearGradient>
<linearGradient id="paint15_linear_1175_1224" x1="194.936" y1="-4.12793" x2="194.936" y2="77.3326" gradientUnits="userSpaceOnUse">
<stop stop-color="#B6D5EC" stop-opacity="0"/>
<stop offset="0.1" stop-color="#B6D5EC" stop-opacity="0.03"/>
<stop offset="0.23" stop-color="#B6D5EC" stop-opacity="0.1"/>
<stop offset="0.38" stop-color="#B6D5EC" stop-opacity="0.22"/>
<stop offset="0.54" stop-color="#B6D5EC" stop-opacity="0.38"/>
<stop offset="0.72" stop-color="#B6D5EC" stop-opacity="0.59"/>
<stop offset="0.9" stop-color="#B6D5EC" stop-opacity="0.85"/>
<stop offset="1" stop-color="#B6D5EC"/>
</linearGradient>
<linearGradient id="paint16_linear_1175_1224" x1="194.937" y1="-4.12855" x2="194.937" y2="77.3319" gradientUnits="userSpaceOnUse">
<stop stop-color="#B6D5EC" stop-opacity="0"/>
<stop offset="0.1" stop-color="#B6D5EC" stop-opacity="0.03"/>
<stop offset="0.23" stop-color="#B6D5EC" stop-opacity="0.1"/>
<stop offset="0.38" stop-color="#B6D5EC" stop-opacity="0.22"/>
<stop offset="0.54" stop-color="#B6D5EC" stop-opacity="0.38"/>
<stop offset="0.72" stop-color="#B6D5EC" stop-opacity="0.59"/>
<stop offset="0.9" stop-color="#B6D5EC" stop-opacity="0.85"/>
<stop offset="1" stop-color="#B6D5EC"/>
</linearGradient>
<linearGradient id="paint17_linear_1175_1224" x1="194.937" y1="-4.1276" x2="194.937" y2="77.3329" gradientUnits="userSpaceOnUse">
<stop stop-color="#B6D5EC" stop-opacity="0"/>
<stop offset="0.1" stop-color="#B6D5EC" stop-opacity="0.03"/>
<stop offset="0.23" stop-color="#B6D5EC" stop-opacity="0.1"/>
<stop offset="0.38" stop-color="#B6D5EC" stop-opacity="0.22"/>
<stop offset="0.54" stop-color="#B6D5EC" stop-opacity="0.38"/>
<stop offset="0.72" stop-color="#B6D5EC" stop-opacity="0.59"/>
<stop offset="0.9" stop-color="#B6D5EC" stop-opacity="0.85"/>
<stop offset="1" stop-color="#B6D5EC"/>
</linearGradient>
<linearGradient id="paint18_linear_1175_1224" x1="194.936" y1="-4.12824" x2="194.936" y2="77.3323" gradientUnits="userSpaceOnUse">
<stop stop-color="#B6D5EC" stop-opacity="0"/>
<stop offset="0.1" stop-color="#B6D5EC" stop-opacity="0.03"/>
<stop offset="0.23" stop-color="#B6D5EC" stop-opacity="0.1"/>
<stop offset="0.38" stop-color="#B6D5EC" stop-opacity="0.22"/>
<stop offset="0.54" stop-color="#B6D5EC" stop-opacity="0.38"/>
<stop offset="0.72" stop-color="#B6D5EC" stop-opacity="0.59"/>
<stop offset="0.9" stop-color="#B6D5EC" stop-opacity="0.85"/>
<stop offset="1" stop-color="#B6D5EC"/>
</linearGradient>
<linearGradient id="paint19_linear_1175_1224" x1="194.937" y1="-4.12887" x2="194.937" y2="77.3316" gradientUnits="userSpaceOnUse">
<stop stop-color="#B6D5EC" stop-opacity="0"/>
<stop offset="0.1" stop-color="#B6D5EC" stop-opacity="0.03"/>
<stop offset="0.23" stop-color="#B6D5EC" stop-opacity="0.1"/>
<stop offset="0.38" stop-color="#B6D5EC" stop-opacity="0.22"/>
<stop offset="0.54" stop-color="#B6D5EC" stop-opacity="0.38"/>
<stop offset="0.72" stop-color="#B6D5EC" stop-opacity="0.59"/>
<stop offset="0.9" stop-color="#B6D5EC" stop-opacity="0.85"/>
<stop offset="1" stop-color="#B6D5EC"/>
</linearGradient>
<linearGradient id="paint20_linear_1175_1224" x1="194.937" y1="-4.12792" x2="194.937" y2="77.3326" gradientUnits="userSpaceOnUse">
<stop stop-color="#B6D5EC" stop-opacity="0"/>
<stop offset="0.1" stop-color="#B6D5EC" stop-opacity="0.03"/>
<stop offset="0.23" stop-color="#B6D5EC" stop-opacity="0.1"/>
<stop offset="0.38" stop-color="#B6D5EC" stop-opacity="0.22"/>
<stop offset="0.54" stop-color="#B6D5EC" stop-opacity="0.38"/>
<stop offset="0.72" stop-color="#B6D5EC" stop-opacity="0.59"/>
<stop offset="0.9" stop-color="#B6D5EC" stop-opacity="0.85"/>
<stop offset="1" stop-color="#B6D5EC"/>
</linearGradient>
<linearGradient id="paint21_linear_1175_1224" x1="194.936" y1="-4.12855" x2="194.936" y2="77.3319" gradientUnits="userSpaceOnUse">
<stop stop-color="#B6D5EC" stop-opacity="0"/>
<stop offset="0.1" stop-color="#B6D5EC" stop-opacity="0.03"/>
<stop offset="0.23" stop-color="#B6D5EC" stop-opacity="0.1"/>
<stop offset="0.38" stop-color="#B6D5EC" stop-opacity="0.22"/>
<stop offset="0.54" stop-color="#B6D5EC" stop-opacity="0.38"/>
<stop offset="0.72" stop-color="#B6D5EC" stop-opacity="0.59"/>
<stop offset="0.9" stop-color="#B6D5EC" stop-opacity="0.85"/>
<stop offset="1" stop-color="#B6D5EC"/>
</linearGradient>
<linearGradient id="paint22_linear_1175_1224" x1="194.937" y1="-4.12919" x2="194.937" y2="77.3313" gradientUnits="userSpaceOnUse">
<stop stop-color="#B6D5EC" stop-opacity="0"/>
<stop offset="0.1" stop-color="#B6D5EC" stop-opacity="0.03"/>
<stop offset="0.23" stop-color="#B6D5EC" stop-opacity="0.1"/>
<stop offset="0.38" stop-color="#B6D5EC" stop-opacity="0.22"/>
<stop offset="0.54" stop-color="#B6D5EC" stop-opacity="0.38"/>
<stop offset="0.72" stop-color="#B6D5EC" stop-opacity="0.59"/>
<stop offset="0.9" stop-color="#B6D5EC" stop-opacity="0.85"/>
<stop offset="1" stop-color="#B6D5EC"/>
</linearGradient>
<linearGradient id="paint23_linear_1175_1224" x1="194.937" y1="-4.12824" x2="194.937" y2="77.3323" gradientUnits="userSpaceOnUse">
<stop stop-color="#B6D5EC" stop-opacity="0"/>
<stop offset="0.1" stop-color="#B6D5EC" stop-opacity="0.03"/>
<stop offset="0.23" stop-color="#B6D5EC" stop-opacity="0.1"/>
<stop offset="0.38" stop-color="#B6D5EC" stop-opacity="0.22"/>
<stop offset="0.54" stop-color="#B6D5EC" stop-opacity="0.38"/>
<stop offset="0.72" stop-color="#B6D5EC" stop-opacity="0.59"/>
<stop offset="0.9" stop-color="#B6D5EC" stop-opacity="0.85"/>
<stop offset="1" stop-color="#B6D5EC"/>
</linearGradient>
<linearGradient id="paint24_linear_1175_1224" x1="194.936" y1="-4.12887" x2="194.936" y2="77.3317" gradientUnits="userSpaceOnUse">
<stop stop-color="#B6D5EC" stop-opacity="0"/>
<stop offset="0.1" stop-color="#B6D5EC" stop-opacity="0.03"/>
<stop offset="0.23" stop-color="#B6D5EC" stop-opacity="0.1"/>
<stop offset="0.38" stop-color="#B6D5EC" stop-opacity="0.22"/>
<stop offset="0.54" stop-color="#B6D5EC" stop-opacity="0.38"/>
<stop offset="0.72" stop-color="#B6D5EC" stop-opacity="0.59"/>
<stop offset="0.9" stop-color="#B6D5EC" stop-opacity="0.85"/>
<stop offset="1" stop-color="#B6D5EC"/>
</linearGradient>
<linearGradient id="paint25_linear_1175_1224" x1="194.936" y1="-4.12951" x2="194.936" y2="77.331" gradientUnits="userSpaceOnUse">
<stop stop-color="#B6D5EC" stop-opacity="0"/>
<stop offset="0.1" stop-color="#B6D5EC" stop-opacity="0.03"/>
<stop offset="0.23" stop-color="#B6D5EC" stop-opacity="0.1"/>
<stop offset="0.38" stop-color="#B6D5EC" stop-opacity="0.22"/>
<stop offset="0.54" stop-color="#B6D5EC" stop-opacity="0.38"/>
<stop offset="0.72" stop-color="#B6D5EC" stop-opacity="0.59"/>
<stop offset="0.9" stop-color="#B6D5EC" stop-opacity="0.85"/>
<stop offset="1" stop-color="#B6D5EC"/>
</linearGradient>
<linearGradient id="paint26_linear_1175_1224" x1="194.937" y1="-4.12855" x2="194.937" y2="77.332" gradientUnits="userSpaceOnUse">
<stop stop-color="#B6D5EC" stop-opacity="0"/>
<stop offset="0.1" stop-color="#B6D5EC" stop-opacity="0.03"/>
<stop offset="0.23" stop-color="#B6D5EC" stop-opacity="0.1"/>
<stop offset="0.38" stop-color="#B6D5EC" stop-opacity="0.22"/>
<stop offset="0.54" stop-color="#B6D5EC" stop-opacity="0.38"/>
<stop offset="0.72" stop-color="#B6D5EC" stop-opacity="0.59"/>
<stop offset="0.9" stop-color="#B6D5EC" stop-opacity="0.85"/>
<stop offset="1" stop-color="#B6D5EC"/>
</linearGradient>
<linearGradient id="paint27_linear_1175_1224" x1="194.937" y1="-4.12918" x2="194.937" y2="77.3313" gradientUnits="userSpaceOnUse">
<stop stop-color="#B6D5EC" stop-opacity="0"/>
<stop offset="0.1" stop-color="#B6D5EC" stop-opacity="0.03"/>
<stop offset="0.23" stop-color="#B6D5EC" stop-opacity="0.1"/>
<stop offset="0.38" stop-color="#B6D5EC" stop-opacity="0.22"/>
<stop offset="0.54" stop-color="#B6D5EC" stop-opacity="0.38"/>
<stop offset="0.72" stop-color="#B6D5EC" stop-opacity="0.59"/>
<stop offset="0.9" stop-color="#B6D5EC" stop-opacity="0.85"/>
<stop offset="1" stop-color="#B6D5EC"/>
</linearGradient>
<linearGradient id="paint28_linear_1175_1224" x1="194.936" y1="-4.12787" x2="194.936" y2="77.3326" gradientUnits="userSpaceOnUse">
<stop stop-color="#B6D5EC" stop-opacity="0"/>
<stop offset="0.1" stop-color="#B6D5EC" stop-opacity="0.03"/>
<stop offset="0.23" stop-color="#B6D5EC" stop-opacity="0.1"/>
<stop offset="0.38" stop-color="#B6D5EC" stop-opacity="0.22"/>
<stop offset="0.54" stop-color="#B6D5EC" stop-opacity="0.38"/>
<stop offset="0.72" stop-color="#B6D5EC" stop-opacity="0.59"/>
<stop offset="0.9" stop-color="#B6D5EC" stop-opacity="0.85"/>
<stop offset="1" stop-color="#B6D5EC"/>
</linearGradient>
<linearGradient id="paint29_linear_1175_1224" x1="194.937" y1="-4.12886" x2="194.937" y2="77.3316" gradientUnits="userSpaceOnUse">
<stop stop-color="#B6D5EC" stop-opacity="0"/>
<stop offset="0.1" stop-color="#B6D5EC" stop-opacity="0.03"/>
<stop offset="0.23" stop-color="#B6D5EC" stop-opacity="0.1"/>
<stop offset="0.38" stop-color="#B6D5EC" stop-opacity="0.22"/>
<stop offset="0.54" stop-color="#B6D5EC" stop-opacity="0.38"/>
<stop offset="0.72" stop-color="#B6D5EC" stop-opacity="0.59"/>
<stop offset="0.9" stop-color="#B6D5EC" stop-opacity="0.85"/>
<stop offset="1" stop-color="#B6D5EC"/>
</linearGradient>
<linearGradient id="paint30_linear_1175_1224" x1="116.915" y1="-4.12885" x2="116.915" y2="77.3316" gradientUnits="userSpaceOnUse">
<stop stop-color="#B6D5EC" stop-opacity="0"/>
<stop offset="0.1" stop-color="#B6D5EC" stop-opacity="0.03"/>
<stop offset="0.23" stop-color="#B6D5EC" stop-opacity="0.1"/>
<stop offset="0.38" stop-color="#B6D5EC" stop-opacity="0.22"/>
<stop offset="0.54" stop-color="#B6D5EC" stop-opacity="0.38"/>
<stop offset="0.72" stop-color="#B6D5EC" stop-opacity="0.59"/>
<stop offset="0.9" stop-color="#B6D5EC" stop-opacity="0.85"/>
<stop offset="1" stop-color="#B6D5EC"/>
</linearGradient>
<linearGradient id="paint31_linear_1175_1224" x1="116.915" y1="-4.1276" x2="116.915" y2="77.3329" gradientUnits="userSpaceOnUse">
<stop stop-color="#B6D5EC" stop-opacity="0"/>
<stop offset="0.1" stop-color="#B6D5EC" stop-opacity="0.03"/>
<stop offset="0.23" stop-color="#B6D5EC" stop-opacity="0.1"/>
<stop offset="0.38" stop-color="#B6D5EC" stop-opacity="0.22"/>
<stop offset="0.54" stop-color="#B6D5EC" stop-opacity="0.38"/>
<stop offset="0.72" stop-color="#B6D5EC" stop-opacity="0.59"/>
<stop offset="0.9" stop-color="#B6D5EC" stop-opacity="0.85"/>
<stop offset="1" stop-color="#B6D5EC"/>
</linearGradient>
<linearGradient id="paint32_linear_1175_1224" x1="116.915" y1="-4.12792" x2="116.915" y2="77.3326" gradientUnits="userSpaceOnUse">
<stop stop-color="#B6D5EC" stop-opacity="0"/>
<stop offset="0.1" stop-color="#B6D5EC" stop-opacity="0.03"/>
<stop offset="0.23" stop-color="#B6D5EC" stop-opacity="0.1"/>
<stop offset="0.38" stop-color="#B6D5EC" stop-opacity="0.22"/>
<stop offset="0.54" stop-color="#B6D5EC" stop-opacity="0.38"/>
<stop offset="0.72" stop-color="#B6D5EC" stop-opacity="0.59"/>
<stop offset="0.9" stop-color="#B6D5EC" stop-opacity="0.85"/>
<stop offset="1" stop-color="#B6D5EC"/>
</linearGradient>
<linearGradient id="paint33_linear_1175_1224" x1="116.915" y1="-4.12858" x2="116.915" y2="77.3319" gradientUnits="userSpaceOnUse">
<stop stop-color="#B6D5EC" stop-opacity="0"/>
<stop offset="0.1" stop-color="#B6D5EC" stop-opacity="0.03"/>
<stop offset="0.23" stop-color="#B6D5EC" stop-opacity="0.1"/>
<stop offset="0.38" stop-color="#B6D5EC" stop-opacity="0.22"/>
<stop offset="0.54" stop-color="#B6D5EC" stop-opacity="0.38"/>
<stop offset="0.72" stop-color="#B6D5EC" stop-opacity="0.59"/>
<stop offset="0.9" stop-color="#B6D5EC" stop-opacity="0.85"/>
<stop offset="1" stop-color="#B6D5EC"/>
</linearGradient>
<linearGradient id="paint34_linear_1175_1224" x1="116.915" y1="-4.12893" x2="116.915" y2="77.3316" gradientUnits="userSpaceOnUse">
<stop stop-color="#B6D5EC" stop-opacity="0"/>
<stop offset="0.1" stop-color="#B6D5EC" stop-opacity="0.03"/>
<stop offset="0.23" stop-color="#B6D5EC" stop-opacity="0.1"/>
<stop offset="0.38" stop-color="#B6D5EC" stop-opacity="0.22"/>
<stop offset="0.54" stop-color="#B6D5EC" stop-opacity="0.38"/>
<stop offset="0.72" stop-color="#B6D5EC" stop-opacity="0.59"/>
<stop offset="0.9" stop-color="#B6D5EC" stop-opacity="0.85"/>
<stop offset="1" stop-color="#B6D5EC"/>
</linearGradient>
<linearGradient id="paint35_linear_1175_1224" x1="116.915" y1="-4.12925" x2="116.915" y2="77.3313" gradientUnits="userSpaceOnUse">
<stop stop-color="#B6D5EC" stop-opacity="0"/>
<stop offset="0.1" stop-color="#B6D5EC" stop-opacity="0.03"/>
<stop offset="0.23" stop-color="#B6D5EC" stop-opacity="0.1"/>
<stop offset="0.38" stop-color="#B6D5EC" stop-opacity="0.22"/>
<stop offset="0.54" stop-color="#B6D5EC" stop-opacity="0.38"/>
<stop offset="0.72" stop-color="#B6D5EC" stop-opacity="0.59"/>
<stop offset="0.9" stop-color="#B6D5EC" stop-opacity="0.85"/>
<stop offset="1" stop-color="#B6D5EC"/>
</linearGradient>
<linearGradient id="paint36_linear_1175_1224" x1="116.915" y1="-4.12797" x2="116.915" y2="77.3325" gradientUnits="userSpaceOnUse">
<stop stop-color="#B6D5EC" stop-opacity="0"/>
<stop offset="0.1" stop-color="#B6D5EC" stop-opacity="0.03"/>
<stop offset="0.23" stop-color="#B6D5EC" stop-opacity="0.1"/>
<stop offset="0.38" stop-color="#B6D5EC" stop-opacity="0.22"/>
<stop offset="0.54" stop-color="#B6D5EC" stop-opacity="0.38"/>
<stop offset="0.72" stop-color="#B6D5EC" stop-opacity="0.59"/>
<stop offset="0.9" stop-color="#B6D5EC" stop-opacity="0.85"/>
<stop offset="1" stop-color="#B6D5EC"/>
</linearGradient>
<linearGradient id="paint37_linear_1175_1224" x1="116.915" y1="-4.12829" x2="116.915" y2="77.3322" gradientUnits="userSpaceOnUse">
<stop stop-color="#B6D5EC" stop-opacity="0"/>
<stop offset="0.1" stop-color="#B6D5EC" stop-opacity="0.03"/>
<stop offset="0.23" stop-color="#B6D5EC" stop-opacity="0.1"/>
<stop offset="0.38" stop-color="#B6D5EC" stop-opacity="0.22"/>
<stop offset="0.54" stop-color="#B6D5EC" stop-opacity="0.38"/>
<stop offset="0.72" stop-color="#B6D5EC" stop-opacity="0.59"/>
<stop offset="0.9" stop-color="#B6D5EC" stop-opacity="0.85"/>
<stop offset="1" stop-color="#B6D5EC"/>
</linearGradient>
<linearGradient id="paint38_linear_1175_1224" x1="116.915" y1="-4.12898" x2="116.915" y2="77.3315" gradientUnits="userSpaceOnUse">
<stop stop-color="#B6D5EC" stop-opacity="0"/>
<stop offset="0.1" stop-color="#B6D5EC" stop-opacity="0.03"/>
<stop offset="0.23" stop-color="#B6D5EC" stop-opacity="0.1"/>
<stop offset="0.38" stop-color="#B6D5EC" stop-opacity="0.22"/>
<stop offset="0.54" stop-color="#B6D5EC" stop-opacity="0.38"/>
<stop offset="0.72" stop-color="#B6D5EC" stop-opacity="0.59"/>
<stop offset="0.9" stop-color="#B6D5EC" stop-opacity="0.85"/>
<stop offset="1" stop-color="#B6D5EC"/>
</linearGradient>
<linearGradient id="paint39_linear_1175_1224" x1="116.915" y1="-4.12931" x2="116.915" y2="77.3312" gradientUnits="userSpaceOnUse">
<stop stop-color="#B6D5EC" stop-opacity="0"/>
<stop offset="0.1" stop-color="#B6D5EC" stop-opacity="0.03"/>
<stop offset="0.23" stop-color="#B6D5EC" stop-opacity="0.1"/>
<stop offset="0.38" stop-color="#B6D5EC" stop-opacity="0.22"/>
<stop offset="0.54" stop-color="#B6D5EC" stop-opacity="0.38"/>
<stop offset="0.72" stop-color="#B6D5EC" stop-opacity="0.59"/>
<stop offset="0.9" stop-color="#B6D5EC" stop-opacity="0.85"/>
<stop offset="1" stop-color="#B6D5EC"/>
</linearGradient>
<linearGradient id="paint40_linear_1175_1224" x1="116.915" y1="-4.12767" x2="116.915" y2="77.3328" gradientUnits="userSpaceOnUse">
<stop stop-color="#B6D5EC" stop-opacity="0"/>
<stop offset="0.1" stop-color="#B6D5EC" stop-opacity="0.03"/>
<stop offset="0.23" stop-color="#B6D5EC" stop-opacity="0.1"/>
<stop offset="0.38" stop-color="#B6D5EC" stop-opacity="0.22"/>
<stop offset="0.54" stop-color="#B6D5EC" stop-opacity="0.38"/>
<stop offset="0.72" stop-color="#B6D5EC" stop-opacity="0.59"/>
<stop offset="0.9" stop-color="#B6D5EC" stop-opacity="0.85"/>
<stop offset="1" stop-color="#B6D5EC"/>
</linearGradient>
<linearGradient id="paint41_linear_1175_1224" x1="116.915" y1="-4.12836" x2="116.915" y2="77.3321" gradientUnits="userSpaceOnUse">
<stop stop-color="#B6D5EC" stop-opacity="0"/>
<stop offset="0.1" stop-color="#B6D5EC" stop-opacity="0.03"/>
<stop offset="0.23" stop-color="#B6D5EC" stop-opacity="0.1"/>
<stop offset="0.38" stop-color="#B6D5EC" stop-opacity="0.22"/>
<stop offset="0.54" stop-color="#B6D5EC" stop-opacity="0.38"/>
<stop offset="0.72" stop-color="#B6D5EC" stop-opacity="0.59"/>
<stop offset="0.9" stop-color="#B6D5EC" stop-opacity="0.85"/>
<stop offset="1" stop-color="#B6D5EC"/>
</linearGradient>
<linearGradient id="paint42_linear_1175_1224" x1="116.915" y1="-4.12868" x2="116.915" y2="77.3318" gradientUnits="userSpaceOnUse">
<stop stop-color="#B6D5EC" stop-opacity="0"/>
<stop offset="0.1" stop-color="#B6D5EC" stop-opacity="0.03"/>
<stop offset="0.23" stop-color="#B6D5EC" stop-opacity="0.1"/>
<stop offset="0.38" stop-color="#B6D5EC" stop-opacity="0.22"/>
<stop offset="0.54" stop-color="#B6D5EC" stop-opacity="0.38"/>
<stop offset="0.72" stop-color="#B6D5EC" stop-opacity="0.59"/>
<stop offset="0.9" stop-color="#B6D5EC" stop-opacity="0.85"/>
<stop offset="1" stop-color="#B6D5EC"/>
</linearGradient>
<linearGradient id="paint43_linear_1175_1224" x1="116.915" y1="-4.12741" x2="116.915" y2="77.3331" gradientUnits="userSpaceOnUse">
<stop stop-color="#B6D5EC" stop-opacity="0"/>
<stop offset="0.1" stop-color="#B6D5EC" stop-opacity="0.03"/>
<stop offset="0.23" stop-color="#B6D5EC" stop-opacity="0.1"/>
<stop offset="0.38" stop-color="#B6D5EC" stop-opacity="0.22"/>
<stop offset="0.54" stop-color="#B6D5EC" stop-opacity="0.38"/>
<stop offset="0.72" stop-color="#B6D5EC" stop-opacity="0.59"/>
<stop offset="0.9" stop-color="#B6D5EC" stop-opacity="0.85"/>
<stop offset="1" stop-color="#B6D5EC"/>
</linearGradient>
<linearGradient id="paint44_linear_1175_1224" x1="116.915" y1="-4.12773" x2="116.915" y2="77.3328" gradientUnits="userSpaceOnUse">
<stop stop-color="#B6D5EC" stop-opacity="0"/>
<stop offset="0.1" stop-color="#B6D5EC" stop-opacity="0.03"/>
<stop offset="0.23" stop-color="#B6D5EC" stop-opacity="0.1"/>
<stop offset="0.38" stop-color="#B6D5EC" stop-opacity="0.22"/>
<stop offset="0.54" stop-color="#B6D5EC" stop-opacity="0.38"/>
<stop offset="0.72" stop-color="#B6D5EC" stop-opacity="0.59"/>
<stop offset="0.9" stop-color="#B6D5EC" stop-opacity="0.85"/>
<stop offset="1" stop-color="#B6D5EC"/>
</linearGradient>
<linearGradient id="paint45_linear_1175_1224" x1="350.975" y1="-4.12793" x2="350.975" y2="77.3326" gradientUnits="userSpaceOnUse">
<stop stop-color="#B6D5EC" stop-opacity="0"/>
<stop offset="0.1" stop-color="#B6D5EC" stop-opacity="0.03"/>
<stop offset="0.23" stop-color="#B6D5EC" stop-opacity="0.1"/>
<stop offset="0.38" stop-color="#B6D5EC" stop-opacity="0.22"/>
<stop offset="0.54" stop-color="#B6D5EC" stop-opacity="0.38"/>
<stop offset="0.72" stop-color="#B6D5EC" stop-opacity="0.59"/>
<stop offset="0.9" stop-color="#B6D5EC" stop-opacity="0.85"/>
<stop offset="1" stop-color="#B6D5EC"/>
</linearGradient>
<linearGradient id="paint46_linear_1175_1224" x1="350.975" y1="-4.12855" x2="350.975" y2="77.3319" gradientUnits="userSpaceOnUse">
<stop stop-color="#B6D5EC" stop-opacity="0"/>
<stop offset="0.1" stop-color="#B6D5EC" stop-opacity="0.03"/>
<stop offset="0.23" stop-color="#B6D5EC" stop-opacity="0.1"/>
<stop offset="0.38" stop-color="#B6D5EC" stop-opacity="0.22"/>
<stop offset="0.54" stop-color="#B6D5EC" stop-opacity="0.38"/>
<stop offset="0.72" stop-color="#B6D5EC" stop-opacity="0.59"/>
<stop offset="0.9" stop-color="#B6D5EC" stop-opacity="0.85"/>
<stop offset="1" stop-color="#B6D5EC"/>
</linearGradient>
<linearGradient id="paint47_linear_1175_1224" x1="350.975" y1="-4.1276" x2="350.975" y2="77.3329" gradientUnits="userSpaceOnUse">
<stop stop-color="#B6D5EC" stop-opacity="0"/>
<stop offset="0.1" stop-color="#B6D5EC" stop-opacity="0.03"/>
<stop offset="0.23" stop-color="#B6D5EC" stop-opacity="0.1"/>
<stop offset="0.38" stop-color="#B6D5EC" stop-opacity="0.22"/>
<stop offset="0.54" stop-color="#B6D5EC" stop-opacity="0.38"/>
<stop offset="0.72" stop-color="#B6D5EC" stop-opacity="0.59"/>
<stop offset="0.9" stop-color="#B6D5EC" stop-opacity="0.85"/>
<stop offset="1" stop-color="#B6D5EC"/>
</linearGradient>
<linearGradient id="paint48_linear_1175_1224" x1="350.975" y1="-4.12824" x2="350.975" y2="77.3323" gradientUnits="userSpaceOnUse">
<stop stop-color="#B6D5EC" stop-opacity="0"/>
<stop offset="0.1" stop-color="#B6D5EC" stop-opacity="0.03"/>
<stop offset="0.23" stop-color="#B6D5EC" stop-opacity="0.1"/>
<stop offset="0.38" stop-color="#B6D5EC" stop-opacity="0.22"/>
<stop offset="0.54" stop-color="#B6D5EC" stop-opacity="0.38"/>
<stop offset="0.72" stop-color="#B6D5EC" stop-opacity="0.59"/>
<stop offset="0.9" stop-color="#B6D5EC" stop-opacity="0.85"/>
<stop offset="1" stop-color="#B6D5EC"/>
</linearGradient>
<linearGradient id="paint49_linear_1175_1224" x1="350.975" y1="-4.12887" x2="350.975" y2="77.3316" gradientUnits="userSpaceOnUse">
<stop stop-color="#B6D5EC" stop-opacity="0"/>
<stop offset="0.1" stop-color="#B6D5EC" stop-opacity="0.03"/>
<stop offset="0.23" stop-color="#B6D5EC" stop-opacity="0.1"/>
<stop offset="0.38" stop-color="#B6D5EC" stop-opacity="0.22"/>
<stop offset="0.54" stop-color="#B6D5EC" stop-opacity="0.38"/>
<stop offset="0.72" stop-color="#B6D5EC" stop-opacity="0.59"/>
<stop offset="0.9" stop-color="#B6D5EC" stop-opacity="0.85"/>
<stop offset="1" stop-color="#B6D5EC"/>
</linearGradient>
<linearGradient id="paint50_linear_1175_1224" x1="350.975" y1="-4.12792" x2="350.975" y2="77.3326" gradientUnits="userSpaceOnUse">
<stop stop-color="#B6D5EC" stop-opacity="0"/>
<stop offset="0.1" stop-color="#B6D5EC" stop-opacity="0.03"/>
<stop offset="0.23" stop-color="#B6D5EC" stop-opacity="0.1"/>
<stop offset="0.38" stop-color="#B6D5EC" stop-opacity="0.22"/>
<stop offset="0.54" stop-color="#B6D5EC" stop-opacity="0.38"/>
<stop offset="0.72" stop-color="#B6D5EC" stop-opacity="0.59"/>
<stop offset="0.9" stop-color="#B6D5EC" stop-opacity="0.85"/>
<stop offset="1" stop-color="#B6D5EC"/>
</linearGradient>
<linearGradient id="paint51_linear_1175_1224" x1="350.975" y1="-4.12855" x2="350.975" y2="77.3319" gradientUnits="userSpaceOnUse">
<stop stop-color="#B6D5EC" stop-opacity="0"/>
<stop offset="0.1" stop-color="#B6D5EC" stop-opacity="0.03"/>
<stop offset="0.23" stop-color="#B6D5EC" stop-opacity="0.1"/>
<stop offset="0.38" stop-color="#B6D5EC" stop-opacity="0.22"/>
<stop offset="0.54" stop-color="#B6D5EC" stop-opacity="0.38"/>
<stop offset="0.72" stop-color="#B6D5EC" stop-opacity="0.59"/>
<stop offset="0.9" stop-color="#B6D5EC" stop-opacity="0.85"/>
<stop offset="1" stop-color="#B6D5EC"/>
</linearGradient>
<linearGradient id="paint52_linear_1175_1224" x1="350.975" y1="-4.12919" x2="350.975" y2="77.3313" gradientUnits="userSpaceOnUse">
<stop stop-color="#B6D5EC" stop-opacity="0"/>
<stop offset="0.1" stop-color="#B6D5EC" stop-opacity="0.03"/>
<stop offset="0.23" stop-color="#B6D5EC" stop-opacity="0.1"/>
<stop offset="0.38" stop-color="#B6D5EC" stop-opacity="0.22"/>
<stop offset="0.54" stop-color="#B6D5EC" stop-opacity="0.38"/>
<stop offset="0.72" stop-color="#B6D5EC" stop-opacity="0.59"/>
<stop offset="0.9" stop-color="#B6D5EC" stop-opacity="0.85"/>
<stop offset="1" stop-color="#B6D5EC"/>
</linearGradient>
<linearGradient id="paint53_linear_1175_1224" x1="350.975" y1="-4.12824" x2="350.975" y2="77.3323" gradientUnits="userSpaceOnUse">
<stop stop-color="#B6D5EC" stop-opacity="0"/>
<stop offset="0.1" stop-color="#B6D5EC" stop-opacity="0.03"/>
<stop offset="0.23" stop-color="#B6D5EC" stop-opacity="0.1"/>
<stop offset="0.38" stop-color="#B6D5EC" stop-opacity="0.22"/>
<stop offset="0.54" stop-color="#B6D5EC" stop-opacity="0.38"/>
<stop offset="0.72" stop-color="#B6D5EC" stop-opacity="0.59"/>
<stop offset="0.9" stop-color="#B6D5EC" stop-opacity="0.85"/>
<stop offset="1" stop-color="#B6D5EC"/>
</linearGradient>
<linearGradient id="paint54_linear_1175_1224" x1="350.975" y1="-4.12887" x2="350.975" y2="77.3317" gradientUnits="userSpaceOnUse">
<stop stop-color="#B6D5EC" stop-opacity="0"/>
<stop offset="0.1" stop-color="#B6D5EC" stop-opacity="0.03"/>
<stop offset="0.23" stop-color="#B6D5EC" stop-opacity="0.1"/>
<stop offset="0.38" stop-color="#B6D5EC" stop-opacity="0.22"/>
<stop offset="0.54" stop-color="#B6D5EC" stop-opacity="0.38"/>
<stop offset="0.72" stop-color="#B6D5EC" stop-opacity="0.59"/>
<stop offset="0.9" stop-color="#B6D5EC" stop-opacity="0.85"/>
<stop offset="1" stop-color="#B6D5EC"/>
</linearGradient>
<linearGradient id="paint55_linear_1175_1224" x1="350.975" y1="-4.12951" x2="350.975" y2="77.331" gradientUnits="userSpaceOnUse">
<stop stop-color="#B6D5EC" stop-opacity="0"/>
<stop offset="0.1" stop-color="#B6D5EC" stop-opacity="0.03"/>
<stop offset="0.23" stop-color="#B6D5EC" stop-opacity="0.1"/>
<stop offset="0.38" stop-color="#B6D5EC" stop-opacity="0.22"/>
<stop offset="0.54" stop-color="#B6D5EC" stop-opacity="0.38"/>
<stop offset="0.72" stop-color="#B6D5EC" stop-opacity="0.59"/>
<stop offset="0.9" stop-color="#B6D5EC" stop-opacity="0.85"/>
<stop offset="1" stop-color="#B6D5EC"/>
</linearGradient>
<linearGradient id="paint56_linear_1175_1224" x1="350.975" y1="-4.12855" x2="350.975" y2="77.332" gradientUnits="userSpaceOnUse">
<stop stop-color="#B6D5EC" stop-opacity="0"/>
<stop offset="0.1" stop-color="#B6D5EC" stop-opacity="0.03"/>
<stop offset="0.23" stop-color="#B6D5EC" stop-opacity="0.1"/>
<stop offset="0.38" stop-color="#B6D5EC" stop-opacity="0.22"/>
<stop offset="0.54" stop-color="#B6D5EC" stop-opacity="0.38"/>
<stop offset="0.72" stop-color="#B6D5EC" stop-opacity="0.59"/>
<stop offset="0.9" stop-color="#B6D5EC" stop-opacity="0.85"/>
<stop offset="1" stop-color="#B6D5EC"/>
</linearGradient>
<linearGradient id="paint57_linear_1175_1224" x1="350.975" y1="-4.12918" x2="350.975" y2="77.3313" gradientUnits="userSpaceOnUse">
<stop stop-color="#B6D5EC" stop-opacity="0"/>
<stop offset="0.1" stop-color="#B6D5EC" stop-opacity="0.03"/>
<stop offset="0.23" stop-color="#B6D5EC" stop-opacity="0.1"/>
<stop offset="0.38" stop-color="#B6D5EC" stop-opacity="0.22"/>
<stop offset="0.54" stop-color="#B6D5EC" stop-opacity="0.38"/>
<stop offset="0.72" stop-color="#B6D5EC" stop-opacity="0.59"/>
<stop offset="0.9" stop-color="#B6D5EC" stop-opacity="0.85"/>
<stop offset="1" stop-color="#B6D5EC"/>
</linearGradient>
<linearGradient id="paint58_linear_1175_1224" x1="350.975" y1="-4.12787" x2="350.975" y2="77.3326" gradientUnits="userSpaceOnUse">
<stop stop-color="#B6D5EC" stop-opacity="0"/>
<stop offset="0.1" stop-color="#B6D5EC" stop-opacity="0.03"/>
<stop offset="0.23" stop-color="#B6D5EC" stop-opacity="0.1"/>
<stop offset="0.38" stop-color="#B6D5EC" stop-opacity="0.22"/>
<stop offset="0.54" stop-color="#B6D5EC" stop-opacity="0.38"/>
<stop offset="0.72" stop-color="#B6D5EC" stop-opacity="0.59"/>
<stop offset="0.9" stop-color="#B6D5EC" stop-opacity="0.85"/>
<stop offset="1" stop-color="#B6D5EC"/>
</linearGradient>
<linearGradient id="paint59_linear_1175_1224" x1="350.975" y1="-4.12727" x2="350.975" y2="77.3333" gradientUnits="userSpaceOnUse">
<stop stop-color="#B6D5EC" stop-opacity="0"/>
<stop offset="0.1" stop-color="#B6D5EC" stop-opacity="0.03"/>
<stop offset="0.23" stop-color="#B6D5EC" stop-opacity="0.1"/>
<stop offset="0.38" stop-color="#B6D5EC" stop-opacity="0.22"/>
<stop offset="0.54" stop-color="#B6D5EC" stop-opacity="0.38"/>
<stop offset="0.72" stop-color="#B6D5EC" stop-opacity="0.59"/>
<stop offset="0.9" stop-color="#B6D5EC" stop-opacity="0.85"/>
<stop offset="1" stop-color="#B6D5EC"/>
</linearGradient>
<linearGradient id="paint60_linear_1175_1224" x1="272.954" y1="-4.12885" x2="272.954" y2="77.3316" gradientUnits="userSpaceOnUse">
<stop stop-color="#B6D5EC" stop-opacity="0"/>
<stop offset="0.1" stop-color="#B6D5EC" stop-opacity="0.03"/>
<stop offset="0.23" stop-color="#B6D5EC" stop-opacity="0.1"/>
<stop offset="0.38" stop-color="#B6D5EC" stop-opacity="0.22"/>
<stop offset="0.54" stop-color="#B6D5EC" stop-opacity="0.38"/>
<stop offset="0.72" stop-color="#B6D5EC" stop-opacity="0.59"/>
<stop offset="0.9" stop-color="#B6D5EC" stop-opacity="0.85"/>
<stop offset="1" stop-color="#B6D5EC"/>
</linearGradient>
<linearGradient id="paint61_linear_1175_1224" x1="272.954" y1="-4.1276" x2="272.954" y2="77.3329" gradientUnits="userSpaceOnUse">
<stop stop-color="#B6D5EC" stop-opacity="0"/>
<stop offset="0.1" stop-color="#B6D5EC" stop-opacity="0.03"/>
<stop offset="0.23" stop-color="#B6D5EC" stop-opacity="0.1"/>
<stop offset="0.38" stop-color="#B6D5EC" stop-opacity="0.22"/>
<stop offset="0.54" stop-color="#B6D5EC" stop-opacity="0.38"/>
<stop offset="0.72" stop-color="#B6D5EC" stop-opacity="0.59"/>
<stop offset="0.9" stop-color="#B6D5EC" stop-opacity="0.85"/>
<stop offset="1" stop-color="#B6D5EC"/>
</linearGradient>
<linearGradient id="paint62_linear_1175_1224" x1="272.954" y1="-4.12792" x2="272.954" y2="77.3326" gradientUnits="userSpaceOnUse">
<stop stop-color="#B6D5EC" stop-opacity="0"/>
<stop offset="0.1" stop-color="#B6D5EC" stop-opacity="0.03"/>
<stop offset="0.23" stop-color="#B6D5EC" stop-opacity="0.1"/>
<stop offset="0.38" stop-color="#B6D5EC" stop-opacity="0.22"/>
<stop offset="0.54" stop-color="#B6D5EC" stop-opacity="0.38"/>
<stop offset="0.72" stop-color="#B6D5EC" stop-opacity="0.59"/>
<stop offset="0.9" stop-color="#B6D5EC" stop-opacity="0.85"/>
<stop offset="1" stop-color="#B6D5EC"/>
</linearGradient>
<linearGradient id="paint63_linear_1175_1224" x1="272.954" y1="-4.12858" x2="272.954" y2="77.3319" gradientUnits="userSpaceOnUse">
<stop stop-color="#B6D5EC" stop-opacity="0"/>
<stop offset="0.1" stop-color="#B6D5EC" stop-opacity="0.03"/>
<stop offset="0.23" stop-color="#B6D5EC" stop-opacity="0.1"/>
<stop offset="0.38" stop-color="#B6D5EC" stop-opacity="0.22"/>
<stop offset="0.54" stop-color="#B6D5EC" stop-opacity="0.38"/>
<stop offset="0.72" stop-color="#B6D5EC" stop-opacity="0.59"/>
<stop offset="0.9" stop-color="#B6D5EC" stop-opacity="0.85"/>
<stop offset="1" stop-color="#B6D5EC"/>
</linearGradient>
<linearGradient id="paint64_linear_1175_1224" x1="272.954" y1="-4.12893" x2="272.954" y2="77.3316" gradientUnits="userSpaceOnUse">
<stop stop-color="#B6D5EC" stop-opacity="0"/>
<stop offset="0.1" stop-color="#B6D5EC" stop-opacity="0.03"/>
<stop offset="0.23" stop-color="#B6D5EC" stop-opacity="0.1"/>
<stop offset="0.38" stop-color="#B6D5EC" stop-opacity="0.22"/>
<stop offset="0.54" stop-color="#B6D5EC" stop-opacity="0.38"/>
<stop offset="0.72" stop-color="#B6D5EC" stop-opacity="0.59"/>
<stop offset="0.9" stop-color="#B6D5EC" stop-opacity="0.85"/>
<stop offset="1" stop-color="#B6D5EC"/>
</linearGradient>
<linearGradient id="paint65_linear_1175_1224" x1="272.954" y1="-4.12925" x2="272.954" y2="77.3313" gradientUnits="userSpaceOnUse">
<stop stop-color="#B6D5EC" stop-opacity="0"/>
<stop offset="0.1" stop-color="#B6D5EC" stop-opacity="0.03"/>
<stop offset="0.23" stop-color="#B6D5EC" stop-opacity="0.1"/>
<stop offset="0.38" stop-color="#B6D5EC" stop-opacity="0.22"/>
<stop offset="0.54" stop-color="#B6D5EC" stop-opacity="0.38"/>
<stop offset="0.72" stop-color="#B6D5EC" stop-opacity="0.59"/>
<stop offset="0.9" stop-color="#B6D5EC" stop-opacity="0.85"/>
<stop offset="1" stop-color="#B6D5EC"/>
</linearGradient>
<linearGradient id="paint66_linear_1175_1224" x1="272.954" y1="-4.12797" x2="272.954" y2="77.3325" gradientUnits="userSpaceOnUse">
<stop stop-color="#B6D5EC" stop-opacity="0"/>
<stop offset="0.1" stop-color="#B6D5EC" stop-opacity="0.03"/>
<stop offset="0.23" stop-color="#B6D5EC" stop-opacity="0.1"/>
<stop offset="0.38" stop-color="#B6D5EC" stop-opacity="0.22"/>
<stop offset="0.54" stop-color="#B6D5EC" stop-opacity="0.38"/>
<stop offset="0.72" stop-color="#B6D5EC" stop-opacity="0.59"/>
<stop offset="0.9" stop-color="#B6D5EC" stop-opacity="0.85"/>
<stop offset="1" stop-color="#B6D5EC"/>
</linearGradient>
<linearGradient id="paint67_linear_1175_1224" x1="272.954" y1="-4.12829" x2="272.954" y2="77.3322" gradientUnits="userSpaceOnUse">
<stop stop-color="#B6D5EC" stop-opacity="0"/>
<stop offset="0.1" stop-color="#B6D5EC" stop-opacity="0.03"/>
<stop offset="0.23" stop-color="#B6D5EC" stop-opacity="0.1"/>
<stop offset="0.38" stop-color="#B6D5EC" stop-opacity="0.22"/>
<stop offset="0.54" stop-color="#B6D5EC" stop-opacity="0.38"/>
<stop offset="0.72" stop-color="#B6D5EC" stop-opacity="0.59"/>
<stop offset="0.9" stop-color="#B6D5EC" stop-opacity="0.85"/>
<stop offset="1" stop-color="#B6D5EC"/>
</linearGradient>
<linearGradient id="paint68_linear_1175_1224" x1="272.954" y1="-4.12898" x2="272.954" y2="77.3315" gradientUnits="userSpaceOnUse">
<stop stop-color="#B6D5EC" stop-opacity="0"/>
<stop offset="0.1" stop-color="#B6D5EC" stop-opacity="0.03"/>
<stop offset="0.23" stop-color="#B6D5EC" stop-opacity="0.1"/>
<stop offset="0.38" stop-color="#B6D5EC" stop-opacity="0.22"/>
<stop offset="0.54" stop-color="#B6D5EC" stop-opacity="0.38"/>
<stop offset="0.72" stop-color="#B6D5EC" stop-opacity="0.59"/>
<stop offset="0.9" stop-color="#B6D5EC" stop-opacity="0.85"/>
<stop offset="1" stop-color="#B6D5EC"/>
</linearGradient>
<linearGradient id="paint69_linear_1175_1224" x1="272.954" y1="-4.12931" x2="272.954" y2="77.3312" gradientUnits="userSpaceOnUse">
<stop stop-color="#B6D5EC" stop-opacity="0"/>
<stop offset="0.1" stop-color="#B6D5EC" stop-opacity="0.03"/>
<stop offset="0.23" stop-color="#B6D5EC" stop-opacity="0.1"/>
<stop offset="0.38" stop-color="#B6D5EC" stop-opacity="0.22"/>
<stop offset="0.54" stop-color="#B6D5EC" stop-opacity="0.38"/>
<stop offset="0.72" stop-color="#B6D5EC" stop-opacity="0.59"/>
<stop offset="0.9" stop-color="#B6D5EC" stop-opacity="0.85"/>
<stop offset="1" stop-color="#B6D5EC"/>
</linearGradient>
<linearGradient id="paint70_linear_1175_1224" x1="272.954" y1="-4.12767" x2="272.954" y2="77.3328" gradientUnits="userSpaceOnUse">
<stop stop-color="#B6D5EC" stop-opacity="0"/>
<stop offset="0.1" stop-color="#B6D5EC" stop-opacity="0.03"/>
<stop offset="0.23" stop-color="#B6D5EC" stop-opacity="0.1"/>
<stop offset="0.38" stop-color="#B6D5EC" stop-opacity="0.22"/>
<stop offset="0.54" stop-color="#B6D5EC" stop-opacity="0.38"/>
<stop offset="0.72" stop-color="#B6D5EC" stop-opacity="0.59"/>
<stop offset="0.9" stop-color="#B6D5EC" stop-opacity="0.85"/>
<stop offset="1" stop-color="#B6D5EC"/>
</linearGradient>
<linearGradient id="paint71_linear_1175_1224" x1="272.954" y1="-4.12836" x2="272.954" y2="77.3321" gradientUnits="userSpaceOnUse">
<stop stop-color="#B6D5EC" stop-opacity="0"/>
<stop offset="0.1" stop-color="#B6D5EC" stop-opacity="0.03"/>
<stop offset="0.23" stop-color="#B6D5EC" stop-opacity="0.1"/>
<stop offset="0.38" stop-color="#B6D5EC" stop-opacity="0.22"/>
<stop offset="0.54" stop-color="#B6D5EC" stop-opacity="0.38"/>
<stop offset="0.72" stop-color="#B6D5EC" stop-opacity="0.59"/>
<stop offset="0.9" stop-color="#B6D5EC" stop-opacity="0.85"/>
<stop offset="1" stop-color="#B6D5EC"/>
</linearGradient>
<linearGradient id="paint72_linear_1175_1224" x1="272.954" y1="-4.12868" x2="272.954" y2="77.3318" gradientUnits="userSpaceOnUse">
<stop stop-color="#B6D5EC" stop-opacity="0"/>
<stop offset="0.1" stop-color="#B6D5EC" stop-opacity="0.03"/>
<stop offset="0.23" stop-color="#B6D5EC" stop-opacity="0.1"/>
<stop offset="0.38" stop-color="#B6D5EC" stop-opacity="0.22"/>
<stop offset="0.54" stop-color="#B6D5EC" stop-opacity="0.38"/>
<stop offset="0.72" stop-color="#B6D5EC" stop-opacity="0.59"/>
<stop offset="0.9" stop-color="#B6D5EC" stop-opacity="0.85"/>
<stop offset="1" stop-color="#B6D5EC"/>
</linearGradient>
<linearGradient id="paint73_linear_1175_1224" x1="272.954" y1="-4.12741" x2="272.954" y2="77.3331" gradientUnits="userSpaceOnUse">
<stop stop-color="#B6D5EC" stop-opacity="0"/>
<stop offset="0.1" stop-color="#B6D5EC" stop-opacity="0.03"/>
<stop offset="0.23" stop-color="#B6D5EC" stop-opacity="0.1"/>
<stop offset="0.38" stop-color="#B6D5EC" stop-opacity="0.22"/>
<stop offset="0.54" stop-color="#B6D5EC" stop-opacity="0.38"/>
<stop offset="0.72" stop-color="#B6D5EC" stop-opacity="0.59"/>
<stop offset="0.9" stop-color="#B6D5EC" stop-opacity="0.85"/>
<stop offset="1" stop-color="#B6D5EC"/>
</linearGradient>
<linearGradient id="paint74_linear_1175_1224" x1="272.954" y1="-4.12773" x2="272.954" y2="77.3328" gradientUnits="userSpaceOnUse">
<stop stop-color="#B6D5EC" stop-opacity="0"/>
<stop offset="0.1" stop-color="#B6D5EC" stop-opacity="0.03"/>
<stop offset="0.23" stop-color="#B6D5EC" stop-opacity="0.1"/>
<stop offset="0.38" stop-color="#B6D5EC" stop-opacity="0.22"/>
<stop offset="0.54" stop-color="#B6D5EC" stop-opacity="0.38"/>
<stop offset="0.72" stop-color="#B6D5EC" stop-opacity="0.59"/>
<stop offset="0.9" stop-color="#B6D5EC" stop-opacity="0.85"/>
<stop offset="1" stop-color="#B6D5EC"/>
</linearGradient>
</defs>
</svg>
