<svg width="390" height="112" viewBox="0 0 390 112" fill="none" xmlns="http://www.w3.org/2000/svg">
<mask id="mask0_1159_1200" style="mask-type:luminance" maskUnits="userSpaceOnUse" x="0" y="0" width="390" height="112">
<path d="M0 111.871L390 111.871V0.000823975L0 0.000823975V111.871Z" fill="white"/>
</mask>
<g mask="url(#mask0_1159_1200)">
<path d="M291.777 33.6836C304.007 33.6836 310.221 35.5951 316.23 37.438C322.117 39.2428 328.201 41.1162 340.165 41.1162V42.8602C327.935 42.8602 321.721 40.9487 315.712 39.1058C309.825 37.3009 303.741 35.4275 291.777 35.4275C279.813 35.4275 273.728 37.2933 267.842 39.1058C261.833 40.9487 255.619 42.8602 243.389 42.8602V41.1162C255.352 41.1162 261.437 39.2505 267.324 37.438C273.332 35.5951 279.547 33.6836 291.777 33.6836Z" fill="url(#paint0_linear_1159_1200)"/>
<path d="M291.777 37.1113C304 37.1113 310.206 39.0152 316.215 40.8657C322.101 42.6706 328.194 44.544 340.165 44.544V46.1965C327.943 46.1965 321.736 44.2927 315.727 42.4421C309.841 40.6373 303.748 38.7639 291.777 38.7639C279.806 38.7639 273.713 40.6373 267.827 42.4421C261.818 44.285 255.611 46.1965 243.389 46.1965V44.544C255.36 44.544 261.452 42.6706 267.339 40.8657C273.348 39.0228 279.554 37.1113 291.777 37.1113Z" fill="url(#paint1_linear_1159_1200)"/>
<path d="M291.777 40.5371C303.992 40.5371 310.199 42.441 316.2 44.2839C322.094 46.0964 328.186 47.9621 340.165 47.9621V49.5157C327.95 49.5157 321.744 47.6118 315.743 45.7689C309.848 43.9564 303.756 42.0907 291.777 42.0907C279.798 42.0907 273.706 43.964 267.811 45.7689C261.81 47.6118 255.604 49.5157 243.389 49.5157V47.9621C255.368 47.9621 261.46 46.0887 267.354 44.2839C273.355 42.441 279.562 40.5371 291.777 40.5371Z" fill="url(#paint2_linear_1159_1200)"/>
<path d="M291.777 43.9648C303.984 43.9648 310.183 45.8687 316.184 47.7116C322.079 49.5241 328.179 51.3975 340.165 51.3975V52.852C327.958 52.852 321.759 50.9482 315.758 49.1052C309.864 47.2928 303.764 45.4194 291.777 45.4194C279.79 45.4194 273.69 47.2928 267.796 49.1052C261.795 50.9482 255.596 52.852 243.389 52.852V51.3975C255.375 51.3975 261.475 49.5241 267.37 47.7116C273.371 45.8687 279.569 43.9648 291.777 43.9648Z" fill="url(#paint3_linear_1159_1200)"/>
<path d="M291.777 47.3906C303.977 47.3906 310.176 49.2945 316.169 51.1374C322.071 52.9499 328.171 54.8233 340.165 54.8233V56.1864C327.965 56.1864 321.766 54.2826 315.773 52.4396C309.871 50.6272 303.771 48.7538 291.777 48.7538C279.783 48.7538 273.683 50.6272 267.781 52.4396C261.788 54.2826 255.589 56.1864 243.389 56.1864V54.8233C255.383 54.8233 261.483 52.9499 267.385 51.1374C273.378 49.2945 279.577 47.3906 291.777 47.3906Z" fill="url(#paint4_linear_1159_1200)"/>
<path d="M291.777 50.8262C303.969 50.8262 310.161 52.73 316.154 54.5653C322.056 56.3778 328.163 58.2512 340.165 58.2512V59.5153C327.973 59.5153 321.782 57.6115 315.788 55.7762C309.886 53.9637 303.779 52.0903 291.777 52.0903C279.775 52.0903 273.675 53.9637 267.766 55.7762C261.772 57.6191 255.581 59.5153 243.389 59.5153V58.2512C255.391 58.2512 261.498 56.3778 267.4 54.5653C273.393 52.7224 279.585 50.8262 291.777 50.8262Z" fill="url(#paint5_linear_1159_1200)"/>
<path d="M291.775 54.252C303.96 54.252 310.151 56.1558 316.137 57.9911C322.046 59.8036 328.146 61.677 340.156 61.677V62.8421C327.971 62.8421 321.78 60.9383 315.794 59.103C309.885 57.2905 303.785 55.4171 291.775 55.4171C279.766 55.4171 273.658 57.2905 267.756 59.103C261.77 60.9459 255.579 62.8421 243.395 62.8421V61.677C255.404 61.677 261.512 59.8036 267.413 57.9911C273.399 56.1482 279.591 54.252 291.775 54.252Z" fill="url(#paint6_linear_1159_1200)"/>
<path d="M291.777 57.6797C303.954 57.6797 310.145 59.5835 316.123 61.4188C322.033 63.2313 328.14 65.1123 340.158 65.1123V66.1861C327.981 66.1861 321.789 64.2822 315.811 62.4469C309.902 60.6345 303.794 58.7535 291.777 58.7535C279.76 58.7535 273.652 60.6268 267.743 62.4469C261.757 64.2822 255.566 66.1861 243.389 66.1861V65.1123C255.406 65.1123 261.513 63.2389 267.423 61.4188C273.409 59.5835 279.592 57.6797 291.769 57.6797H291.777Z" fill="url(#paint7_linear_1159_1200)"/>
<path d="M291.777 61.1074C303.946 61.1074 310.13 63.0037 316.116 64.8466C322.025 66.659 328.141 68.5401 340.165 68.5401V69.5148C327.996 69.5148 321.812 67.6186 315.826 65.7757C309.917 63.9632 303.802 62.0822 291.777 62.0822C279.752 62.0822 273.637 63.9632 267.728 65.7757C261.749 67.611 255.558 69.5148 243.389 69.5148V68.5401C255.413 68.5401 261.529 66.659 267.438 64.8466C273.416 63.0113 279.608 61.1074 291.777 61.1074Z" fill="url(#paint8_linear_1159_1200)"/>
<path d="M291.777 64.5332C303.939 64.5332 310.122 66.4294 316.101 68.2647C322.018 70.0848 328.133 71.9582 340.165 71.9582V72.834C328.003 72.834 321.82 70.9378 315.842 69.1024C309.924 67.2824 303.809 65.409 291.777 65.409C279.745 65.409 273.629 67.29 267.712 69.1024C261.734 70.9378 255.55 72.834 243.389 72.834V71.9582C255.421 71.9582 261.536 70.0772 267.453 68.2647C273.431 66.4294 279.615 64.5332 291.777 64.5332Z" fill="url(#paint9_linear_1159_1200)"/>
<path d="M291.777 67.9609C303.931 67.9609 310.107 69.8572 316.085 71.6925C322.002 73.5126 328.125 75.3936 340.165 75.3936V76.1703C328.011 76.1703 321.835 74.2741 315.857 72.4388C309.94 70.6187 303.817 68.7377 291.777 68.7377C279.737 68.7377 273.614 70.6187 267.697 72.4388C261.719 74.2741 255.543 76.1703 243.389 76.1703V75.3936C255.429 75.3936 261.551 73.5126 267.469 71.6925C273.447 69.8572 279.623 67.9609 291.777 67.9609Z" fill="url(#paint10_linear_1159_1200)"/>
<path d="M291.777 71.3867C303.924 71.3867 310.1 73.2829 316.07 75.1183C321.995 76.9383 328.118 78.8193 340.165 78.8193V79.5047C328.019 79.5047 321.843 77.6085 315.872 75.7732C309.947 73.9531 303.825 72.0721 291.777 72.0721C279.729 72.0721 273.607 73.9531 267.682 75.7732C261.711 77.6085 255.535 79.5047 243.389 79.5047V78.8193C255.436 78.8193 261.559 76.9383 267.484 75.1183C273.454 73.2829 279.63 71.3867 291.777 71.3867Z" fill="url(#paint11_linear_1159_1200)"/>
<path d="M291.777 74.8145C303.916 74.8145 310.092 76.7107 316.055 78.546C321.98 80.3661 328.11 82.2471 340.165 82.2471V82.8335C328.026 82.8335 321.85 80.9372 315.887 79.1019C309.963 77.2818 303.832 75.4008 291.777 75.4008C279.722 75.4008 273.599 77.2818 267.667 79.1019C261.696 80.9372 255.528 82.8335 243.389 82.8335V82.2471C255.444 82.2471 261.567 80.3661 267.499 78.546C273.47 76.7107 279.638 74.8145 291.777 74.8145Z" fill="url(#paint12_linear_1159_1200)"/>
<path d="M291.775 78.2422C303.907 78.2422 310.075 80.1384 316.038 81.9661C321.97 83.7862 328.101 85.6672 340.156 85.6672V86.1546C328.025 86.1546 321.856 84.2584 315.893 82.4307C309.961 80.6106 303.83 78.7296 291.775 78.7296C279.72 78.7296 273.582 80.6106 267.657 82.4307C261.694 84.266 255.526 86.1546 243.395 86.1546V85.6672C255.457 85.6672 261.588 83.7862 267.512 81.9661C273.475 80.1308 279.644 78.2422 291.775 78.2422Z" fill="url(#paint13_linear_1159_1200)"/>
<path d="M291.777 81.6758C303.901 81.6758 310.069 83.572 316.024 85.3997C321.957 87.2198 328.095 89.1084 340.158 89.1084V89.5044C328.034 89.5044 321.865 87.6082 315.91 85.7805C309.978 83.9604 303.84 82.0718 291.777 82.0718C279.707 82.0718 273.576 83.9528 267.644 85.7805C261.681 87.6082 255.52 89.5044 243.389 89.5044V89.1084C255.459 89.1084 261.589 87.2274 267.522 85.3997C273.485 83.572 279.646 81.6758 291.769 81.6758H291.777Z" fill="url(#paint14_linear_1159_1200)"/>
<path d="M340.164 40.6895C352.394 40.6895 358.609 42.6009 364.617 44.4438C370.504 46.2487 376.589 48.1221 388.552 48.1221C400.516 48.1221 406.601 46.2563 412.488 44.4438C418.496 42.6009 424.71 40.6895 436.941 40.6895V42.4334C424.977 42.4334 418.892 44.2992 413.005 46.1116C406.997 47.9545 400.783 49.866 388.552 49.866C376.322 49.866 370.108 47.9545 364.099 46.1116C358.213 44.3068 352.128 42.4334 340.164 42.4334V40.6895Z" fill="url(#paint15_linear_1159_1200)"/>
<path d="M340.164 37.3535C352.387 37.3535 358.593 39.2574 364.602 41.1079C370.489 42.9128 376.581 44.7862 388.552 44.7862C400.524 44.7862 406.616 42.9128 412.503 41.1079C418.511 39.265 424.718 37.3535 436.941 37.3535V39.0061C424.969 39.0061 418.877 40.8794 412.99 42.6843C406.982 44.5272 400.775 46.4387 388.552 46.4387C376.33 46.4387 370.123 44.5348 364.115 42.6843C358.228 40.8794 352.135 39.0061 340.164 39.0061V37.3535Z" fill="url(#paint16_linear_1159_1200)"/>
<path d="M340.164 34.0254C352.379 34.0254 358.586 35.9292 364.587 37.7722C370.481 39.5846 376.573 41.4504 388.552 41.4504C400.531 41.4504 406.624 39.577 412.518 37.7722C418.519 35.9292 424.726 34.0254 436.941 34.0254V35.5789C424.962 35.5789 418.869 37.4523 412.975 39.2572C406.974 41.1001 400.767 43.0039 388.552 43.0039C376.337 43.0039 370.131 41.1001 364.13 39.2572C358.235 37.4447 352.143 35.5789 340.164 35.5789V34.0254Z" fill="url(#paint17_linear_1159_1200)"/>
<path d="M340.164 30.6973C352.372 30.6973 358.57 32.6011 364.571 34.444C370.466 36.2565 376.566 38.1299 388.552 38.1299C400.539 38.1299 406.639 36.2565 412.533 34.444C418.534 32.6011 424.733 30.6973 436.941 30.6973V32.1518C424.954 32.1518 418.854 34.0252 412.96 35.8377C406.959 37.6806 400.76 39.5844 388.552 39.5844C376.345 39.5844 370.146 37.6806 364.145 35.8377C358.251 34.0252 352.151 32.1518 340.164 32.1518V30.6973Z" fill="url(#paint18_linear_1159_1200)"/>
<path d="M340.16 27C352.368 27 358.567 28.9039 364.568 30.7468C370.462 32.5592 376.562 34.4326 388.548 34.4326C400.535 34.4326 406.635 32.5592 412.529 30.7468C418.53 28.9039 424.729 27 436.937 27V28.4545C424.95 28.4545 418.85 30.3279 412.956 32.1404C406.955 33.9833 400.756 35.8872 388.548 35.8872C376.341 35.8872 370.142 33.9833 364.141 32.1404C358.247 30.3279 352.147 28.4545 340.16 28.4545V27Z" fill="url(#paint19_linear_1159_1200)"/>
<path d="M340.164 30.6992C352.364 30.6992 358.563 32.6031 364.556 34.446C370.458 36.2585 376.558 38.1319 388.552 38.1319C400.547 38.1319 406.647 36.2585 412.548 34.446C418.542 32.6031 424.741 30.6992 436.941 30.6992V32.0624C424.946 32.0624 418.846 33.9358 412.944 35.7482C406.951 37.5912 400.752 39.495 388.552 39.495C376.352 39.495 370.154 37.5912 364.16 35.7482C358.258 33.9358 352.158 32.0624 340.164 32.0624V30.6992Z" fill="url(#paint20_linear_1159_1200)"/>
<path d="M340.164 24.0352C352.356 24.0352 358.555 25.939 364.541 27.7743C370.443 29.5868 376.55 31.4602 388.552 31.4602C400.554 31.4602 406.654 29.5868 412.564 27.7743C418.557 25.9314 424.748 24.0352 436.941 24.0352V25.2993C424.939 25.2993 418.839 27.1727 412.929 28.9852C406.936 30.8281 400.745 32.7243 388.552 32.7243C376.36 32.7243 370.169 30.8205 364.175 28.9852C358.273 27.1727 352.166 25.2993 340.164 25.2993V24.0352Z" fill="url(#paint21_linear_1159_1200)"/>
<path d="M340.164 20.6992C352.349 20.6992 358.54 22.6031 364.526 24.4384C370.435 26.2508 376.535 28.1242 388.545 28.1242C400.554 28.1242 406.662 26.2508 412.564 24.4384C418.549 22.6031 424.741 20.6992 436.925 20.6992V21.8644C424.916 21.8644 418.808 23.7378 412.906 25.5502C406.921 27.3855 400.729 29.2894 388.545 29.2894C376.36 29.2894 370.169 27.3855 364.183 25.5502C358.273 23.7378 352.166 21.8644 340.164 21.8644V20.6992Z" fill="url(#paint22_linear_1159_1200)"/>
<path d="M340.164 17.3711C352.341 17.3711 358.532 19.2749 364.518 21.1103C370.428 22.9227 376.535 24.8037 388.552 24.8037C400.569 24.8037 406.677 22.9303 412.587 21.1103C418.572 19.2749 424.756 17.3711 436.933 17.3711V18.4449C424.916 18.4449 418.808 20.3183 412.899 22.1383C406.913 23.9736 400.729 25.8775 388.552 25.8775C376.375 25.8775 370.184 23.9736 364.206 22.1383C358.296 20.3259 352.189 18.4449 340.172 18.4449V17.3711H340.164Z" fill="url(#paint23_linear_1159_1200)"/>
<path d="M340.164 14.043C352.333 14.043 358.517 15.9392 364.503 17.7821C370.412 19.5946 376.528 21.4756 388.552 21.4756C400.577 21.4756 406.692 19.5946 412.602 17.7821C418.58 15.9468 424.771 14.043 436.941 14.043V15.0177C424.916 15.0177 418.801 16.8987 412.891 18.7112C406.913 20.5465 400.722 22.4504 388.552 22.4504C376.383 22.4504 370.199 20.5541 364.214 18.7112C358.304 16.8987 352.189 15.0177 340.164 15.0177V14.043Z" fill="url(#paint24_linear_1159_1200)"/>
<path d="M340.164 10.707C352.326 10.707 358.51 12.6033 364.488 14.4386C370.405 16.2587 376.52 18.132 388.552 18.132C400.585 18.132 406.7 16.251 412.617 14.4386C418.595 12.6033 424.779 10.707 436.941 10.707V11.5828C424.908 11.5828 418.793 13.4638 412.876 15.2763C406.898 17.1116 400.714 19.0078 388.552 19.0078C376.391 19.0078 370.207 17.1116 364.229 15.2763C358.312 13.4562 352.196 11.5828 340.164 11.5828V10.707Z" fill="url(#paint25_linear_1159_1200)"/>
<path d="M340.164 7.37891C352.318 7.37891 358.494 9.27514 364.472 11.1105C370.39 12.9305 376.512 14.8115 388.552 14.8115C400.592 14.8115 406.715 12.9305 412.632 11.1105C418.61 9.27514 424.786 7.37891 436.941 7.37891V8.15568C424.901 8.15568 418.778 10.0367 412.861 11.8568C406.883 13.6921 400.706 15.5883 388.552 15.5883C376.398 15.5883 370.222 13.6921 364.244 11.8568C358.327 10.0367 352.204 8.15568 340.164 8.15568V7.37891Z" fill="url(#paint26_linear_1159_1200)"/>
<path d="M340.164 4.04492C352.311 4.04492 358.487 5.94116 364.457 7.77647C370.382 9.59655 376.505 11.4776 388.552 11.4776C400.6 11.4776 406.723 9.59655 412.647 7.77647C418.618 5.94116 424.794 4.04492 436.941 4.04492V4.73031C424.893 4.73031 418.77 6.61131 412.845 8.43139C406.875 10.2667 400.699 12.1629 388.552 12.1629C376.406 12.1629 370.23 10.2667 364.259 8.43139C358.334 6.61131 352.212 4.73031 340.164 4.73031V4.04492Z" fill="url(#paint27_linear_1159_1200)"/>
<path d="M340.164 0.716797C352.303 0.716797 358.479 2.61303 364.442 4.44834C370.367 6.26843 376.497 8.14943 388.552 8.14943C400.607 8.14943 406.73 6.26843 412.663 4.44834C418.633 2.61303 424.802 0.716797 436.941 0.716797V1.30318C424.885 1.30318 418.763 3.18419 412.83 5.00427C406.86 6.83958 400.691 8.73582 388.552 8.73582C376.413 8.73582 370.237 6.83958 364.274 5.00427C358.35 3.18419 352.219 1.30318 340.164 1.30318V0.716797Z" fill="url(#paint28_linear_1159_1200)"/>
<path d="M340.164 -2.61914C352.295 -2.61914 358.464 -0.722905 364.427 1.10479C370.359 2.92487 376.49 4.80588 388.545 4.80588C400.6 4.80588 406.738 2.92487 412.663 1.10479C418.626 -0.722905 424.794 -2.61914 436.925 -2.61914V-2.13175C424.863 -2.13175 418.732 -0.25075 412.807 1.56933C406.845 3.39703 400.676 5.29326 388.545 5.29326C376.413 5.29326 370.245 3.39703 364.282 1.56933C358.35 -0.25075 352.219 -2.13175 340.164 -2.13175V-2.61914Z" fill="url(#paint29_linear_1159_1200)"/>
<path d="M340.164 -5.94727C352.288 -5.94727 358.456 -4.05103 364.419 -2.22333C370.352 -0.403252 376.49 1.48537 388.552 1.48537C400.623 1.48537 406.753 -0.395637 412.686 -2.22333C418.648 -4.05103 424.809 -5.94727 436.933 -5.94727V-5.55126C424.863 -5.55126 418.732 -3.67026 412.8 -1.84256C406.837 -0.0148668 400.676 1.88137 388.552 1.88137C376.429 1.88137 370.26 -0.0148668 364.305 -1.84256C358.373 -3.66264 352.234 -5.55126 340.172 -5.55126V-5.94727H340.164Z" fill="url(#paint30_linear_1159_1200)"/>
<path d="M98.2301 33.6836C110.46 33.6836 116.675 35.5951 122.683 37.438C128.57 39.2428 134.655 41.1162 146.618 41.1162V42.8602C134.388 42.8602 128.174 40.9487 122.165 39.1058C116.279 37.3009 110.194 35.4275 98.2301 35.4275C86.2663 35.4275 80.1816 37.2933 74.2949 39.1058C68.2863 40.9487 62.0721 42.8602 49.8418 42.8602V41.1162C61.8056 41.1162 67.8903 39.2505 73.777 37.438C79.7856 35.5951 85.9997 33.6836 98.2301 33.6836Z" fill="url(#paint31_linear_1159_1200)"/>
<path d="M98.2301 37.1113C110.453 37.1113 116.659 39.0152 122.668 40.8657C128.555 42.6706 134.647 44.544 146.618 44.544V46.1965C134.396 46.1965 128.189 44.2927 122.181 42.4421C116.294 40.6373 110.201 38.7639 98.2301 38.7639C86.2587 38.7639 80.1663 40.6373 74.2796 42.4421C68.2711 44.285 62.0645 46.1965 49.8418 46.1965V44.544C61.8132 44.544 67.9055 42.6706 73.7922 40.8657C79.8008 39.0228 86.0074 37.1113 98.2301 37.1113Z" fill="url(#paint32_linear_1159_1200)"/>
<path d="M98.2301 40.5371C110.445 40.5371 116.652 42.441 122.653 44.2839C128.547 46.0964 134.639 47.9621 146.618 47.9621V49.5157C134.403 49.5157 128.197 47.6118 122.196 45.7689C116.301 43.9564 110.209 42.0907 98.2301 42.0907C86.251 42.0907 80.1587 43.964 74.2644 45.7689C68.2635 47.6118 62.0569 49.5157 49.8418 49.5157V47.9621C61.8208 47.9621 67.9131 46.0887 73.8075 44.2839C79.8084 42.441 86.015 40.5371 98.2301 40.5371Z" fill="url(#paint33_linear_1159_1200)"/>
<path d="M98.2301 43.9648C110.438 43.9648 116.636 45.8687 122.637 47.7116C128.532 49.5241 134.632 51.3975 146.618 51.3975V52.852C134.411 52.852 128.212 50.9482 122.211 49.1052C116.317 47.2928 110.217 45.4194 98.2301 45.4194C86.2434 45.4194 80.1435 47.2928 74.2492 49.1052C68.2482 50.9482 62.0493 52.852 49.8418 52.852V51.3975C61.8284 51.3975 67.9284 49.5241 73.8227 47.7116C79.8237 45.8687 86.0226 43.9648 98.2301 43.9648Z" fill="url(#paint34_linear_1159_1200)"/>
<path d="M98.2301 47.3906C110.43 47.3906 116.629 49.2945 122.622 51.1374C128.524 52.9499 134.624 54.8233 146.618 54.8233V56.1864C134.418 56.1864 128.22 54.2826 122.226 52.4396C116.324 50.6272 110.224 48.7538 98.2301 48.7538C86.2358 48.7538 80.1359 50.6272 74.2339 52.4396C68.2406 54.2826 62.0417 56.1864 49.8418 56.1864V54.8233C61.8361 54.8233 67.936 52.9499 73.8379 51.1374C79.8313 49.2945 86.0302 47.3906 98.2301 47.3906Z" fill="url(#paint35_linear_1159_1200)"/>
<path d="M98.2301 50.8262C110.422 50.8262 116.614 52.73 122.607 54.5653C128.509 56.3778 134.616 58.2512 146.618 58.2512V59.5153C134.426 59.5153 128.235 57.6115 122.241 55.7762C116.34 53.9637 110.232 52.0903 98.2301 52.0903C86.2282 52.0903 80.1283 53.9637 74.2187 55.7762C68.2254 57.6191 62.0341 59.5153 49.8418 59.5153V58.2512C61.8437 58.2512 67.9512 56.3778 73.8532 54.5653C79.8465 52.7224 86.0378 50.8262 98.2301 50.8262Z" fill="url(#paint36_linear_1159_1200)"/>
<path d="M98.2303 54.252C110.415 54.252 116.606 56.1558 122.592 57.9911C128.501 59.8036 134.601 61.677 146.611 61.677V62.8421C134.426 62.8421 128.235 60.9383 122.249 59.103C116.34 57.2905 110.24 55.4171 98.2303 55.4171C86.2208 55.4171 80.1132 57.2905 74.2113 59.103C68.2256 60.9459 62.0343 62.8421 49.8496 62.8421V61.677C61.8591 61.677 67.9667 59.8036 73.8686 57.9911C79.8543 56.1482 86.0456 54.252 98.2303 54.252Z" fill="url(#paint37_linear_1159_1200)"/>
<path d="M98.2301 57.6797C110.407 57.6797 116.598 59.5835 122.577 61.4188C128.486 63.2313 134.594 65.1123 146.611 65.1123V66.1861C134.434 66.1861 128.242 64.2822 122.264 62.4469C116.355 60.6345 110.247 58.7535 98.2301 58.7535C86.213 58.7535 80.1054 60.6268 74.1959 62.4469C68.2102 64.2822 62.0188 66.1861 49.8418 66.1861V65.1123C61.8589 65.1123 67.9665 63.2389 73.876 61.4188C79.8617 59.5835 86.0454 57.6797 98.2225 57.6797H98.2301Z" fill="url(#paint38_linear_1159_1200)"/>
<path d="M98.2301 61.1074C110.399 61.1074 116.583 63.0037 122.569 64.8466C128.478 66.659 134.594 68.5401 146.618 68.5401V69.5148C134.449 69.5148 128.265 67.6186 122.28 65.7757C116.37 63.9632 110.255 62.0822 98.2301 62.0822C86.2054 62.0822 80.0902 63.9632 74.1806 65.7757C68.2025 67.611 62.0112 69.5148 49.8418 69.5148V68.5401C61.8665 68.5401 67.9817 66.659 73.8913 64.8466C79.8693 63.0113 86.0607 61.1074 98.2301 61.1074Z" fill="url(#paint39_linear_1159_1200)"/>
<path d="M98.2301 64.5332C110.392 64.5332 116.576 66.4294 122.554 68.2647C128.471 70.0848 134.586 71.9582 146.618 71.9582V72.834C134.457 72.834 128.273 70.9378 122.295 69.1024C116.378 67.2824 110.262 65.409 98.2301 65.409C86.1977 65.409 80.0826 67.29 74.1654 69.1024C68.1873 70.9378 62.0036 72.834 49.8418 72.834V71.9582C61.8741 71.9582 67.9893 70.0772 73.9065 68.2647C79.8846 66.4294 86.0683 64.5332 98.2301 64.5332Z" fill="url(#paint40_linear_1159_1200)"/>
<path d="M98.2301 67.9609C110.384 67.9609 116.56 69.8572 122.538 71.6925C128.456 73.5126 134.578 75.3936 146.618 75.3936V76.1703C134.464 76.1703 128.288 74.2741 122.31 72.4388C116.393 70.6187 110.27 68.7377 98.2301 68.7377C86.1901 68.7377 80.0673 70.6187 74.1502 72.4388C68.1721 74.2741 61.996 76.1703 49.8418 76.1703V75.3936C61.8817 75.3936 68.0045 73.5126 73.9217 71.6925C79.8998 69.8572 86.0759 67.9609 98.2301 67.9609Z" fill="url(#paint41_linear_1159_1200)"/>
<path d="M98.2301 71.3867C110.377 71.3867 116.553 73.2829 122.523 75.1183C128.448 76.9383 134.571 78.8193 146.618 78.8193V79.5047C134.472 79.5047 128.296 77.6085 122.325 75.7732C116.4 73.9531 110.278 72.0721 98.2301 72.0721C86.1825 72.0721 80.0597 73.9531 74.1349 75.7732C68.1645 77.6085 61.9884 79.5047 49.8418 79.5047V78.8193C61.8894 78.8193 68.0122 76.9383 73.9369 75.1183C79.9074 73.2829 86.0835 71.3867 98.2301 71.3867Z" fill="url(#paint42_linear_1159_1200)"/>
<path d="M98.2301 74.8145C110.369 74.8145 116.545 76.7107 122.508 78.546C128.433 80.3661 134.563 82.2471 146.618 82.2471V82.8335C134.479 82.8335 128.303 80.9372 122.34 79.1019C116.416 77.2818 110.285 75.4008 98.2301 75.4008C86.1749 75.4008 80.0521 77.2818 74.1197 79.1019C68.1492 80.9372 61.9807 82.8335 49.8418 82.8335V82.2471C61.897 82.2471 68.0198 80.3661 73.9522 78.546C79.9226 76.7107 86.0911 74.8145 98.2301 74.8145Z" fill="url(#paint43_linear_1159_1200)"/>
<path d="M98.2303 78.2422C110.362 78.2422 116.53 80.1384 122.493 81.9661C128.425 83.7862 134.556 85.6672 146.611 85.6672V86.1546C134.48 86.1546 128.311 84.2584 122.348 82.4307C116.416 80.6106 110.285 78.7296 98.2303 78.7296C86.1675 78.7296 80.0371 80.6106 74.1123 82.4307C68.1494 84.266 61.9809 86.1546 49.8496 86.1546V85.6672C61.9124 85.6672 68.0428 83.7862 73.9676 81.9661C79.9304 80.1308 86.0989 78.2422 98.2303 78.2422Z" fill="url(#paint44_linear_1159_1200)"/>
<path d="M98.2301 81.6758C110.354 81.6758 116.522 83.572 122.478 85.3997C128.41 87.2198 134.548 89.1084 146.611 89.1084V89.5044C134.487 89.5044 128.319 87.6082 122.363 85.7805C116.431 83.9604 110.293 82.0718 98.2301 82.0718C86.1673 82.0718 80.0293 83.9528 74.0969 85.7805C68.134 87.6082 61.9731 89.5044 49.8418 89.5044V89.1084C61.9122 89.1084 68.0426 87.2274 73.975 85.3997C79.9379 83.572 86.0987 81.6758 98.2225 81.6758H98.2301Z" fill="url(#paint45_linear_1159_1200)"/>
<path d="M146.619 40.6895C158.849 40.6895 165.064 42.6009 171.072 44.4438C176.959 46.2487 183.044 48.1221 195.007 48.1221C206.971 48.1221 213.056 46.2563 218.943 44.4438C224.951 42.6009 231.165 40.6895 243.396 40.6895V42.4334C231.432 42.4334 225.347 44.2992 219.46 46.1116C213.452 47.9545 207.238 49.866 195.007 49.866C182.777 49.866 176.563 47.9545 170.554 46.1116C164.668 44.3068 158.583 42.4334 146.619 42.4334V40.6895Z" fill="url(#paint46_linear_1159_1200)"/>
<path d="M146.619 37.3535C158.842 37.3535 165.048 39.2574 171.057 41.1079C176.944 42.9128 183.036 44.7862 195.007 44.7862C206.979 44.7862 213.071 42.9128 218.958 41.1079C224.966 39.265 231.173 37.3535 243.396 37.3535V39.0061C231.424 39.0061 225.332 40.8794 219.445 42.6843C213.437 44.5272 207.23 46.4387 195.007 46.4387C182.785 46.4387 176.578 44.5348 170.57 42.6843C164.683 40.8794 158.591 39.0061 146.619 39.0061V37.3535Z" fill="url(#paint47_linear_1159_1200)"/>
<path d="M146.619 34.0254C158.834 34.0254 165.041 35.9292 171.042 37.7722C176.936 39.5846 183.028 41.4504 195.007 41.4504C206.986 41.4504 213.079 39.577 218.973 37.7722C224.974 35.9292 231.181 34.0254 243.396 34.0254V35.5789C231.417 35.5789 225.324 37.4523 219.43 39.2572C213.429 41.1001 207.223 43.0039 195.007 43.0039C182.792 43.0039 176.586 41.1001 170.585 39.2572C164.69 37.4447 158.598 35.5789 146.619 35.5789V34.0254Z" fill="url(#paint48_linear_1159_1200)"/>
<path d="M146.619 30.6973C158.827 30.6973 165.026 32.6011 171.026 34.444C176.921 36.2565 183.021 38.1299 195.007 38.1299C206.994 38.1299 213.094 36.2565 218.988 34.444C224.989 32.6011 231.188 30.6973 243.396 30.6973V32.1518C231.409 32.1518 225.309 34.0252 219.415 35.8377C213.414 37.6806 207.215 39.5844 195.007 39.5844C182.8 39.5844 176.601 37.6806 170.6 35.8377C164.706 34.0252 158.606 32.1518 146.619 32.1518V30.6973Z" fill="url(#paint49_linear_1159_1200)"/>
<path d="M146.619 27.3633C158.819 27.3633 165.018 29.2671 171.011 31.1101C176.913 32.9225 183.013 34.7959 195.007 34.7959C207.002 34.7959 213.102 32.9225 219.004 31.1101C224.997 29.2671 231.196 27.3633 243.396 27.3633V28.7264C231.401 28.7264 225.301 30.5998 219.4 32.4123C213.406 34.2552 207.207 36.1591 195.007 36.1591C182.808 36.1591 176.609 34.2552 170.615 32.4123C164.713 30.5998 158.613 28.7264 146.619 28.7264V27.3633Z" fill="url(#paint50_linear_1159_1200)"/>
<path d="M146.619 24.0352C158.811 24.0352 165.01 25.939 170.996 27.7743C176.898 29.5868 183.006 31.4602 195.007 31.4602C207.009 31.4602 213.109 29.5868 219.019 27.7743C225.012 25.9314 231.203 24.0352 243.396 24.0352V25.2993C231.394 25.2993 225.294 27.1727 219.384 28.9852C213.391 30.8281 207.2 32.7243 195.007 32.7243C182.815 32.7243 176.624 30.8205 170.631 28.9852C164.729 27.1727 158.621 25.2993 146.619 25.2993V24.0352Z" fill="url(#paint51_linear_1159_1200)"/>
<path d="M146.619 20.6992C158.804 20.6992 164.995 22.6031 170.981 24.4384C176.89 26.2508 182.99 28.1242 195 28.1242C207.009 28.1242 213.117 26.2508 219.019 24.4384C225.004 22.6031 231.196 20.6992 243.38 20.6992V21.8644C231.371 21.8644 225.263 23.7378 219.361 25.5502C213.376 27.3855 207.184 29.2894 195 29.2894C182.815 29.2894 176.624 27.3855 170.638 25.5502C164.729 23.7378 158.621 21.8644 146.619 21.8644V20.6992Z" fill="url(#paint52_linear_1159_1200)"/>
<path d="M146.619 17.3711C158.796 17.3711 164.987 19.2749 170.973 21.1103C176.883 22.9227 182.99 24.8037 195.007 24.8037C207.024 24.8037 213.132 22.9303 219.042 21.1103C225.027 19.2749 231.211 17.3711 243.388 17.3711V18.4449C231.371 18.4449 225.263 20.3183 219.354 22.1383C213.368 23.9736 207.184 25.8775 195.007 25.8775C182.83 25.8775 176.639 23.9736 170.661 22.1383C164.751 20.3259 158.644 18.4449 146.627 18.4449V17.3711H146.619Z" fill="url(#paint53_linear_1159_1200)"/>
<path d="M146.619 14.043C158.789 14.043 164.972 15.9392 170.958 17.7821C176.868 19.5946 182.983 21.4756 195.007 21.4756C207.032 21.4756 213.147 19.5946 219.057 17.7821C225.035 15.9468 231.226 14.043 243.396 14.043V15.0177C231.371 15.0177 225.256 16.8987 219.346 18.7112C213.368 20.5465 207.177 22.4504 195.007 22.4504C182.838 22.4504 176.654 20.5541 170.669 18.7112C164.759 16.8987 158.644 15.0177 146.619 15.0177V14.043Z" fill="url(#paint54_linear_1159_1200)"/>
<path d="M146.619 10.707C158.781 10.707 164.965 12.6033 170.943 14.4386C176.86 16.2587 182.975 18.132 195.007 18.132C207.04 18.132 213.155 16.251 219.072 14.4386C225.05 12.6033 231.234 10.707 243.396 10.707V11.5828C231.363 11.5828 225.248 13.4638 219.331 15.2763C213.353 17.1116 207.169 19.0078 195.007 19.0078C182.846 19.0078 176.662 17.1116 170.684 15.2763C164.767 13.4562 158.651 11.5828 146.619 11.5828V10.707Z" fill="url(#paint55_linear_1159_1200)"/>
<path d="M146.619 7.37891C158.773 7.37891 164.949 9.27514 170.927 11.1105C176.845 12.9305 182.967 14.8115 195.007 14.8115C207.047 14.8115 213.17 12.9305 219.087 11.1105C225.065 9.27514 231.241 7.37891 243.396 7.37891V8.15568C231.356 8.15568 225.233 10.0367 219.316 11.8568C213.338 13.6921 207.162 15.5883 195.007 15.5883C182.853 15.5883 176.677 13.6921 170.699 11.8568C164.782 10.0367 158.659 8.15568 146.619 8.15568V7.37891Z" fill="url(#paint56_linear_1159_1200)"/>
<path d="M146.619 4.04492C158.766 4.04492 164.942 5.94116 170.912 7.77647C176.837 9.59655 182.96 11.4776 195.007 11.4776C207.055 11.4776 213.178 9.59655 219.103 7.77647C225.073 5.94116 231.249 4.04492 243.396 4.04492V4.73031C231.348 4.73031 225.225 6.61131 219.301 8.43139C213.33 10.2667 207.154 12.1629 195.007 12.1629C182.861 12.1629 176.685 10.2667 170.714 8.43139C164.789 6.61131 158.667 4.73031 146.619 4.73031V4.04492Z" fill="url(#paint57_linear_1159_1200)"/>
<path d="M146.619 0.716797C158.758 0.716797 164.934 2.61303 170.897 4.44834C176.822 6.26843 182.952 8.14943 195.007 8.14943C207.063 8.14943 213.185 6.26843 219.118 4.44834C225.088 2.61303 231.257 0.716797 243.396 0.716797V1.30318C231.34 1.30318 225.218 3.18419 219.285 5.00427C213.315 6.83958 207.146 8.73582 195.007 8.73582C182.868 8.73582 176.692 6.83958 170.73 5.00427C164.805 3.18419 158.674 1.30318 146.619 1.30318V0.716797Z" fill="url(#paint58_linear_1159_1200)"/>
<path d="M146.619 -2.61914C158.75 -2.61914 164.919 -0.722905 170.882 1.10479C176.814 2.92487 182.945 4.80588 195 4.80588C207.055 4.80588 213.193 2.92487 219.118 1.10479C225.081 -0.722905 231.249 -2.61914 243.38 -2.61914V-2.13175C231.318 -2.13175 225.187 -0.25075 219.262 1.56933C213.3 3.39703 207.131 5.29326 195 5.29326C182.868 5.29326 176.7 3.39703 170.737 1.56933C164.805 -0.25075 158.674 -2.13175 146.619 -2.13175V-2.61914Z" fill="url(#paint59_linear_1159_1200)"/>
<path d="M146.619 -5.94727C158.743 -5.94727 164.911 -4.05103 170.874 -2.22333C176.807 -0.403252 182.945 1.48537 195.007 1.48537C207.078 1.48537 213.208 -0.395637 219.141 -2.22333C225.103 -4.05103 231.264 -5.94727 243.388 -5.94727V-5.55126C231.318 -5.55126 225.187 -3.67026 219.255 -1.84256C213.292 -0.0148668 207.131 1.88137 195.007 1.88137C182.884 1.88137 176.715 -0.0148668 170.76 -1.84256C164.828 -3.66264 158.69 -5.55126 146.627 -5.55126V-5.94727H146.619Z" fill="url(#paint60_linear_1159_1200)"/>
<path d="M-46.9277 40.6895C-34.6974 40.6895 -28.4832 42.6009 -22.4747 44.4438C-16.588 46.2487 -10.5033 48.1221 1.46053 48.1221C13.4243 48.1221 19.509 46.2563 25.3957 44.4438C31.4043 42.6009 37.6185 40.6895 49.8488 40.6895V42.4334C37.885 42.4334 31.8003 44.2992 25.9136 46.1116C19.905 47.9545 13.6909 49.866 1.46053 49.866C-10.7698 49.866 -16.984 47.9545 -22.9925 46.1116C-28.8792 44.3068 -34.9639 42.4334 -46.9277 42.4334V40.6895Z" fill="url(#paint61_linear_1159_1200)"/>
<path d="M-46.9277 37.3535C-34.705 37.3535 -28.4985 39.2574 -22.4899 41.1079C-16.6032 42.9128 -10.5109 44.7862 1.46053 44.7862C13.4319 44.7862 19.5243 42.9128 25.411 41.1079C31.4195 39.265 37.6261 37.3535 49.8488 37.3535V39.0061C37.8774 39.0061 31.7851 40.8794 25.8984 42.6843C19.8898 44.5272 13.6833 46.4387 1.46053 46.4387C-10.7622 46.4387 -16.9687 44.5348 -22.9773 42.6843C-28.864 40.8794 -34.9563 39.0061 -46.9277 39.0061V37.3535Z" fill="url(#paint62_linear_1159_1200)"/>
<path d="M-46.9277 34.0254C-34.7126 34.0254 -28.5061 35.9292 -22.5051 37.7722C-16.6108 39.5846 -10.5185 41.4504 1.46053 41.4504C13.4396 41.4504 19.5319 39.577 25.4262 37.7722C31.4271 35.9292 37.6337 34.0254 49.8488 34.0254V35.5789C37.8698 35.5789 31.7775 37.4523 25.8831 39.2572C19.8822 41.1001 13.6756 43.0039 1.46053 43.0039C-10.7546 43.0039 -16.9611 41.1001 -22.9621 39.2572C-28.8564 37.4447 -34.9487 35.5789 -46.9277 35.5789V34.0254Z" fill="url(#paint63_linear_1159_1200)"/>
<path d="M-46.9277 30.6973C-34.7202 30.6973 -28.5213 32.6011 -22.5204 34.444C-16.626 36.2565 -10.5261 38.1299 1.46053 38.1299C13.4472 38.1299 19.5471 36.2565 25.4414 34.444C31.4424 32.6011 37.6413 30.6973 49.8488 30.6973V32.1518C37.8622 32.1518 31.7622 34.0252 25.8679 35.8377C19.867 37.6806 13.668 39.5844 1.46053 39.5844C-10.747 39.5844 -16.9459 37.6806 -22.9468 35.8377C-28.8411 34.0252 -34.9411 32.1518 -46.9277 32.1518V30.6973Z" fill="url(#paint64_linear_1159_1200)"/>
<path d="M-46.9277 27.3633C-34.7279 27.3633 -28.5289 29.2671 -22.5356 31.1101C-16.6337 32.9225 -10.5337 34.7959 1.46053 34.7959C13.4548 34.7959 19.5547 32.9225 25.4567 31.1101C31.45 29.2671 37.6489 27.3633 49.8488 27.3633V28.7264C37.8545 28.7264 31.7546 30.5998 25.8527 32.4123C19.8593 34.2552 13.6604 36.1591 1.46053 36.1591C-10.7393 36.1591 -16.9383 34.2552 -22.9316 32.4123C-28.8335 30.5998 -34.9335 28.7264 -46.9277 28.7264V27.3633Z" fill="url(#paint65_linear_1159_1200)"/>
<path d="M-46.9277 24.0352C-34.7355 24.0352 -28.5442 25.939 -22.5508 27.7743C-16.6489 29.5868 -10.5413 31.4602 1.46053 31.4602C13.4624 31.4602 19.5623 29.5868 25.4719 27.7743C31.4652 25.9314 37.6565 24.0352 49.8488 24.0352V25.2993C37.8469 25.2993 31.747 27.1727 25.8374 28.9852C19.8441 30.8281 13.6528 32.7243 1.46053 32.7243C-10.7317 32.7243 -16.923 30.8205 -22.9164 28.9852C-28.8183 27.1727 -34.9259 25.2993 -46.9277 25.2993V24.0352Z" fill="url(#paint66_linear_1159_1200)"/>
<path d="M-46.9277 20.6992C-34.7431 20.6992 -28.5518 22.6031 -22.5661 24.4384C-16.6565 26.2508 -10.5566 28.1242 1.45292 28.1242C13.4624 28.1242 19.57 26.2508 25.4719 24.4384C31.4576 22.6031 37.6489 20.6992 49.8336 20.6992V21.8644C37.8241 21.8644 31.7165 23.7378 25.8146 25.5502C19.8289 27.3855 13.6376 29.2894 1.45292 29.2894C-10.7317 29.2894 -16.9231 27.3855 -22.9088 25.5502C-28.8183 23.7378 -34.9182 21.8644 -46.9277 21.8644V20.6992Z" fill="url(#paint67_linear_1159_1200)"/>
<path d="M-46.9277 17.3711C-34.7507 17.3711 -28.5594 19.2749 -22.5813 21.1103C-16.6717 22.9227 -10.5642 24.8037 1.45292 24.8037C13.47 24.8037 19.5776 22.9303 25.4871 21.1103C31.4728 19.2749 37.6565 17.3711 49.8336 17.3711V18.4449C37.8165 18.4449 31.7089 20.3183 25.7994 22.1383C19.8137 23.9736 13.6299 25.8775 1.45292 25.8775C-10.7241 25.8775 -16.9154 23.9736 -22.8935 22.1383C-28.8031 20.3259 -34.9106 18.4449 -46.9277 18.4449V17.3711Z" fill="url(#paint68_linear_1159_1200)"/>
<path d="M-46.9277 14.043C-34.7583 14.043 -28.5746 15.9392 -22.5889 17.7821C-16.6794 19.5946 -10.5642 21.4756 1.46053 21.4756C13.4853 21.4756 19.6004 19.5946 25.51 17.7821C31.4881 15.9468 37.6794 14.043 49.8488 14.043V15.0177C37.8241 15.0177 31.7089 16.8987 25.7994 18.7112C19.8213 20.5465 13.6299 22.4504 1.46053 22.4504C-10.7089 22.4504 -16.8926 20.5541 -22.8783 18.7112C-28.7878 16.8987 -34.903 15.0177 -46.9277 15.0177V14.043Z" fill="url(#paint69_linear_1159_1200)"/>
<path d="M-46.9277 10.707C-34.7659 10.707 -28.5822 12.6033 -22.6041 14.4386C-16.687 16.2587 -10.5718 18.132 1.46053 18.132C13.4929 18.132 19.608 16.251 25.5252 14.4386C31.5033 12.6033 37.687 10.707 49.8488 10.707V11.5828C37.8165 11.5828 31.7013 13.4638 25.7841 15.2763C19.806 17.1116 13.6223 19.0078 1.46053 19.0078C-10.7013 19.0078 -16.885 17.1116 -22.8631 15.2763C-28.7802 13.4562 -34.8954 11.5828 -46.9277 11.5828V10.707Z" fill="url(#paint70_linear_1159_1200)"/>
<path d="M-46.9277 7.37891C-34.7736 7.37891 -28.5975 9.27514 -22.6194 11.1105C-16.7022 12.9305 -10.5794 14.8115 1.46053 14.8115C13.5005 14.8115 19.6233 12.9305 25.5404 11.1105C31.5185 9.27514 37.6946 7.37891 49.8488 7.37891V8.15568C37.8089 8.15568 31.6861 10.0367 25.7689 11.8568C19.7908 13.6921 13.6147 15.5883 1.46053 15.5883C-10.6937 15.5883 -16.8697 13.6921 -22.8478 11.8568C-28.765 10.0367 -34.8878 8.15568 -46.9277 8.15568V7.37891Z" fill="url(#paint71_linear_1159_1200)"/>
<path d="M-46.9277 4.04492C-34.7812 4.04492 -28.6051 5.94116 -22.6346 7.77647C-16.7098 9.59655 -10.587 11.4776 1.46053 11.4776C13.5081 11.4776 19.6309 9.59655 25.5557 7.77647C31.5261 5.94116 37.7022 4.04492 49.8488 4.04492V4.73031C37.8012 4.73031 31.6785 6.61131 25.7537 8.43139C19.7832 10.2667 13.6071 12.1629 1.46053 12.1629C-10.686 12.1629 -16.8621 10.2667 -22.8326 8.43139C-28.7574 6.61131 -34.8802 4.73031 -46.9277 4.73031V4.04492Z" fill="url(#paint72_linear_1159_1200)"/>
<path d="M-46.9277 0.716797C-34.7888 0.716797 -28.6127 2.61303 -22.6498 4.44834C-16.725 6.26843 -10.5947 8.14943 1.46053 8.14943C13.5157 8.14943 19.6385 6.26843 25.5709 4.44834C31.5414 2.61303 37.7099 0.716797 49.8488 0.716797V1.30318C37.7936 1.30318 31.6708 3.18419 25.7384 5.00427C19.768 6.83958 13.5995 8.73582 1.46053 8.73582C-10.6784 8.73582 -16.8545 6.83958 -22.8174 5.00427C-28.7421 3.18419 -34.8726 1.30318 -46.9277 1.30318V0.716797Z" fill="url(#paint73_linear_1159_1200)"/>
<path d="M-46.9277 -2.61914C-34.7964 -2.61914 -28.6279 -0.722905 -22.6651 1.10479C-16.7327 2.92487 -10.6023 4.80588 1.45292 4.80588C13.5081 4.80588 19.6461 2.92487 25.5709 1.10479C31.5338 -0.722905 37.7022 -2.61914 49.8336 -2.61914V-2.13175C37.7708 -2.13175 31.6404 -0.25075 25.7156 1.56933C19.7527 3.39703 13.5843 5.29326 1.45292 5.29326C-10.6784 5.29326 -16.8469 3.39703 -22.8098 1.56933C-28.7422 -0.25075 -34.8726 -2.13175 -46.9277 -2.13175V-2.61914Z" fill="url(#paint74_linear_1159_1200)"/>
<path d="M-46.9277 -5.94727C-34.804 -5.94727 -28.6355 -4.05103 -22.6803 -2.22333C-16.7479 -0.403252 -10.6099 1.48537 1.45292 1.48537C13.5233 1.48537 19.6537 -0.395637 25.5861 -2.22333C31.549 -4.05103 37.7175 -5.94727 49.8412 -5.94727V-5.55126C37.7708 -5.55126 31.6404 -3.67026 25.708 -1.84256C19.7451 -0.0148668 13.5843 1.88137 1.46053 1.88137C-10.6632 1.88137 -16.8317 -0.0148668 -22.7869 -1.84256C-28.7193 -3.66264 -34.8573 -5.55126 -46.9201 -5.55126V-5.94727H-46.9277Z" fill="url(#paint75_linear_1159_1200)"/>
</g>
<defs>
<linearGradient id="paint0_linear_1159_1200" x1="291.777" y1="89.5502" x2="291.777" y2="-11.4833" gradientUnits="userSpaceOnUse">
<stop stop-color="#B6D5EC" stop-opacity="0"/>
<stop offset="0.1" stop-color="#B6D5EC" stop-opacity="0.03"/>
<stop offset="0.23" stop-color="#B6D5EC" stop-opacity="0.1"/>
<stop offset="0.38" stop-color="#B6D5EC" stop-opacity="0.22"/>
<stop offset="0.54" stop-color="#B6D5EC" stop-opacity="0.38"/>
<stop offset="0.72" stop-color="#B6D5EC" stop-opacity="0.59"/>
<stop offset="0.9" stop-color="#B6D5EC" stop-opacity="0.85"/>
<stop offset="1" stop-color="#B6D5EC"/>
</linearGradient>
<linearGradient id="paint1_linear_1159_1200" x1="291.777" y1="89.551" x2="291.777" y2="-11.4826" gradientUnits="userSpaceOnUse">
<stop stop-color="#B6D5EC" stop-opacity="0"/>
<stop offset="0.1" stop-color="#B6D5EC" stop-opacity="0.03"/>
<stop offset="0.23" stop-color="#B6D5EC" stop-opacity="0.1"/>
<stop offset="0.38" stop-color="#B6D5EC" stop-opacity="0.22"/>
<stop offset="0.54" stop-color="#B6D5EC" stop-opacity="0.38"/>
<stop offset="0.72" stop-color="#B6D5EC" stop-opacity="0.59"/>
<stop offset="0.9" stop-color="#B6D5EC" stop-opacity="0.85"/>
<stop offset="1" stop-color="#B6D5EC"/>
</linearGradient>
<linearGradient id="paint2_linear_1159_1200" x1="291.777" y1="89.5498" x2="291.777" y2="-11.4837" gradientUnits="userSpaceOnUse">
<stop stop-color="#B6D5EC" stop-opacity="0"/>
<stop offset="0.1" stop-color="#B6D5EC" stop-opacity="0.03"/>
<stop offset="0.23" stop-color="#B6D5EC" stop-opacity="0.1"/>
<stop offset="0.38" stop-color="#B6D5EC" stop-opacity="0.22"/>
<stop offset="0.54" stop-color="#B6D5EC" stop-opacity="0.38"/>
<stop offset="0.72" stop-color="#B6D5EC" stop-opacity="0.59"/>
<stop offset="0.9" stop-color="#B6D5EC" stop-opacity="0.85"/>
<stop offset="1" stop-color="#B6D5EC"/>
</linearGradient>
<linearGradient id="paint3_linear_1159_1200" x1="291.777" y1="89.5506" x2="291.777" y2="-11.4829" gradientUnits="userSpaceOnUse">
<stop stop-color="#B6D5EC" stop-opacity="0"/>
<stop offset="0.1" stop-color="#B6D5EC" stop-opacity="0.03"/>
<stop offset="0.23" stop-color="#B6D5EC" stop-opacity="0.1"/>
<stop offset="0.38" stop-color="#B6D5EC" stop-opacity="0.22"/>
<stop offset="0.54" stop-color="#B6D5EC" stop-opacity="0.38"/>
<stop offset="0.72" stop-color="#B6D5EC" stop-opacity="0.59"/>
<stop offset="0.9" stop-color="#B6D5EC" stop-opacity="0.85"/>
<stop offset="1" stop-color="#B6D5EC"/>
</linearGradient>
<linearGradient id="paint4_linear_1159_1200" x1="291.777" y1="89.5495" x2="291.777" y2="-11.484" gradientUnits="userSpaceOnUse">
<stop stop-color="#B6D5EC" stop-opacity="0"/>
<stop offset="0.1" stop-color="#B6D5EC" stop-opacity="0.03"/>
<stop offset="0.23" stop-color="#B6D5EC" stop-opacity="0.1"/>
<stop offset="0.38" stop-color="#B6D5EC" stop-opacity="0.22"/>
<stop offset="0.54" stop-color="#B6D5EC" stop-opacity="0.38"/>
<stop offset="0.72" stop-color="#B6D5EC" stop-opacity="0.59"/>
<stop offset="0.9" stop-color="#B6D5EC" stop-opacity="0.85"/>
<stop offset="1" stop-color="#B6D5EC"/>
</linearGradient>
<linearGradient id="paint5_linear_1159_1200" x1="291.777" y1="89.5505" x2="291.777" y2="-11.483" gradientUnits="userSpaceOnUse">
<stop stop-color="#B6D5EC" stop-opacity="0"/>
<stop offset="0.1" stop-color="#B6D5EC" stop-opacity="0.03"/>
<stop offset="0.23" stop-color="#B6D5EC" stop-opacity="0.1"/>
<stop offset="0.38" stop-color="#B6D5EC" stop-opacity="0.22"/>
<stop offset="0.54" stop-color="#B6D5EC" stop-opacity="0.38"/>
<stop offset="0.72" stop-color="#B6D5EC" stop-opacity="0.59"/>
<stop offset="0.9" stop-color="#B6D5EC" stop-opacity="0.85"/>
<stop offset="1" stop-color="#B6D5EC"/>
</linearGradient>
<linearGradient id="paint6_linear_1159_1200" x1="291.775" y1="89.5493" x2="291.775" y2="-11.4842" gradientUnits="userSpaceOnUse">
<stop stop-color="#B6D5EC" stop-opacity="0"/>
<stop offset="0.1" stop-color="#B6D5EC" stop-opacity="0.03"/>
<stop offset="0.23" stop-color="#B6D5EC" stop-opacity="0.1"/>
<stop offset="0.38" stop-color="#B6D5EC" stop-opacity="0.22"/>
<stop offset="0.54" stop-color="#B6D5EC" stop-opacity="0.38"/>
<stop offset="0.72" stop-color="#B6D5EC" stop-opacity="0.59"/>
<stop offset="0.9" stop-color="#B6D5EC" stop-opacity="0.85"/>
<stop offset="1" stop-color="#B6D5EC"/>
</linearGradient>
<linearGradient id="paint7_linear_1159_1200" x1="291.777" y1="89.5501" x2="291.777" y2="-11.4834" gradientUnits="userSpaceOnUse">
<stop stop-color="#B6D5EC" stop-opacity="0"/>
<stop offset="0.1" stop-color="#B6D5EC" stop-opacity="0.03"/>
<stop offset="0.23" stop-color="#B6D5EC" stop-opacity="0.1"/>
<stop offset="0.38" stop-color="#B6D5EC" stop-opacity="0.22"/>
<stop offset="0.54" stop-color="#B6D5EC" stop-opacity="0.38"/>
<stop offset="0.72" stop-color="#B6D5EC" stop-opacity="0.59"/>
<stop offset="0.9" stop-color="#B6D5EC" stop-opacity="0.85"/>
<stop offset="1" stop-color="#B6D5EC"/>
</linearGradient>
<linearGradient id="paint8_linear_1159_1200" x1="291.777" y1="89.5509" x2="291.777" y2="-11.4825" gradientUnits="userSpaceOnUse">
<stop stop-color="#B6D5EC" stop-opacity="0"/>
<stop offset="0.1" stop-color="#B6D5EC" stop-opacity="0.03"/>
<stop offset="0.23" stop-color="#B6D5EC" stop-opacity="0.1"/>
<stop offset="0.38" stop-color="#B6D5EC" stop-opacity="0.22"/>
<stop offset="0.54" stop-color="#B6D5EC" stop-opacity="0.38"/>
<stop offset="0.72" stop-color="#B6D5EC" stop-opacity="0.59"/>
<stop offset="0.9" stop-color="#B6D5EC" stop-opacity="0.85"/>
<stop offset="1" stop-color="#B6D5EC"/>
</linearGradient>
<linearGradient id="paint9_linear_1159_1200" x1="291.777" y1="89.5498" x2="291.777" y2="-11.4837" gradientUnits="userSpaceOnUse">
<stop stop-color="#B6D5EC" stop-opacity="0"/>
<stop offset="0.1" stop-color="#B6D5EC" stop-opacity="0.03"/>
<stop offset="0.23" stop-color="#B6D5EC" stop-opacity="0.1"/>
<stop offset="0.38" stop-color="#B6D5EC" stop-opacity="0.22"/>
<stop offset="0.54" stop-color="#B6D5EC" stop-opacity="0.38"/>
<stop offset="0.72" stop-color="#B6D5EC" stop-opacity="0.59"/>
<stop offset="0.9" stop-color="#B6D5EC" stop-opacity="0.85"/>
<stop offset="1" stop-color="#B6D5EC"/>
</linearGradient>
<linearGradient id="paint10_linear_1159_1200" x1="291.777" y1="89.5506" x2="291.777" y2="-11.4829" gradientUnits="userSpaceOnUse">
<stop stop-color="#B6D5EC" stop-opacity="0"/>
<stop offset="0.1" stop-color="#B6D5EC" stop-opacity="0.03"/>
<stop offset="0.23" stop-color="#B6D5EC" stop-opacity="0.1"/>
<stop offset="0.38" stop-color="#B6D5EC" stop-opacity="0.22"/>
<stop offset="0.54" stop-color="#B6D5EC" stop-opacity="0.38"/>
<stop offset="0.72" stop-color="#B6D5EC" stop-opacity="0.59"/>
<stop offset="0.9" stop-color="#B6D5EC" stop-opacity="0.85"/>
<stop offset="1" stop-color="#B6D5EC"/>
</linearGradient>
<linearGradient id="paint11_linear_1159_1200" x1="291.777" y1="89.5494" x2="291.777" y2="-11.4841" gradientUnits="userSpaceOnUse">
<stop stop-color="#B6D5EC" stop-opacity="0"/>
<stop offset="0.1" stop-color="#B6D5EC" stop-opacity="0.03"/>
<stop offset="0.23" stop-color="#B6D5EC" stop-opacity="0.1"/>
<stop offset="0.38" stop-color="#B6D5EC" stop-opacity="0.22"/>
<stop offset="0.54" stop-color="#B6D5EC" stop-opacity="0.38"/>
<stop offset="0.72" stop-color="#B6D5EC" stop-opacity="0.59"/>
<stop offset="0.9" stop-color="#B6D5EC" stop-opacity="0.85"/>
<stop offset="1" stop-color="#B6D5EC"/>
</linearGradient>
<linearGradient id="paint12_linear_1159_1200" x1="291.777" y1="89.5503" x2="291.777" y2="-11.4833" gradientUnits="userSpaceOnUse">
<stop stop-color="#B6D5EC" stop-opacity="0"/>
<stop offset="0.1" stop-color="#B6D5EC" stop-opacity="0.03"/>
<stop offset="0.23" stop-color="#B6D5EC" stop-opacity="0.1"/>
<stop offset="0.38" stop-color="#B6D5EC" stop-opacity="0.22"/>
<stop offset="0.54" stop-color="#B6D5EC" stop-opacity="0.38"/>
<stop offset="0.72" stop-color="#B6D5EC" stop-opacity="0.59"/>
<stop offset="0.9" stop-color="#B6D5EC" stop-opacity="0.85"/>
<stop offset="1" stop-color="#B6D5EC"/>
</linearGradient>
<linearGradient id="paint13_linear_1159_1200" x1="291.775" y1="89.5511" x2="291.775" y2="-11.4825" gradientUnits="userSpaceOnUse">
<stop stop-color="#B6D5EC" stop-opacity="0"/>
<stop offset="0.1" stop-color="#B6D5EC" stop-opacity="0.03"/>
<stop offset="0.23" stop-color="#B6D5EC" stop-opacity="0.1"/>
<stop offset="0.38" stop-color="#B6D5EC" stop-opacity="0.22"/>
<stop offset="0.54" stop-color="#B6D5EC" stop-opacity="0.38"/>
<stop offset="0.72" stop-color="#B6D5EC" stop-opacity="0.59"/>
<stop offset="0.9" stop-color="#B6D5EC" stop-opacity="0.85"/>
<stop offset="1" stop-color="#B6D5EC"/>
</linearGradient>
<linearGradient id="paint14_linear_1159_1200" x1="291.777" y1="89.5501" x2="291.777" y2="-11.4834" gradientUnits="userSpaceOnUse">
<stop stop-color="#B6D5EC" stop-opacity="0"/>
<stop offset="0.1" stop-color="#B6D5EC" stop-opacity="0.03"/>
<stop offset="0.23" stop-color="#B6D5EC" stop-opacity="0.1"/>
<stop offset="0.38" stop-color="#B6D5EC" stop-opacity="0.22"/>
<stop offset="0.54" stop-color="#B6D5EC" stop-opacity="0.38"/>
<stop offset="0.72" stop-color="#B6D5EC" stop-opacity="0.59"/>
<stop offset="0.9" stop-color="#B6D5EC" stop-opacity="0.85"/>
<stop offset="1" stop-color="#B6D5EC"/>
</linearGradient>
<linearGradient id="paint15_linear_1159_1200" x1="388.552" y1="-5.94727" x2="388.552" y2="-11.4837" gradientUnits="userSpaceOnUse">
<stop stop-color="#B6D5EC" stop-opacity="0"/>
<stop offset="0.1" stop-color="#B6D5EC" stop-opacity="0.03"/>
<stop offset="0.23" stop-color="#B6D5EC" stop-opacity="0.1"/>
<stop offset="0.38" stop-color="#B6D5EC" stop-opacity="0.22"/>
<stop offset="0.54" stop-color="#B6D5EC" stop-opacity="0.38"/>
<stop offset="0.72" stop-color="#B6D5EC" stop-opacity="0.59"/>
<stop offset="0.9" stop-color="#B6D5EC" stop-opacity="0.85"/>
<stop offset="1" stop-color="#B6D5EC"/>
</linearGradient>
<linearGradient id="paint16_linear_1159_1200" x1="388.552" y1="89.5495" x2="388.552" y2="-11.4841" gradientUnits="userSpaceOnUse">
<stop stop-color="#B6D5EC" stop-opacity="0"/>
<stop offset="0.1" stop-color="#B6D5EC" stop-opacity="0.03"/>
<stop offset="0.23" stop-color="#B6D5EC" stop-opacity="0.1"/>
<stop offset="0.38" stop-color="#B6D5EC" stop-opacity="0.22"/>
<stop offset="0.54" stop-color="#B6D5EC" stop-opacity="0.38"/>
<stop offset="0.72" stop-color="#B6D5EC" stop-opacity="0.59"/>
<stop offset="0.9" stop-color="#B6D5EC" stop-opacity="0.85"/>
<stop offset="1" stop-color="#B6D5EC"/>
</linearGradient>
<linearGradient id="paint17_linear_1159_1200" x1="388.552" y1="89.5493" x2="388.552" y2="-11.4842" gradientUnits="userSpaceOnUse">
<stop stop-color="#B6D5EC" stop-opacity="0"/>
<stop offset="0.1" stop-color="#B6D5EC" stop-opacity="0.03"/>
<stop offset="0.23" stop-color="#B6D5EC" stop-opacity="0.1"/>
<stop offset="0.38" stop-color="#B6D5EC" stop-opacity="0.22"/>
<stop offset="0.54" stop-color="#B6D5EC" stop-opacity="0.38"/>
<stop offset="0.72" stop-color="#B6D5EC" stop-opacity="0.59"/>
<stop offset="0.9" stop-color="#B6D5EC" stop-opacity="0.85"/>
<stop offset="1" stop-color="#B6D5EC"/>
</linearGradient>
<linearGradient id="paint18_linear_1159_1200" x1="388.552" y1="89.5491" x2="388.552" y2="-11.4845" gradientUnits="userSpaceOnUse">
<stop stop-color="#B6D5EC" stop-opacity="0"/>
<stop offset="0.1" stop-color="#B6D5EC" stop-opacity="0.03"/>
<stop offset="0.23" stop-color="#B6D5EC" stop-opacity="0.1"/>
<stop offset="0.38" stop-color="#B6D5EC" stop-opacity="0.22"/>
<stop offset="0.54" stop-color="#B6D5EC" stop-opacity="0.38"/>
<stop offset="0.72" stop-color="#B6D5EC" stop-opacity="0.59"/>
<stop offset="0.9" stop-color="#B6D5EC" stop-opacity="0.85"/>
<stop offset="1" stop-color="#B6D5EC"/>
</linearGradient>
<linearGradient id="paint19_linear_1159_1200" x1="388.548" y1="85.8518" x2="388.548" y2="-15.1817" gradientUnits="userSpaceOnUse">
<stop stop-color="#B6D5EC" stop-opacity="0"/>
<stop offset="0.1" stop-color="#B6D5EC" stop-opacity="0.03"/>
<stop offset="0.23" stop-color="#B6D5EC" stop-opacity="0.1"/>
<stop offset="0.38" stop-color="#B6D5EC" stop-opacity="0.22"/>
<stop offset="0.54" stop-color="#B6D5EC" stop-opacity="0.38"/>
<stop offset="0.72" stop-color="#B6D5EC" stop-opacity="0.59"/>
<stop offset="0.9" stop-color="#B6D5EC" stop-opacity="0.85"/>
<stop offset="1" stop-color="#B6D5EC"/>
</linearGradient>
<linearGradient id="paint20_linear_1159_1200" x1="388.552" y1="-2.61055" x2="388.552" y2="-8.14695" gradientUnits="userSpaceOnUse">
<stop stop-color="#B6D5EC" stop-opacity="0"/>
<stop offset="0.1" stop-color="#B6D5EC" stop-opacity="0.03"/>
<stop offset="0.23" stop-color="#B6D5EC" stop-opacity="0.1"/>
<stop offset="0.38" stop-color="#B6D5EC" stop-opacity="0.22"/>
<stop offset="0.54" stop-color="#B6D5EC" stop-opacity="0.38"/>
<stop offset="0.72" stop-color="#B6D5EC" stop-opacity="0.59"/>
<stop offset="0.9" stop-color="#B6D5EC" stop-opacity="0.85"/>
<stop offset="1" stop-color="#B6D5EC"/>
</linearGradient>
<linearGradient id="paint21_linear_1159_1200" x1="388.552" y1="89.5505" x2="388.552" y2="-11.4831" gradientUnits="userSpaceOnUse">
<stop stop-color="#B6D5EC" stop-opacity="0"/>
<stop offset="0.1" stop-color="#B6D5EC" stop-opacity="0.03"/>
<stop offset="0.23" stop-color="#B6D5EC" stop-opacity="0.1"/>
<stop offset="0.38" stop-color="#B6D5EC" stop-opacity="0.22"/>
<stop offset="0.54" stop-color="#B6D5EC" stop-opacity="0.38"/>
<stop offset="0.72" stop-color="#B6D5EC" stop-opacity="0.59"/>
<stop offset="0.9" stop-color="#B6D5EC" stop-opacity="0.85"/>
<stop offset="1" stop-color="#B6D5EC"/>
</linearGradient>
<linearGradient id="paint22_linear_1159_1200" x1="388.552" y1="89.5501" x2="388.552" y2="-11.4835" gradientUnits="userSpaceOnUse">
<stop stop-color="#B6D5EC" stop-opacity="0"/>
<stop offset="0.1" stop-color="#B6D5EC" stop-opacity="0.03"/>
<stop offset="0.23" stop-color="#B6D5EC" stop-opacity="0.1"/>
<stop offset="0.38" stop-color="#B6D5EC" stop-opacity="0.22"/>
<stop offset="0.54" stop-color="#B6D5EC" stop-opacity="0.38"/>
<stop offset="0.72" stop-color="#B6D5EC" stop-opacity="0.59"/>
<stop offset="0.9" stop-color="#B6D5EC" stop-opacity="0.85"/>
<stop offset="1" stop-color="#B6D5EC"/>
</linearGradient>
<linearGradient id="paint23_linear_1159_1200" x1="388.552" y1="89.5499" x2="388.552" y2="-11.4837" gradientUnits="userSpaceOnUse">
<stop stop-color="#B6D5EC" stop-opacity="0"/>
<stop offset="0.1" stop-color="#B6D5EC" stop-opacity="0.03"/>
<stop offset="0.23" stop-color="#B6D5EC" stop-opacity="0.1"/>
<stop offset="0.38" stop-color="#B6D5EC" stop-opacity="0.22"/>
<stop offset="0.54" stop-color="#B6D5EC" stop-opacity="0.38"/>
<stop offset="0.72" stop-color="#B6D5EC" stop-opacity="0.59"/>
<stop offset="0.9" stop-color="#B6D5EC" stop-opacity="0.85"/>
<stop offset="1" stop-color="#B6D5EC"/>
</linearGradient>
<linearGradient id="paint24_linear_1159_1200" x1="388.552" y1="89.5497" x2="388.552" y2="-11.4839" gradientUnits="userSpaceOnUse">
<stop stop-color="#B6D5EC" stop-opacity="0"/>
<stop offset="0.1" stop-color="#B6D5EC" stop-opacity="0.03"/>
<stop offset="0.23" stop-color="#B6D5EC" stop-opacity="0.1"/>
<stop offset="0.38" stop-color="#B6D5EC" stop-opacity="0.22"/>
<stop offset="0.54" stop-color="#B6D5EC" stop-opacity="0.38"/>
<stop offset="0.72" stop-color="#B6D5EC" stop-opacity="0.59"/>
<stop offset="0.9" stop-color="#B6D5EC" stop-opacity="0.85"/>
<stop offset="1" stop-color="#B6D5EC"/>
</linearGradient>
<linearGradient id="paint25_linear_1159_1200" x1="388.552" y1="89.5493" x2="388.552" y2="-11.4843" gradientUnits="userSpaceOnUse">
<stop stop-color="#B6D5EC" stop-opacity="0"/>
<stop offset="0.1" stop-color="#B6D5EC" stop-opacity="0.03"/>
<stop offset="0.23" stop-color="#B6D5EC" stop-opacity="0.1"/>
<stop offset="0.38" stop-color="#B6D5EC" stop-opacity="0.22"/>
<stop offset="0.54" stop-color="#B6D5EC" stop-opacity="0.38"/>
<stop offset="0.72" stop-color="#B6D5EC" stop-opacity="0.59"/>
<stop offset="0.9" stop-color="#B6D5EC" stop-opacity="0.85"/>
<stop offset="1" stop-color="#B6D5EC"/>
</linearGradient>
<linearGradient id="paint26_linear_1159_1200" x1="388.552" y1="89.5491" x2="388.552" y2="-11.4844" gradientUnits="userSpaceOnUse">
<stop stop-color="#B6D5EC" stop-opacity="0"/>
<stop offset="0.1" stop-color="#B6D5EC" stop-opacity="0.03"/>
<stop offset="0.23" stop-color="#B6D5EC" stop-opacity="0.1"/>
<stop offset="0.38" stop-color="#B6D5EC" stop-opacity="0.22"/>
<stop offset="0.54" stop-color="#B6D5EC" stop-opacity="0.38"/>
<stop offset="0.72" stop-color="#B6D5EC" stop-opacity="0.59"/>
<stop offset="0.9" stop-color="#B6D5EC" stop-opacity="0.85"/>
<stop offset="1" stop-color="#B6D5EC"/>
</linearGradient>
<linearGradient id="paint27_linear_1159_1200" x1="388.552" y1="89.5507" x2="388.552" y2="-11.4829" gradientUnits="userSpaceOnUse">
<stop stop-color="#B6D5EC" stop-opacity="0"/>
<stop offset="0.1" stop-color="#B6D5EC" stop-opacity="0.03"/>
<stop offset="0.23" stop-color="#B6D5EC" stop-opacity="0.1"/>
<stop offset="0.38" stop-color="#B6D5EC" stop-opacity="0.22"/>
<stop offset="0.54" stop-color="#B6D5EC" stop-opacity="0.38"/>
<stop offset="0.72" stop-color="#B6D5EC" stop-opacity="0.59"/>
<stop offset="0.9" stop-color="#B6D5EC" stop-opacity="0.85"/>
<stop offset="1" stop-color="#B6D5EC"/>
</linearGradient>
<linearGradient id="paint28_linear_1159_1200" x1="388.552" y1="89.5505" x2="388.552" y2="-11.4831" gradientUnits="userSpaceOnUse">
<stop stop-color="#B6D5EC" stop-opacity="0"/>
<stop offset="0.1" stop-color="#B6D5EC" stop-opacity="0.03"/>
<stop offset="0.23" stop-color="#B6D5EC" stop-opacity="0.1"/>
<stop offset="0.38" stop-color="#B6D5EC" stop-opacity="0.22"/>
<stop offset="0.54" stop-color="#B6D5EC" stop-opacity="0.38"/>
<stop offset="0.72" stop-color="#B6D5EC" stop-opacity="0.59"/>
<stop offset="0.9" stop-color="#B6D5EC" stop-opacity="0.85"/>
<stop offset="1" stop-color="#B6D5EC"/>
</linearGradient>
<linearGradient id="paint29_linear_1159_1200" x1="388.552" y1="89.5501" x2="388.552" y2="-11.4835" gradientUnits="userSpaceOnUse">
<stop stop-color="#B6D5EC" stop-opacity="0"/>
<stop offset="0.1" stop-color="#B6D5EC" stop-opacity="0.03"/>
<stop offset="0.23" stop-color="#B6D5EC" stop-opacity="0.1"/>
<stop offset="0.38" stop-color="#B6D5EC" stop-opacity="0.22"/>
<stop offset="0.54" stop-color="#B6D5EC" stop-opacity="0.38"/>
<stop offset="0.72" stop-color="#B6D5EC" stop-opacity="0.59"/>
<stop offset="0.9" stop-color="#B6D5EC" stop-opacity="0.85"/>
<stop offset="1" stop-color="#B6D5EC"/>
</linearGradient>
<linearGradient id="paint30_linear_1159_1200" x1="388.552" y1="89.5499" x2="388.552" y2="-11.4837" gradientUnits="userSpaceOnUse">
<stop stop-color="#B6D5EC" stop-opacity="0"/>
<stop offset="0.1" stop-color="#B6D5EC" stop-opacity="0.03"/>
<stop offset="0.23" stop-color="#B6D5EC" stop-opacity="0.1"/>
<stop offset="0.38" stop-color="#B6D5EC" stop-opacity="0.22"/>
<stop offset="0.54" stop-color="#B6D5EC" stop-opacity="0.38"/>
<stop offset="0.72" stop-color="#B6D5EC" stop-opacity="0.59"/>
<stop offset="0.9" stop-color="#B6D5EC" stop-opacity="0.85"/>
<stop offset="1" stop-color="#B6D5EC"/>
</linearGradient>
<linearGradient id="paint31_linear_1159_1200" x1="98.2301" y1="89.5502" x2="98.2301" y2="-11.4833" gradientUnits="userSpaceOnUse">
<stop stop-color="#B6D5EC" stop-opacity="0"/>
<stop offset="0.1" stop-color="#B6D5EC" stop-opacity="0.03"/>
<stop offset="0.23" stop-color="#B6D5EC" stop-opacity="0.1"/>
<stop offset="0.38" stop-color="#B6D5EC" stop-opacity="0.22"/>
<stop offset="0.54" stop-color="#B6D5EC" stop-opacity="0.38"/>
<stop offset="0.72" stop-color="#B6D5EC" stop-opacity="0.59"/>
<stop offset="0.9" stop-color="#B6D5EC" stop-opacity="0.85"/>
<stop offset="1" stop-color="#B6D5EC"/>
</linearGradient>
<linearGradient id="paint32_linear_1159_1200" x1="98.2301" y1="89.551" x2="98.2301" y2="-11.4826" gradientUnits="userSpaceOnUse">
<stop stop-color="#B6D5EC" stop-opacity="0"/>
<stop offset="0.1" stop-color="#B6D5EC" stop-opacity="0.03"/>
<stop offset="0.23" stop-color="#B6D5EC" stop-opacity="0.1"/>
<stop offset="0.38" stop-color="#B6D5EC" stop-opacity="0.22"/>
<stop offset="0.54" stop-color="#B6D5EC" stop-opacity="0.38"/>
<stop offset="0.72" stop-color="#B6D5EC" stop-opacity="0.59"/>
<stop offset="0.9" stop-color="#B6D5EC" stop-opacity="0.85"/>
<stop offset="1" stop-color="#B6D5EC"/>
</linearGradient>
<linearGradient id="paint33_linear_1159_1200" x1="98.2301" y1="89.5498" x2="98.2301" y2="-11.4837" gradientUnits="userSpaceOnUse">
<stop stop-color="#B6D5EC" stop-opacity="0"/>
<stop offset="0.1" stop-color="#B6D5EC" stop-opacity="0.03"/>
<stop offset="0.23" stop-color="#B6D5EC" stop-opacity="0.1"/>
<stop offset="0.38" stop-color="#B6D5EC" stop-opacity="0.22"/>
<stop offset="0.54" stop-color="#B6D5EC" stop-opacity="0.38"/>
<stop offset="0.72" stop-color="#B6D5EC" stop-opacity="0.59"/>
<stop offset="0.9" stop-color="#B6D5EC" stop-opacity="0.85"/>
<stop offset="1" stop-color="#B6D5EC"/>
</linearGradient>
<linearGradient id="paint34_linear_1159_1200" x1="98.2301" y1="89.5506" x2="98.2301" y2="-11.4829" gradientUnits="userSpaceOnUse">
<stop stop-color="#B6D5EC" stop-opacity="0"/>
<stop offset="0.1" stop-color="#B6D5EC" stop-opacity="0.03"/>
<stop offset="0.23" stop-color="#B6D5EC" stop-opacity="0.1"/>
<stop offset="0.38" stop-color="#B6D5EC" stop-opacity="0.22"/>
<stop offset="0.54" stop-color="#B6D5EC" stop-opacity="0.38"/>
<stop offset="0.72" stop-color="#B6D5EC" stop-opacity="0.59"/>
<stop offset="0.9" stop-color="#B6D5EC" stop-opacity="0.85"/>
<stop offset="1" stop-color="#B6D5EC"/>
</linearGradient>
<linearGradient id="paint35_linear_1159_1200" x1="98.2301" y1="89.5495" x2="98.2301" y2="-11.484" gradientUnits="userSpaceOnUse">
<stop stop-color="#B6D5EC" stop-opacity="0"/>
<stop offset="0.1" stop-color="#B6D5EC" stop-opacity="0.03"/>
<stop offset="0.23" stop-color="#B6D5EC" stop-opacity="0.1"/>
<stop offset="0.38" stop-color="#B6D5EC" stop-opacity="0.22"/>
<stop offset="0.54" stop-color="#B6D5EC" stop-opacity="0.38"/>
<stop offset="0.72" stop-color="#B6D5EC" stop-opacity="0.59"/>
<stop offset="0.9" stop-color="#B6D5EC" stop-opacity="0.85"/>
<stop offset="1" stop-color="#B6D5EC"/>
</linearGradient>
<linearGradient id="paint36_linear_1159_1200" x1="98.2301" y1="89.5505" x2="98.2301" y2="-11.483" gradientUnits="userSpaceOnUse">
<stop stop-color="#B6D5EC" stop-opacity="0"/>
<stop offset="0.1" stop-color="#B6D5EC" stop-opacity="0.03"/>
<stop offset="0.23" stop-color="#B6D5EC" stop-opacity="0.1"/>
<stop offset="0.38" stop-color="#B6D5EC" stop-opacity="0.22"/>
<stop offset="0.54" stop-color="#B6D5EC" stop-opacity="0.38"/>
<stop offset="0.72" stop-color="#B6D5EC" stop-opacity="0.59"/>
<stop offset="0.9" stop-color="#B6D5EC" stop-opacity="0.85"/>
<stop offset="1" stop-color="#B6D5EC"/>
</linearGradient>
<linearGradient id="paint37_linear_1159_1200" x1="98.2303" y1="89.5493" x2="98.2303" y2="-11.4842" gradientUnits="userSpaceOnUse">
<stop stop-color="#B6D5EC" stop-opacity="0"/>
<stop offset="0.1" stop-color="#B6D5EC" stop-opacity="0.03"/>
<stop offset="0.23" stop-color="#B6D5EC" stop-opacity="0.1"/>
<stop offset="0.38" stop-color="#B6D5EC" stop-opacity="0.22"/>
<stop offset="0.54" stop-color="#B6D5EC" stop-opacity="0.38"/>
<stop offset="0.72" stop-color="#B6D5EC" stop-opacity="0.59"/>
<stop offset="0.9" stop-color="#B6D5EC" stop-opacity="0.85"/>
<stop offset="1" stop-color="#B6D5EC"/>
</linearGradient>
<linearGradient id="paint38_linear_1159_1200" x1="98.2301" y1="89.5501" x2="98.2301" y2="-11.4834" gradientUnits="userSpaceOnUse">
<stop stop-color="#B6D5EC" stop-opacity="0"/>
<stop offset="0.1" stop-color="#B6D5EC" stop-opacity="0.03"/>
<stop offset="0.23" stop-color="#B6D5EC" stop-opacity="0.1"/>
<stop offset="0.38" stop-color="#B6D5EC" stop-opacity="0.22"/>
<stop offset="0.54" stop-color="#B6D5EC" stop-opacity="0.38"/>
<stop offset="0.72" stop-color="#B6D5EC" stop-opacity="0.59"/>
<stop offset="0.9" stop-color="#B6D5EC" stop-opacity="0.85"/>
<stop offset="1" stop-color="#B6D5EC"/>
</linearGradient>
<linearGradient id="paint39_linear_1159_1200" x1="98.2301" y1="89.5509" x2="98.2301" y2="-11.4825" gradientUnits="userSpaceOnUse">
<stop stop-color="#B6D5EC" stop-opacity="0"/>
<stop offset="0.1" stop-color="#B6D5EC" stop-opacity="0.03"/>
<stop offset="0.23" stop-color="#B6D5EC" stop-opacity="0.1"/>
<stop offset="0.38" stop-color="#B6D5EC" stop-opacity="0.22"/>
<stop offset="0.54" stop-color="#B6D5EC" stop-opacity="0.38"/>
<stop offset="0.72" stop-color="#B6D5EC" stop-opacity="0.59"/>
<stop offset="0.9" stop-color="#B6D5EC" stop-opacity="0.85"/>
<stop offset="1" stop-color="#B6D5EC"/>
</linearGradient>
<linearGradient id="paint40_linear_1159_1200" x1="98.2301" y1="89.5498" x2="98.2301" y2="-11.4837" gradientUnits="userSpaceOnUse">
<stop stop-color="#B6D5EC" stop-opacity="0"/>
<stop offset="0.1" stop-color="#B6D5EC" stop-opacity="0.03"/>
<stop offset="0.23" stop-color="#B6D5EC" stop-opacity="0.1"/>
<stop offset="0.38" stop-color="#B6D5EC" stop-opacity="0.22"/>
<stop offset="0.54" stop-color="#B6D5EC" stop-opacity="0.38"/>
<stop offset="0.72" stop-color="#B6D5EC" stop-opacity="0.59"/>
<stop offset="0.9" stop-color="#B6D5EC" stop-opacity="0.85"/>
<stop offset="1" stop-color="#B6D5EC"/>
</linearGradient>
<linearGradient id="paint41_linear_1159_1200" x1="98.2301" y1="89.5506" x2="98.2301" y2="-11.4829" gradientUnits="userSpaceOnUse">
<stop stop-color="#B6D5EC" stop-opacity="0"/>
<stop offset="0.1" stop-color="#B6D5EC" stop-opacity="0.03"/>
<stop offset="0.23" stop-color="#B6D5EC" stop-opacity="0.1"/>
<stop offset="0.38" stop-color="#B6D5EC" stop-opacity="0.22"/>
<stop offset="0.54" stop-color="#B6D5EC" stop-opacity="0.38"/>
<stop offset="0.72" stop-color="#B6D5EC" stop-opacity="0.59"/>
<stop offset="0.9" stop-color="#B6D5EC" stop-opacity="0.85"/>
<stop offset="1" stop-color="#B6D5EC"/>
</linearGradient>
<linearGradient id="paint42_linear_1159_1200" x1="98.2301" y1="89.5494" x2="98.2301" y2="-11.4841" gradientUnits="userSpaceOnUse">
<stop stop-color="#B6D5EC" stop-opacity="0"/>
<stop offset="0.1" stop-color="#B6D5EC" stop-opacity="0.03"/>
<stop offset="0.23" stop-color="#B6D5EC" stop-opacity="0.1"/>
<stop offset="0.38" stop-color="#B6D5EC" stop-opacity="0.22"/>
<stop offset="0.54" stop-color="#B6D5EC" stop-opacity="0.38"/>
<stop offset="0.72" stop-color="#B6D5EC" stop-opacity="0.59"/>
<stop offset="0.9" stop-color="#B6D5EC" stop-opacity="0.85"/>
<stop offset="1" stop-color="#B6D5EC"/>
</linearGradient>
<linearGradient id="paint43_linear_1159_1200" x1="98.2301" y1="89.5503" x2="98.2301" y2="-11.4833" gradientUnits="userSpaceOnUse">
<stop stop-color="#B6D5EC" stop-opacity="0"/>
<stop offset="0.1" stop-color="#B6D5EC" stop-opacity="0.03"/>
<stop offset="0.23" stop-color="#B6D5EC" stop-opacity="0.1"/>
<stop offset="0.38" stop-color="#B6D5EC" stop-opacity="0.22"/>
<stop offset="0.54" stop-color="#B6D5EC" stop-opacity="0.38"/>
<stop offset="0.72" stop-color="#B6D5EC" stop-opacity="0.59"/>
<stop offset="0.9" stop-color="#B6D5EC" stop-opacity="0.85"/>
<stop offset="1" stop-color="#B6D5EC"/>
</linearGradient>
<linearGradient id="paint44_linear_1159_1200" x1="98.2303" y1="89.5511" x2="98.2303" y2="-11.4825" gradientUnits="userSpaceOnUse">
<stop stop-color="#B6D5EC" stop-opacity="0"/>
<stop offset="0.1" stop-color="#B6D5EC" stop-opacity="0.03"/>
<stop offset="0.23" stop-color="#B6D5EC" stop-opacity="0.1"/>
<stop offset="0.38" stop-color="#B6D5EC" stop-opacity="0.22"/>
<stop offset="0.54" stop-color="#B6D5EC" stop-opacity="0.38"/>
<stop offset="0.72" stop-color="#B6D5EC" stop-opacity="0.59"/>
<stop offset="0.9" stop-color="#B6D5EC" stop-opacity="0.85"/>
<stop offset="1" stop-color="#B6D5EC"/>
</linearGradient>
<linearGradient id="paint45_linear_1159_1200" x1="98.2301" y1="89.5501" x2="98.2301" y2="-11.4834" gradientUnits="userSpaceOnUse">
<stop stop-color="#B6D5EC" stop-opacity="0"/>
<stop offset="0.1" stop-color="#B6D5EC" stop-opacity="0.03"/>
<stop offset="0.23" stop-color="#B6D5EC" stop-opacity="0.1"/>
<stop offset="0.38" stop-color="#B6D5EC" stop-opacity="0.22"/>
<stop offset="0.54" stop-color="#B6D5EC" stop-opacity="0.38"/>
<stop offset="0.72" stop-color="#B6D5EC" stop-opacity="0.59"/>
<stop offset="0.9" stop-color="#B6D5EC" stop-opacity="0.85"/>
<stop offset="1" stop-color="#B6D5EC"/>
</linearGradient>
<linearGradient id="paint46_linear_1159_1200" x1="195.007" y1="89.5499" x2="195.007" y2="-11.4837" gradientUnits="userSpaceOnUse">
<stop stop-color="#B6D5EC" stop-opacity="0"/>
<stop offset="0.1" stop-color="#B6D5EC" stop-opacity="0.03"/>
<stop offset="0.23" stop-color="#B6D5EC" stop-opacity="0.1"/>
<stop offset="0.38" stop-color="#B6D5EC" stop-opacity="0.22"/>
<stop offset="0.54" stop-color="#B6D5EC" stop-opacity="0.38"/>
<stop offset="0.72" stop-color="#B6D5EC" stop-opacity="0.59"/>
<stop offset="0.9" stop-color="#B6D5EC" stop-opacity="0.85"/>
<stop offset="1" stop-color="#B6D5EC"/>
</linearGradient>
<linearGradient id="paint47_linear_1159_1200" x1="195.007" y1="89.5495" x2="195.007" y2="-11.4841" gradientUnits="userSpaceOnUse">
<stop stop-color="#B6D5EC" stop-opacity="0"/>
<stop offset="0.1" stop-color="#B6D5EC" stop-opacity="0.03"/>
<stop offset="0.23" stop-color="#B6D5EC" stop-opacity="0.1"/>
<stop offset="0.38" stop-color="#B6D5EC" stop-opacity="0.22"/>
<stop offset="0.54" stop-color="#B6D5EC" stop-opacity="0.38"/>
<stop offset="0.72" stop-color="#B6D5EC" stop-opacity="0.59"/>
<stop offset="0.9" stop-color="#B6D5EC" stop-opacity="0.85"/>
<stop offset="1" stop-color="#B6D5EC"/>
</linearGradient>
<linearGradient id="paint48_linear_1159_1200" x1="195.007" y1="89.5493" x2="195.007" y2="-11.4842" gradientUnits="userSpaceOnUse">
<stop stop-color="#B6D5EC" stop-opacity="0"/>
<stop offset="0.1" stop-color="#B6D5EC" stop-opacity="0.03"/>
<stop offset="0.23" stop-color="#B6D5EC" stop-opacity="0.1"/>
<stop offset="0.38" stop-color="#B6D5EC" stop-opacity="0.22"/>
<stop offset="0.54" stop-color="#B6D5EC" stop-opacity="0.38"/>
<stop offset="0.72" stop-color="#B6D5EC" stop-opacity="0.59"/>
<stop offset="0.9" stop-color="#B6D5EC" stop-opacity="0.85"/>
<stop offset="1" stop-color="#B6D5EC"/>
</linearGradient>
<linearGradient id="paint49_linear_1159_1200" x1="195.007" y1="89.5491" x2="195.007" y2="-11.4845" gradientUnits="userSpaceOnUse">
<stop stop-color="#B6D5EC" stop-opacity="0"/>
<stop offset="0.1" stop-color="#B6D5EC" stop-opacity="0.03"/>
<stop offset="0.23" stop-color="#B6D5EC" stop-opacity="0.1"/>
<stop offset="0.38" stop-color="#B6D5EC" stop-opacity="0.22"/>
<stop offset="0.54" stop-color="#B6D5EC" stop-opacity="0.38"/>
<stop offset="0.72" stop-color="#B6D5EC" stop-opacity="0.59"/>
<stop offset="0.9" stop-color="#B6D5EC" stop-opacity="0.85"/>
<stop offset="1" stop-color="#B6D5EC"/>
</linearGradient>
<linearGradient id="paint50_linear_1159_1200" x1="195.007" y1="89.5507" x2="195.007" y2="-11.4829" gradientUnits="userSpaceOnUse">
<stop stop-color="#B6D5EC" stop-opacity="0"/>
<stop offset="0.1" stop-color="#B6D5EC" stop-opacity="0.03"/>
<stop offset="0.23" stop-color="#B6D5EC" stop-opacity="0.1"/>
<stop offset="0.38" stop-color="#B6D5EC" stop-opacity="0.22"/>
<stop offset="0.54" stop-color="#B6D5EC" stop-opacity="0.38"/>
<stop offset="0.72" stop-color="#B6D5EC" stop-opacity="0.59"/>
<stop offset="0.9" stop-color="#B6D5EC" stop-opacity="0.85"/>
<stop offset="1" stop-color="#B6D5EC"/>
</linearGradient>
<linearGradient id="paint51_linear_1159_1200" x1="195.007" y1="89.5505" x2="195.007" y2="-11.4831" gradientUnits="userSpaceOnUse">
<stop stop-color="#B6D5EC" stop-opacity="0"/>
<stop offset="0.1" stop-color="#B6D5EC" stop-opacity="0.03"/>
<stop offset="0.23" stop-color="#B6D5EC" stop-opacity="0.1"/>
<stop offset="0.38" stop-color="#B6D5EC" stop-opacity="0.22"/>
<stop offset="0.54" stop-color="#B6D5EC" stop-opacity="0.38"/>
<stop offset="0.72" stop-color="#B6D5EC" stop-opacity="0.59"/>
<stop offset="0.9" stop-color="#B6D5EC" stop-opacity="0.85"/>
<stop offset="1" stop-color="#B6D5EC"/>
</linearGradient>
<linearGradient id="paint52_linear_1159_1200" x1="195.007" y1="89.5501" x2="195.007" y2="-11.4835" gradientUnits="userSpaceOnUse">
<stop stop-color="#B6D5EC" stop-opacity="0"/>
<stop offset="0.1" stop-color="#B6D5EC" stop-opacity="0.03"/>
<stop offset="0.23" stop-color="#B6D5EC" stop-opacity="0.1"/>
<stop offset="0.38" stop-color="#B6D5EC" stop-opacity="0.22"/>
<stop offset="0.54" stop-color="#B6D5EC" stop-opacity="0.38"/>
<stop offset="0.72" stop-color="#B6D5EC" stop-opacity="0.59"/>
<stop offset="0.9" stop-color="#B6D5EC" stop-opacity="0.85"/>
<stop offset="1" stop-color="#B6D5EC"/>
</linearGradient>
<linearGradient id="paint53_linear_1159_1200" x1="195.007" y1="89.5499" x2="195.007" y2="-11.4837" gradientUnits="userSpaceOnUse">
<stop stop-color="#B6D5EC" stop-opacity="0"/>
<stop offset="0.1" stop-color="#B6D5EC" stop-opacity="0.03"/>
<stop offset="0.23" stop-color="#B6D5EC" stop-opacity="0.1"/>
<stop offset="0.38" stop-color="#B6D5EC" stop-opacity="0.22"/>
<stop offset="0.54" stop-color="#B6D5EC" stop-opacity="0.38"/>
<stop offset="0.72" stop-color="#B6D5EC" stop-opacity="0.59"/>
<stop offset="0.9" stop-color="#B6D5EC" stop-opacity="0.85"/>
<stop offset="1" stop-color="#B6D5EC"/>
</linearGradient>
<linearGradient id="paint54_linear_1159_1200" x1="195.007" y1="89.5497" x2="195.007" y2="-11.4839" gradientUnits="userSpaceOnUse">
<stop stop-color="#B6D5EC" stop-opacity="0"/>
<stop offset="0.1" stop-color="#B6D5EC" stop-opacity="0.03"/>
<stop offset="0.23" stop-color="#B6D5EC" stop-opacity="0.1"/>
<stop offset="0.38" stop-color="#B6D5EC" stop-opacity="0.22"/>
<stop offset="0.54" stop-color="#B6D5EC" stop-opacity="0.38"/>
<stop offset="0.72" stop-color="#B6D5EC" stop-opacity="0.59"/>
<stop offset="0.9" stop-color="#B6D5EC" stop-opacity="0.85"/>
<stop offset="1" stop-color="#B6D5EC"/>
</linearGradient>
<linearGradient id="paint55_linear_1159_1200" x1="195.007" y1="89.5493" x2="195.007" y2="-11.4843" gradientUnits="userSpaceOnUse">
<stop stop-color="#B6D5EC" stop-opacity="0"/>
<stop offset="0.1" stop-color="#B6D5EC" stop-opacity="0.03"/>
<stop offset="0.23" stop-color="#B6D5EC" stop-opacity="0.1"/>
<stop offset="0.38" stop-color="#B6D5EC" stop-opacity="0.22"/>
<stop offset="0.54" stop-color="#B6D5EC" stop-opacity="0.38"/>
<stop offset="0.72" stop-color="#B6D5EC" stop-opacity="0.59"/>
<stop offset="0.9" stop-color="#B6D5EC" stop-opacity="0.85"/>
<stop offset="1" stop-color="#B6D5EC"/>
</linearGradient>
<linearGradient id="paint56_linear_1159_1200" x1="195.007" y1="89.5491" x2="195.007" y2="-11.4844" gradientUnits="userSpaceOnUse">
<stop stop-color="#B6D5EC" stop-opacity="0"/>
<stop offset="0.1" stop-color="#B6D5EC" stop-opacity="0.03"/>
<stop offset="0.23" stop-color="#B6D5EC" stop-opacity="0.1"/>
<stop offset="0.38" stop-color="#B6D5EC" stop-opacity="0.22"/>
<stop offset="0.54" stop-color="#B6D5EC" stop-opacity="0.38"/>
<stop offset="0.72" stop-color="#B6D5EC" stop-opacity="0.59"/>
<stop offset="0.9" stop-color="#B6D5EC" stop-opacity="0.85"/>
<stop offset="1" stop-color="#B6D5EC"/>
</linearGradient>
<linearGradient id="paint57_linear_1159_1200" x1="195.007" y1="89.5507" x2="195.007" y2="-11.4829" gradientUnits="userSpaceOnUse">
<stop stop-color="#B6D5EC" stop-opacity="0"/>
<stop offset="0.1" stop-color="#B6D5EC" stop-opacity="0.03"/>
<stop offset="0.23" stop-color="#B6D5EC" stop-opacity="0.1"/>
<stop offset="0.38" stop-color="#B6D5EC" stop-opacity="0.22"/>
<stop offset="0.54" stop-color="#B6D5EC" stop-opacity="0.38"/>
<stop offset="0.72" stop-color="#B6D5EC" stop-opacity="0.59"/>
<stop offset="0.9" stop-color="#B6D5EC" stop-opacity="0.85"/>
<stop offset="1" stop-color="#B6D5EC"/>
</linearGradient>
<linearGradient id="paint58_linear_1159_1200" x1="195.007" y1="89.5505" x2="195.007" y2="-11.4831" gradientUnits="userSpaceOnUse">
<stop stop-color="#B6D5EC" stop-opacity="0"/>
<stop offset="0.1" stop-color="#B6D5EC" stop-opacity="0.03"/>
<stop offset="0.23" stop-color="#B6D5EC" stop-opacity="0.1"/>
<stop offset="0.38" stop-color="#B6D5EC" stop-opacity="0.22"/>
<stop offset="0.54" stop-color="#B6D5EC" stop-opacity="0.38"/>
<stop offset="0.72" stop-color="#B6D5EC" stop-opacity="0.59"/>
<stop offset="0.9" stop-color="#B6D5EC" stop-opacity="0.85"/>
<stop offset="1" stop-color="#B6D5EC"/>
</linearGradient>
<linearGradient id="paint59_linear_1159_1200" x1="195.007" y1="89.5501" x2="195.007" y2="-11.4835" gradientUnits="userSpaceOnUse">
<stop stop-color="#B6D5EC" stop-opacity="0"/>
<stop offset="0.1" stop-color="#B6D5EC" stop-opacity="0.03"/>
<stop offset="0.23" stop-color="#B6D5EC" stop-opacity="0.1"/>
<stop offset="0.38" stop-color="#B6D5EC" stop-opacity="0.22"/>
<stop offset="0.54" stop-color="#B6D5EC" stop-opacity="0.38"/>
<stop offset="0.72" stop-color="#B6D5EC" stop-opacity="0.59"/>
<stop offset="0.9" stop-color="#B6D5EC" stop-opacity="0.85"/>
<stop offset="1" stop-color="#B6D5EC"/>
</linearGradient>
<linearGradient id="paint60_linear_1159_1200" x1="195.007" y1="89.5499" x2="195.007" y2="-11.4837" gradientUnits="userSpaceOnUse">
<stop stop-color="#B6D5EC" stop-opacity="0"/>
<stop offset="0.1" stop-color="#B6D5EC" stop-opacity="0.03"/>
<stop offset="0.23" stop-color="#B6D5EC" stop-opacity="0.1"/>
<stop offset="0.38" stop-color="#B6D5EC" stop-opacity="0.22"/>
<stop offset="0.54" stop-color="#B6D5EC" stop-opacity="0.38"/>
<stop offset="0.72" stop-color="#B6D5EC" stop-opacity="0.59"/>
<stop offset="0.9" stop-color="#B6D5EC" stop-opacity="0.85"/>
<stop offset="1" stop-color="#B6D5EC"/>
</linearGradient>
<linearGradient id="paint61_linear_1159_1200" x1="1.45292" y1="89.5499" x2="1.45292" y2="-11.4837" gradientUnits="userSpaceOnUse">
<stop stop-color="#B6D5EC" stop-opacity="0"/>
<stop offset="0.1" stop-color="#B6D5EC" stop-opacity="0.03"/>
<stop offset="0.23" stop-color="#B6D5EC" stop-opacity="0.1"/>
<stop offset="0.38" stop-color="#B6D5EC" stop-opacity="0.22"/>
<stop offset="0.54" stop-color="#B6D5EC" stop-opacity="0.38"/>
<stop offset="0.72" stop-color="#B6D5EC" stop-opacity="0.59"/>
<stop offset="0.9" stop-color="#B6D5EC" stop-opacity="0.85"/>
<stop offset="1" stop-color="#B6D5EC"/>
</linearGradient>
<linearGradient id="paint62_linear_1159_1200" x1="1.45292" y1="89.5495" x2="1.45292" y2="-11.4841" gradientUnits="userSpaceOnUse">
<stop stop-color="#B6D5EC" stop-opacity="0"/>
<stop offset="0.1" stop-color="#B6D5EC" stop-opacity="0.03"/>
<stop offset="0.23" stop-color="#B6D5EC" stop-opacity="0.1"/>
<stop offset="0.38" stop-color="#B6D5EC" stop-opacity="0.22"/>
<stop offset="0.54" stop-color="#B6D5EC" stop-opacity="0.38"/>
<stop offset="0.72" stop-color="#B6D5EC" stop-opacity="0.59"/>
<stop offset="0.9" stop-color="#B6D5EC" stop-opacity="0.85"/>
<stop offset="1" stop-color="#B6D5EC"/>
</linearGradient>
<linearGradient id="paint63_linear_1159_1200" x1="1.45292" y1="89.5493" x2="1.45292" y2="-11.4842" gradientUnits="userSpaceOnUse">
<stop stop-color="#B6D5EC" stop-opacity="0"/>
<stop offset="0.1" stop-color="#B6D5EC" stop-opacity="0.03"/>
<stop offset="0.23" stop-color="#B6D5EC" stop-opacity="0.1"/>
<stop offset="0.38" stop-color="#B6D5EC" stop-opacity="0.22"/>
<stop offset="0.54" stop-color="#B6D5EC" stop-opacity="0.38"/>
<stop offset="0.72" stop-color="#B6D5EC" stop-opacity="0.59"/>
<stop offset="0.9" stop-color="#B6D5EC" stop-opacity="0.85"/>
<stop offset="1" stop-color="#B6D5EC"/>
</linearGradient>
<linearGradient id="paint64_linear_1159_1200" x1="1.45292" y1="89.5491" x2="1.45292" y2="-11.4845" gradientUnits="userSpaceOnUse">
<stop stop-color="#B6D5EC" stop-opacity="0"/>
<stop offset="0.1" stop-color="#B6D5EC" stop-opacity="0.03"/>
<stop offset="0.23" stop-color="#B6D5EC" stop-opacity="0.1"/>
<stop offset="0.38" stop-color="#B6D5EC" stop-opacity="0.22"/>
<stop offset="0.54" stop-color="#B6D5EC" stop-opacity="0.38"/>
<stop offset="0.72" stop-color="#B6D5EC" stop-opacity="0.59"/>
<stop offset="0.9" stop-color="#B6D5EC" stop-opacity="0.85"/>
<stop offset="1" stop-color="#B6D5EC"/>
</linearGradient>
<linearGradient id="paint65_linear_1159_1200" x1="1.45292" y1="89.5507" x2="1.45292" y2="-11.4829" gradientUnits="userSpaceOnUse">
<stop stop-color="#B6D5EC" stop-opacity="0"/>
<stop offset="0.1" stop-color="#B6D5EC" stop-opacity="0.03"/>
<stop offset="0.23" stop-color="#B6D5EC" stop-opacity="0.1"/>
<stop offset="0.38" stop-color="#B6D5EC" stop-opacity="0.22"/>
<stop offset="0.54" stop-color="#B6D5EC" stop-opacity="0.38"/>
<stop offset="0.72" stop-color="#B6D5EC" stop-opacity="0.59"/>
<stop offset="0.9" stop-color="#B6D5EC" stop-opacity="0.85"/>
<stop offset="1" stop-color="#B6D5EC"/>
</linearGradient>
<linearGradient id="paint66_linear_1159_1200" x1="1.45292" y1="89.5505" x2="1.45292" y2="-11.4831" gradientUnits="userSpaceOnUse">
<stop stop-color="#B6D5EC" stop-opacity="0"/>
<stop offset="0.1" stop-color="#B6D5EC" stop-opacity="0.03"/>
<stop offset="0.23" stop-color="#B6D5EC" stop-opacity="0.1"/>
<stop offset="0.38" stop-color="#B6D5EC" stop-opacity="0.22"/>
<stop offset="0.54" stop-color="#B6D5EC" stop-opacity="0.38"/>
<stop offset="0.72" stop-color="#B6D5EC" stop-opacity="0.59"/>
<stop offset="0.9" stop-color="#B6D5EC" stop-opacity="0.85"/>
<stop offset="1" stop-color="#B6D5EC"/>
</linearGradient>
<linearGradient id="paint67_linear_1159_1200" x1="1.45292" y1="89.5501" x2="1.45292" y2="-11.4835" gradientUnits="userSpaceOnUse">
<stop stop-color="#B6D5EC" stop-opacity="0"/>
<stop offset="0.1" stop-color="#B6D5EC" stop-opacity="0.03"/>
<stop offset="0.23" stop-color="#B6D5EC" stop-opacity="0.1"/>
<stop offset="0.38" stop-color="#B6D5EC" stop-opacity="0.22"/>
<stop offset="0.54" stop-color="#B6D5EC" stop-opacity="0.38"/>
<stop offset="0.72" stop-color="#B6D5EC" stop-opacity="0.59"/>
<stop offset="0.9" stop-color="#B6D5EC" stop-opacity="0.85"/>
<stop offset="1" stop-color="#B6D5EC"/>
</linearGradient>
<linearGradient id="paint68_linear_1159_1200" x1="1.45292" y1="89.5499" x2="1.45292" y2="-11.4837" gradientUnits="userSpaceOnUse">
<stop stop-color="#B6D5EC" stop-opacity="0"/>
<stop offset="0.1" stop-color="#B6D5EC" stop-opacity="0.03"/>
<stop offset="0.23" stop-color="#B6D5EC" stop-opacity="0.1"/>
<stop offset="0.38" stop-color="#B6D5EC" stop-opacity="0.22"/>
<stop offset="0.54" stop-color="#B6D5EC" stop-opacity="0.38"/>
<stop offset="0.72" stop-color="#B6D5EC" stop-opacity="0.59"/>
<stop offset="0.9" stop-color="#B6D5EC" stop-opacity="0.85"/>
<stop offset="1" stop-color="#B6D5EC"/>
</linearGradient>
<linearGradient id="paint69_linear_1159_1200" x1="1.45292" y1="89.5497" x2="1.45292" y2="-11.4839" gradientUnits="userSpaceOnUse">
<stop stop-color="#B6D5EC" stop-opacity="0"/>
<stop offset="0.1" stop-color="#B6D5EC" stop-opacity="0.03"/>
<stop offset="0.23" stop-color="#B6D5EC" stop-opacity="0.1"/>
<stop offset="0.38" stop-color="#B6D5EC" stop-opacity="0.22"/>
<stop offset="0.54" stop-color="#B6D5EC" stop-opacity="0.38"/>
<stop offset="0.72" stop-color="#B6D5EC" stop-opacity="0.59"/>
<stop offset="0.9" stop-color="#B6D5EC" stop-opacity="0.85"/>
<stop offset="1" stop-color="#B6D5EC"/>
</linearGradient>
<linearGradient id="paint70_linear_1159_1200" x1="1.45292" y1="89.5493" x2="1.45292" y2="-11.4843" gradientUnits="userSpaceOnUse">
<stop stop-color="#B6D5EC" stop-opacity="0"/>
<stop offset="0.1" stop-color="#B6D5EC" stop-opacity="0.03"/>
<stop offset="0.23" stop-color="#B6D5EC" stop-opacity="0.1"/>
<stop offset="0.38" stop-color="#B6D5EC" stop-opacity="0.22"/>
<stop offset="0.54" stop-color="#B6D5EC" stop-opacity="0.38"/>
<stop offset="0.72" stop-color="#B6D5EC" stop-opacity="0.59"/>
<stop offset="0.9" stop-color="#B6D5EC" stop-opacity="0.85"/>
<stop offset="1" stop-color="#B6D5EC"/>
</linearGradient>
<linearGradient id="paint71_linear_1159_1200" x1="1.45292" y1="89.5491" x2="1.45292" y2="-11.4844" gradientUnits="userSpaceOnUse">
<stop stop-color="#B6D5EC" stop-opacity="0"/>
<stop offset="0.1" stop-color="#B6D5EC" stop-opacity="0.03"/>
<stop offset="0.23" stop-color="#B6D5EC" stop-opacity="0.1"/>
<stop offset="0.38" stop-color="#B6D5EC" stop-opacity="0.22"/>
<stop offset="0.54" stop-color="#B6D5EC" stop-opacity="0.38"/>
<stop offset="0.72" stop-color="#B6D5EC" stop-opacity="0.59"/>
<stop offset="0.9" stop-color="#B6D5EC" stop-opacity="0.85"/>
<stop offset="1" stop-color="#B6D5EC"/>
</linearGradient>
<linearGradient id="paint72_linear_1159_1200" x1="1.45292" y1="89.5507" x2="1.45292" y2="-11.4829" gradientUnits="userSpaceOnUse">
<stop stop-color="#B6D5EC" stop-opacity="0"/>
<stop offset="0.1" stop-color="#B6D5EC" stop-opacity="0.03"/>
<stop offset="0.23" stop-color="#B6D5EC" stop-opacity="0.1"/>
<stop offset="0.38" stop-color="#B6D5EC" stop-opacity="0.22"/>
<stop offset="0.54" stop-color="#B6D5EC" stop-opacity="0.38"/>
<stop offset="0.72" stop-color="#B6D5EC" stop-opacity="0.59"/>
<stop offset="0.9" stop-color="#B6D5EC" stop-opacity="0.85"/>
<stop offset="1" stop-color="#B6D5EC"/>
</linearGradient>
<linearGradient id="paint73_linear_1159_1200" x1="1.45292" y1="89.5505" x2="1.45292" y2="-11.4831" gradientUnits="userSpaceOnUse">
<stop stop-color="#B6D5EC" stop-opacity="0"/>
<stop offset="0.1" stop-color="#B6D5EC" stop-opacity="0.03"/>
<stop offset="0.23" stop-color="#B6D5EC" stop-opacity="0.1"/>
<stop offset="0.38" stop-color="#B6D5EC" stop-opacity="0.22"/>
<stop offset="0.54" stop-color="#B6D5EC" stop-opacity="0.38"/>
<stop offset="0.72" stop-color="#B6D5EC" stop-opacity="0.59"/>
<stop offset="0.9" stop-color="#B6D5EC" stop-opacity="0.85"/>
<stop offset="1" stop-color="#B6D5EC"/>
</linearGradient>
<linearGradient id="paint74_linear_1159_1200" x1="1.45292" y1="89.5501" x2="1.45292" y2="-11.4835" gradientUnits="userSpaceOnUse">
<stop stop-color="#B6D5EC" stop-opacity="0"/>
<stop offset="0.1" stop-color="#B6D5EC" stop-opacity="0.03"/>
<stop offset="0.23" stop-color="#B6D5EC" stop-opacity="0.1"/>
<stop offset="0.38" stop-color="#B6D5EC" stop-opacity="0.22"/>
<stop offset="0.54" stop-color="#B6D5EC" stop-opacity="0.38"/>
<stop offset="0.72" stop-color="#B6D5EC" stop-opacity="0.59"/>
<stop offset="0.9" stop-color="#B6D5EC" stop-opacity="0.85"/>
<stop offset="1" stop-color="#B6D5EC"/>
</linearGradient>
<linearGradient id="paint75_linear_1159_1200" x1="1.45292" y1="89.5499" x2="1.45292" y2="-11.4837" gradientUnits="userSpaceOnUse">
<stop stop-color="#B6D5EC" stop-opacity="0"/>
<stop offset="0.1" stop-color="#B6D5EC" stop-opacity="0.03"/>
<stop offset="0.23" stop-color="#B6D5EC" stop-opacity="0.1"/>
<stop offset="0.38" stop-color="#B6D5EC" stop-opacity="0.22"/>
<stop offset="0.54" stop-color="#B6D5EC" stop-opacity="0.38"/>
<stop offset="0.72" stop-color="#B6D5EC" stop-opacity="0.59"/>
<stop offset="0.9" stop-color="#B6D5EC" stop-opacity="0.85"/>
<stop offset="1" stop-color="#B6D5EC"/>
</linearGradient>
</defs>
</svg>
