<svg width="366" height="172" viewBox="0 0 366 172" fill="none" xmlns="http://www.w3.org/2000/svg">
<mask id="mask0_1159_1090" style="mask-type:luminance" maskUnits="userSpaceOnUse" x="0" y="0" width="366" height="172">
<path d="M0 172L366 172V1.52588e-05L0 1.52588e-05V172Z" fill="white"/>
</mask>
<g mask="url(#mask0_1159_1090)">
<path d="M275.149 79.8809C298.249 79.8809 309.989 83.4809 321.349 86.9709C332.469 90.3809 343.969 93.9209 366.579 93.9209V97.2209C343.479 97.2209 331.739 93.6209 320.379 90.1309C309.259 86.7209 297.759 83.1809 275.149 83.1809C252.539 83.1809 241.039 86.7109 229.919 90.1309C218.569 93.6209 206.829 97.2209 183.719 97.2209V93.9209C206.329 93.9209 217.829 90.3909 228.949 86.9709C240.299 83.4809 252.039 79.8809 275.149 79.8809Z" fill="url(#paint0_linear_1159_1090)"/>
<path d="M275.148 86.3594C298.238 86.3594 309.969 89.9594 321.319 93.4494C332.449 96.8694 343.949 100.399 366.569 100.399V103.519C343.479 103.519 331.748 99.9194 320.398 96.4294C309.268 93.0094 297.768 89.4794 275.148 89.4794C252.528 89.4794 241.018 93.0094 229.898 96.4294C218.548 99.9094 206.819 103.519 183.729 103.519V100.399C206.349 100.399 217.859 96.8694 228.979 93.4494C240.329 89.9694 252.058 86.3594 275.148 86.3594Z" fill="url(#paint1_linear_1159_1090)"/>
<path d="M275.148 92.8301C298.228 92.8301 309.949 96.4301 321.289 99.9101C332.419 103.33 343.929 106.86 366.569 106.86V109.8C343.489 109.8 331.768 106.2 320.428 102.72C309.298 99.3001 297.788 95.7701 275.148 95.7701C252.508 95.7701 240.998 99.3101 229.868 102.72C218.528 106.2 206.799 109.8 183.729 109.8V106.86C206.369 106.86 217.879 103.32 229.009 99.9101C240.349 96.4301 252.078 92.8301 275.148 92.8301Z" fill="url(#paint2_linear_1159_1090)"/>
<path d="M275.149 99.3105C298.209 99.3105 309.929 102.911 321.269 106.391C332.409 109.811 343.929 113.351 366.579 113.351V116.101C343.519 116.101 331.799 112.501 320.459 109.021C309.319 105.601 297.799 102.061 275.149 102.061C252.499 102.061 240.979 105.601 229.839 109.021C218.509 112.501 206.789 116.101 183.719 116.101V113.351C206.369 113.351 217.889 109.811 229.029 106.391C240.359 102.911 252.079 99.3105 275.149 99.3105Z" fill="url(#paint3_linear_1159_1090)"/>
<path d="M275.148 105.789C298.198 105.789 309.908 109.389 321.238 112.869C332.388 116.289 343.909 119.829 366.569 119.829V122.399C343.519 122.399 331.809 118.799 320.479 115.319C309.329 111.899 297.808 108.359 275.148 108.359C252.488 108.359 240.959 111.899 229.819 115.319C218.489 118.799 206.779 122.399 183.729 122.399V119.829C206.389 119.829 217.919 116.289 229.069 112.869C240.399 109.389 252.109 105.789 275.159 105.789H275.148Z" fill="url(#paint4_linear_1159_1090)"/>
<path d="M275.148 112.26C298.188 112.26 309.888 115.85 321.208 119.33C332.358 122.75 343.889 126.3 366.569 126.3V128.69C343.529 128.69 331.829 125.1 320.509 121.62C309.359 118.2 297.828 114.65 275.148 114.65C252.468 114.65 240.939 118.19 229.789 121.62C218.469 125.1 206.759 128.69 183.729 128.69V126.3C206.409 126.3 217.939 122.76 229.089 119.33C240.409 115.85 252.118 112.26 275.148 112.26Z" fill="url(#paint5_linear_1159_1090)"/>
<path d="M275.149 118.74C298.169 118.74 309.869 122.33 321.179 125.81C332.339 129.24 343.879 132.78 366.569 132.78V134.98C343.549 134.98 331.849 131.39 320.539 127.91C309.379 124.48 297.839 120.94 275.149 120.94C252.459 120.94 240.919 124.48 229.759 127.91C218.449 131.39 206.749 134.98 183.719 134.98V132.78C206.409 132.78 217.949 129.24 229.109 125.81C240.419 122.33 252.119 118.74 275.139 118.74H275.149Z" fill="url(#paint6_linear_1159_1090)"/>
<path d="M275.148 125.221C298.158 125.221 309.849 128.811 321.159 132.281C332.329 135.711 343.869 139.251 366.569 139.251V141.271C343.559 141.271 331.869 137.681 320.559 134.211C309.389 130.781 297.848 127.241 275.148 127.241C252.448 127.241 240.898 130.791 229.738 134.211C218.428 137.681 206.739 141.271 183.729 141.271V139.251C206.429 139.251 217.978 135.701 229.148 132.281C240.458 128.811 252.149 125.221 275.159 125.221H275.148Z" fill="url(#paint7_linear_1159_1090)"/>
<path d="M275.148 131.689C298.138 131.689 309.829 135.279 321.129 138.749C332.299 142.179 343.849 145.729 366.569 145.729V147.569C343.579 147.569 331.889 143.979 320.589 140.509C309.419 137.079 297.868 133.529 275.148 133.529C252.428 133.529 240.878 137.079 229.708 140.509C218.408 143.979 206.719 147.569 183.729 147.569V145.729C206.449 145.729 217.999 142.179 229.169 138.749C240.469 135.279 252.158 131.689 275.148 131.689Z" fill="url(#paint8_linear_1159_1090)"/>
<path d="M275.149 138.17C298.129 138.17 309.809 141.76 321.099 145.22C332.279 148.65 343.839 152.2 366.569 152.2V153.86C343.589 153.86 331.909 150.27 320.619 146.81C309.439 143.38 297.879 139.83 275.149 139.83C252.419 139.83 240.859 143.38 229.679 146.81C218.389 150.28 206.709 153.86 183.719 153.86V152.2C206.449 152.2 218.009 148.65 229.189 145.22C240.479 141.75 252.159 138.17 275.139 138.17H275.149Z" fill="url(#paint9_linear_1159_1090)"/>
<path d="M275.149 144.65C298.119 144.65 309.789 148.23 321.079 151.7C332.259 155.13 343.829 158.69 366.579 158.69V160.16C343.609 160.16 331.939 156.58 320.649 153.11C309.469 149.68 297.899 146.12 275.149 146.12C252.399 146.12 240.839 149.67 229.649 153.11C218.359 156.58 206.689 160.16 183.719 160.16V158.69C206.469 158.69 218.029 155.14 229.219 151.7C240.509 148.23 252.179 144.65 275.149 144.65Z" fill="url(#paint10_linear_1159_1090)"/>
<path d="M275.148 151.119C298.098 151.119 309.768 154.699 321.048 158.169C332.238 161.609 343.809 165.159 366.569 165.159V166.449C343.619 166.449 331.949 162.869 320.669 159.399C309.479 155.959 297.908 152.409 275.148 152.409C252.388 152.409 240.819 155.959 229.629 159.399C218.349 162.859 206.679 166.449 183.729 166.449V165.159C206.489 165.159 218.059 161.609 229.249 158.169C240.529 154.709 252.198 151.119 275.148 151.119Z" fill="url(#paint11_linear_1159_1090)"/>
<path d="M275.148 157.6C298.088 157.6 309.748 161.18 321.018 164.64C332.218 168.08 343.799 171.63 366.569 171.63V172.74C343.629 172.74 331.969 169.16 320.699 165.7C309.499 162.26 297.918 158.71 275.148 158.71C252.378 158.71 240.799 162.27 229.599 165.7C218.319 169.16 206.659 172.74 183.729 172.74V171.63C206.499 171.63 218.079 168.07 229.279 164.64C240.559 161.18 252.218 157.6 275.148 157.6Z" fill="url(#paint12_linear_1159_1090)"/>
<path d="M275.149 164.08C298.069 164.08 309.729 167.66 320.999 171.12C332.199 174.56 343.789 178.12 366.579 178.12V179.05C343.649 179.05 331.999 175.47 320.729 172.01C309.529 168.57 297.939 165.01 275.149 165.01C252.359 165.01 240.779 168.57 229.569 172.01C218.299 175.47 206.649 179.05 183.719 179.05V178.12C206.509 178.12 218.089 174.56 229.299 171.12C240.569 167.66 252.219 164.08 275.149 164.08Z" fill="url(#paint13_linear_1159_1090)"/>
<path d="M275.148 170.551C298.058 170.551 309.709 174.131 320.969 177.591C332.179 181.031 343.769 184.591 366.569 184.591V185.331C343.659 185.331 332.009 181.751 320.749 178.291C309.539 174.851 297.948 171.291 275.148 171.291C252.348 171.291 240.758 174.851 229.548 178.291C218.288 181.751 206.639 185.331 183.729 185.331V184.591C206.529 184.591 218.118 181.031 229.328 177.591C240.588 174.131 252.238 170.561 275.148 170.561V170.551Z" fill="url(#paint14_linear_1159_1090)"/>
<path d="M-90.5407 79.8809C-67.4407 79.8809 -55.7007 83.4809 -44.3407 86.9709C-33.2207 90.3809 -21.7207 93.9209 0.889297 93.9209V97.2209C-22.2107 97.2209 -33.9507 93.6209 -45.3107 90.1309C-56.4307 86.7209 -67.9307 83.1809 -90.5407 83.1809C-113.151 83.1809 -124.651 86.7109 -135.771 90.1309C-147.121 93.6209 -158.861 97.2209 -181.971 97.2209V93.9209C-159.361 93.9209 -147.861 90.3909 -136.741 86.9709C-125.391 83.4809 -113.651 79.8809 -90.5407 79.8809Z" fill="url(#paint15_linear_1159_1090)"/>
<path d="M-90.5409 86.3594C-67.4509 86.3594 -55.7209 89.9594 -44.3709 93.4494C-33.2409 96.8694 -21.7409 100.399 0.879074 100.399V103.519C-22.2109 103.519 -33.9409 99.9194 -45.2909 96.4294C-56.4209 93.0094 -67.9209 89.4794 -90.5409 89.4794C-113.161 89.4794 -124.671 93.0094 -135.791 96.4294C-147.141 99.9094 -158.871 103.519 -181.961 103.519V100.399C-159.341 100.399 -147.831 96.8694 -136.711 93.4494C-125.361 89.9694 -113.631 86.3594 -90.5409 86.3594Z" fill="url(#paint16_linear_1159_1090)"/>
<path d="M-90.5409 92.8301C-67.4609 92.8301 -55.7409 96.4301 -44.4009 99.9101C-33.2709 103.33 -21.7609 106.86 0.879074 106.86V109.8C-22.2009 109.8 -33.9209 106.2 -45.2609 102.72C-56.3909 99.3001 -67.9009 95.7701 -90.5409 95.7701C-113.181 95.7701 -124.691 99.3101 -135.821 102.72C-147.161 106.2 -158.891 109.8 -181.961 109.8V106.86C-159.321 106.86 -147.811 103.32 -136.681 99.9101C-125.341 96.4301 -113.611 92.8301 -90.5409 92.8301Z" fill="url(#paint17_linear_1159_1090)"/>
<path d="M-90.5407 99.3105C-67.4807 99.3105 -55.7607 102.911 -44.4207 106.391C-33.2807 109.811 -21.7607 113.351 0.889297 113.351V116.101C-22.1707 116.101 -33.8907 112.501 -45.2307 109.021C-56.3707 105.601 -67.8907 102.061 -90.5407 102.061C-113.191 102.061 -124.711 105.601 -135.851 109.021C-147.181 112.501 -158.901 116.101 -181.971 116.101V113.351C-159.321 113.351 -147.801 109.811 -136.661 106.391C-125.331 102.911 -113.611 99.3105 -90.5407 99.3105Z" fill="url(#paint18_linear_1159_1090)"/>
<path d="M-90.5409 105.789C-67.4909 105.789 -55.7809 109.389 -44.4509 112.869C-33.3009 116.289 -21.7809 119.829 0.879074 119.829V122.399C-22.1709 122.399 -33.8809 118.799 -45.2109 115.319C-56.3609 111.899 -67.8809 108.359 -90.5409 108.359C-113.201 108.359 -124.731 111.899 -135.871 115.319C-147.201 118.799 -158.911 122.399 -181.961 122.399V119.829C-159.301 119.829 -147.771 116.289 -136.631 112.869C-125.301 109.389 -113.591 105.789 -90.5409 105.789Z" fill="url(#paint19_linear_1159_1090)"/>
<path d="M-90.5409 112.26C-67.5009 112.26 -55.8009 115.85 -44.4809 119.33C-33.3309 122.75 -21.8009 126.3 0.879074 126.3V128.69C-22.1609 128.69 -33.8609 125.1 -45.1809 121.62C-56.3309 118.2 -67.8609 114.65 -90.5409 114.65C-113.221 114.65 -124.751 118.19 -135.901 121.62C-147.221 125.1 -158.931 128.69 -181.961 128.69V126.3C-159.281 126.3 -147.751 122.76 -136.601 119.33C-125.281 115.85 -113.571 112.26 -90.5409 112.26Z" fill="url(#paint20_linear_1159_1090)"/>
<path d="M-90.5409 118.74C-67.5209 118.74 -55.8209 122.33 -44.5109 125.81C-33.3509 129.24 -21.8109 132.78 0.879074 132.78V134.98C-22.1409 134.98 -33.8409 131.39 -45.1509 127.91C-56.3109 124.48 -67.8509 120.94 -90.5409 120.94C-113.231 120.94 -124.771 124.48 -135.931 127.91C-147.241 131.39 -158.941 134.98 -181.961 134.98V132.78C-159.271 132.78 -147.731 129.24 -136.571 125.81C-125.261 122.33 -113.561 118.74 -90.5409 118.74Z" fill="url(#paint21_linear_1159_1090)"/>
<path d="M-90.5409 125.221C-67.5309 125.221 -55.8409 128.811 -44.5309 132.281C-33.3609 135.711 -21.8209 139.251 0.879074 139.251V141.271C-22.1309 141.271 -33.8209 137.681 -45.1309 134.211C-56.3009 130.781 -67.8409 127.241 -90.5409 127.241C-113.241 127.241 -124.791 130.791 -135.951 134.211C-147.261 137.681 -158.951 141.271 -181.961 141.271V139.251C-159.261 139.251 -147.711 135.701 -136.551 132.281C-125.241 128.811 -113.551 125.221 -90.5409 125.221Z" fill="url(#paint22_linear_1159_1090)"/>
<path d="M-90.5409 131.689C-67.5509 131.689 -55.8609 135.279 -44.5609 138.749C-33.3909 142.179 -21.8409 145.729 0.879074 145.729V147.569C-22.1109 147.569 -33.8009 143.979 -45.1009 140.509C-56.2709 137.079 -67.8209 133.529 -90.5409 133.529C-113.261 133.529 -124.811 137.079 -135.981 140.509C-147.281 143.979 -158.971 147.569 -181.961 147.569V145.729C-159.241 145.729 -147.691 142.179 -136.521 138.749C-125.221 135.279 -113.531 131.689 -90.5409 131.689Z" fill="url(#paint23_linear_1159_1090)"/>
<path d="M-90.5409 138.17C-67.5609 138.17 -55.8809 141.76 -44.5909 145.22C-33.4109 148.65 -21.8509 152.2 0.879074 152.2V153.86C-22.1009 153.86 -33.7809 150.27 -45.0709 146.81C-56.2509 143.38 -67.8109 139.83 -90.5409 139.83C-113.271 139.83 -124.831 143.38 -136.011 146.81C-147.301 150.28 -158.981 153.86 -181.961 153.86V152.2C-159.231 152.2 -147.671 148.65 -136.491 145.22C-125.201 141.75 -113.521 138.17 -90.5409 138.17Z" fill="url(#paint24_linear_1159_1090)"/>
<path d="M-90.5407 144.65C-67.5707 144.65 -55.9007 148.23 -44.6107 151.7C-33.4307 155.13 -21.8607 158.69 0.889297 158.69V160.16C-22.0807 160.16 -33.7507 156.58 -45.0407 153.11C-56.2207 149.68 -67.7907 146.12 -90.5407 146.12C-113.291 146.12 -124.851 149.67 -136.041 153.11C-147.331 156.58 -159.001 160.16 -181.971 160.16V158.69C-159.221 158.69 -147.661 155.14 -136.471 151.7C-125.181 148.23 -113.511 144.65 -90.5407 144.65Z" fill="url(#paint25_linear_1159_1090)"/>
<path d="M-90.5409 151.119C-67.5909 151.119 -55.9209 154.699 -44.6409 158.169C-33.4509 161.609 -21.8809 165.159 0.879074 165.159V166.449C-22.0709 166.449 -33.7409 162.869 -45.0209 159.399C-56.2109 155.959 -67.7809 152.409 -90.5409 152.409C-113.301 152.409 -124.871 155.959 -136.061 159.399C-147.341 162.859 -159.011 166.449 -181.961 166.449V165.159C-159.201 165.159 -147.631 161.609 -136.441 158.169C-125.161 154.709 -113.491 151.119 -90.5409 151.119Z" fill="url(#paint26_linear_1159_1090)"/>
<path d="M-90.5409 157.6C-67.6009 157.6 -55.9409 161.18 -44.6709 164.64C-33.4709 168.08 -21.8909 171.63 0.879074 171.63V172.74C-22.0609 172.74 -33.7209 169.16 -44.9909 165.7C-56.1909 162.26 -67.7709 158.71 -90.5409 158.71C-113.311 158.71 -124.891 162.27 -136.091 165.7C-147.371 169.16 -159.031 172.74 -181.961 172.74V171.63C-159.191 171.63 -147.611 168.07 -136.411 164.64C-125.131 161.18 -113.471 157.6 -90.5409 157.6Z" fill="url(#paint27_linear_1159_1090)"/>
<path d="M-90.5407 164.08C-67.6207 164.08 -55.9607 167.66 -44.6907 171.12C-33.4907 174.56 -21.9007 178.12 0.889297 178.12V179.05C-22.0407 179.05 -33.6907 175.47 -44.9607 172.01C-56.1607 168.57 -67.7507 165.01 -90.5407 165.01C-113.331 165.01 -124.911 168.57 -136.121 172.01C-147.391 175.47 -159.041 179.05 -181.971 179.05V178.12C-159.181 178.12 -147.601 174.56 -136.391 171.12C-125.121 167.66 -113.471 164.08 -90.5407 164.08Z" fill="url(#paint28_linear_1159_1090)"/>
<path d="M-90.5409 170.549C-67.6309 170.549 -55.9809 174.129 -44.7209 177.579C-33.5109 181.019 -21.9209 184.579 0.879074 184.579V185.319C-22.0309 185.319 -33.6809 181.739 -44.9409 178.279C-56.1509 174.839 -67.7409 171.279 -90.5409 171.279C-113.341 171.279 -124.931 174.839 -136.141 178.279C-147.401 181.739 -159.051 185.319 -181.961 185.319V184.579C-159.161 184.579 -147.571 181.019 -136.361 177.579C-125.101 174.119 -113.451 170.539 -90.5409 170.539V170.549Z" fill="url(#paint29_linear_1159_1090)"/>
<path d="M0.878906 93.1191C23.9789 93.1191 35.7189 96.7191 47.0789 100.209C58.1989 103.619 69.6989 107.159 92.3089 107.159C114.919 107.159 126.419 103.629 137.539 100.209C148.889 96.7191 160.629 93.1191 183.739 93.1191V96.4191C161.129 96.4191 149.629 99.9491 138.509 103.369C127.159 106.859 115.419 110.459 92.3089 110.459C69.2089 110.459 57.4689 106.859 46.1089 103.369C34.9889 99.9591 23.4889 96.4191 0.878906 96.4191V93.1191Z" fill="url(#paint30_linear_1159_1090)"/>
<path d="M0.878906 86.8203C23.9689 86.8203 35.6989 90.4203 47.0489 93.9103C58.1789 97.3303 69.6789 100.86 92.2989 100.86C114.919 100.86 126.429 97.3303 137.549 93.9103C148.899 90.4303 160.629 86.8203 183.719 86.8203V89.9403C161.099 89.9403 149.589 93.4703 138.469 96.8903C127.119 100.37 115.389 103.98 92.2989 103.98C69.2089 103.98 57.4789 100.38 46.1289 96.8903C34.9989 93.4703 23.4989 89.9403 0.878906 89.9403V86.8203Z" fill="url(#paint31_linear_1159_1090)"/>
<path d="M0.878906 80.5293C23.9589 80.5293 35.6789 84.1293 47.0189 87.6093C58.1489 91.0293 69.6589 94.5593 92.2989 94.5593C114.939 94.5593 126.449 91.0193 137.579 87.6093C148.919 84.1293 160.649 80.5293 183.719 80.5293V83.4693C161.079 83.4693 149.569 87.0093 138.439 90.4193C127.099 93.8993 115.369 97.4993 92.2989 97.4993C69.2189 97.4993 57.4989 93.8993 46.1589 90.4193C35.0289 86.9993 23.5189 83.4693 0.878906 83.4693V80.5293Z" fill="url(#paint32_linear_1159_1090)"/>
<path d="M0.878906 74.2305C23.9389 74.2305 35.6589 77.8305 46.9989 81.3105C58.1389 84.7305 69.6589 88.2705 92.3089 88.2705C114.959 88.2705 126.479 84.7305 137.619 81.3105C148.949 77.8305 160.669 74.2305 183.739 74.2305V76.9805C161.089 76.9805 149.569 80.5205 138.429 83.9405C127.099 87.4205 115.379 91.0205 92.3089 91.0205C69.2489 91.0205 57.5289 87.4205 46.1889 83.9405C35.0489 80.5205 23.5289 76.9805 0.878906 76.9805V74.2305Z" fill="url(#paint33_linear_1159_1090)"/>
<path d="M0.878906 67.9395C23.9289 67.9395 35.6389 71.5395 46.9689 75.0195C58.1189 78.4395 69.6389 81.9795 92.2989 81.9795C114.959 81.9795 126.489 78.4395 137.629 75.0195C148.959 71.5395 160.669 67.9395 183.719 67.9395V70.5095C161.059 70.5095 149.529 74.0495 138.389 77.4695C127.059 80.9495 115.349 84.5495 92.2989 84.5495C69.2489 84.5495 57.5389 80.9495 46.2089 77.4695C35.0589 74.0495 23.5389 70.5095 0.878906 70.5095V67.9395Z" fill="url(#paint34_linear_1159_1090)"/>
<path d="M0.878906 61.6504C23.9189 61.6504 35.6189 65.2404 46.9389 68.7204C58.0889 72.1404 69.6189 75.6904 92.2989 75.6904C114.979 75.6904 126.509 72.1504 137.659 68.7204C148.979 65.2404 160.689 61.6504 183.719 61.6504V64.0404C161.039 64.0404 149.509 67.5804 138.359 71.0104C127.039 74.4904 115.329 78.0804 92.2989 78.0804C69.2689 78.0804 57.5589 74.4904 46.2389 71.0104C35.0889 67.5904 23.5589 64.0404 0.878906 64.0404V61.6504Z" fill="url(#paint35_linear_1159_1090)"/>
<path d="M0.878906 55.3496C23.8989 55.3496 35.5989 58.9396 46.9089 62.4196C58.0689 65.8496 69.6089 69.3896 92.2989 69.3896C114.989 69.3896 126.529 65.8496 137.689 62.4196C148.999 58.9496 160.699 55.3496 183.719 55.3496V57.5496C161.029 57.5496 149.489 61.0896 138.329 64.5196C127.019 67.9896 115.319 71.5896 92.2989 71.5896C69.2789 71.5896 57.5789 67.9996 46.2689 64.5196C35.1089 61.0896 23.5689 57.5496 0.878906 57.5496V55.3496Z" fill="url(#paint36_linear_1159_1090)"/>
<path d="M0.878906 49.0605C23.8889 49.0605 35.5789 52.6505 46.8889 56.1205C58.0589 59.5505 69.5989 63.0905 92.2989 63.0905C114.999 63.0905 126.549 59.5405 137.709 56.1205C149.019 52.6505 160.709 49.0605 183.719 49.0605V51.0805C161.019 51.0805 149.469 54.6305 138.309 58.0505C126.999 61.5205 115.309 65.1105 92.2989 65.1105C69.2889 65.1105 57.5989 61.5205 46.2889 58.0505C35.1189 54.6205 23.5789 51.0805 0.878906 51.0805V49.0605Z" fill="url(#paint37_linear_1159_1090)"/>
<path d="M0.878906 42.7598C23.8689 42.7598 35.5589 46.3498 46.8589 49.8198C58.0289 53.2498 69.5789 56.7998 92.2989 56.7998C115.019 56.7998 126.569 53.2498 137.739 49.8198C149.039 46.3498 160.729 42.7598 183.719 42.7598V44.5998C160.999 44.5998 149.449 48.1498 138.279 51.5798C126.979 55.0498 115.289 58.6398 92.2989 58.6398C69.3089 58.6398 57.6189 55.0498 46.3189 51.5798C35.1489 48.1498 23.5989 44.5998 0.878906 44.5998V42.7598Z" fill="url(#paint38_linear_1159_1090)"/>
<path d="M0.878906 36.4707C23.8589 36.4707 35.5389 40.0607 46.8289 43.5207C58.0089 46.9507 69.5689 50.5007 92.2989 50.5007C115.029 50.5007 126.589 46.9507 137.769 43.5207C149.059 40.0507 160.739 36.4707 183.719 36.4707V38.1307C160.989 38.1307 149.429 41.6807 138.249 45.1107C126.959 48.5807 115.279 52.1607 92.2989 52.1607C69.3189 52.1607 57.6389 48.5707 46.3489 45.1107C35.1689 41.6807 23.6089 38.1307 0.878906 38.1307V36.4707Z" fill="url(#paint39_linear_1159_1090)"/>
<path d="M0.878906 30.1797C23.8489 30.1797 35.5189 33.7597 46.8089 37.2297C57.9889 40.6597 69.5589 44.2197 92.3089 44.2197C115.059 44.2197 126.619 40.6697 137.809 37.2297C149.099 33.7597 160.769 30.1797 183.739 30.1797V31.6497C160.989 31.6497 149.429 35.1997 138.239 38.6397C126.949 42.1097 115.279 45.6897 92.3089 45.6897C69.3389 45.6897 57.6689 42.1097 46.3789 38.6397C35.1989 35.2097 23.6289 31.6497 0.878906 31.6497V30.1797Z" fill="url(#paint40_linear_1159_1090)"/>
<path d="M0.878906 23.8809C23.8289 23.8809 35.4989 27.4609 46.7789 30.9309C57.9689 34.3709 69.5389 37.9209 92.2989 37.9209C115.059 37.9209 126.629 34.3709 137.819 30.9309C149.099 27.4709 160.769 23.8809 183.719 23.8809V25.1709C160.959 25.1709 149.389 28.7209 138.199 32.1609C126.919 35.6209 115.249 39.2109 92.2989 39.2109C69.3489 39.2109 57.6789 35.6309 46.3989 32.1609C35.2089 28.7209 23.6389 25.1709 0.878906 25.1709V23.8809Z" fill="url(#paint41_linear_1159_1090)"/>
<path d="M0.878906 17.5898C23.8189 17.5898 35.4789 21.1698 46.7489 24.6298C57.9489 28.0698 69.5289 31.6198 92.2989 31.6198C115.069 31.6198 126.649 28.0598 137.849 24.6298C149.129 21.1698 160.789 17.5898 183.719 17.5898V18.6998C160.949 18.6998 149.369 22.2598 138.169 25.6898C126.889 29.1498 115.229 32.7298 92.2989 32.7298C69.3589 32.7298 57.6989 29.1498 46.4289 25.6898C35.2289 22.2498 23.6489 18.6998 0.878906 18.6998V17.5898Z" fill="url(#paint42_linear_1159_1090)"/>
<path d="M0.878906 11.2891C23.8089 11.2891 35.4589 14.8691 46.7289 18.3291C57.9289 21.7691 69.5189 25.3291 92.3089 25.3291C115.099 25.3291 126.679 21.7691 137.889 18.3291C149.159 14.8691 160.809 11.2891 183.739 11.2891V12.2191C160.949 12.2191 149.369 15.7791 138.159 19.2191C126.889 22.6791 115.239 26.2591 92.3089 26.2591C69.3789 26.2591 57.7289 22.6791 46.4589 19.2191C35.2589 15.7791 23.6689 12.2191 0.878906 12.2191V11.2891Z" fill="url(#paint43_linear_1159_1090)"/>
<path d="M0.878906 5C23.7889 5 35.4389 8.58 46.6989 12.04C57.9089 15.48 69.4989 19.04 92.2989 19.04C115.099 19.04 126.689 15.48 137.899 12.04C149.169 8.58 160.819 5 183.729 5V5.74C160.929 5.74 149.339 9.3 138.129 12.74C126.869 16.2 115.219 19.78 92.3089 19.78C69.3989 19.78 57.7489 16.2 46.4889 12.74C35.2789 9.3 23.6889 5.74 0.888901 5.74V5H0.878906Z" fill="url(#paint44_linear_1159_1090)"/>
</g>
<defs>
<linearGradient id="paint0_linear_1159_1090" x1="275.149" y1="185.441" x2="275.149" y2="-5.46916" gradientUnits="userSpaceOnUse">
<stop stop-color="#B6D5EC" stop-opacity="0"/>
<stop offset="0.1" stop-color="#B6D5EC" stop-opacity="0.03"/>
<stop offset="0.23" stop-color="#B6D5EC" stop-opacity="0.1"/>
<stop offset="0.38" stop-color="#B6D5EC" stop-opacity="0.22"/>
<stop offset="0.54" stop-color="#B6D5EC" stop-opacity="0.38"/>
<stop offset="0.72" stop-color="#B6D5EC" stop-opacity="0.59"/>
<stop offset="0.9" stop-color="#B6D5EC" stop-opacity="0.85"/>
<stop offset="1" stop-color="#B6D5EC"/>
</linearGradient>
<linearGradient id="paint1_linear_1159_1090" x1="275.149" y1="185.439" x2="275.149" y2="-5.4706" gradientUnits="userSpaceOnUse">
<stop stop-color="#B6D5EC" stop-opacity="0"/>
<stop offset="0.1" stop-color="#B6D5EC" stop-opacity="0.03"/>
<stop offset="0.23" stop-color="#B6D5EC" stop-opacity="0.1"/>
<stop offset="0.38" stop-color="#B6D5EC" stop-opacity="0.22"/>
<stop offset="0.54" stop-color="#B6D5EC" stop-opacity="0.38"/>
<stop offset="0.72" stop-color="#B6D5EC" stop-opacity="0.59"/>
<stop offset="0.9" stop-color="#B6D5EC" stop-opacity="0.85"/>
<stop offset="1" stop-color="#B6D5EC"/>
</linearGradient>
<linearGradient id="paint2_linear_1159_1090" x1="275.149" y1="185.44" x2="275.149" y2="-5.46993" gradientUnits="userSpaceOnUse">
<stop stop-color="#B6D5EC" stop-opacity="0"/>
<stop offset="0.1" stop-color="#B6D5EC" stop-opacity="0.03"/>
<stop offset="0.23" stop-color="#B6D5EC" stop-opacity="0.1"/>
<stop offset="0.38" stop-color="#B6D5EC" stop-opacity="0.22"/>
<stop offset="0.54" stop-color="#B6D5EC" stop-opacity="0.38"/>
<stop offset="0.72" stop-color="#B6D5EC" stop-opacity="0.59"/>
<stop offset="0.9" stop-color="#B6D5EC" stop-opacity="0.85"/>
<stop offset="1" stop-color="#B6D5EC"/>
</linearGradient>
<linearGradient id="paint3_linear_1159_1090" x1="275.149" y1="185.441" x2="275.149" y2="-5.46946" gradientUnits="userSpaceOnUse">
<stop stop-color="#B6D5EC" stop-opacity="0"/>
<stop offset="0.1" stop-color="#B6D5EC" stop-opacity="0.03"/>
<stop offset="0.23" stop-color="#B6D5EC" stop-opacity="0.1"/>
<stop offset="0.38" stop-color="#B6D5EC" stop-opacity="0.22"/>
<stop offset="0.54" stop-color="#B6D5EC" stop-opacity="0.38"/>
<stop offset="0.72" stop-color="#B6D5EC" stop-opacity="0.59"/>
<stop offset="0.9" stop-color="#B6D5EC" stop-opacity="0.85"/>
<stop offset="1" stop-color="#B6D5EC"/>
</linearGradient>
<linearGradient id="paint4_linear_1159_1090" x1="275.149" y1="185.439" x2="275.149" y2="-5.47094" gradientUnits="userSpaceOnUse">
<stop stop-color="#B6D5EC" stop-opacity="0"/>
<stop offset="0.1" stop-color="#B6D5EC" stop-opacity="0.03"/>
<stop offset="0.23" stop-color="#B6D5EC" stop-opacity="0.1"/>
<stop offset="0.38" stop-color="#B6D5EC" stop-opacity="0.22"/>
<stop offset="0.54" stop-color="#B6D5EC" stop-opacity="0.38"/>
<stop offset="0.72" stop-color="#B6D5EC" stop-opacity="0.59"/>
<stop offset="0.9" stop-color="#B6D5EC" stop-opacity="0.85"/>
<stop offset="1" stop-color="#B6D5EC"/>
</linearGradient>
<linearGradient id="paint5_linear_1159_1090" x1="275.149" y1="185.44" x2="275.149" y2="-5.47024" gradientUnits="userSpaceOnUse">
<stop stop-color="#B6D5EC" stop-opacity="0"/>
<stop offset="0.1" stop-color="#B6D5EC" stop-opacity="0.03"/>
<stop offset="0.23" stop-color="#B6D5EC" stop-opacity="0.1"/>
<stop offset="0.38" stop-color="#B6D5EC" stop-opacity="0.22"/>
<stop offset="0.54" stop-color="#B6D5EC" stop-opacity="0.38"/>
<stop offset="0.72" stop-color="#B6D5EC" stop-opacity="0.59"/>
<stop offset="0.9" stop-color="#B6D5EC" stop-opacity="0.85"/>
<stop offset="1" stop-color="#B6D5EC"/>
</linearGradient>
<linearGradient id="paint6_linear_1159_1090" x1="275.149" y1="185.44" x2="275.149" y2="-5.46975" gradientUnits="userSpaceOnUse">
<stop stop-color="#B6D5EC" stop-opacity="0"/>
<stop offset="0.1" stop-color="#B6D5EC" stop-opacity="0.03"/>
<stop offset="0.23" stop-color="#B6D5EC" stop-opacity="0.1"/>
<stop offset="0.38" stop-color="#B6D5EC" stop-opacity="0.22"/>
<stop offset="0.54" stop-color="#B6D5EC" stop-opacity="0.38"/>
<stop offset="0.72" stop-color="#B6D5EC" stop-opacity="0.59"/>
<stop offset="0.9" stop-color="#B6D5EC" stop-opacity="0.85"/>
<stop offset="1" stop-color="#B6D5EC"/>
</linearGradient>
<linearGradient id="paint7_linear_1159_1090" x1="275.149" y1="185.441" x2="275.149" y2="-5.46932" gradientUnits="userSpaceOnUse">
<stop stop-color="#B6D5EC" stop-opacity="0"/>
<stop offset="0.1" stop-color="#B6D5EC" stop-opacity="0.03"/>
<stop offset="0.23" stop-color="#B6D5EC" stop-opacity="0.1"/>
<stop offset="0.38" stop-color="#B6D5EC" stop-opacity="0.22"/>
<stop offset="0.54" stop-color="#B6D5EC" stop-opacity="0.38"/>
<stop offset="0.72" stop-color="#B6D5EC" stop-opacity="0.59"/>
<stop offset="0.9" stop-color="#B6D5EC" stop-opacity="0.85"/>
<stop offset="1" stop-color="#B6D5EC"/>
</linearGradient>
<linearGradient id="paint8_linear_1159_1090" x1="275.149" y1="185.439" x2="275.149" y2="-5.4706" gradientUnits="userSpaceOnUse">
<stop stop-color="#B6D5EC" stop-opacity="0"/>
<stop offset="0.1" stop-color="#B6D5EC" stop-opacity="0.03"/>
<stop offset="0.23" stop-color="#B6D5EC" stop-opacity="0.1"/>
<stop offset="0.38" stop-color="#B6D5EC" stop-opacity="0.22"/>
<stop offset="0.54" stop-color="#B6D5EC" stop-opacity="0.38"/>
<stop offset="0.72" stop-color="#B6D5EC" stop-opacity="0.59"/>
<stop offset="0.9" stop-color="#B6D5EC" stop-opacity="0.85"/>
<stop offset="1" stop-color="#B6D5EC"/>
</linearGradient>
<linearGradient id="paint9_linear_1159_1090" x1="275.149" y1="185.44" x2="275.149" y2="-5.47011" gradientUnits="userSpaceOnUse">
<stop stop-color="#B6D5EC" stop-opacity="0"/>
<stop offset="0.1" stop-color="#B6D5EC" stop-opacity="0.03"/>
<stop offset="0.23" stop-color="#B6D5EC" stop-opacity="0.1"/>
<stop offset="0.38" stop-color="#B6D5EC" stop-opacity="0.22"/>
<stop offset="0.54" stop-color="#B6D5EC" stop-opacity="0.38"/>
<stop offset="0.72" stop-color="#B6D5EC" stop-opacity="0.59"/>
<stop offset="0.9" stop-color="#B6D5EC" stop-opacity="0.85"/>
<stop offset="1" stop-color="#B6D5EC"/>
</linearGradient>
<linearGradient id="paint10_linear_1159_1090" x1="275.149" y1="185.44" x2="275.149" y2="-5.4697" gradientUnits="userSpaceOnUse">
<stop stop-color="#B6D5EC" stop-opacity="0"/>
<stop offset="0.1" stop-color="#B6D5EC" stop-opacity="0.03"/>
<stop offset="0.23" stop-color="#B6D5EC" stop-opacity="0.1"/>
<stop offset="0.38" stop-color="#B6D5EC" stop-opacity="0.22"/>
<stop offset="0.54" stop-color="#B6D5EC" stop-opacity="0.38"/>
<stop offset="0.72" stop-color="#B6D5EC" stop-opacity="0.59"/>
<stop offset="0.9" stop-color="#B6D5EC" stop-opacity="0.85"/>
<stop offset="1" stop-color="#B6D5EC"/>
</linearGradient>
<linearGradient id="paint11_linear_1159_1090" x1="275.149" y1="185.439" x2="275.149" y2="-5.47088" gradientUnits="userSpaceOnUse">
<stop stop-color="#B6D5EC" stop-opacity="0"/>
<stop offset="0.1" stop-color="#B6D5EC" stop-opacity="0.03"/>
<stop offset="0.23" stop-color="#B6D5EC" stop-opacity="0.1"/>
<stop offset="0.38" stop-color="#B6D5EC" stop-opacity="0.22"/>
<stop offset="0.54" stop-color="#B6D5EC" stop-opacity="0.38"/>
<stop offset="0.72" stop-color="#B6D5EC" stop-opacity="0.59"/>
<stop offset="0.9" stop-color="#B6D5EC" stop-opacity="0.85"/>
<stop offset="1" stop-color="#B6D5EC"/>
</linearGradient>
<linearGradient id="paint12_linear_1159_1090" x1="275.149" y1="185.44" x2="275.149" y2="-5.47039" gradientUnits="userSpaceOnUse">
<stop stop-color="#B6D5EC" stop-opacity="0"/>
<stop offset="0.1" stop-color="#B6D5EC" stop-opacity="0.03"/>
<stop offset="0.23" stop-color="#B6D5EC" stop-opacity="0.1"/>
<stop offset="0.38" stop-color="#B6D5EC" stop-opacity="0.22"/>
<stop offset="0.54" stop-color="#B6D5EC" stop-opacity="0.38"/>
<stop offset="0.72" stop-color="#B6D5EC" stop-opacity="0.59"/>
<stop offset="0.9" stop-color="#B6D5EC" stop-opacity="0.85"/>
<stop offset="1" stop-color="#B6D5EC"/>
</linearGradient>
<linearGradient id="paint13_linear_1159_1090" x1="275.149" y1="185.44" x2="275.149" y2="-5.46994" gradientUnits="userSpaceOnUse">
<stop stop-color="#B6D5EC" stop-opacity="0"/>
<stop offset="0.1" stop-color="#B6D5EC" stop-opacity="0.03"/>
<stop offset="0.23" stop-color="#B6D5EC" stop-opacity="0.1"/>
<stop offset="0.38" stop-color="#B6D5EC" stop-opacity="0.22"/>
<stop offset="0.54" stop-color="#B6D5EC" stop-opacity="0.38"/>
<stop offset="0.72" stop-color="#B6D5EC" stop-opacity="0.59"/>
<stop offset="0.9" stop-color="#B6D5EC" stop-opacity="0.85"/>
<stop offset="1" stop-color="#B6D5EC"/>
</linearGradient>
<linearGradient id="paint14_linear_1159_1090" x1="275.149" y1="185.441" x2="275.149" y2="-5.46921" gradientUnits="userSpaceOnUse">
<stop stop-color="#B6D5EC" stop-opacity="0"/>
<stop offset="0.1" stop-color="#B6D5EC" stop-opacity="0.03"/>
<stop offset="0.23" stop-color="#B6D5EC" stop-opacity="0.1"/>
<stop offset="0.38" stop-color="#B6D5EC" stop-opacity="0.22"/>
<stop offset="0.54" stop-color="#B6D5EC" stop-opacity="0.38"/>
<stop offset="0.72" stop-color="#B6D5EC" stop-opacity="0.59"/>
<stop offset="0.9" stop-color="#B6D5EC" stop-opacity="0.85"/>
<stop offset="1" stop-color="#B6D5EC"/>
</linearGradient>
<linearGradient id="paint15_linear_1159_1090" x1="-90.5407" y1="185.441" x2="-90.5407" y2="-5.46916" gradientUnits="userSpaceOnUse">
<stop stop-color="#B6D5EC" stop-opacity="0"/>
<stop offset="0.1" stop-color="#B6D5EC" stop-opacity="0.03"/>
<stop offset="0.23" stop-color="#B6D5EC" stop-opacity="0.1"/>
<stop offset="0.38" stop-color="#B6D5EC" stop-opacity="0.22"/>
<stop offset="0.54" stop-color="#B6D5EC" stop-opacity="0.38"/>
<stop offset="0.72" stop-color="#B6D5EC" stop-opacity="0.59"/>
<stop offset="0.9" stop-color="#B6D5EC" stop-opacity="0.85"/>
<stop offset="1" stop-color="#B6D5EC"/>
</linearGradient>
<linearGradient id="paint16_linear_1159_1090" x1="-90.5409" y1="185.439" x2="-90.5409" y2="-5.4706" gradientUnits="userSpaceOnUse">
<stop stop-color="#B6D5EC" stop-opacity="0"/>
<stop offset="0.1" stop-color="#B6D5EC" stop-opacity="0.03"/>
<stop offset="0.23" stop-color="#B6D5EC" stop-opacity="0.1"/>
<stop offset="0.38" stop-color="#B6D5EC" stop-opacity="0.22"/>
<stop offset="0.54" stop-color="#B6D5EC" stop-opacity="0.38"/>
<stop offset="0.72" stop-color="#B6D5EC" stop-opacity="0.59"/>
<stop offset="0.9" stop-color="#B6D5EC" stop-opacity="0.85"/>
<stop offset="1" stop-color="#B6D5EC"/>
</linearGradient>
<linearGradient id="paint17_linear_1159_1090" x1="-90.5409" y1="185.44" x2="-90.5409" y2="-5.46993" gradientUnits="userSpaceOnUse">
<stop stop-color="#B6D5EC" stop-opacity="0"/>
<stop offset="0.1" stop-color="#B6D5EC" stop-opacity="0.03"/>
<stop offset="0.23" stop-color="#B6D5EC" stop-opacity="0.1"/>
<stop offset="0.38" stop-color="#B6D5EC" stop-opacity="0.22"/>
<stop offset="0.54" stop-color="#B6D5EC" stop-opacity="0.38"/>
<stop offset="0.72" stop-color="#B6D5EC" stop-opacity="0.59"/>
<stop offset="0.9" stop-color="#B6D5EC" stop-opacity="0.85"/>
<stop offset="1" stop-color="#B6D5EC"/>
</linearGradient>
<linearGradient id="paint18_linear_1159_1090" x1="-90.5407" y1="185.441" x2="-90.5407" y2="-5.46946" gradientUnits="userSpaceOnUse">
<stop stop-color="#B6D5EC" stop-opacity="0"/>
<stop offset="0.1" stop-color="#B6D5EC" stop-opacity="0.03"/>
<stop offset="0.23" stop-color="#B6D5EC" stop-opacity="0.1"/>
<stop offset="0.38" stop-color="#B6D5EC" stop-opacity="0.22"/>
<stop offset="0.54" stop-color="#B6D5EC" stop-opacity="0.38"/>
<stop offset="0.72" stop-color="#B6D5EC" stop-opacity="0.59"/>
<stop offset="0.9" stop-color="#B6D5EC" stop-opacity="0.85"/>
<stop offset="1" stop-color="#B6D5EC"/>
</linearGradient>
<linearGradient id="paint19_linear_1159_1090" x1="-90.5409" y1="185.439" x2="-90.5409" y2="-5.47094" gradientUnits="userSpaceOnUse">
<stop stop-color="#B6D5EC" stop-opacity="0"/>
<stop offset="0.1" stop-color="#B6D5EC" stop-opacity="0.03"/>
<stop offset="0.23" stop-color="#B6D5EC" stop-opacity="0.1"/>
<stop offset="0.38" stop-color="#B6D5EC" stop-opacity="0.22"/>
<stop offset="0.54" stop-color="#B6D5EC" stop-opacity="0.38"/>
<stop offset="0.72" stop-color="#B6D5EC" stop-opacity="0.59"/>
<stop offset="0.9" stop-color="#B6D5EC" stop-opacity="0.85"/>
<stop offset="1" stop-color="#B6D5EC"/>
</linearGradient>
<linearGradient id="paint20_linear_1159_1090" x1="-90.5409" y1="185.44" x2="-90.5409" y2="-5.47024" gradientUnits="userSpaceOnUse">
<stop stop-color="#B6D5EC" stop-opacity="0"/>
<stop offset="0.1" stop-color="#B6D5EC" stop-opacity="0.03"/>
<stop offset="0.23" stop-color="#B6D5EC" stop-opacity="0.1"/>
<stop offset="0.38" stop-color="#B6D5EC" stop-opacity="0.22"/>
<stop offset="0.54" stop-color="#B6D5EC" stop-opacity="0.38"/>
<stop offset="0.72" stop-color="#B6D5EC" stop-opacity="0.59"/>
<stop offset="0.9" stop-color="#B6D5EC" stop-opacity="0.85"/>
<stop offset="1" stop-color="#B6D5EC"/>
</linearGradient>
<linearGradient id="paint21_linear_1159_1090" x1="-90.5409" y1="185.44" x2="-90.5409" y2="-5.46975" gradientUnits="userSpaceOnUse">
<stop stop-color="#B6D5EC" stop-opacity="0"/>
<stop offset="0.1" stop-color="#B6D5EC" stop-opacity="0.03"/>
<stop offset="0.23" stop-color="#B6D5EC" stop-opacity="0.1"/>
<stop offset="0.38" stop-color="#B6D5EC" stop-opacity="0.22"/>
<stop offset="0.54" stop-color="#B6D5EC" stop-opacity="0.38"/>
<stop offset="0.72" stop-color="#B6D5EC" stop-opacity="0.59"/>
<stop offset="0.9" stop-color="#B6D5EC" stop-opacity="0.85"/>
<stop offset="1" stop-color="#B6D5EC"/>
</linearGradient>
<linearGradient id="paint22_linear_1159_1090" x1="-90.5409" y1="185.441" x2="-90.5409" y2="-5.46932" gradientUnits="userSpaceOnUse">
<stop stop-color="#B6D5EC" stop-opacity="0"/>
<stop offset="0.1" stop-color="#B6D5EC" stop-opacity="0.03"/>
<stop offset="0.23" stop-color="#B6D5EC" stop-opacity="0.1"/>
<stop offset="0.38" stop-color="#B6D5EC" stop-opacity="0.22"/>
<stop offset="0.54" stop-color="#B6D5EC" stop-opacity="0.38"/>
<stop offset="0.72" stop-color="#B6D5EC" stop-opacity="0.59"/>
<stop offset="0.9" stop-color="#B6D5EC" stop-opacity="0.85"/>
<stop offset="1" stop-color="#B6D5EC"/>
</linearGradient>
<linearGradient id="paint23_linear_1159_1090" x1="-90.5409" y1="185.439" x2="-90.5409" y2="-5.4706" gradientUnits="userSpaceOnUse">
<stop stop-color="#B6D5EC" stop-opacity="0"/>
<stop offset="0.1" stop-color="#B6D5EC" stop-opacity="0.03"/>
<stop offset="0.23" stop-color="#B6D5EC" stop-opacity="0.1"/>
<stop offset="0.38" stop-color="#B6D5EC" stop-opacity="0.22"/>
<stop offset="0.54" stop-color="#B6D5EC" stop-opacity="0.38"/>
<stop offset="0.72" stop-color="#B6D5EC" stop-opacity="0.59"/>
<stop offset="0.9" stop-color="#B6D5EC" stop-opacity="0.85"/>
<stop offset="1" stop-color="#B6D5EC"/>
</linearGradient>
<linearGradient id="paint24_linear_1159_1090" x1="-90.5409" y1="185.44" x2="-90.5409" y2="-5.47011" gradientUnits="userSpaceOnUse">
<stop stop-color="#B6D5EC" stop-opacity="0"/>
<stop offset="0.1" stop-color="#B6D5EC" stop-opacity="0.03"/>
<stop offset="0.23" stop-color="#B6D5EC" stop-opacity="0.1"/>
<stop offset="0.38" stop-color="#B6D5EC" stop-opacity="0.22"/>
<stop offset="0.54" stop-color="#B6D5EC" stop-opacity="0.38"/>
<stop offset="0.72" stop-color="#B6D5EC" stop-opacity="0.59"/>
<stop offset="0.9" stop-color="#B6D5EC" stop-opacity="0.85"/>
<stop offset="1" stop-color="#B6D5EC"/>
</linearGradient>
<linearGradient id="paint25_linear_1159_1090" x1="-90.5407" y1="185.44" x2="-90.5407" y2="-5.4697" gradientUnits="userSpaceOnUse">
<stop stop-color="#B6D5EC" stop-opacity="0"/>
<stop offset="0.1" stop-color="#B6D5EC" stop-opacity="0.03"/>
<stop offset="0.23" stop-color="#B6D5EC" stop-opacity="0.1"/>
<stop offset="0.38" stop-color="#B6D5EC" stop-opacity="0.22"/>
<stop offset="0.54" stop-color="#B6D5EC" stop-opacity="0.38"/>
<stop offset="0.72" stop-color="#B6D5EC" stop-opacity="0.59"/>
<stop offset="0.9" stop-color="#B6D5EC" stop-opacity="0.85"/>
<stop offset="1" stop-color="#B6D5EC"/>
</linearGradient>
<linearGradient id="paint26_linear_1159_1090" x1="-90.5409" y1="185.439" x2="-90.5409" y2="-5.47088" gradientUnits="userSpaceOnUse">
<stop stop-color="#B6D5EC" stop-opacity="0"/>
<stop offset="0.1" stop-color="#B6D5EC" stop-opacity="0.03"/>
<stop offset="0.23" stop-color="#B6D5EC" stop-opacity="0.1"/>
<stop offset="0.38" stop-color="#B6D5EC" stop-opacity="0.22"/>
<stop offset="0.54" stop-color="#B6D5EC" stop-opacity="0.38"/>
<stop offset="0.72" stop-color="#B6D5EC" stop-opacity="0.59"/>
<stop offset="0.9" stop-color="#B6D5EC" stop-opacity="0.85"/>
<stop offset="1" stop-color="#B6D5EC"/>
</linearGradient>
<linearGradient id="paint27_linear_1159_1090" x1="-90.5409" y1="185.44" x2="-90.5409" y2="-5.47039" gradientUnits="userSpaceOnUse">
<stop stop-color="#B6D5EC" stop-opacity="0"/>
<stop offset="0.1" stop-color="#B6D5EC" stop-opacity="0.03"/>
<stop offset="0.23" stop-color="#B6D5EC" stop-opacity="0.1"/>
<stop offset="0.38" stop-color="#B6D5EC" stop-opacity="0.22"/>
<stop offset="0.54" stop-color="#B6D5EC" stop-opacity="0.38"/>
<stop offset="0.72" stop-color="#B6D5EC" stop-opacity="0.59"/>
<stop offset="0.9" stop-color="#B6D5EC" stop-opacity="0.85"/>
<stop offset="1" stop-color="#B6D5EC"/>
</linearGradient>
<linearGradient id="paint28_linear_1159_1090" x1="-90.5407" y1="185.44" x2="-90.5407" y2="-5.46994" gradientUnits="userSpaceOnUse">
<stop stop-color="#B6D5EC" stop-opacity="0"/>
<stop offset="0.1" stop-color="#B6D5EC" stop-opacity="0.03"/>
<stop offset="0.23" stop-color="#B6D5EC" stop-opacity="0.1"/>
<stop offset="0.38" stop-color="#B6D5EC" stop-opacity="0.22"/>
<stop offset="0.54" stop-color="#B6D5EC" stop-opacity="0.38"/>
<stop offset="0.72" stop-color="#B6D5EC" stop-opacity="0.59"/>
<stop offset="0.9" stop-color="#B6D5EC" stop-opacity="0.85"/>
<stop offset="1" stop-color="#B6D5EC"/>
</linearGradient>
<linearGradient id="paint29_linear_1159_1090" x1="-90.5409" y1="185.439" x2="-90.5409" y2="-5.47111" gradientUnits="userSpaceOnUse">
<stop stop-color="#B6D5EC" stop-opacity="0"/>
<stop offset="0.1" stop-color="#B6D5EC" stop-opacity="0.03"/>
<stop offset="0.23" stop-color="#B6D5EC" stop-opacity="0.1"/>
<stop offset="0.38" stop-color="#B6D5EC" stop-opacity="0.22"/>
<stop offset="0.54" stop-color="#B6D5EC" stop-opacity="0.38"/>
<stop offset="0.72" stop-color="#B6D5EC" stop-opacity="0.59"/>
<stop offset="0.9" stop-color="#B6D5EC" stop-opacity="0.85"/>
<stop offset="1" stop-color="#B6D5EC"/>
</linearGradient>
<linearGradient id="paint30_linear_1159_1090" x1="92.3089" y1="185.439" x2="92.3089" y2="-5.47084" gradientUnits="userSpaceOnUse">
<stop stop-color="#B6D5EC" stop-opacity="0"/>
<stop offset="0.1" stop-color="#B6D5EC" stop-opacity="0.03"/>
<stop offset="0.23" stop-color="#B6D5EC" stop-opacity="0.1"/>
<stop offset="0.38" stop-color="#B6D5EC" stop-opacity="0.22"/>
<stop offset="0.54" stop-color="#B6D5EC" stop-opacity="0.38"/>
<stop offset="0.72" stop-color="#B6D5EC" stop-opacity="0.59"/>
<stop offset="0.9" stop-color="#B6D5EC" stop-opacity="0.85"/>
<stop offset="1" stop-color="#B6D5EC"/>
</linearGradient>
<linearGradient id="paint31_linear_1159_1090" x1="92.3089" y1="185.44" x2="92.3089" y2="-5.46971" gradientUnits="userSpaceOnUse">
<stop stop-color="#B6D5EC" stop-opacity="0"/>
<stop offset="0.1" stop-color="#B6D5EC" stop-opacity="0.03"/>
<stop offset="0.23" stop-color="#B6D5EC" stop-opacity="0.1"/>
<stop offset="0.38" stop-color="#B6D5EC" stop-opacity="0.22"/>
<stop offset="0.54" stop-color="#B6D5EC" stop-opacity="0.38"/>
<stop offset="0.72" stop-color="#B6D5EC" stop-opacity="0.59"/>
<stop offset="0.9" stop-color="#B6D5EC" stop-opacity="0.85"/>
<stop offset="1" stop-color="#B6D5EC"/>
</linearGradient>
<linearGradient id="paint32_linear_1159_1090" x1="92.3089" y1="185.439" x2="92.3089" y2="-5.4707" gradientUnits="userSpaceOnUse">
<stop stop-color="#B6D5EC" stop-opacity="0"/>
<stop offset="0.1" stop-color="#B6D5EC" stop-opacity="0.03"/>
<stop offset="0.23" stop-color="#B6D5EC" stop-opacity="0.1"/>
<stop offset="0.38" stop-color="#B6D5EC" stop-opacity="0.22"/>
<stop offset="0.54" stop-color="#B6D5EC" stop-opacity="0.38"/>
<stop offset="0.72" stop-color="#B6D5EC" stop-opacity="0.59"/>
<stop offset="0.9" stop-color="#B6D5EC" stop-opacity="0.85"/>
<stop offset="1" stop-color="#B6D5EC"/>
</linearGradient>
<linearGradient id="paint33_linear_1159_1090" x1="92.3089" y1="185.44" x2="92.3089" y2="-5.4695" gradientUnits="userSpaceOnUse">
<stop stop-color="#B6D5EC" stop-opacity="0"/>
<stop offset="0.1" stop-color="#B6D5EC" stop-opacity="0.03"/>
<stop offset="0.23" stop-color="#B6D5EC" stop-opacity="0.1"/>
<stop offset="0.38" stop-color="#B6D5EC" stop-opacity="0.22"/>
<stop offset="0.54" stop-color="#B6D5EC" stop-opacity="0.38"/>
<stop offset="0.72" stop-color="#B6D5EC" stop-opacity="0.59"/>
<stop offset="0.9" stop-color="#B6D5EC" stop-opacity="0.85"/>
<stop offset="1" stop-color="#B6D5EC"/>
</linearGradient>
<linearGradient id="paint34_linear_1159_1090" x1="92.3089" y1="185.439" x2="92.3089" y2="-5.47056" gradientUnits="userSpaceOnUse">
<stop stop-color="#B6D5EC" stop-opacity="0"/>
<stop offset="0.1" stop-color="#B6D5EC" stop-opacity="0.03"/>
<stop offset="0.23" stop-color="#B6D5EC" stop-opacity="0.1"/>
<stop offset="0.38" stop-color="#B6D5EC" stop-opacity="0.22"/>
<stop offset="0.54" stop-color="#B6D5EC" stop-opacity="0.38"/>
<stop offset="0.72" stop-color="#B6D5EC" stop-opacity="0.59"/>
<stop offset="0.9" stop-color="#B6D5EC" stop-opacity="0.85"/>
<stop offset="1" stop-color="#B6D5EC"/>
</linearGradient>
<linearGradient id="paint35_linear_1159_1090" x1="92.3089" y1="185.44" x2="92.3089" y2="-5.46961" gradientUnits="userSpaceOnUse">
<stop stop-color="#B6D5EC" stop-opacity="0"/>
<stop offset="0.1" stop-color="#B6D5EC" stop-opacity="0.03"/>
<stop offset="0.23" stop-color="#B6D5EC" stop-opacity="0.1"/>
<stop offset="0.38" stop-color="#B6D5EC" stop-opacity="0.22"/>
<stop offset="0.54" stop-color="#B6D5EC" stop-opacity="0.38"/>
<stop offset="0.72" stop-color="#B6D5EC" stop-opacity="0.59"/>
<stop offset="0.9" stop-color="#B6D5EC" stop-opacity="0.85"/>
<stop offset="1" stop-color="#B6D5EC"/>
</linearGradient>
<linearGradient id="paint36_linear_1159_1090" x1="92.3089" y1="185.44" x2="92.3089" y2="-5.47038" gradientUnits="userSpaceOnUse">
<stop stop-color="#B6D5EC" stop-opacity="0"/>
<stop offset="0.1" stop-color="#B6D5EC" stop-opacity="0.03"/>
<stop offset="0.23" stop-color="#B6D5EC" stop-opacity="0.1"/>
<stop offset="0.38" stop-color="#B6D5EC" stop-opacity="0.22"/>
<stop offset="0.54" stop-color="#B6D5EC" stop-opacity="0.38"/>
<stop offset="0.72" stop-color="#B6D5EC" stop-opacity="0.59"/>
<stop offset="0.9" stop-color="#B6D5EC" stop-opacity="0.85"/>
<stop offset="1" stop-color="#B6D5EC"/>
</linearGradient>
<linearGradient id="paint37_linear_1159_1090" x1="92.3089" y1="185.441" x2="92.3089" y2="-5.46945" gradientUnits="userSpaceOnUse">
<stop stop-color="#B6D5EC" stop-opacity="0"/>
<stop offset="0.1" stop-color="#B6D5EC" stop-opacity="0.03"/>
<stop offset="0.23" stop-color="#B6D5EC" stop-opacity="0.1"/>
<stop offset="0.38" stop-color="#B6D5EC" stop-opacity="0.22"/>
<stop offset="0.54" stop-color="#B6D5EC" stop-opacity="0.38"/>
<stop offset="0.72" stop-color="#B6D5EC" stop-opacity="0.59"/>
<stop offset="0.9" stop-color="#B6D5EC" stop-opacity="0.85"/>
<stop offset="1" stop-color="#B6D5EC"/>
</linearGradient>
<linearGradient id="paint38_linear_1159_1090" x1="92.3089" y1="185.44" x2="92.3089" y2="-5.47024" gradientUnits="userSpaceOnUse">
<stop stop-color="#B6D5EC" stop-opacity="0"/>
<stop offset="0.1" stop-color="#B6D5EC" stop-opacity="0.03"/>
<stop offset="0.23" stop-color="#B6D5EC" stop-opacity="0.1"/>
<stop offset="0.38" stop-color="#B6D5EC" stop-opacity="0.22"/>
<stop offset="0.54" stop-color="#B6D5EC" stop-opacity="0.38"/>
<stop offset="0.72" stop-color="#B6D5EC" stop-opacity="0.59"/>
<stop offset="0.9" stop-color="#B6D5EC" stop-opacity="0.85"/>
<stop offset="1" stop-color="#B6D5EC"/>
</linearGradient>
<linearGradient id="paint39_linear_1159_1090" x1="92.3089" y1="185.441" x2="92.3089" y2="-5.4693" gradientUnits="userSpaceOnUse">
<stop stop-color="#B6D5EC" stop-opacity="0"/>
<stop offset="0.1" stop-color="#B6D5EC" stop-opacity="0.03"/>
<stop offset="0.23" stop-color="#B6D5EC" stop-opacity="0.1"/>
<stop offset="0.38" stop-color="#B6D5EC" stop-opacity="0.22"/>
<stop offset="0.54" stop-color="#B6D5EC" stop-opacity="0.38"/>
<stop offset="0.72" stop-color="#B6D5EC" stop-opacity="0.59"/>
<stop offset="0.9" stop-color="#B6D5EC" stop-opacity="0.85"/>
<stop offset="1" stop-color="#B6D5EC"/>
</linearGradient>
<linearGradient id="paint40_linear_1159_1090" x1="92.3089" y1="185.44" x2="92.3089" y2="-5.4703" gradientUnits="userSpaceOnUse">
<stop stop-color="#B6D5EC" stop-opacity="0"/>
<stop offset="0.1" stop-color="#B6D5EC" stop-opacity="0.03"/>
<stop offset="0.23" stop-color="#B6D5EC" stop-opacity="0.1"/>
<stop offset="0.38" stop-color="#B6D5EC" stop-opacity="0.22"/>
<stop offset="0.54" stop-color="#B6D5EC" stop-opacity="0.38"/>
<stop offset="0.72" stop-color="#B6D5EC" stop-opacity="0.59"/>
<stop offset="0.9" stop-color="#B6D5EC" stop-opacity="0.85"/>
<stop offset="1" stop-color="#B6D5EC"/>
</linearGradient>
<linearGradient id="paint41_linear_1159_1090" x1="92.3089" y1="185.441" x2="92.3089" y2="-5.46914" gradientUnits="userSpaceOnUse">
<stop stop-color="#B6D5EC" stop-opacity="0"/>
<stop offset="0.1" stop-color="#B6D5EC" stop-opacity="0.03"/>
<stop offset="0.23" stop-color="#B6D5EC" stop-opacity="0.1"/>
<stop offset="0.38" stop-color="#B6D5EC" stop-opacity="0.22"/>
<stop offset="0.54" stop-color="#B6D5EC" stop-opacity="0.38"/>
<stop offset="0.72" stop-color="#B6D5EC" stop-opacity="0.59"/>
<stop offset="0.9" stop-color="#B6D5EC" stop-opacity="0.85"/>
<stop offset="1" stop-color="#B6D5EC"/>
</linearGradient>
<linearGradient id="paint42_linear_1159_1090" x1="92.3089" y1="185.44" x2="92.3089" y2="-5.47015" gradientUnits="userSpaceOnUse">
<stop stop-color="#B6D5EC" stop-opacity="0"/>
<stop offset="0.1" stop-color="#B6D5EC" stop-opacity="0.03"/>
<stop offset="0.23" stop-color="#B6D5EC" stop-opacity="0.1"/>
<stop offset="0.38" stop-color="#B6D5EC" stop-opacity="0.22"/>
<stop offset="0.54" stop-color="#B6D5EC" stop-opacity="0.38"/>
<stop offset="0.72" stop-color="#B6D5EC" stop-opacity="0.59"/>
<stop offset="0.9" stop-color="#B6D5EC" stop-opacity="0.85"/>
<stop offset="1" stop-color="#B6D5EC"/>
</linearGradient>
<linearGradient id="paint43_linear_1159_1090" x1="92.3089" y1="185.439" x2="92.3089" y2="-5.47094" gradientUnits="userSpaceOnUse">
<stop stop-color="#B6D5EC" stop-opacity="0"/>
<stop offset="0.1" stop-color="#B6D5EC" stop-opacity="0.03"/>
<stop offset="0.23" stop-color="#B6D5EC" stop-opacity="0.1"/>
<stop offset="0.38" stop-color="#B6D5EC" stop-opacity="0.22"/>
<stop offset="0.54" stop-color="#B6D5EC" stop-opacity="0.38"/>
<stop offset="0.72" stop-color="#B6D5EC" stop-opacity="0.59"/>
<stop offset="0.9" stop-color="#B6D5EC" stop-opacity="0.85"/>
<stop offset="1" stop-color="#B6D5EC"/>
</linearGradient>
<linearGradient id="paint44_linear_1159_1090" x1="92.3089" y1="185.44" x2="92.3089" y2="-5.47" gradientUnits="userSpaceOnUse">
<stop stop-color="#B6D5EC" stop-opacity="0"/>
<stop offset="0.1" stop-color="#B6D5EC" stop-opacity="0.03"/>
<stop offset="0.23" stop-color="#B6D5EC" stop-opacity="0.1"/>
<stop offset="0.38" stop-color="#B6D5EC" stop-opacity="0.22"/>
<stop offset="0.54" stop-color="#B6D5EC" stop-opacity="0.38"/>
<stop offset="0.72" stop-color="#B6D5EC" stop-opacity="0.59"/>
<stop offset="0.9" stop-color="#B6D5EC" stop-opacity="0.85"/>
<stop offset="1" stop-color="#B6D5EC"/>
</linearGradient>
</defs>
</svg>
