<svg width="390" height="83" viewBox="0 0 390 83" fill="none" xmlns="http://www.w3.org/2000/svg">
<mask id="mask0_3560_15825" style="mask-type:luminance" maskUnits="userSpaceOnUse" x="0" y="0" width="390" height="83">
<path d="M390 82.7859H0V1.52588e-05H390V82.7859Z" fill="white"/>
</mask>
<g mask="url(#mask0_3560_15825)">
<path d="M473.689 -5.32701C410.086 -4.44809 375.633 2.41506 342.234 9.06423C305.717 16.3477 267.97 23.8682 193.652 23.8682C119.334 23.8682 81.6022 16.3477 45.0854 9.06423C11.8472 2.44564 -22.4457 -4.38695 -85.498 -5.31172V-135.146H473.689V-5.32701Z" fill="#B6D5EC"/>
<path d="M194.378 32.283C264.645 32.283 300.375 25.1676 334.912 18.2815C369.121 11.4642 404.514 4.40998 474.094 4.40998V1.49047C403.827 1.49047 368.12 8.60583 333.575 15.4919C299.366 22.3092 263.972 29.3634 194.37 29.3634C124.783 29.3634 89.3976 22.3169 55.1888 15.4919C20.6514 8.60583 -15.063 1.49047 -85.3301 1.49047V4.40998C-15.7432 4.40998 19.6426 11.4566 53.8514 18.2815C88.3964 25.1676 124.103 32.283 194.37 32.283H194.378Z" fill="url(#paint0_linear_3560_15825)"/>
<path d="M194.378 39.6123C264.614 39.6123 300.306 32.4969 334.828 25.6261C369.067 18.8088 404.461 11.747 474.094 11.747V9.19431C403.872 9.19431 368.181 16.3097 333.659 23.1805C299.419 29.9978 264.011 37.0596 194.378 37.0596C124.745 37.0596 89.3518 29.9978 55.1124 23.1805C20.5826 16.302 -15.1088 9.18666 -85.3301 9.18666V11.7393C-15.6973 11.7393 19.6961 18.8012 53.9354 25.6185C88.4576 32.4969 124.157 39.6047 194.37 39.6047L194.378 39.6123Z" fill="url(#paint1_linear_3560_15825)"/>
<path d="M194.378 46.9338C264.561 46.9338 300.237 39.8185 334.744 32.9553C368.999 26.1227 404.43 19.0761 474.094 19.0761V16.8674C403.911 16.8674 368.25 23.9828 333.743 30.8459C299.488 37.6785 264.057 44.7251 194.378 44.7251C124.715 44.7251 89.283 37.6785 55.0283 30.8459C20.5139 23.9828 -15.147 16.8674 -85.3301 16.8674V19.0761C-15.6667 19.0761 19.7649 26.1227 54.0195 32.9553C88.5264 39.8185 124.187 46.9338 194.37 46.9338H194.378Z" fill="url(#paint2_linear_3560_15825)"/>
<path d="M194.378 54.2634C264.53 54.2634 300.191 47.1633 334.66 40.2849C368.938 33.4523 404.377 26.3905 474.094 26.3905V24.5486C403.956 24.5486 368.303 31.6486 333.827 38.5271C299.549 45.3597 264.095 52.4215 194.378 52.4215C124.661 52.4215 89.2218 45.3597 54.9443 38.5271C20.468 31.6563 -15.1929 24.5486 -85.3301 24.5486V26.3905C-15.6132 26.3905 19.826 33.4523 54.1036 40.2849C88.5799 47.1633 124.241 54.2634 194.37 54.2634H194.378Z" fill="url(#paint3_linear_3560_15825)"/>
<path d="M194.378 61.585C264.477 61.585 300.123 54.4849 334.584 47.6217C368.876 40.7891 404.354 33.7196 474.101 33.7196V32.2446C404.002 32.2446 368.372 39.3447 333.919 46.2078C299.611 53.0404 264.148 60.1099 194.386 60.1099C124.638 60.1099 89.1607 53.0404 54.8679 46.2078C20.3992 39.3447 -15.2235 32.2446 -85.3301 32.2446V33.7196C-15.5827 33.7196 19.8948 40.7891 54.1877 47.6217C88.6486 54.4849 124.271 61.585 194.37 61.585H194.378Z" fill="url(#paint4_linear_3560_15825)"/>
</g>
<defs>
<linearGradient id="paint0_linear_3560_15825" x1="194.386" y1="-40.8043" x2="194.386" y2="49.1504" gradientUnits="userSpaceOnUse">
<stop stop-color="#B6D5EC" stop-opacity="0.1"/>
<stop offset="1" stop-color="#B6D5EC"/>
</linearGradient>
<linearGradient id="paint1_linear_3560_15825" x1="194.386" y1="-20.6123" x2="194.386" y2="69.3425" gradientUnits="userSpaceOnUse">
<stop stop-color="#B6D5EC" stop-opacity="0.1"/>
<stop offset="1" stop-color="#B6D5EC"/>
</linearGradient>
<linearGradient id="paint2_linear_3560_15825" x1="194.386" y1="-0.435699" x2="194.386" y2="89.519" gradientUnits="userSpaceOnUse">
<stop stop-color="#B6D5EC" stop-opacity="0.1"/>
<stop offset="1" stop-color="#B6D5EC"/>
</linearGradient>
<linearGradient id="paint3_linear_3560_15825" x1="194.386" y1="19.7413" x2="194.386" y2="109.696" gradientUnits="userSpaceOnUse">
<stop stop-color="#B6D5EC" stop-opacity="0.1"/>
<stop offset="1" stop-color="#B6D5EC"/>
</linearGradient>
<linearGradient id="paint4_linear_3560_15825" x1="194.386" y1="39.9255" x2="194.386" y2="129.88" gradientUnits="userSpaceOnUse">
<stop stop-color="#B6D5EC" stop-opacity="0.1"/>
<stop offset="1" stop-color="#B6D5EC"/>
</linearGradient>
</defs>
</svg>
