<svg width="1280" height="90" viewBox="0 0 1280 90" fill="none" xmlns="http://www.w3.org/2000/svg">
<g clip-path="url(#clip0_3439_14327)">
<path d="M1278.54 87.55C1133.11 86.4 1054.34 77.42 977.99 68.72C894.49 59.19 808.19 49.35 638.26 49.35C468.33 49.35 382.07 59.19 298.57 68.72C222.57 77.39 144.16 86.32 0 87.54V89.89H1278.54V87.55Z" fill="#B6D5EC"/>
<path d="M639.911 38.34C800.571 38.34 882.261 47.65 961.241 56.66C1039.45 65.58 1120.38 74.81 1279.47 74.81V78.63C1118.81 78.63 1037.16 69.32 958.181 60.31C879.971 51.39 799.041 42.16 639.911 42.16C480.811 42.16 399.891 51.38 321.681 60.31C242.701 69.32 161.051 78.63 0.390625 78.63V74.81C159.491 74.81 240.411 65.59 318.621 56.66C397.601 47.65 479.241 38.34 639.911 38.34Z" fill="url(#paint0_linear_3439_14327)"/>
<path d="M639.911 28.75C800.501 28.75 882.111 38.06 961.041 47.05C1039.33 55.97 1120.25 65.21 1279.47 65.21V68.55C1118.92 68.55 1037.31 59.24 958.371 50.25C880.081 41.33 799.121 32.09 639.911 32.09C480.701 32.09 399.771 41.33 321.481 50.25C242.551 59.25 160.941 68.56 0.390625 68.56V65.22C159.601 65.22 240.531 55.98 318.821 47.06C397.761 38.06 479.371 28.76 639.921 28.76L639.911 28.75Z" fill="url(#paint1_linear_3439_14327)"/>
<path d="M639.911 19.17C800.381 19.17 881.951 28.48 960.851 37.46C1039.18 46.4 1120.18 55.62 1279.47 55.62V58.51C1119 58.51 1037.47 49.2 958.561 40.22C880.231 31.28 799.231 22.06 639.911 22.06C480.621 22.06 399.621 31.28 321.291 40.22C242.391 49.2 160.861 58.51 0.390625 58.51V55.62C159.681 55.62 240.681 46.4 319.011 37.46C397.911 28.48 479.441 19.17 639.921 19.17H639.911Z" fill="url(#paint2_linear_3439_14327)"/>
<path d="M639.911 9.57996C800.311 9.57996 881.841 18.87 960.661 27.87C1039.03 36.81 1120.06 46.05 1279.47 46.05V48.46C1119.11 48.46 1037.58 39.17 958.761 30.17C880.391 21.23 799.321 11.99 639.911 11.99C480.511 11.99 399.471 21.23 321.101 30.17C242.281 39.16 160.751 48.46 0.390625 48.46V46.05C159.791 46.05 240.831 36.81 319.201 27.87C398.021 18.87 479.561 9.57996 639.911 9.57996Z" fill="url(#paint3_linear_3439_14327)"/>
<path d="M639.911 0C800.191 0 881.691 9.29 960.471 18.27C1038.87 27.21 1119.99 36.46 1279.47 36.46V38.39C1119.19 38.39 1037.73 29.1 958.951 20.12C880.501 11.18 799.431 1.93 639.911 1.93C480.431 1.93 399.321 11.18 320.911 20.12C242.131 29.1 160.671 38.39 0.390625 38.39V36.46C159.871 36.46 240.981 27.21 319.391 18.27C398.171 9.29 479.631 0 639.911 0Z" fill="url(#paint4_linear_3439_14327)"/>
</g>
<defs>
<linearGradient id="paint0_linear_3439_14327" x1="639.931" y1="133.97" x2="639.931" y2="16.27" gradientUnits="userSpaceOnUse">
<stop stop-color="#B6D5EC" stop-opacity="0.1"/>
<stop offset="1" stop-color="#B6D5EC"/>
</linearGradient>
<linearGradient id="paint1_linear_3439_14327" x1="639.931" y1="107.55" x2="639.931" y2="-10.15" gradientUnits="userSpaceOnUse">
<stop stop-color="#B6D5EC" stop-opacity="0.1"/>
<stop offset="1" stop-color="#B6D5EC"/>
</linearGradient>
<linearGradient id="paint2_linear_3439_14327" x1="639.931" y1="81.15" x2="639.931" y2="-36.5499" gradientUnits="userSpaceOnUse">
<stop stop-color="#B6D5EC" stop-opacity="0.1"/>
<stop offset="1" stop-color="#B6D5EC"/>
</linearGradient>
<linearGradient id="paint3_linear_3439_14327" x1="639.931" y1="54.75" x2="639.931" y2="-62.95" gradientUnits="userSpaceOnUse">
<stop stop-color="#B6D5EC" stop-opacity="0.1"/>
<stop offset="1" stop-color="#B6D5EC"/>
</linearGradient>
<linearGradient id="paint4_linear_3439_14327" x1="639.931" y1="28.34" x2="639.931" y2="-89.36" gradientUnits="userSpaceOnUse">
<stop stop-color="#B6D5EC" stop-opacity="0.1"/>
<stop offset="1" stop-color="#B6D5EC"/>
</linearGradient>
<clipPath id="clip0_3439_14327">
<rect width="1279.47" height="89.89" fill="white"/>
</clipPath>
</defs>
</svg>
