<svg width="390" height="83" viewBox="0 0 390 83" fill="none" xmlns="http://www.w3.org/2000/svg">
<mask id="mask0_3560_15762" style="mask-type:luminance" maskUnits="userSpaceOnUse" x="0" y="0" width="390" height="83">
<path d="M390 0H0V82.7859H390V0Z" fill="white"/>
</mask>
<g mask="url(#mask0_3560_15762)">
<path d="M473.689 88.1128C410.086 87.2339 375.633 80.3707 342.234 73.7215C305.717 66.438 267.97 58.9176 193.652 58.9176C119.334 58.9176 81.6022 66.438 45.0854 73.7215C11.8472 80.3401 -22.4457 87.1727 -85.498 88.0975V217.932H473.689V88.1128Z" fill="#B6D5EC"/>
<path d="M194.378 50.5031C264.645 50.5031 300.375 57.6184 334.912 64.5045C369.121 71.3218 404.514 78.376 474.094 78.376V81.2955C403.827 81.2955 368.12 74.1802 333.575 67.2941C299.366 60.4768 263.972 53.4226 194.37 53.4226C124.783 53.4226 89.3976 60.4692 55.1888 67.2941C20.6514 74.1802 -15.063 81.2955 -85.3301 81.2955V78.376C-15.7432 78.376 19.6426 71.3294 53.8514 64.5045C88.3964 57.6184 124.103 50.5031 194.37 50.5031H194.378Z" fill="url(#paint0_linear_3560_15762)"/>
<path d="M194.378 43.1737C264.614 43.1737 300.306 50.2891 334.828 57.1599C369.067 63.9772 404.461 71.039 474.094 71.039V73.5917C403.872 73.5917 368.181 66.4763 333.659 59.6055C299.419 52.7882 264.011 45.7264 194.378 45.7264C124.745 45.7264 89.3518 52.7882 55.1124 59.6055C20.5826 66.484 -15.1088 73.5993 -85.3301 73.5993V71.0467C-15.6973 71.0467 19.6961 63.9848 53.9354 57.1675C88.4576 50.2891 124.157 43.1813 194.37 43.1813L194.378 43.1737Z" fill="url(#paint1_linear_3560_15762)"/>
<path d="M194.378 35.8521C264.561 35.8521 300.237 42.9674 334.744 49.8306C368.999 56.6632 404.43 63.7097 474.094 63.7097V65.9185C403.911 65.9185 368.25 58.8031 333.743 51.94C299.488 45.1074 264.057 38.0608 194.378 38.0608C124.715 38.0608 89.283 45.1074 55.0284 51.94C20.5139 58.8031 -15.147 65.9185 -85.3301 65.9185V63.7097C-15.6667 63.7097 19.7649 56.6632 54.0195 49.8306C88.5264 42.9674 124.187 35.8521 194.37 35.8521H194.378Z" fill="url(#paint2_linear_3560_15762)"/>
<path d="M194.378 28.5226C264.53 28.5226 300.191 35.6227 334.66 42.5011C368.938 49.3337 404.377 56.3956 474.094 56.3956V58.2374C403.956 58.2374 368.303 51.1374 333.827 44.2589C299.549 37.4263 264.095 30.3645 194.378 30.3645C124.661 30.3645 89.2218 37.4263 54.9443 44.2589C20.468 51.1297 -15.1929 58.2374 -85.3301 58.2374V56.3956C-15.6133 56.3956 19.826 49.3337 54.1036 42.5011C88.5799 35.6227 124.241 28.5226 194.37 28.5226H194.378Z" fill="url(#paint3_linear_3560_15762)"/>
<path d="M194.378 21.2009C264.477 21.2009 300.123 28.301 334.584 35.1642C368.876 41.9967 404.354 49.0663 474.101 49.0663V50.5413C404.002 50.5413 368.372 43.4412 333.919 36.5781C299.611 29.7455 264.148 22.676 194.386 22.676C124.638 22.676 89.1607 29.7455 54.8679 36.5781C20.3992 43.4412 -15.2235 50.5413 -85.3301 50.5413V49.0663C-15.5827 49.0663 19.8948 41.9967 54.1877 35.1642C88.6487 28.301 124.271 21.2009 194.37 21.2009H194.378Z" fill="url(#paint4_linear_3560_15762)"/>
</g>
<defs>
<linearGradient id="paint0_linear_3560_15762" x1="194.386" y1="123.59" x2="194.386" y2="33.6356" gradientUnits="userSpaceOnUse">
<stop stop-color="#B6D5EC" stop-opacity="0.1"/>
<stop offset="1" stop-color="#B6D5EC"/>
</linearGradient>
<linearGradient id="paint1_linear_3560_15762" x1="194.386" y1="103.398" x2="194.386" y2="13.4436" gradientUnits="userSpaceOnUse">
<stop stop-color="#B6D5EC" stop-opacity="0.1"/>
<stop offset="1" stop-color="#B6D5EC"/>
</linearGradient>
<linearGradient id="paint2_linear_3560_15762" x1="194.386" y1="83.2216" x2="194.386" y2="-6.73315" gradientUnits="userSpaceOnUse">
<stop stop-color="#B6D5EC" stop-opacity="0.1"/>
<stop offset="1" stop-color="#B6D5EC"/>
</linearGradient>
<linearGradient id="paint3_linear_3560_15762" x1="194.386" y1="63.0447" x2="194.386" y2="-26.91" gradientUnits="userSpaceOnUse">
<stop stop-color="#B6D5EC" stop-opacity="0.1"/>
<stop offset="1" stop-color="#B6D5EC"/>
</linearGradient>
<linearGradient id="paint4_linear_3560_15762" x1="194.386" y1="42.8604" x2="194.386" y2="-47.0944" gradientUnits="userSpaceOnUse">
<stop stop-color="#B6D5EC" stop-opacity="0.1"/>
<stop offset="1" stop-color="#B6D5EC"/>
</linearGradient>
</defs>
</svg>
