<svg width="1280" height="90" viewBox="0 0 1280 90" fill="none" xmlns="http://www.w3.org/2000/svg">
<g clip-path="url(#clip0_3439_14335)">
<path d="M1278.54 2.3399C1133.11 3.4899 1054.34 12.4699 977.99 21.1699C894.49 30.6999 808.19 40.5399 638.26 40.5399C468.33 40.5399 382.07 30.6999 298.57 21.1699C222.57 12.4999 144.16 3.5699 0 2.3499V-9.91821e-05H1278.54V2.3399Z" fill="#B6D5EC"/>
<path d="M639.911 51.5499C800.571 51.5499 882.261 42.2399 961.241 33.2299C1039.45 24.3099 1120.38 15.0799 1279.47 15.0799V11.2599C1118.81 11.2599 1037.16 20.5699 958.181 29.5799C879.971 38.4999 799.041 47.7299 639.911 47.7299C480.811 47.7299 399.891 38.5099 321.681 29.5799C242.701 20.5699 161.051 11.2599 0.390625 11.2599V15.0799C159.491 15.0799 240.411 24.2999 318.621 33.2299C397.601 42.2399 479.241 51.5499 639.911 51.5499Z" fill="url(#paint0_linear_3439_14335)"/>
<path d="M639.911 61.14C800.501 61.14 882.111 51.83 961.041 42.84C1039.33 33.92 1120.25 24.68 1279.47 24.68V21.34C1118.92 21.34 1037.31 30.65 958.371 39.64C880.081 48.56 799.121 57.8 639.911 57.8C480.701 57.8 399.771 48.56 321.481 39.64C242.551 30.64 160.941 21.33 0.390625 21.33V24.67C159.601 24.67 240.531 33.91 318.821 42.83C397.761 51.83 479.371 61.13 639.921 61.13L639.911 61.14Z" fill="url(#paint1_linear_3439_14335)"/>
<path d="M639.911 70.7201C800.381 70.7201 881.951 61.4101 960.851 52.4301C1039.18 43.4901 1120.18 34.2701 1279.47 34.2701V31.3801C1119 31.3801 1037.47 40.6901 958.561 49.6701C880.231 58.6101 799.231 67.8301 639.911 67.8301C480.621 67.8301 399.621 58.6101 321.291 49.6701C242.391 40.6901 160.861 31.3801 0.390625 31.3801V34.2701C159.681 34.2701 240.681 43.4901 319.011 52.4301C397.911 61.4101 479.441 70.7201 639.921 70.7201H639.911Z" fill="url(#paint2_linear_3439_14335)"/>
<path d="M639.911 80.3099C800.311 80.3099 881.841 71.0199 960.661 62.0199C1039.03 53.0799 1120.06 43.8399 1279.47 43.8399V41.4299C1119.11 41.4299 1037.58 50.7199 958.761 59.7199C880.391 68.6599 799.321 77.8999 639.911 77.8999C480.511 77.8999 399.471 68.6599 321.101 59.7199C242.281 50.7299 160.751 41.4299 0.390625 41.4299V43.8399C159.791 43.8399 240.831 53.0799 319.201 62.0199C398.021 71.0199 479.561 80.3099 639.911 80.3099Z" fill="url(#paint3_linear_3439_14335)"/>
<path d="M639.911 89.89C800.191 89.89 881.691 80.6 960.471 71.62C1038.87 62.68 1119.99 53.43 1279.47 53.43V51.5C1119.19 51.5 1037.73 60.79 958.951 69.77C880.501 78.71 799.431 87.96 639.911 87.96C480.431 87.96 399.321 78.71 320.911 69.77C242.131 60.79 160.671 51.5 0.390625 51.5V53.43C159.871 53.43 240.981 62.68 319.391 71.62C398.171 80.6 479.631 89.89 639.911 89.89Z" fill="url(#paint4_linear_3439_14335)"/>
</g>
<defs>
<linearGradient id="paint0_linear_3439_14335" x1="639.931" y1="-44.0801" x2="639.931" y2="73.6199" gradientUnits="userSpaceOnUse">
<stop stop-color="#B6D5EC" stop-opacity="0.1"/>
<stop offset="1" stop-color="#B6D5EC"/>
</linearGradient>
<linearGradient id="paint1_linear_3439_14335" x1="639.931" y1="-17.66" x2="639.931" y2="100.04" gradientUnits="userSpaceOnUse">
<stop stop-color="#B6D5EC" stop-opacity="0.1"/>
<stop offset="1" stop-color="#B6D5EC"/>
</linearGradient>
<linearGradient id="paint2_linear_3439_14335" x1="639.931" y1="8.74009" x2="639.931" y2="126.44" gradientUnits="userSpaceOnUse">
<stop stop-color="#B6D5EC" stop-opacity="0.1"/>
<stop offset="1" stop-color="#B6D5EC"/>
</linearGradient>
<linearGradient id="paint3_linear_3439_14335" x1="639.931" y1="35.1399" x2="639.931" y2="152.84" gradientUnits="userSpaceOnUse">
<stop stop-color="#B6D5EC" stop-opacity="0.1"/>
<stop offset="1" stop-color="#B6D5EC"/>
</linearGradient>
<linearGradient id="paint4_linear_3439_14335" x1="639.931" y1="61.55" x2="639.931" y2="179.25" gradientUnits="userSpaceOnUse">
<stop stop-color="#B6D5EC" stop-opacity="0.1"/>
<stop offset="1" stop-color="#B6D5EC"/>
</linearGradient>
<clipPath id="clip0_3439_14335">
<rect width="1279.47" height="89.89" fill="white" transform="matrix(1 0 0 -1 0 89.89)"/>
</clipPath>
</defs>
</svg>
