<svg width="86" height="86" viewBox="0 0 86 86" fill="none" xmlns="http://www.w3.org/2000/svg">
<circle cx="43" cy="43" r="42.5" fill="white" stroke="#81AFDC"/>
<g clip-path="url(#clip0_3497_8354)">
<path d="M62.2521 30.6094V52.2314C62.2521 53.3936 61.1868 54.3293 59.8701 54.3293H24.532C23.2152 54.3293 22.1426 53.3936 22.1426 52.2314V30.6094C22.1426 29.4471 23.2152 28.5042 24.532 28.5042H59.8701C61.1868 28.5042 62.2521 29.4471 62.2521 30.6094Z" stroke="#5792C2" stroke-width="2" stroke-linecap="round" stroke-linejoin="round"/>
<path d="M58.8497 54.3293V56.3687C58.8497 57.5309 57.7771 58.4666 56.4603 58.4666H21.1296C19.8129 58.4666 18.7402 57.5309 18.7402 56.3687V34.7467C18.7402 33.5844 19.8129 32.6415 21.1296 32.6415H22.1431V52.2314C22.1431 53.3937 23.2157 54.3293 24.5325 54.3293H58.8497Z" stroke="#5792C2" stroke-width="2" stroke-linecap="round" stroke-linejoin="round"/>
<path d="M24.8649 28.5042H59.5372C61.0389 28.5042 62.2521 29.7103 62.2521 31.1868V36.0258H22.1426V31.1868C22.1426 29.703 23.3632 28.5042 24.8575 28.5042H24.8649Z" fill="#5792C2"/>
<path d="M26.4336 39.4102H31.0127" stroke="#5792C2" stroke-width="2" stroke-linecap="round" stroke-linejoin="round"/>
<path d="M26.4336 43.2332H31.0127" stroke="#5792C2" stroke-width="2" stroke-linecap="round" stroke-linejoin="round"/>
<path d="M26.4336 47.0562H31.0127" stroke="#5792C2" stroke-width="2" stroke-linecap="round" stroke-linejoin="round"/>
<path d="M26.4336 50.8864H31.0127" stroke="#5792C2" stroke-width="2" stroke-linecap="round" stroke-linejoin="round"/>
<path d="M35.4219 39.4102H40.001" stroke="#5792C2" stroke-width="2" stroke-linecap="round" stroke-linejoin="round"/>
<path d="M35.4219 43.2332H40.001" stroke="#F1E04B" stroke-width="2" stroke-linecap="round" stroke-linejoin="round"/>
<path d="M35.4219 47.0562H40.001" stroke="#5792C2" stroke-width="2" stroke-linecap="round" stroke-linejoin="round"/>
<path d="M35.4219 50.8864H40.001" stroke="#5792C2" stroke-width="2" stroke-linecap="round" stroke-linejoin="round"/>
<path d="M44.4023 39.4102H48.9814" stroke="#5792C2" stroke-width="2" stroke-linecap="round" stroke-linejoin="round"/>
<path d="M44.4023 43.2332H48.9814" stroke="#5792C2" stroke-width="2" stroke-linecap="round" stroke-linejoin="round"/>
<path d="M44.4023 47.0562H48.9814" stroke="#5792C2" stroke-width="2" stroke-linecap="round" stroke-linejoin="round"/>
<path d="M53.3828 39.4102H57.9619" stroke="#5792C2" stroke-width="2" stroke-linecap="round" stroke-linejoin="round"/>
<path d="M53.3828 43.2332H57.9619" stroke="#5792C2" stroke-width="2" stroke-linecap="round" stroke-linejoin="round"/>
<path d="M53.3828 47.0562H57.9619" stroke="#5792C2" stroke-width="2" stroke-linecap="round" stroke-linejoin="round"/>
<path d="M22.1431 32.6415V39.7903H18.7402V34.8051C18.7402 34.6297 18.7624 34.4616 18.7994 34.2935C19.0361 33.3505 19.9904 32.6415 21.1296 32.6415H22.1431Z" fill="#5792C2"/>
<path d="M31.1159 23.731H30.9088C30.0876 23.731 29.4219 24.3888 29.4219 25.2002V31.2599C29.4219 32.0714 30.0876 32.7292 30.9088 32.7292H31.1159C31.9371 32.7292 32.6028 32.0714 32.6028 31.2599V25.2002C32.6028 24.3888 31.9371 23.731 31.1159 23.731Z" fill="#5792C2" stroke="white" stroke-width="2" stroke-linecap="round" stroke-linejoin="round"/>
<path d="M53.4851 23.731H53.2779C52.4567 23.731 51.791 24.3888 51.791 25.2002V31.2599C51.791 32.0714 52.4567 32.7292 53.2779 32.7292H53.4851C54.3062 32.7292 54.972 32.0714 54.972 31.2599V25.2002C54.972 24.3888 54.3062 23.731 53.4851 23.731Z" fill="#5792C2" stroke="white" stroke-width="2" stroke-linecap="round" stroke-linejoin="round"/>
<path d="M58.2126 63.4518C63.3114 63.4518 67.4447 59.3675 67.4447 54.3293C67.4447 49.2911 63.3114 45.2068 58.2126 45.2068C53.1138 45.2068 48.9805 49.2911 48.9805 54.3293C48.9805 59.3675 53.1138 63.4518 58.2126 63.4518Z" fill="#5792C2" stroke="white" stroke-width="1.5" stroke-miterlimit="10"/>
<path d="M54.7285 52.7796C55.7494 54.1173 56.7776 55.4477 57.7985 56.7853C59.5295 55.2284 61.2605 53.6787 62.9916 52.1218" stroke="white" stroke-width="2" stroke-linecap="round" stroke-linejoin="round"/>
</g>
<defs>
<clipPath id="clip0_3497_8354">
<rect width="50" height="41" fill="white" transform="translate(18 23)"/>
</clipPath>
</defs>
</svg>
