<svg width="366" height="188" viewBox="0 0 366 188" fill="none" xmlns="http://www.w3.org/2000/svg">
<mask id="mask0_977_391" style="mask-type:alpha" maskUnits="userSpaceOnUse" x="0" y="0" width="366" height="188">
<rect width="366" height="188" fill="#D9D9D9"/>
</mask>
<g mask="url(#mask0_977_391)">
<mask id="mask1_977_391" style="mask-type:luminance" maskUnits="userSpaceOnUse" x="0" y="0" width="1280" height="189">
<path d="M1280 0H0V188.082H1280V0Z" fill="white"/>
</mask>
<g mask="url(#mask1_977_391)">
<path d="M91.4593 164.76C68.3593 164.76 56.6193 161.556 45.2593 158.451C34.1393 155.416 22.6393 152.266 0.0292969 152.266V149.33C23.1293 149.33 34.8693 152.533 46.2293 155.639C57.3493 158.673 68.8493 161.823 91.4593 161.823C114.069 161.823 125.569 158.682 136.689 155.639C148.039 152.533 159.779 149.33 182.889 149.33V152.266C160.279 152.266 148.779 155.408 137.659 158.451C126.309 161.556 114.569 164.76 91.4593 164.76Z" fill="url(#paint0_linear_977_391)"/>
<path d="M91.4591 158.994C68.3691 158.994 56.6391 155.791 45.2891 152.685C34.1591 149.642 22.6591 146.501 0.0390625 146.501V143.725C23.1291 143.725 34.8591 146.928 46.2091 150.033C57.3391 153.077 68.8391 156.218 91.4591 156.218C114.079 156.218 125.589 153.077 136.709 150.033C148.059 146.937 159.789 143.725 182.879 143.725V146.501C160.259 146.501 148.749 149.642 137.629 152.685C126.279 155.782 114.549 158.994 91.4591 158.994Z" fill="url(#paint1_linear_977_391)"/>
<path d="M91.4591 153.236C68.3791 153.236 56.6591 150.033 45.3191 146.936C34.1891 143.893 22.6791 140.752 0.0390625 140.752V138.136C23.1191 138.136 34.8391 141.339 46.1791 144.436C57.3091 147.479 68.8191 150.62 91.4591 150.62C114.099 150.62 125.609 147.47 136.739 144.436C148.079 141.339 159.809 138.136 182.879 138.136V140.752C160.239 140.752 148.729 143.902 137.599 146.936C126.259 150.033 114.529 153.236 91.4591 153.236Z" fill="url(#paint2_linear_977_391)"/>
<path d="M91.4593 147.47C68.3993 147.47 56.6793 144.267 45.3393 141.17C34.1993 138.127 22.6793 134.977 0.0292969 134.977V132.53C23.0893 132.53 34.8093 135.734 46.1493 138.83C57.2893 141.873 68.8093 145.023 91.4593 145.023C114.109 145.023 125.629 141.873 136.769 138.83C148.099 135.734 159.819 132.53 182.889 132.53V134.977C160.239 134.977 148.719 138.127 137.579 141.17C126.249 144.267 114.529 147.47 91.4593 147.47Z" fill="url(#paint3_linear_977_391)"/>
<path d="M91.4591 141.705C68.4091 141.705 56.6991 138.501 45.3691 135.405C34.2191 132.362 22.6991 129.212 0.0390625 129.212V126.925C23.0891 126.925 34.7991 130.128 46.1291 133.225C57.2791 136.268 68.7991 139.418 91.4591 139.418C114.119 139.418 125.649 136.268 136.789 133.225C148.119 130.128 159.829 126.925 182.879 126.925V129.212C160.219 129.212 148.689 132.362 137.549 135.405C126.219 138.501 114.509 141.705 91.4591 141.705Z" fill="url(#paint4_linear_977_391)"/>
<path d="M91.4591 135.947C68.4191 135.947 56.7191 132.753 45.3991 129.656C34.2491 126.613 22.7191 123.454 0.0390625 123.454V121.327C23.0791 121.327 34.7791 124.522 46.0991 127.618C57.2491 130.661 68.7791 133.82 91.4591 133.82C114.139 133.82 125.669 130.67 136.819 127.618C148.139 124.522 159.849 121.327 182.879 121.327V123.454C160.199 123.454 148.669 126.604 137.519 129.656C126.199 132.753 114.489 135.947 91.4591 135.947Z" fill="url(#paint5_linear_977_391)"/>
<path d="M91.4591 130.181C68.4391 130.181 56.7391 126.987 45.4291 123.89C34.2691 120.838 22.7291 117.688 0.0390625 117.688V115.73C23.0591 115.73 34.7591 118.925 46.0691 122.022C57.2291 125.074 68.7691 128.224 91.4591 128.224C114.149 128.224 125.689 125.074 136.849 122.022C148.159 118.925 159.859 115.73 182.889 115.73V117.688C160.199 117.688 148.659 120.838 137.499 123.89C126.189 126.987 114.489 130.181 91.4691 130.181H91.4591Z" fill="url(#paint6_linear_977_391)"/>
<path d="M91.4591 124.415C68.4491 124.415 56.7591 121.221 45.4491 118.133C34.2791 115.081 22.7391 111.931 0.0390625 111.931V110.134C23.0491 110.134 34.7391 113.328 46.0491 116.416C57.2191 119.468 68.7591 122.618 91.4591 122.618C114.159 122.618 125.709 119.459 136.869 116.416C148.179 113.328 159.869 110.134 182.879 110.134V111.931C160.179 111.931 148.629 115.09 137.459 118.133C126.149 121.221 114.459 124.415 91.4491 124.415H91.4591Z" fill="url(#paint7_linear_977_391)"/>
<path d="M91.4591 118.658C68.4691 118.658 56.7791 115.463 45.4791 112.376C34.3091 109.324 22.7591 106.165 0.0390625 106.165V104.527C23.0291 104.527 34.7191 107.722 46.0191 110.81C57.1891 113.862 68.7391 117.02 91.4591 117.02C114.179 117.02 125.729 113.862 136.899 110.81C148.199 107.722 159.889 104.527 182.879 104.527V106.165C160.159 106.165 148.609 109.324 137.439 112.376C126.139 115.463 114.449 118.658 91.4591 118.658Z" fill="url(#paint8_linear_977_391)"/>
<path d="M91.4591 112.892C68.4791 112.892 56.7991 109.698 45.5091 106.619C34.3291 103.567 22.7691 100.408 0.0390625 100.408V98.9307C23.0191 98.9307 34.6991 102.125 45.9891 105.204C57.1691 108.256 68.7291 111.415 91.4591 111.415C114.189 111.415 125.749 108.256 136.929 105.204C148.219 102.116 159.899 98.9307 182.889 98.9307V100.408C160.159 100.408 148.599 103.567 137.419 106.619C126.129 109.706 114.449 112.892 91.4691 112.892H91.4591Z" fill="url(#paint9_linear_977_391)"/>
<path d="M91.4593 107.125C68.4893 107.125 56.8193 103.94 45.5293 100.852C34.3493 97.8 22.7793 94.6323 0.0292969 94.6323V93.3242C22.9993 93.3242 34.6693 96.5098 45.9593 99.5975C57.1393 102.65 68.7093 105.817 91.4593 105.817C114.209 105.817 125.769 102.658 136.959 99.5975C148.249 96.5098 159.919 93.3242 182.889 93.3242V94.6323C160.139 94.6323 148.579 97.7911 137.389 100.852C126.099 103.94 114.429 107.125 91.4593 107.125Z" fill="url(#paint10_linear_977_391)"/>
<path d="M91.4591 101.369C68.5091 101.369 56.8391 98.183 45.5591 95.0953C34.3691 92.0343 22.7991 88.8754 0.0390625 88.8754V87.7275C22.9891 87.7275 34.6591 90.9131 45.9391 94.0008C57.1291 97.0618 68.6991 100.221 91.4591 100.221C114.219 100.221 125.789 97.0618 136.979 94.0008C148.259 90.922 159.929 87.7275 182.879 87.7275V88.8754C160.119 88.8754 148.549 92.0343 137.359 95.0953C126.079 98.1741 114.409 101.369 91.4591 101.369Z" fill="url(#paint11_linear_977_391)"/>
<path d="M91.4591 95.6028C68.5191 95.6028 56.8591 92.4172 45.5891 89.3384C34.3891 86.2774 22.8091 83.1186 0.0390625 83.1186V82.1309C22.9791 82.1309 34.6391 85.3164 45.9091 88.3952C57.1091 91.4562 68.6891 94.6151 91.4591 94.6151C114.229 94.6151 125.809 91.4473 137.009 88.3952C148.289 85.3164 159.949 82.1309 182.879 82.1309V83.1186C160.109 83.1186 148.529 86.2863 137.329 89.3384C126.049 92.4172 114.389 95.6028 91.4591 95.6028Z" fill="url(#paint12_linear_977_391)"/>
<path d="M91.4593 89.8363C68.5393 89.8363 56.8793 86.6507 45.6093 83.5719C34.4093 80.5109 22.8193 77.3432 0.0292969 77.3432V76.5156C22.9593 76.5156 34.6093 79.7012 45.8793 82.78C57.0793 85.841 68.6693 89.0088 91.4593 89.0088C114.249 89.0088 125.829 85.841 137.039 82.78C148.309 79.7012 159.959 76.5156 182.889 76.5156V77.3432C160.099 77.3432 148.519 80.5109 137.309 83.5719C126.039 86.6507 114.389 89.8363 91.4593 89.8363Z" fill="url(#paint13_linear_977_391)"/>
<path d="M91.4591 84.0793C68.5491 84.0793 56.8991 80.8938 45.6391 77.815C34.4291 74.754 22.8391 71.5862 0.0390625 71.5862V70.9277C22.9491 70.9277 34.5991 74.1133 45.8591 77.1921C57.0691 80.2531 68.6591 83.4209 91.4591 83.4209C114.259 83.4209 125.849 80.2531 137.059 77.1921C148.319 74.1133 159.969 70.9277 182.879 70.9277V71.5862C160.079 71.5862 148.489 74.754 137.279 77.815C126.019 80.8938 114.369 84.0705 91.4591 84.0705V84.0793Z" fill="url(#paint14_linear_977_391)"/>
<path d="M457.149 164.76C434.049 164.76 422.309 161.556 410.949 158.451C399.829 155.416 388.329 152.266 365.719 152.266V149.33C388.819 149.33 400.559 152.533 411.919 155.639C423.039 158.673 434.539 161.823 457.149 161.823C479.759 161.823 491.259 158.682 502.379 155.639C513.729 152.533 525.469 149.33 548.579 149.33V152.266C525.969 152.266 514.469 155.408 503.349 158.451C491.999 161.556 480.259 164.76 457.149 164.76Z" fill="url(#paint15_linear_977_391)"/>
<path d="M457.149 158.994C434.059 158.994 422.329 155.791 410.979 152.685C399.849 149.642 388.349 146.501 365.729 146.501V143.725C388.819 143.725 400.549 146.928 411.899 150.033C423.029 153.077 434.529 156.218 457.149 156.218C479.769 156.218 491.279 153.077 502.399 150.033C513.749 146.937 525.479 143.725 548.569 143.725V146.501C525.949 146.501 514.439 149.642 503.319 152.685C491.969 155.782 480.239 158.994 457.149 158.994Z" fill="url(#paint16_linear_977_391)"/>
<path d="M457.149 153.236C434.069 153.236 422.349 150.033 411.009 146.936C399.879 143.893 388.369 140.752 365.729 140.752V138.136C388.809 138.136 400.529 141.339 411.869 144.436C422.999 147.479 434.509 150.62 457.149 150.62C479.789 150.62 491.299 147.47 502.429 144.436C513.769 141.339 525.499 138.136 548.569 138.136V140.752C525.929 140.752 514.419 143.902 503.289 146.936C491.949 150.033 480.219 153.236 457.149 153.236Z" fill="url(#paint17_linear_977_391)"/>
<path d="M457.149 147.47C434.089 147.47 422.369 144.267 411.029 141.17C399.889 138.127 388.369 134.977 365.719 134.977V132.53C388.779 132.53 400.499 135.734 411.839 138.83C422.979 141.873 434.499 145.023 457.149 145.023C479.799 145.023 491.319 141.873 502.459 138.83C513.789 135.734 525.509 132.53 548.579 132.53V134.977C525.929 134.977 514.409 138.127 503.269 141.17C491.939 144.267 480.219 147.47 457.149 147.47Z" fill="url(#paint18_linear_977_391)"/>
<path d="M457.149 141.705C434.099 141.705 422.389 138.501 411.059 135.405C399.909 132.362 388.389 129.212 365.729 129.212V126.925C388.779 126.925 400.489 130.128 411.819 133.225C422.969 136.268 434.489 139.418 457.149 139.418C479.809 139.418 491.339 136.268 502.479 133.225C513.809 130.128 525.519 126.925 548.569 126.925V129.212C525.909 129.212 514.379 132.362 503.229 135.405C491.899 138.501 480.189 141.705 457.139 141.705H457.149Z" fill="url(#paint19_linear_977_391)"/>
<path d="M457.149 135.947C434.109 135.947 422.409 132.753 411.089 129.656C399.939 126.613 388.409 123.454 365.729 123.454V121.327C388.769 121.327 400.469 124.522 411.789 127.618C422.939 130.661 434.469 133.82 457.149 133.82C479.829 133.82 491.359 130.67 502.509 127.618C513.829 124.522 525.539 121.327 548.569 121.327V123.454C525.889 123.454 514.359 126.604 503.209 129.656C491.889 132.753 480.179 135.947 457.149 135.947Z" fill="url(#paint20_linear_977_391)"/>
<path d="M457.148 130.181C434.128 130.181 422.429 126.987 411.118 123.89C399.958 120.838 388.419 117.688 365.729 117.688V115.73C388.749 115.73 400.449 118.925 411.759 122.022C422.919 125.074 434.458 128.224 457.148 128.224C479.838 128.224 491.379 125.074 502.539 122.022C513.849 118.925 525.549 115.73 548.579 115.73V117.688C525.889 117.688 514.349 120.838 503.189 123.89C491.879 126.987 480.179 130.181 457.159 130.181H457.148Z" fill="url(#paint21_linear_977_391)"/>
<path d="M457.149 124.415C434.139 124.415 422.449 121.221 411.139 118.133C399.969 115.081 388.429 111.931 365.729 111.931V110.134C388.739 110.134 400.428 113.328 411.739 116.416C422.909 119.468 434.449 122.618 457.149 122.618C479.849 122.618 491.399 119.459 502.559 116.416C513.869 113.328 525.559 110.134 548.569 110.134V111.931C525.869 111.931 514.319 115.09 503.149 118.133C491.839 121.221 480.149 124.415 457.139 124.415H457.149Z" fill="url(#paint22_linear_977_391)"/>
<path d="M457.149 118.658C434.159 118.658 422.469 115.463 411.169 112.376C399.999 109.324 388.449 106.165 365.729 106.165V104.527C388.719 104.527 400.409 107.722 411.709 110.81C422.879 113.862 434.429 117.02 457.149 117.02C479.869 117.02 491.419 113.862 502.589 110.81C513.889 107.722 525.579 104.527 548.569 104.527V106.165C525.849 106.165 514.299 109.324 503.129 112.376C491.829 115.463 480.139 118.658 457.149 118.658Z" fill="url(#paint23_linear_977_391)"/>
<path d="M457.148 112.892C434.168 112.892 422.489 109.698 411.199 106.619C400.019 103.567 388.459 100.408 365.729 100.408V98.9307C388.709 98.9307 400.388 102.125 411.678 105.204C422.858 108.256 434.418 111.415 457.148 111.415C479.878 111.415 491.438 108.256 502.618 105.204C513.908 102.116 525.589 98.9307 548.579 98.9307V100.408C525.849 100.408 514.288 103.567 503.108 106.619C491.818 109.706 480.139 112.892 457.159 112.892H457.148Z" fill="url(#paint24_linear_977_391)"/>
<path d="M457.149 107.125C434.179 107.125 422.509 103.94 411.219 100.852C400.039 97.8 388.469 94.6323 365.719 94.6323V93.3242C388.689 93.3242 400.359 96.5098 411.649 99.5975C422.829 102.65 434.399 105.817 457.149 105.817C479.899 105.817 491.459 102.658 502.649 99.5975C513.939 96.5098 525.609 93.3242 548.579 93.3242V94.6323C525.829 94.6323 514.269 97.7911 503.079 100.852C491.789 103.94 480.119 107.125 457.149 107.125Z" fill="url(#paint25_linear_977_391)"/>
<path d="M457.149 101.369C434.199 101.369 422.529 98.183 411.249 95.0953C400.059 92.0343 388.489 88.8754 365.729 88.8754V87.7275C388.679 87.7275 400.349 90.9131 411.629 94.0008C422.819 97.0618 434.389 100.221 457.149 100.221C479.909 100.221 491.479 97.0618 502.669 94.0008C513.949 90.922 525.619 87.7275 548.569 87.7275V88.8754C525.809 88.8754 514.239 92.0343 503.049 95.0953C491.769 98.1741 480.099 101.369 457.149 101.369Z" fill="url(#paint26_linear_977_391)"/>
<path d="M457.149 95.6028C434.209 95.6028 422.549 92.4172 411.279 89.3384C400.079 86.2774 388.499 83.1186 365.729 83.1186V82.1309C388.669 82.1309 400.329 85.3164 411.599 88.3952C422.799 91.4562 434.379 94.6151 457.149 94.6151C479.919 94.6151 491.499 91.4473 502.699 88.3952C513.979 85.3164 525.639 82.1309 548.569 82.1309V83.1186C525.799 83.1186 514.219 86.2863 503.019 89.3384C491.739 92.4172 480.079 95.6028 457.149 95.6028Z" fill="url(#paint27_linear_977_391)"/>
<path d="M457.149 89.8363C434.229 89.8363 422.569 86.6507 411.299 83.5719C400.099 80.5109 388.509 77.3432 365.719 77.3432V76.5156C388.649 76.5156 400.299 79.7012 411.569 82.78C422.769 85.841 434.359 89.0088 457.149 89.0088C479.939 89.0088 491.519 85.841 502.729 82.78C513.999 79.7012 525.649 76.5156 548.579 76.5156V77.3432C525.789 77.3432 514.209 80.5109 502.999 83.5719C491.729 86.6507 480.079 89.8363 457.149 89.8363Z" fill="url(#paint28_linear_977_391)"/>
<path d="M457.149 84.0793C434.239 84.0793 422.588 80.8938 411.328 77.815C400.118 74.754 388.529 71.5862 365.729 71.5862V70.9277C388.639 70.9277 400.288 74.1133 411.548 77.1921C422.758 80.2531 434.349 83.4209 457.149 83.4209C479.949 83.4209 491.539 80.2531 502.749 77.1921C514.009 74.1133 525.659 70.9277 548.569 70.9277V71.5862C525.769 71.5862 514.179 74.754 502.969 77.815C491.709 80.8938 480.059 84.0705 457.149 84.0705V84.0793Z" fill="url(#paint29_linear_977_391)"/>
<path d="M365.729 152.978C342.629 152.978 330.889 149.775 319.529 146.67C308.409 143.635 296.909 140.485 274.299 140.485C251.689 140.485 240.189 143.626 229.069 146.67C217.719 149.775 205.979 152.978 182.869 152.978V150.042C205.479 150.042 216.979 146.901 228.099 143.858C239.449 140.752 251.189 137.549 274.299 137.549C297.409 137.549 309.139 140.752 320.499 143.858C331.619 146.901 343.119 150.042 365.729 150.042V152.978Z" fill="url(#paint30_linear_977_391)"/>
<path d="M365.729 158.585C342.639 158.585 330.909 155.381 319.559 152.276C308.429 149.233 296.929 146.092 274.309 146.092C251.689 146.092 240.179 149.233 229.059 152.276C217.709 155.373 205.979 158.585 182.889 158.585V155.809C205.509 155.809 217.019 152.667 228.139 149.624C239.489 146.528 251.219 143.315 274.309 143.315C297.399 143.315 309.129 146.519 320.479 149.624C331.609 152.667 343.109 155.809 365.729 155.809V158.585Z" fill="url(#paint31_linear_977_391)"/>
<path d="M365.729 164.181C342.649 164.181 330.929 160.978 319.589 157.881C308.459 154.838 296.949 151.697 274.309 151.697C251.669 151.697 240.159 154.847 229.029 157.881C217.689 160.978 205.959 164.181 182.889 164.181V161.565C205.529 161.565 217.039 158.415 228.169 155.381C239.509 152.284 251.239 149.081 274.309 149.081C297.379 149.081 309.109 152.284 320.449 155.381C331.579 158.424 343.099 161.565 365.729 161.565V164.181Z" fill="url(#paint32_linear_977_391)"/>
<path d="M365.729 169.787C342.669 169.787 330.949 166.583 319.609 163.487C308.469 160.444 296.949 157.294 274.299 157.294C251.649 157.294 240.129 160.444 228.989 163.487C217.659 166.583 205.939 169.787 182.869 169.787V167.34C205.519 167.34 217.039 164.19 228.179 161.147C239.509 158.05 251.229 154.847 274.299 154.847C297.369 154.847 309.079 158.05 320.419 161.147C331.559 164.19 343.079 167.34 365.729 167.34V169.787Z" fill="url(#paint33_linear_977_391)"/>
<path d="M365.729 175.384C342.679 175.384 330.969 172.181 319.639 169.085C308.489 166.041 296.969 162.891 274.309 162.891C251.649 162.891 240.119 166.041 228.979 169.085C217.649 172.181 205.939 175.384 182.889 175.384V173.098C205.549 173.098 217.079 169.948 228.219 166.904C239.549 163.808 251.259 160.604 274.309 160.604C297.359 160.604 309.069 163.808 320.399 166.904C331.549 169.948 343.069 173.098 365.729 173.098V175.384Z" fill="url(#paint34_linear_977_391)"/>
<path d="M365.729 180.981C342.689 180.981 330.989 177.787 319.669 174.69C308.519 171.647 296.989 168.488 274.309 168.488C251.629 168.488 240.099 171.638 228.949 174.69C217.629 177.787 205.919 180.981 182.889 180.981V178.854C205.569 178.854 217.099 175.704 228.249 172.652C239.569 169.556 251.279 166.361 274.309 166.361C297.339 166.361 309.049 169.556 320.369 172.652C331.519 175.696 343.049 178.854 365.729 178.854V180.981Z" fill="url(#paint35_linear_977_391)"/>
<path d="M365.729 186.587C342.709 186.587 331.009 183.393 319.689 180.296C308.529 177.244 296.989 174.094 274.299 174.094C251.609 174.094 240.069 177.244 228.909 180.296C217.599 183.384 205.899 186.587 182.879 186.587V184.63C205.569 184.63 217.109 181.48 228.269 178.428C239.579 175.34 251.279 172.137 274.299 172.137C297.319 172.137 309.019 175.331 320.329 178.428C331.489 181.48 343.029 184.63 365.719 184.63V186.587H365.729Z" fill="url(#paint36_linear_977_391)"/>
<path d="M365.729 192.184C342.719 192.184 331.029 188.99 319.719 185.902C308.549 182.85 297.009 179.7 274.309 179.7C251.609 179.7 240.059 182.859 228.899 185.902C217.589 188.99 205.899 192.184 182.889 192.184V190.387C205.589 190.387 217.139 187.228 228.299 184.185C239.609 181.097 251.299 177.902 274.309 177.902C297.319 177.902 309.009 181.097 320.319 184.185C331.489 187.237 343.029 190.387 365.739 190.387V192.184H365.729Z" fill="url(#paint37_linear_977_391)"/>
<path d="M365.729 197.791C342.739 197.791 331.049 194.596 319.749 191.508C308.579 188.456 297.029 185.297 274.309 185.297C251.589 185.297 240.039 188.456 228.869 191.508C217.569 194.596 205.879 197.791 182.889 197.791V196.153C205.609 196.153 217.159 192.994 228.329 189.942C239.629 186.855 251.319 183.66 274.309 183.66C297.299 183.66 308.989 186.855 320.289 189.942C331.459 192.994 343.009 196.153 365.729 196.153V197.791Z" fill="url(#paint38_linear_977_391)"/>
</g>
</g>
<defs>
<linearGradient id="paint0_linear_977_391" x1="91.4593" y1="74.9229" x2="91.4593" y2="181.604" gradientUnits="userSpaceOnUse">
<stop stop-color="#5D95C3" stop-opacity="0"/>
<stop offset="1" stop-color="#5D95C3"/>
</linearGradient>
<linearGradient id="paint1_linear_977_391" x1="91.4591" y1="74.9234" x2="91.4591" y2="181.604" gradientUnits="userSpaceOnUse">
<stop stop-color="#5D95C3" stop-opacity="0"/>
<stop offset="1" stop-color="#5D95C3"/>
</linearGradient>
<linearGradient id="paint2_linear_977_391" x1="91.4591" y1="74.9226" x2="91.4591" y2="181.604" gradientUnits="userSpaceOnUse">
<stop stop-color="#5D95C3" stop-opacity="0"/>
<stop offset="1" stop-color="#5D95C3"/>
</linearGradient>
<linearGradient id="paint3_linear_977_391" x1="91.4593" y1="74.923" x2="91.4593" y2="181.604" gradientUnits="userSpaceOnUse">
<stop stop-color="#5D95C3" stop-opacity="0"/>
<stop offset="1" stop-color="#5D95C3"/>
</linearGradient>
<linearGradient id="paint4_linear_977_391" x1="91.4591" y1="74.9234" x2="91.4591" y2="181.605" gradientUnits="userSpaceOnUse">
<stop stop-color="#5D95C3" stop-opacity="0"/>
<stop offset="1" stop-color="#5D95C3"/>
</linearGradient>
<linearGradient id="paint5_linear_977_391" x1="91.4591" y1="74.9228" x2="91.4591" y2="181.604" gradientUnits="userSpaceOnUse">
<stop stop-color="#5D95C3" stop-opacity="0"/>
<stop offset="1" stop-color="#5D95C3"/>
</linearGradient>
<linearGradient id="paint6_linear_977_391" x1="91.4591" y1="74.9231" x2="91.4591" y2="181.604" gradientUnits="userSpaceOnUse">
<stop stop-color="#5D95C3" stop-opacity="0"/>
<stop offset="1" stop-color="#5D95C3"/>
</linearGradient>
<linearGradient id="paint7_linear_977_391" x1="91.4591" y1="74.9234" x2="91.4591" y2="181.605" gradientUnits="userSpaceOnUse">
<stop stop-color="#5D95C3" stop-opacity="0"/>
<stop offset="1" stop-color="#5D95C3"/>
</linearGradient>
<linearGradient id="paint8_linear_977_391" x1="91.4591" y1="74.9229" x2="91.4591" y2="181.604" gradientUnits="userSpaceOnUse">
<stop stop-color="#5D95C3" stop-opacity="0"/>
<stop offset="1" stop-color="#5D95C3"/>
</linearGradient>
<linearGradient id="paint9_linear_977_391" x1="91.4591" y1="74.9232" x2="91.4591" y2="181.604" gradientUnits="userSpaceOnUse">
<stop stop-color="#5D95C3" stop-opacity="0"/>
<stop offset="1" stop-color="#5D95C3"/>
</linearGradient>
<linearGradient id="paint10_linear_977_391" x1="91.4593" y1="74.9226" x2="91.4593" y2="181.604" gradientUnits="userSpaceOnUse">
<stop stop-color="#5D95C3" stop-opacity="0"/>
<stop offset="1" stop-color="#5D95C3"/>
</linearGradient>
<linearGradient id="paint11_linear_977_391" x1="91.4591" y1="74.923" x2="91.4591" y2="181.604" gradientUnits="userSpaceOnUse">
<stop stop-color="#5D95C3" stop-opacity="0"/>
<stop offset="1" stop-color="#5D95C3"/>
</linearGradient>
<linearGradient id="paint12_linear_977_391" x1="91.4591" y1="74.9233" x2="91.4591" y2="181.604" gradientUnits="userSpaceOnUse">
<stop stop-color="#5D95C3" stop-opacity="0"/>
<stop offset="1" stop-color="#5D95C3"/>
</linearGradient>
<linearGradient id="paint13_linear_977_391" x1="91.4593" y1="74.9228" x2="91.4593" y2="181.604" gradientUnits="userSpaceOnUse">
<stop stop-color="#5D95C3" stop-opacity="0"/>
<stop offset="1" stop-color="#5D95C3"/>
</linearGradient>
<linearGradient id="paint14_linear_977_391" x1="91.4591" y1="74.923" x2="91.4591" y2="181.604" gradientUnits="userSpaceOnUse">
<stop stop-color="#5D95C3" stop-opacity="0"/>
<stop offset="1" stop-color="#5D95C3"/>
</linearGradient>
<linearGradient id="paint15_linear_977_391" x1="457.149" y1="74.9229" x2="457.149" y2="181.604" gradientUnits="userSpaceOnUse">
<stop stop-color="#5D95C3" stop-opacity="0"/>
<stop offset="1" stop-color="#5D95C3"/>
</linearGradient>
<linearGradient id="paint16_linear_977_391" x1="457.149" y1="74.9234" x2="457.149" y2="181.604" gradientUnits="userSpaceOnUse">
<stop stop-color="#5D95C3" stop-opacity="0"/>
<stop offset="1" stop-color="#5D95C3"/>
</linearGradient>
<linearGradient id="paint17_linear_977_391" x1="457.149" y1="74.9226" x2="457.149" y2="181.604" gradientUnits="userSpaceOnUse">
<stop stop-color="#5D95C3" stop-opacity="0"/>
<stop offset="1" stop-color="#5D95C3"/>
</linearGradient>
<linearGradient id="paint18_linear_977_391" x1="457.149" y1="74.923" x2="457.149" y2="181.604" gradientUnits="userSpaceOnUse">
<stop stop-color="#5D95C3" stop-opacity="0"/>
<stop offset="1" stop-color="#5D95C3"/>
</linearGradient>
<linearGradient id="paint19_linear_977_391" x1="457.149" y1="74.9234" x2="457.149" y2="181.605" gradientUnits="userSpaceOnUse">
<stop stop-color="#5D95C3" stop-opacity="0"/>
<stop offset="1" stop-color="#5D95C3"/>
</linearGradient>
<linearGradient id="paint20_linear_977_391" x1="457.149" y1="74.9228" x2="457.149" y2="181.604" gradientUnits="userSpaceOnUse">
<stop stop-color="#5D95C3" stop-opacity="0"/>
<stop offset="1" stop-color="#5D95C3"/>
</linearGradient>
<linearGradient id="paint21_linear_977_391" x1="457.149" y1="74.9231" x2="457.149" y2="181.604" gradientUnits="userSpaceOnUse">
<stop stop-color="#5D95C3" stop-opacity="0"/>
<stop offset="1" stop-color="#5D95C3"/>
</linearGradient>
<linearGradient id="paint22_linear_977_391" x1="457.149" y1="74.9234" x2="457.149" y2="181.605" gradientUnits="userSpaceOnUse">
<stop stop-color="#5D95C3" stop-opacity="0"/>
<stop offset="1" stop-color="#5D95C3"/>
</linearGradient>
<linearGradient id="paint23_linear_977_391" x1="457.149" y1="74.9229" x2="457.149" y2="181.604" gradientUnits="userSpaceOnUse">
<stop stop-color="#5D95C3" stop-opacity="0"/>
<stop offset="1" stop-color="#5D95C3"/>
</linearGradient>
<linearGradient id="paint24_linear_977_391" x1="457.149" y1="74.9232" x2="457.149" y2="181.604" gradientUnits="userSpaceOnUse">
<stop stop-color="#5D95C3" stop-opacity="0"/>
<stop offset="1" stop-color="#5D95C3"/>
</linearGradient>
<linearGradient id="paint25_linear_977_391" x1="457.149" y1="74.9226" x2="457.149" y2="181.604" gradientUnits="userSpaceOnUse">
<stop stop-color="#5D95C3" stop-opacity="0"/>
<stop offset="1" stop-color="#5D95C3"/>
</linearGradient>
<linearGradient id="paint26_linear_977_391" x1="457.149" y1="74.923" x2="457.149" y2="181.604" gradientUnits="userSpaceOnUse">
<stop stop-color="#5D95C3" stop-opacity="0"/>
<stop offset="1" stop-color="#5D95C3"/>
</linearGradient>
<linearGradient id="paint27_linear_977_391" x1="457.149" y1="74.9233" x2="457.149" y2="181.604" gradientUnits="userSpaceOnUse">
<stop stop-color="#5D95C3" stop-opacity="0"/>
<stop offset="1" stop-color="#5D95C3"/>
</linearGradient>
<linearGradient id="paint28_linear_977_391" x1="457.149" y1="74.9228" x2="457.149" y2="181.604" gradientUnits="userSpaceOnUse">
<stop stop-color="#5D95C3" stop-opacity="0"/>
<stop offset="1" stop-color="#5D95C3"/>
</linearGradient>
<linearGradient id="paint29_linear_977_391" x1="457.149" y1="74.923" x2="457.149" y2="181.604" gradientUnits="userSpaceOnUse">
<stop stop-color="#5D95C3" stop-opacity="0"/>
<stop offset="1" stop-color="#5D95C3"/>
</linearGradient>
<linearGradient id="paint30_linear_977_391" x1="274.309" y1="74.9229" x2="274.309" y2="181.604" gradientUnits="userSpaceOnUse">
<stop stop-color="#5D95C3" stop-opacity="0"/>
<stop offset="1" stop-color="#5D95C3"/>
</linearGradient>
<linearGradient id="paint31_linear_977_391" x1="274.309" y1="74.9234" x2="274.309" y2="181.605" gradientUnits="userSpaceOnUse">
<stop stop-color="#5D95C3" stop-opacity="0"/>
<stop offset="1" stop-color="#5D95C3"/>
</linearGradient>
<linearGradient id="paint32_linear_977_391" x1="274.309" y1="74.923" x2="274.309" y2="181.604" gradientUnits="userSpaceOnUse">
<stop stop-color="#5D95C3" stop-opacity="0"/>
<stop offset="1" stop-color="#5D95C3"/>
</linearGradient>
<linearGradient id="paint33_linear_977_391" x1="274.309" y1="74.9226" x2="274.309" y2="181.604" gradientUnits="userSpaceOnUse">
<stop stop-color="#5D95C3" stop-opacity="0"/>
<stop offset="1" stop-color="#5D95C3"/>
</linearGradient>
<linearGradient id="paint34_linear_977_391" x1="274.309" y1="74.9232" x2="274.309" y2="181.604" gradientUnits="userSpaceOnUse">
<stop stop-color="#5D95C3" stop-opacity="0"/>
<stop offset="1" stop-color="#5D95C3"/>
</linearGradient>
<linearGradient id="paint35_linear_977_391" x1="274.309" y1="74.9229" x2="274.309" y2="181.604" gradientUnits="userSpaceOnUse">
<stop stop-color="#5D95C3" stop-opacity="0"/>
<stop offset="1" stop-color="#5D95C3"/>
</linearGradient>
<linearGradient id="paint36_linear_977_391" x1="274.309" y1="74.9233" x2="274.309" y2="181.604" gradientUnits="userSpaceOnUse">
<stop stop-color="#5D95C3" stop-opacity="0"/>
<stop offset="1" stop-color="#5D95C3"/>
</linearGradient>
<linearGradient id="paint37_linear_977_391" x1="274.309" y1="74.9229" x2="274.309" y2="181.604" gradientUnits="userSpaceOnUse">
<stop stop-color="#5D95C3" stop-opacity="0"/>
<stop offset="1" stop-color="#5D95C3"/>
</linearGradient>
<linearGradient id="paint38_linear_977_391" x1="274.309" y1="74.9235" x2="274.309" y2="181.605" gradientUnits="userSpaceOnUse">
<stop stop-color="#5D95C3" stop-opacity="0"/>
<stop offset="1" stop-color="#5D95C3"/>
</linearGradient>
</defs>
</svg>
