<svg width="175" height="864" viewBox="0 0 175 864" fill="none" xmlns="http://www.w3.org/2000/svg">
<g clip-path="url(#clip0_2014_1248)">
<path d="M-47.5453 431.911C-47.5453 323.311 -30.6174 268.101 -14.2608 214.733C1.91648 161.925 18.6651 107.322 18.6651 -0.0999756H26.4849C26.4849 108.478 9.557 163.676 -6.79955 217.056C-22.9768 269.864 -39.7255 324.5 -39.7255 431.911C-39.7255 539.333 -22.9768 593.936 -6.79955 646.744C9.557 700.113 26.4849 755.322 26.4849 863.9H18.6651C18.6651 756.478 1.91648 701.875 -14.2608 649.067C-30.6174 595.699 -47.5453 540.489 -47.5453 431.911Z" fill="#ADD5EE"/>
<path d="M-16.9944 431.911C-16.9944 323.389 -0.0888786 268.202 16.2677 214.856C32.4786 162.026 49.2272 107.367 49.2272 -0.0999756H56.1732C56.1732 108.422 39.2677 163.575 22.9111 216.921C6.70021 269.751 -10.0372 324.411 -10.0372 431.911C-10.0372 539.378 6.71141 594.037 22.9111 646.879C39.2677 700.225 56.1732 755.378 56.1732 863.9H49.2272C49.2272 756.433 32.4786 701.774 16.2789 648.933C-0.077673 595.586 -16.9832 540.433 -16.9832 431.911H-16.9944Z" fill="#ADD5EE"/>
<path d="M13.5677 431.911C13.5677 323.434 30.4732 268.315 46.8074 214.991C63.0183 162.105 79.7893 107.445 79.7893 -0.0999756H85.8614C85.8614 108.343 68.9559 163.474 52.6218 216.798C36.4109 269.684 19.6398 324.366 19.6398 431.911C19.6398 539.457 36.4109 594.116 52.6218 647.002C68.9559 700.326 85.8614 755.445 85.8614 863.9H79.7893C79.7893 756.355 63.0183 701.695 46.8074 648.809C30.4732 595.485 13.5677 540.366 13.5677 431.911Z" fill="#ADD5EE"/>
<path d="M44.1074 431.911C44.1074 323.513 61.0129 268.416 77.3135 215.114C93.5468 162.217 110.295 107.502 110.295 -0.0999756H115.538C115.538 108.298 98.633 163.373 82.3324 216.663C66.0991 269.572 49.3505 324.287 49.3505 431.911C49.3505 539.513 66.0991 594.228 82.3324 647.137C98.6442 700.438 115.538 755.513 115.538 863.9H110.295C110.295 756.298 93.5468 701.583 77.3135 648.674C61.0017 595.373 44.1074 540.298 44.1074 431.911Z" fill="#ADD5EE"/>
<path d="M74.6471 431.911C74.6471 323.569 91.519 268.494 107.853 215.249C124.086 162.318 140.858 107.58 140.858 -0.0999756H145.227C145.227 108.22 128.355 163.295 112.021 216.54C95.7874 269.471 79.0163 324.242 79.0163 431.911C79.0163 539.58 95.7874 594.329 112.021 647.26C128.355 700.505 145.227 755.58 145.227 863.9H140.858C140.858 756.22 124.086 701.482 107.853 648.551C91.519 595.306 74.6471 540.231 74.6471 431.911Z" fill="#ADD5EE"/>
<path d="M105.198 431.911C105.198 323.647 122.07 268.595 138.382 215.372C154.615 162.419 171.42 107.625 171.42 -0.0999756H174.915C174.915 108.164 158.043 163.194 141.731 216.405C125.498 269.392 108.705 324.153 108.705 431.911C108.705 539.636 125.498 594.43 141.731 647.395C158.043 700.618 174.915 755.636 174.915 863.9H171.42C171.42 756.175 154.626 701.381 138.393 648.416C122.081 595.194 105.209 540.175 105.209 431.911H105.198Z" fill="#ADD5EE"/>
</g>
<defs>
<clipPath id="clip0_2014_1248">
<rect width="253" height="864" fill="white" transform="translate(-78.085 -0.0999756)"/>
</clipPath>
</defs>
</svg>
