<svg width="389" height="124" viewBox="0 0 389 124" fill="none" xmlns="http://www.w3.org/2000/svg">
<mask id="mask0_2203_9155" style="mask-type:luminance" maskUnits="userSpaceOnUse" x="0" y="0" width="389" height="124">
<path d="M388.604 123.63V0L0 0V123.63L388.604 123.63Z" fill="white"/>
</mask>
<g mask="url(#mask0_2203_9155)">
<path d="M194.294 -29.7001C243.314 -29.7001 268.233 -19.6101 292.325 -9.86008C316.16 -0.220078 340.814 9.75993 389.302 9.75993V14.4199C340.29 14.4199 315.371 4.32993 291.278 -5.42007C267.444 -15.0601 242.782 -25.0401 194.294 -25.0401C145.806 -25.0401 121.16 -15.0601 97.3179 -5.42007C73.2331 4.32993 48.3137 14.4199 -0.69812 14.4199V9.75993C47.7901 9.75993 72.4364 -0.220078 96.2783 -9.86008C120.371 -19.6101 145.29 -29.7001 194.302 -29.7001H194.294Z" fill="#B6D5EC"/>
<path d="M194.294 -11.49C243.283 -11.49 268.188 -1.42 292.272 8.33C316.122 17.99 340.791 27.97 389.302 27.97V32.11C340.313 32.11 315.416 22.04 291.339 12.29C267.489 2.63001 242.82 -7.34999 194.294 -7.34999C145.783 -7.34999 121.107 2.63001 97.2648 12.29C73.1876 22.04 48.2909 32.11 -0.69812 32.11V27.97C47.8129 27.97 72.4895 17.99 96.3314 8.33C120.409 -1.42 145.305 -11.49 194.294 -11.49Z" fill="#B6D5EC"/>
<path d="M194.294 6.72998C243.261 6.72998 268.142 16.8 292.212 26.54C316.084 36.2 340.761 46.19 389.302 46.19V49.81C340.351 49.81 315.469 39.74 291.4 30C267.527 20.34 242.843 10.35 194.294 10.35C145.745 10.35 121.076 20.35 97.204 30C73.1345 39.73 48.253 49.8 -0.69812 49.8V46.18C47.8508 46.18 72.5198 36.18 96.3921 26.53C120.462 16.79 145.343 6.71997 194.294 6.71997V6.72998Z" fill="#B6D5EC"/>
<path d="M194.294 24.9199C243.223 24.9199 268.096 34.9899 292.151 44.7099C316.031 54.3799 340.73 64.3599 389.302 64.3599V67.4899C340.374 67.4899 315.515 57.4199 291.453 47.6999C267.573 38.0299 242.874 28.0499 194.294 28.0499C145.723 28.0499 121.031 38.0299 97.1433 47.6999C73.0889 57.4199 48.2302 67.4999 -0.69812 67.4999V64.3699C47.8736 64.3699 72.5654 54.3899 96.4528 44.7199C120.507 34.9999 145.374 24.9299 194.302 24.9299L194.294 24.9199Z" fill="#B6D5EC"/>
<path d="M194.294 43.12C243.2 43.12 268.059 53.18 292.098 62.91C315.993 72.58 340.7 82.58 389.302 82.58V85.19C340.404 85.19 315.545 75.13 291.514 65.4C267.618 55.73 242.896 45.73 194.294 45.73C145.692 45.73 120.985 55.73 97.0902 65.4C73.0586 75.13 48.1998 85.19 -0.69812 85.19V82.58C47.9039 82.58 72.6109 72.58 96.5059 62.91C120.538 53.17 145.404 43.12 194.294 43.12Z" fill="#B6D5EC"/>
<path d="M194.294 61.33C243.162 61.33 268.013 71.39 292.037 81.11C315.94 90.78 340.677 100.79 389.302 100.79V102.87C340.434 102.87 315.591 92.81 291.574 83.09C267.656 73.42 242.934 63.41 194.294 63.41C145.669 63.41 120.932 73.42 97.0295 83.09C73.0131 92.82 48.1695 102.88 -0.69812 102.88V100.8C47.9267 100.8 72.664 90.79 96.5666 81.12C120.591 71.4 145.427 61.34 194.294 61.34V61.33Z" fill="#B6D5EC"/>
</g>
</svg>
