<svg width="390" height="158" viewBox="0 0 390 158" fill="none" xmlns="http://www.w3.org/2000/svg">
<mask id="mask0_1017_294" style="mask-type:alpha" maskUnits="userSpaceOnUse" x="0" y="0" width="390" height="158">
<rect width="390" height="158" fill="#D9D9D9"/>
</mask>
<g mask="url(#mask0_1017_294)">
<mask id="mask1_1017_294" style="mask-type:luminance" maskUnits="userSpaceOnUse" x="0" y="0" width="390" height="159">
<path d="M390 0H0V158.483H390V0Z" fill="white"/>
</mask>
<g mask="url(#mask1_1017_294)">
<path d="M521.009 11.3931V80.3818H-130.309V11.3931C-115.137 11.5457 -107.185 13.9878 -99.4773 16.3612C-91.3422 18.8567 -82.9323 21.4362 -66.3872 21.4362C-49.8421 21.4362 -41.4322 18.8567 -33.3046 16.3612C-25.3374 13.9115 -17.103 11.3855 -0.916563 11.3855V10.4315C15.4912 10.4315 23.8324 7.87499 31.8989 5.39475C39.9272 2.92978 48.2303 0.380859 64.5617 0.380859C80.8931 0.380859 89.1961 2.92978 97.2245 5.39475C105.291 7.87499 113.632 10.4315 130.04 10.4315V11.3855C146.234 11.3855 154.468 13.9115 162.428 16.3612C170.563 18.8567 178.973 21.4362 195.518 21.4362C212.063 21.4362 220.473 18.8567 228.601 16.3612C236.568 13.9115 244.802 11.3855 260.989 11.3855V10.4315C277.396 10.4315 285.738 7.87499 293.812 5.39475C301.833 2.92978 310.143 0.380859 326.467 0.380859C342.791 0.380859 351.102 2.92978 359.13 5.39475C367.196 7.87499 375.538 10.4315 391.945 10.4315V11.3855C408.139 11.3855 416.374 13.9115 424.333 16.3612C432.469 18.8567 440.878 21.4362 457.424 21.4362C473.969 21.4362 482.378 18.8567 490.506 16.3612C498.153 14.0107 506.051 11.5839 521.002 11.3931H521.009Z" fill="white"/>
<path d="M390.884 76.6347C374.423 76.6347 366.066 74.0629 357.977 71.5826C350.055 69.1482 341.867 66.6374 325.764 66.6374C309.662 66.6374 301.473 69.1482 293.552 71.5826C285.462 74.0629 277.098 76.6347 260.645 76.6347V74.2766C276.747 74.2766 284.936 71.7658 292.857 69.3313C300.946 66.8511 309.311 64.2793 325.764 64.2793C342.218 64.2793 350.582 66.8511 358.671 69.3313C366.593 71.7658 374.781 74.2766 390.884 74.2766V76.6347Z" fill="url(#paint0_linear_1017_294)"/>
<path d="M390.884 81.1221C374.438 81.1221 366.074 78.5503 358 76.0701C350.07 73.6356 341.882 71.1173 325.764 71.1173C309.646 71.1173 301.458 73.6356 293.529 76.0701C285.447 78.5503 277.09 81.1221 260.645 81.1221V78.9014C276.762 78.9014 284.951 76.383 292.88 73.9485C300.962 71.4683 309.318 68.8965 325.764 68.8965C342.21 68.8965 350.574 71.4683 358.648 73.9485C366.577 76.383 374.766 78.9014 390.884 78.9014V81.1221Z" fill="url(#paint1_linear_1017_294)"/>
<path d="M390.885 85.602C374.447 85.602 366.091 83.0378 358.016 80.5575C350.087 78.1231 341.883 75.6047 325.758 75.6047C309.633 75.6047 301.436 78.1231 293.5 80.5575C285.426 83.0378 277.069 85.602 260.631 85.602V83.5109C276.756 83.5109 284.952 80.9925 292.889 78.5581C300.963 76.0779 309.32 73.5137 325.758 73.5137C342.196 73.5137 350.553 76.0779 358.627 78.5581C366.556 80.9925 374.76 83.5109 390.885 83.5109V85.602Z" fill="url(#paint2_linear_1017_294)"/>
<path d="M390.884 90.0816C374.461 90.0816 366.112 87.5251 358.038 85.0448C350.101 82.6104 341.897 80.0843 325.764 80.0843C309.631 80.0843 301.427 82.6027 293.491 85.0448C285.416 87.5251 277.068 90.0816 260.645 90.0816V88.1203C276.778 88.1203 284.981 85.6019 292.918 83.1598C300.992 80.6796 309.341 78.123 325.764 78.123C342.187 78.123 350.536 80.6796 358.61 83.1598C366.547 85.5943 374.751 88.1203 390.884 88.1203V90.0816Z" fill="url(#paint3_linear_1017_294)"/>
<path d="M390.885 94.5689C374.47 94.5689 366.129 92.0047 358.055 89.5244C350.11 87.09 341.906 84.564 325.758 84.564C309.61 84.564 301.406 87.0824 293.462 89.5244C285.395 92.0047 277.054 94.5689 260.631 94.5689V92.7373C276.771 92.7373 284.983 90.2189 292.927 87.7768C300.994 85.2966 309.335 82.7324 325.758 82.7324C342.181 82.7324 350.515 85.2966 358.589 87.7768C366.533 90.2113 374.737 92.7373 390.885 92.7373V94.5689Z" fill="url(#paint4_linear_1017_294)"/>
<path d="M390.884 99.0565C374.476 99.0565 366.135 96.5 358.076 94.0197C350.131 91.5776 341.92 89.0592 325.764 89.0592C309.608 89.0592 301.397 91.5776 293.452 94.0197C285.394 96.5 277.052 99.0565 260.645 99.0565V97.3547C276.8 97.3547 285.012 94.8363 292.956 92.3942C301.015 89.914 309.356 87.3574 325.764 87.3574C342.172 87.3574 350.513 89.914 358.572 92.3942C366.516 94.8363 374.728 97.3547 390.884 97.3547V99.0565Z" fill="url(#paint5_linear_1017_294)"/>
<path d="M390.885 103.536C374.485 103.536 366.152 100.979 358.093 98.4992C350.141 96.0571 341.922 93.5311 325.758 93.5311C309.595 93.5311 301.375 96.0571 293.423 98.4992C285.365 100.972 277.031 103.536 260.631 103.536V101.964C276.794 101.964 285.013 99.4379 292.966 96.9958C301.024 94.5232 309.358 91.959 325.758 91.959C342.158 91.959 350.492 94.5155 358.551 96.9958C366.503 99.4379 374.722 101.964 390.885 101.964V103.536Z" fill="url(#paint6_linear_1017_294)"/>
<path d="M390.884 108.016C374.499 108.016 366.165 105.459 358.114 102.987C350.154 100.545 341.935 98.0187 325.764 98.0187C309.593 98.0187 301.366 100.545 293.414 102.987C285.363 105.459 277.029 108.016 260.645 108.016V106.581C276.816 106.581 285.042 104.055 292.994 101.613C301.046 99.1405 309.379 96.584 325.764 96.584C342.149 96.584 350.483 99.1405 358.534 101.613C366.493 104.055 374.713 106.581 390.884 106.581V108.016Z" fill="url(#paint7_linear_1017_294)"/>
<path d="M390.884 112.503C374.506 112.503 366.181 109.947 358.129 107.474C350.17 105.032 341.943 102.506 325.764 102.506C309.585 102.506 301.351 105.032 293.399 107.474C285.348 109.947 277.022 112.503 260.645 112.503V111.191C276.823 111.191 285.058 108.665 293.01 106.223C301.061 103.75 309.387 101.193 325.764 101.193C342.141 101.193 350.467 103.75 358.518 106.223C366.478 108.665 374.705 111.191 390.884 111.191V112.503Z" fill="url(#paint8_linear_1017_294)"/>
<path d="M390.885 116.991C374.516 116.991 366.197 114.434 358.146 111.961C350.186 109.519 341.952 106.986 325.758 106.986C309.564 106.986 301.33 109.512 293.37 111.961C285.326 114.434 277 116.991 260.631 116.991V115.808C276.825 115.808 285.059 113.282 293.019 110.832C301.063 108.359 309.388 105.803 325.758 105.803C342.128 105.803 350.446 108.359 358.497 110.832C366.457 113.274 374.691 115.808 390.885 115.808V116.991Z" fill="url(#paint9_linear_1017_294)"/>
<path d="M390.884 121.471C374.522 121.471 366.211 118.922 358.167 116.449C350.2 113.999 341.966 111.473 325.764 111.473C309.562 111.473 301.32 113.999 293.361 116.449C285.317 118.914 277.006 121.471 260.645 121.471V120.425C276.846 120.425 285.088 117.899 293.048 115.449C301.091 112.984 309.402 110.428 325.764 110.428C342.126 110.428 350.437 112.977 358.48 115.449C366.448 117.899 374.682 120.425 390.884 120.425V121.471Z" fill="url(#paint10_linear_1017_294)"/>
<path d="M390.885 125.95C374.539 125.95 366.228 123.401 358.184 120.928C350.209 118.479 341.975 115.945 325.758 115.945C309.541 115.945 301.307 118.479 293.332 120.928C285.296 123.393 276.985 125.95 260.631 125.95V125.034C276.84 125.034 285.082 122.501 293.057 120.051C301.093 117.586 309.404 115.029 325.758 115.029C342.112 115.029 350.415 117.578 358.459 120.051C366.434 122.501 374.668 125.034 390.885 125.034V125.95Z" fill="url(#paint11_linear_1017_294)"/>
<path d="M390.884 130.437C374.545 130.437 366.242 127.888 358.206 125.416C350.231 122.966 341.981 120.432 325.764 120.432C309.547 120.432 301.298 122.966 293.323 125.416C285.287 127.881 276.984 130.437 260.645 130.437V129.644C276.861 129.644 285.111 127.11 293.086 124.66C301.122 122.195 309.425 119.639 325.764 119.639C342.103 119.639 350.406 122.188 358.442 124.66C366.417 127.11 374.667 129.644 390.884 129.644V130.437Z" fill="url(#paint12_linear_1017_294)"/>
<path d="M390.884 134.925C374.552 134.925 366.249 132.376 358.228 129.911C350.246 127.461 341.996 124.928 325.764 124.928C309.532 124.928 301.282 127.461 293.3 129.911C285.271 132.376 276.968 134.925 260.645 134.925V134.261C276.877 134.261 285.126 131.727 293.109 129.278C301.137 126.813 309.44 124.264 325.764 124.264C342.088 124.264 350.399 126.813 358.419 129.278C366.402 131.727 374.651 134.261 390.884 134.261V134.925Z" fill="url(#paint13_linear_1017_294)"/>
<path d="M390.885 138.878V139.405C374.562 139.405 366.274 136.863 358.245 134.398C350.263 131.949 341.998 129.415 325.758 129.415C309.518 129.415 301.261 131.949 293.279 134.398C285.25 136.863 276.955 139.405 260.639 139.405V138.878C276.878 138.878 285.136 136.337 293.126 133.887C301.147 131.422 309.442 128.881 325.766 128.881C342.09 128.881 350.385 131.422 358.406 133.887C366.388 136.337 374.646 138.878 390.885 138.878Z" fill="url(#paint14_linear_1017_294)"/>
<path d="M260.637 138V140.358C244.535 140.358 236.346 142.869 228.425 145.303C220.335 147.784 211.979 150.355 195.518 150.355C179.057 150.355 170.7 147.784 162.603 145.303C154.682 142.869 146.493 140.358 130.391 140.358V138C146.852 138 155.208 140.572 163.298 143.052C171.219 145.486 179.408 147.997 195.518 147.997C211.628 147.997 219.817 145.479 227.73 143.052C235.82 140.572 244.176 138 260.637 138Z" fill="url(#paint15_linear_1017_294)"/>
<path d="M195.518 145.739C179.064 145.739 170.708 143.168 162.626 140.687C154.697 138.253 146.501 135.734 130.391 135.734V133.514C146.836 133.514 155.193 136.085 163.275 138.566C171.204 141 179.4 143.519 195.51 143.519C211.62 143.519 219.817 141 227.746 138.566C235.827 136.085 244.184 133.514 260.63 133.514V135.734C244.512 135.734 236.323 138.253 228.394 140.687C220.313 143.168 211.956 145.739 195.51 145.739H195.518Z" fill="url(#paint16_linear_1017_294)"/>
<path d="M195.518 141.121C179.08 141.121 170.723 138.557 162.649 136.077C154.72 133.643 146.516 131.124 130.391 131.124V129.033C146.829 129.033 155.185 131.597 163.259 134.078C171.189 136.512 179.392 139.03 195.518 139.03C211.643 139.03 219.839 136.512 227.776 134.078C235.85 131.597 244.207 129.033 260.645 129.033V131.124C244.52 131.124 236.323 133.643 228.387 136.077C220.313 138.557 211.956 141.121 195.518 141.121Z" fill="url(#paint17_linear_1017_294)"/>
<path d="M195.518 136.511C179.087 136.511 170.738 133.955 162.664 131.474C154.727 129.04 146.524 126.514 130.391 126.514V124.553C146.814 124.553 155.162 127.109 163.237 129.59C171.173 132.024 179.377 134.55 195.518 134.55C211.658 134.55 219.855 132.032 227.791 129.59C235.866 127.109 244.214 124.553 260.637 124.553V126.514C244.504 126.514 236.301 129.032 228.364 131.474C220.29 133.955 211.941 136.511 195.518 136.511Z" fill="url(#paint18_linear_1017_294)"/>
<path d="M195.518 131.903C179.102 131.903 170.754 129.339 162.687 126.858C154.743 124.424 146.539 121.898 130.391 121.898V120.066C146.806 120.066 155.147 122.631 163.221 125.111C171.166 127.545 179.37 130.071 195.518 130.071C211.666 130.071 219.87 127.553 227.814 125.111C235.881 122.631 244.222 120.066 260.645 120.066V121.898C244.504 121.898 236.293 124.416 228.349 126.858C220.282 129.339 211.941 131.903 195.518 131.903Z" fill="url(#paint19_linear_1017_294)"/>
<path d="M195.518 127.285C179.11 127.285 170.769 124.728 162.702 122.248C154.758 119.806 146.547 117.288 130.391 117.288V115.586C146.798 115.586 155.14 118.142 163.198 120.623C171.143 123.065 179.362 125.583 195.518 125.583C211.674 125.583 219.885 123.065 227.83 120.623C235.888 118.142 244.23 115.586 260.637 115.586V117.288C244.482 117.288 236.27 119.806 228.326 122.248C220.267 124.728 211.926 127.285 195.518 127.285Z" fill="url(#paint20_linear_1017_294)"/>
<path d="M195.518 122.669C179.118 122.669 170.784 120.112 162.725 117.632C154.773 115.19 146.554 112.664 130.391 112.664V111.092C146.791 111.092 155.124 113.648 163.183 116.129C171.135 118.571 179.354 121.097 195.518 121.097C211.681 121.097 219.9 118.571 227.852 116.129C235.911 113.656 244.245 111.092 260.645 111.092V112.664C244.481 112.664 236.262 115.19 228.31 117.632C220.252 120.105 211.918 122.669 195.518 122.669Z" fill="url(#paint21_linear_1017_294)"/>
<path d="M195.518 118.051C179.125 118.051 170.799 115.495 162.741 113.022C154.781 110.58 146.562 108.054 130.391 108.054V106.619C146.775 106.619 155.109 109.176 163.16 111.648C171.12 114.09 179.339 116.616 195.518 116.616C211.697 116.616 219.916 114.09 227.868 111.648C235.919 109.176 244.253 106.619 260.637 106.619V108.054C244.466 108.054 236.24 110.58 228.287 113.022C220.236 115.495 211.903 118.051 195.518 118.051Z" fill="url(#paint22_linear_1017_294)"/>
<path d="M195.518 113.451C179.141 113.451 170.815 110.894 162.756 108.421C154.796 105.979 146.569 103.453 130.391 103.453V102.141C146.768 102.141 155.094 104.697 163.145 107.17C171.105 109.612 179.331 112.138 195.518 112.138C211.704 112.138 219.931 109.612 227.883 107.17C235.934 104.697 244.26 102.141 260.637 102.141V103.453C244.459 103.453 236.224 105.979 228.272 108.421C220.221 110.894 211.895 113.451 195.518 113.451Z" fill="url(#paint23_linear_1017_294)"/>
<path d="M195.518 108.832C179.148 108.832 170.822 106.276 162.779 103.803C154.819 101.361 146.585 98.8274 130.391 98.8274V97.6445C146.76 97.6445 155.079 100.201 163.13 102.674C171.089 105.116 179.324 107.649 195.518 107.649C211.712 107.649 219.946 105.123 227.906 102.674C235.95 100.201 244.275 97.6445 260.645 97.6445V98.8274C244.451 98.8274 236.217 101.353 228.257 103.803C220.213 106.276 211.887 108.832 195.518 108.832Z" fill="url(#paint24_linear_1017_294)"/>
<path d="M195.518 104.217C179.156 104.217 170.838 101.668 162.794 99.1951C154.827 96.7454 146.592 94.2193 130.391 94.2193V93.1738C146.753 93.1738 155.063 95.7227 163.107 98.1954C171.074 100.645 179.309 103.171 195.518 103.171C211.727 103.171 219.962 100.645 227.921 98.1954C235.965 95.7227 244.275 93.1738 260.637 93.1738V94.2193C244.436 94.2193 236.194 96.7454 228.234 99.1951C220.19 101.668 211.88 104.217 195.518 104.217Z" fill="url(#paint25_linear_1017_294)"/>
<path d="M195.518 99.5986C179.164 99.5986 170.853 97.0497 162.817 94.5847C154.842 92.135 146.608 89.6013 130.391 89.6013V88.6855C146.737 88.6855 155.048 91.2345 163.092 93.6994C171.067 96.1492 179.309 98.6828 195.518 98.6828C211.727 98.6828 219.969 96.1492 227.944 93.6994C235.98 91.2345 244.291 88.6855 260.645 88.6855V89.6013C244.436 89.6013 236.194 92.135 228.219 94.5847C220.183 97.0497 211.872 99.5986 195.518 99.5986Z" fill="url(#paint26_linear_1017_294)"/>
<path d="M195.518 94.99C179.179 94.99 170.868 92.4411 162.832 89.9684C154.857 87.5187 146.608 84.9851 130.391 84.9851V84.1914C146.73 84.1914 155.033 86.7403 163.069 89.2129C171.044 91.6626 179.293 94.1963 195.518 94.1963C211.742 94.1963 219.984 91.6626 227.959 89.2129C235.995 86.748 244.298 84.1914 260.637 84.1914V84.9851C244.42 84.9851 236.171 87.5187 228.196 89.9684C220.16 92.4334 211.857 94.99 195.518 94.99Z" fill="url(#paint27_linear_1017_294)"/>
<path d="M195.518 90.38C179.186 90.38 170.883 87.831 162.855 85.3661C154.872 82.9163 146.623 80.3827 130.391 80.3827V79.7188C146.722 79.7188 155.025 82.2677 163.046 84.7326C171.028 87.1824 179.286 89.716 195.518 89.716C211.75 89.716 220 87.1824 227.982 84.7326C236.011 82.2677 244.314 79.7188 260.637 79.7188V80.3827C244.405 80.3827 236.156 82.9163 228.173 85.3661C220.145 87.831 211.842 90.38 195.518 90.38Z" fill="url(#paint28_linear_1017_294)"/>
<path d="M195.518 85.7621C179.194 85.7621 170.899 83.2208 162.878 80.7559C154.895 78.3061 146.63 75.7649 130.391 75.7649V75.2383C146.714 75.2383 155.01 77.7796 163.031 80.2445C171.021 82.6943 179.278 85.2355 195.518 85.2355C211.758 85.2355 220.015 82.7019 228.005 80.2445C236.026 77.7796 244.321 75.2383 260.645 75.2383V75.7649C244.405 75.7649 236.148 78.2985 228.158 80.7559C220.137 83.2208 211.842 85.7621 195.518 85.7621Z" fill="url(#paint29_linear_1017_294)"/>
<path d="M130.391 76.6347C113.93 76.6347 105.574 74.0629 97.4845 71.5826C89.563 69.1482 81.3744 66.6374 65.2719 66.6374C49.1695 66.6374 40.9809 69.1482 33.0594 71.5826C24.97 74.0629 16.6059 76.6347 0.152344 76.6347V74.2766C16.2548 74.2766 24.4434 71.7658 32.3649 69.3313C40.4543 66.8511 48.8184 64.2793 65.2719 64.2793C81.7254 64.2793 90.0895 66.8511 98.1789 69.3313C106.1 71.7658 114.289 74.2766 130.391 74.2766V76.6347Z" fill="url(#paint30_linear_1017_294)"/>
<path d="M130.391 81.1221C113.946 81.1221 105.581 78.5503 97.5073 76.0701C89.5782 73.6356 81.3896 71.1173 65.2719 71.1173C49.1542 71.1173 40.9656 73.6356 33.0365 76.0701C24.9547 78.5503 16.5982 81.1221 0.152344 81.1221V78.9014C16.2701 78.9014 24.4587 76.383 32.3878 73.9485C40.4695 71.4683 48.826 68.8965 65.2719 68.8965C81.7178 68.8965 90.0819 71.4683 98.156 73.9485C106.085 76.383 114.274 78.9014 130.391 78.9014V81.1221Z" fill="url(#paint31_linear_1017_294)"/>
<path d="M130.391 85.602C113.953 85.602 105.596 83.0378 97.5223 80.5575C89.5931 78.1231 81.3893 75.6047 65.2639 75.6047C49.1386 75.6047 40.9423 78.1231 33.0056 80.5575C24.9315 83.0378 16.575 85.602 0.136719 85.602V83.5109C16.2621 83.5109 24.4583 80.9925 32.3951 78.5581C40.4692 76.0779 48.8257 73.5137 65.2639 73.5137C81.7022 73.5137 90.0586 76.0779 98.1328 78.5581C106.062 80.9925 114.266 83.5109 130.391 83.5109V85.602Z" fill="url(#paint32_linear_1017_294)"/>
<path d="M130.391 90.0816C113.968 90.0816 105.62 87.5251 97.5455 85.0448C89.6088 82.6104 81.4049 80.0843 65.2719 80.0843C49.1389 80.0843 40.9351 82.6027 32.9983 85.0448C24.9242 87.5251 16.5753 90.0816 0.152344 90.0816V88.1203C16.2853 88.1203 24.4892 85.6019 32.426 83.1598C40.5001 80.6796 48.8489 78.123 65.2719 78.123C81.6949 78.123 90.0438 80.6796 98.1179 83.1598C106.055 85.5943 114.258 88.1203 130.391 88.1203V90.0816Z" fill="url(#paint33_linear_1017_294)"/>
<path d="M130.391 94.5689C113.976 94.5689 105.635 92.0047 97.5604 89.5244C89.616 87.09 81.4122 84.564 65.2639 84.564C49.1157 84.564 40.9118 87.0824 32.9674 89.5244C24.9009 92.0047 16.5597 94.5689 0.136719 94.5689V92.7373C16.2773 92.7373 24.4888 90.2189 32.4332 87.7768C40.4997 85.2966 48.8409 82.7324 65.2639 82.7324C81.6869 82.7324 90.0205 85.2966 98.0946 87.7768C106.039 90.2113 114.243 92.7373 130.391 92.7373V94.5689Z" fill="url(#paint34_linear_1017_294)"/>
<path d="M130.391 99.0565C113.984 99.0565 105.643 96.5 97.5837 94.0197C89.6393 91.5776 81.4278 89.0592 65.2719 89.0592C49.116 89.0592 40.9045 91.5776 32.9602 94.0197C24.9013 96.5 16.5601 99.0565 0.152344 99.0565V97.3547C16.3082 97.3547 24.5197 94.8363 32.4641 92.3942C40.523 89.914 48.8642 87.3574 65.2719 87.3574C81.6796 87.3574 90.0209 89.914 98.0797 92.3942C106.024 94.8363 114.236 97.3547 130.391 97.3547V99.0565Z" fill="url(#paint35_linear_1017_294)"/>
<path d="M130.391 103.536C113.991 103.536 105.657 100.979 97.5986 98.4992C89.6466 96.0571 81.4274 93.5311 65.2639 93.5311C49.1004 93.5311 40.8813 96.0571 32.9293 98.4992C24.8704 100.972 16.5368 103.536 0.136719 103.536V101.964C16.3002 101.964 24.5194 99.4379 32.4714 96.9958C40.5302 94.5232 48.8638 91.959 65.2639 91.959C81.664 91.959 89.9976 94.5155 98.0565 96.9958C106.008 99.4379 114.228 101.964 130.391 101.964V103.536Z" fill="url(#paint36_linear_1017_294)"/>
<path d="M130.391 108.016C114.007 108.016 105.673 105.459 97.6218 102.987C89.6622 100.545 81.4431 98.0187 65.2719 98.0187C49.1008 98.0187 40.874 100.545 32.922 102.987C24.8708 105.459 16.5372 108.016 0.152344 108.016V106.581C16.3235 106.581 24.5502 104.055 32.5023 101.613C40.5535 99.1405 48.8871 96.584 65.2719 96.584C81.6567 96.584 89.9903 99.1405 98.0416 101.613C106.001 104.055 114.22 106.581 130.391 106.581V108.016Z" fill="url(#paint37_linear_1017_294)"/>
<path d="M130.391 112.503C114.014 112.503 105.688 109.947 97.6371 107.474C89.6774 105.032 81.4507 102.506 65.2719 102.506C49.0931 102.506 40.8587 105.032 32.9067 107.474C24.8555 109.947 16.5295 112.503 0.152344 112.503V111.191C16.3311 111.191 24.5655 108.665 32.5175 106.223C40.5688 103.75 48.8947 101.193 65.2719 101.193C81.6491 101.193 89.9751 103.75 98.0263 106.223C105.986 108.665 114.213 111.191 130.391 111.191V112.503Z" fill="url(#paint38_linear_1017_294)"/>
<path d="M130.391 116.991C114.022 116.991 105.703 114.434 97.652 111.961C89.6923 109.519 81.4579 106.986 65.2639 106.986C49.0699 106.986 40.8355 109.512 32.8758 111.961C24.8322 114.434 16.5063 116.991 0.136719 116.991V115.808C16.3308 115.808 24.5651 113.282 32.5248 110.832C40.5684 108.359 48.8943 105.803 65.2639 105.803C81.6335 105.803 89.9518 108.359 98.003 110.832C105.963 113.274 114.197 115.808 130.391 115.808V116.991Z" fill="url(#paint39_linear_1017_294)"/>
<path d="M130.391 121.471C114.03 121.471 105.719 118.922 97.6752 116.449C89.708 113.999 81.4736 111.473 65.2719 111.473C49.0702 111.473 40.8282 113.999 32.8686 116.449C24.825 118.914 16.5143 121.471 0.152344 121.471V120.425C16.354 120.425 24.596 117.899 32.5557 115.449C40.5993 112.984 48.91 110.428 65.2719 110.428C81.6338 110.428 89.9445 112.977 97.9881 115.449C105.955 117.899 114.19 120.425 130.391 120.425V121.471Z" fill="url(#paint40_linear_1017_294)"/>
<path d="M130.391 125.95C114.044 125.95 105.734 123.401 97.6902 120.928C89.7152 118.479 81.4808 115.945 65.2639 115.945C49.047 115.945 40.8126 118.479 32.8377 120.928C24.8017 123.393 16.491 125.95 0.136719 125.95V125.034C16.346 125.034 24.588 122.501 32.563 120.051C40.5989 117.586 48.9096 115.029 65.2639 115.029C81.6182 115.029 89.9213 117.578 97.9649 120.051C105.94 122.501 114.174 125.034 130.391 125.034V125.95Z" fill="url(#paint41_linear_1017_294)"/>
<path d="M130.391 130.437C114.052 130.437 105.749 127.888 97.7134 125.416C89.7385 122.966 81.4888 120.432 65.2719 120.432C49.055 120.432 40.8053 122.966 32.8304 125.416C24.7945 127.881 16.4914 130.437 0.152344 130.437V129.644C16.3693 129.644 24.6189 127.11 32.5938 124.66C40.6298 122.195 48.9329 119.639 65.2719 119.639C81.6109 119.639 89.914 122.188 97.95 124.66C105.925 127.11 114.175 129.644 130.391 129.644V130.437Z" fill="url(#paint42_linear_1017_294)"/>
<path d="M130.391 134.925C114.06 134.925 105.757 132.376 97.7363 129.911C89.7538 127.461 81.5041 124.928 65.2719 124.928C49.0397 124.928 40.7901 127.461 32.8075 129.911C24.7792 132.376 16.4761 134.925 0.152344 134.925V134.261C16.3845 134.261 24.6342 131.727 32.6167 129.278C40.6451 126.813 48.9481 124.264 65.2719 124.264C81.5957 124.264 89.9064 126.813 97.9271 129.278C105.91 131.727 114.159 134.261 130.391 134.261V134.925Z" fill="url(#paint43_linear_1017_294)"/>
<path d="M130.391 138.878V139.405C114.067 139.405 105.772 136.863 97.7512 134.398C89.7687 131.949 81.5037 129.415 65.2639 129.415C49.0241 129.415 40.7668 131.949 32.7766 134.398C24.7559 136.863 16.4605 139.405 0.136719 139.405V138.878C16.3765 138.878 24.6338 136.337 32.624 133.887C40.6447 131.422 48.9401 128.881 65.2639 128.881C81.5877 128.881 89.8831 131.422 97.9038 133.887C105.886 136.337 114.144 138.878 130.383 138.878H130.391Z" fill="url(#paint44_linear_1017_294)"/>
<path d="M390.884 12.3554C374.423 12.3554 366.066 9.78358 357.977 7.30334C350.055 4.86889 341.867 2.35813 325.764 2.35813C309.662 2.35813 301.473 4.86889 293.552 7.30334C285.462 9.79121 277.098 12.3554 260.645 12.3554V9.99726C276.747 9.99726 284.936 7.4865 292.857 5.05205C300.946 2.56418 309.311 0 325.764 0C342.218 0 350.582 2.57181 358.671 5.05205C366.593 7.4865 374.781 9.99726 390.884 9.99726V12.3554Z" fill="url(#paint45_linear_1017_294)"/>
<path d="M390.884 16.835C374.438 16.835 366.074 14.2632 358 11.783C350.07 9.34853 341.882 6.83014 325.764 6.83014C309.646 6.83014 301.458 9.34853 293.529 11.783C285.447 14.2632 277.09 16.835 260.645 16.835V14.6143C276.762 14.6143 284.951 12.0959 292.88 9.66143C300.962 7.18119 309.318 4.60938 325.764 4.60938C342.21 4.60938 350.574 7.18119 358.648 9.66143C366.577 12.0959 374.766 14.6143 390.884 14.6143V16.835Z" fill="url(#paint46_linear_1017_294)"/>
<path d="M390.885 21.3149C374.447 21.3149 366.091 18.7507 358.016 16.2704C350.087 13.836 341.883 11.3176 325.758 11.3176C309.633 11.3176 301.436 13.836 293.5 16.2704C285.426 18.7507 277.069 21.3149 260.631 21.3149V19.2238C276.756 19.2238 284.952 16.7054 292.889 14.271C300.963 11.7907 309.32 9.22656 325.758 9.22656C342.196 9.22656 350.553 11.7907 358.627 14.271C366.556 16.7054 374.76 19.2238 390.885 19.2238V21.3149Z" fill="url(#paint47_linear_1017_294)"/>
<path d="M390.884 25.8021C374.461 25.8021 366.112 23.2379 358.038 20.7577C350.101 18.3233 341.897 15.7972 325.764 15.7972C309.631 15.7972 301.427 18.3156 293.491 20.7577C285.416 23.2379 277.068 25.8021 260.645 25.8021V23.8408C276.778 23.8408 284.981 21.3224 292.918 18.8804C300.992 16.4001 309.341 13.8359 325.764 13.8359C342.187 13.8359 350.536 16.4001 358.61 18.8804C366.547 21.3148 374.751 23.8408 390.884 23.8408V25.8021Z" fill="url(#paint48_linear_1017_294)"/>
<path d="M390.885 30.2896C374.47 30.2896 366.129 27.7254 358.055 25.2452C350.11 22.8107 341.906 20.2847 325.758 20.2847C309.61 20.2847 301.406 22.8031 293.462 25.2452C285.395 27.7254 277.054 30.2896 260.631 30.2896V28.458C276.771 28.458 284.983 25.9396 292.927 23.4975C300.994 21.0173 309.335 18.4531 325.758 18.4531C342.181 18.4531 350.515 21.0173 358.589 23.4975C366.533 25.932 374.737 28.458 390.885 28.458V30.2896Z" fill="url(#paint49_linear_1017_294)"/>
<path d="M390.884 34.7694C374.476 34.7694 366.135 32.2128 358.076 29.7326C350.131 27.2905 341.92 24.7721 325.764 24.7721C309.608 24.7721 301.397 27.2905 293.452 29.7326C285.394 32.2052 277.052 34.7694 260.645 34.7694V33.0676C276.8 33.0676 285.012 30.5492 292.956 28.1071C301.015 25.6345 309.356 23.0703 325.764 23.0703C342.172 23.0703 350.513 25.6269 358.572 28.1071C366.516 30.5492 374.728 33.0676 390.884 33.0676V34.7694Z" fill="url(#paint50_linear_1017_294)"/>
<path d="M390.885 39.2489C374.485 39.2489 366.152 36.6923 358.093 34.2121C350.141 31.77 341.922 29.244 325.758 29.244C309.595 29.244 301.375 31.77 293.423 34.2121C285.365 36.6847 277.031 39.2489 260.631 39.2489V37.6768C276.794 37.6768 285.013 35.1507 292.966 32.7087C301.024 30.2361 309.358 27.6719 325.758 27.6719C342.158 27.6719 350.492 30.2284 358.551 32.7087C366.503 35.1507 374.722 37.6768 390.885 37.6768V39.2489Z" fill="url(#paint51_linear_1017_294)"/>
<path d="M390.884 43.7367C374.499 43.7367 366.165 41.1801 358.114 38.7075C350.154 36.2654 341.935 33.7394 325.764 33.7394C309.593 33.7394 301.366 36.2654 293.414 38.7075C285.363 41.1801 277.029 43.7367 260.645 43.7367V42.3019C276.816 42.3019 285.042 39.7759 292.994 37.3338C301.046 34.8612 309.379 32.3047 325.764 32.3047C342.149 32.3047 350.483 34.8612 358.534 37.3338C366.493 39.7759 374.713 42.3019 390.884 42.3019V43.7367Z" fill="url(#paint52_linear_1017_294)"/>
<path d="M390.884 48.2239C374.506 48.2239 366.181 45.6674 358.129 43.1948C350.17 40.7527 341.943 38.2267 325.764 38.2267C309.585 38.2267 301.351 40.7527 293.399 43.1948C285.348 45.6674 277.022 48.2239 260.645 48.2239V46.9113C276.823 46.9113 285.058 44.3853 293.01 41.9432C301.061 39.4706 309.387 36.9141 325.764 36.9141C342.141 36.9141 350.467 39.4706 358.518 41.9432C366.478 44.3853 374.705 46.9113 390.884 46.9113V48.2239Z" fill="url(#paint53_linear_1017_294)"/>
<path d="M390.885 52.7036C374.516 52.7036 366.197 50.147 358.146 47.6821C350.186 45.2323 341.952 42.7063 325.758 42.7063C309.564 42.7063 301.33 45.2323 293.37 47.6821C285.326 50.147 277 52.7036 260.631 52.7036V51.5207C276.825 51.5207 285.059 48.9947 293.019 46.545C301.063 44.08 309.388 41.5234 325.758 41.5234C342.128 41.5234 350.446 44.08 358.497 46.545C366.457 48.9947 374.691 51.5207 390.885 51.5207V52.7036Z" fill="url(#paint54_linear_1017_294)"/>
<path d="M390.884 57.1834C374.522 57.1834 366.211 54.6345 358.167 52.1619C350.2 49.7122 341.966 47.1861 325.764 47.1861C309.562 47.1861 301.32 49.7122 293.361 52.1619C285.317 54.6345 277.006 57.1834 260.645 57.1834V56.1379C276.846 56.1379 285.088 53.6119 293.048 51.1622C301.091 48.6895 309.402 46.1406 325.764 46.1406C342.126 46.1406 350.437 48.6895 358.48 51.1622C366.448 53.6119 374.682 56.1379 390.884 56.1379V57.1834Z" fill="url(#paint55_linear_1017_294)"/>
<path d="M390.885 61.6707C374.539 61.6707 366.228 59.1218 358.184 56.6492C350.209 54.1994 341.975 51.6658 325.758 51.6658C309.541 51.6658 301.307 54.1994 293.332 56.6492C285.296 59.1141 276.985 61.6707 260.631 61.6707V60.7549C276.84 60.7549 285.082 58.2212 293.057 55.7715C301.093 53.3066 309.404 50.75 325.758 50.75C342.112 50.75 350.415 53.2989 358.459 55.7715C366.434 58.2212 374.668 60.7549 390.885 60.7549V61.6707Z" fill="url(#paint56_linear_1017_294)"/>
<path d="M390.884 66.1579C374.545 66.1579 366.242 63.609 358.206 61.1364C350.231 58.6867 341.981 56.1531 325.764 56.1531C309.547 56.1531 301.298 58.6867 293.323 61.1364C285.287 63.6014 276.984 66.1579 260.645 66.1579V65.3643C276.861 65.3643 285.111 62.8306 293.086 60.3809C301.122 57.9159 309.425 55.3594 325.764 55.3594C342.103 55.3594 350.406 57.9083 358.442 60.3809C366.417 62.8306 374.667 65.3643 390.884 65.3643V66.1579Z" fill="url(#paint57_linear_1017_294)"/>
<path d="M390.884 70.6378C374.552 70.6378 366.249 68.0888 358.228 65.6239C350.246 63.1742 341.996 60.6405 325.764 60.6405C309.532 60.6405 301.282 63.1742 293.3 65.6239C285.271 68.0888 276.968 70.6378 260.645 70.6378V69.9738C276.877 69.9738 285.126 67.4402 293.109 64.9905C301.137 62.5255 309.44 59.9766 325.764 59.9766C342.088 59.9766 350.399 62.5255 358.419 64.9905C366.402 67.4402 374.651 69.9738 390.884 69.9738V70.6378Z" fill="url(#paint58_linear_1017_294)"/>
<path d="M390.885 75.1174C374.561 75.1174 366.266 72.5685 358.245 70.1035C350.263 67.6538 341.998 65.1125 325.758 65.1125C309.518 65.1125 301.261 67.6462 293.271 70.1035C285.25 72.5685 276.955 75.1174 260.631 75.1174V74.5908C276.871 74.5908 285.128 72.0572 293.118 69.5998C301.139 67.1349 309.434 64.5859 325.758 64.5859C342.082 64.5859 350.377 67.1349 358.398 69.5998C366.38 72.0495 374.645 74.5908 390.885 74.5908V75.1174Z" fill="url(#paint59_linear_1017_294)"/>
<path d="M195.518 86.0683C179.057 86.0683 170.693 83.4965 162.603 81.0162C154.682 78.5818 146.493 76.071 130.391 76.071V73.7129C146.852 73.7129 155.208 76.2847 163.298 78.7649C171.219 81.1994 179.408 83.7102 195.518 83.7102C211.628 83.7102 219.809 81.1994 227.73 78.7649C235.82 76.2771 244.184 73.7129 260.637 73.7129V76.071C244.535 76.071 236.346 78.5818 228.425 81.0162C220.335 83.5041 211.971 86.0683 195.518 86.0683Z" fill="url(#paint60_linear_1017_294)"/>
<path d="M195.518 81.4504C179.064 81.4504 170.708 78.8786 162.626 76.406C154.697 73.9716 146.501 71.4532 130.391 71.4532V69.2324C146.836 69.2324 155.193 71.7966 163.275 74.2768C171.204 76.7113 179.4 79.2297 195.51 79.2297C211.62 79.2297 219.817 76.7113 227.746 74.2768C235.827 71.7966 244.184 69.2324 260.63 69.2324V71.4532C244.512 71.4532 236.323 73.9716 228.394 76.406C220.313 78.8863 211.956 81.4504 195.51 81.4504H195.518Z" fill="url(#paint61_linear_1017_294)"/>
<path d="M195.518 76.8422C179.08 76.8422 170.723 74.278 162.649 71.7978C154.72 69.3633 146.516 66.8449 130.391 66.8449V64.7539C146.829 64.7539 155.185 67.3181 163.259 69.7983C171.189 72.2328 179.392 74.7512 195.518 74.7512C211.643 74.7512 219.839 72.2328 227.776 69.7983C235.85 67.3181 244.207 64.7539 260.645 64.7539V66.8449C244.52 66.8449 236.323 69.3633 228.387 71.7978C220.313 74.278 211.956 76.8422 195.518 76.8422Z" fill="url(#paint62_linear_1017_294)"/>
<path d="M195.518 72.224C179.087 72.224 170.738 69.6598 162.664 67.1796C154.727 64.7451 146.524 62.2191 130.391 62.2191V60.2578C146.814 60.2578 155.162 62.822 163.237 65.3022C171.173 67.7367 179.377 70.2627 195.518 70.2627C211.658 70.2627 219.855 67.7443 227.791 65.3022C235.866 62.822 244.214 60.2578 260.637 60.2578V62.2191C244.504 62.2191 236.301 64.7375 228.364 67.1796C220.29 69.6598 211.941 72.224 195.518 72.224Z" fill="url(#paint63_linear_1017_294)"/>
<path d="M195.518 67.6158C179.102 67.6158 170.754 65.0516 162.687 62.5713C154.743 60.1369 146.539 57.6109 130.391 57.6109V55.7793C146.806 55.7793 155.147 58.3435 163.221 60.8237C171.166 63.2582 179.37 65.7842 195.518 65.7842C211.666 65.7842 219.87 63.2658 227.814 60.8237C235.881 58.3435 244.222 55.7793 260.645 55.7793V57.6109C244.504 57.6109 236.293 60.1293 228.349 62.5713C220.282 65.0516 211.941 67.6158 195.518 67.6158Z" fill="url(#paint64_linear_1017_294)"/>
<path d="M195.518 62.9979C179.11 62.9979 170.769 60.4414 162.702 57.9611C154.758 55.519 146.547 53.0006 130.391 53.0006V51.2988C146.798 51.2988 155.14 53.8554 163.198 56.3356C171.143 58.7777 179.362 61.2961 195.518 61.2961C211.674 61.2961 219.885 58.7777 227.83 56.3356C235.888 53.863 244.23 51.2988 260.637 51.2988V53.0006C244.482 53.0006 236.27 55.519 228.326 57.9611C220.267 60.4337 211.926 62.9979 195.518 62.9979Z" fill="url(#paint65_linear_1017_294)"/>
<path d="M195.518 58.3895C179.118 58.3895 170.784 55.8329 162.725 53.3527C154.773 50.9106 146.554 48.3846 130.391 48.3846V46.8125C146.791 46.8125 155.124 49.3691 163.183 51.8493C171.135 54.2914 179.354 56.8174 195.518 56.8174C211.681 56.8174 219.9 54.2914 227.852 51.8493C235.911 49.3767 244.245 46.8125 260.645 46.8125V48.3846C244.481 48.3846 236.262 50.9106 228.31 53.3527C220.252 55.8253 211.918 58.3895 195.518 58.3895Z" fill="url(#paint66_linear_1017_294)"/>
<path d="M195.518 53.7718C179.125 53.7718 170.799 51.2153 162.741 48.7427C154.781 46.3006 146.562 43.7746 130.391 43.7746V42.3398C146.775 42.3398 155.109 44.8964 163.16 47.369C171.12 49.8111 179.339 52.3371 195.518 52.3371C211.697 52.3371 219.916 49.8111 227.868 47.369C235.919 44.8964 244.253 42.3398 260.637 42.3398V43.7746C244.466 43.7746 236.24 46.3006 228.287 48.7427C220.236 51.2153 211.903 53.7718 195.518 53.7718Z" fill="url(#paint67_linear_1017_294)"/>
<path d="M195.518 49.1614C179.141 49.1614 170.815 46.6049 162.756 44.1323C154.796 41.6902 146.569 39.1642 130.391 39.1642V37.8516C146.768 37.8516 155.094 40.4081 163.145 42.8807C171.105 45.3228 179.331 47.8488 195.518 47.8488C211.704 47.8488 219.931 45.3228 227.891 42.8807C235.942 40.4081 244.26 37.8516 260.645 37.8516V39.1642C244.466 39.1642 236.232 41.6902 228.272 44.1323C220.221 46.6049 211.903 49.1614 195.518 49.1614Z" fill="url(#paint68_linear_1017_294)"/>
<path d="M195.518 44.5452C179.148 44.5452 170.822 41.9886 162.779 39.516C154.819 37.074 146.585 34.5403 130.391 34.5403V33.3574C146.76 33.3574 155.079 35.914 163.13 38.3866C171.089 40.8287 179.324 43.3623 195.518 43.3623C211.712 43.3623 219.946 40.8363 227.906 38.3866C235.95 35.914 244.275 33.3574 260.645 33.3574V34.5403C244.451 34.5403 236.217 37.0663 228.257 39.516C220.213 41.9886 211.887 44.5452 195.518 44.5452Z" fill="url(#paint69_linear_1017_294)"/>
<path d="M195.518 39.9275C179.156 39.9275 170.838 37.3786 162.794 34.906C154.827 32.4563 146.592 29.9303 130.391 29.9303V28.8848C146.753 28.8848 155.063 31.4337 163.107 33.9063C171.074 36.356 179.309 38.882 195.518 38.882C211.727 38.882 219.962 36.356 227.921 33.9063C235.965 31.4337 244.275 28.8848 260.637 28.8848V29.9303C244.436 29.9303 236.194 32.4563 228.234 34.906C220.19 37.3786 211.88 39.9275 195.518 39.9275Z" fill="url(#paint70_linear_1017_294)"/>
<path d="M195.518 35.3191C179.164 35.3191 170.853 32.7702 162.817 30.2976C154.842 27.8479 146.608 25.3142 130.391 25.3142V24.3984C146.737 24.3984 155.048 26.9474 163.092 29.42C171.067 31.8697 179.309 34.4033 195.518 34.4033C211.727 34.4033 219.969 31.8697 227.944 29.42C235.98 26.955 244.291 24.3984 260.645 24.3984V25.3142C244.436 25.3142 236.194 27.8479 228.219 30.2976C220.183 32.7626 211.872 35.3191 195.518 35.3191Z" fill="url(#paint71_linear_1017_294)"/>
<path d="M195.518 30.7011C179.179 30.7011 170.868 28.1522 162.832 25.6872C154.857 23.2375 146.608 20.7038 130.391 20.7038V19.9102C146.73 19.9102 155.033 22.4591 163.069 24.924C171.044 27.3738 179.293 29.9074 195.518 29.9074C211.742 29.9074 219.984 27.3814 227.959 24.924C235.995 22.4591 244.298 19.9102 260.637 19.9102V20.7038C244.42 20.7038 236.171 23.2299 228.196 25.6872C220.16 28.1522 211.857 30.7011 195.518 30.7011Z" fill="url(#paint72_linear_1017_294)"/>
<path d="M195.518 26.0928C179.186 26.0928 170.883 23.5439 162.855 21.0789C154.872 18.6292 146.623 16.0956 130.391 16.0956V15.4316C146.722 15.4316 155.025 17.9806 163.046 20.4455C171.028 22.8952 179.286 25.4289 195.518 25.4289C211.75 25.4289 220 22.8952 227.982 20.4455C236.011 17.9806 244.314 15.4316 260.637 15.4316V16.0956C244.405 16.0956 236.156 18.6292 228.173 21.0789C220.145 23.5439 211.842 26.0928 195.518 26.0928Z" fill="url(#paint73_linear_1017_294)"/>
<path d="M195.518 21.4748C179.194 21.4748 170.899 18.9259 162.878 16.4609C154.895 14.0112 146.63 11.4699 130.391 11.4699V10.9434C146.714 10.9434 155.01 13.4923 163.031 15.9573C171.021 18.407 179.278 20.9483 195.518 20.9483C211.758 20.9483 220.015 18.4146 228.005 15.9573C236.026 13.4923 244.321 10.9434 260.645 10.9434V11.4699C244.405 11.4699 236.148 14.0036 228.158 16.4609C220.137 18.9259 211.842 21.4748 195.518 21.4748Z" fill="url(#paint74_linear_1017_294)"/>
<path d="M130.391 12.3554C113.93 12.3554 105.574 9.78358 97.4845 7.30334C89.563 4.86889 81.3744 2.35813 65.2719 2.35813C49.1695 2.35813 40.9809 4.86889 33.0594 7.30334C24.97 9.79121 16.6059 12.3554 0.152344 12.3554V9.99726C16.2548 9.99726 24.4434 7.4865 32.3649 5.05205C40.4543 2.56418 48.8184 0 65.2719 0C81.7254 0 90.0895 2.57181 98.1789 5.05205C106.1 7.4865 114.289 9.99726 130.391 9.99726V12.3554Z" fill="url(#paint75_linear_1017_294)"/>
<path d="M130.391 16.835C113.946 16.835 105.581 14.2632 97.5073 11.783C89.5782 9.34853 81.3896 6.83014 65.2719 6.83014C49.1542 6.83014 40.9656 9.34853 33.0365 11.783C24.9547 14.2632 16.5982 16.835 0.152344 16.835V14.6143C16.2701 14.6143 24.4587 12.0959 32.3878 9.66143C40.4695 7.18119 48.826 4.60938 65.2719 4.60938C81.7178 4.60938 90.0819 7.18119 98.156 9.66143C106.085 12.0959 114.274 14.6143 130.391 14.6143V16.835Z" fill="url(#paint76_linear_1017_294)"/>
<path d="M130.391 21.3149C113.953 21.3149 105.596 18.7507 97.5223 16.2704C89.5931 13.836 81.3893 11.3176 65.2639 11.3176C49.1386 11.3176 40.9423 13.836 33.0056 16.2704C24.9315 18.7507 16.575 21.3149 0.136719 21.3149V19.2238C16.2621 19.2238 24.4583 16.7054 32.3951 14.271C40.4692 11.7907 48.8257 9.22656 65.2639 9.22656C81.7022 9.22656 90.0586 11.7907 98.1328 14.271C106.062 16.7054 114.266 19.2238 130.391 19.2238V21.3149Z" fill="url(#paint77_linear_1017_294)"/>
<path d="M130.391 25.8021C113.968 25.8021 105.62 23.2379 97.5455 20.7577C89.6088 18.3233 81.4049 15.7972 65.2719 15.7972C49.1389 15.7972 40.9351 18.3156 32.9983 20.7577C24.9242 23.2379 16.5753 25.8021 0.152344 25.8021V23.8408C16.2853 23.8408 24.4892 21.3224 32.426 18.8804C40.5001 16.4001 48.8489 13.8359 65.2719 13.8359C81.6949 13.8359 90.0438 16.4001 98.1179 18.8804C106.055 21.3148 114.258 23.8408 130.391 23.8408V25.8021Z" fill="url(#paint78_linear_1017_294)"/>
<path d="M130.391 30.2896C113.976 30.2896 105.635 27.7254 97.5604 25.2452C89.616 22.8107 81.4122 20.2847 65.2639 20.2847C49.1157 20.2847 40.9118 22.8031 32.9674 25.2452C24.9009 27.7254 16.5597 30.2896 0.136719 30.2896V28.458C16.2773 28.458 24.4888 25.9396 32.4332 23.4975C40.4997 21.0173 48.8409 18.4531 65.2639 18.4531C81.6869 18.4531 90.0205 21.0173 98.0946 23.4975C106.039 25.932 114.243 28.458 130.391 28.458V30.2896Z" fill="url(#paint79_linear_1017_294)"/>
<path d="M130.391 34.7694C113.984 34.7694 105.643 32.2128 97.5837 29.7326C89.6393 27.2905 81.4278 24.7721 65.2719 24.7721C49.116 24.7721 40.9045 27.2905 32.9602 29.7326C24.9013 32.2052 16.5601 34.7694 0.152344 34.7694V33.0676C16.3082 33.0676 24.5197 30.5492 32.4641 28.1071C40.523 25.6345 48.8642 23.0703 65.2719 23.0703C81.6796 23.0703 90.0209 25.6269 98.0797 28.1071C106.024 30.5492 114.236 33.0676 130.391 33.0676V34.7694Z" fill="url(#paint80_linear_1017_294)"/>
<path d="M130.391 39.2489C113.991 39.2489 105.657 36.6923 97.5986 34.2121C89.6466 31.77 81.4274 29.244 65.2639 29.244C49.1004 29.244 40.8813 31.77 32.9293 34.2121C24.8704 36.6847 16.5368 39.2489 0.136719 39.2489V37.6768C16.3002 37.6768 24.5194 35.1507 32.4714 32.7087C40.5302 30.2361 48.8638 27.6719 65.2639 27.6719C81.664 27.6719 89.9976 30.2284 98.0565 32.7087C106.008 35.1507 114.228 37.6768 130.391 37.6768V39.2489Z" fill="url(#paint81_linear_1017_294)"/>
<path d="M130.391 43.7367C114.007 43.7367 105.673 41.1801 97.6218 38.7075C89.6622 36.2654 81.4431 33.7394 65.2719 33.7394C49.1008 33.7394 40.874 36.2654 32.922 38.7075C24.8708 41.1801 16.5372 43.7367 0.152344 43.7367V42.3019C16.3235 42.3019 24.5502 39.7759 32.5023 37.3338C40.5535 34.8612 48.8871 32.3047 65.2719 32.3047C81.6567 32.3047 89.9903 34.8612 98.0416 37.3338C106.001 39.7759 114.22 42.3019 130.391 42.3019V43.7367Z" fill="url(#paint82_linear_1017_294)"/>
<path d="M130.391 48.2239C114.014 48.2239 105.688 45.6674 97.6371 43.1948C89.6774 40.7527 81.4507 38.2267 65.2719 38.2267C49.0931 38.2267 40.8587 40.7527 32.9067 43.1948C24.8555 45.6674 16.5295 48.2239 0.152344 48.2239V46.9113C16.3311 46.9113 24.5655 44.3853 32.5175 41.9432C40.5688 39.4706 48.8947 36.9141 65.2719 36.9141C81.6491 36.9141 89.9751 39.4706 98.0263 41.9432C105.986 44.3853 114.213 46.9113 130.391 46.9113V48.2239Z" fill="url(#paint83_linear_1017_294)"/>
<path d="M130.391 52.7036C114.022 52.7036 105.703 50.147 97.652 47.6821C89.6923 45.2323 81.4579 42.7063 65.2639 42.7063C49.0699 42.7063 40.8355 45.2323 32.8758 47.6821C24.8322 50.147 16.5063 52.7036 0.136719 52.7036V51.5207C16.3308 51.5207 24.5651 48.9947 32.5248 46.545C40.5684 44.08 48.8943 41.5234 65.2639 41.5234C81.6335 41.5234 89.9518 44.08 98.003 46.545C105.963 48.9947 114.197 51.5207 130.391 51.5207V52.7036Z" fill="url(#paint84_linear_1017_294)"/>
<path d="M130.391 57.1834C114.03 57.1834 105.719 54.6345 97.6752 52.1619C89.708 49.7122 81.4736 47.1861 65.2719 47.1861C49.0702 47.1861 40.8282 49.7122 32.8686 52.1619C24.825 54.6345 16.5143 57.1834 0.152344 57.1834V56.1379C16.354 56.1379 24.596 53.6119 32.5557 51.1622C40.5993 48.6895 48.91 46.1406 65.2719 46.1406C81.6338 46.1406 89.9445 48.6895 97.9881 51.1622C105.955 53.6119 114.19 56.1379 130.391 56.1379V57.1834Z" fill="url(#paint85_linear_1017_294)"/>
<path d="M130.391 61.6707C114.044 61.6707 105.734 59.1218 97.6902 56.6492C89.7152 54.1994 81.4808 51.6658 65.2639 51.6658C49.047 51.6658 40.8126 54.1994 32.8377 56.6492C24.8017 59.1141 16.491 61.6707 0.136719 61.6707V60.7549C16.346 60.7549 24.588 58.2212 32.563 55.7715C40.5989 53.3066 48.9096 50.75 65.2639 50.75C81.6182 50.75 89.9213 53.2989 97.9649 55.7715C105.94 58.2212 114.174 60.7549 130.391 60.7549V61.6707Z" fill="url(#paint86_linear_1017_294)"/>
<path d="M130.391 66.1579C114.052 66.1579 105.749 63.609 97.7134 61.1364C89.7385 58.6867 81.4888 56.1531 65.2719 56.1531C49.055 56.1531 40.8053 58.6867 32.8304 61.1364C24.7945 63.6014 16.4914 66.1579 0.152344 66.1579V65.3643C16.3693 65.3643 24.6189 62.8306 32.5938 60.3809C40.6298 57.9159 48.9329 55.3594 65.2719 55.3594C81.6109 55.3594 89.914 57.9083 97.95 60.3809C105.925 62.8306 114.175 65.3643 130.391 65.3643V66.1579Z" fill="url(#paint87_linear_1017_294)"/>
<path d="M130.391 70.6378C114.06 70.6378 105.757 68.0888 97.7363 65.6239C89.7538 63.1742 81.5041 60.6405 65.2719 60.6405C49.0397 60.6405 40.7901 63.1742 32.8075 65.6239C24.7792 68.0888 16.4761 70.6378 0.152344 70.6378V69.9738C16.3845 69.9738 24.6342 67.4402 32.6167 64.9905C40.6451 62.5255 48.9481 59.9766 65.2719 59.9766C81.5957 59.9766 89.9064 62.5255 97.9271 64.9905C105.91 67.4402 114.159 69.9738 130.391 69.9738V70.6378Z" fill="url(#paint88_linear_1017_294)"/>
<path d="M130.391 75.1174C114.067 75.1174 105.772 72.5685 97.7512 70.1035C89.7687 67.6538 81.5037 65.1125 65.2639 65.1125C49.0241 65.1125 40.7668 67.6462 32.7766 70.1035C24.7559 72.5685 16.4605 75.1174 0.136719 75.1174V74.5908C16.3765 74.5908 24.6338 72.0572 32.624 69.5998C40.6447 67.1349 48.9401 64.5859 65.2639 64.5859C81.5877 64.5859 89.8831 67.1349 97.9038 69.5998C105.886 72.0495 114.151 74.5908 130.391 74.5908V75.1174Z" fill="url(#paint89_linear_1017_294)"/>
<path d="M0.145192 138V140.358C-15.9573 140.358 -24.1459 142.869 -32.0674 145.303C-40.1567 147.784 -48.5132 150.355 -64.9744 150.355C-81.4355 150.355 -89.792 147.784 -97.889 145.303C-105.749 142.884 -113.862 140.396 -129.72 140.358H-130.102V138H-129.72C-113.518 138.038 -105.223 140.587 -97.1945 143.052C-89.2731 145.486 -81.0845 147.997 -64.9744 147.997C-48.8643 147.997 -40.6757 145.479 -32.7618 143.052C-24.6724 140.572 -16.3159 138 0.145192 138Z" fill="url(#paint90_linear_1017_294)"/>
<path d="M-64.9744 145.739C-81.4279 145.739 -89.7844 143.168 -97.8661 140.687C-105.795 138.253 -113.991 135.734 -130.102 135.734V133.514C-113.656 133.514 -105.299 136.085 -97.2174 138.566C-89.2883 141 -81.0921 143.519 -64.982 143.519C-48.8719 143.519 -40.6757 141 -32.7466 138.566C-24.6648 136.085 -16.3083 133.514 0.137563 133.514V135.734C-15.9802 135.734 -24.1687 138.253 -32.0979 140.687C-40.1796 143.168 -48.5361 145.739 -64.982 145.739H-64.9744Z" fill="url(#paint91_linear_1017_294)"/>
<path d="M-64.9744 141.121C-81.4126 141.121 -89.7691 138.557 -97.8432 136.077C-105.772 133.643 -113.976 131.124 -130.102 131.124V129.033C-113.663 129.033 -105.307 131.597 -97.2327 134.078C-89.3036 136.512 -81.0997 139.03 -64.9744 139.03C-48.849 139.03 -40.6528 136.512 -32.716 134.078C-24.6419 131.597 -16.2854 129.033 0.152819 129.033V131.124C-15.9725 131.124 -24.1688 133.643 -32.1055 136.077C-40.1796 138.557 -48.5361 141.121 -64.9744 141.121Z" fill="url(#paint92_linear_1017_294)"/>
<path d="M-64.9744 136.511C-81.405 136.511 -89.7538 133.955 -97.828 131.474C-105.765 129.04 -113.969 126.514 -130.102 126.514V124.553C-113.679 124.553 -105.33 127.109 -97.2556 129.59C-89.3188 132.024 -81.115 134.55 -64.9744 134.55C-48.8338 134.55 -40.6375 132.032 -32.7008 129.59C-24.6266 127.109 -16.2778 124.553 0.145192 124.553V126.514C-15.9878 126.514 -24.1917 129.032 -32.1284 131.474C-40.2025 133.955 -48.5514 136.511 -64.9744 136.511Z" fill="url(#paint93_linear_1017_294)"/>
<path d="M-64.9744 131.903C-81.3897 131.903 -89.7386 129.339 -97.8051 126.858C-105.749 124.424 -113.953 121.898 -130.102 121.898V120.066C-113.686 120.066 -105.345 122.631 -97.2709 125.111C-89.3265 127.545 -81.1226 130.071 -64.9744 130.071C-48.8261 130.071 -40.6223 127.553 -32.6779 125.111C-24.6114 122.631 -16.2702 120.066 0.152819 120.066V121.898C-15.9878 121.898 -24.1993 124.416 -32.1437 126.858C-40.2102 129.339 -48.5514 131.903 -64.9744 131.903Z" fill="url(#paint94_linear_1017_294)"/>
<path d="M-64.9744 127.285C-81.3821 127.285 -89.7233 124.728 -97.7898 122.248C-105.734 119.806 -113.946 117.288 -130.102 117.288V115.586C-113.694 115.586 -105.353 118.142 -97.2938 120.623C-89.3494 123.065 -81.1302 125.583 -64.9744 125.583C-48.8185 125.583 -40.607 123.065 -32.6626 120.623C-24.6038 118.142 -16.2625 115.586 0.145192 115.586V117.288C-16.0107 117.288 -24.2222 119.806 -32.1666 122.248C-40.2254 124.728 -48.5666 127.285 -64.9744 127.285Z" fill="url(#paint95_linear_1017_294)"/>
<path d="M-64.9744 122.669C-81.3745 122.669 -89.7081 120.112 -97.7669 117.632C-105.719 115.19 -113.938 112.664 -130.102 112.664V111.092C-113.701 111.092 -105.368 113.648 -97.309 116.129C-89.357 118.571 -81.1379 121.097 -64.9744 121.097C-48.8109 121.097 -40.5917 118.571 -32.6397 116.129C-24.5809 113.656 -16.2473 111.092 0.152819 111.092V112.664C-16.0107 112.664 -24.2298 115.19 -32.1818 117.632C-40.2407 120.105 -48.5743 122.669 -64.9744 122.669Z" fill="url(#paint96_linear_1017_294)"/>
<path d="M-64.9744 118.051C-81.3668 118.051 -89.6928 115.495 -97.7516 113.022C-105.711 110.58 -113.93 108.054 -130.102 108.054V106.619C-113.717 106.619 -105.383 109.176 -97.3319 111.648C-89.3723 114.09 -81.1531 116.616 -64.9744 116.616C-48.7956 116.616 -40.5765 114.09 -32.6245 111.648C-24.5732 109.176 -16.2396 106.619 0.145192 106.619V108.054C-16.026 108.054 -24.2527 110.58 -32.2047 113.022C-40.256 115.495 -48.5895 118.051 -64.9744 118.051Z" fill="url(#paint97_linear_1017_294)"/>
<path d="M-64.9744 113.451C-81.3516 113.451 -89.6775 110.894 -97.7364 108.421C-105.696 105.979 -113.923 103.453 -130.102 103.453V102.141C-113.724 102.141 -105.398 104.697 -97.3472 107.17C-89.3875 109.612 -81.1608 112.138 -64.9744 112.138C-48.788 112.138 -40.5612 109.612 -32.6092 107.17C-24.558 104.697 -16.232 102.141 0.145192 102.141V103.453C-16.0336 103.453 -24.268 105.979 -32.22 108.421C-40.2712 110.894 -48.5972 113.451 -64.9744 113.451Z" fill="url(#paint98_linear_1017_294)"/>
<path d="M-64.9744 108.832C-81.3439 108.832 -89.6699 106.276 -97.7135 103.803C-105.673 101.361 -113.908 98.8274 -130.102 98.8274V97.6445C-113.732 97.6445 -105.414 100.201 -97.3624 102.674C-89.4028 105.116 -81.1684 107.649 -64.9744 107.649C-48.7803 107.649 -40.5459 105.123 -32.5863 102.674C-24.5427 100.201 -16.2167 97.6445 0.152819 97.6445V98.8274C-16.0412 98.8274 -24.2756 101.353 -32.2353 103.803C-40.2789 106.276 -48.6048 108.832 -64.9744 108.832Z" fill="url(#paint99_linear_1017_294)"/>
<path d="M-64.9744 104.217C-81.3363 104.217 -89.6546 101.668 -97.6982 99.1951C-105.666 96.7454 -113.9 94.2193 -130.102 94.2193V93.1738C-113.74 93.1738 -105.429 95.7227 -97.3853 98.1954C-89.4181 100.645 -81.1837 103.171 -64.9744 103.171C-48.7651 103.171 -40.5307 100.645 -32.571 98.1954C-24.5274 95.7227 -16.2167 93.1738 0.145192 93.1738V94.2193C-16.0565 94.2193 -24.2985 96.7454 -32.2581 99.1951C-40.3017 101.668 -48.6124 104.217 -64.9744 104.217Z" fill="url(#paint100_linear_1017_294)"/>
<path d="M-64.9744 99.5986C-81.3287 99.5986 -89.6394 97.0497 -97.6753 94.5847C-105.65 92.135 -113.885 89.6013 -130.102 89.6013V88.6855C-113.755 88.6855 -105.444 91.2345 -97.4006 93.6994C-89.4257 96.1492 -81.1837 98.6828 -64.9744 98.6828C-48.7651 98.6828 -40.523 96.1492 -32.5481 93.6994C-24.5122 91.2345 -16.2015 88.6855 0.152819 88.6855V89.6013C-16.0565 89.6013 -24.2985 92.135 -32.2734 94.5847C-40.3094 97.0497 -48.6201 99.5986 -64.9744 99.5986Z" fill="url(#paint101_linear_1017_294)"/>
<path d="M-64.9744 94.99C-81.3134 94.99 -89.6241 92.4411 -97.6601 89.9684C-105.635 87.5187 -113.885 84.9851 -130.102 84.9851V84.1914C-113.763 84.1914 -105.459 86.7403 -97.4235 89.2129C-89.4486 91.6626 -81.1989 94.1963 -64.9744 94.1963C-48.7498 94.1963 -40.5078 91.6626 -32.5329 89.2129C-24.4969 86.748 -16.1938 84.1914 0.145192 84.1914V84.9851C-16.0717 84.9851 -24.3214 87.5187 -32.2963 89.9684C-40.3323 92.4334 -48.6353 94.99 -64.9744 94.99Z" fill="url(#paint102_linear_1017_294)"/>
<path d="M-64.9744 90.38C-81.3058 90.38 -89.6088 87.831 -97.6372 85.3661C-105.62 82.9163 -113.869 80.3827 -130.102 80.3827V79.7188C-113.77 79.7188 -105.467 82.2677 -97.4464 84.7326C-89.4638 87.1824 -81.2066 89.716 -64.9744 89.716C-48.7422 89.716 -40.4925 87.1824 -32.51 84.7326C-24.4816 82.2677 -16.1786 79.7188 0.145192 79.7188V80.3827C-16.087 80.3827 -24.3367 82.9163 -32.3192 85.3661C-40.3475 87.831 -48.6506 90.38 -64.9744 90.38Z" fill="url(#paint103_linear_1017_294)"/>
<path d="M-64.9744 85.7621C-81.2981 85.7621 -89.5936 83.2208 -97.6143 80.7559C-105.597 78.3061 -113.862 75.7649 -130.102 75.7649V75.2383C-113.778 75.2383 -105.482 77.7796 -97.4617 80.2445C-89.4715 82.6943 -81.2142 85.2355 -64.9744 85.2355C-48.7345 85.2355 -40.4773 82.7019 -32.4871 80.2445C-24.4664 77.7796 -16.171 75.2383 0.152819 75.2383V75.7649C-16.087 75.7649 -24.3443 78.2985 -32.3345 80.7559C-40.3552 83.2208 -48.6506 85.7621 -64.9744 85.7621Z" fill="url(#paint104_linear_1017_294)"/>
<path d="M-64.9744 86.0683C-81.4355 86.0683 -89.7996 83.4965 -97.889 81.0162C-105.811 78.5818 -113.999 76.071 -130.102 76.071V73.7129C-113.64 73.7129 -105.284 76.2847 -97.1945 78.7649C-89.2731 81.1994 -81.0845 83.7102 -64.9744 83.7102C-48.8643 83.7102 -40.6833 81.1994 -32.7618 78.7649C-24.6724 76.2771 -16.3083 73.7129 0.145192 73.7129V76.071C-15.9573 76.071 -24.1459 78.5818 -32.0674 81.0162C-40.1567 83.5041 -48.5209 86.0683 -64.9744 86.0683Z" fill="url(#paint105_linear_1017_294)"/>
<path d="M-64.9744 81.4504C-81.4279 81.4504 -89.7844 78.8786 -97.8661 76.406C-105.795 73.9716 -113.991 71.4532 -130.102 71.4532V69.2324C-113.656 69.2324 -105.299 71.7966 -97.2174 74.2768C-89.2883 76.7113 -81.0921 79.2297 -64.982 79.2297C-48.8719 79.2297 -40.6757 76.7113 -32.7466 74.2768C-24.6648 71.7966 -16.3083 69.2324 0.137563 69.2324V71.4532C-15.9802 71.4532 -24.1687 73.9716 -32.0979 76.406C-40.1796 78.8863 -48.5361 81.4504 -64.982 81.4504H-64.9744Z" fill="url(#paint106_linear_1017_294)"/>
<path d="M-64.9744 76.8422C-81.4126 76.8422 -89.7691 74.278 -97.8432 71.7978C-105.772 69.3633 -113.976 66.8449 -130.102 66.8449V64.7539C-113.663 64.7539 -105.307 67.3181 -97.2327 69.7983C-89.3036 72.2328 -81.0997 74.7512 -64.9744 74.7512C-48.849 74.7512 -40.6528 72.2328 -32.716 69.7983C-24.6419 67.3181 -16.2854 64.7539 0.152819 64.7539V66.8449C-15.9725 66.8449 -24.1688 69.3633 -32.1055 71.7978C-40.1796 74.278 -48.5361 76.8422 -64.9744 76.8422Z" fill="url(#paint107_linear_1017_294)"/>
<path d="M-64.9744 72.224C-81.405 72.224 -89.7538 69.6598 -97.828 67.1796C-105.765 64.7451 -113.969 62.2191 -130.102 62.2191V60.2578C-113.679 60.2578 -105.33 62.822 -97.2556 65.3022C-89.3188 67.7367 -81.115 70.2627 -64.9744 70.2627C-48.8338 70.2627 -40.6375 67.7443 -32.7008 65.3022C-24.6266 62.822 -16.2778 60.2578 0.145192 60.2578V62.2191C-15.9878 62.2191 -24.1917 64.7375 -32.1284 67.1796C-40.2025 69.6598 -48.5514 72.224 -64.9744 72.224Z" fill="url(#paint108_linear_1017_294)"/>
<path d="M-64.9744 67.6158C-81.3897 67.6158 -89.7386 65.0516 -97.8051 62.5713C-105.749 60.1369 -113.953 57.6109 -130.102 57.6109V55.7793C-113.686 55.7793 -105.345 58.3435 -97.2709 60.8237C-89.3265 63.2582 -81.1226 65.7842 -64.9744 65.7842C-48.8261 65.7842 -40.6223 63.2658 -32.6779 60.8237C-24.6114 58.3435 -16.2702 55.7793 0.152819 55.7793V57.6109C-15.9878 57.6109 -24.1993 60.1293 -32.1437 62.5713C-40.2102 65.0516 -48.5514 67.6158 -64.9744 67.6158Z" fill="url(#paint109_linear_1017_294)"/>
<path d="M-64.9744 62.9979C-81.3821 62.9979 -89.7233 60.4414 -97.7898 57.9611C-105.734 55.519 -113.946 53.0006 -130.102 53.0006V51.2988C-113.694 51.2988 -105.353 53.8554 -97.2938 56.3356C-89.3494 58.7777 -81.1302 61.2961 -64.9744 61.2961C-48.8185 61.2961 -40.607 58.7777 -32.6626 56.3356C-24.6038 53.863 -16.2625 51.2988 0.145192 51.2988V53.0006C-16.0107 53.0006 -24.2222 55.519 -32.1666 57.9611C-40.2254 60.4337 -48.5666 62.9979 -64.9744 62.9979Z" fill="url(#paint110_linear_1017_294)"/>
<path d="M-64.9744 58.3895C-81.3745 58.3895 -89.7081 55.8329 -97.7669 53.3527C-105.719 50.9106 -113.938 48.3846 -130.102 48.3846V46.8125C-113.701 46.8125 -105.368 49.3691 -97.309 51.8493C-89.357 54.2914 -81.1379 56.8174 -64.9744 56.8174C-48.8109 56.8174 -40.5917 54.2914 -32.6397 51.8493C-24.5809 49.3767 -16.2473 46.8125 0.152819 46.8125V48.3846C-16.0107 48.3846 -24.2298 50.9106 -32.1818 53.3527C-40.2407 55.8253 -48.5743 58.3895 -64.9744 58.3895Z" fill="url(#paint111_linear_1017_294)"/>
<path d="M-64.9744 53.7718C-81.3668 53.7718 -89.6928 51.2153 -97.7516 48.7427C-105.711 46.3006 -113.93 43.7746 -130.102 43.7746V42.3398C-113.717 42.3398 -105.383 44.8964 -97.3319 47.369C-89.3723 49.8111 -81.1531 52.3371 -64.9744 52.3371C-48.7956 52.3371 -40.5765 49.8111 -32.6245 47.369C-24.5732 44.8964 -16.2396 42.3398 0.145192 42.3398V43.7746C-16.026 43.7746 -24.2527 46.3006 -32.2047 48.7427C-40.256 51.2153 -48.5895 53.7718 -64.9744 53.7718Z" fill="url(#paint112_linear_1017_294)"/>
<path d="M-64.9744 49.1614C-81.3516 49.1614 -89.6775 46.6049 -97.7364 44.1323C-105.696 41.6902 -113.923 39.1642 -130.102 39.1642V37.8516C-113.724 37.8516 -105.398 40.4081 -97.3472 42.8807C-89.3875 45.3228 -81.1608 47.8488 -64.9744 47.8488C-48.788 47.8488 -40.5612 45.3228 -32.6016 42.8807C-24.5503 40.4081 -16.232 37.8516 0.152819 37.8516V39.1642C-16.026 39.1642 -24.2603 41.6902 -32.22 44.1323C-40.2712 46.6049 -48.5895 49.1614 -64.9744 49.1614Z" fill="url(#paint113_linear_1017_294)"/>
<path d="M-64.9744 44.5452C-81.3439 44.5452 -89.6699 41.9886 -97.7135 39.516C-105.673 37.074 -113.908 34.5403 -130.102 34.5403V33.3574C-113.732 33.3574 -105.414 35.914 -97.3624 38.3866C-89.4028 40.8287 -81.1684 43.3623 -64.9744 43.3623C-48.7803 43.3623 -40.5459 40.8363 -32.5863 38.3866C-24.5427 35.914 -16.2167 33.3574 0.152819 33.3574V34.5403C-16.0412 34.5403 -24.2756 37.0663 -32.2353 39.516C-40.2789 41.9886 -48.6048 44.5452 -64.9744 44.5452Z" fill="url(#paint114_linear_1017_294)"/>
<path d="M-64.9744 39.9275C-81.3363 39.9275 -89.6546 37.3786 -97.6982 34.906C-105.666 32.4563 -113.9 29.9303 -130.102 29.9303V28.8848C-113.74 28.8848 -105.429 31.4337 -97.3853 33.9063C-89.4181 36.356 -81.1837 38.882 -64.9744 38.882C-48.7651 38.882 -40.5307 36.356 -32.571 33.9063C-24.5274 31.4337 -16.2167 28.8848 0.145192 28.8848V29.9303C-16.0565 29.9303 -24.2985 32.4563 -32.2581 34.906C-40.3017 37.3786 -48.6124 39.9275 -64.9744 39.9275Z" fill="url(#paint115_linear_1017_294)"/>
<path d="M-64.9744 35.3191C-81.3287 35.3191 -89.6394 32.7702 -97.6753 30.2976C-105.65 27.8479 -113.885 25.3142 -130.102 25.3142V24.3984C-113.755 24.3984 -105.444 26.9474 -97.4006 29.42C-89.4257 31.8697 -81.1837 34.4033 -64.9744 34.4033C-48.7651 34.4033 -40.523 31.8697 -32.5481 29.42C-24.5122 26.955 -16.2015 24.3984 0.152819 24.3984V25.3142C-16.0565 25.3142 -24.2985 27.8479 -32.2734 30.2976C-40.3094 32.7626 -48.6201 35.3191 -64.9744 35.3191Z" fill="url(#paint116_linear_1017_294)"/>
<path d="M-64.9744 30.7011C-81.3134 30.7011 -89.6241 28.1522 -97.6601 25.6872C-105.635 23.2375 -113.885 20.7038 -130.102 20.7038V19.9102C-113.763 19.9102 -105.459 22.4591 -97.4235 24.924C-89.4486 27.3738 -81.1989 29.9074 -64.9744 29.9074C-48.7498 29.9074 -40.5078 27.3814 -32.5329 24.924C-24.4969 22.4591 -16.1938 19.9102 0.145192 19.9102V20.7038C-16.0717 20.7038 -24.3214 23.2299 -32.2963 25.6872C-40.3323 28.1522 -48.6353 30.7011 -64.9744 30.7011Z" fill="url(#paint117_linear_1017_294)"/>
<path d="M-64.9744 26.0928C-81.3058 26.0928 -89.6088 23.5439 -97.6372 21.0789C-105.62 18.6292 -113.869 16.0956 -130.102 16.0956V15.4316C-113.77 15.4316 -105.467 17.9806 -97.4464 20.4455C-89.4638 22.8952 -81.2066 25.4289 -64.9744 25.4289C-48.7422 25.4289 -40.4925 22.8952 -32.51 20.4455C-24.4816 17.9806 -16.1786 15.4316 0.145192 15.4316V16.0956C-16.087 16.0956 -24.3367 18.6292 -32.3192 21.0789C-40.3475 23.5439 -48.6506 26.0928 -64.9744 26.0928Z" fill="url(#paint118_linear_1017_294)"/>
<path d="M-64.9744 21.4748C-81.2981 21.4748 -89.5936 18.9259 -97.6143 16.4609C-105.597 14.0112 -113.862 11.4699 -130.102 11.4699V10.9434C-113.778 10.9434 -105.482 13.4923 -97.4617 15.9573C-89.4715 18.407 -81.2142 20.9483 -64.9744 20.9483C-48.7345 20.9483 -40.4773 18.4146 -32.4871 15.9573C-24.4664 13.4923 -16.171 10.9434 0.152819 10.9434V11.4699C-16.087 11.4699 -24.3443 14.0036 -32.3345 16.4609C-40.3552 18.9259 -48.6506 21.4748 -64.9744 21.4748Z" fill="url(#paint119_linear_1017_294)"/>
</g>
</g>
<defs>
<linearGradient id="paint0_linear_1017_294" x1="325.764" y1="18.8948" x2="325.764" y2="104.97" gradientUnits="userSpaceOnUse">
<stop stop-color="#B2D3E9"/>
<stop offset="1" stop-color="white"/>
</linearGradient>
<linearGradient id="paint1_linear_1017_294" x1="325.764" y1="18.8949" x2="325.764" y2="104.971" gradientUnits="userSpaceOnUse">
<stop stop-color="#B2D3E9"/>
<stop offset="1" stop-color="white"/>
</linearGradient>
<linearGradient id="paint2_linear_1017_294" x1="325.766" y1="18.8951" x2="325.766" y2="104.971" gradientUnits="userSpaceOnUse">
<stop stop-color="#B2D3E9"/>
<stop offset="1" stop-color="white"/>
</linearGradient>
<linearGradient id="paint3_linear_1017_294" x1="325.764" y1="18.895" x2="325.764" y2="104.971" gradientUnits="userSpaceOnUse">
<stop stop-color="#B2D3E9"/>
<stop offset="1" stop-color="white"/>
</linearGradient>
<linearGradient id="paint4_linear_1017_294" x1="325.766" y1="18.895" x2="325.766" y2="104.971" gradientUnits="userSpaceOnUse">
<stop stop-color="#B2D3E9"/>
<stop offset="1" stop-color="white"/>
</linearGradient>
<linearGradient id="paint5_linear_1017_294" x1="325.764" y1="18.8953" x2="325.764" y2="104.971" gradientUnits="userSpaceOnUse">
<stop stop-color="#B2D3E9"/>
<stop offset="1" stop-color="white"/>
</linearGradient>
<linearGradient id="paint6_linear_1017_294" x1="325.766" y1="18.895" x2="325.766" y2="104.971" gradientUnits="userSpaceOnUse">
<stop stop-color="#B2D3E9"/>
<stop offset="1" stop-color="white"/>
</linearGradient>
<linearGradient id="paint7_linear_1017_294" x1="325.764" y1="18.8954" x2="325.764" y2="104.971" gradientUnits="userSpaceOnUse">
<stop stop-color="#B2D3E9"/>
<stop offset="1" stop-color="white"/>
</linearGradient>
<linearGradient id="paint8_linear_1017_294" x1="325.764" y1="18.8953" x2="325.764" y2="104.971" gradientUnits="userSpaceOnUse">
<stop stop-color="#B2D3E9"/>
<stop offset="1" stop-color="white"/>
</linearGradient>
<linearGradient id="paint9_linear_1017_294" x1="325.766" y1="18.8952" x2="325.766" y2="104.971" gradientUnits="userSpaceOnUse">
<stop stop-color="#B2D3E9"/>
<stop offset="1" stop-color="white"/>
</linearGradient>
<linearGradient id="paint10_linear_1017_294" x1="325.764" y1="18.8956" x2="325.764" y2="104.971" gradientUnits="userSpaceOnUse">
<stop stop-color="#B2D3E9"/>
<stop offset="1" stop-color="white"/>
</linearGradient>
<linearGradient id="paint11_linear_1017_294" x1="325.766" y1="18.8954" x2="325.766" y2="104.971" gradientUnits="userSpaceOnUse">
<stop stop-color="#B2D3E9"/>
<stop offset="1" stop-color="white"/>
</linearGradient>
<linearGradient id="paint12_linear_1017_294" x1="325.764" y1="18.8953" x2="325.764" y2="104.971" gradientUnits="userSpaceOnUse">
<stop stop-color="#B2D3E9"/>
<stop offset="1" stop-color="white"/>
</linearGradient>
<linearGradient id="paint13_linear_1017_294" x1="325.764" y1="18.8956" x2="325.764" y2="104.971" gradientUnits="userSpaceOnUse">
<stop stop-color="#B2D3E9"/>
<stop offset="1" stop-color="white"/>
</linearGradient>
<linearGradient id="paint14_linear_1017_294" x1="325.766" y1="18.8958" x2="325.766" y2="104.971" gradientUnits="userSpaceOnUse">
<stop stop-color="#B2D3E9"/>
<stop offset="1" stop-color="white"/>
</linearGradient>
<linearGradient id="paint15_linear_1017_294" x1="195.518" y1="18.8952" x2="195.518" y2="104.971" gradientUnits="userSpaceOnUse">
<stop stop-color="#B2D3E9"/>
<stop offset="1" stop-color="white"/>
</linearGradient>
<linearGradient id="paint16_linear_1017_294" x1="195.518" y1="18.8962" x2="195.518" y2="104.972" gradientUnits="userSpaceOnUse">
<stop stop-color="#B2D3E9"/>
<stop offset="1" stop-color="white"/>
</linearGradient>
<linearGradient id="paint17_linear_1017_294" x1="195.518" y1="18.8955" x2="195.518" y2="104.971" gradientUnits="userSpaceOnUse">
<stop stop-color="#B2D3E9"/>
<stop offset="1" stop-color="white"/>
</linearGradient>
<linearGradient id="paint18_linear_1017_294" x1="195.518" y1="18.8947" x2="195.518" y2="104.97" gradientUnits="userSpaceOnUse">
<stop stop-color="#B2D3E9"/>
<stop offset="1" stop-color="white"/>
</linearGradient>
<linearGradient id="paint19_linear_1017_294" x1="195.518" y1="18.8957" x2="195.518" y2="104.971" gradientUnits="userSpaceOnUse">
<stop stop-color="#B2D3E9"/>
<stop offset="1" stop-color="white"/>
</linearGradient>
<linearGradient id="paint20_linear_1017_294" x1="195.518" y1="18.895" x2="195.518" y2="104.971" gradientUnits="userSpaceOnUse">
<stop stop-color="#B2D3E9"/>
<stop offset="1" stop-color="white"/>
</linearGradient>
<linearGradient id="paint21_linear_1017_294" x1="195.518" y1="18.8957" x2="195.518" y2="104.971" gradientUnits="userSpaceOnUse">
<stop stop-color="#B2D3E9"/>
<stop offset="1" stop-color="white"/>
</linearGradient>
<linearGradient id="paint22_linear_1017_294" x1="195.518" y1="18.8951" x2="195.518" y2="104.971" gradientUnits="userSpaceOnUse">
<stop stop-color="#B2D3E9"/>
<stop offset="1" stop-color="white"/>
</linearGradient>
<linearGradient id="paint23_linear_1017_294" x1="195.518" y1="18.8962" x2="195.518" y2="104.972" gradientUnits="userSpaceOnUse">
<stop stop-color="#B2D3E9"/>
<stop offset="1" stop-color="white"/>
</linearGradient>
<linearGradient id="paint24_linear_1017_294" x1="195.518" y1="18.8951" x2="195.518" y2="104.971" gradientUnits="userSpaceOnUse">
<stop stop-color="#B2D3E9"/>
<stop offset="1" stop-color="white"/>
</linearGradient>
<linearGradient id="paint25_linear_1017_294" x1="195.518" y1="18.8965" x2="195.518" y2="104.972" gradientUnits="userSpaceOnUse">
<stop stop-color="#B2D3E9"/>
<stop offset="1" stop-color="white"/>
</linearGradient>
<linearGradient id="paint26_linear_1017_294" x1="195.518" y1="18.8955" x2="195.518" y2="104.971" gradientUnits="userSpaceOnUse">
<stop stop-color="#B2D3E9"/>
<stop offset="1" stop-color="white"/>
</linearGradient>
<linearGradient id="paint27_linear_1017_294" x1="195.518" y1="18.8963" x2="195.518" y2="104.972" gradientUnits="userSpaceOnUse">
<stop stop-color="#B2D3E9"/>
<stop offset="1" stop-color="white"/>
</linearGradient>
<linearGradient id="paint28_linear_1017_294" x1="195.518" y1="18.8957" x2="195.518" y2="104.971" gradientUnits="userSpaceOnUse">
<stop stop-color="#B2D3E9"/>
<stop offset="1" stop-color="white"/>
</linearGradient>
<linearGradient id="paint29_linear_1017_294" x1="195.518" y1="18.8949" x2="195.518" y2="104.971" gradientUnits="userSpaceOnUse">
<stop stop-color="#B2D3E9"/>
<stop offset="1" stop-color="white"/>
</linearGradient>
<linearGradient id="paint30_linear_1017_294" x1="65.2719" y1="18.8948" x2="65.2719" y2="104.97" gradientUnits="userSpaceOnUse">
<stop stop-color="#B2D3E9"/>
<stop offset="1" stop-color="white"/>
</linearGradient>
<linearGradient id="paint31_linear_1017_294" x1="65.2719" y1="18.8949" x2="65.2719" y2="104.971" gradientUnits="userSpaceOnUse">
<stop stop-color="#B2D3E9"/>
<stop offset="1" stop-color="white"/>
</linearGradient>
<linearGradient id="paint32_linear_1017_294" x1="65.2715" y1="18.8951" x2="65.2715" y2="104.971" gradientUnits="userSpaceOnUse">
<stop stop-color="#B2D3E9"/>
<stop offset="1" stop-color="white"/>
</linearGradient>
<linearGradient id="paint33_linear_1017_294" x1="65.2719" y1="18.895" x2="65.2719" y2="104.971" gradientUnits="userSpaceOnUse">
<stop stop-color="#B2D3E9"/>
<stop offset="1" stop-color="white"/>
</linearGradient>
<linearGradient id="paint34_linear_1017_294" x1="65.2715" y1="18.895" x2="65.2715" y2="104.971" gradientUnits="userSpaceOnUse">
<stop stop-color="#B2D3E9"/>
<stop offset="1" stop-color="white"/>
</linearGradient>
<linearGradient id="paint35_linear_1017_294" x1="65.2719" y1="18.8953" x2="65.2719" y2="104.971" gradientUnits="userSpaceOnUse">
<stop stop-color="#B2D3E9"/>
<stop offset="1" stop-color="white"/>
</linearGradient>
<linearGradient id="paint36_linear_1017_294" x1="65.2715" y1="18.895" x2="65.2715" y2="104.971" gradientUnits="userSpaceOnUse">
<stop stop-color="#B2D3E9"/>
<stop offset="1" stop-color="white"/>
</linearGradient>
<linearGradient id="paint37_linear_1017_294" x1="65.2719" y1="18.8954" x2="65.2719" y2="104.971" gradientUnits="userSpaceOnUse">
<stop stop-color="#B2D3E9"/>
<stop offset="1" stop-color="white"/>
</linearGradient>
<linearGradient id="paint38_linear_1017_294" x1="65.2719" y1="18.8953" x2="65.2719" y2="104.971" gradientUnits="userSpaceOnUse">
<stop stop-color="#B2D3E9"/>
<stop offset="1" stop-color="white"/>
</linearGradient>
<linearGradient id="paint39_linear_1017_294" x1="65.2715" y1="18.8952" x2="65.2715" y2="104.971" gradientUnits="userSpaceOnUse">
<stop stop-color="#B2D3E9"/>
<stop offset="1" stop-color="white"/>
</linearGradient>
<linearGradient id="paint40_linear_1017_294" x1="65.2719" y1="18.8956" x2="65.2719" y2="104.971" gradientUnits="userSpaceOnUse">
<stop stop-color="#B2D3E9"/>
<stop offset="1" stop-color="white"/>
</linearGradient>
<linearGradient id="paint41_linear_1017_294" x1="65.2715" y1="18.8954" x2="65.2715" y2="104.971" gradientUnits="userSpaceOnUse">
<stop stop-color="#B2D3E9"/>
<stop offset="1" stop-color="white"/>
</linearGradient>
<linearGradient id="paint42_linear_1017_294" x1="65.2719" y1="18.8953" x2="65.2719" y2="104.971" gradientUnits="userSpaceOnUse">
<stop stop-color="#B2D3E9"/>
<stop offset="1" stop-color="white"/>
</linearGradient>
<linearGradient id="paint43_linear_1017_294" x1="65.2719" y1="18.8956" x2="65.2719" y2="104.971" gradientUnits="userSpaceOnUse">
<stop stop-color="#B2D3E9"/>
<stop offset="1" stop-color="white"/>
</linearGradient>
<linearGradient id="paint44_linear_1017_294" x1="65.2715" y1="18.8958" x2="65.2715" y2="104.971" gradientUnits="userSpaceOnUse">
<stop stop-color="#B2D3E9"/>
<stop offset="1" stop-color="white"/>
</linearGradient>
<linearGradient id="paint45_linear_1017_294" x1="325.764" y1="18.8956" x2="325.764" y2="104.971" gradientUnits="userSpaceOnUse">
<stop stop-color="#B2D3E9"/>
<stop offset="1" stop-color="white"/>
</linearGradient>
<linearGradient id="paint46_linear_1017_294" x1="325.764" y1="18.8955" x2="325.764" y2="104.971" gradientUnits="userSpaceOnUse">
<stop stop-color="#B2D3E9"/>
<stop offset="1" stop-color="white"/>
</linearGradient>
<linearGradient id="paint47_linear_1017_294" x1="325.766" y1="18.8957" x2="325.766" y2="104.971" gradientUnits="userSpaceOnUse">
<stop stop-color="#B2D3E9"/>
<stop offset="1" stop-color="white"/>
</linearGradient>
<linearGradient id="paint48_linear_1017_294" x1="325.764" y1="18.8956" x2="325.764" y2="104.971" gradientUnits="userSpaceOnUse">
<stop stop-color="#B2D3E9"/>
<stop offset="1" stop-color="white"/>
</linearGradient>
<linearGradient id="paint49_linear_1017_294" x1="325.766" y1="18.8958" x2="325.766" y2="104.971" gradientUnits="userSpaceOnUse">
<stop stop-color="#B2D3E9"/>
<stop offset="1" stop-color="white"/>
</linearGradient>
<linearGradient id="paint50_linear_1017_294" x1="325.764" y1="18.8959" x2="325.764" y2="104.972" gradientUnits="userSpaceOnUse">
<stop stop-color="#B2D3E9"/>
<stop offset="1" stop-color="white"/>
</linearGradient>
<linearGradient id="paint51_linear_1017_294" x1="325.766" y1="18.8957" x2="325.766" y2="104.971" gradientUnits="userSpaceOnUse">
<stop stop-color="#B2D3E9"/>
<stop offset="1" stop-color="white"/>
</linearGradient>
<linearGradient id="paint52_linear_1017_294" x1="325.764" y1="18.8961" x2="325.764" y2="104.972" gradientUnits="userSpaceOnUse">
<stop stop-color="#B2D3E9"/>
<stop offset="1" stop-color="white"/>
</linearGradient>
<linearGradient id="paint53_linear_1017_294" x1="325.764" y1="18.8961" x2="325.764" y2="104.972" gradientUnits="userSpaceOnUse">
<stop stop-color="#B2D3E9"/>
<stop offset="1" stop-color="white"/>
</linearGradient>
<linearGradient id="paint54_linear_1017_294" x1="325.766" y1="18.8961" x2="325.766" y2="104.972" gradientUnits="userSpaceOnUse">
<stop stop-color="#B2D3E9"/>
<stop offset="1" stop-color="white"/>
</linearGradient>
<linearGradient id="paint55_linear_1017_294" x1="325.764" y1="18.8962" x2="325.764" y2="104.972" gradientUnits="userSpaceOnUse">
<stop stop-color="#B2D3E9"/>
<stop offset="1" stop-color="white"/>
</linearGradient>
<linearGradient id="paint56_linear_1017_294" x1="325.766" y1="18.8961" x2="325.766" y2="104.972" gradientUnits="userSpaceOnUse">
<stop stop-color="#B2D3E9"/>
<stop offset="1" stop-color="white"/>
</linearGradient>
<linearGradient id="paint57_linear_1017_294" x1="325.764" y1="18.8961" x2="325.764" y2="104.972" gradientUnits="userSpaceOnUse">
<stop stop-color="#B2D3E9"/>
<stop offset="1" stop-color="white"/>
</linearGradient>
<linearGradient id="paint58_linear_1017_294" x1="325.764" y1="18.8962" x2="325.764" y2="104.972" gradientUnits="userSpaceOnUse">
<stop stop-color="#B2D3E9"/>
<stop offset="1" stop-color="white"/>
</linearGradient>
<linearGradient id="paint59_linear_1017_294" x1="325.766" y1="18.8962" x2="325.766" y2="104.972" gradientUnits="userSpaceOnUse">
<stop stop-color="#B2D3E9"/>
<stop offset="1" stop-color="white"/>
</linearGradient>
<linearGradient id="paint60_linear_1017_294" x1="195.518" y1="18.8958" x2="195.518" y2="104.972" gradientUnits="userSpaceOnUse">
<stop stop-color="#B2D3E9"/>
<stop offset="1" stop-color="white"/>
</linearGradient>
<linearGradient id="paint61_linear_1017_294" x1="195.518" y1="18.8951" x2="195.518" y2="104.971" gradientUnits="userSpaceOnUse">
<stop stop-color="#B2D3E9"/>
<stop offset="1" stop-color="white"/>
</linearGradient>
<linearGradient id="paint62_linear_1017_294" x1="195.518" y1="18.8962" x2="195.518" y2="104.972" gradientUnits="userSpaceOnUse">
<stop stop-color="#B2D3E9"/>
<stop offset="1" stop-color="white"/>
</linearGradient>
<linearGradient id="paint63_linear_1017_294" x1="195.518" y1="18.8951" x2="195.518" y2="104.971" gradientUnits="userSpaceOnUse">
<stop stop-color="#B2D3E9"/>
<stop offset="1" stop-color="white"/>
</linearGradient>
<linearGradient id="paint64_linear_1017_294" x1="195.518" y1="18.8963" x2="195.518" y2="104.972" gradientUnits="userSpaceOnUse">
<stop stop-color="#B2D3E9"/>
<stop offset="1" stop-color="white"/>
</linearGradient>
<linearGradient id="paint65_linear_1017_294" x1="195.518" y1="18.8955" x2="195.518" y2="104.971" gradientUnits="userSpaceOnUse">
<stop stop-color="#B2D3E9"/>
<stop offset="1" stop-color="white"/>
</linearGradient>
<linearGradient id="paint66_linear_1017_294" x1="195.518" y1="18.8965" x2="195.518" y2="104.972" gradientUnits="userSpaceOnUse">
<stop stop-color="#B2D3E9"/>
<stop offset="1" stop-color="white"/>
</linearGradient>
<linearGradient id="paint67_linear_1017_294" x1="195.518" y1="18.8959" x2="195.518" y2="104.972" gradientUnits="userSpaceOnUse">
<stop stop-color="#B2D3E9"/>
<stop offset="1" stop-color="white"/>
</linearGradient>
<linearGradient id="paint68_linear_1017_294" x1="195.518" y1="18.8949" x2="195.518" y2="104.971" gradientUnits="userSpaceOnUse">
<stop stop-color="#B2D3E9"/>
<stop offset="1" stop-color="white"/>
</linearGradient>
<linearGradient id="paint69_linear_1017_294" x1="195.518" y1="18.8957" x2="195.518" y2="104.971" gradientUnits="userSpaceOnUse">
<stop stop-color="#B2D3E9"/>
<stop offset="1" stop-color="white"/>
</linearGradient>
<linearGradient id="paint70_linear_1017_294" x1="195.518" y1="18.8951" x2="195.518" y2="104.971" gradientUnits="userSpaceOnUse">
<stop stop-color="#B2D3E9"/>
<stop offset="1" stop-color="white"/>
</linearGradient>
<linearGradient id="paint71_linear_1017_294" x1="195.518" y1="18.8961" x2="195.518" y2="104.972" gradientUnits="userSpaceOnUse">
<stop stop-color="#B2D3E9"/>
<stop offset="1" stop-color="white"/>
</linearGradient>
<linearGradient id="paint72_linear_1017_294" x1="195.518" y1="18.8952" x2="195.518" y2="104.971" gradientUnits="userSpaceOnUse">
<stop stop-color="#B2D3E9"/>
<stop offset="1" stop-color="white"/>
</linearGradient>
<linearGradient id="paint73_linear_1017_294" x1="195.518" y1="18.8963" x2="195.518" y2="104.972" gradientUnits="userSpaceOnUse">
<stop stop-color="#B2D3E9"/>
<stop offset="1" stop-color="white"/>
</linearGradient>
<linearGradient id="paint74_linear_1017_294" x1="195.518" y1="18.8954" x2="195.518" y2="104.971" gradientUnits="userSpaceOnUse">
<stop stop-color="#B2D3E9"/>
<stop offset="1" stop-color="white"/>
</linearGradient>
<linearGradient id="paint75_linear_1017_294" x1="65.2719" y1="18.8956" x2="65.2719" y2="104.971" gradientUnits="userSpaceOnUse">
<stop stop-color="#B2D3E9"/>
<stop offset="1" stop-color="white"/>
</linearGradient>
<linearGradient id="paint76_linear_1017_294" x1="65.2719" y1="18.8955" x2="65.2719" y2="104.971" gradientUnits="userSpaceOnUse">
<stop stop-color="#B2D3E9"/>
<stop offset="1" stop-color="white"/>
</linearGradient>
<linearGradient id="paint77_linear_1017_294" x1="65.2715" y1="18.8957" x2="65.2715" y2="104.971" gradientUnits="userSpaceOnUse">
<stop stop-color="#B2D3E9"/>
<stop offset="1" stop-color="white"/>
</linearGradient>
<linearGradient id="paint78_linear_1017_294" x1="65.2719" y1="18.8956" x2="65.2719" y2="104.971" gradientUnits="userSpaceOnUse">
<stop stop-color="#B2D3E9"/>
<stop offset="1" stop-color="white"/>
</linearGradient>
<linearGradient id="paint79_linear_1017_294" x1="65.2715" y1="18.8958" x2="65.2715" y2="104.971" gradientUnits="userSpaceOnUse">
<stop stop-color="#B2D3E9"/>
<stop offset="1" stop-color="white"/>
</linearGradient>
<linearGradient id="paint80_linear_1017_294" x1="65.2719" y1="18.8959" x2="65.2719" y2="104.972" gradientUnits="userSpaceOnUse">
<stop stop-color="#B2D3E9"/>
<stop offset="1" stop-color="white"/>
</linearGradient>
<linearGradient id="paint81_linear_1017_294" x1="65.2715" y1="18.8957" x2="65.2715" y2="104.971" gradientUnits="userSpaceOnUse">
<stop stop-color="#B2D3E9"/>
<stop offset="1" stop-color="white"/>
</linearGradient>
<linearGradient id="paint82_linear_1017_294" x1="65.2719" y1="18.8961" x2="65.2719" y2="104.972" gradientUnits="userSpaceOnUse">
<stop stop-color="#B2D3E9"/>
<stop offset="1" stop-color="white"/>
</linearGradient>
<linearGradient id="paint83_linear_1017_294" x1="65.2719" y1="18.8961" x2="65.2719" y2="104.972" gradientUnits="userSpaceOnUse">
<stop stop-color="#B2D3E9"/>
<stop offset="1" stop-color="white"/>
</linearGradient>
<linearGradient id="paint84_linear_1017_294" x1="65.2715" y1="18.8961" x2="65.2715" y2="104.972" gradientUnits="userSpaceOnUse">
<stop stop-color="#B2D3E9"/>
<stop offset="1" stop-color="white"/>
</linearGradient>
<linearGradient id="paint85_linear_1017_294" x1="65.2719" y1="18.8962" x2="65.2719" y2="104.972" gradientUnits="userSpaceOnUse">
<stop stop-color="#B2D3E9"/>
<stop offset="1" stop-color="white"/>
</linearGradient>
<linearGradient id="paint86_linear_1017_294" x1="65.2715" y1="18.8961" x2="65.2715" y2="104.972" gradientUnits="userSpaceOnUse">
<stop stop-color="#B2D3E9"/>
<stop offset="1" stop-color="white"/>
</linearGradient>
<linearGradient id="paint87_linear_1017_294" x1="65.2719" y1="18.8961" x2="65.2719" y2="104.972" gradientUnits="userSpaceOnUse">
<stop stop-color="#B2D3E9"/>
<stop offset="1" stop-color="white"/>
</linearGradient>
<linearGradient id="paint88_linear_1017_294" x1="65.2719" y1="18.8962" x2="65.2719" y2="104.972" gradientUnits="userSpaceOnUse">
<stop stop-color="#B2D3E9"/>
<stop offset="1" stop-color="white"/>
</linearGradient>
<linearGradient id="paint89_linear_1017_294" x1="65.2715" y1="18.8962" x2="65.2715" y2="104.972" gradientUnits="userSpaceOnUse">
<stop stop-color="#B2D3E9"/>
<stop offset="1" stop-color="white"/>
</linearGradient>
<linearGradient id="paint90_linear_1017_294" x1="-64.982" y1="18.8952" x2="-64.982" y2="104.971" gradientUnits="userSpaceOnUse">
<stop stop-color="#B2D3E9"/>
<stop offset="1" stop-color="white"/>
</linearGradient>
<linearGradient id="paint91_linear_1017_294" x1="-64.9744" y1="18.8962" x2="-64.9744" y2="104.972" gradientUnits="userSpaceOnUse">
<stop stop-color="#B2D3E9"/>
<stop offset="1" stop-color="white"/>
</linearGradient>
<linearGradient id="paint92_linear_1017_294" x1="-64.9744" y1="18.8955" x2="-64.9744" y2="104.971" gradientUnits="userSpaceOnUse">
<stop stop-color="#B2D3E9"/>
<stop offset="1" stop-color="white"/>
</linearGradient>
<linearGradient id="paint93_linear_1017_294" x1="-64.9744" y1="18.8947" x2="-64.9744" y2="104.97" gradientUnits="userSpaceOnUse">
<stop stop-color="#B2D3E9"/>
<stop offset="1" stop-color="white"/>
</linearGradient>
<linearGradient id="paint94_linear_1017_294" x1="-64.9744" y1="18.8957" x2="-64.9744" y2="104.971" gradientUnits="userSpaceOnUse">
<stop stop-color="#B2D3E9"/>
<stop offset="1" stop-color="white"/>
</linearGradient>
<linearGradient id="paint95_linear_1017_294" x1="-64.9744" y1="18.895" x2="-64.9744" y2="104.971" gradientUnits="userSpaceOnUse">
<stop stop-color="#B2D3E9"/>
<stop offset="1" stop-color="white"/>
</linearGradient>
<linearGradient id="paint96_linear_1017_294" x1="-64.9744" y1="18.8957" x2="-64.9744" y2="104.971" gradientUnits="userSpaceOnUse">
<stop stop-color="#B2D3E9"/>
<stop offset="1" stop-color="white"/>
</linearGradient>
<linearGradient id="paint97_linear_1017_294" x1="-64.9744" y1="18.8951" x2="-64.9744" y2="104.971" gradientUnits="userSpaceOnUse">
<stop stop-color="#B2D3E9"/>
<stop offset="1" stop-color="white"/>
</linearGradient>
<linearGradient id="paint98_linear_1017_294" x1="-64.9744" y1="18.8962" x2="-64.9744" y2="104.972" gradientUnits="userSpaceOnUse">
<stop stop-color="#B2D3E9"/>
<stop offset="1" stop-color="white"/>
</linearGradient>
<linearGradient id="paint99_linear_1017_294" x1="-64.9744" y1="18.8951" x2="-64.9744" y2="104.971" gradientUnits="userSpaceOnUse">
<stop stop-color="#B2D3E9"/>
<stop offset="1" stop-color="white"/>
</linearGradient>
<linearGradient id="paint100_linear_1017_294" x1="-64.9744" y1="18.8965" x2="-64.9744" y2="104.972" gradientUnits="userSpaceOnUse">
<stop stop-color="#B2D3E9"/>
<stop offset="1" stop-color="white"/>
</linearGradient>
<linearGradient id="paint101_linear_1017_294" x1="-64.9744" y1="18.8955" x2="-64.9744" y2="104.971" gradientUnits="userSpaceOnUse">
<stop stop-color="#B2D3E9"/>
<stop offset="1" stop-color="white"/>
</linearGradient>
<linearGradient id="paint102_linear_1017_294" x1="-64.9744" y1="18.8963" x2="-64.9744" y2="104.972" gradientUnits="userSpaceOnUse">
<stop stop-color="#B2D3E9"/>
<stop offset="1" stop-color="white"/>
</linearGradient>
<linearGradient id="paint103_linear_1017_294" x1="-64.9744" y1="18.8957" x2="-64.9744" y2="104.971" gradientUnits="userSpaceOnUse">
<stop stop-color="#B2D3E9"/>
<stop offset="1" stop-color="white"/>
</linearGradient>
<linearGradient id="paint104_linear_1017_294" x1="-64.9744" y1="18.8949" x2="-64.9744" y2="104.971" gradientUnits="userSpaceOnUse">
<stop stop-color="#B2D3E9"/>
<stop offset="1" stop-color="white"/>
</linearGradient>
<linearGradient id="paint105_linear_1017_294" x1="-64.9744" y1="18.8958" x2="-64.9744" y2="104.972" gradientUnits="userSpaceOnUse">
<stop stop-color="#B2D3E9"/>
<stop offset="1" stop-color="white"/>
</linearGradient>
<linearGradient id="paint106_linear_1017_294" x1="-64.9744" y1="18.8951" x2="-64.9744" y2="104.971" gradientUnits="userSpaceOnUse">
<stop stop-color="#B2D3E9"/>
<stop offset="1" stop-color="white"/>
</linearGradient>
<linearGradient id="paint107_linear_1017_294" x1="-64.9744" y1="18.8962" x2="-64.9744" y2="104.972" gradientUnits="userSpaceOnUse">
<stop stop-color="#B2D3E9"/>
<stop offset="1" stop-color="white"/>
</linearGradient>
<linearGradient id="paint108_linear_1017_294" x1="-64.9744" y1="18.8951" x2="-64.9744" y2="104.971" gradientUnits="userSpaceOnUse">
<stop stop-color="#B2D3E9"/>
<stop offset="1" stop-color="white"/>
</linearGradient>
<linearGradient id="paint109_linear_1017_294" x1="-64.9744" y1="18.8963" x2="-64.9744" y2="104.972" gradientUnits="userSpaceOnUse">
<stop stop-color="#B2D3E9"/>
<stop offset="1" stop-color="white"/>
</linearGradient>
<linearGradient id="paint110_linear_1017_294" x1="-64.9744" y1="18.8955" x2="-64.9744" y2="104.971" gradientUnits="userSpaceOnUse">
<stop stop-color="#B2D3E9"/>
<stop offset="1" stop-color="white"/>
</linearGradient>
<linearGradient id="paint111_linear_1017_294" x1="-64.9744" y1="18.8965" x2="-64.9744" y2="104.972" gradientUnits="userSpaceOnUse">
<stop stop-color="#B2D3E9"/>
<stop offset="1" stop-color="white"/>
</linearGradient>
<linearGradient id="paint112_linear_1017_294" x1="-64.9744" y1="18.8959" x2="-64.9744" y2="104.972" gradientUnits="userSpaceOnUse">
<stop stop-color="#B2D3E9"/>
<stop offset="1" stop-color="white"/>
</linearGradient>
<linearGradient id="paint113_linear_1017_294" x1="-64.9744" y1="18.8949" x2="-64.9744" y2="104.971" gradientUnits="userSpaceOnUse">
<stop stop-color="#B2D3E9"/>
<stop offset="1" stop-color="white"/>
</linearGradient>
<linearGradient id="paint114_linear_1017_294" x1="-64.9744" y1="18.8957" x2="-64.9744" y2="104.971" gradientUnits="userSpaceOnUse">
<stop stop-color="#B2D3E9"/>
<stop offset="1" stop-color="white"/>
</linearGradient>
<linearGradient id="paint115_linear_1017_294" x1="-64.9744" y1="18.8951" x2="-64.9744" y2="104.971" gradientUnits="userSpaceOnUse">
<stop stop-color="#B2D3E9"/>
<stop offset="1" stop-color="white"/>
</linearGradient>
<linearGradient id="paint116_linear_1017_294" x1="-64.9744" y1="18.8961" x2="-64.9744" y2="104.972" gradientUnits="userSpaceOnUse">
<stop stop-color="#B2D3E9"/>
<stop offset="1" stop-color="white"/>
</linearGradient>
<linearGradient id="paint117_linear_1017_294" x1="-64.9744" y1="18.8952" x2="-64.9744" y2="104.971" gradientUnits="userSpaceOnUse">
<stop stop-color="#B2D3E9"/>
<stop offset="1" stop-color="white"/>
</linearGradient>
<linearGradient id="paint118_linear_1017_294" x1="-64.9744" y1="18.8963" x2="-64.9744" y2="104.972" gradientUnits="userSpaceOnUse">
<stop stop-color="#B2D3E9"/>
<stop offset="1" stop-color="white"/>
</linearGradient>
<linearGradient id="paint119_linear_1017_294" x1="-64.9744" y1="18.8954" x2="-64.9744" y2="104.971" gradientUnits="userSpaceOnUse">
<stop stop-color="#B2D3E9"/>
<stop offset="1" stop-color="white"/>
</linearGradient>
</defs>
</svg>
