<svg width="512" height="296" viewBox="0 0 512 296" fill="none" xmlns="http://www.w3.org/2000/svg">
<mask id="mask0_1020_451" style="mask-type:alpha" maskUnits="userSpaceOnUse" x="0" y="0" width="512" height="296">
<rect width="512" height="296" fill="#D9D9D9"/>
</mask>
<g mask="url(#mask0_1020_451)">
<g clip-path="url(#clip0_1020_451)">
<path d="M1278.75 22.3902V157.94H-1V22.3902C28.81 22.6902 44.44 27.4902 59.58 32.1502C75.57 37.0502 92.08 42.1302 124.6 42.1302C157.12 42.1302 173.63 37.0602 189.61 32.1502C205.26 27.3402 221.44 22.3702 253.25 22.3702V20.4902C285.49 20.4902 301.88 15.4702 317.73 10.5902C333.5 5.75023 349.82 0.740234 381.9 0.740234C413.98 0.740234 430.3 5.74023 446.07 10.5902C461.92 15.4602 478.3 20.4902 510.55 20.4902V22.3702C542.37 22.3702 558.55 27.3302 574.19 32.1502C590.18 37.0502 606.69 42.1302 639.21 42.1302C671.73 42.1302 688.24 37.0602 704.22 32.1502C719.87 27.3402 736.05 22.3702 767.86 22.3702V20.4902C800.1 20.4902 816.49 15.4702 832.35 10.5902C848.11 5.75023 864.43 0.740234 896.51 0.740234C928.59 0.740234 944.91 5.74023 960.68 10.5902C976.54 15.4602 992.91 20.4902 1025.16 20.4902V22.3702C1056.98 22.3702 1073.16 27.3302 1088.8 32.1502C1104.79 37.0502 1121.3 42.1302 1153.82 42.1302C1186.34 42.1302 1202.85 37.0602 1218.83 32.1502C1233.86 27.5302 1249.37 22.7702 1278.75 22.3902Z" fill="white"/>
<path d="M767.16 271.15V275.78C735.52 275.78 719.43 280.72 703.86 285.5C687.97 290.38 671.541 295.42 639.201 295.42C606.861 295.42 590.431 290.37 574.531 285.5C558.971 280.71 542.88 275.78 511.23 275.78V271.15C543.57 271.15 560.001 276.2 575.891 281.07C591.461 285.85 607.551 290.79 639.201 290.79C670.851 290.79 686.94 285.84 702.5 281.07C718.4 276.19 734.82 271.15 767.16 271.15Z" fill="url(#paint0_linear_1020_451)"/>
<path d="M639.21 286.36C606.89 286.36 590.47 281.31 574.58 276.44C559.01 271.66 542.9 266.71 511.24 266.71V262.34C543.55 262.34 559.97 267.39 575.86 272.26C591.43 277.04 607.54 281.99 639.21 281.99C670.88 281.99 686.97 277.04 702.55 272.26C718.43 267.38 734.86 262.34 767.17 262.34V266.71C735.51 266.71 719.41 271.66 703.83 276.44C687.95 281.32 671.52 286.36 639.21 286.36Z" fill="url(#paint1_linear_1020_451)"/>
<path d="M639.21 277.289C606.9 277.289 590.49 272.249 574.62 267.369C559.04 262.579 542.92 257.639 511.24 257.639V253.529C543.54 253.529 559.95 258.569 575.82 263.449C591.4 268.239 607.52 273.179 639.2 273.179C670.88 273.179 687 268.229 702.58 263.449C718.45 258.569 734.86 253.529 767.16 253.529V257.639C735.48 257.639 719.36 262.589 703.78 267.369C687.91 272.249 671.5 277.289 639.2 277.289H639.21Z" fill="url(#paint2_linear_1020_451)"/>
<path d="M639.21 268.22C606.93 268.22 590.52 263.19 574.66 258.32C559.06 253.53 542.95 248.58 511.25 248.58V244.73C543.53 244.73 559.93 249.76 575.79 254.63C591.39 259.42 607.51 264.37 639.21 264.37C670.91 264.37 687.04 259.42 702.62 254.63C718.48 249.76 734.89 244.73 767.16 244.73V248.58C735.46 248.58 719.33 253.53 703.75 258.32C687.89 263.19 671.48 268.22 639.21 268.22Z" fill="url(#paint3_linear_1020_451)"/>
<path d="M639.21 259.17C606.95 259.17 590.55 254.13 574.7 249.26C559.1 244.47 542.97 239.52 511.25 239.52V235.92C543.51 235.92 559.9 240.96 575.76 245.83C591.36 250.62 607.49 255.57 639.22 255.57C670.95 255.57 687.07 250.62 702.67 245.83C718.53 240.96 734.92 235.92 767.18 235.92V239.52C735.46 239.52 719.33 244.47 703.73 249.26C687.87 254.13 671.48 259.17 639.22 259.17H639.21Z" fill="url(#paint4_linear_1020_451)"/>
<path d="M639.21 250.099C606.96 250.099 590.58 245.069 574.74 240.199C559.13 235.409 542.99 230.449 511.25 230.449V227.109C543.49 227.109 559.88 232.139 575.72 237.009C591.33 241.799 607.48 246.759 639.22 246.759C670.96 246.759 687.1 241.809 702.71 237.009C718.55 232.139 734.94 227.109 767.18 227.109V230.449C735.44 230.449 719.3 235.399 703.69 240.199C687.85 245.069 671.46 250.099 639.22 250.099H639.21Z" fill="url(#paint5_linear_1020_451)"/>
<path d="M639.21 241.031C606.99 241.031 590.61 236.001 574.77 231.141C559.15 226.351 543 221.381 511.24 221.381V218.301C543.46 218.301 559.84 223.331 575.67 228.191C591.29 232.981 607.44 237.951 639.21 237.951C670.98 237.951 687.12 232.991 702.74 228.191C718.57 223.331 734.95 218.301 767.17 218.301V221.381C735.41 221.381 719.26 226.341 703.64 231.141C687.81 236.001 671.43 241.031 639.21 241.031Z" fill="url(#paint6_linear_1020_451)"/>
<path d="M639.21 231.96C607 231.96 590.64 226.94 574.81 222.08C559.18 217.28 543.02 212.32 511.24 212.32V209.5C543.44 209.5 559.81 214.52 575.63 219.38C591.26 224.18 607.42 229.14 639.2 229.14C670.98 229.14 687.13 224.18 702.77 219.38C718.59 214.52 734.96 209.5 767.16 209.5V212.32C735.38 212.32 719.23 217.28 703.59 222.08C687.77 226.94 671.4 231.96 639.2 231.96H639.21Z" fill="url(#paint7_linear_1020_451)"/>
<path d="M639.21 222.91C607.03 222.91 590.67 217.89 574.84 213.02C559.21 208.22 543.04 203.26 511.24 203.26V200.68C543.42 200.68 559.78 205.7 575.59 210.57C591.23 215.37 607.4 220.33 639.2 220.33C671 220.33 687.16 215.37 702.8 210.57C718.62 205.71 734.98 200.68 767.16 200.68V203.26C735.37 203.26 719.2 208.22 703.56 213.02C687.74 217.88 671.38 222.91 639.2 222.91H639.21Z" fill="url(#paint8_linear_1020_451)"/>
<path d="M639.21 213.839C607.04 213.839 590.69 208.819 574.88 203.959C559.24 199.159 543.06 194.189 511.24 194.189V191.869C543.4 191.869 559.75 196.889 575.56 201.749C591.2 206.549 607.39 211.519 639.2 211.519C671.01 211.519 687.19 206.549 702.84 201.749C718.65 196.889 735 191.869 767.16 191.869V194.189C735.34 194.189 719.17 199.159 703.52 203.959C687.71 208.819 671.36 213.839 639.2 213.839H639.21Z" fill="url(#paint9_linear_1020_451)"/>
<path d="M639.21 204.771C607.06 204.771 590.72 199.751 574.92 194.901C559.27 190.091 543.08 185.121 511.25 185.121V183.061C543.4 183.061 559.73 188.081 575.53 192.931C591.18 197.741 607.37 202.711 639.21 202.711C671.05 202.711 687.23 197.741 702.88 192.931C718.68 188.071 735.02 183.061 767.16 183.061V185.121C735.33 185.121 719.14 190.091 703.49 194.901C687.69 199.761 671.35 204.771 639.21 204.771Z" fill="url(#paint10_linear_1020_451)"/>
<path d="M639.21 195.7C607.08 195.7 590.75 190.69 574.96 185.84C559.3 181.03 543.1 176.05 511.25 176.05V174.25C543.37 174.25 559.7 179.26 575.5 184.11C591.16 188.92 607.36 193.9 639.22 193.9C671.08 193.9 687.27 188.92 702.93 184.11C718.72 179.26 735.05 174.25 767.18 174.25V176.05C735.32 176.05 719.13 181.03 703.47 185.84C687.68 190.69 671.35 195.7 639.22 195.7H639.21Z" fill="url(#paint11_linear_1020_451)"/>
<path d="M639.21 186.649C607.1 186.649 590.78 181.629 574.99 176.789C559.32 171.979 543.11 166.999 511.24 166.999V165.439C543.35 165.439 559.66 170.459 575.45 175.299C591.12 180.109 607.33 185.089 639.21 185.089C671.09 185.089 687.29 180.109 702.96 175.299C718.75 170.449 735.06 165.439 767.17 165.439V166.999C735.3 166.999 719.09 171.979 703.42 176.789C687.63 181.639 671.32 186.649 639.21 186.649Z" fill="url(#paint12_linear_1020_451)"/>
<path d="M639.21 177.581C607.12 177.581 590.8 172.571 575.03 167.721C559.35 162.901 543.14 157.931 511.24 157.931V156.631C543.32 156.631 559.64 161.641 575.41 166.491C591.09 171.311 607.31 176.281 639.21 176.281C671.11 176.281 687.32 171.301 703 166.491C718.77 161.641 735.08 156.631 767.17 156.631V157.931C735.28 157.931 719.06 162.911 703.38 167.721C687.61 172.571 671.3 177.581 639.21 177.581Z" fill="url(#paint13_linear_1020_451)"/>
<path d="M639.21 168.51C607.14 168.51 590.83 163.51 575.07 158.67C559.38 153.85 543.15 148.87 511.24 148.87V147.83C543.31 147.83 559.61 152.83 575.37 157.67C591.07 162.49 607.29 167.47 639.2 167.47C671.11 167.47 687.34 162.49 703.03 157.67C718.79 152.83 735.09 147.83 767.16 147.83V148.87C735.25 148.87 719.02 153.85 703.33 158.67C687.57 163.51 671.27 168.51 639.2 168.51H639.21Z" fill="url(#paint14_linear_1020_451)"/>
<path d="M511.24 150.581C478.9 150.581 462.48 145.531 446.58 140.661C431.01 135.881 414.92 130.941 383.28 130.941C351.64 130.941 335.55 135.881 319.98 140.661C304.09 145.541 287.66 150.581 255.32 150.581V145.951C286.96 145.951 303.05 141.011 318.62 136.231C334.51 131.351 350.94 126.311 383.28 126.311C415.62 126.311 432.04 131.361 447.94 136.231C463.51 141.011 479.6 145.951 511.24 145.951V150.581Z" fill="url(#paint15_linear_1020_451)"/>
<path d="M511.24 159.389C478.93 159.389 462.5 154.339 446.62 149.469C431.05 144.689 414.95 139.739 383.28 139.739C351.61 139.739 335.52 144.689 319.94 149.469C304.06 154.349 287.63 159.389 255.32 159.389V155.019C286.98 155.019 303.08 150.069 318.66 145.289C334.54 140.409 350.97 135.369 383.28 135.369C415.59 135.369 432.02 140.419 447.9 145.289C463.47 150.069 479.57 155.019 511.24 155.019V159.389Z" fill="url(#paint16_linear_1020_451)"/>
<path d="M511.24 168.199C478.94 168.199 462.53 163.159 446.66 158.279C431.08 153.489 414.96 148.549 383.28 148.549C351.6 148.549 335.48 153.499 319.9 158.279C304.03 163.159 287.62 168.199 255.32 168.199V164.089C287 164.089 303.12 159.139 318.7 154.359C334.57 149.479 350.98 144.439 383.28 144.439C415.58 144.439 431.99 149.479 447.86 154.359C463.44 159.149 479.56 164.089 511.24 164.089V168.199Z" fill="url(#paint17_linear_1020_451)"/>
<path d="M511.24 177C478.96 177 462.56 171.97 446.7 167.1C431.11 162.31 414.99 157.36 383.29 157.36C351.59 157.36 335.46 162.31 319.88 167.1C304.02 171.97 287.61 177 255.34 177V173.15C287.04 173.15 303.17 168.2 318.75 163.41C334.61 158.54 351.02 153.51 383.29 153.51C415.56 153.51 431.97 158.54 447.83 163.41C463.42 168.2 479.54 173.15 511.24 173.15V177Z" fill="url(#paint18_linear_1020_451)"/>
<path d="M511.24 185.82C478.98 185.82 462.59 180.78 446.73 175.91C431.13 171.12 415 166.17 383.28 166.17C351.56 166.17 335.43 171.12 319.83 175.91C303.97 180.78 287.58 185.82 255.32 185.82V182.22C287.04 182.22 303.17 177.27 318.77 172.48C334.63 167.61 351.02 162.57 383.28 162.57C415.54 162.57 431.93 167.61 447.79 172.48C463.39 177.27 479.52 182.22 511.24 182.22V185.82Z" fill="url(#paint19_linear_1020_451)"/>
<path d="M511.24 194.631C479 194.631 462.61 189.601 446.77 184.731C431.16 179.941 415.02 174.981 383.28 174.981C351.54 174.981 335.4 179.931 319.79 184.731C303.95 189.601 287.56 194.631 255.32 194.631V191.291C287.06 191.291 303.2 186.341 318.81 181.541C334.65 176.671 351.04 171.641 383.28 171.641C415.52 171.641 431.91 176.671 447.75 181.541C463.36 186.331 479.5 191.291 511.24 191.291V194.631Z" fill="url(#paint20_linear_1020_451)"/>
<path d="M511.24 203.441C479.02 203.441 462.64 198.411 446.81 193.551C431.19 188.761 415.04 183.791 383.28 183.791C351.52 183.791 335.37 188.751 319.75 193.551C303.92 198.411 287.54 203.441 255.32 203.441V200.361C287.08 200.361 303.23 195.401 318.85 190.601C334.68 185.741 351.06 180.711 383.28 180.711C415.5 180.711 431.88 185.741 447.71 190.601C463.33 195.391 479.48 200.361 511.24 200.361V203.441Z" fill="url(#paint21_linear_1020_451)"/>
<path d="M511.24 212.239C479.04 212.239 462.67 207.219 446.85 202.359C431.22 197.559 415.06 192.599 383.28 192.599C351.5 192.599 335.35 197.559 319.71 202.359C303.89 207.219 287.52 212.239 255.32 212.239V209.419C287.1 209.419 303.25 204.459 318.89 199.659C334.71 194.799 351.08 189.779 383.28 189.779C415.48 189.779 431.85 194.799 447.67 199.659C463.3 204.459 479.46 209.419 511.24 209.419V212.239Z" fill="url(#paint22_linear_1020_451)"/>
<path d="M511.24 221.06C479.06 221.06 462.7 216.04 446.88 211.17C431.25 206.37 415.08 201.41 383.28 201.41C351.48 201.41 335.32 206.37 319.68 211.17C303.86 216.03 287.5 221.06 255.32 221.06V218.48C287.11 218.48 303.28 213.52 318.92 208.72C334.74 203.86 351.1 198.83 383.28 198.83C415.46 198.83 431.82 203.85 447.64 208.72C463.27 213.52 479.44 218.48 511.24 218.48V221.06Z" fill="url(#paint23_linear_1020_451)"/>
<path d="M511.24 229.87C479.08 229.87 462.73 224.85 446.92 219.99C431.28 215.19 415.1 210.22 383.28 210.22C351.46 210.22 335.29 215.19 319.64 219.99C303.83 224.85 287.48 229.87 255.32 229.87V227.55C287.14 227.55 303.31 222.58 318.96 217.78C334.77 212.92 351.12 207.9 383.28 207.9C415.44 207.9 431.79 212.92 447.6 217.78C463.24 222.58 479.42 227.55 511.24 227.55V229.87Z" fill="url(#paint24_linear_1020_451)"/>
<path d="M511.24 238.671C479.09 238.671 462.76 233.651 446.96 228.811C431.31 224.001 415.12 219.031 383.29 219.031C351.46 219.031 335.27 224.001 319.62 228.811C303.82 233.661 287.48 238.671 255.34 238.671V236.611C287.17 236.611 303.36 231.641 319.01 226.831C334.81 221.981 351.15 216.971 383.29 216.971C415.43 216.971 431.77 221.991 447.57 226.831C463.22 231.641 479.41 236.611 511.24 236.611V238.671Z" fill="url(#paint25_linear_1020_451)"/>
<path d="M511.24 247.479C479.12 247.479 462.79 242.459 446.99 237.619C431.33 232.809 415.13 227.829 383.28 227.829C351.43 227.829 335.23 232.809 319.57 237.619C303.78 242.469 287.45 247.479 255.32 247.479V245.679C287.18 245.679 303.37 240.699 319.03 235.889C334.82 231.039 351.15 226.029 383.28 226.029C415.41 226.029 431.73 231.049 447.53 235.889C463.19 240.699 479.39 245.679 511.24 245.679V247.479Z" fill="url(#paint26_linear_1020_451)"/>
<path d="M511.24 256.3C479.13 256.3 462.82 251.28 447.03 246.44C431.36 241.63 415.15 236.65 383.28 236.65C351.41 236.65 335.2 241.63 319.53 246.44C303.74 251.29 287.43 256.3 255.32 256.3V254.74C287.19 254.74 303.4 249.76 319.07 244.95C334.86 240.1 351.17 235.09 383.28 235.09C415.39 235.09 431.7 240.11 447.49 244.95C463.16 249.76 479.37 254.74 511.24 254.74V256.3Z" fill="url(#paint27_linear_1020_451)"/>
<path d="M511.24 265.11C479.16 265.11 462.84 260.1 447.07 255.25C431.39 250.43 415.18 245.46 383.28 245.46C351.38 245.46 335.17 250.44 319.49 255.25C303.72 260.1 287.41 265.11 255.32 265.11V263.81C287.21 263.81 303.43 258.83 319.11 254.02C334.88 249.17 351.19 244.16 383.28 244.16C415.37 244.16 431.68 249.17 447.45 254.02C463.13 258.84 479.34 263.81 511.24 263.81V265.11Z" fill="url(#paint28_linear_1020_451)"/>
<path d="M511.24 272.87V273.91C479.17 273.91 462.87 268.91 447.11 264.07C431.42 259.25 415.19 254.28 383.28 254.28C351.37 254.28 335.14 259.26 319.45 264.07C303.69 268.92 287.39 273.91 255.32 273.91V272.87C287.23 272.87 303.46 267.88 319.15 263.07C334.91 258.23 351.21 253.24 383.28 253.24C415.35 253.24 431.65 258.24 447.42 263.07C463.1 267.89 479.33 272.87 511.24 272.87Z" fill="url(#paint29_linear_1020_451)"/>
<path d="M639.21 169.11C606.87 169.11 590.44 164.06 574.54 159.18C558.97 154.4 542.88 149.46 511.24 149.46V144.83C543.58 144.83 560 149.88 575.9 154.76C591.47 159.54 607.56 164.48 639.21 164.48C670.86 164.48 686.94 159.54 702.51 154.76C718.4 149.87 734.83 144.83 767.17 144.83V149.46C735.53 149.46 719.44 154.4 703.87 159.18C687.98 164.07 671.55 169.11 639.21 169.11Z" fill="url(#paint30_linear_1020_451)"/>
<path d="M639.21 160.04C606.89 160.04 590.47 154.99 574.58 150.12C559.01 145.33 542.9 140.39 511.24 140.39V136.02C543.55 136.02 559.97 141.06 575.86 145.94C591.43 150.72 607.54 155.67 639.21 155.67C670.88 155.67 686.97 150.72 702.55 145.94C718.43 141.07 734.86 136.02 767.17 136.02V140.39C735.51 140.39 719.41 145.34 703.83 150.12C687.95 154.99 671.52 160.04 639.21 160.04Z" fill="url(#paint31_linear_1020_451)"/>
<path d="M639.21 150.981C606.9 150.981 590.49 145.941 574.62 141.061C559.04 136.271 542.92 131.331 511.24 131.331V127.221C543.54 127.221 559.95 132.261 575.82 137.141C591.4 141.931 607.52 146.871 639.2 146.871C670.88 146.871 687 141.921 702.58 137.141C718.45 132.261 734.86 127.221 767.16 127.221V131.331C735.48 131.331 719.36 136.281 703.78 141.061C687.91 145.941 671.5 150.981 639.2 150.981H639.21Z" fill="url(#paint32_linear_1020_451)"/>
<path d="M639.21 141.91C606.93 141.91 590.52 136.87 574.66 132C559.06 127.21 542.94 122.26 511.25 122.26V118.41C543.53 118.41 559.93 123.45 575.79 128.32C591.39 133.11 607.51 138.06 639.21 138.06C670.91 138.06 687.04 133.11 702.62 128.32C718.48 123.45 734.89 118.41 767.16 118.41V122.26C735.46 122.26 719.33 127.21 703.75 132C687.89 136.87 671.48 141.91 639.21 141.91Z" fill="url(#paint33_linear_1020_451)"/>
<path d="M639.21 132.85C606.95 132.85 590.55 127.81 574.7 122.94C559.1 118.15 542.97 113.2 511.25 113.2V109.6C543.51 109.6 559.9 114.64 575.76 119.51C591.36 124.3 607.49 129.25 639.22 129.25C670.95 129.25 687.07 124.3 702.67 119.51C718.53 114.64 734.92 109.6 767.18 109.6V113.2C735.46 113.2 719.33 118.15 703.73 122.94C687.87 127.81 671.48 132.85 639.22 132.85H639.21Z" fill="url(#paint34_linear_1020_451)"/>
<path d="M639.21 123.781C606.96 123.781 590.58 118.751 574.74 113.891C559.13 109.101 542.99 104.141 511.25 104.141V100.801C543.49 100.801 559.88 105.831 575.72 110.691C591.33 115.481 607.48 120.441 639.22 120.441C670.96 120.441 687.1 115.491 702.71 110.691C718.55 105.831 734.94 100.801 767.18 100.801V104.141C735.44 104.141 719.3 109.091 703.69 113.891C687.85 118.751 671.46 123.781 639.22 123.781H639.21Z" fill="url(#paint35_linear_1020_451)"/>
<path d="M639.21 114.72C606.99 114.72 590.61 109.69 574.77 104.83C559.15 100.04 543 95.0702 511.24 95.0702V91.9902C543.46 91.9902 559.84 97.0202 575.67 101.88C591.29 106.67 607.44 111.64 639.21 111.64C670.98 111.64 687.12 106.68 702.74 101.88C718.57 97.0202 734.95 91.9902 767.17 91.9902V95.0702C735.41 95.0702 719.26 100.03 703.64 104.83C687.81 109.69 671.43 114.72 639.21 114.72Z" fill="url(#paint36_linear_1020_451)"/>
<path d="M639.21 105.65C607 105.65 590.64 100.63 574.81 95.7597C559.18 90.9597 543.02 85.9997 511.24 85.9997V83.1797C543.44 83.1797 559.81 88.1997 575.63 93.0697C591.26 97.8597 607.42 102.83 639.2 102.83C670.98 102.83 687.13 97.8697 702.77 93.0697C718.59 88.2097 734.96 83.1797 767.16 83.1797V85.9997C735.38 85.9997 719.23 90.9597 703.59 95.7597C687.77 100.62 671.4 105.65 639.2 105.65H639.21Z" fill="url(#paint37_linear_1020_451)"/>
<path d="M639.21 96.5891C607.03 96.5891 590.67 91.5691 574.84 86.7091C559.21 81.9091 543.04 76.9491 511.24 76.9491V74.3691C543.42 74.3691 559.78 79.3891 575.59 84.2491C591.23 89.0491 607.4 94.0091 639.2 94.0091C671 94.0091 687.16 89.0491 702.8 84.2491C718.62 79.3891 734.97 74.3691 767.15 74.3691V76.9491C735.36 76.9491 719.19 81.9091 703.55 86.7091C687.73 91.5691 671.38 96.5891 639.2 96.5891H639.21Z" fill="url(#paint38_linear_1020_451)"/>
<path d="M639.21 87.5305C607.04 87.5305 590.69 82.5106 574.88 77.6506C559.24 72.8506 543.06 67.8805 511.24 67.8805V65.5605C543.4 65.5605 559.75 70.5806 575.56 75.4406C591.2 80.2406 607.39 85.2105 639.2 85.2105C671.01 85.2105 687.19 80.2406 702.84 75.4406C718.65 70.5806 735 65.5605 767.16 65.5605V67.8805C735.34 67.8805 719.17 72.8506 703.52 77.6506C687.71 82.5106 671.36 87.5305 639.2 87.5305H639.21Z" fill="url(#paint39_linear_1020_451)"/>
<path d="M639.21 78.46C607.06 78.46 590.72 73.44 574.92 68.59C559.27 63.78 543.08 58.81 511.25 58.81V56.75C543.4 56.75 559.73 61.77 575.53 66.62C591.18 71.43 607.37 76.4 639.21 76.4C671.05 76.4 687.23 71.43 702.88 66.62C718.68 61.76 735.02 56.75 767.16 56.75V58.81C735.33 58.81 719.14 63.78 703.49 68.59C687.69 73.45 671.35 78.46 639.21 78.46Z" fill="url(#paint40_linear_1020_451)"/>
<path d="M639.21 69.3895C607.08 69.3895 590.75 64.3695 574.96 59.5295C559.3 54.7195 543.1 49.7395 511.25 49.7395V47.9395C543.37 47.9395 559.7 52.9595 575.5 57.7995C591.16 62.6095 607.36 67.5895 639.22 67.5895C671.08 67.5895 687.27 62.6095 702.93 57.7995C718.72 52.9495 735.05 47.9395 767.18 47.9395V49.7395C735.32 49.7395 719.13 54.7195 703.47 59.5295C687.68 64.3795 671.35 69.3895 639.22 69.3895H639.21Z" fill="url(#paint41_linear_1020_451)"/>
<path d="M639.21 60.3291C607.1 60.3291 590.78 55.3091 574.99 50.4691C559.32 45.6491 543.11 40.6791 511.24 40.6791V39.1191C543.35 39.1191 559.66 44.1391 575.45 48.9791C591.12 53.7991 607.33 58.7691 639.21 58.7691C671.09 58.7691 687.29 53.7991 702.96 48.9791C718.75 44.1391 735.06 39.1191 767.17 39.1191V40.6791C735.3 40.6791 719.09 45.6491 703.42 50.4691C687.63 55.3091 671.32 60.3291 639.21 60.3291Z" fill="url(#paint42_linear_1020_451)"/>
<path d="M639.21 51.2703C607.12 51.2703 590.8 46.2603 575.03 41.4103C559.35 36.5903 543.14 31.6203 511.24 31.6203V30.3203C543.32 30.3203 559.64 35.3303 575.41 40.1803C591.09 45.0003 607.31 49.9703 639.21 49.9703C671.11 49.9703 687.32 44.9903 703 40.1803C718.77 35.3303 735.08 30.3203 767.17 30.3203V31.6203C735.28 31.6203 719.06 36.6003 703.38 41.4103C687.61 46.2603 671.3 51.2703 639.21 51.2703Z" fill="url(#paint43_linear_1020_451)"/>
<path d="M639.21 42.1998C607.14 42.1998 590.83 37.1898 575.07 32.3498C559.38 27.5298 543.15 22.5498 511.24 22.5498V21.5098C543.31 21.5098 559.61 26.5198 575.37 31.3598C591.07 36.1798 607.29 41.1598 639.2 41.1598C671.11 41.1598 687.34 36.1798 703.03 31.3598C718.79 26.5198 735.09 21.5098 767.16 21.5098V22.5498C735.25 22.5498 719.02 27.5298 703.33 32.3498C687.57 37.1898 671.27 42.1998 639.2 42.1998H639.21Z" fill="url(#paint44_linear_1020_451)"/>
<path d="M511.24 24.28C478.9 24.28 462.48 19.23 446.58 14.35C431.01 9.57 414.92 4.63 383.28 4.63C351.64 4.63 335.55 9.57 319.98 14.35C304.09 19.24 287.66 24.28 255.32 24.28V19.65C286.96 19.65 303.05 14.71 318.62 9.93C334.51 5.04 350.94 0 383.28 0C415.62 0 432.04 5.05 447.94 9.93C463.51 14.71 479.6 19.65 511.24 19.65V24.28Z" fill="url(#paint45_linear_1020_451)"/>
<path d="M511.24 33.0805C478.93 33.0805 462.5 28.0305 446.62 23.1605C431.05 18.3805 414.95 13.4305 383.28 13.4305C351.61 13.4305 335.52 18.3805 319.94 23.1605C304.06 28.0405 287.63 33.0805 255.32 33.0805V28.7105C286.98 28.7105 303.08 23.7605 318.66 18.9805C334.54 14.1005 350.97 9.06055 383.28 9.06055C415.59 9.06055 432.02 14.1105 447.9 18.9805C463.47 23.7605 479.57 28.7105 511.24 28.7105V33.0805Z" fill="url(#paint46_linear_1020_451)"/>
<path d="M511.24 41.8906C478.94 41.8906 462.53 36.8506 446.66 31.9806C431.08 27.1906 414.96 22.2506 383.28 22.2506C351.6 22.2506 335.48 27.2006 319.9 31.9806C304.03 36.8506 287.62 41.8906 255.32 41.8906V37.7806C287 37.7806 303.12 32.8306 318.7 28.0506C334.57 23.1806 350.98 18.1406 383.28 18.1406C415.58 18.1406 431.99 23.1806 447.86 28.0506C463.44 32.8406 479.56 37.7806 511.24 37.7806V41.8906Z" fill="url(#paint47_linear_1020_451)"/>
<path d="M511.24 50.6992C478.96 50.6992 462.56 45.6592 446.7 40.7892C431.11 35.9992 414.99 31.0492 383.29 31.0492C351.59 31.0492 335.46 35.9992 319.88 40.7892C304.02 45.6592 287.61 50.6992 255.34 50.6992V46.8492C287.04 46.8492 303.17 41.8992 318.75 37.1092C334.61 32.2392 351.02 27.1992 383.29 27.1992C415.56 27.1992 431.97 32.2392 447.83 37.1092C463.42 41.8992 479.54 46.8492 511.24 46.8492V50.6992Z" fill="url(#paint48_linear_1020_451)"/>
<path d="M511.24 59.5098C478.98 59.5098 462.59 54.4698 446.73 49.5998C431.13 44.8098 415 39.8598 383.28 39.8598C351.56 39.8598 335.43 44.8098 319.83 49.5998C303.97 54.4698 287.58 59.5098 255.32 59.5098V55.9098C287.04 55.9098 303.17 50.9598 318.77 46.1698C334.63 41.2998 351.02 36.2598 383.28 36.2598C415.54 36.2598 431.93 41.2998 447.79 46.1698C463.39 50.9598 479.52 55.9098 511.24 55.9098V59.5098Z" fill="url(#paint49_linear_1020_451)"/>
<path d="M511.24 68.3101C479 68.3101 462.61 63.2801 446.77 58.4201C431.16 53.6301 415.02 48.6701 383.28 48.6701C351.54 48.6701 335.4 53.6201 319.79 58.4201C303.95 63.2801 287.56 68.3101 255.32 68.3101V64.9701C287.06 64.9701 303.2 60.0201 318.81 55.2201C334.65 50.3601 351.04 45.3301 383.28 45.3301C415.52 45.3301 431.91 50.3601 447.75 55.2201C463.36 60.0101 479.5 64.9701 511.24 64.9701V68.3101Z" fill="url(#paint50_linear_1020_451)"/>
<path d="M511.24 77.1206C479.02 77.1206 462.64 72.0906 446.81 67.2306C431.19 62.4406 415.04 57.4706 383.28 57.4706C351.52 57.4706 335.37 62.4306 319.75 67.2306C303.92 72.0906 287.54 77.1206 255.32 77.1206V74.0406C287.08 74.0406 303.23 69.0806 318.85 64.2806C334.68 59.4206 351.06 54.3906 383.28 54.3906C415.5 54.3906 431.88 59.4206 447.71 64.2806C463.33 69.0706 479.48 74.0406 511.24 74.0406V77.1206Z" fill="url(#paint51_linear_1020_451)"/>
<path d="M511.24 85.9309C479.04 85.9309 462.67 80.9109 446.85 76.0409C431.22 71.2409 415.06 66.2809 383.28 66.2809C351.5 66.2809 335.35 71.2409 319.71 76.0409C303.89 80.9009 287.52 85.9309 255.32 85.9309V83.1109C287.1 83.1109 303.25 78.1509 318.89 73.3509C334.71 68.4909 351.08 63.4609 383.28 63.4609C415.48 63.4609 431.85 68.4809 447.67 73.3509C463.3 78.1509 479.46 83.1109 511.24 83.1109V85.9309Z" fill="url(#paint52_linear_1020_451)"/>
<path d="M511.24 94.7495C479.06 94.7495 462.7 89.7295 446.88 84.8595C431.25 80.0595 415.08 75.0995 383.28 75.0995C351.48 75.0995 335.32 80.0595 319.68 84.8595C303.86 89.7195 287.5 94.7495 255.32 94.7495V92.1695C287.11 92.1695 303.28 87.2095 318.92 82.4095C334.74 77.5495 351.1 72.5195 383.28 72.5195C415.46 72.5195 431.82 77.5395 447.64 82.4095C463.27 87.2095 479.44 92.1695 511.24 92.1695V94.7495Z" fill="url(#paint53_linear_1020_451)"/>
<path d="M511.24 103.55C479.08 103.55 462.73 98.5298 446.92 93.6798C431.28 88.8698 415.1 83.9099 383.28 83.9099C351.46 83.9099 335.29 88.8698 319.64 93.6798C303.83 98.5298 287.48 103.55 255.32 103.55V101.23C287.14 101.23 303.31 96.2698 318.96 91.4598C334.77 86.6098 351.12 81.5898 383.28 81.5898C415.44 81.5898 431.79 86.6098 447.6 91.4598C463.24 96.2698 479.42 101.23 511.24 101.23V103.55Z" fill="url(#paint54_linear_1020_451)"/>
<path d="M511.24 112.36C479.09 112.36 462.76 107.34 446.96 102.49C431.31 97.6804 415.12 92.7104 383.29 92.7104C351.46 92.7104 335.27 97.6804 319.62 102.49C303.82 107.35 287.48 112.36 255.34 112.36V110.3C287.17 110.3 303.36 105.33 319.01 100.52C334.81 95.6604 351.15 90.6504 383.29 90.6504C415.43 90.6504 431.77 95.6704 447.57 100.52C463.22 105.33 479.41 110.3 511.24 110.3V112.36Z" fill="url(#paint55_linear_1020_451)"/>
<path d="M511.24 121.171C479.12 121.171 462.79 116.151 446.99 111.311C431.33 106.501 415.13 101.521 383.28 101.521C351.43 101.521 335.23 106.501 319.57 111.311C303.78 116.161 287.45 121.171 255.32 121.171V119.371C287.18 119.371 303.37 114.391 319.03 109.581C334.82 104.731 351.15 99.7207 383.28 99.7207C415.41 99.7207 431.73 104.741 447.53 109.581C463.19 114.391 479.39 119.371 511.24 119.371V121.171Z" fill="url(#paint56_linear_1020_451)"/>
<path d="M511.24 129.989C479.13 129.989 462.82 124.969 447.03 120.129C431.36 115.319 415.15 110.339 383.28 110.339C351.41 110.339 335.2 115.319 319.53 120.129C303.74 124.979 287.43 129.989 255.32 129.989V128.429C287.19 128.429 303.4 123.449 319.07 118.639C334.86 113.789 351.17 108.779 383.28 108.779C415.39 108.779 431.7 113.799 447.49 118.639C463.16 123.449 479.37 128.429 511.24 128.429V129.989Z" fill="url(#paint57_linear_1020_451)"/>
<path d="M511.24 138.79C479.16 138.79 462.84 133.78 447.07 128.94C431.39 124.12 415.18 119.15 383.28 119.15C351.38 119.15 335.17 124.13 319.49 128.94C303.72 133.78 287.41 138.79 255.32 138.79V137.49C287.21 137.49 303.43 132.51 319.11 127.7C334.88 122.86 351.19 117.85 383.28 117.85C415.37 117.85 431.68 122.86 447.45 127.7C463.13 132.52 479.34 137.49 511.24 137.49V138.79Z" fill="url(#paint58_linear_1020_451)"/>
<path d="M511.24 147.6C479.17 147.6 462.87 142.59 447.11 137.75C431.42 132.93 415.19 127.95 383.28 127.95C351.37 127.95 335.14 132.93 319.45 137.75C303.69 142.59 287.39 147.6 255.32 147.6V146.56C287.23 146.56 303.46 141.58 319.15 136.76C334.91 131.92 351.21 126.91 383.28 126.91C415.35 126.91 431.65 131.92 447.41 136.76C463.1 141.58 479.33 146.56 511.24 146.56V147.6Z" fill="url(#paint59_linear_1020_451)"/>
<path d="M255.32 271.15V275.78C223.68 275.78 207.59 280.72 192.02 285.5C176.13 290.38 159.7 295.42 127.36 295.42C95.0204 295.42 78.5904 290.37 62.6904 285.5C47.2504 280.75 31.3004 275.86 0.140391 275.78H-0.599609V271.15H0.150391C31.9904 271.23 48.2904 276.24 64.0604 281.07C79.6304 285.85 95.7204 290.79 127.37 290.79C159.02 290.79 175.11 285.84 190.67 281.07C206.57 276.19 222.99 271.15 255.33 271.15H255.32Z" fill="url(#paint60_linear_1020_451)"/>
<path d="M127.37 286.36C95.0504 286.36 78.6304 281.31 62.7404 276.44C47.1704 271.66 31.0604 266.71 -0.599609 266.71V262.34C31.7104 262.34 48.1304 267.39 64.0204 272.26C79.5904 277.04 95.7004 281.99 127.37 281.99C159.04 281.99 175.13 277.04 190.71 272.26C206.59 267.38 223.02 262.34 255.33 262.34V266.71C223.67 266.71 207.57 271.66 191.99 276.44C176.11 281.32 159.68 286.36 127.37 286.36Z" fill="url(#paint61_linear_1020_451)"/>
<path d="M127.37 277.289C95.0604 277.289 78.6504 272.249 62.7804 267.369C47.2004 262.579 31.0804 257.639 -0.599609 257.639V253.529C31.7004 253.529 48.1104 258.569 63.9804 263.449C79.5604 268.239 95.6804 273.179 127.36 273.179C159.04 273.179 175.16 268.229 190.74 263.449C206.61 258.569 223.02 253.529 255.32 253.529V257.639C223.64 257.639 207.52 262.589 191.94 267.369C176.07 272.249 159.66 277.289 127.36 277.289H127.37Z" fill="url(#paint62_linear_1020_451)"/>
<path d="M127.37 268.22C95.0901 268.22 78.6802 263.19 62.8202 258.32C47.2202 253.53 31.1102 248.58 -0.589844 248.58V244.73C31.6902 244.73 48.0901 249.76 63.9501 254.63C79.5501 259.42 95.6701 264.37 127.37 264.37C159.07 264.37 175.2 259.42 190.78 254.63C206.64 249.76 223.05 244.73 255.32 244.73V248.58C223.62 248.58 207.49 253.53 191.91 258.32C176.05 263.19 159.64 268.22 127.37 268.22Z" fill="url(#paint63_linear_1020_451)"/>
<path d="M127.37 259.17C95.1101 259.17 78.7102 254.13 62.8602 249.26C47.2602 244.47 31.1302 239.52 -0.589844 239.52V235.92C31.6702 235.92 48.0602 240.96 63.9202 245.83C79.5202 250.62 95.6502 255.57 127.38 255.57C159.11 255.57 175.23 250.62 190.83 245.83C206.69 240.96 223.08 235.92 255.34 235.92V239.52C223.62 239.52 207.49 244.47 191.89 249.26C176.03 254.13 159.64 259.17 127.38 259.17H127.37Z" fill="url(#paint64_linear_1020_451)"/>
<path d="M127.37 250.099C95.1201 250.099 78.7402 245.069 62.9002 240.199C47.2902 235.409 31.1502 230.449 -0.589844 230.449V227.109C31.6502 227.109 48.0401 232.139 63.8801 237.009C79.4901 241.799 95.6402 246.759 127.38 246.759C159.12 246.759 175.26 241.809 190.87 237.009C206.71 232.139 223.1 227.109 255.34 227.109V230.449C223.6 230.449 207.46 235.399 191.85 240.199C176.01 245.069 159.62 250.099 127.38 250.099H127.37Z" fill="url(#paint65_linear_1020_451)"/>
<path d="M127.37 241.031C95.1504 241.031 78.7704 236.001 62.9304 231.141C47.3104 226.351 31.1604 221.381 -0.599609 221.381V218.301C31.6204 218.301 48.0004 223.331 63.8304 228.191C79.4504 232.981 95.6004 237.951 127.37 237.951C159.14 237.951 175.28 232.991 190.9 228.191C206.73 223.331 223.11 218.301 255.33 218.301V221.381C223.57 221.381 207.42 226.341 191.8 231.141C175.97 236.001 159.59 241.031 127.37 241.031Z" fill="url(#paint66_linear_1020_451)"/>
<path d="M127.37 231.96C95.1604 231.96 78.8004 226.94 62.9704 222.08C47.3404 217.28 31.1804 212.32 -0.599609 212.32V209.5C31.6004 209.5 47.9704 214.52 63.7904 219.38C79.4204 224.18 95.5804 229.14 127.36 229.14C159.14 229.14 175.29 224.18 190.93 219.38C206.75 214.52 223.12 209.5 255.32 209.5V212.32C223.54 212.32 207.39 217.28 191.75 222.08C175.93 226.94 159.56 231.96 127.36 231.96H127.37Z" fill="url(#paint67_linear_1020_451)"/>
<path d="M127.37 222.91C95.1904 222.91 78.8304 217.89 63.0004 213.02C47.3704 208.22 31.2004 203.26 -0.599609 203.26V200.68C31.5804 200.68 47.9404 205.7 63.7504 210.57C79.3904 215.37 95.5604 220.33 127.36 220.33C159.16 220.33 175.32 215.37 190.96 210.57C206.78 205.71 223.14 200.68 255.32 200.68V203.26C223.53 203.26 207.36 208.22 191.72 213.02C175.9 217.88 159.54 222.91 127.36 222.91H127.37Z" fill="url(#paint68_linear_1020_451)"/>
<path d="M127.37 213.839C95.2004 213.839 78.8504 208.819 63.0404 203.959C47.4004 199.159 31.2204 194.189 -0.599609 194.189V191.869C31.5604 191.869 47.9104 196.889 63.7204 201.749C79.3604 206.549 95.5504 211.519 127.36 211.519C159.17 211.519 175.35 206.549 191 201.749C206.81 196.889 223.16 191.869 255.32 191.869V194.189C223.5 194.189 207.33 199.159 191.68 203.959C175.87 208.819 159.52 213.839 127.36 213.839H127.37Z" fill="url(#paint69_linear_1020_451)"/>
<path d="M127.37 204.771C95.2201 204.771 78.8802 199.751 63.0802 194.901C47.4302 190.091 31.2402 185.121 -0.589844 185.121V183.061C31.5602 183.061 47.8902 188.081 63.6902 192.931C79.3402 197.741 95.5301 202.711 127.37 202.711C159.21 202.711 175.39 197.741 191.04 192.931C206.84 188.071 223.18 183.061 255.32 183.061V185.121C223.49 185.121 207.3 190.091 191.65 194.901C175.85 199.761 159.51 204.771 127.37 204.771Z" fill="url(#paint70_linear_1020_451)"/>
<path d="M127.37 195.7C95.2401 195.7 78.9102 190.69 63.1202 185.84C47.4602 181.03 31.2602 176.05 -0.589844 176.05V174.25C31.5302 174.25 47.8602 179.26 63.6602 184.11C79.3202 188.92 95.5202 193.9 127.38 193.9C159.24 193.9 175.43 188.92 191.09 184.11C206.88 179.26 223.21 174.25 255.34 174.25V176.05C223.48 176.05 207.29 181.03 191.63 185.84C175.84 190.69 159.51 195.7 127.38 195.7H127.37Z" fill="url(#paint71_linear_1020_451)"/>
<path d="M127.37 186.649C95.2604 186.649 78.9404 181.629 63.1504 176.789C47.4804 171.979 31.2704 166.999 -0.599609 166.999V165.439C31.5104 165.439 47.8204 170.459 63.6104 175.299C79.2804 180.109 95.4904 185.089 127.37 185.089C159.25 185.089 175.45 180.109 191.12 175.299C206.91 170.449 223.22 165.439 255.33 165.439V166.999C223.46 166.999 207.25 171.979 191.58 176.789C175.79 181.639 159.48 186.649 127.37 186.649Z" fill="url(#paint72_linear_1020_451)"/>
<path d="M127.37 177.581C95.2804 177.581 78.9604 172.571 63.1904 167.721C47.5104 162.901 31.3004 157.931 -0.599609 157.931V156.631C31.4804 156.631 47.8004 161.641 63.5704 166.491C79.2504 171.311 95.4704 176.281 127.37 176.281C159.27 176.281 175.48 171.301 191.16 166.491C206.93 161.641 223.24 156.631 255.33 156.631V157.931C223.44 157.931 207.22 162.911 191.54 167.721C175.77 172.571 159.46 177.581 127.37 177.581Z" fill="url(#paint73_linear_1020_451)"/>
<path d="M127.37 168.51C95.3004 168.51 78.9904 163.51 63.2304 158.67C47.5404 153.85 31.3104 148.87 -0.599609 148.87V147.83C31.4704 147.83 47.7704 152.83 63.5304 157.67C79.2304 162.49 95.4504 167.47 127.36 167.47C159.27 167.47 175.5 162.49 191.19 157.67C206.95 152.83 223.25 147.83 255.32 147.83V148.87C223.41 148.87 207.18 153.85 191.49 158.67C175.73 163.51 159.43 168.51 127.36 168.51H127.37Z" fill="url(#paint74_linear_1020_451)"/>
<path d="M127.37 169.11C95.0304 169.11 78.6004 164.06 62.7004 159.18C47.1304 154.4 31.0404 149.46 -0.599609 149.46V144.83C31.7404 144.83 48.1604 149.88 64.0604 154.76C79.6304 159.54 95.7204 164.48 127.37 164.48C159.02 164.48 175.1 159.54 190.67 154.76C206.56 149.87 222.99 144.83 255.33 144.83V149.46C223.69 149.46 207.6 154.4 192.03 159.18C176.14 164.07 159.71 169.11 127.37 169.11Z" fill="url(#paint75_linear_1020_451)"/>
<path d="M127.37 160.04C95.0504 160.04 78.6304 154.99 62.7404 150.12C47.1704 145.33 31.0604 140.39 -0.599609 140.39V136.02C31.7104 136.02 48.1304 141.06 64.0204 145.94C79.5904 150.72 95.7004 155.67 127.37 155.67C159.04 155.67 175.13 150.72 190.71 145.94C206.59 141.07 223.02 136.02 255.33 136.02V140.39C223.67 140.39 207.57 145.34 191.99 150.12C176.11 154.99 159.68 160.04 127.37 160.04Z" fill="url(#paint76_linear_1020_451)"/>
<path d="M127.37 150.981C95.0604 150.981 78.6504 145.941 62.7804 141.061C47.2004 136.271 31.0804 131.331 -0.599609 131.331V127.221C31.7004 127.221 48.1104 132.261 63.9804 137.141C79.5604 141.931 95.6804 146.871 127.36 146.871C159.04 146.871 175.16 141.921 190.74 137.141C206.61 132.261 223.02 127.221 255.32 127.221V131.331C223.64 131.331 207.52 136.281 191.94 141.061C176.07 145.941 159.66 150.981 127.36 150.981H127.37Z" fill="url(#paint77_linear_1020_451)"/>
<path d="M127.37 141.91C95.0901 141.91 78.6802 136.87 62.8202 132C47.2202 127.21 31.1002 122.26 -0.589844 122.26V118.41C31.6902 118.41 48.0901 123.45 63.9501 128.32C79.5501 133.11 95.6701 138.06 127.37 138.06C159.07 138.06 175.2 133.11 190.78 128.32C206.64 123.45 223.05 118.41 255.32 118.41V122.26C223.62 122.26 207.49 127.21 191.91 132C176.05 136.87 159.64 141.91 127.37 141.91Z" fill="url(#paint78_linear_1020_451)"/>
<path d="M127.37 132.85C95.1101 132.85 78.7102 127.81 62.8602 122.94C47.2602 118.15 31.1302 113.2 -0.589844 113.2V109.6C31.6702 109.6 48.0602 114.64 63.9202 119.51C79.5202 124.3 95.6502 129.25 127.38 129.25C159.11 129.25 175.23 124.3 190.83 119.51C206.69 114.64 223.08 109.6 255.34 109.6V113.2C223.62 113.2 207.49 118.15 191.89 122.94C176.03 127.81 159.64 132.85 127.38 132.85H127.37Z" fill="url(#paint79_linear_1020_451)"/>
<path d="M127.37 123.781C95.1201 123.781 78.7402 118.751 62.9002 113.891C47.2902 109.101 31.1502 104.141 -0.589844 104.141V100.801C31.6502 100.801 48.0401 105.831 63.8801 110.691C79.4901 115.481 95.6402 120.441 127.38 120.441C159.12 120.441 175.26 115.491 190.87 110.691C206.71 105.831 223.1 100.801 255.34 100.801V104.141C223.6 104.141 207.46 109.091 191.85 113.891C176.01 118.751 159.62 123.781 127.38 123.781H127.37Z" fill="url(#paint80_linear_1020_451)"/>
<path d="M127.37 114.72C95.1504 114.72 78.7704 109.69 62.9304 104.83C47.3104 100.04 31.1604 95.0702 -0.599609 95.0702V91.9902C31.6204 91.9902 48.0004 97.0202 63.8304 101.88C79.4504 106.67 95.6004 111.64 127.37 111.64C159.14 111.64 175.28 106.68 190.9 101.88C206.73 97.0202 223.11 91.9902 255.33 91.9902V95.0702C223.57 95.0702 207.42 100.03 191.8 104.83C175.97 109.69 159.59 114.72 127.37 114.72Z" fill="url(#paint81_linear_1020_451)"/>
<path d="M127.37 105.65C95.1604 105.65 78.8004 100.63 62.9704 95.7597C47.3404 90.9597 31.1804 85.9997 -0.599609 85.9997V83.1797C31.6004 83.1797 47.9704 88.1997 63.7904 93.0697C79.4204 97.8597 95.5804 102.83 127.36 102.83C159.14 102.83 175.29 97.8697 190.93 93.0697C206.75 88.2097 223.12 83.1797 255.32 83.1797V85.9997C223.54 85.9997 207.39 90.9597 191.75 95.7597C175.93 100.62 159.56 105.65 127.36 105.65H127.37Z" fill="url(#paint82_linear_1020_451)"/>
<path d="M127.37 96.5891C95.1904 96.5891 78.8304 91.5691 63.0004 86.7091C47.3704 81.9091 31.2004 76.9491 -0.599609 76.9491V74.3691C31.5804 74.3691 47.9404 79.3891 63.7504 84.2491C79.3904 89.0491 95.5604 94.0091 127.36 94.0091C159.16 94.0091 175.32 89.0491 190.96 84.2491C206.78 79.3891 223.13 74.3691 255.31 74.3691V76.9491C223.52 76.9491 207.35 81.9091 191.71 86.7091C175.89 91.5691 159.54 96.5891 127.36 96.5891H127.37Z" fill="url(#paint83_linear_1020_451)"/>
<path d="M127.37 87.5305C95.2004 87.5305 78.8504 82.5106 63.0404 77.6506C47.4004 72.8506 31.2204 67.8805 -0.599609 67.8805V65.5605C31.5604 65.5605 47.9104 70.5806 63.7204 75.4406C79.3604 80.2406 95.5504 85.2105 127.36 85.2105C159.17 85.2105 175.35 80.2406 191 75.4406C206.81 70.5806 223.16 65.5605 255.32 65.5605V67.8805C223.5 67.8805 207.33 72.8506 191.68 77.6506C175.87 82.5106 159.52 87.5305 127.36 87.5305H127.37Z" fill="url(#paint84_linear_1020_451)"/>
<path d="M127.37 78.46C95.2201 78.46 78.8802 73.44 63.0802 68.59C47.4302 63.78 31.2402 58.81 -0.589844 58.81V56.75C31.5602 56.75 47.8902 61.77 63.6902 66.62C79.3402 71.43 95.5301 76.4 127.37 76.4C159.21 76.4 175.39 71.43 191.04 66.62C206.84 61.76 223.18 56.75 255.32 56.75V58.81C223.49 58.81 207.3 63.78 191.65 68.59C175.85 73.45 159.51 78.46 127.37 78.46Z" fill="url(#paint85_linear_1020_451)"/>
<path d="M127.37 69.3895C95.2401 69.3895 78.9102 64.3695 63.1202 59.5295C47.4602 54.7195 31.2602 49.7395 -0.589844 49.7395V47.9395C31.5302 47.9395 47.8602 52.9595 63.6602 57.7995C79.3202 62.6095 95.5202 67.5895 127.38 67.5895C159.24 67.5895 175.43 62.6095 191.09 57.7995C206.88 52.9495 223.21 47.9395 255.34 47.9395V49.7395C223.48 49.7395 207.29 54.7195 191.63 59.5295C175.84 64.3795 159.51 69.3895 127.38 69.3895H127.37Z" fill="url(#paint86_linear_1020_451)"/>
<path d="M127.37 60.3291C95.2604 60.3291 78.9404 55.3091 63.1504 50.4691C47.4804 45.6491 31.2704 40.6791 -0.599609 40.6791V39.1191C31.5104 39.1191 47.8204 44.1391 63.6104 48.9791C79.2804 53.7991 95.4904 58.7691 127.37 58.7691C159.25 58.7691 175.45 53.7991 191.12 48.9791C206.91 44.1391 223.22 39.1191 255.33 39.1191V40.6791C223.46 40.6791 207.25 45.6491 191.58 50.4691C175.79 55.3091 159.48 60.3291 127.37 60.3291Z" fill="url(#paint87_linear_1020_451)"/>
<path d="M127.37 51.2703C95.2804 51.2703 78.9604 46.2603 63.1904 41.4103C47.5104 36.5903 31.3004 31.6203 -0.599609 31.6203V30.3203C31.4804 30.3203 47.8004 35.3303 63.5704 40.1803C79.2504 45.0003 95.4704 49.9703 127.37 49.9703C159.27 49.9703 175.48 44.9903 191.16 40.1803C206.93 35.3303 223.24 30.3203 255.33 30.3203V31.6203C223.44 31.6203 207.22 36.6003 191.54 41.4103C175.77 46.2603 159.46 51.2703 127.37 51.2703Z" fill="url(#paint88_linear_1020_451)"/>
<path d="M127.37 42.1998C95.3004 42.1998 78.9904 37.1898 63.2304 32.3498C47.5404 27.5298 31.3104 22.5498 -0.599609 22.5498V21.5098C31.4704 21.5098 47.7704 26.5198 63.5304 31.3598C79.2304 36.1798 95.4504 41.1598 127.36 41.1598C159.27 41.1598 175.5 36.1798 191.19 31.3598C206.95 26.5198 223.25 21.5098 255.32 21.5098V22.5498C223.41 22.5498 207.18 27.5298 191.49 32.3498C175.73 37.1898 159.43 42.1998 127.36 42.1998H127.37Z" fill="url(#paint89_linear_1020_451)"/>
</g>
</g>
<defs>
<linearGradient id="paint0_linear_1020_451" x1="639.2" y1="37.1302" x2="639.2" y2="206.25" gradientUnits="userSpaceOnUse">
<stop stop-color="#A8D3EB"/>
<stop offset="1" stop-color="white"/>
</linearGradient>
<linearGradient id="paint1_linear_1020_451" x1="639.2" y1="37.1299" x2="639.2" y2="206.25" gradientUnits="userSpaceOnUse">
<stop stop-color="#A8D3EB"/>
<stop offset="1" stop-color="white"/>
</linearGradient>
<linearGradient id="paint2_linear_1020_451" x1="639.2" y1="37.1292" x2="639.2" y2="206.249" gradientUnits="userSpaceOnUse">
<stop stop-color="#A8D3EB"/>
<stop offset="1" stop-color="white"/>
</linearGradient>
<linearGradient id="paint3_linear_1020_451" x1="639.2" y1="37.1304" x2="639.2" y2="206.25" gradientUnits="userSpaceOnUse">
<stop stop-color="#A8D3EB"/>
<stop offset="1" stop-color="white"/>
</linearGradient>
<linearGradient id="paint4_linear_1020_451" x1="639.2" y1="37.1298" x2="639.2" y2="206.25" gradientUnits="userSpaceOnUse">
<stop stop-color="#A8D3EB"/>
<stop offset="1" stop-color="white"/>
</linearGradient>
<linearGradient id="paint5_linear_1020_451" x1="639.2" y1="37.1293" x2="639.2" y2="206.249" gradientUnits="userSpaceOnUse">
<stop stop-color="#A8D3EB"/>
<stop offset="1" stop-color="white"/>
</linearGradient>
<linearGradient id="paint6_linear_1020_451" x1="639.2" y1="37.1308" x2="639.2" y2="206.251" gradientUnits="userSpaceOnUse">
<stop stop-color="#A8D3EB"/>
<stop offset="1" stop-color="white"/>
</linearGradient>
<linearGradient id="paint7_linear_1020_451" x1="639.2" y1="37.1299" x2="639.2" y2="206.25" gradientUnits="userSpaceOnUse">
<stop stop-color="#A8D3EB"/>
<stop offset="1" stop-color="white"/>
</linearGradient>
<linearGradient id="paint8_linear_1020_451" x1="639.2" y1="37.1296" x2="639.2" y2="206.25" gradientUnits="userSpaceOnUse">
<stop stop-color="#A8D3EB"/>
<stop offset="1" stop-color="white"/>
</linearGradient>
<linearGradient id="paint9_linear_1020_451" x1="639.2" y1="37.1291" x2="639.2" y2="206.249" gradientUnits="userSpaceOnUse">
<stop stop-color="#A8D3EB"/>
<stop offset="1" stop-color="white"/>
</linearGradient>
<linearGradient id="paint10_linear_1020_451" x1="639.2" y1="37.1305" x2="639.2" y2="206.251" gradientUnits="userSpaceOnUse">
<stop stop-color="#A8D3EB"/>
<stop offset="1" stop-color="white"/>
</linearGradient>
<linearGradient id="paint11_linear_1020_451" x1="639.2" y1="37.13" x2="639.2" y2="206.25" gradientUnits="userSpaceOnUse">
<stop stop-color="#A8D3EB"/>
<stop offset="1" stop-color="white"/>
</linearGradient>
<linearGradient id="paint12_linear_1020_451" x1="639.2" y1="37.1295" x2="639.2" y2="206.249" gradientUnits="userSpaceOnUse">
<stop stop-color="#A8D3EB"/>
<stop offset="1" stop-color="white"/>
</linearGradient>
<linearGradient id="paint13_linear_1020_451" x1="639.2" y1="37.1309" x2="639.2" y2="206.251" gradientUnits="userSpaceOnUse">
<stop stop-color="#A8D3EB"/>
<stop offset="1" stop-color="white"/>
</linearGradient>
<linearGradient id="paint14_linear_1020_451" x1="639.2" y1="37.1301" x2="639.2" y2="206.25" gradientUnits="userSpaceOnUse">
<stop stop-color="#A8D3EB"/>
<stop offset="1" stop-color="white"/>
</linearGradient>
<linearGradient id="paint15_linear_1020_451" x1="383.28" y1="37.1305" x2="383.28" y2="206.251" gradientUnits="userSpaceOnUse">
<stop stop-color="#A8D3EB"/>
<stop offset="1" stop-color="white"/>
</linearGradient>
<linearGradient id="paint16_linear_1020_451" x1="383.28" y1="37.1291" x2="383.28" y2="206.249" gradientUnits="userSpaceOnUse">
<stop stop-color="#A8D3EB"/>
<stop offset="1" stop-color="white"/>
</linearGradient>
<linearGradient id="paint17_linear_1020_451" x1="383.28" y1="37.1295" x2="383.28" y2="206.249" gradientUnits="userSpaceOnUse">
<stop stop-color="#A8D3EB"/>
<stop offset="1" stop-color="white"/>
</linearGradient>
<linearGradient id="paint18_linear_1020_451" x1="383.28" y1="37.1297" x2="383.28" y2="206.25" gradientUnits="userSpaceOnUse">
<stop stop-color="#A8D3EB"/>
<stop offset="1" stop-color="white"/>
</linearGradient>
<linearGradient id="paint19_linear_1020_451" x1="383.28" y1="37.1303" x2="383.28" y2="206.25" gradientUnits="userSpaceOnUse">
<stop stop-color="#A8D3EB"/>
<stop offset="1" stop-color="white"/>
</linearGradient>
<linearGradient id="paint20_linear_1020_451" x1="383.28" y1="37.1306" x2="383.28" y2="206.251" gradientUnits="userSpaceOnUse">
<stop stop-color="#A8D3EB"/>
<stop offset="1" stop-color="white"/>
</linearGradient>
<linearGradient id="paint21_linear_1020_451" x1="383.28" y1="37.131" x2="383.28" y2="206.251" gradientUnits="userSpaceOnUse">
<stop stop-color="#A8D3EB"/>
<stop offset="1" stop-color="white"/>
</linearGradient>
<linearGradient id="paint22_linear_1020_451" x1="383.28" y1="37.1293" x2="383.28" y2="206.249" gradientUnits="userSpaceOnUse">
<stop stop-color="#A8D3EB"/>
<stop offset="1" stop-color="white"/>
</linearGradient>
<linearGradient id="paint23_linear_1020_451" x1="383.28" y1="37.1301" x2="383.28" y2="206.25" gradientUnits="userSpaceOnUse">
<stop stop-color="#A8D3EB"/>
<stop offset="1" stop-color="white"/>
</linearGradient>
<linearGradient id="paint24_linear_1020_451" x1="383.28" y1="37.1304" x2="383.28" y2="206.25" gradientUnits="userSpaceOnUse">
<stop stop-color="#A8D3EB"/>
<stop offset="1" stop-color="white"/>
</linearGradient>
<linearGradient id="paint25_linear_1020_451" x1="383.28" y1="37.1307" x2="383.28" y2="206.251" gradientUnits="userSpaceOnUse">
<stop stop-color="#A8D3EB"/>
<stop offset="1" stop-color="white"/>
</linearGradient>
<linearGradient id="paint26_linear_1020_451" x1="383.28" y1="37.1293" x2="383.28" y2="206.249" gradientUnits="userSpaceOnUse">
<stop stop-color="#A8D3EB"/>
<stop offset="1" stop-color="white"/>
</linearGradient>
<linearGradient id="paint27_linear_1020_451" x1="383.28" y1="37.1299" x2="383.28" y2="206.25" gradientUnits="userSpaceOnUse">
<stop stop-color="#A8D3EB"/>
<stop offset="1" stop-color="white"/>
</linearGradient>
<linearGradient id="paint28_linear_1020_451" x1="383.28" y1="37.1303" x2="383.28" y2="206.25" gradientUnits="userSpaceOnUse">
<stop stop-color="#A8D3EB"/>
<stop offset="1" stop-color="white"/>
</linearGradient>
<linearGradient id="paint29_linear_1020_451" x1="383.28" y1="37.1303" x2="383.28" y2="206.25" gradientUnits="userSpaceOnUse">
<stop stop-color="#A8D3EB"/>
<stop offset="1" stop-color="white"/>
</linearGradient>
<linearGradient id="paint30_linear_1020_451" x1="639.2" y1="37.1301" x2="639.2" y2="206.25" gradientUnits="userSpaceOnUse">
<stop stop-color="#A8D3EB"/>
<stop offset="1" stop-color="white"/>
</linearGradient>
<linearGradient id="paint31_linear_1020_451" x1="639.2" y1="37.1296" x2="639.2" y2="206.25" gradientUnits="userSpaceOnUse">
<stop stop-color="#A8D3EB"/>
<stop offset="1" stop-color="white"/>
</linearGradient>
<linearGradient id="paint32_linear_1020_451" x1="639.2" y1="37.1307" x2="639.2" y2="206.251" gradientUnits="userSpaceOnUse">
<stop stop-color="#A8D3EB"/>
<stop offset="1" stop-color="white"/>
</linearGradient>
<linearGradient id="paint33_linear_1020_451" x1="639.2" y1="37.1302" x2="639.2" y2="206.25" gradientUnits="userSpaceOnUse">
<stop stop-color="#A8D3EB"/>
<stop offset="1" stop-color="white"/>
</linearGradient>
<linearGradient id="paint34_linear_1020_451" x1="639.2" y1="37.1296" x2="639.2" y2="206.25" gradientUnits="userSpaceOnUse">
<stop stop-color="#A8D3EB"/>
<stop offset="1" stop-color="white"/>
</linearGradient>
<linearGradient id="paint35_linear_1020_451" x1="639.2" y1="37.1308" x2="639.2" y2="206.251" gradientUnits="userSpaceOnUse">
<stop stop-color="#A8D3EB"/>
<stop offset="1" stop-color="white"/>
</linearGradient>
<linearGradient id="paint36_linear_1020_451" x1="639.2" y1="37.1302" x2="639.2" y2="206.25" gradientUnits="userSpaceOnUse">
<stop stop-color="#A8D3EB"/>
<stop offset="1" stop-color="white"/>
</linearGradient>
<linearGradient id="paint37_linear_1020_451" x1="639.2" y1="37.1297" x2="639.2" y2="206.25" gradientUnits="userSpaceOnUse">
<stop stop-color="#A8D3EB"/>
<stop offset="1" stop-color="white"/>
</linearGradient>
<linearGradient id="paint38_linear_1020_451" x1="639.2" y1="37.1292" x2="639.2" y2="206.249" gradientUnits="userSpaceOnUse">
<stop stop-color="#A8D3EB"/>
<stop offset="1" stop-color="white"/>
</linearGradient>
<linearGradient id="paint39_linear_1020_451" x1="639.2" y1="37.1305" x2="639.2" y2="206.251" gradientUnits="userSpaceOnUse">
<stop stop-color="#A8D3EB"/>
<stop offset="1" stop-color="white"/>
</linearGradient>
<linearGradient id="paint40_linear_1020_451" x1="639.2" y1="37.13" x2="639.2" y2="206.25" gradientUnits="userSpaceOnUse">
<stop stop-color="#A8D3EB"/>
<stop offset="1" stop-color="white"/>
</linearGradient>
<linearGradient id="paint41_linear_1020_451" x1="639.2" y1="37.1295" x2="639.2" y2="206.249" gradientUnits="userSpaceOnUse">
<stop stop-color="#A8D3EB"/>
<stop offset="1" stop-color="white"/>
</linearGradient>
<linearGradient id="paint42_linear_1020_451" x1="639.2" y1="37.1291" x2="639.2" y2="206.249" gradientUnits="userSpaceOnUse">
<stop stop-color="#A8D3EB"/>
<stop offset="1" stop-color="white"/>
</linearGradient>
<linearGradient id="paint43_linear_1020_451" x1="639.2" y1="37.1303" x2="639.2" y2="206.25" gradientUnits="userSpaceOnUse">
<stop stop-color="#A8D3EB"/>
<stop offset="1" stop-color="white"/>
</linearGradient>
<linearGradient id="paint44_linear_1020_451" x1="639.2" y1="37.1298" x2="639.2" y2="206.25" gradientUnits="userSpaceOnUse">
<stop stop-color="#A8D3EB"/>
<stop offset="1" stop-color="white"/>
</linearGradient>
<linearGradient id="paint45_linear_1020_451" x1="383.28" y1="37.13" x2="383.28" y2="206.25" gradientUnits="userSpaceOnUse">
<stop stop-color="#A8D3EB"/>
<stop offset="1" stop-color="white"/>
</linearGradient>
<linearGradient id="paint46_linear_1020_451" x1="383.28" y1="37.1305" x2="383.28" y2="206.251" gradientUnits="userSpaceOnUse">
<stop stop-color="#A8D3EB"/>
<stop offset="1" stop-color="white"/>
</linearGradient>
<linearGradient id="paint47_linear_1020_451" x1="383.28" y1="37.1306" x2="383.28" y2="206.251" gradientUnits="userSpaceOnUse">
<stop stop-color="#A8D3EB"/>
<stop offset="1" stop-color="white"/>
</linearGradient>
<linearGradient id="paint48_linear_1020_451" x1="383.28" y1="37.1292" x2="383.28" y2="206.249" gradientUnits="userSpaceOnUse">
<stop stop-color="#A8D3EB"/>
<stop offset="1" stop-color="white"/>
</linearGradient>
<linearGradient id="paint49_linear_1020_451" x1="383.28" y1="37.1298" x2="383.28" y2="206.25" gradientUnits="userSpaceOnUse">
<stop stop-color="#A8D3EB"/>
<stop offset="1" stop-color="white"/>
</linearGradient>
<linearGradient id="paint50_linear_1020_451" x1="383.28" y1="37.1301" x2="383.28" y2="206.25" gradientUnits="userSpaceOnUse">
<stop stop-color="#A8D3EB"/>
<stop offset="1" stop-color="white"/>
</linearGradient>
<linearGradient id="paint51_linear_1020_451" x1="383.28" y1="37.1306" x2="383.28" y2="206.251" gradientUnits="userSpaceOnUse">
<stop stop-color="#A8D3EB"/>
<stop offset="1" stop-color="white"/>
</linearGradient>
<linearGradient id="paint52_linear_1020_451" x1="383.28" y1="37.1309" x2="383.28" y2="206.251" gradientUnits="userSpaceOnUse">
<stop stop-color="#A8D3EB"/>
<stop offset="1" stop-color="white"/>
</linearGradient>
<linearGradient id="paint53_linear_1020_451" x1="383.28" y1="37.1295" x2="383.28" y2="206.25" gradientUnits="userSpaceOnUse">
<stop stop-color="#A8D3EB"/>
<stop offset="1" stop-color="white"/>
</linearGradient>
<linearGradient id="paint54_linear_1020_451" x1="383.28" y1="37.1298" x2="383.28" y2="206.25" gradientUnits="userSpaceOnUse">
<stop stop-color="#A8D3EB"/>
<stop offset="1" stop-color="white"/>
</linearGradient>
<linearGradient id="paint55_linear_1020_451" x1="383.28" y1="37.1304" x2="383.28" y2="206.25" gradientUnits="userSpaceOnUse">
<stop stop-color="#A8D3EB"/>
<stop offset="1" stop-color="white"/>
</linearGradient>
<linearGradient id="paint56_linear_1020_451" x1="383.28" y1="37.1307" x2="383.28" y2="206.251" gradientUnits="userSpaceOnUse">
<stop stop-color="#A8D3EB"/>
<stop offset="1" stop-color="white"/>
</linearGradient>
<linearGradient id="paint57_linear_1020_451" x1="383.28" y1="37.1293" x2="383.28" y2="206.249" gradientUnits="userSpaceOnUse">
<stop stop-color="#A8D3EB"/>
<stop offset="1" stop-color="white"/>
</linearGradient>
<linearGradient id="paint58_linear_1020_451" x1="383.28" y1="37.1296" x2="383.28" y2="206.25" gradientUnits="userSpaceOnUse">
<stop stop-color="#A8D3EB"/>
<stop offset="1" stop-color="white"/>
</linearGradient>
<linearGradient id="paint59_linear_1020_451" x1="383.28" y1="37.1301" x2="383.28" y2="206.25" gradientUnits="userSpaceOnUse">
<stop stop-color="#A8D3EB"/>
<stop offset="1" stop-color="white"/>
</linearGradient>
<linearGradient id="paint60_linear_1020_451" x1="127.36" y1="37.1302" x2="127.36" y2="206.25" gradientUnits="userSpaceOnUse">
<stop stop-color="#A8D3EB"/>
<stop offset="1" stop-color="white"/>
</linearGradient>
<linearGradient id="paint61_linear_1020_451" x1="127.36" y1="37.1299" x2="127.36" y2="206.25" gradientUnits="userSpaceOnUse">
<stop stop-color="#A8D3EB"/>
<stop offset="1" stop-color="white"/>
</linearGradient>
<linearGradient id="paint62_linear_1020_451" x1="127.36" y1="37.1292" x2="127.36" y2="206.249" gradientUnits="userSpaceOnUse">
<stop stop-color="#A8D3EB"/>
<stop offset="1" stop-color="white"/>
</linearGradient>
<linearGradient id="paint63_linear_1020_451" x1="127.36" y1="37.1304" x2="127.36" y2="206.25" gradientUnits="userSpaceOnUse">
<stop stop-color="#A8D3EB"/>
<stop offset="1" stop-color="white"/>
</linearGradient>
<linearGradient id="paint64_linear_1020_451" x1="127.36" y1="37.1298" x2="127.36" y2="206.25" gradientUnits="userSpaceOnUse">
<stop stop-color="#A8D3EB"/>
<stop offset="1" stop-color="white"/>
</linearGradient>
<linearGradient id="paint65_linear_1020_451" x1="127.36" y1="37.1293" x2="127.36" y2="206.249" gradientUnits="userSpaceOnUse">
<stop stop-color="#A8D3EB"/>
<stop offset="1" stop-color="white"/>
</linearGradient>
<linearGradient id="paint66_linear_1020_451" x1="127.36" y1="37.1308" x2="127.36" y2="206.251" gradientUnits="userSpaceOnUse">
<stop stop-color="#A8D3EB"/>
<stop offset="1" stop-color="white"/>
</linearGradient>
<linearGradient id="paint67_linear_1020_451" x1="127.36" y1="37.1299" x2="127.36" y2="206.25" gradientUnits="userSpaceOnUse">
<stop stop-color="#A8D3EB"/>
<stop offset="1" stop-color="white"/>
</linearGradient>
<linearGradient id="paint68_linear_1020_451" x1="127.36" y1="37.1296" x2="127.36" y2="206.25" gradientUnits="userSpaceOnUse">
<stop stop-color="#A8D3EB"/>
<stop offset="1" stop-color="white"/>
</linearGradient>
<linearGradient id="paint69_linear_1020_451" x1="127.36" y1="37.1291" x2="127.36" y2="206.249" gradientUnits="userSpaceOnUse">
<stop stop-color="#A8D3EB"/>
<stop offset="1" stop-color="white"/>
</linearGradient>
<linearGradient id="paint70_linear_1020_451" x1="127.36" y1="37.1305" x2="127.36" y2="206.251" gradientUnits="userSpaceOnUse">
<stop stop-color="#A8D3EB"/>
<stop offset="1" stop-color="white"/>
</linearGradient>
<linearGradient id="paint71_linear_1020_451" x1="127.36" y1="37.13" x2="127.36" y2="206.25" gradientUnits="userSpaceOnUse">
<stop stop-color="#A8D3EB"/>
<stop offset="1" stop-color="white"/>
</linearGradient>
<linearGradient id="paint72_linear_1020_451" x1="127.36" y1="37.1295" x2="127.36" y2="206.249" gradientUnits="userSpaceOnUse">
<stop stop-color="#A8D3EB"/>
<stop offset="1" stop-color="white"/>
</linearGradient>
<linearGradient id="paint73_linear_1020_451" x1="127.36" y1="37.1309" x2="127.36" y2="206.251" gradientUnits="userSpaceOnUse">
<stop stop-color="#A8D3EB"/>
<stop offset="1" stop-color="white"/>
</linearGradient>
<linearGradient id="paint74_linear_1020_451" x1="127.36" y1="37.1301" x2="127.36" y2="206.25" gradientUnits="userSpaceOnUse">
<stop stop-color="#A8D3EB"/>
<stop offset="1" stop-color="white"/>
</linearGradient>
<linearGradient id="paint75_linear_1020_451" x1="127.36" y1="37.1301" x2="127.36" y2="206.25" gradientUnits="userSpaceOnUse">
<stop stop-color="#A8D3EB"/>
<stop offset="1" stop-color="white"/>
</linearGradient>
<linearGradient id="paint76_linear_1020_451" x1="127.36" y1="37.1296" x2="127.36" y2="206.25" gradientUnits="userSpaceOnUse">
<stop stop-color="#A8D3EB"/>
<stop offset="1" stop-color="white"/>
</linearGradient>
<linearGradient id="paint77_linear_1020_451" x1="127.36" y1="37.1307" x2="127.36" y2="206.251" gradientUnits="userSpaceOnUse">
<stop stop-color="#A8D3EB"/>
<stop offset="1" stop-color="white"/>
</linearGradient>
<linearGradient id="paint78_linear_1020_451" x1="127.36" y1="37.1302" x2="127.36" y2="206.25" gradientUnits="userSpaceOnUse">
<stop stop-color="#A8D3EB"/>
<stop offset="1" stop-color="white"/>
</linearGradient>
<linearGradient id="paint79_linear_1020_451" x1="127.36" y1="37.1296" x2="127.36" y2="206.25" gradientUnits="userSpaceOnUse">
<stop stop-color="#A8D3EB"/>
<stop offset="1" stop-color="white"/>
</linearGradient>
<linearGradient id="paint80_linear_1020_451" x1="127.36" y1="37.1308" x2="127.36" y2="206.251" gradientUnits="userSpaceOnUse">
<stop stop-color="#A8D3EB"/>
<stop offset="1" stop-color="white"/>
</linearGradient>
<linearGradient id="paint81_linear_1020_451" x1="127.36" y1="37.1302" x2="127.36" y2="206.25" gradientUnits="userSpaceOnUse">
<stop stop-color="#A8D3EB"/>
<stop offset="1" stop-color="white"/>
</linearGradient>
<linearGradient id="paint82_linear_1020_451" x1="127.36" y1="37.1297" x2="127.36" y2="206.25" gradientUnits="userSpaceOnUse">
<stop stop-color="#A8D3EB"/>
<stop offset="1" stop-color="white"/>
</linearGradient>
<linearGradient id="paint83_linear_1020_451" x1="127.36" y1="37.1292" x2="127.36" y2="206.249" gradientUnits="userSpaceOnUse">
<stop stop-color="#A8D3EB"/>
<stop offset="1" stop-color="white"/>
</linearGradient>
<linearGradient id="paint84_linear_1020_451" x1="127.36" y1="37.1305" x2="127.36" y2="206.251" gradientUnits="userSpaceOnUse">
<stop stop-color="#A8D3EB"/>
<stop offset="1" stop-color="white"/>
</linearGradient>
<linearGradient id="paint85_linear_1020_451" x1="127.36" y1="37.13" x2="127.36" y2="206.25" gradientUnits="userSpaceOnUse">
<stop stop-color="#A8D3EB"/>
<stop offset="1" stop-color="white"/>
</linearGradient>
<linearGradient id="paint86_linear_1020_451" x1="127.36" y1="37.1295" x2="127.36" y2="206.249" gradientUnits="userSpaceOnUse">
<stop stop-color="#A8D3EB"/>
<stop offset="1" stop-color="white"/>
</linearGradient>
<linearGradient id="paint87_linear_1020_451" x1="127.36" y1="37.1291" x2="127.36" y2="206.249" gradientUnits="userSpaceOnUse">
<stop stop-color="#A8D3EB"/>
<stop offset="1" stop-color="white"/>
</linearGradient>
<linearGradient id="paint88_linear_1020_451" x1="127.36" y1="37.1303" x2="127.36" y2="206.25" gradientUnits="userSpaceOnUse">
<stop stop-color="#A8D3EB"/>
<stop offset="1" stop-color="white"/>
</linearGradient>
<linearGradient id="paint89_linear_1020_451" x1="127.36" y1="37.1298" x2="127.36" y2="206.25" gradientUnits="userSpaceOnUse">
<stop stop-color="#A8D3EB"/>
<stop offset="1" stop-color="white"/>
</linearGradient>
<clipPath id="clip0_1020_451">
<rect width="1280" height="295.42" fill="white" transform="translate(-1)"/>
</clipPath>
</defs>
</svg>
