<svg width="58" height="60" viewBox="0 0 58 60" fill="none" xmlns="http://www.w3.org/2000/svg">
<g clip-path="url(#clip0_3793_14467)">
<path d="M5.01 59.65C7.77695 59.65 10.02 57.4069 10.02 54.64C10.02 51.8731 7.77695 49.63 5.01 49.63C2.24305 49.63 0 51.8731 0 54.64C0 57.4069 2.24305 59.65 5.01 59.65Z" fill="#F1E462"/>
<path d="M57.47 17.66C57.5 17.51 57.51 17.37 57.53 17.23C58.18 12.78 56.88 8.11001 53.69 4.57001C53.7 4.59001 53.72 4.61001 53.74 4.64001C53.69 4.58001 53.63 4.50001 53.6 4.47001C53.48 4.33001 53.37 4.22001 53.27 4.12001C53.27 4.12001 53.26 4.11001 53.25 4.10001L53.15 4.00001L53.05 3.90001C53.05 3.90001 53.04 3.90001 53.03 3.88001C52.93 3.79001 52.82 3.69001 52.67 3.57001C52.63 3.54001 52.56 3.49001 52.49 3.44001C52.51 3.45001 52.54 3.47001 52.56 3.48001C48.86 0.480007 44.12 -0.579993 39.71 0.300007C39.57 0.320007 39.43 0.350007 39.29 0.380007C36.37 1.03001 33.59 2.53001 31.37 4.86001C31.22 5.02001 31.07 5.17001 30.93 5.35001L30.8 5.49001C29.55 6.84001 27.84 9.13001 25.95 11.95C23 16.27 19.59 21.84 16.59 27.08C16.54 27.15 16.51 27.23 16.47 27.31C12.65 33.96 9.56002 40.05 9.05002 42.34C9.02002 42.43 9.00002 42.51 9.00002 42.58C8.50002 44.7 9.05002 47.02 10.62 48.72C10.63 48.73 10.65 48.75 10.66 48.76C12.43 50.23 14.77 50.67 16.87 50.06C16.94 50.05 17.02 50.03 17.11 49.99C19.37 49.37 25.3 45.97 31.75 41.82C31.83 41.78 31.91 41.74 31.97 41.69C37.05 38.43 42.44 34.74 46.61 31.58C49.33 29.55 51.53 27.73 52.81 26.41L52.94 26.27C53.1 26.12 53.25 25.97 53.4 25.8C55.62 23.46 56.98 20.62 57.48 17.66H57.47Z" fill="#B6D5EC"/>
<path d="M57.47 17.66C57.5 17.51 57.51 17.37 57.53 17.23C58.18 12.78 56.88 8.11001 53.69 4.57001C53.7 4.59001 53.72 4.61001 53.74 4.64001C53.69 4.58001 53.63 4.50001 53.6 4.47001C53.48 4.33001 53.37 4.22001 53.27 4.12001C53.27 4.12001 53.26 4.11001 53.25 4.10001L53.15 4.00001L53.05 3.90001C53.05 3.90001 53.04 3.90001 53.03 3.88001C52.93 3.79001 52.82 3.69001 52.67 3.57001C52.63 3.54001 52.56 3.49001 52.49 3.44001C52.51 3.45001 52.54 3.47001 52.56 3.48001C48.86 0.480007 44.12 -0.579993 39.71 0.300007C39.57 0.320007 39.43 0.350007 39.29 0.380007C36.37 1.03001 33.59 2.53001 31.37 4.86001C31.22 5.02001 31.07 5.17001 30.93 5.35001L30.8 5.49001C29.55 6.84001 27.84 9.13001 25.95 11.95C23 16.27 19.59 21.84 16.59 27.08C16.54 27.15 16.51 27.23 16.47 27.31C15.91 28.51 15.61 30.84 15.47 32.43C12.77 36.33 10.75 39.22 10.25 39.94C10.16 40.05 10.13 40.11 10.13 40.11C9.61001 40.79 9.26001 41.55 9.05001 42.34C9.02001 42.43 9.00001 42.51 9.00001 42.58C8.63001 44.16 8.84001 45.84 9.61001 47.3C10.06 48.15 10.62 48.72 10.62 48.72C10.62 48.72 10.64 48.74 10.66 48.76C10.66 48.76 11.26 49.29 12.13 49.69C13.62 50.39 15.31 50.51 16.87 50.06C16.94 50.05 17.02 50.03 17.11 49.99C17.88 49.74 18.62 49.35 19.28 48.8C19.28 48.8 19.34 48.76 19.44 48.67C20.14 48.14 22.92 45.98 26.68 43.08C28.25 42.86 30.57 42.45 31.74 41.83C31.82 41.79 31.9 41.75 31.96 41.7C37.04 38.44 42.43 34.75 46.6 31.59C49.32 29.56 51.52 27.74 52.8 26.42L52.93 26.28C53.09 26.13 53.24 25.98 53.39 25.81C55.61 23.47 56.97 20.63 57.47 17.67V17.66Z" fill="#8FB7DA"/>
<path d="M57.47 17.66C57.5 17.51 57.51 17.37 57.53 17.23C58.18 12.78 56.88 8.11 53.69 4.57C53.74 4.64 53.8 4.71 53.85 4.8C53.77 4.68 53.69 4.57 53.6 4.46L53.58 4.44L53.52 4.38C53.44 4.28 53.36 4.19 53.26 4.09L53.16 3.99L53.06 3.89C52.96 3.79 52.86 3.72 52.76 3.64L52.7 3.58L52.68 3.56C52.57 3.47 52.45 3.4 52.33 3.32C52.42 3.37 52.5 3.42 52.57 3.47C48.86 0.480002 44.12 -0.579998 39.71 0.300002C39.57 0.320002 39.43 0.350002 39.29 0.380002C36.37 1.03 33.59 2.53 31.37 4.86C31.22 5.02 31.07 5.17 30.93 5.35L30.8 5.49C29.55 6.84 27.84 9.13 25.95 11.95C24.99 13.37 24.47 17.17 24.25 19.83C22.73 22.02 21.19 24.22 19.73 26.33C18.27 28.41 16.88 30.4 15.64 32.19L15.47 32.43C15.41 33.16 15.39 33.74 15.39 33.97C15.36 35 15.49 36.03 15.79 37.03C15.75 37.08 15.61 37.25 15.57 37.3C13.93 39.32 11.6 42.19 10.33 44.35C10.29 44.41 10.24 44.5 10.18 44.63C9.59 45.84 9.8 47.1 10.02 47.7C10.1 47.92 10.23 48.33 10.6 48.7C10.62 48.72 10.64 48.74 10.67 48.77C11.05 49.12 11.47 49.23 11.7 49.3C12.32 49.49 13.6 49.67 14.76 48.98C14.83 48.94 14.92 48.88 15.03 48.82C16.95 47.64 18.13 46.52 21.81 43.23C21.86 43.19 22.02 43.04 22.07 43C23.08 43.25 24.12 43.33 25.15 43.25C25.38 43.23 25.96 43.19 26.69 43.09L26.92 42.91C28.64 41.58 30.56 40.09 32.56 38.53C34.59 36.96 36.71 35.32 38.82 33.68C41.47 33.33 45.24 32.62 46.6 31.59C49.32 29.56 51.52 27.74 52.8 26.42L52.93 26.28C53.09 26.13 53.24 25.98 53.39 25.81C55.61 23.47 56.97 20.63 57.47 17.67V17.66Z" fill="#6B96C0"/>
<path d="M57.26 18.09C57.4 17.75 57.52 17.36 57.53 17.24C58.18 12.79 56.88 8.12001 53.69 4.58001C53.74 4.65001 53.8 4.73001 53.85 4.81001C53.77 4.69001 53.69 4.58001 53.59 4.47001L53.57 4.45001L53.51 4.39001C53.43 4.29001 53.35 4.20001 53.25 4.10001L53.15 4.00001L53.05 3.90001C52.95 3.80001 52.85 3.73001 52.75 3.65001L52.69 3.59001L52.67 3.57001C52.56 3.48001 52.44 3.41001 52.32 3.33001C52.41 3.38001 52.49 3.43001 52.56 3.48001C48.86 0.480007 44.12 -0.579993 39.71 0.300007C39.59 0.320007 39.2 0.460007 38.87 0.620007C38.45 0.820007 37.44 1.34001 36.63 2.31001C35.71 3.41001 33.11 6.95001 29.59 12.22C28.79 13.38 27.93 14.58 27.08 15.81C26.23 17.03 25.37 18.26 24.49 19.51L24.47 19.53C24.4 19.64 24.34 19.73 24.26 19.83C24.18 20.74 24.14 21.51 24.14 22C24.14 22.04 24.14 22.07 24.14 22.11C24.14 22.23 24.14 22.33 24.14 22.4C24.14 22.46 24.14 22.49 24.14 22.52C24.14 23.28 24.23 24.05 24.38 24.8C24.46 25.14 24.54 25.49 24.65 25.83C21.47 29.82 18.34 33.77 15.81 37.03C15.83 37.13 15.85 37.23 15.89 37.31C16.31 38.63 17.04 39.87 18.07 40.93C19.18 41.91 20.45 42.58 21.79 42.93C21.88 42.96 21.98 42.97 22.08 42.99C25.21 40.31 28.99 36.97 32.82 33.6C33.17 33.7 33.51 33.76 33.86 33.82C34.62 33.93 35.39 33.97 36.15 33.94C36.18 33.94 36.21 33.94 36.27 33.94C36.34 33.93 36.44 33.93 36.56 33.92C36.6 33.92 36.63 33.91 36.67 33.91C37.16 33.88 37.93 33.8 38.84 33.68C38.94 33.6 39.02 33.53 39.13 33.46L39.15 33.44C40.35 32.5 41.54 31.57 42.71 30.67C43.89 29.75 45.05 28.83 46.16 27.98C51.25 24.19 54.65 21.42 55.7 20.44C56.63 19.58 57.1 18.55 57.28 18.12L57.26 18.09Z" fill="#3858A1"/>
<path d="M52.87 15.11C53.56 14.14 54 13.17 54.03 13.1C54.03 13.1 55.12 10.67 55.02 8.31C55.02 8.27 55.02 8.23 55.02 8.2C54.97 7.35 54.82 6.82 54.77 6.66C54.42 5.46 53.8 4.7 53.6 4.47C53.43 4.27 53.27 4.11 53.15 4.01C53.04 3.9 52.88 3.75 52.67 3.59C52.43 3.4 51.64 2.82 50.42 2.53C50.26 2.49 49.71 2.37 48.87 2.36C48.84 2.36 48.81 2.36 48.76 2.36C46.39 2.37 44.02 3.59 44.02 3.59C43.95 3.63 43 4.12 42.07 4.85C41.42 5.37 40.91 5.89 40.83 5.97C40.79 6.01 40.76 6.04 40.74 6.06L40.72 6.08C39.96 6.88 38.63 8.52 38.63 8.52C38.3 8.93 37.82 9.52 37.21 10.23C34.86 13.11 31.61 17.12 28.17 21.41C27.27 22.52 26.37 23.65 25.46 24.78C25.19 25.12 24.91 25.47 24.63 25.82C25.16 27.67 26.15 29.42 27.59 30.89C29.12 32.25 30.92 33.15 32.8 33.59C33.14 33.3 33.47 32.99 33.79 32.71C34.88 31.74 35.96 30.79 37.02 29.84C41.13 26.18 44.97 22.73 47.72 20.24C48.4 19.59 48.97 19.08 49.36 18.73C49.36 18.73 50.93 17.32 51.69 16.52L51.71 16.5C51.71 16.5 51.76 16.45 51.8 16.41C51.87 16.34 52.37 15.8 52.85 15.12L52.87 15.11Z" fill="#10378E"/>
</g>
<defs>
<clipPath id="clip0_3793_14467">
<rect width="57.69" height="59.65" fill="white"/>
</clipPath>
</defs>
</svg>
