<svg width="172" height="125" viewBox="0 0 172 125" fill="none" xmlns="http://www.w3.org/2000/svg">
<g clip-path="url(#clip0_2001_9851)">
<path d="M0.219971 17.28C0.219971 7.74 4.08997 2.78 10.03 2.78C15.97 2.78 19.8 7.78 19.8 17.28C19.8 26.78 15.97 32.06 10.03 32.06C4.08997 32.06 0.219971 26.86 0.219971 17.28ZM14.37 17.28C14.37 9.46 12.53 7.27 10.03 7.27C7.52997 7.27 5.64997 9.46 5.64997 17.28C5.64997 25.1 7.52997 27.56 10.03 27.56C12.53 27.56 14.37 25.14 14.37 17.28Z" fill="#F1E462"/>
<path d="M36.49 8.13001H23.47V3.32001H42.7V6.84001C36.13 14.85 35.08 20.52 34.61 31.51H28.79C29.3 21.78 31.1 15.64 36.49 8.13001Z" fill="#F1E462"/>
<path d="M54.82 0H58.61L48.92 38.62H45.09L54.82 0Z" fill="#F1E462"/>
<path d="M61.43 17.28C61.43 7.74 65.3 2.78 71.24 2.78C77.18 2.78 81.01 7.78 81.01 17.28C81.01 26.78 77.18 32.06 71.24 32.06C65.3 32.06 61.43 26.86 61.43 17.28ZM75.58 17.28C75.58 9.46 73.74 7.27 71.24 7.27C68.74 7.27 66.86 9.46 66.86 17.28C66.86 25.1 68.74 27.56 71.24 27.56C73.74 27.56 75.58 25.14 75.58 17.28Z" fill="#F1E462"/>
<path d="M83.75 28.03L86.45 24.39C88.17 26.07 90.28 27.36 92.9 27.36C95.83 27.36 97.83 25.95 97.83 23.53C97.83 20.79 96.15 19.11 89.86 19.11V14.97C95.18 14.97 96.9 13.21 96.9 10.79C96.9 8.6 95.49 7.31 93.03 7.31C90.96 7.31 89.28 8.29 87.56 9.89L84.63 6.37C87.13 4.18 89.91 2.77 93.31 2.77C98.9 2.77 102.69 5.51 102.69 10.35C102.69 13.4 100.89 15.51 97.88 16.72V16.92C101.12 17.78 103.63 20.16 103.63 23.88C103.63 29.04 98.98 32.05 93.47 32.05C88.9 32.05 85.81 30.33 83.78 28.02L83.75 28.03Z" fill="#F1E462"/>
<path d="M114.9 9.98H127.32V13.36H118.93V18.62H126.09V22H118.93V30.17H114.9V9.98Z" fill="#F1E462"/>
<path d="M135.31 14.91H138.58L138.88 17.61H138.96C140.08 15.62 141.71 14.53 143.29 14.53C144.13 14.53 144.62 14.67 145.09 14.86L144.41 18.32C143.87 18.16 143.43 18.07 142.8 18.07C141.6 18.07 140.16 18.86 139.31 21.07V30.17H135.31V14.91Z" fill="#F1E462"/>
<path d="M153.33 10.25C153.33 8.94001 154.28 8.07001 155.67 8.07001C157.06 8.07001 157.99 8.94001 157.99 10.25C157.99 11.56 157.04 12.46 155.67 12.46C154.3 12.46 153.33 11.59 153.33 10.25ZM153.65 14.91H157.65V30.17H153.65V14.91Z" fill="#F1E462"/>
<path d="M166.34 27.93C166.34 26.43 167.4 25.31 168.82 25.31C170.24 25.31 171.33 26.43 171.33 27.93C171.33 29.43 170.27 30.55 168.82 30.55C167.37 30.55 166.34 29.41 166.34 27.93Z" fill="#F1E462"/>
<path d="M119.07 98.98H113.4V95.6H128.82V98.98H123.1V115.79H119.07V98.98Z" fill="#F1E462"/>
<path d="M131.77 94.05H135.77V99.53L135.58 102.39C136.81 101.25 138.3 100.16 140.37 100.16C143.67 100.16 145.08 102.45 145.08 106.29V115.8H141.08V106.78C141.08 104.41 140.43 103.59 138.93 103.59C137.68 103.59 136.89 104.19 135.77 105.31V115.8H131.77V94.06V94.05Z" fill="#F1E462"/>
<path d="M149.04 110.06V100.52H153.04V109.54C153.04 111.88 153.69 112.73 155.16 112.73C156.41 112.73 157.23 112.19 158.27 110.82V100.52H162.27V115.78H159L158.7 113.6H158.59C157.28 115.15 155.81 116.16 153.74 116.16C150.44 116.16 149.03 113.87 149.03 110.06H149.04Z" fill="#F1E462"/>
<path d="M166.34 113.55C166.34 112.05 167.4 110.93 168.82 110.93C170.24 110.93 171.33 112.05 171.33 113.55C171.33 115.05 170.27 116.17 168.82 116.17C167.37 116.17 166.34 115.03 166.34 113.55Z" fill="#F1E462"/>
<path d="M0 103.07C0 93.53 3.87 88.57 9.81 88.57C15.75 88.57 19.58 93.57 19.58 103.07C19.58 112.57 15.75 117.85 9.81 117.85C3.87 117.85 0 112.65 0 103.07ZM14.15 103.07C14.15 95.25 12.31 93.06 9.81 93.06C7.31 93.06 5.43 95.25 5.43 103.07C5.43 110.89 7.31 113.35 9.81 113.35C12.31 113.35 14.15 110.93 14.15 103.07Z" fill="#F1E462"/>
<path d="M23.14 110.11C23.14 106.63 25.45 104.4 28.1 103V102.84C25.91 101.24 24.27 99.17 24.27 96.19C24.27 91.54 27.98 88.57 32.99 88.57C38 88.57 41.39 91.62 41.39 96.23C41.39 99.01 39.51 101.27 37.68 102.56V102.76C40.3 104.25 42.53 106.32 42.53 110.11C42.53 114.49 38.66 117.85 32.8 117.85C27.29 117.85 23.14 114.64 23.14 110.11ZM37.18 109.91C37.18 107.1 34.48 106.08 30.77 104.55C29.25 105.76 28.11 107.48 28.11 109.48C28.11 112.1 30.26 113.78 32.96 113.78C35.42 113.78 37.18 112.41 37.18 109.91ZM36.71 96.62C36.71 94.27 35.3 92.63 32.88 92.63C30.93 92.63 29.36 93.88 29.36 96.19C29.36 98.77 31.63 99.98 34.64 101.15C35.97 99.74 36.71 98.22 36.71 96.62Z" fill="#F1E462"/>
<path d="M54.61 85.8H58.4L48.71 124.42H44.88L54.61 85.8Z" fill="#F1E462"/>
<path d="M61.17 113.98C68.71 106.79 73.68 101.86 73.68 97.68C73.68 94.83 72.12 93.11 69.34 93.11C67.23 93.11 65.51 94.52 64.02 96.12L60.89 92.99C63.55 90.14 66.13 88.57 70.08 88.57C75.55 88.57 79.19 92.05 79.19 97.37C79.19 102.3 74.66 107.38 69.5 112.77C70.95 112.61 72.86 112.46 74.23 112.46H80.56V117.31H61.17V113.99V113.98Z" fill="#F1E462"/>
<path d="M84.24 103.07C84.24 93.53 88.11 88.57 94.05 88.57C99.99 88.57 103.82 93.57 103.82 103.07C103.82 112.57 99.99 117.85 94.05 117.85C88.11 117.85 84.24 112.65 84.24 103.07ZM98.39 103.07C98.39 95.25 96.55 93.06 94.05 93.06C91.55 93.06 89.67 95.25 89.67 103.07C89.67 110.89 91.55 113.35 94.05 113.35C96.55 113.35 98.39 110.93 98.39 103.07Z" fill="#F1E462"/>
<path d="M86.81 44.66H84.51V76.58H86.81V44.66Z" fill="#F1E462"/>
</g>
<defs>
<clipPath id="clip0_2001_9851">
<rect width="171.32" height="124.42" fill="white"/>
</clipPath>
</defs>
</svg>
