<svg width="50" height="50" viewBox="0 0 50 50" fill="none" xmlns="http://www.w3.org/2000/svg">
<g clip-path="url(#clip0_2025_2853)">
<path d="M24.996 49.992C38.8009 49.992 49.992 38.8009 49.992 24.996C49.992 11.1911 38.8009 0 24.996 0C11.1911 0 0 11.1911 0 24.996C0 38.8009 11.1911 49.992 24.996 49.992Z" fill="#5792C2"/>
<path d="M19.2216 23.5843H15.9595C15.4177 23.5843 14.9785 24.0235 14.9785 24.5653V26.2243C14.9785 26.7661 15.4177 27.2053 15.9595 27.2053H19.2216C19.7634 27.2053 20.2026 26.7661 20.2026 26.2243V24.5653C20.2026 24.0235 19.7634 23.5843 19.2216 23.5843Z" fill="white"/>
<path d="M26.6313 23.5843H23.3692C22.8274 23.5843 22.3882 24.0235 22.3882 24.5653V26.2243C22.3882 26.7661 22.8274 27.2053 23.3692 27.2053H26.6313C27.1731 27.2053 27.6123 26.7661 27.6123 26.2243V24.5653C27.6123 24.0235 27.1731 23.5843 26.6313 23.5843Z" fill="#F3E238"/>
<path d="M34.0405 23.5843H30.7784C30.2366 23.5843 29.7974 24.0235 29.7974 24.5653V26.2243C29.7974 26.7661 30.2366 27.2053 30.7784 27.2053H34.0405C34.5823 27.2053 35.0215 26.7661 35.0215 26.2243V24.5653C35.0215 24.0235 34.5823 23.5843 34.0405 23.5843Z" fill="white"/>
<path d="M19.2216 30.4514H15.9595C15.4177 30.4514 14.9785 30.8906 14.9785 31.4324V33.0914C14.9785 33.6332 15.4177 34.0724 15.9595 34.0724H19.2216C19.7634 34.0724 20.2026 33.6332 20.2026 33.0914V31.4324C20.2026 30.8906 19.7634 30.4514 19.2216 30.4514Z" fill="#F3E238"/>
<path d="M26.6313 30.4514H23.3692C22.8274 30.4514 22.3882 30.8906 22.3882 31.4324V33.0914C22.3882 33.6332 22.8274 34.0724 23.3692 34.0724H26.6313C27.1731 34.0724 27.6123 33.6332 27.6123 33.0914V31.4324C27.6123 30.8906 27.1731 30.4514 26.6313 30.4514Z" fill="white"/>
<path d="M34.0405 30.4514H30.7784C30.2366 30.4514 29.7974 30.8906 29.7974 31.4324V33.0914C29.7974 33.6332 30.2366 34.0724 30.7784 34.0724H34.0405C34.5823 34.0724 35.0215 33.6332 35.0215 33.0914V31.4324C35.0215 30.8906 34.5823 30.4514 34.0405 30.4514Z" fill="#F3E238"/>
<path d="M36.4253 13.3753H35.0774V15.4251C35.0774 16.7092 34.0326 17.762 32.7405 17.762C31.4484 17.762 30.4036 16.7172 30.4036 15.4251V13.3753H19.5964V15.4251C19.5964 16.7092 18.5516 17.762 17.2595 17.762C15.9675 17.762 14.9227 16.7172 14.9227 15.4251V13.3753H13.5747C11.7403 13.3753 10.2568 14.8588 10.2568 16.6932V36.1621C10.2568 37.9965 11.7403 39.48 13.5747 39.48H36.4253C38.2597 39.48 39.7432 37.9965 39.7432 36.1621V16.6932C39.7432 14.8588 38.2597 13.3753 36.4253 13.3753ZM37.2468 36.17C37.2468 36.6247 36.8719 36.9995 36.4173 36.9995H13.5668C13.1122 36.9995 12.7373 36.6247 12.7373 36.17V20.2504H37.2388V36.17H37.2468Z" fill="white"/>
<path d="M17.2594 17.0522C18.1527 17.0522 18.8864 16.3264 18.8864 15.4251V12.1311C18.8864 11.2378 18.1606 10.5041 17.2594 10.5041C16.3581 10.5041 15.6323 11.2299 15.6323 12.1311V15.4251C15.6323 16.3184 16.3581 17.0522 17.2594 17.0522Z" fill="white"/>
<path d="M32.7403 17.0522C33.6336 17.0522 34.3674 16.3264 34.3674 15.4251V12.1311C34.3674 11.2378 33.6416 10.5041 32.7403 10.5041C31.8391 10.5041 31.1133 11.2299 31.1133 12.1311V15.4251C31.1133 16.3184 31.8391 17.0522 32.7403 17.0522Z" fill="white"/>
</g>
<defs>
<clipPath id="clip0_2025_2853">
<rect width="50" height="50" fill="white"/>
</clipPath>
</defs>
</svg>
