<svg width="788" height="190" viewBox="0 0 788 190" fill="none" xmlns="http://www.w3.org/2000/svg">
<g clip-path="url(#clip0_997_632)">
<path d="M551.081 41.1102V41.0602V41.0402V22.5902V22.5702V22.5202C548.181 21.4902 545.071 20.9102 541.821 20.9102C538.571 20.9102 535.461 21.5002 532.561 22.5202V22.5702V22.5902V41.0402V41.0602V41.1102C535.461 42.1402 538.571 42.7202 541.821 42.7202C545.071 42.7202 548.181 42.1302 551.081 41.1102Z" fill="#5D97C4"/>
<path d="M569.6 59.6805V59.6305V59.6105V41.1605V41.1405V41.0905C566.7 40.0605 563.59 39.4805 560.34 39.4805C557.09 39.4805 553.98 40.0705 551.08 41.0905V41.1405V41.1605V59.6105V59.6305V59.6805C553.98 60.7105 557.09 61.2905 560.34 61.2905C563.59 61.2905 566.7 60.7005 569.6 59.6805Z" fill="#2E59A6"/>
<path d="M551.081 78.1697V78.1197V78.0997V59.6497V59.6297V59.5797C548.181 58.5497 545.071 57.9697 541.821 57.9697C538.571 57.9697 535.461 58.5597 532.561 59.5797V59.6297V59.6497V78.0997V78.1197V78.1697C535.461 79.1997 538.571 79.7797 541.821 79.7797C545.071 79.7797 548.181 79.1897 551.081 78.1697Z" fill="#5D97C4"/>
<path d="M569.6 96.74V96.69V96.67V78.22V78.2V78.15C566.7 77.12 563.59 76.54 560.34 76.54C557.09 76.54 553.98 77.13 551.08 78.15V78.2V78.22V96.67V96.69V96.74C553.98 97.77 557.09 98.35 560.34 98.35C563.59 98.35 566.7 97.76 569.6 96.74Z" fill="#2E59A6"/>
<path d="M551.081 115.23V115.18V115.16V96.7103V96.6903V96.6403C548.181 95.6103 545.071 95.0303 541.821 95.0303C538.571 95.0303 535.461 95.6203 532.561 96.6403V96.6903V96.7103V115.16V115.18V115.23C535.461 116.26 538.571 116.84 541.821 116.84C545.071 116.84 548.181 116.25 551.081 115.23Z" fill="#5D97C4"/>
<path d="M588.12 41.1102V41.0602V41.0402V22.5902V22.5702V22.5202C585.22 21.4902 582.11 20.9102 578.86 20.9102C575.61 20.9102 572.5 21.5002 569.6 22.5202V22.5702V22.5902V41.0402V41.0602V41.1102C572.5 42.1402 575.61 42.7202 578.86 42.7202C582.11 42.7202 585.22 42.1302 588.12 41.1102Z" fill="#5D97C4"/>
<path d="M588.12 78.1697V78.1197V78.0997V59.6497V59.6297V59.5797C585.22 58.5497 582.11 57.9697 578.86 57.9697C575.61 57.9697 572.5 58.5597 569.6 59.5797V59.6297V59.6497V78.0997V78.1197V78.1697C572.5 79.1997 575.61 79.7797 578.86 79.7797C582.11 79.7797 585.22 79.1897 588.12 78.1697Z" fill="#5D97C4"/>
<path d="M588.12 115.23V115.18V115.16V96.7103V96.6903V96.6403C585.22 95.6103 582.11 95.0303 578.86 95.0303C575.61 95.0303 572.5 95.6203 569.6 96.6403V96.6903V96.7103V115.16V115.18V115.23C572.5 116.26 575.61 116.84 578.86 116.84C582.11 116.84 585.22 116.25 588.12 115.23Z" fill="#5D97C4"/>
<path d="M775.659 32.7904C775.019 31.7504 773.209 29.9704 772.339 29.5304C770.409 28.5404 766.669 28.1904 764.629 29.0204C763.759 29.3804 762.579 30.1904 761.809 30.7604C755.009 35.8204 747.299 42.2004 740.769 47.6804C730.709 56.1204 722.139 66.1304 712.869 75.3904L776.309 40.2904C777.149 37.8304 776.989 34.9804 775.659 32.7904Z" fill="#5D97C4"/>
<path d="M687.141 97.7103C687.141 97.7103 687.081 97.7303 687.051 97.7403L684.281 97.0203L683.241 95.7003L679.381 98.7303L683.441 103.91L684.721 105.55L688.781 110.73L692.641 107.7L691.671 106.47C691.651 106.34 691.631 106.21 691.591 106.07L691.551 103.43C699.981 96.6803 708.401 89.8803 717.461 83.9603C724.321 79.4803 731.781 75.4403 738.471 71.1003C751.101 62.9103 762.421 52.9803 774.211 43.6603C775.171 42.7403 775.851 41.5603 776.281 40.2803L712.841 75.3803C712.691 75.5303 712.551 75.6803 712.401 75.8303C704.481 83.7003 695.871 90.7703 687.121 97.7103H687.141Z" fill="#2E59A6"/>
<path d="M720.851 29.55L721.831 29.7C722.161 29.75 722.391 30.06 722.341 30.39C722.291 30.72 721.981 30.95 721.651 30.9L720.691 30.75C720.661 31.04 720.651 31.32 720.641 31.61L721.741 31.66C722.071 31.68 722.331 31.96 722.311 32.29C722.291 32.62 722.011 32.88 721.681 32.86L720.671 32.81C720.691 33.15 720.731 33.49 720.771 33.82L721.731 33.75C722.061 33.73 722.351 33.98 722.381 34.31C722.401 34.64 722.151 34.93 721.821 34.96L721.001 35.02C721.081 35.38 721.181 35.74 721.301 36.09L721.991 35.85C722.311 35.74 722.651 35.91 722.761 36.22C722.871 36.54 722.701 36.88 722.391 36.99L721.721 37.22C721.881 37.61 722.061 37.99 722.261 38.36L722.991 38.01C723.291 37.87 723.651 37.99 723.801 38.29C723.941 38.59 723.821 38.95 723.521 39.1L722.891 39.41C723.161 39.82 723.451 40.21 723.771 40.59L724.451 39.92C724.691 39.69 725.071 39.69 725.301 39.92C725.531 40.16 725.531 40.54 725.301 40.77L724.581 41.48C724.841 41.74 725.111 41.99 725.391 42.23L726.011 41.3C726.201 41.02 726.571 40.95 726.851 41.13C727.131 41.32 727.201 41.69 727.021 41.97L726.351 42.97C726.681 43.21 727.031 43.43 727.391 43.64C727.451 43.51 727.511 43.37 727.571 43.23C729.981 37.26 727.151 30.47 721.251 27.96C721.091 28.48 720.971 29 720.871 29.53L720.851 29.55Z" fill="#2E59A6"/>
<path d="M723.84 45.8298C723.84 45.8298 723.78 45.7997 723.75 45.7797C723.47 45.5897 723.4 45.2197 723.58 44.9397L724.3 43.8598C723.91 43.5398 723.55 43.1997 723.2 42.8497L722.36 43.6798C722.18 43.8598 721.91 43.8997 721.69 43.7997C721.62 43.7697 721.56 43.7297 721.5 43.6697C721.27 43.4297 721.27 43.0497 721.5 42.8197L722.37 41.9597C721.91 41.4197 721.5 40.8497 721.12 40.2597L719.75 40.9197C719.58 40.9997 719.4 40.9997 719.24 40.9197C719.11 40.8597 719 40.7598 718.94 40.6298C718.8 40.3298 718.92 39.9697 719.22 39.8197L720.5 39.1998C720.27 38.7598 720.06 38.3098 719.87 37.8598L718.34 38.3897C718.19 38.4397 718.03 38.4297 717.9 38.3697C717.75 38.2997 717.63 38.1797 717.57 38.0097C717.46 37.6897 717.63 37.3498 717.94 37.2398L719.44 36.7198C719.27 36.2098 719.13 35.6897 719.02 35.1597L717.49 35.2698C717.39 35.2698 717.29 35.2598 717.2 35.2198C717 35.1298 716.86 34.9397 716.84 34.7097C716.82 34.3797 717.07 34.0898 717.4 34.0598L718.81 33.9597C718.75 33.5497 718.72 33.1297 718.7 32.7097L717.25 32.6398C717.17 32.6398 717.1 32.6198 717.04 32.5898C716.82 32.4898 716.67 32.2597 716.68 32.0097C716.7 31.6797 716.98 31.4198 717.31 31.4398L718.68 31.5098C718.68 31.1598 718.71 30.7998 718.74 30.4498L717.4 30.2498C717.35 30.2498 717.29 30.2297 717.25 30.2097C717.01 30.0997 716.86 29.8398 716.9 29.5698C716.95 29.2398 717.26 29.0097 717.59 29.0597L718.91 29.2598C719.02 28.6298 719.17 27.9998 719.37 27.3698C714.54 26.1898 709.48 28.1897 706.76 32.2997C707.22 32.5597 707.65 32.8298 708.07 33.1298L708.71 32.2898C708.91 32.0198 709.29 31.9697 709.56 32.1697C709.78 32.3397 709.85 32.6298 709.76 32.8798C709.74 32.9298 709.71 32.9798 709.68 33.0198L709.04 33.8598C709.32 34.0898 709.59 34.3398 709.86 34.5898L710.59 33.8098C710.82 33.5698 711.2 33.5497 711.44 33.7797C711.63 33.9597 711.68 34.2198 711.59 34.4498C711.56 34.5198 711.52 34.5798 711.47 34.6398L710.7 35.4597C710.99 35.7797 711.26 36.1097 711.52 36.4597L712.35 35.7597C712.61 35.5497 712.99 35.5798 713.2 35.8298C713.35 36.0098 713.38 36.2498 713.3 36.4498C713.26 36.5398 713.21 36.6197 713.13 36.6897L712.22 37.4597C712.53 37.9397 712.81 38.4398 713.06 38.9498L714.18 38.4197C714.48 38.2797 714.84 38.4097 714.98 38.7097C715.05 38.8697 715.05 39.0397 714.99 39.1897C714.93 39.3297 714.83 39.4397 714.69 39.5097L713.55 40.0497C713.74 40.5197 713.9 40.9998 714.05 41.4898L715.07 41.1498C715.39 41.0398 715.73 41.2097 715.84 41.5297C715.89 41.6697 715.88 41.8198 715.83 41.9498C715.77 42.1098 715.64 42.2397 715.46 42.2997L714.35 42.6697C714.5 43.3897 714.6 44.1298 714.64 44.8798H715.54C715.87 44.8798 716.14 45.1598 716.14 45.4998C716.14 45.5798 716.12 45.6498 716.1 45.7198C716.01 45.9398 715.79 46.0997 715.53 46.0997H714.67C714.67 46.6097 714.63 47.1298 714.57 47.6498L715.53 47.8497C715.86 47.9197 716.07 48.2397 716 48.5697C716 48.6097 715.98 48.6397 715.97 48.6697C715.86 48.9397 715.58 49.0997 715.28 49.0297L714.38 48.8398C714.28 49.3498 714.15 49.8597 714 50.3697C718.78 51.4597 723.76 49.4498 726.45 45.3798C726.04 45.1398 725.64 44.8897 725.26 44.6197L724.58 45.6298C724.41 45.8798 724.1 45.9597 723.83 45.8497L723.84 45.8298Z" fill="#2E59A6"/>
<path d="M710.56 47.3903C710.63 47.0603 710.95 46.8503 711.28 46.9203L712.68 47.2203C712.72 46.8303 712.75 46.4403 712.75 46.0603H711.42C711.09 46.0503 710.82 45.7803 710.82 45.4403C710.82 45.1103 711.1 44.8403 711.43 44.8403H712.72C712.68 44.3203 712.61 43.7903 712.51 43.2803L711.52 43.6103C711.2 43.7203 710.86 43.5503 710.75 43.2303C710.64 42.9103 710.82 42.5703 711.13 42.4603L712.23 42.0903C712.11 41.6703 711.97 41.2603 711.82 40.8603L710.86 41.3103C710.56 41.4503 710.2 41.3203 710.06 41.0203C709.92 40.7203 710.05 40.3603 710.35 40.2203L711.33 39.7603C711.15 39.4003 710.96 39.0503 710.74 38.7103L709.84 39.4603C709.58 39.6703 709.2 39.6403 708.99 39.3903C708.78 39.1303 708.81 38.7503 709.06 38.5403L710.05 37.7103C709.84 37.4303 709.62 37.1503 709.39 36.8903L708.47 37.8703C708.24 38.1103 707.86 38.1303 707.62 37.9003C707.38 37.6703 707.36 37.2903 707.59 37.0503L708.55 36.0203C708.34 35.8203 708.11 35.6203 707.88 35.4303L707.11 36.4403C706.91 36.7103 706.53 36.7603 706.26 36.5603C705.99 36.3603 705.94 35.9803 706.14 35.7103L706.91 34.7003C706.56 34.4603 706.21 34.2303 705.83 34.0303C705.77 34.1703 705.7 34.3103 705.65 34.4603C703.22 40.4903 706.12 47.3503 712.14 49.8003C712.28 49.3503 712.39 48.9003 712.48 48.4503L711.01 48.1403C710.68 48.0703 710.47 47.7503 710.54 47.4203L710.56 47.3903Z" fill="#2E59A6"/>
<path d="M517.59 154.7H519.26V165.32H517.59V154.7Z" fill="#717071"/>
<path d="M522.969 157.38H524.319L524.459 158.49H524.489C525.209 157.77 526.029 157.19 527.109 157.19C528.799 157.19 529.539 158.31 529.539 160.33V165.31H527.879V160.53C527.879 159.16 527.479 158.63 526.539 158.63C525.809 158.63 525.319 158.99 524.609 159.7V165.32H522.949V157.38H522.969Z" fill="#717071"/>
<path d="M532.51 161.35C532.51 158.77 534.14 157.19 535.89 157.19C536.81 157.19 537.39 157.52 538.02 158.08L537.96 156.77V153.83H539.62V165.31H538.27L538.13 164.42H538.09C537.5 165.03 536.68 165.52 535.77 165.52C533.8 165.52 532.52 163.99 532.52 161.36L532.51 161.35ZM537.96 163.15V159.29C537.37 158.76 536.81 158.57 536.22 158.57C535.13 158.57 534.22 159.62 534.22 161.34C534.22 163.06 534.93 164.12 536.16 164.12C536.82 164.12 537.38 163.83 537.96 163.15Z" fill="#717071"/>
<path d="M542.99 154.9C542.99 154.32 543.41 153.92 544.03 153.92C544.65 153.92 545.05 154.32 545.05 154.9C545.05 155.52 544.63 155.91 544.03 155.91C543.43 155.91 542.99 155.52 542.99 154.9ZM543.19 157.38H544.85V165.32H543.19V157.38Z" fill="#717071"/>
<path d="M547.84 166.78C547.84 166.12 548.26 165.5 548.99 165.05V164.99C548.59 164.72 548.27 164.3 548.27 163.67C548.27 163.04 548.7 162.5 549.16 162.2V162.14C548.61 161.72 548.11 160.97 548.11 160.02C548.11 158.23 549.54 157.18 551.18 157.18C551.63 157.18 552.03 157.27 552.33 157.37H555.14V158.62H553.64C553.93 158.95 554.14 159.47 554.14 160.06C554.14 161.8 552.83 162.8 551.17 162.8C550.82 162.8 550.41 162.71 550.06 162.57C549.81 162.79 549.63 163 549.63 163.39C549.63 163.85 549.95 164.17 550.96 164.17H552.43C554.29 164.17 555.27 164.75 555.27 166.09C555.27 167.63 553.67 168.87 551.14 168.87C549.22 168.87 547.84 168.16 547.84 166.78ZM553.66 166.37C553.66 165.71 553.14 165.51 552.19 165.51H550.99C550.61 165.51 550.26 165.48 549.92 165.39C549.45 165.74 549.26 166.14 549.26 166.54C549.26 167.3 550.05 167.78 551.36 167.78C552.74 167.78 553.65 167.1 553.65 166.37H553.66ZM552.68 160.03C552.68 158.98 552.02 158.36 551.18 158.36C550.34 158.36 549.68 158.96 549.68 160.03C549.68 161.1 550.36 161.73 551.18 161.73C552 161.73 552.68 161.1 552.68 160.03Z" fill="#717071"/>
<path d="M557.02 161.35C557.02 158.77 558.79 157.19 560.64 157.19C562.74 157.19 563.88 158.7 563.88 160.94C563.88 161.27 563.839 161.59 563.789 161.79H558.65C558.78 163.3 559.729 164.21 561.099 164.21C561.809 164.21 562.41 163.99 562.99 163.62L563.57 164.67C562.85 165.16 561.93 165.52 560.9 165.52C558.73 165.52 557.02 163.98 557.02 161.36V161.35ZM562.43 160.63C562.43 159.28 561.809 158.5 560.659 158.5C559.669 158.5 558.79 159.25 558.63 160.63H562.43Z" fill="#717071"/>
<path d="M566.809 157.38H568.159L568.299 158.49H568.329C569.049 157.77 569.869 157.19 570.949 157.19C572.629 157.19 573.379 158.31 573.379 160.33V165.31H571.719V160.53C571.719 159.16 571.319 158.63 570.379 158.63C569.649 158.63 569.159 158.99 568.449 159.7V165.32H566.789V157.38H566.809Z" fill="#717071"/>
<path d="M576.32 161.35C576.32 158.71 578.09 157.19 580.07 157.19C582.05 157.19 583.79 158.72 583.79 161.35C583.79 163.98 582.03 165.51 580.07 165.51C578.11 165.51 576.32 163.98 576.32 161.35ZM582.08 161.35C582.08 159.68 581.3 158.56 580.06 158.56C578.82 158.56 578.03 159.68 578.03 161.35C578.03 163.02 578.81 164.13 580.06 164.13C581.31 164.13 582.08 163.03 582.08 161.35Z" fill="#717071"/>
<path d="M586.699 162.37V157.37H588.369V162.17C588.369 163.52 588.769 164.07 589.699 164.07C590.429 164.07 590.949 163.72 591.599 162.89V157.37H593.269V165.31H591.899L591.769 164.11H591.729C591.009 164.94 590.229 165.51 589.149 165.51C587.449 165.51 586.699 164.39 586.699 162.37Z" fill="#717071"/>
<path d="M595.99 164.41L596.781 163.33C597.471 163.89 598.16 164.25 599.01 164.25C599.95 164.25 600.391 163.79 600.391 163.18C600.391 162.46 599.511 162.14 598.651 161.81C597.601 161.41 596.43 160.84 596.43 159.51C596.43 158.18 597.5 157.19 599.25 157.19C600.3 157.19 601.19 157.62 601.81 158.13L601.05 159.15C600.49 158.75 599.93 158.46 599.29 158.46C598.4 158.46 597.99 158.89 597.99 159.44C597.99 160.1 598.771 160.36 599.651 160.69C600.751 161.11 601.97 161.6 601.97 163.08C601.97 164.42 600.921 165.51 598.961 165.51C597.871 165.51 596.74 165.03 595.98 164.4L595.99 164.41Z" fill="#717071"/>
<path d="M503.439 181.21C503.439 177.77 505.559 175.69 508.249 175.69C509.559 175.69 510.599 176.32 511.249 177.03L510.359 178.1C509.799 177.55 509.139 177.15 508.289 177.15C506.459 177.15 505.179 178.68 505.179 181.17C505.179 183.66 506.379 185.23 508.249 185.23C509.209 185.23 509.949 184.78 510.579 184.09L511.489 185.16C510.629 186.15 509.559 186.7 508.179 186.7C505.509 186.7 503.459 184.7 503.459 181.21H503.439Z" fill="#717071"/>
<path d="M514.27 178.56H515.62L515.76 179.99H515.79C516.35 178.98 517.19 178.38 518.05 178.38C518.44 178.38 518.68 178.44 518.93 178.54L518.64 180C518.35 179.91 518.16 179.87 517.83 179.87C517.18 179.87 516.4 180.32 515.91 181.58V186.51H514.25V178.57L514.27 178.56Z" fill="#717071"/>
<path d="M520.381 184.39C520.381 182.68 521.821 181.8 525.121 181.44C525.111 180.53 524.771 179.73 523.611 179.73C522.781 179.73 522.001 180.1 521.321 180.54L520.701 179.42C521.521 178.9 522.631 178.38 523.901 178.38C525.871 178.38 526.781 179.62 526.781 181.74V186.51H525.431L525.301 185.6H525.241C524.521 186.22 523.671 186.71 522.721 186.71C521.351 186.71 520.391 185.8 520.391 184.41L520.381 184.39ZM525.121 184.43V182.5C522.771 182.77 521.981 183.38 521.981 184.26C521.981 185.05 522.511 185.37 523.221 185.37C523.931 185.37 524.471 185.04 525.121 184.43Z" fill="#717071"/>
<path d="M529.391 178.66L530.471 178.57V177.58C530.471 175.95 531.221 174.83 532.981 174.83C533.531 174.83 534.021 174.95 534.381 175.09L534.051 176.34C533.781 176.21 533.461 176.15 533.191 176.15C532.481 176.15 532.141 176.61 532.141 177.56V178.55H533.741V179.89H532.141V186.49H530.481V179.89H529.401V178.65L529.391 178.66Z" fill="#717071"/>
<path d="M536.519 183.9V179.9H535.369V178.66L536.609 178.56L536.799 176.37H538.179V178.56H540.239V179.9H538.179V183.92C538.179 184.87 538.509 185.36 539.349 185.36C539.609 185.36 539.949 185.26 540.179 185.17L540.479 186.39C540.049 186.53 539.499 186.69 538.919 186.69C537.149 186.69 536.509 185.57 536.509 183.9H536.519Z" fill="#717071"/>
<path d="M542.049 185.58L542.839 184.5C543.529 185.06 544.219 185.42 545.069 185.42C546.009 185.42 546.449 184.96 546.449 184.35C546.449 183.63 545.569 183.31 544.709 182.98C543.659 182.58 542.489 182.02 542.489 180.68C542.489 179.34 543.559 178.36 545.309 178.36C546.359 178.36 547.249 178.79 547.869 179.3L547.109 180.32C546.549 179.92 545.989 179.63 545.349 179.63C544.459 179.63 544.049 180.06 544.049 180.61C544.049 181.27 544.829 181.53 545.709 181.86C546.809 182.28 548.029 182.77 548.029 184.25C548.029 185.59 546.979 186.68 545.019 186.68C543.929 186.68 542.799 186.21 542.039 185.57L542.049 185.58Z" fill="#717071"/>
<path d="M550.88 178.56H552.23L552.37 179.68H552.4C553.09 178.95 553.87 178.37 554.86 178.37C556.04 178.37 556.69 178.92 557.03 179.83C557.82 178.99 558.61 178.37 559.61 178.37C561.27 178.37 562.04 179.49 562.04 181.51V186.49H560.37V181.71C560.37 180.34 559.97 179.81 559.06 179.81C558.53 179.81 557.94 180.16 557.27 180.88V186.5H555.61V181.72C555.61 180.35 555.19 179.82 554.28 179.82C553.75 179.82 553.16 180.17 552.51 180.89V186.51H550.85V178.57L550.88 178.56Z" fill="#717071"/>
<path d="M565.08 184.39C565.08 182.68 566.52 181.8 569.82 181.44C569.81 180.53 569.47 179.73 568.31 179.73C567.48 179.73 566.7 180.1 566.02 180.54L565.4 179.42C566.22 178.9 567.33 178.38 568.6 178.38C570.57 178.38 571.48 179.62 571.48 181.74V186.51H570.13L570 185.6H569.94C569.22 186.22 568.37 186.71 567.42 186.71C566.05 186.71 565.09 185.8 565.09 184.41L565.08 184.39ZM569.82 184.43V182.5C567.47 182.77 566.68 183.38 566.68 184.26C566.68 185.05 567.21 185.37 567.92 185.37C568.63 185.37 569.17 185.04 569.82 184.43Z" fill="#717071"/>
<path d="M574.901 178.56H576.251L576.391 179.67H576.421C577.141 178.95 577.961 178.37 579.041 178.37C580.731 178.37 581.471 179.49 581.471 181.51V186.49H579.811V181.71C579.811 180.34 579.411 179.81 578.471 179.81C577.731 179.81 577.251 180.17 576.541 180.88V186.5H574.881V178.56H574.901Z" fill="#717071"/>
<path d="M584.141 185.58L584.931 184.5C585.621 185.06 586.311 185.42 587.161 185.42C588.101 185.42 588.541 184.96 588.541 184.35C588.541 183.63 587.661 183.31 586.801 182.98C585.751 182.58 584.581 182.02 584.581 180.68C584.581 179.34 585.651 178.36 587.401 178.36C588.451 178.36 589.341 178.79 589.961 179.3L589.201 180.32C588.641 179.92 588.081 179.63 587.441 179.63C586.551 179.63 586.141 180.06 586.141 180.61C586.141 181.27 586.921 181.53 587.801 181.86C588.891 182.28 590.121 182.77 590.121 184.25C590.121 185.59 589.071 186.68 587.111 186.68C586.021 186.68 584.891 186.21 584.131 185.57L584.141 185.58Z" fill="#717071"/>
<path d="M592.959 175.01H594.619V178.05L594.549 179.62C595.239 178.94 596.029 178.37 597.109 178.37C598.799 178.37 599.539 179.49 599.539 181.51V186.49H597.879V181.71C597.879 180.34 597.479 179.81 596.539 179.81C595.809 179.81 595.319 180.17 594.609 180.88V186.5H592.949V175.02L592.959 175.01Z" fill="#717071"/>
<path d="M602.789 176.08C602.789 175.5 603.209 175.1 603.829 175.1C604.449 175.1 604.849 175.5 604.849 176.08C604.849 176.7 604.429 177.09 603.829 177.09C603.229 177.09 602.789 176.7 602.789 176.08ZM602.989 178.56H604.649V186.5H602.989V178.56Z" fill="#717071"/>
<path d="M608.211 178.56H609.561L609.701 179.44H609.731C610.421 178.86 611.291 178.37 612.181 178.37C614.181 178.37 615.311 179.95 615.311 182.4C615.311 185.12 613.681 186.69 611.901 186.69C611.211 186.69 610.491 186.36 609.831 185.78L609.871 187.13V189.69H608.211V178.54V178.56ZM613.601 182.43C613.601 180.77 613.071 179.75 611.741 179.75C611.121 179.75 610.531 180.08 609.871 180.71V184.59C610.491 185.11 611.111 185.3 611.581 185.3C612.731 185.3 613.601 184.28 613.601 182.43Z" fill="#717071"/>
<path d="M684.109 154.7H685.779V159.04H690.319V154.7H691.989V165.32H690.319V160.49H685.779V165.32H684.109V154.7Z" fill="#717071"/>
<path d="M695.16 161.35C695.16 158.71 696.93 157.19 698.91 157.19C700.89 157.19 702.63 158.72 702.63 161.35C702.63 163.98 700.87 165.51 698.91 165.51C696.95 165.51 695.16 163.98 695.16 161.35ZM700.92 161.35C700.92 159.68 700.14 158.56 698.9 158.56C697.66 158.56 696.87 159.68 696.87 161.35C696.87 163.02 697.65 164.13 698.9 164.13C700.15 164.13 700.92 163.03 700.92 161.35Z" fill="#717071"/>
<path d="M705.649 157.38H706.999L707.139 158.5H707.169C707.859 157.77 708.639 157.19 709.629 157.19C710.809 157.19 711.459 157.74 711.799 158.65C712.589 157.81 713.379 157.19 714.379 157.19C716.039 157.19 716.809 158.31 716.809 160.33V165.31H715.139V160.53C715.139 159.16 714.739 158.63 713.829 158.63C713.299 158.63 712.709 158.98 712.039 159.7V165.32H710.379V160.54C710.379 159.17 709.959 158.64 709.049 158.64C708.519 158.64 707.929 158.99 707.279 159.71V165.33H705.619V157.39L705.649 157.38Z" fill="#717071"/>
<path d="M719.75 161.35C719.75 158.77 721.52 157.19 723.37 157.19C725.47 157.19 726.61 158.7 726.61 160.94C726.61 161.27 726.57 161.59 726.52 161.79H721.38C721.51 163.3 722.46 164.21 723.83 164.21C724.54 164.21 725.14 163.99 725.72 163.62L726.3 164.67C725.58 165.16 724.66 165.52 723.63 165.52C721.46 165.52 719.75 163.98 719.75 161.36V161.35ZM725.17 160.63C725.17 159.28 724.55 158.5 723.4 158.5C722.41 158.5 721.53 159.25 721.37 160.63H725.17Z" fill="#717071"/>
<path d="M729.65 162.72V158.72H728.5V157.48L729.74 157.38L729.93 155.19H731.31V157.38H733.37V158.72H731.31V162.74C731.31 163.69 731.64 164.18 732.48 164.18C732.74 164.18 733.08 164.08 733.31 163.99L733.61 165.21C733.18 165.35 732.63 165.51 732.05 165.51C730.28 165.51 729.64 164.39 729.64 162.72H729.65Z" fill="#717071"/>
<path d="M735.359 161.35C735.359 158.71 737.129 157.19 739.099 157.19C741.069 157.19 742.819 158.72 742.819 161.35C742.819 163.98 741.059 165.51 739.099 165.51C737.139 165.51 735.359 163.98 735.359 161.35ZM741.129 161.35C741.129 159.68 740.349 158.56 739.109 158.56C737.869 158.56 737.079 159.68 737.079 161.35C737.079 163.02 737.859 164.13 739.109 164.13C740.359 164.13 741.129 163.03 741.129 161.35Z" fill="#717071"/>
<path d="M744.91 157.38H746.58L747.63 161.67C747.79 162.45 747.92 163.17 748.06 163.93H748.13C748.29 163.17 748.45 162.43 748.63 161.67L749.75 157.38H751.28L752.42 161.67C752.61 162.45 752.77 163.17 752.95 163.93H753.02C753.16 163.17 753.29 162.45 753.47 161.67L754.49 157.38H756.06L754 165.32H752.01L751 161.4C750.81 160.65 750.67 159.93 750.5 159.11H750.43C750.27 159.93 750.13 160.67 749.94 161.41L748.96 165.31H747.03L744.9 157.37L744.91 157.38Z" fill="#717071"/>
<path d="M758.799 157.38H760.149L760.289 158.49H760.319C761.039 157.77 761.859 157.19 762.939 157.19C764.629 157.19 765.369 158.31 765.369 160.33V165.31H763.709V160.53C763.709 159.16 763.309 158.63 762.369 158.63C761.639 158.63 761.149 158.99 760.439 159.7V165.32H758.779V157.38H758.799Z" fill="#717071"/>
<path d="M772.619 161.35C772.619 158.71 774.389 157.19 776.369 157.19C778.349 157.19 780.089 158.72 780.089 161.35C780.089 163.98 778.329 165.51 776.369 165.51C774.409 165.51 772.619 163.98 772.619 161.35ZM778.379 161.35C778.379 159.68 777.599 158.56 776.359 158.56C775.119 158.56 774.329 159.68 774.329 161.35C774.329 163.02 775.109 164.13 776.359 164.13C777.609 164.13 778.379 163.03 778.379 161.35Z" fill="#717071"/>
<path d="M782.27 157.48L783.349 157.39V156.4C783.349 154.77 784.099 153.65 785.859 153.65C786.409 153.65 786.9 153.77 787.26 153.91L786.93 155.16C786.66 155.03 786.34 154.97 786.06 154.97C785.35 154.97 785.01 155.43 785.01 156.38V157.37H786.609V158.71H785.01V165.31H783.349V158.71H782.27V157.47V157.48Z" fill="#717071"/>
<path d="M703.051 175.88H706.351C708.511 175.88 710.081 176.59 710.081 178.49C710.081 179.51 709.531 180.48 708.571 180.79V180.86C709.781 181.11 710.661 181.94 710.661 183.38C710.661 185.48 708.961 186.49 706.601 186.49H703.061V175.87L703.051 175.88ZM706.141 180.31C707.751 180.31 708.431 179.71 708.431 178.71C708.431 177.62 707.681 177.18 706.181 177.18H704.711V180.3H706.141V180.31ZM706.401 185.18C708.061 185.18 709.011 184.59 709.011 183.29C709.011 182.11 708.091 181.58 706.401 181.58H704.721V185.18H706.401Z" fill="#717071"/>
<path d="M713.131 184.39C713.131 182.68 714.571 181.8 717.871 181.44C717.861 180.53 717.521 179.73 716.361 179.73C715.521 179.73 714.751 180.1 714.071 180.54L713.451 179.42C714.271 178.9 715.381 178.38 716.651 178.38C718.621 178.38 719.531 179.62 719.531 181.74V186.51H718.181L718.051 185.6H717.991C717.271 186.22 716.421 186.71 715.471 186.71C714.101 186.71 713.141 185.8 713.141 184.41L713.131 184.39ZM717.871 184.43V182.5C715.521 182.77 714.731 183.38 714.731 184.26C714.731 185.05 715.261 185.37 715.971 185.37C716.681 185.37 717.221 185.04 717.871 184.43Z" fill="#717071"/>
<path d="M722.11 185.58L722.9 184.5C723.59 185.06 724.28 185.42 725.13 185.42C726.07 185.42 726.51 184.96 726.51 184.35C726.51 183.63 725.63 183.31 724.77 182.98C723.72 182.58 722.55 182.02 722.55 180.68C722.55 179.34 723.62 178.36 725.37 178.36C726.42 178.36 727.31 178.79 727.93 179.3L727.17 180.32C726.61 179.92 726.05 179.63 725.41 179.63C724.52 179.63 724.11 180.06 724.11 180.61C724.11 181.27 724.89 181.53 725.77 181.86C726.86 182.28 728.09 182.77 728.09 184.25C728.09 185.59 727.04 186.68 725.08 186.68C723.99 186.68 722.86 186.21 722.1 185.57L722.11 185.58Z" fill="#717071"/>
<path d="M730.381 182.53C730.381 179.95 732.151 178.37 734.001 178.37C736.101 178.37 737.241 179.88 737.241 182.12C737.241 182.45 737.201 182.77 737.151 182.97H732.011C732.141 184.48 733.091 185.39 734.461 185.39C735.171 185.39 735.771 185.17 736.351 184.8L736.931 185.85C736.211 186.34 735.291 186.7 734.261 186.7C732.091 186.7 730.391 185.16 730.391 182.54L730.381 182.53ZM735.801 181.81C735.801 180.46 735.181 179.68 734.031 179.68C733.041 179.68 732.161 180.43 732.001 181.81H735.801Z" fill="#717071"/>
<path d="M741.69 185.67H741.63L741.49 186.49H740.18V175.01H741.84V178.05L741.78 179.4C742.47 178.8 743.31 178.36 744.14 178.36C746.14 178.36 747.28 179.94 747.28 182.39C747.28 185.11 745.65 186.68 743.87 186.68C743.15 186.68 742.36 186.31 741.7 185.66L741.69 185.67ZM745.56 182.43C745.56 180.77 745.03 179.75 743.7 179.75C743.08 179.75 742.48 180.08 741.83 180.71V184.59C742.44 185.11 743.07 185.3 743.54 185.3C744.69 185.3 745.56 184.28 745.56 182.43Z" fill="#717071"/>
<path d="M749.641 184.39C749.641 182.68 751.081 181.8 754.381 181.44C754.371 180.53 754.031 179.73 752.871 179.73C752.031 179.73 751.261 180.1 750.581 180.54L749.961 179.42C750.781 178.9 751.891 178.38 753.161 178.38C755.131 178.38 756.041 179.62 756.041 181.74V186.51H754.691L754.561 185.6H754.501C753.781 186.22 752.931 186.71 751.981 186.71C750.611 186.71 749.651 185.8 749.651 184.41L749.641 184.39ZM754.381 184.43V182.5C752.031 182.77 751.241 183.38 751.241 184.26C751.241 185.05 751.771 185.37 752.481 185.37C753.191 185.37 753.731 185.04 754.381 184.43Z" fill="#717071"/>
<path d="M759.461 184.62V175.01H761.121V184.7C761.121 185.15 761.311 185.3 761.511 185.3C761.581 185.3 761.641 185.3 761.801 185.27L762.001 186.52C761.801 186.61 761.521 186.68 761.111 186.68C759.911 186.68 759.471 185.9 759.471 184.61L759.461 184.62Z" fill="#717071"/>
<path d="M764.83 184.62V175.01H766.49V184.7C766.49 185.15 766.68 185.3 766.88 185.3C766.95 185.3 767.01 185.3 767.17 185.27L767.37 186.52C767.17 186.61 766.9 186.68 766.48 186.68C765.28 186.68 764.84 185.9 764.84 184.61L764.83 184.62Z" fill="#717071"/>
<path d="M205.789 154.7H208.999C211.359 154.7 213.059 155.52 213.059 157.93C213.059 160.34 211.359 161.3 209.059 161.3H207.459V165.32H205.789V154.7ZM208.919 159.94C210.589 159.94 211.409 159.29 211.409 157.92C211.409 156.55 210.529 156.05 208.849 156.05H207.469V159.94H208.919Z" fill="#717071"/>
<path d="M215.119 161.35C215.119 158.77 216.889 157.19 218.739 157.19C220.839 157.19 221.979 158.7 221.979 160.94C221.979 161.27 221.939 161.59 221.889 161.79H216.749C216.879 163.3 217.829 164.21 219.199 164.21C219.909 164.21 220.509 163.99 221.089 163.62L221.669 164.67C220.949 165.16 220.029 165.52 219.009 165.52C216.829 165.52 215.139 163.98 215.139 161.36L215.119 161.35ZM220.539 160.63C220.539 159.28 219.919 158.5 218.769 158.5C217.779 158.5 216.899 159.25 216.739 160.63H220.539Z" fill="#717071"/>
<path d="M224.08 164.41L224.87 163.33C225.56 163.89 226.25 164.25 227.1 164.25C228.04 164.25 228.48 163.79 228.48 163.18C228.48 162.46 227.6 162.14 226.74 161.81C225.69 161.41 224.52 160.85 224.52 159.51C224.52 158.17 225.59 157.19 227.34 157.19C228.39 157.19 229.28 157.62 229.9 158.13L229.14 159.15C228.58 158.75 228.02 158.46 227.38 158.46C226.49 158.46 226.08 158.89 226.08 159.44C226.08 160.1 226.86 160.36 227.74 160.69C228.83 161.11 230.06 161.6 230.06 163.08C230.06 164.42 229.01 165.51 227.05 165.51C225.96 165.51 224.83 165.04 224.07 164.4L224.08 164.41Z" fill="#717071"/>
<path d="M232.849 162.72V158.72H231.699V157.48L232.939 157.38L233.129 155.19H234.509V157.38H236.569V158.72H234.509V162.74C234.509 163.69 234.839 164.18 235.679 164.18C235.939 164.18 236.279 164.08 236.519 163.99L236.819 165.21C236.389 165.35 235.839 165.51 235.259 165.51C233.489 165.51 232.849 164.39 232.849 162.72Z" fill="#717071"/>
<path d="M239.381 163.44V153.83H241.041V163.52C241.041 163.97 241.231 164.12 241.431 164.12C241.501 164.12 241.561 164.12 241.721 164.09L241.921 165.34C241.721 165.43 241.441 165.5 241.031 165.5C239.831 165.5 239.391 164.72 239.391 163.43L239.381 163.44Z" fill="#717071"/>
<path d="M244.189 161.35C244.189 158.77 245.959 157.19 247.809 157.19C249.909 157.19 251.049 158.7 251.049 160.94C251.049 161.27 251.009 161.59 250.959 161.79H245.819C245.949 163.3 246.899 164.21 248.269 164.21C248.979 164.21 249.579 163.99 250.159 163.62L250.739 164.67C250.019 165.16 249.099 165.52 248.079 165.52C245.899 165.52 244.199 163.98 244.199 161.36L244.189 161.35ZM249.599 160.63C249.599 159.28 248.979 158.5 247.829 158.5C246.839 158.5 245.959 159.25 245.799 160.63H249.599Z" fill="#717071"/>
<path d="M186.051 184.39C186.051 182.68 187.491 181.8 190.791 181.44C190.781 180.53 190.441 179.73 189.281 179.73C188.441 179.73 187.671 180.11 186.991 180.54L186.371 179.42C187.191 178.9 188.301 178.38 189.571 178.38C191.541 178.38 192.451 179.62 192.451 181.74V186.51H191.101L190.971 185.6H190.911C190.191 186.22 189.341 186.71 188.391 186.71C187.021 186.71 186.061 185.8 186.061 184.41L186.051 184.39ZM190.791 184.43V182.5C188.441 182.77 187.651 183.38 187.651 184.26C187.651 185.05 188.181 185.37 188.891 185.37C189.601 185.37 190.141 185.04 190.791 184.43Z" fill="#717071"/>
<path d="M195.87 178.56H197.22L197.36 179.67H197.39C198.11 178.95 198.93 178.37 200.01 178.37C201.7 178.37 202.44 179.49 202.44 181.51V186.49H200.78V181.71C200.78 180.34 200.38 179.81 199.44 179.81C198.71 179.81 198.22 180.17 197.51 180.88V186.5H195.85V178.56H195.87Z" fill="#717071"/>
<path d="M205.4 182.53C205.4 179.95 207.03 178.37 208.79 178.37C209.71 178.37 210.29 178.7 210.92 179.26L210.86 177.95V175.01H212.52V186.49H211.17L211.03 185.6H210.99C210.4 186.21 209.58 186.7 208.67 186.7C206.7 186.7 205.41 185.17 205.41 182.54L205.4 182.53ZM210.86 184.33V180.47C210.27 179.94 209.71 179.75 209.12 179.75C208.03 179.75 207.12 180.8 207.12 182.52C207.12 184.24 207.83 185.3 209.06 185.3C209.72 185.3 210.28 185.01 210.86 184.33Z" fill="#717071"/>
<path d="M220.549 175.88H222.479L224.409 181.25C224.649 181.94 224.889 182.68 225.119 183.38H225.189C225.439 182.67 225.649 181.94 225.879 181.25L227.779 175.88H229.719V186.5H228.159V181.26C228.159 180.31 228.289 178.94 228.389 177.98H228.319L227.469 180.43L225.629 185.49H224.589L222.729 180.43L221.879 177.98H221.819C221.919 178.94 222.049 180.31 222.049 181.26V186.5H220.539V175.88H220.549Z" fill="#717071"/>
<path d="M232.881 182.53C232.881 179.89 234.651 178.37 236.631 178.37C238.611 178.37 240.351 179.9 240.351 182.53C240.351 185.16 238.591 186.69 236.631 186.69C234.671 186.69 232.881 185.16 232.881 182.53ZM238.641 182.53C238.641 180.86 237.861 179.74 236.621 179.74C235.381 179.74 234.591 180.86 234.591 182.53C234.591 184.2 235.371 185.31 236.621 185.31C237.871 185.31 238.641 184.21 238.641 182.53Z" fill="#717071"/>
<path d="M243.379 178.56H244.729L244.869 179.99H244.899C245.459 178.98 246.299 178.38 247.159 178.38C247.549 178.38 247.789 178.44 248.039 178.54L247.749 180C247.459 179.91 247.269 179.87 246.939 179.87C246.289 179.87 245.509 180.32 245.019 181.58V186.51H243.359V178.57L243.379 178.56Z" fill="#717071"/>
<path d="M250.611 183.9V179.9H249.461V178.66L250.701 178.56L250.891 176.37H252.271V178.56H254.331V179.9H252.271V183.92C252.271 184.87 252.601 185.36 253.441 185.36C253.701 185.36 254.041 185.26 254.271 185.17L254.571 186.39C254.141 186.53 253.591 186.69 253.011 186.69C251.241 186.69 250.601 185.57 250.601 183.9H250.611Z" fill="#717071"/>
<path d="M256.33 184.39C256.33 182.68 257.77 181.8 261.07 181.44C261.06 180.53 260.72 179.73 259.56 179.73C258.72 179.73 257.95 180.11 257.27 180.54L256.65 179.42C257.47 178.9 258.58 178.38 259.85 178.38C261.82 178.38 262.73 179.62 262.73 181.74V186.51H261.38L261.25 185.6H261.19C260.47 186.22 259.62 186.71 258.67 186.71C257.3 186.71 256.34 185.8 256.34 184.41L256.33 184.39ZM261.07 184.43V182.5C258.72 182.77 257.93 183.38 257.93 184.26C257.93 185.05 258.46 185.37 259.17 185.37C259.88 185.37 260.42 185.04 261.07 184.43Z" fill="#717071"/>
<path d="M266.151 178.56H267.501L267.641 179.99H267.671C268.231 178.98 269.071 178.38 269.931 178.38C270.321 178.38 270.561 178.44 270.811 178.54L270.521 180C270.231 179.91 270.041 179.87 269.711 179.87C269.061 179.87 268.281 180.32 267.791 181.58V186.51H266.131V178.57L266.151 178.56Z" fill="#717071"/>
<path d="M18.5391 165.29H24.8191V166.7H20.2091V169.94H24.1391V171.34H20.2091V175.91H18.5391V165.29Z" fill="#717071"/>
<path d="M27.6309 174.03V164.42H29.2909V174.11C29.2909 174.56 29.4809 174.72 29.6809 174.72C29.7509 174.72 29.8109 174.72 29.9709 174.69L30.1709 175.94C29.9709 176.03 29.6909 176.1 29.2809 176.1C28.0809 176.1 27.6409 175.32 27.6409 174.03H27.6309Z" fill="#717071"/>
<path d="M32.3595 179.06L32.6795 177.76C32.8195 177.8 33.0495 177.88 33.2695 177.88C34.1195 177.88 34.6195 177.25 34.9095 176.4L35.0795 175.85L31.9395 167.97H33.6295L35.0895 172.06C35.3395 172.77 35.5795 173.54 35.8195 174.29H35.8895C36.0895 173.56 36.3095 172.78 36.5095 172.06L37.7895 167.97H39.3895L36.4795 176.38C35.8595 178.08 35.0195 179.22 33.3695 179.22C32.9495 179.22 32.6395 179.16 32.3595 179.06Z" fill="#717071"/>
<path d="M41.7109 165.49C41.7109 164.91 42.1309 164.51 42.7509 164.51C43.3709 164.51 43.7709 164.91 43.7709 165.49C43.7709 166.11 43.3509 166.5 42.7509 166.5C42.1509 166.5 41.7109 166.11 41.7109 165.49ZM41.9109 167.97H43.5709V175.91H41.9109V167.97Z" fill="#717071"/>
<path d="M47.1391 167.97H48.4891L48.6291 169.08H48.6591C49.3791 168.36 50.1991 167.78 51.2791 167.78C52.9691 167.78 53.7091 168.9 53.7091 170.92V175.9H52.0491V171.12C52.0491 169.75 51.6491 169.22 50.7091 169.22C49.9791 169.22 49.4891 169.58 48.7791 170.29V175.91H47.1191V167.97H47.1391Z" fill="#717071"/>
<path d="M56.6309 177.37C56.6309 176.71 57.0509 176.09 57.7809 175.64V175.58C57.3809 175.31 57.0609 174.89 57.0609 174.26C57.0609 173.63 57.4909 173.09 57.9509 172.79V172.73C57.4009 172.31 56.9009 171.56 56.9009 170.61C56.9009 168.82 58.3309 167.77 59.9709 167.77C60.4209 167.77 60.8209 167.86 61.1209 167.96H63.9309V169.21H62.4309C62.7209 169.54 62.9309 170.06 62.9309 170.65C62.9309 172.39 61.6209 173.39 59.9609 173.39C59.6109 173.39 59.2009 173.3 58.8509 173.16C58.6009 173.38 58.4209 173.59 58.4209 173.98C58.4209 174.44 58.7409 174.76 59.7509 174.76H61.2209C63.0809 174.76 64.0609 175.34 64.0609 176.68C64.0609 178.22 62.4609 179.46 59.9309 179.46C58.0109 179.46 56.6309 178.75 56.6309 177.37ZM62.4509 176.95C62.4509 176.29 61.9309 176.09 60.9809 176.09H59.7809C59.4009 176.09 59.0509 176.06 58.7109 175.97C58.2309 176.32 58.0509 176.72 58.0509 177.12C58.0509 177.88 58.8409 178.36 60.1509 178.36C61.5309 178.36 62.4409 177.68 62.4409 176.95H62.4509ZM61.4709 170.62C61.4709 169.57 60.8109 168.95 59.9709 168.95C59.1309 168.95 58.4709 169.55 58.4709 170.62C58.4709 171.69 59.1509 172.32 59.9709 172.32C60.7909 172.32 61.4709 171.69 61.4709 170.62Z" fill="#717071"/>
<path d="M71.0703 165.29H77.3503V166.7H72.7403V169.94H76.6703V171.34H72.7403V175.91H71.0703V165.29Z" fill="#717071"/>
<path d="M79.9609 165.49C79.9609 164.91 80.3809 164.51 81.0009 164.51C81.6209 164.51 82.0209 164.91 82.0209 165.49C82.0209 166.11 81.6009 166.5 81.0009 166.5C80.4009 166.5 79.9609 166.11 79.9609 165.49ZM80.1609 167.97H81.8209V175.91H80.1609V167.97Z" fill="#717071"/>
<path d="M84.5491 175L85.3391 173.92C86.0291 174.48 86.7191 174.84 87.5691 174.84C88.5091 174.84 88.9491 174.38 88.9491 173.77C88.9491 173.05 88.0691 172.73 87.2091 172.4C86.1591 172 84.9891 171.43 84.9891 170.1C84.9891 168.77 86.0591 167.78 87.8091 167.78C88.8591 167.78 89.7491 168.21 90.3691 168.72L89.6091 169.74C89.0491 169.34 88.4891 169.05 87.8491 169.05C86.9591 169.05 86.5491 169.48 86.5491 170.03C86.5491 170.69 87.3291 170.95 88.2091 171.28C89.2991 171.7 90.5291 172.19 90.5291 173.67C90.5291 175.01 89.4791 176.1 87.5191 176.1C86.4291 176.1 85.2991 175.62 84.5391 174.99L84.5491 175Z" fill="#717071"/>
<path d="M93.3791 164.42H95.0391V167.46L94.9691 169.03C95.6591 168.35 96.4491 167.78 97.5291 167.78C99.2191 167.78 99.9591 168.9 99.9591 170.92V175.9H98.2991V171.12C98.2991 169.75 97.8991 169.22 96.9591 169.22C96.2291 169.22 95.7391 169.58 95.0291 170.29V175.91H93.3691V164.43L93.3791 164.42Z" fill="#717071"/>
<path d="M349.68 156.11H346.58V154.7H354.49V156.11H351.38V165.31H349.68V156.11Z" fill="#717071"/>
<path d="M356.54 157.38H357.89L358.03 158.81H358.06C358.62 157.8 359.46 157.2 360.32 157.2C360.71 157.2 360.95 157.26 361.2 157.36L360.91 158.82C360.62 158.73 360.43 158.69 360.1 158.69C359.45 158.69 358.67 159.14 358.18 160.4V165.33H356.52V157.39L356.54 157.38Z" fill="#717071"/>
<path d="M363.301 154.9C363.301 154.32 363.721 153.92 364.341 153.92C364.961 153.92 365.361 154.32 365.361 154.9C365.361 155.52 364.941 155.91 364.341 155.91C363.741 155.91 363.301 155.52 363.301 154.9ZM363.511 157.38H365.171V165.32H363.511V157.38Z" fill="#717071"/>
<path d="M368.199 161.35C368.199 158.77 369.829 157.19 371.579 157.19C372.499 157.19 373.079 157.52 373.709 158.08L373.649 156.77V153.83H375.309V165.31H373.959L373.819 164.42H373.779C373.189 165.03 372.369 165.52 371.459 165.52C369.489 165.52 368.199 163.99 368.199 161.36V161.35ZM373.659 163.15V159.29C373.069 158.76 372.509 158.57 371.919 158.57C370.829 158.57 369.919 159.62 369.919 161.34C369.919 163.06 370.629 164.12 371.859 164.12C372.519 164.12 373.079 163.83 373.659 163.15Z" fill="#717071"/>
<path d="M378.33 161.35C378.33 158.77 380.1 157.19 381.95 157.19C384.05 157.19 385.19 158.7 385.19 160.94C385.19 161.27 385.15 161.59 385.1 161.79H379.96C380.09 163.3 381.04 164.21 382.41 164.21C383.12 164.21 383.72 163.99 384.3 163.62L384.88 164.67C384.16 165.16 383.24 165.52 382.21 165.52C380.04 165.52 378.34 163.98 378.34 161.36L378.33 161.35ZM383.74 160.63C383.74 159.28 383.12 158.5 381.97 158.5C380.98 158.5 380.1 159.25 379.94 160.63H383.74Z" fill="#717071"/>
<path d="M388.12 157.38H389.47L389.61 158.49H389.64C390.36 157.77 391.18 157.19 392.26 157.19C393.95 157.19 394.69 158.31 394.69 160.33V165.31H393.03V160.53C393.03 159.16 392.63 158.63 391.69 158.63C390.96 158.63 390.47 158.99 389.76 159.7V165.32H388.1V157.38H388.12Z" fill="#717071"/>
<path d="M398.451 162.72V158.72H397.301V157.48L398.541 157.38L398.731 155.19H400.111V157.38H402.171V158.72H400.111V162.74C400.111 163.69 400.441 164.18 401.281 164.18C401.541 164.18 401.891 164.08 402.121 163.99L402.421 165.21C401.991 165.35 401.441 165.51 400.861 165.51C399.091 165.51 398.451 164.39 398.451 162.72Z" fill="#717071"/>
<path d="M409.43 154.7H415.71V156.11H411.1V159.35H415.03V160.75H411.1V165.32H409.43V154.7Z" fill="#717071"/>
<path d="M418.32 154.9C418.32 154.32 418.74 153.92 419.36 153.92C419.98 153.92 420.38 154.32 420.38 154.9C420.38 155.52 419.96 155.91 419.36 155.91C418.76 155.91 418.32 155.52 418.32 154.9ZM418.52 157.38H420.18V165.32H418.52V157.38Z" fill="#717071"/>
<path d="M422.91 164.41L423.7 163.33C424.39 163.89 425.08 164.25 425.93 164.25C426.87 164.25 427.31 163.79 427.31 163.18C427.31 162.46 426.43 162.14 425.57 161.81C424.52 161.41 423.35 160.84 423.35 159.51C423.35 158.18 424.42 157.19 426.17 157.19C427.22 157.19 428.11 157.62 428.73 158.13L427.97 159.15C427.41 158.75 426.85 158.46 426.21 158.46C425.32 158.46 424.91 158.89 424.91 159.44C424.91 160.1 425.69 160.36 426.57 160.69C427.66 161.11 428.89 161.6 428.89 163.08C428.89 164.42 427.84 165.51 425.88 165.51C424.79 165.51 423.66 165.03 422.9 164.4L422.91 164.41Z" fill="#717071"/>
<path d="M431.74 153.83H433.4V156.87L433.33 158.44C434.02 157.76 434.81 157.19 435.89 157.19C437.58 157.19 438.32 158.31 438.32 160.33V165.31H436.66V160.53C436.66 159.16 436.26 158.63 435.32 158.63C434.59 158.63 434.1 158.99 433.39 159.7V165.32H431.73V153.84L431.74 153.83Z" fill="#717071"/>
<path d="M360.631 175.88H362.301V180.22H366.841V175.88H368.511V186.5H366.841V181.67H362.301V186.5H360.631V175.88Z" fill="#717071"/>
<path d="M371.779 184.39C371.779 182.68 373.219 181.8 376.519 181.44C376.509 180.53 376.169 179.73 375.009 179.73C374.169 179.73 373.399 180.1 372.719 180.54L372.099 179.42C372.919 178.9 374.029 178.38 375.299 178.38C377.269 178.38 378.179 179.62 378.179 181.74V186.51H376.829L376.699 185.6H376.639C375.919 186.22 375.069 186.71 374.119 186.71C372.749 186.71 371.789 185.8 371.789 184.41L371.779 184.39ZM376.519 184.43V182.5C374.169 182.77 373.379 183.38 373.379 184.26C373.379 185.05 373.909 185.37 374.619 185.37C375.329 185.37 375.869 185.04 376.519 184.43Z" fill="#717071"/>
<path d="M381.6 178.56H382.95L383.09 179.99H383.12C383.68 178.98 384.52 178.38 385.38 178.38C385.77 178.38 386.01 178.44 386.26 178.54L385.97 180C385.68 179.91 385.5 179.87 385.16 179.87C384.51 179.87 383.73 180.32 383.24 181.58V186.51H381.58V178.57L381.6 178.56Z" fill="#717071"/>
<path d="M388.57 178.56H389.92L390.06 179.44H390.09C390.78 178.86 391.65 178.37 392.54 178.37C394.54 178.37 395.67 179.95 395.67 182.4C395.67 185.12 394.04 186.69 392.26 186.69C391.57 186.69 390.85 186.36 390.19 185.78L390.23 187.13V189.69H388.57V178.54V178.56ZM393.96 182.43C393.96 180.77 393.43 179.75 392.1 179.75C391.48 179.75 390.89 180.08 390.23 180.71V184.59C390.85 185.11 391.47 185.3 391.94 185.3C393.09 185.3 393.96 184.28 393.96 182.43Z" fill="#717071"/>
<path d="M398.16 182.53C398.16 179.89 399.93 178.37 401.91 178.37C403.89 178.37 405.63 179.9 405.63 182.53C405.63 185.16 403.87 186.69 401.91 186.69C399.95 186.69 398.16 185.16 398.16 182.53ZM403.93 182.53C403.93 180.86 403.15 179.74 401.91 179.74C400.67 179.74 399.88 180.86 399.88 182.53C399.88 184.2 400.66 185.31 401.91 185.31C403.16 185.31 403.93 184.22 403.93 182.53Z" fill="#717071"/>
<path d="M408.1 182.53C408.1 179.89 409.87 178.37 411.85 178.37C413.83 178.37 415.57 179.9 415.57 182.53C415.57 185.16 413.81 186.69 411.85 186.69C409.89 186.69 408.1 185.16 408.1 182.53ZM413.86 182.53C413.86 180.86 413.08 179.74 411.84 179.74C410.6 179.74 409.81 180.86 409.81 182.53C409.81 184.2 410.59 185.31 411.84 185.31C413.09 185.31 413.86 184.22 413.86 182.53Z" fill="#717071"/>
<path d="M418.6 178.56H419.95L420.09 179.67H420.12C420.84 178.95 421.66 178.37 422.74 178.37C424.43 178.37 425.17 179.49 425.17 181.51V186.49H423.51V181.71C423.51 180.34 423.11 179.81 422.17 179.81C421.44 179.81 420.95 180.17 420.24 180.88V186.5H418.58V178.56H418.6Z" fill="#717071"/>
<path d="M219.4 87.9004C225.38 88.8104 234.12 89.1403 243.93 86.3103C253.2 73.2203 249.91 49.6504 249.91 49.6504C249.91 45.9004 240.18 42.8604 228.18 42.8604C216.18 42.8604 206.45 45.9004 206.45 49.6504C206.45 49.6504 203.15 73.3404 212.5 86.4104C214.41 86.9604 216.74 87.5004 219.4 87.9104V87.9004Z" fill="#5D97C4"/>
<path d="M243.819 88.7803C238.079 90.3803 232.709 90.9303 228.029 90.9303C224.649 90.9303 221.629 90.6403 219.089 90.2503C216.559 89.8603 214.329 89.3603 212.459 88.8403C210.639 90.7703 206.119 96.9303 205.869 110.74C205.869 110.74 209.089 119.99 228.169 120.32C247.249 119.99 250.469 110.74 250.469 110.74C250.219 96.7703 245.589 90.6303 243.819 88.7803Z" fill="#5D97C4"/>
<path d="M236.69 52.1102L240.57 38.9102L244.51 36.4302L253.54 5.67017C254.03 4.02017 253.08 2.28017 251.43 1.80017L245.73 0.12017C244.08 -0.36983 242.34 0.58017 241.86 2.23017L232.83 32.9902L234.8 37.2002L229.85 52.5902C229.85 52.5902 233.27 52.8102 236.69 52.1002V52.1102Z" fill="#2E59A6"/>
<path d="M392.62 2.30008V1.58008L392.57 1.94008L392.52 1.58008V2.30008C391.41 7.04008 390.85 11.9001 390.85 16.7701V71.6601H394.28V16.7601C394.28 11.8901 393.72 7.04008 392.61 2.29008L392.62 2.30008Z" fill="#5D97C4"/>
<path d="M379.729 46.7803V16.7603C379.729 11.8903 379.169 7.03031 378.059 2.29031V1.57031L378.009 1.93031L377.959 1.57031V2.29031C376.849 7.03031 376.289 11.8903 376.289 16.7603V47.0003L385.809 60.1603V71.6503H388.989V59.3003L379.719 46.7803H379.729Z" fill="#5D97C4"/>
<path d="M405.41 46.7803V16.7603C405.41 11.8903 405.97 7.03031 407.08 2.29031V1.57031L407.13 1.93031L407.18 1.57031V2.29031C408.29 7.03031 408.85 11.8903 408.85 16.7603V47.0003L399.33 60.1603V71.6503H396.15V59.3003L405.42 46.7803H405.41Z" fill="#5D97C4"/>
<path d="M400.49 71.6504H384.66V95.8704H400.49V71.6504Z" fill="#2E59A6"/>
<path d="M397.63 93.3896H387.52V118.75H397.63V93.3896Z" fill="#2E59A6"/>
<path d="M49.7695 49.6201C49.7695 49.6201 71.9895 60.9101 79.7295 82.9901C79.7295 82.9901 78.5495 57.0901 49.7695 49.6201Z" fill="#5D97C4"/>
<path d="M75.1003 83.8601C75.1003 83.8601 74.2503 65.2401 53.5703 59.8701C53.5703 59.8701 69.5403 67.9901 75.1003 83.8601Z" fill="#5D97C4"/>
<path d="M113.94 90.7995C112.4 84.2695 98.9998 80.4695 93.3998 78.1995C95.7998 65.2495 93.3998 49.6195 82.9198 40.6295C81.1698 40.2595 81.7798 41.3295 81.4398 42.4595C79.6098 48.6395 79.0298 55.3595 77.0798 61.5295C67.4998 49.7395 55.2698 38.8195 39.4598 37.2695C39.3698 40.6195 42.3098 44.1195 43.6198 47.3295C48.0598 58.2195 50.2498 68.7095 59.0998 77.4095C54.6198 77.4495 47.9098 81.4695 43.4898 82.6895C19.3198 78.1795 6.50977 81.3295 0.00976562 84.7695C6.78977 86.1095 16.9298 89.8695 18.3698 100.48L45.8998 86.3895C45.8998 86.3895 47.6098 86.4295 50.3598 86.5795C46.4698 87.4095 37.5898 94.5095 39.0498 95.7995C46.1398 96.5395 52.2398 94.0495 58.2698 90.7795C58.4398 89.2095 56.5598 90.0795 55.7498 90.3495C51.9698 91.6095 48.2798 93.7595 44.0598 93.2895C46.2698 89.7495 49.5998 87.7795 53.3798 86.7795C54.1398 86.8295 54.9598 86.8995 55.7998 86.9695C52.9798 87.5095 49.7098 88.9595 46.9098 92.4395C46.9098 92.4395 52.2998 88.1195 59.5098 87.3095C66.3898 88.0195 74.5898 89.2595 80.8498 91.4195L77.1198 88.1095C72.5098 84.3995 69.9698 82.8995 65.3998 79.0595C52.7698 68.4395 49.6498 56.7395 44.0598 41.8695C43.3298 39.5995 55.8898 46.0695 56.8498 46.6395C71.0298 54.9795 81.3298 69.5195 88.3998 84.0995C90.1098 82.3195 97.7598 84.8895 99.6698 86.5395C98.2098 86.9995 97.1398 88.2895 97.1398 89.8195C97.1398 90.8595 97.6398 91.7895 98.4098 92.4295C98.4098 92.4395 98.4098 92.4495 98.4098 92.4595L98.4298 92.4395C99.0698 92.9595 99.8998 93.2895 100.81 93.2895C100.98 93.2895 101.13 93.2595 101.29 93.2395L101.74 94.1295C96.9698 94.1795 91.7998 92.0095 94.2098 86.6095C92.7998 86.8995 92.4698 88.2995 92.4698 89.5395C92.4698 97.4395 116 99.5395 113.94 90.7895V90.7995ZM15.4298 86.7095C25.1798 79.8995 36.6698 84.5195 36.6698 84.5195C25.3498 82.5095 15.4298 86.7095 15.4298 86.7095ZM18.4398 93.1895C26.7198 84.6495 38.8798 86.9895 38.8798 86.9895C27.3898 87.1795 18.4398 93.1895 18.4398 93.1895ZM98.1898 89.9195C98.1898 88.5295 99.3098 87.4095 100.7 87.4095C101.94 87.4095 102.97 88.3195 103.17 89.5095C102.8 88.7895 102.06 88.2695 101.19 88.2695C99.9498 88.2695 98.9398 89.2795 98.9398 90.5195C98.9398 91.2295 99.2898 91.8295 99.7998 92.2495C98.8598 91.8895 98.1998 90.9795 98.1998 89.9195H98.1898Z" fill="#5D97C4"/>
<path d="M33.9201 70.7605C34.0301 71.3305 33.2701 71.0805 32.9201 71.0605C26.0401 70.6705 16.5601 66.8905 12.2901 61.3105C8.38013 56.1805 6.86013 47.4305 12.7601 43.1505C16.8601 40.1805 23.6501 42.2505 23.3001 47.8005C23.1401 50.3305 19.9801 52.9905 19.6101 55.8805C18.6201 63.5005 27.5301 69.1205 33.9201 70.7605Z" fill="#2E59A6"/>
<path d="M29.3095 46.0603C30.8295 45.7703 33.1595 46.7203 34.0495 47.9703C36.1895 51.0003 33.7295 53.9803 33.2195 57.1703C32.3095 62.8703 34.7395 66.5403 38.0495 70.8103C30.7595 68.1303 23.7595 57.5503 25.7495 49.8303C26.1695 48.2103 27.5595 46.3903 29.3095 46.0603Z" fill="#2E59A6"/>
</g>
<defs>
<clipPath id="clip0_997_632">
<rect width="787.25" height="189.7" fill="white"/>
</clipPath>
</defs>
</svg>
