<svg width="230" height="105" viewBox="0 0 230 105" fill="none" xmlns="http://www.w3.org/2000/svg">
<g clip-path="url(#clip0_997_985)">
<path d="M0 97.0381H1.22581V100.233H4.5576V97.0381H5.78341V104.861H4.5576V101.306H1.22581V104.861H0V97.0381Z" fill="#717071"/>
<path d="M8.10547 101.944C8.10547 100.002 9.40501 98.874 10.8474 98.874C12.2898 98.874 13.5893 99.9975 13.5893 101.944C13.5893 103.891 12.2852 105 10.8474 105C9.40962 105 8.10547 103.886 8.10547 101.944ZM12.3405 101.944C12.3405 100.714 11.7691 99.8819 10.8474 99.8819C9.92575 99.8819 9.36814 100.71 9.36814 101.944C9.36814 103.179 9.93957 104.006 10.8474 104.006C11.7552 104.006 12.3405 103.188 12.3405 101.944Z" fill="#717071"/>
<path d="M15.7561 102.952V100.002H14.9082V99.0914L15.816 99.0267L15.9543 97.4131H16.9681V99.0267H18.4796V100.002H16.9681V102.966C16.9681 103.669 17.2124 104.029 17.816 104.029C18.0188 104.029 18.2723 103.965 18.4382 103.891L18.6594 104.792C18.3322 104.899 17.9405 105.005 17.5165 105.005C16.2031 105.005 15.7515 104.187 15.7515 102.957L15.7561 102.952Z" fill="#717071"/>
<path d="M25.388 97.0381H26.8073L29.388 104.861H28.0838L27.4295 102.633H24.7198L24.0516 104.861H22.8027L25.3834 97.0381H25.388ZM25.0055 101.666H27.1345L26.8258 100.617C26.5631 99.766 26.3281 98.8967 26.0977 98.0136H26.047C25.8258 98.906 25.5815 99.766 25.3281 100.617L25.0101 101.666H25.0055Z" fill="#717071"/>
<path d="M30.9531 97.1998C30.9531 96.7652 31.2619 96.4785 31.7043 96.4785C32.1467 96.4785 32.4646 96.7652 32.4646 97.1998C32.4646 97.6344 32.1467 97.9303 31.7043 97.9303C31.2619 97.9303 30.9531 97.6436 30.9531 97.1998ZM31.1006 99.0214H32.3172V104.861H31.1006V99.0214Z" fill="#717071"/>
<path d="M34.9316 99.022H35.927L36.0238 100.072H36.0561C36.4708 99.3179 37.0837 98.874 37.7058 98.874C37.9915 98.874 38.1805 98.9156 38.3602 99.0035L38.139 100.067C37.9362 100.002 37.7888 99.9698 37.5584 99.9698C37.0837 99.9698 36.5123 100.298 36.1528 101.223V104.866H34.9362V99.0266L34.9316 99.022Z" fill="#717071"/>
<path d="M43.3359 97.0381H45.7507C47.3498 97.0381 48.5018 97.5559 48.5018 98.9707C48.5018 99.7151 48.0871 100.427 47.3912 100.658V100.709C48.2806 100.899 48.9258 101.504 48.9258 102.568C48.9258 104.117 47.6677 104.861 45.9396 104.861H43.3359V97.0381ZM45.6078 100.307C46.7922 100.307 47.2899 99.863 47.2899 99.1279C47.2899 98.3095 46.7415 98.0044 45.6401 98.0044H44.5617V100.307H45.6078ZM45.8014 103.899C47.018 103.899 47.7184 103.465 47.7184 102.508C47.7184 101.625 47.041 101.232 45.8014 101.232H44.5617V103.895H45.8014V103.899Z" fill="#717071"/>
<path d="M50.7422 103.313C50.7422 102.06 51.8021 101.413 54.2261 101.149C54.2168 100.469 53.9726 99.873 53.1155 99.873C52.5026 99.873 51.9311 100.15 51.4334 100.469L50.9772 99.6418C51.5809 99.258 52.3966 98.8789 53.3274 98.8789C54.7791 98.8789 55.4426 99.8036 55.4426 101.352V104.866H54.4473L54.3505 104.196H54.309C53.7791 104.654 53.1569 105.005 52.4565 105.005C51.4519 105.005 50.7422 104.349 50.7422 103.317V103.313ZM54.2261 103.354V101.921C52.5026 102.125 51.9173 102.568 51.9173 103.23C51.9173 103.803 52.309 104.039 52.8251 104.039C53.3413 104.039 53.7468 103.794 54.2215 103.359L54.2261 103.354Z" fill="#717071"/>
<path d="M57.959 103.493V96.4004H59.1756V103.558C59.1756 103.886 59.3138 104.001 59.4613 104.001C59.5166 104.001 59.5581 104.001 59.6641 103.978L59.8207 104.903C59.6733 104.959 59.4705 105 59.1664 105C58.2862 105 57.959 104.436 57.959 103.493Z" fill="#717071"/>
<path d="M61.9082 103.493V96.4004H63.1248V103.558C63.1248 103.886 63.263 104.001 63.4105 104.001C63.4658 104.001 63.5073 104.001 63.6133 103.978L63.77 104.903C63.6225 104.959 63.4197 105 63.1156 105C62.2354 105 61.9082 104.436 61.9082 103.493Z" fill="#717071"/>
<path d="M65.4434 101.944C65.4434 100.002 66.7429 98.874 68.1853 98.874C69.6277 98.874 70.9272 99.9975 70.9272 101.944C70.9272 103.891 69.6231 105 68.1853 105C66.7475 105 65.4434 103.886 65.4434 101.944ZM69.6738 101.944C69.6738 100.714 69.1023 99.8819 68.1807 99.8819C67.259 99.8819 66.7014 100.71 66.7014 101.944C66.7014 103.179 67.2729 104.006 68.1807 104.006C69.0885 104.006 69.6738 103.188 69.6738 101.944Z" fill="#717071"/>
<path d="M72.7324 101.944C72.7324 100.002 74.032 98.874 75.4744 98.874C76.9168 98.874 78.2163 99.9975 78.2163 101.944C78.2163 103.891 76.9121 105 75.4744 105C74.0366 105 72.7324 103.886 72.7324 101.944ZM76.9674 101.944C76.9674 100.714 76.396 99.8819 75.4744 99.8819C74.5527 99.8819 73.9951 100.71 73.9951 101.944C73.9951 103.179 74.5665 104.006 75.4744 104.006C76.3822 104.006 76.9674 103.188 76.9674 101.944Z" fill="#717071"/>
<path d="M80.4375 99.022H81.4329L81.5297 99.8311H81.5619C82.1011 99.3086 82.6956 98.874 83.4882 98.874C84.7278 98.874 85.2762 99.7016 85.2762 101.19V104.866H84.0596V101.343C84.0596 100.335 83.7647 99.9328 83.0734 99.9328C82.5343 99.9328 82.1656 100.21 81.6541 100.728V104.871H80.4375V99.0312V99.022Z" fill="#717071"/>
<path d="M129.377 97.0381H133.981V98.0784H130.603V100.256H133.46V101.296H130.603V103.821H134.096V104.861H129.377V97.0381Z" fill="#717071"/>
<path d="M137.129 101.814L135.382 99.0215H136.696L137.396 100.191C137.567 100.52 137.756 100.848 137.945 101.181H137.986C138.143 100.852 138.313 100.524 138.475 100.191L139.087 99.0215H140.359L138.613 101.953L140.484 104.861H139.161L138.401 103.617C138.212 103.275 138.009 102.914 137.797 102.586H137.742C137.562 102.914 137.382 103.266 137.203 103.617L136.525 104.861H135.244L137.129 101.814Z" fill="#717071"/>
<path d="M141.709 101.944C141.709 100.002 143.055 98.874 144.589 98.874C145.331 98.874 145.87 99.1699 146.294 99.5444L145.691 100.34C145.373 100.053 145.045 99.8819 144.654 99.8819C143.668 99.8819 142.972 100.71 142.972 101.944C142.972 103.179 143.649 104.006 144.612 104.006C145.101 104.006 145.534 103.775 145.884 103.474L146.391 104.284C145.852 104.76 145.165 105.005 144.497 105.005C142.921 105.005 141.714 103.891 141.714 101.949L141.709 101.944Z" fill="#717071"/>
<path d="M148.387 103.493V96.4004H149.603V103.558C149.603 103.886 149.742 104.001 149.889 104.001C149.944 104.001 149.986 104.001 150.092 103.978L150.248 104.903C150.101 104.959 149.898 105 149.594 105C148.714 105 148.387 104.436 148.387 103.493Z" fill="#717071"/>
<path d="M151.996 103.313C151.996 102.06 153.056 101.413 155.48 101.149C155.471 100.469 155.227 99.873 154.369 99.873C153.756 99.873 153.185 100.15 152.687 100.469L152.231 99.6418C152.835 99.258 153.65 98.8789 154.581 98.8789C156.033 98.8789 156.697 99.8036 156.697 101.352V104.866H155.701L155.604 104.196H155.563C155.033 104.654 154.411 105.005 153.71 105.005C152.706 105.005 151.996 104.349 151.996 103.317V103.313ZM155.475 103.354V101.921C153.752 102.125 153.167 102.568 153.167 103.23C153.167 103.803 153.558 104.039 154.074 104.039C154.591 104.039 154.996 103.794 155.471 103.359L155.475 103.354Z" fill="#717071"/>
<path d="M159.213 99.022H160.208L160.305 99.8403H160.337C160.835 99.3086 161.416 98.874 162.135 98.874C163.001 98.874 163.489 99.2763 163.743 99.9467C164.314 99.3317 164.909 98.874 165.637 98.874C166.853 98.874 167.425 99.7016 167.425 101.19V104.866H166.208V101.343C166.208 100.335 165.89 99.9328 165.236 99.9328C164.835 99.9328 164.411 100.196 163.923 100.728V104.871H162.706V101.348C162.706 100.34 162.397 99.9374 161.734 99.9374C161.342 99.9374 160.909 100.201 160.429 100.733V104.875H159.213V99.0358V99.022Z" fill="#717071"/>
<path d="M169.637 103.313C169.637 102.06 170.697 101.413 173.121 101.149C173.111 100.469 172.867 99.873 172.01 99.873C171.397 99.873 170.826 100.15 170.328 100.469L169.872 99.6418C170.475 99.258 171.291 98.8789 172.222 98.8789C173.674 98.8789 174.337 99.8036 174.337 101.352V104.866H173.342L173.245 104.196H173.204C172.674 104.654 172.051 105.005 171.351 105.005C170.346 105.005 169.637 104.349 169.637 103.317V103.313ZM173.121 103.354V101.921C171.397 102.125 170.812 102.568 170.812 103.23C170.812 103.803 171.204 104.039 171.72 104.039C172.236 104.039 172.641 103.794 173.116 103.359L173.121 103.354Z" fill="#717071"/>
<path d="M176.862 102.952V100.002H176.014V99.0914L176.922 99.0267L177.06 97.4131H178.074V99.0267H179.585V100.002H178.074V102.966C178.074 103.669 178.318 104.029 178.922 104.029C179.124 104.029 179.378 103.965 179.544 103.891L179.765 104.792C179.438 104.899 179.046 105.005 178.622 105.005C177.309 105.005 176.857 104.187 176.857 102.957L176.862 102.952Z" fill="#717071"/>
<path d="M181.512 97.1998C181.512 96.7652 181.82 96.4785 182.263 96.4785C182.705 96.4785 183.023 96.7652 183.023 97.1998C183.023 97.6344 182.705 97.9303 182.263 97.9303C181.82 97.9303 181.512 97.6436 181.512 97.1998ZM181.659 99.0214H182.876V104.861H181.659V99.0214Z" fill="#717071"/>
<path d="M185.074 101.944C185.074 100.002 186.374 98.874 187.816 98.874C189.259 98.874 190.558 99.9975 190.558 101.944C190.558 103.891 189.254 105 187.816 105C186.378 105 185.074 103.886 185.074 101.944ZM189.309 101.944C189.309 100.714 188.738 99.8819 187.816 99.8819C186.895 99.8819 186.337 100.71 186.337 101.944C186.337 103.179 186.908 104.006 187.816 104.006C188.724 104.006 189.309 103.188 189.309 101.944Z" fill="#717071"/>
<path d="M192.779 99.022H193.775L193.871 99.8311H193.904C194.443 99.3086 195.037 98.874 195.83 98.874C197.07 98.874 197.618 99.7016 197.618 101.19V104.866H196.401V101.343C196.401 100.335 196.106 99.9328 195.415 99.9328C194.876 99.9328 194.507 100.21 193.996 100.728V104.871H192.779V99.0312V99.022Z" fill="#717071"/>
<path d="M203.457 97.0381H204.863L206.291 101C206.471 101.523 206.632 102.05 206.807 102.572H206.863C207.042 102.05 207.19 101.523 207.369 101L208.775 97.0381H210.194V104.861H209.052V100.996C209.052 100.293 209.148 99.2851 209.208 98.5731H209.167L208.545 100.376L207.19 104.103H206.429L205.065 100.376L204.452 98.5731H204.411C204.466 99.2851 204.558 100.293 204.558 100.996V104.861H203.457V97.0381Z" fill="#717071"/>
<path d="M212.59 103.313C212.59 102.06 213.65 101.413 216.074 101.149C216.064 100.469 215.82 99.873 214.963 99.873C214.35 99.873 213.779 100.15 213.281 100.469L212.825 99.6418C213.429 99.258 214.244 98.8789 215.175 98.8789C216.627 98.8789 217.29 99.8036 217.29 101.352V104.866H216.295L216.198 104.196H216.157C215.627 104.654 215.005 105.005 214.304 105.005C213.3 105.005 212.59 104.349 212.59 103.317V103.313ZM216.074 103.354V101.921C214.35 102.125 213.765 102.568 213.765 103.23C213.765 103.803 214.157 104.039 214.673 104.039C215.189 104.039 215.594 103.794 216.069 103.359L216.074 103.354Z" fill="#717071"/>
<path d="M219.807 99.022H220.802L220.899 100.072H220.931C221.346 99.3179 221.959 98.874 222.581 98.874C222.867 98.874 223.055 98.9156 223.235 99.0035L223.014 100.067C222.811 100.002 222.664 99.9698 222.433 99.9698C221.959 99.9698 221.387 100.298 221.028 101.223V104.866H219.811V99.0266L219.807 99.022Z" fill="#717071"/>
<path d="M224.932 96.4001H226.125V101.847H226.167L228.42 99.0217H229.775L227.807 101.398L229.996 104.861H228.674L227.098 102.217L226.125 103.34V104.857H224.932V96.3955V96.4001Z" fill="#717071"/>
<path d="M48.8655 62.6158C48.7963 62.5973 48.7272 62.5788 48.6581 62.5695C48.5798 62.5557 48.5705 62.588 48.6719 62.5695C48.6443 62.5695 48.5982 62.5603 48.5705 62.5603C48.506 62.5603 48.4369 62.5603 48.3724 62.5603C48.3632 62.5603 48.3539 62.5603 48.3401 62.5603C48.3217 62.5603 48.2986 62.5695 48.2802 62.5742C48.2433 62.5834 48.2065 62.5927 48.1696 62.6065C48.1051 62.6296 48.0959 62.6759 48.1834 62.5973C48.142 62.6389 48.059 62.6574 48.0083 62.6944C48.0037 62.7036 47.9899 62.7129 47.9761 62.7221C47.9576 62.7406 47.9346 62.7545 47.9346 62.7591C47.9346 62.7591 47.9254 62.7684 47.9208 62.773L47.4277 67.1283H36.9576L36.5014 63.1012C36.3355 62.9579 36.1696 62.81 35.9991 62.6713C35.9899 62.6666 35.9945 62.6666 35.9899 62.662C35.9899 62.662 35.9899 62.662 35.9807 62.6574C35.9484 62.6343 35.9208 62.6111 35.8885 62.588C35.8332 62.5464 35.7779 62.5094 35.718 62.4724C35.6166 62.4077 35.5014 62.3615 35.4 62.2968C35.3954 62.2968 35.3862 62.2968 35.3816 62.2921C35.3586 62.2829 35.3355 62.2783 35.3079 62.269C35.294 62.269 35.2802 62.2644 35.2664 62.2598C35.2572 62.2598 35.248 62.2598 35.2341 62.2598C35.2249 62.269 35.2157 62.2783 35.2065 62.2875C35.2065 62.2875 35.2065 62.2875 35.2019 62.2921C35.2019 62.2921 35.2019 62.3014 35.1973 62.3014C35.2664 62.3199 35.3355 62.343 35.4046 62.3615L36.8839 75.4137H47.506L48.953 62.6389C48.9254 62.6296 48.8931 62.6204 48.8655 62.6112V62.6158Z" fill="#5D97C4"/>
<path d="M32.8114 2.54314C15.9543 8.36414 9.22154 30.0854 19.4197 44.7373C21.6086 47.9553 24.5395 50.5907 26.8529 53.6515C29.2861 56.6105 31.0603 60.2122 33.6824 63.0048H50.4059C52.2722 61.0167 53.71 58.6125 55.3321 56.4256C57.8391 52.7406 61.3598 49.5781 64.2077 46.0227C67.8667 41.2743 69.9727 35.162 69.9773 28.9573V28.8139C70.1109 9.54314 50.7699 -4.08698 32.8114 2.53851V2.54314Z" fill="#2E59A6"/>
<path d="M170.508 68.6178C170.508 64.1931 173.72 61.123 178.125 61.123C182.531 61.123 185.747 64.1931 185.747 68.6178C185.747 73.0425 182.535 76.2604 178.125 76.2604C173.715 76.2604 170.508 73.0378 170.508 68.6178Z" fill="#2E59A6"/>
<path d="M168.082 18.1843L167.428 0H188.829L188.174 18.1843L184.893 52.7959H171.359L168.082 18.1843Z" fill="#5D97C4"/>
</g>
<defs>
<clipPath id="clip0_997_985">
<rect width="230" height="105" fill="white"/>
</clipPath>
</defs>
</svg>
