<svg width="200" height="113" viewBox="0 0 200 113" fill="none" xmlns="http://www.w3.org/2000/svg">
<g clip-path="url(#clip0_997_523)">
<path d="M9.13592 102.959C8.92393 104.24 8.3274 105.004 6.66106 105.448C6.58218 105.221 6.34061 104.881 6.1582 104.743C7.53367 104.423 8.03653 103.9 8.18936 102.954H6.42935V102.096H9.22466V100.967H7.00616V100.124H9.22466V99.0837H10.2649V100.124H12.5278V100.967H10.2649V102.096H13.0306V102.954H11.1967V103.732C11.1967 104.053 11.2114 104.161 11.4234 104.161H12.3404C12.5228 104.161 12.8433 104.132 13.0109 104.082C13.0257 104.309 13.0553 104.6 13.0701 104.817C12.932 104.876 12.6264 104.896 12.3503 104.896H11.2805C10.4867 104.896 10.3191 104.561 10.3191 103.718V102.954H9.12606L9.13592 102.959ZM6.24694 112.547C6.9963 111.95 7.71608 110.895 8.12527 109.905L9.18029 110.181C8.76617 111.206 8.06611 112.32 7.30196 113.01L6.24694 112.552V112.547ZM19.06 108.342C19.1685 108.342 19.2424 108.312 19.3065 108.248C19.3706 108.184 19.4002 108.036 19.4297 107.76C19.4593 107.454 19.4741 106.784 19.4741 105.911C19.6713 106.109 19.977 106.261 20.2531 106.34C20.2383 107.134 20.1742 108.081 20.115 108.406C20.0559 108.756 19.9326 108.958 19.765 109.076C19.5974 109.214 19.3509 109.274 19.1093 109.274H18.5128C18.2367 109.274 17.9606 109.18 17.7486 108.983C17.5514 108.8 17.4725 108.554 17.4725 107.514V102.209H16.0034C15.959 103.185 15.8654 104.087 15.7125 104.886C16.3386 105.345 16.9056 105.773 17.2852 106.094L16.7528 107.04C16.4323 106.749 15.9886 106.37 15.4858 105.985C15.0716 107.469 14.4012 108.662 13.2525 109.545C13.0996 109.298 12.7644 108.948 12.5179 108.795L12.6559 108.687C10.3783 108.914 8.04146 109.175 6.38991 109.343L6.28145 108.366C7.08997 108.307 8.10062 108.214 9.22959 108.105V106.715H6.7991V105.842H9.22959V104.743H10.2698V105.842H12.6559V106.715H10.2698V107.997C11.172 107.938 12.1038 107.829 13.006 107.735L13.0208 108.347C13.8293 107.553 14.3026 106.542 14.5934 105.305C14.1054 104.94 13.6173 104.585 13.1884 104.28L13.6912 103.471C14.0265 103.698 14.411 103.959 14.7906 104.235C14.8843 103.609 14.9435 102.919 14.973 102.204H13.3215V101.179H15.0174C15.0322 100.489 15.047 99.7739 15.047 99.0098H16.0872C16.0724 99.7739 16.0724 100.494 16.0428 101.179H18.5029V107.568C18.5029 107.952 18.5177 108.194 18.5621 108.273C18.6064 108.317 18.6853 108.332 18.7741 108.332H19.0501L19.06 108.342ZM11.734 110.176C11.9312 110.999 12.0841 112.069 12.0988 112.7L10.9847 112.853C10.9699 112.197 10.8614 111.112 10.679 110.269L11.734 110.176ZM14.8547 110.052C15.2393 110.861 15.6189 111.931 15.7569 112.591L14.6427 112.838C14.5195 112.167 14.1694 111.078 13.7997 110.255L14.8547 110.057V110.052ZM18.005 109.855C18.7395 110.679 19.5776 111.827 19.9622 112.591L18.848 113.005C18.4832 112.256 17.6697 111.063 16.9549 110.19L18.0099 109.855H18.005Z" fill="#717071"/>
<path d="M26.3757 101.327C25.6263 102.52 24.6945 103.56 23.7628 104.324C23.5804 104.097 23.181 103.654 22.9395 103.437C24.3445 102.396 25.6164 100.76 26.3461 99.0195L27.4455 99.3252C27.2778 99.7097 27.1102 100.06 26.913 100.425H36.2997V101.327H26.3806H26.3757ZM27.1694 109.791C26.4644 110.984 25.153 112.266 24.0043 112.912C23.8367 112.65 23.5163 112.3 23.2846 112.088C24.3987 111.571 25.6707 110.481 26.3264 109.446L27.1694 109.796V109.791ZM28.6829 108.983V112.971H27.5983V108.983H23.5015V108.066H27.5983V105.409H28.6829V108.066H32.6861V108.983H28.6829ZM34.3376 104.166C34.3228 108.889 34.4461 111.857 35.6687 111.857C35.9891 111.857 36.068 110.954 36.0976 109.638C36.3293 109.9 36.635 110.156 36.8766 110.309C36.7829 112.31 36.5413 112.971 35.6095 112.971C33.4847 112.971 33.2579 110.008 33.2234 105.068H24.4924V104.166H34.3376ZM25.3995 105.561C25.9024 106.143 26.4397 106.937 26.6222 107.489L25.72 107.868C25.5376 107.336 25.0495 106.523 24.5417 105.926L25.3995 105.561ZM26.0552 103.175V102.303H35.1363V103.175H26.0552ZM29.9696 109.471C30.9803 110.19 32.2177 111.231 32.8438 111.931L32.124 112.621C31.5423 111.916 30.3049 110.816 29.309 110.067L29.9647 109.471H29.9696ZM31.9071 105.956C31.355 106.675 30.7288 107.469 30.2408 107.987L29.5062 107.666C29.9647 107.085 30.576 106.182 30.8965 105.571L31.9071 105.956Z" fill="#717071"/>
<path d="M44.7648 109.84C43.0689 110.377 41.2645 110.939 39.8891 111.398L39.6426 110.299C40.1947 110.146 40.88 109.949 41.6442 109.717V105.497H39.9482V104.442H41.6442V101.124H39.8102V100.055H44.474V101.124H42.714V104.442H44.257V105.497H42.714V109.396L44.5923 108.8L44.7599 109.84H44.7648ZM53.4466 104.122C52.6528 105.221 51.6126 106.552 50.7844 107.41C51.4746 108.894 52.4507 110.023 53.905 111.033C53.6438 111.23 53.3381 111.566 53.1853 111.891C51.4746 110.624 50.3702 109.214 49.6554 107.291V111.57C49.6554 112.261 49.473 112.581 49.0589 112.763C48.6152 112.975 47.9299 113.01 46.7368 113.01C46.6777 112.704 46.4903 112.216 46.3227 111.911C47.2101 111.94 47.9891 111.925 48.2158 111.925C48.4623 111.911 48.5511 111.832 48.5511 111.575V107.967C47.2989 109.234 45.9973 110.491 44.9571 111.467L44.2521 110.491C45.2924 109.633 46.9735 108.134 48.5461 106.715V102.741H44.8487V101.686H48.5461V99.0439H49.6455V101.686H53.6487V102.741H49.6455V103.293C49.8427 104.516 50.0744 105.571 50.3949 106.488C51.1295 105.615 51.938 104.472 52.4458 103.599L53.4416 104.136L53.4466 104.122ZM45.953 103.678C46.6234 104.55 47.3432 105.729 47.6193 106.508L46.6875 106.951C46.4115 106.187 45.7262 104.965 45.0656 104.092L45.953 103.678ZM52.1894 101.479C51.8246 100.976 51.0604 100.271 50.385 99.7982L51.0407 99.2017C51.6964 99.6602 52.4951 100.331 52.8747 100.789L52.1845 101.479H52.1894Z" fill="#717071"/>
<path d="M165.061 101.095C164.725 101.903 164.188 102.579 163.532 103.126C164.356 103.614 165.292 103.969 166.283 104.196C166.057 104.393 165.766 104.777 165.628 105.039C164.573 104.748 163.597 104.304 162.724 103.722C161.915 104.24 160.964 104.624 159.958 104.945C159.835 104.733 159.529 104.348 159.317 104.151C160.293 103.905 161.181 103.569 161.945 103.126C161.486 102.741 161.087 102.303 160.752 101.859C160.476 102.15 160.219 102.411 159.929 102.653C159.791 102.485 159.529 102.209 159.317 102.012C159.209 103.648 159.105 104.304 158.844 104.58C158.676 104.777 158.459 104.856 158.124 104.886C157.897 104.9 157.419 104.915 156.916 104.871C156.902 104.689 156.857 104.472 156.778 104.245H154.486V104.703H153.663V102.791C153.451 103.017 153.219 103.219 152.943 103.431C152.79 103.234 152.499 102.958 152.287 102.85C153.145 102.238 153.692 101.46 153.998 100.769L154.885 100.907C154.841 101.016 154.777 101.134 154.747 101.243H159.347C159.347 101.243 159.347 101.504 159.332 101.622L159.317 101.775C160.19 101.085 160.969 100.079 161.427 99.0538L162.403 99.3151C162.265 99.6355 162.113 99.9264 161.93 100.232H165.948V101.09H165.061V101.095ZM154.727 100.345H152.662V99.6109H154.727V99.0439H155.659V100.804H154.727V100.345ZM152.77 112.482C153.288 111.98 153.825 111.137 154.161 110.54L155.077 110.999C154.713 111.625 154.22 112.468 153.702 113L152.77 112.482ZM157.266 104.136H157.681C157.848 104.136 157.957 104.136 158.045 104.028C158.169 103.846 158.257 103.308 158.336 101.933H154.333C154.21 102.1 154.087 102.268 153.953 102.436H157.271V104.131L157.266 104.136ZM165.642 109.579C165.642 109.579 165.613 109.855 165.583 109.993C165.401 111.659 165.233 112.379 164.913 112.67C164.701 112.882 164.454 112.961 164.104 112.99C163.784 113.005 163.187 113.005 162.546 112.961C162.532 112.714 162.438 112.394 162.3 112.137L162.147 112.216C161.965 111.832 161.536 111.285 161.151 110.885L161.93 110.55C162.33 110.93 162.753 111.452 162.97 111.802L162.374 112.108C162.926 112.167 163.414 112.167 163.611 112.167C163.809 112.167 163.947 112.152 164.04 112.044C164.208 111.876 164.346 111.418 164.484 110.333H154.456V105.196H164.607V105.96H160.19V106.725H164.04V107.38H160.19V108.144H164.09V108.8H160.19V109.579H165.647H165.642ZM156.423 103.007H154.481V103.698H156.423V103.007ZM155.536 105.955V106.72H159.095V105.955H155.536ZM159.1 107.375H155.541V108.139H159.1V107.375ZM155.536 109.579H159.095V108.8H155.536V109.579ZM157.064 110.816C157.276 111.398 157.478 112.177 157.523 112.68L156.547 112.862C156.502 112.344 156.335 111.561 156.133 110.969L157.064 110.816ZM157.695 100.986H156.764V99.0439H157.695V99.6109H159.776V100.36H157.695V100.986ZM159.529 110.757C159.879 111.245 160.2 111.935 160.338 112.394L159.436 112.685C159.312 112.211 158.992 111.506 158.657 111.004L159.529 110.757ZM161.314 101.139C161.679 101.676 162.172 102.15 162.734 102.593C163.266 102.164 163.68 101.676 163.986 101.095H161.358L161.314 101.139Z" fill="#717071"/>
<path d="M173.314 108.953H170.623V110.407H169.646V100.474H173.314V108.958V108.953ZM170.623 101.524V107.898H172.333V101.524H170.623ZM178.451 110.131C177.855 111.354 176.603 112.394 173.955 112.99C173.832 112.758 173.556 112.349 173.329 112.118C175.513 111.704 176.662 111.003 177.244 110.131H173.743V109.244H177.658C177.751 108.938 177.811 108.617 177.825 108.297H174.493V107.41H177.84V106.463H174.567V103.683H177.84V102.963H175.745V101.144H173.896V100.242H175.745V99.0488H176.756V100.242H179.935V99.0488H180.99V100.242H182.903V101.144H180.99V102.963H178.91V103.683H182.134V106.463H178.91V107.41H182.228V108.297H178.895C178.88 108.617 178.836 108.923 178.757 109.244H182.884V110.131H178.451ZM177.835 105.665V104.472H175.558V105.665H177.835ZM176.751 102.179H179.93V101.139H176.751V102.179ZM179.319 110.284C180.571 110.772 182.223 111.565 183.066 112.088L182.533 112.946C181.71 112.394 180.073 111.57 178.801 111.033L179.319 110.284ZM178.905 104.472V105.665H181.104V104.472H178.905Z" fill="#717071"/>
<path d="M190.825 107.44C190.825 107.44 190.81 107.745 190.795 107.898C190.583 110.831 190.366 111.995 189.972 112.409C189.745 112.685 189.484 112.774 189.085 112.808C188.779 112.838 188.183 112.838 187.586 112.793C187.556 112.502 187.463 112.103 187.31 111.847C187.892 111.891 188.459 111.906 188.671 111.906C188.902 111.906 189.035 111.876 189.159 111.753C189.405 111.507 189.588 110.59 189.77 108.361H186.684C186.896 107.706 187.098 106.759 187.266 105.901H185.949V104.891H191.436V105.901H188.242C188.148 106.419 188.03 106.971 187.936 107.444H190.825V107.44ZM191.071 103.693H186.669V99.69H191.071V103.693ZM190.169 100.548H187.542V102.84H190.169V100.548ZM193.103 105.911C193.103 108.006 192.891 110.984 191.56 113.005C191.377 112.823 190.963 112.502 190.702 112.379C191.954 110.501 192.092 107.868 192.092 105.897V102.032H195.089V99.0195H196.159V100.089H199.231V101.021H196.159V102.032H199.107L199.29 101.987L199.98 102.17C199.798 103.072 199.536 104.127 199.339 104.812L198.481 104.6C198.605 104.171 198.728 103.56 198.817 102.963H193.098V105.911H193.103ZM195.292 107.819C195.168 110.25 194.803 111.96 193.152 112.971C193.014 112.724 192.723 112.389 192.496 112.221C193.931 111.378 194.222 109.914 194.315 107.819H195.292ZM197.998 106.173C198.274 106.173 198.733 106.143 198.93 106.099C198.959 106.375 198.989 106.68 199.024 106.942C198.812 107.016 198.412 107.016 198.047 107.016H196.213C195.237 107.016 195.02 106.602 195.02 105.625V105.152L193.522 105.305L193.413 104.496L195.02 104.329V103.062H195.997V104.225L197.969 104.028L198.077 104.837L195.997 105.049V105.63C195.997 106.044 196.056 106.182 196.376 106.182H197.998V106.173ZM198.501 111.625C198.669 111.625 198.821 111.61 198.9 111.566C198.994 111.507 199.083 111.398 199.098 111.245C199.142 110.999 199.176 110.402 199.157 109.717C199.354 109.9 199.709 110.102 200 110.176C199.985 110.895 199.921 111.659 199.847 111.916C199.753 112.192 199.6 112.374 199.388 112.497C199.191 112.591 198.856 112.65 198.595 112.65H197.771C197.436 112.65 197.081 112.591 196.869 112.404C196.623 112.207 196.578 111.99 196.578 111.29V107.819H197.54V111.319C197.54 111.413 197.554 111.516 197.663 111.566C197.722 111.61 197.845 111.625 197.983 111.625H198.501Z" fill="#717071"/>
<path d="M36.6536 66.7634C36.5797 66.7437 36.5057 66.7239 36.4318 66.7141C36.348 66.6993 36.3381 66.7338 36.4466 66.7141C36.417 66.7141 36.3677 66.7042 36.3381 66.7042C36.2691 66.7042 36.1951 66.7042 36.1261 66.7042C36.1162 66.7042 36.1064 66.7042 36.0916 66.7042C36.0719 66.7042 36.0472 66.7141 36.0275 66.719C35.9881 66.7289 35.9486 66.7387 35.9092 66.7535C35.8402 66.7782 35.8303 66.8275 35.924 66.7437C35.8796 66.788 35.7909 66.8077 35.7366 66.8472C35.7317 66.857 35.7169 66.8669 35.7021 66.8768C35.6824 66.8965 35.6578 66.9113 35.6578 66.9162C35.6578 66.9162 35.6479 66.9261 35.643 66.931L35.1155 71.5748H23.9145L23.4264 67.281C23.249 67.1282 23.0715 66.9704 22.8891 66.8225C22.8792 66.8176 22.8841 66.8176 22.8792 66.8127C22.8792 66.8127 22.8792 66.8127 22.8693 66.8077C22.8348 66.7831 22.8053 66.7584 22.7707 66.7338C22.7116 66.6894 22.6524 66.65 22.5883 66.6106C22.4799 66.5415 22.3566 66.4922 22.2482 66.4232C22.2432 66.4232 22.2334 66.4232 22.2285 66.4183C22.2038 66.4084 22.1792 66.4035 22.1496 66.3936C22.1348 66.3936 22.12 66.3887 22.1052 66.3838C22.0953 66.3838 22.0855 66.3838 22.0707 66.3838C22.0608 66.3936 22.051 66.4035 22.0411 66.4134C22.0411 66.4134 22.0411 66.4134 22.0362 66.4183C22.0362 66.4183 22.0362 66.4282 22.0312 66.4282C22.1052 66.4479 22.1792 66.4725 22.2531 66.4922L23.8356 80.409H35.1993L36.7473 66.788C36.7177 66.7782 36.6832 66.7683 36.6536 66.7584V66.7634Z" fill="#5D97C4"/>
<path d="M19.4737 2.71138C1.44475 8.91795 -5.7629 32.078 5.14718 47.7053C7.48893 51.1364 10.6244 53.9464 13.0993 57.2099C15.7023 60.3649 17.6003 64.2052 20.4055 67.1828H38.2965C40.2931 65.063 41.8313 62.4995 43.5666 60.1678C46.2485 56.2387 50.0151 52.8668 53.0618 49.0758C56.9762 44.0129 59.2292 37.4958 59.2341 30.88V30.7272C59.3771 10.18 38.6859 -4.35297 19.4737 2.71138Z" fill="#2E59A6"/>
<path d="M166.787 73.163C166.787 68.4452 170.223 65.1719 174.936 65.1719C179.649 65.1719 183.091 68.4452 183.091 73.163C183.091 77.8808 179.654 81.3119 174.936 81.3119C170.218 81.3119 166.787 77.8759 166.787 73.163Z" fill="#2E59A6"/>
<path d="M164.188 19.3888L163.488 0H186.383L185.683 19.3888L182.178 56.2929H167.694L164.188 19.3888Z" fill="#5D97C4"/>
</g>
<defs>
<clipPath id="clip0_997_523">
<rect width="200" height="113" fill="white"/>
</clipPath>
</defs>
</svg>
