<svg width="777" height="167" viewBox="0 0 777 167" fill="none" xmlns="http://www.w3.org/2000/svg">
<g clip-path="url(#clip0_997_360)">
<path d="M551.081 41.1102V41.0602V41.0402V22.5902V22.5702V22.5202C548.181 21.4902 545.071 20.9102 541.821 20.9102C538.571 20.9102 535.461 21.5002 532.561 22.5202V22.5702V22.5902V41.0402V41.0602V41.1102C535.461 42.1402 538.571 42.7202 541.821 42.7202C545.071 42.7202 548.181 42.1302 551.081 41.1102Z" fill="#5D97C4"/>
<path d="M569.6 59.6805V59.6305V59.6105V41.1605V41.1405V41.0905C566.7 40.0605 563.59 39.4805 560.34 39.4805C557.09 39.4805 553.98 40.0705 551.08 41.0905V41.1405V41.1605V59.6105V59.6305V59.6805C553.98 60.7105 557.09 61.2905 560.34 61.2905C563.59 61.2905 566.7 60.7005 569.6 59.6805Z" fill="#2E59A6"/>
<path d="M551.081 78.1697V78.1197V78.0997V59.6497V59.6297V59.5797C548.181 58.5497 545.071 57.9697 541.821 57.9697C538.571 57.9697 535.461 58.5597 532.561 59.5797V59.6297V59.6497V78.0997V78.1197V78.1697C535.461 79.1997 538.571 79.7797 541.821 79.7797C545.071 79.7797 548.181 79.1897 551.081 78.1697Z" fill="#5D97C4"/>
<path d="M569.6 96.74V96.69V96.67V78.22V78.2V78.15C566.7 77.12 563.59 76.54 560.34 76.54C557.09 76.54 553.98 77.13 551.08 78.15V78.2V78.22V96.67V96.69V96.74C553.98 97.77 557.09 98.35 560.34 98.35C563.59 98.35 566.7 97.76 569.6 96.74Z" fill="#2E59A6"/>
<path d="M551.081 115.23V115.18V115.16V96.7103V96.6903V96.6403C548.181 95.6103 545.071 95.0303 541.821 95.0303C538.571 95.0303 535.461 95.6203 532.561 96.6403V96.6903V96.7103V115.16V115.18V115.23C535.461 116.26 538.571 116.84 541.821 116.84C545.071 116.84 548.181 116.25 551.081 115.23Z" fill="#5D97C4"/>
<path d="M588.12 41.1102V41.0602V41.0402V22.5902V22.5702V22.5202C585.22 21.4902 582.11 20.9102 578.86 20.9102C575.61 20.9102 572.5 21.5002 569.6 22.5202V22.5702V22.5902V41.0402V41.0602V41.1102C572.5 42.1402 575.61 42.7202 578.86 42.7202C582.11 42.7202 585.22 42.1302 588.12 41.1102Z" fill="#5D97C4"/>
<path d="M588.12 78.1697V78.1197V78.0997V59.6497V59.6297V59.5797C585.22 58.5497 582.11 57.9697 578.86 57.9697C575.61 57.9697 572.5 58.5597 569.6 59.5797V59.6297V59.6497V78.0997V78.1197V78.1697C572.5 79.1997 575.61 79.7797 578.86 79.7797C582.11 79.7797 585.22 79.1897 588.12 78.1697Z" fill="#5D97C4"/>
<path d="M588.12 115.23V115.18V115.16V96.7103V96.6903V96.6403C585.22 95.6103 582.11 95.0303 578.86 95.0303C575.61 95.0303 572.5 95.6203 569.6 96.6403V96.6903V96.7103V115.16V115.18V115.23C572.5 116.26 575.61 116.84 578.86 116.84C582.11 116.84 585.22 116.25 588.12 115.23Z" fill="#5D97C4"/>
<path d="M775.659 32.7904C775.019 31.7504 773.209 29.9704 772.339 29.5304C770.409 28.5404 766.669 28.1904 764.629 29.0204C763.759 29.3804 762.579 30.1904 761.809 30.7604C755.009 35.8204 747.299 42.2004 740.769 47.6804C730.709 56.1204 722.139 66.1304 712.869 75.3904L776.309 40.2904C777.149 37.8304 776.989 34.9804 775.659 32.7904Z" fill="#5D97C4"/>
<path d="M687.141 97.7103C687.141 97.7103 687.081 97.7303 687.051 97.7403L684.281 97.0203L683.241 95.7003L679.381 98.7303L683.441 103.91L684.721 105.55L688.781 110.73L692.641 107.7L691.671 106.47C691.651 106.34 691.631 106.21 691.591 106.07L691.551 103.43C699.981 96.6803 708.401 89.8803 717.461 83.9603C724.321 79.4803 731.781 75.4403 738.471 71.1003C751.101 62.9103 762.421 52.9803 774.211 43.6603C775.171 42.7403 775.851 41.5603 776.281 40.2803L712.841 75.3803C712.691 75.5303 712.551 75.6803 712.401 75.8303C704.481 83.7003 695.871 90.7703 687.121 97.7103H687.141Z" fill="#2E59A6"/>
<path d="M720.851 29.55L721.831 29.7C722.161 29.75 722.391 30.06 722.341 30.39C722.291 30.72 721.981 30.95 721.651 30.9L720.691 30.75C720.661 31.04 720.651 31.32 720.641 31.61L721.741 31.66C722.071 31.68 722.331 31.96 722.311 32.29C722.291 32.62 722.011 32.88 721.681 32.86L720.671 32.81C720.691 33.15 720.731 33.49 720.771 33.82L721.731 33.75C722.061 33.73 722.351 33.98 722.381 34.31C722.401 34.64 722.151 34.93 721.821 34.96L721.001 35.02C721.081 35.38 721.181 35.74 721.301 36.09L721.991 35.85C722.311 35.74 722.651 35.91 722.761 36.22C722.871 36.54 722.701 36.88 722.391 36.99L721.721 37.22C721.881 37.61 722.061 37.99 722.261 38.36L722.991 38.01C723.291 37.87 723.651 37.99 723.801 38.29C723.941 38.59 723.821 38.95 723.521 39.1L722.891 39.41C723.161 39.82 723.451 40.21 723.771 40.59L724.451 39.92C724.691 39.69 725.071 39.69 725.301 39.92C725.531 40.16 725.531 40.54 725.301 40.77L724.581 41.48C724.841 41.74 725.111 41.99 725.391 42.23L726.011 41.3C726.201 41.02 726.571 40.95 726.851 41.13C727.131 41.32 727.201 41.69 727.021 41.97L726.351 42.97C726.681 43.21 727.031 43.43 727.391 43.64C727.451 43.51 727.511 43.37 727.571 43.23C729.981 37.26 727.151 30.47 721.251 27.96C721.091 28.48 720.971 29 720.871 29.53L720.851 29.55Z" fill="#2E59A6"/>
<path d="M723.84 45.8298C723.84 45.8298 723.78 45.7997 723.75 45.7797C723.47 45.5897 723.4 45.2197 723.58 44.9397L724.3 43.8598C723.91 43.5398 723.55 43.1997 723.2 42.8497L722.36 43.6798C722.18 43.8598 721.91 43.8997 721.69 43.7997C721.62 43.7697 721.56 43.7297 721.5 43.6697C721.27 43.4297 721.27 43.0497 721.5 42.8197L722.37 41.9597C721.91 41.4197 721.5 40.8497 721.12 40.2597L719.75 40.9197C719.58 40.9997 719.4 40.9997 719.24 40.9197C719.11 40.8597 719 40.7598 718.94 40.6298C718.8 40.3298 718.92 39.9697 719.22 39.8197L720.5 39.1998C720.27 38.7598 720.06 38.3098 719.87 37.8598L718.34 38.3897C718.19 38.4397 718.03 38.4297 717.9 38.3697C717.75 38.2997 717.63 38.1797 717.57 38.0097C717.46 37.6897 717.63 37.3498 717.94 37.2398L719.44 36.7198C719.27 36.2098 719.13 35.6897 719.02 35.1597L717.49 35.2698C717.39 35.2698 717.29 35.2598 717.2 35.2198C717 35.1298 716.86 34.9397 716.84 34.7097C716.82 34.3797 717.07 34.0898 717.4 34.0598L718.81 33.9597C718.75 33.5497 718.72 33.1297 718.7 32.7097L717.25 32.6398C717.17 32.6398 717.1 32.6198 717.04 32.5898C716.82 32.4898 716.67 32.2597 716.68 32.0097C716.7 31.6797 716.98 31.4198 717.31 31.4398L718.68 31.5098C718.68 31.1598 718.71 30.7998 718.74 30.4498L717.4 30.2498C717.35 30.2498 717.29 30.2297 717.25 30.2097C717.01 30.0997 716.86 29.8398 716.9 29.5698C716.95 29.2398 717.26 29.0097 717.59 29.0597L718.91 29.2598C719.02 28.6298 719.17 27.9998 719.37 27.3698C714.54 26.1898 709.48 28.1897 706.76 32.2997C707.22 32.5597 707.65 32.8298 708.07 33.1298L708.71 32.2898C708.91 32.0198 709.29 31.9697 709.56 32.1697C709.78 32.3397 709.85 32.6298 709.76 32.8798C709.74 32.9298 709.71 32.9798 709.68 33.0198L709.04 33.8598C709.32 34.0898 709.59 34.3398 709.86 34.5898L710.59 33.8098C710.82 33.5698 711.2 33.5497 711.44 33.7797C711.63 33.9597 711.68 34.2198 711.59 34.4498C711.56 34.5198 711.52 34.5798 711.47 34.6398L710.7 35.4597C710.99 35.7797 711.26 36.1097 711.52 36.4597L712.35 35.7597C712.61 35.5497 712.99 35.5798 713.2 35.8298C713.35 36.0098 713.38 36.2498 713.3 36.4498C713.26 36.5398 713.21 36.6197 713.13 36.6897L712.22 37.4597C712.53 37.9397 712.81 38.4398 713.06 38.9498L714.18 38.4197C714.48 38.2797 714.84 38.4097 714.98 38.7097C715.05 38.8697 715.05 39.0397 714.99 39.1897C714.93 39.3297 714.83 39.4397 714.69 39.5097L713.55 40.0497C713.74 40.5197 713.9 40.9998 714.05 41.4898L715.07 41.1498C715.39 41.0398 715.73 41.2097 715.84 41.5297C715.89 41.6697 715.88 41.8198 715.83 41.9498C715.77 42.1098 715.64 42.2397 715.46 42.2997L714.35 42.6697C714.5 43.3897 714.6 44.1298 714.64 44.8798H715.54C715.87 44.8798 716.14 45.1598 716.14 45.4998C716.14 45.5798 716.12 45.6498 716.1 45.7198C716.01 45.9398 715.79 46.0997 715.53 46.0997H714.67C714.67 46.6097 714.63 47.1298 714.57 47.6498L715.53 47.8497C715.86 47.9197 716.07 48.2397 716 48.5697C716 48.6097 715.98 48.6397 715.97 48.6697C715.86 48.9397 715.58 49.0997 715.28 49.0297L714.38 48.8398C714.28 49.3498 714.15 49.8597 714 50.3697C718.78 51.4597 723.76 49.4498 726.45 45.3798C726.04 45.1398 725.64 44.8897 725.26 44.6197L724.58 45.6298C724.41 45.8798 724.1 45.9597 723.83 45.8497L723.84 45.8298Z" fill="#2E59A6"/>
<path d="M710.56 47.3903C710.63 47.0603 710.95 46.8503 711.28 46.9203L712.68 47.2203C712.72 46.8303 712.75 46.4403 712.75 46.0603H711.42C711.09 46.0503 710.82 45.7803 710.82 45.4403C710.82 45.1103 711.1 44.8403 711.43 44.8403H712.72C712.68 44.3203 712.61 43.7903 712.51 43.2803L711.52 43.6103C711.2 43.7203 710.86 43.5503 710.75 43.2303C710.64 42.9103 710.82 42.5703 711.13 42.4603L712.23 42.0903C712.11 41.6703 711.97 41.2603 711.82 40.8603L710.86 41.3103C710.56 41.4503 710.2 41.3203 710.06 41.0203C709.92 40.7203 710.05 40.3603 710.35 40.2203L711.33 39.7603C711.15 39.4003 710.96 39.0503 710.74 38.7103L709.84 39.4603C709.58 39.6703 709.2 39.6403 708.99 39.3903C708.78 39.1303 708.81 38.7503 709.06 38.5403L710.05 37.7103C709.84 37.4303 709.62 37.1503 709.39 36.8903L708.47 37.8703C708.24 38.1103 707.86 38.1303 707.62 37.9003C707.38 37.6703 707.36 37.2903 707.59 37.0503L708.55 36.0203C708.34 35.8203 708.11 35.6203 707.88 35.4303L707.11 36.4403C706.91 36.7103 706.53 36.7603 706.26 36.5603C705.99 36.3603 705.94 35.9803 706.14 35.7103L706.91 34.7003C706.56 34.4603 706.21 34.2303 705.83 34.0303C705.77 34.1703 705.7 34.3103 705.65 34.4603C703.22 40.4903 706.12 47.3503 712.14 49.8003C712.28 49.3503 712.39 48.9003 712.48 48.4503L711.01 48.1403C710.68 48.0703 710.47 47.7503 710.54 47.4203L710.56 47.3903Z" fill="#2E59A6"/>
<path d="M536.27 156.49C535.95 157.28 535.59 158.15 535.28 158.84H537.18V160.05H529.66V158.84H531.69C531.56 158.21 531.21 157.26 530.87 156.54L532.02 156.24C532.42 156.96 532.77 157.91 532.91 158.54L531.86 158.84H533.99C534.35 158.08 534.74 156.98 534.94 156.19L536.27 156.49ZM536.85 156.18H530.05V154.98H532.9C532.76 154.53 532.55 154.02 532.37 153.6L533.58 153.25C533.85 153.8 534.14 154.47 534.3 154.98H536.85V156.18ZM530.41 161.22H536.56V166.39H535.23V165.83H531.67V166.49H530.4V161.22H530.41ZM531.68 162.43V164.66H535.24V162.43H531.68ZM542.62 154.6C542.12 155.94 541.48 157.58 540.91 158.88C542.13 160.19 542.41 161.31 542.41 162.26C542.41 163.21 542.21 163.87 541.72 164.22C541.48 164.39 541.16 164.49 540.83 164.54C540.48 164.58 540.05 164.58 539.63 164.57C539.62 164.22 539.5 163.66 539.3 163.3C539.67 163.34 540.02 163.34 540.27 163.34C540.49 163.33 540.69 163.28 540.83 163.2C541.1 163.03 541.19 162.62 541.19 162.13C541.19 161.28 540.84 160.26 539.65 159.03C540.13 157.88 540.66 156.38 541 155.27H539.01V166.51H537.83V154.06H541.49L541.69 154L542.63 154.59L542.62 154.6Z" fill="#717071"/>
<path d="M547.42 161.56C546.89 161.16 545.79 160.49 545 160.03L545.78 159.14C546.54 159.53 547.67 160.15 548.24 160.54L547.42 161.56ZM545.27 165.49C546.05 164.68 547.21 163.33 548.12 162.06L548.93 163.04C548.11 164.18 547.13 165.49 546.24 166.53L545.27 165.49ZM548.3 155.45H545.32V154.25H548.3V153.34H549.61V154.25H551.25V155.45H549.61V156.53H548.3V155.45ZM546.7 156.36C547.45 156.78 548.57 157.41 549.15 157.76L548.36 158.77C547.81 158.41 546.69 157.73 545.94 157.26L546.7 156.37V156.36ZM557.3 157.62C556.7 158.59 555.82 159.42 554.78 160.13C555.9 160.62 557.19 161.02 558.42 161.24C558.15 161.5 557.8 162 557.63 162.35C556.25 162.03 554.85 161.52 553.6 160.84C552.55 161.42 551.38 161.89 550.23 162.22H556.83V166.56H555.52V165.97H551.3V166.56H550.03V162.28C549.77 162.37 549.51 162.42 549.25 162.5C549.11 162.17 548.82 161.68 548.57 161.41C549.85 161.16 551.21 160.72 552.44 160.14C551.89 159.78 551.4 159.38 550.97 158.96C550.52 159.42 550.02 159.87 549.47 160.28C549.24 160.01 548.82 159.65 548.52 159.47C549.97 158.49 551.08 157.18 551.72 156.13L553.03 156.39C552.86 156.65 552.68 156.89 552.51 157.15H556.23L556.46 157.09L557.3 157.62ZM551.29 163.27V164.91H555.51V163.27H551.29ZM551.73 158.17C552.21 158.66 552.85 159.12 553.59 159.52C554.27 159.13 554.87 158.65 555.35 158.17H551.73ZM553.54 155.42H551.97V154.25H553.54V153.34H554.84V154.25H557.89V155.42H554.84V156.54H553.54V155.42Z" fill="#717071"/>
<path d="M573.54 164.18V165.52H560.65V164.18H566.28V156.29H561.41V154.91H572.79V156.29H567.78V164.18H573.54Z" fill="#717071"/>
<path d="M587.99 160.82C588.08 160.82 588.16 160.81 588.21 160.76C588.27 160.73 588.31 160.64 588.33 160.49C588.36 160.33 588.37 159.93 588.39 159.45C588.59 159.61 588.89 159.77 589.17 159.84C589.14 160.36 589.1 160.95 589.03 161.17C588.96 161.37 588.83 161.53 588.66 161.62C588.52 161.72 588.27 161.76 588.06 161.76H587.47C587.2 161.76 586.91 161.67 586.72 161.49C586.53 161.3 586.46 161.07 586.46 160.28V157.8H585.47C585.44 158.22 585.38 158.68 585.25 159.12C585.71 159.39 586.1 159.68 586.37 159.93L585.72 160.77C585.52 160.55 585.22 160.32 584.87 160.09C584.5 160.78 583.92 161.46 582.98 162.03C582.86 161.9 582.68 161.73 582.5 161.55C580.3 161.72 578.03 161.88 576.42 161.95L576.35 161.14C577.07 161.11 577.95 161.05 578.94 161.01V160.4H576.97V159.68H578.94V158.96H579.98C579.92 158.8 579.91 158.61 579.91 158.36V158.16H578.83C578.6 158.95 578.02 159.41 576.65 159.67C576.56 159.47 576.35 159.17 576.17 159.02C577.22 158.86 577.71 158.62 577.91 158.16H576.41V157.43H578.93V156.93H577.09V156.21H578.93V155.79H580.05V156.21H581.88V156.93H580.05V157.43H582.56V158.16H580.75V158.39C580.75 158.64 580.76 158.72 580.97 158.72H581.66C581.82 158.72 582.12 158.71 582.28 158.65C582.31 158.87 582.32 159.1 582.35 159.31C582.19 159.37 581.9 159.37 581.67 159.37H580.75C580.4 159.37 580.19 159.3 580.06 159.14V159.69H582.09V160.41H580.06V160.97L582.54 160.83V161.09C583.22 160.59 583.66 160.05 583.94 159.49C583.52 159.26 583.08 159.03 582.66 158.84L583.25 158.11C583.58 158.24 583.94 158.41 584.29 158.59C584.36 158.32 584.41 158.06 584.42 157.8H582.89V156.82H584.43V155.9H585.47V156.82H587.53V160.31C587.53 160.57 587.53 160.71 587.57 160.76C587.6 160.82 587.66 160.83 587.73 160.83H588L587.99 160.82ZM576.16 163.59H588.94V164.4H585.6C586.65 164.88 587.79 165.6 588.44 166.13L587.52 166.75C587.28 166.53 586.97 166.3 586.6 166.04C578.79 166.39 577.94 166.4 577.37 166.56C577.3 166.37 577.11 165.88 576.98 165.64C577.27 165.6 577.58 165.48 577.96 165.31C578.25 165.18 578.91 164.85 579.62 164.4H576.18V163.59H576.16ZM579.52 155.19H576.29V154.23H579.52V153.34H580.82V154.23H582.38V155.19H580.82V155.75H579.52V155.19ZM587.24 162.18V162.99H577.95V162.18H587.24ZM585.32 165.26C584.99 165.07 584.63 164.9 584.31 164.76L584.93 164.4H581.4C580.81 164.79 580.19 165.15 579.59 165.47L585.32 165.27V165.26ZM584.26 155.19H582.83V154.23H584.26V153.34H585.57V154.23H588.88V155.19H585.57V155.75H584.26V155.19Z" fill="#717071"/>
<path d="M706.761 161.11C706.591 160.66 706.231 159.93 705.881 159.28V166.57H704.701V160.61C704.331 161.89 703.851 163.1 703.351 163.91C703.221 163.53 702.931 163 702.721 162.69C703.481 161.54 704.201 159.43 704.531 157.63H703.081V156.39H704.711V153.36H705.891V156.39H707.301V157.63H705.891V157.72C706.181 158.08 707.241 159.75 707.491 160.14L706.771 161.12L706.761 161.11ZM713.891 159.32C714.451 160.28 715.321 161.19 716.181 161.7C715.911 161.9 715.521 162.32 715.331 162.61C714.311 161.89 713.341 160.61 712.751 159.33H710.571C710.251 159.93 709.861 160.51 709.431 161.03H710.901V159.79H712.201V161.03H713.651V162.1H712.201V163.25H714.861V164.37H712.201V166.57H710.901V164.37H707.901V163.25H710.901V162.1H709.171V161.34C708.691 161.86 708.161 162.33 707.531 162.75C707.401 162.43 707.081 161.91 706.871 161.66C707.811 161.04 708.541 160.25 709.131 159.34H707.401V158.26H709.761C709.891 157.97 710.021 157.67 710.131 157.37H708.131V156.35H710.491C710.561 156.08 710.651 155.8 710.721 155.52H707.711V154.47H710.951C711.021 154.11 711.081 153.73 711.141 153.38L712.441 153.58C712.381 153.88 712.321 154.17 712.271 154.47H715.371V155.52H712.031C711.961 155.81 711.891 156.08 711.801 156.35H714.971V157.37H711.471C711.351 157.67 711.241 157.96 711.121 158.26H715.701V159.34H713.891V159.32Z" fill="#717071"/>
<path d="M731.3 158.3C730.54 159.31 729.61 160.49 728.87 161.27C729.5 162.6 730.38 163.59 731.68 164.5C731.38 164.75 731 165.16 730.86 165.54C729.45 164.47 728.48 163.31 727.81 161.79V165C727.81 165.72 727.64 166.1 727.21 166.31C726.76 166.54 726.09 166.58 724.98 166.58C724.92 166.23 724.69 165.64 724.52 165.3C725.3 165.33 725.99 165.31 726.21 165.31C726.44 165.3 726.53 165.22 726.53 164.99V162.05C725.42 163.16 724.28 164.24 723.33 165.1L722.51 163.93L722.71 163.77C721.23 164.26 719.67 164.75 718.46 165.12L718.17 163.84C718.67 163.71 719.31 163.52 719.98 163.32V159.57H718.44V158.33H719.98V155.46H718.34V154.22H722.79V155.46H721.22V158.33H722.57V159.57H721.22V162.94L722.86 162.44L723.03 163.51C723.98 162.75 725.29 161.64 726.52 160.59V156.97H723.11V155.73H726.52V153.34H727.82V155.73H731.46V156.97H727.82V157.56C727.98 158.54 728.18 159.38 728.42 160.12C729.04 159.36 729.72 158.42 730.15 157.67L731.32 158.28L731.3 158.3ZM724.28 157.78C724.88 158.57 725.53 159.64 725.78 160.34L724.67 160.87C724.45 160.15 723.83 159.06 723.24 158.23L724.28 157.77V157.78ZM730.04 155.74C729.69 155.28 728.97 154.62 728.37 154.17L729.12 153.48C729.74 153.9 730.49 154.52 730.85 154.95L730.04 155.74Z" fill="#717071"/>
<path d="M736.291 158.16C736.291 160.51 736.091 163.98 734.791 166.27C734.551 166.05 733.951 165.71 733.641 165.59C734.861 163.44 734.971 160.35 734.971 158.16V154.07H746.701V155.29H736.301V158.16H736.291ZM739.691 162.94C738.971 164.01 737.981 165.22 737.181 165.99C736.921 165.77 736.391 165.43 736.061 165.26C736.901 164.54 737.801 163.47 738.411 162.52L739.691 162.94ZM742.141 161.93V165.17C742.141 165.82 742.021 166.16 741.551 166.35C741.081 166.54 740.351 166.55 739.291 166.55C739.231 166.19 739.061 165.7 738.901 165.37C739.651 165.38 740.371 165.38 740.571 165.38C740.791 165.37 740.841 165.31 740.841 165.13V161.92H737.431V156.58H740.121C740.321 156.16 740.491 155.73 740.611 155.38L742.191 155.6C741.991 155.93 741.801 156.26 741.601 156.58H745.621V161.92H742.131L742.141 161.93ZM738.741 158.78H744.261V157.63H738.741V158.78ZM738.741 160.89H744.261V159.74H738.741V160.89ZM744.191 162.52C745.011 163.41 746.151 164.64 746.731 165.39L745.591 166.07C745.071 165.31 743.951 164.03 743.141 163.1L744.191 162.52Z" fill="#717071"/>
<path d="M753.721 159.53C753.261 162.76 752.121 164.99 749.931 166.4C749.811 166.17 749.451 165.71 749.221 165.49C750.651 164.67 751.571 163.4 752.121 161.72C750.221 162.02 749.861 162.09 749.611 162.22C749.551 161.99 749.371 161.44 749.241 161.14C749.541 161.08 749.831 160.74 750.191 160.23C750.411 159.96 750.851 159.25 751.361 158.37C750.161 158.5 749.861 158.59 749.671 158.67C749.601 158.42 749.411 157.84 749.271 157.53C749.501 157.49 749.701 157.2 749.921 156.81C750.151 156.42 750.891 154.94 751.251 153.53L752.501 153.83C752.051 155.08 751.431 156.35 750.831 157.36L751.951 157.27C752.151 156.84 752.371 156.39 752.551 155.96L753.641 156.41C752.891 157.95 751.941 159.56 750.981 160.82L752.411 160.65C752.501 160.25 752.571 159.83 752.631 159.4L753.721 159.53ZM756.791 161.74C757.341 162.95 757.911 164.52 758.121 165.49L756.981 165.92C756.921 165.62 756.851 165.24 756.721 164.84C754.241 165.68 753.841 165.83 753.591 166.01C753.521 165.75 753.321 165.29 753.141 165.07C753.411 164.95 753.791 164.68 753.791 164.11V154.81H755.261C755.071 154.45 754.841 154.07 754.641 153.76L755.681 153.37C756.031 153.8 756.361 154.36 756.561 154.81H757.651V161.26H754.961V164.28L756.401 163.83C756.201 163.24 755.971 162.63 755.741 162.1L756.791 161.74ZM754.961 155.94V157.52H756.571V155.94H754.961ZM756.571 160.12V158.61H754.961V160.12H756.571ZM762.451 154.56C762.021 155.91 761.471 157.6 761.001 158.88C762.011 160.21 762.251 161.33 762.251 162.31C762.261 163.22 762.061 163.91 761.661 164.24C761.431 164.4 761.161 164.5 760.841 164.54C760.571 164.57 760.211 164.57 759.851 164.55C759.851 164.22 759.761 163.69 759.581 163.35C759.881 163.38 760.161 163.38 760.371 163.38C760.541 163.37 760.701 163.32 760.821 163.22C761.051 163.06 761.121 162.64 761.121 162.14C761.121 161.29 760.861 160.25 759.871 159C760.271 157.86 760.691 156.36 760.991 155.24H759.411V166.53H758.291V154.06H761.421L761.621 154L762.471 154.55L762.451 154.56Z" fill="#717071"/>
<path d="M226.889 161.38H223.419V166.57H222.089V161.38H218.579V160.34L217.959 161.08C217.769 160.68 217.429 160 217.079 159.41V166.57H215.769V160.58C215.349 161.85 214.819 163.03 214.289 163.81C214.149 163.44 213.839 162.83 213.609 162.48C214.499 161.36 215.339 159.21 215.769 157.38V157.31H213.879V156.07H215.769V153.36H217.079V156.07H218.719V157.31H217.079V157.77C217.449 158.22 218.549 159.71 218.789 160.09H218.779L222.089 160.1V156.83H220.589C220.269 157.64 219.879 158.34 219.449 158.9C219.179 158.73 218.559 158.41 218.209 158.28C219.219 157.14 219.879 155.27 220.229 153.34L221.559 153.56C221.429 154.24 221.259 154.9 221.069 155.53H226.499V156.83H223.419V160.1H226.889V161.38Z" fill="#717071"/>
<path d="M241.649 154.92V166.49H240.209V165.48H231.479V166.57H230.039V155.32C231.649 154.82 233.429 154.02 234.549 153.35L235.569 154.56C234.399 155.15 232.909 155.71 231.479 156.16V159.37H235.069V160.72H231.479V164.09H240.209V160.72H236.349V159.37H240.209V156.27H236.259V154.92H241.649Z" fill="#717071"/>
<path d="M41.5602 163.72C41.0702 163.37 40.2302 162.94 39.4102 162.55C39.6802 164.13 40.2602 165.26 41.4102 165.34C41.6102 165.37 41.7102 164.82 41.8002 163.94C42.0302 164.23 42.3502 164.54 42.5902 164.7C42.4002 166.18 41.9602 166.72 41.1102 166.56C38.6602 166.26 38.1302 163.69 37.9602 160.61H36.0402V166.4H34.7402V160.61H32.6402C32.5402 162.63 32.0802 164.8 30.1802 166.5C29.9502 166.21 29.4902 165.79 29.1602 165.59C30.8502 164.12 31.2602 162.32 31.3602 160.61H29.4202V159.39H31.3902V157.66C30.9402 157.76 30.4702 157.86 30.0402 157.95C29.9702 157.66 29.7502 157.24 29.5802 156.97C31.0302 156.67 32.6302 156.19 33.6402 155.66L34.6502 156.68C34.0602 156.92 33.3702 157.14 32.6602 157.34V159.39H34.7502V155.67H36.0502V159.39H39.1602C39.1702 160.07 39.2002 160.74 39.2602 161.38L39.5302 161.5C40.0302 161.08 40.6102 160.52 40.9402 160.15L42.0902 160.73C41.5702 161.13 41.0102 161.56 40.5202 161.91C41.2002 162.21 41.8302 162.53 42.2602 162.8L41.5502 163.72H41.5602ZM41.4602 157.59C40.9702 157.27 40.1502 156.87 39.3102 156.52C39.6402 157.73 40.2602 158.62 41.3602 158.71C41.5502 158.74 41.6502 158.33 41.7202 157.63C41.9602 157.89 42.2702 158.19 42.5102 158.35C42.3202 159.56 41.8602 160.01 41.0802 159.88C38.8502 159.61 38.1402 157.62 37.8402 155.26H30.2102V154.05H38.9402C38.9702 154.48 39.0002 154.93 39.0702 155.33L39.4202 155.46C39.9002 155 40.4702 154.41 40.8002 153.98L41.9202 154.56C41.4202 154.99 40.8702 155.47 40.3802 155.83C41.0602 156.12 41.7102 156.41 42.1502 156.68L41.4602 157.6V157.59Z" fill="#717071"/>
<path d="M44.7109 165.91C45.5009 165.32 46.2709 164.25 46.7009 163.19L47.9809 163.55C47.5309 164.69 46.7809 165.88 45.9309 166.6L44.7109 165.91ZM46.5409 157.94C46.3009 158.14 46.0409 158.34 45.7609 158.53C45.5409 158.2 45.1109 157.72 44.7909 157.51C46.6909 156.3 48.0609 154.63 48.8109 153.28L50.2909 153.58C50.1609 153.8 50.0209 154.03 49.8709 154.24H52.8209L53.0209 154.17L53.9609 154.75C53.6709 155.34 53.2109 156.02 52.7609 156.59H56.3609V162.7H46.5209V157.95L46.5409 157.94ZM47.8409 159.11H50.6909V157.73H47.8409V159.11ZM47.8409 161.57H50.6909V160.16H47.8409V161.57ZM49.1109 155.3C48.7809 155.73 48.4009 156.16 48.0209 156.58H51.1509C51.4809 156.21 51.8309 155.75 52.1009 155.3H49.1209H49.1109ZM50.3709 163.5C50.5709 164.38 50.7309 165.55 50.7409 166.24L49.3709 166.4C49.3709 165.69 49.2509 164.51 49.0809 163.61L50.3609 163.51L50.3709 163.5ZM53.1209 163.37C53.5409 164.22 53.9809 165.34 54.1609 166.06L52.8609 166.38C52.7209 165.67 52.3009 164.51 51.8909 163.64L53.1109 163.37H53.1209ZM55.0309 157.72H51.9909V159.1H55.0309V157.72ZM55.0309 160.16H51.9909V161.57H55.0309V160.16ZM55.8909 163.04C56.6809 163.92 57.6509 165.13 58.0709 165.98L56.7609 166.57C56.3909 165.76 55.4809 164.48 54.6709 163.56L55.8909 163.04Z" fill="#717071"/>
<path d="M65.1598 163.56L65.2898 164.68C63.6298 165.14 61.8998 165.59 60.5698 165.95L60.3398 164.71L60.7698 164.62V159.65H61.7598V164.39L62.4798 164.22V158.33H60.8398V153.94H64.8898V158.33H63.5398V160.36H65.0698V161.48H63.5398V163.96L65.1698 163.56H65.1598ZM61.8798 157.23H63.8098V155.03H61.8798V157.23ZM73.3598 166.06H67.3198V166.58H66.1198V162.37C65.8798 162.69 65.6398 162.99 65.3998 163.26C65.2798 162.96 65.0298 162.38 64.8398 162.09C65.6598 161.15 66.4698 159.68 66.8898 158.55L67.0198 158.61C66.9598 158.35 66.8598 158.09 66.7598 157.89C67.2598 157.9 67.7398 157.9 67.8798 157.9C68.0398 157.89 68.0798 157.86 68.0798 157.71V154.66H65.3598V153.69H69.1298V157.71C69.1298 158.21 69.0398 158.44 68.6998 158.62C68.4298 158.74 68.0398 158.76 67.4998 158.78L68.0898 159C67.9698 159.25 67.8498 159.5 67.7198 159.76H69.3598C69.2398 159.44 69.1198 159.13 68.9898 158.85L70.1098 158.55C70.3098 158.93 70.4998 159.39 70.6598 159.76H73.2398V160.78H70.6998V161.59H72.8498V162.5H70.6998V163.29H72.8498V164.2H70.6998V165.04H73.3498V166.06H73.3598ZM65.3898 157.38C65.9898 157.11 66.8298 156.67 67.7098 156.24L67.9498 156.98C67.2698 157.41 66.5698 157.83 65.9298 158.2L65.3798 157.38H65.3898ZM66.0398 154.81C66.5398 155.01 67.2498 155.36 67.6398 155.59L67.1198 156.3C66.7698 156.05 66.0698 155.68 65.5398 155.43L66.0398 154.81ZM69.4898 160.79H67.3298V161.6H69.4898V160.79ZM69.4898 162.51H67.3298V163.3H69.4898V162.51ZM67.3198 165.04H69.4798V164.2H67.3198V165.04ZM71.9498 156.98C71.2898 157.37 70.5998 157.79 69.9598 158.15L69.4298 157.33C70.0298 157.07 70.8598 156.65 71.7098 156.21L71.9498 156.99V156.98ZM72.0298 154.67H69.4798V153.69H73.0798V157.87C73.0798 158.37 72.9798 158.61 72.6298 158.76C72.2798 158.91 71.7698 158.92 70.9998 158.92C70.9698 158.65 70.8298 158.3 70.7098 158.06C71.2098 158.07 71.6798 158.07 71.8298 158.06C71.9698 158.06 72.0198 158.02 72.0198 157.87V154.67H72.0298ZM71.1598 156.36C70.8098 156.12 70.1498 155.73 69.6198 155.48L70.1398 154.86C70.6298 155.06 71.3098 155.42 71.6698 155.65L71.1698 156.36H71.1598Z" fill="#717071"/>
<path d="M80.0395 164.57C80.8295 164.84 81.8295 164.92 83.0495 164.92C83.9295 164.93 88.0295 164.93 89.0895 164.89C88.8895 165.19 88.6595 165.8 88.5695 166.22H83.0695C80.1995 166.22 78.4995 165.8 77.4195 164.02C77.2495 165.06 76.9995 165.98 76.6395 166.73C76.3995 166.56 75.8195 166.27 75.5195 166.12C76.2995 164.68 76.4395 162.36 76.4895 159.85L77.7395 159.95C77.7295 160.61 77.6995 161.25 77.6495 161.87C77.9395 162.76 78.3095 163.41 78.7995 163.87V158.84H75.8595V157.66H78.4995V156.06H76.2395V154.88H78.4995V153.38H79.7795V154.88H81.9995V156.06H79.7795V157.66H82.3695V158.84H80.0395V160.73H82.2295V161.9H80.0395V164.58V164.57ZM84.7695 163.88C83.3395 163.88 82.8995 163.5 82.8995 161.95V154.2H88.2195V159.34H84.1995V161.95C84.1995 162.57 84.3195 162.67 84.9295 162.67H87.0595C87.5895 162.67 87.6795 162.38 87.7495 161.03C88.0495 161.25 88.5595 161.45 88.9295 161.53C88.7895 163.32 88.3995 163.88 87.1595 163.88H84.7695ZM84.1895 155.38V158.15H86.9095V155.38H84.1895Z" fill="#717071"/>
<path d="M375.74 164.25V165.6H363.35V164.25H375.74ZM374.98 154.72V156.09H364.18V154.72H374.98ZM373.86 159.34V160.71H365.12V159.34H373.86Z" fill="#717071"/>
<path d="M390.391 155.02C389.551 158.26 388.071 160.75 386.141 162.63C387.651 163.77 389.511 164.6 391.741 165.08C391.441 165.37 391.051 165.96 390.861 166.32C388.531 165.76 386.611 164.84 385.041 163.58C383.331 164.96 381.321 165.94 379.161 166.58C379.001 166.23 378.611 165.6 378.311 165.34C380.431 164.78 382.371 163.9 384.031 162.66C382.301 160.92 381.081 158.68 380.201 156.01L380.301 155.98H379.251V154.65H389.281L389.471 154.59L390.391 155.02ZM381.571 155.97C382.331 158.27 383.491 160.22 385.101 161.76C386.681 160.28 387.921 158.39 388.691 155.97H381.571ZM385.591 159.54C385.161 158.92 384.241 157.98 383.441 157.34L384.361 156.56C385.141 157.18 386.121 158.06 386.561 158.68L385.581 159.54H385.591Z" fill="#717071"/>
<path d="M393.869 165.91C394.659 165.32 395.429 164.25 395.859 163.19L397.139 163.55C396.689 164.69 395.939 165.88 395.089 166.6L393.869 165.91ZM395.699 157.94C395.459 158.14 395.199 158.34 394.919 158.53C394.699 158.2 394.269 157.72 393.949 157.51C395.849 156.3 397.219 154.63 397.969 153.28L399.449 153.58C399.319 153.8 399.179 154.03 399.029 154.24H401.979L402.179 154.17L403.119 154.75C402.829 155.34 402.369 156.02 401.919 156.59H405.519V162.7H395.679V157.95L395.699 157.94ZM396.999 159.11H399.849V157.73H396.999V159.11ZM396.999 161.57H399.849V160.16H396.999V161.57ZM398.269 155.31C397.939 155.74 397.559 156.17 397.179 156.59H400.309C400.639 156.22 400.989 155.76 401.259 155.31H398.279H398.269ZM399.529 163.5C399.729 164.38 399.889 165.55 399.899 166.24L398.529 166.4C398.529 165.69 398.409 164.51 398.239 163.61L399.519 163.51L399.529 163.5ZM402.279 163.37C402.699 164.22 403.139 165.34 403.319 166.06L402.019 166.38C401.879 165.67 401.459 164.51 401.049 163.64L402.269 163.37H402.279ZM404.189 157.73H401.149V159.11H404.189V157.73ZM404.189 160.16H401.149V161.57H404.189V160.16ZM405.049 163.04C405.839 163.92 406.809 165.13 407.229 165.98L405.919 166.57C405.549 165.76 404.639 164.48 403.829 163.56L405.049 163.04Z" fill="#717071"/>
<path d="M414.181 165.04C412.641 165.4 411.011 165.8 409.741 166.09L409.441 164.89C409.971 164.79 410.641 164.66 411.371 164.52V160.59H409.531V159.45H411.371V158.08H410.281V157.36C410.081 157.58 409.891 157.75 409.691 157.94C409.631 157.67 409.391 156.96 409.211 156.64C410.161 155.83 411.081 154.59 411.631 153.33L412.681 153.69C412.611 153.85 412.541 154.01 412.451 154.15C413.211 154.83 414.111 155.63 414.571 156.15L413.861 157.04L413.831 157.01V158.08H412.421V159.45H414.211V160.59H412.421V164.31C412.951 164.21 413.511 164.09 414.081 163.98L414.181 165.05V165.04ZM410.461 161.3C410.681 162.09 410.911 163.16 411.011 163.84L410.151 164.07C410.081 163.36 409.861 162.3 409.661 161.48L410.471 161.31L410.461 161.3ZM413.791 156.96C413.361 156.46 412.621 155.75 411.951 155.12C411.561 155.78 411.101 156.4 410.641 156.96H413.791ZM412.641 163.65C412.811 162.96 413.041 161.86 413.141 161.13L414.031 161.38C413.811 162.21 413.571 163.22 413.351 163.87L412.631 163.65H412.641ZM417.031 163.63C416.511 164.61 415.691 165.62 414.971 166.27C414.731 166.07 414.261 165.72 413.961 165.56C414.711 164.98 415.441 164.13 415.861 163.28L417.031 163.63ZM416.901 155.05H414.441V153.97H422.511V155.05H419.951V155.86H422.251V159.27H414.751V155.86H416.911V155.05H416.901ZM419.061 162.84V166.57H417.861V162.84H414.451V161.77H422.551V162.84H419.061ZM415.351 160.95V159.9H421.621V160.95H415.351ZM415.841 158.27H416.911V156.84H415.841V158.27ZM418.951 155.05H417.901V155.86H418.951V155.05ZM417.901 158.27H418.951V156.84H417.901V158.27ZM420.811 163.23C421.531 163.94 422.291 164.89 422.681 165.53L421.641 166.15C421.291 165.49 420.521 164.48 419.831 163.77L420.811 163.22V163.23ZM419.941 156.85V158.28H421.081V156.85H419.941Z" fill="#717071"/>
<path d="M219.4 87.9004C225.38 88.8104 234.12 89.1403 243.93 86.3103C253.2 73.2203 249.91 49.6504 249.91 49.6504C249.91 45.9004 240.18 42.8604 228.18 42.8604C216.18 42.8604 206.45 45.9004 206.45 49.6504C206.45 49.6504 203.15 73.3404 212.5 86.4104C214.41 86.9604 216.74 87.5004 219.4 87.9104V87.9004Z" fill="#5D97C4"/>
<path d="M243.819 88.7803C238.079 90.3803 232.709 90.9303 228.029 90.9303C224.649 90.9303 221.629 90.6403 219.089 90.2503C216.559 89.8603 214.329 89.3603 212.459 88.8403C210.639 90.7703 206.119 96.9303 205.869 110.74C205.869 110.74 209.089 119.99 228.169 120.32C247.249 119.99 250.469 110.74 250.469 110.74C250.219 96.7703 245.589 90.6303 243.819 88.7803Z" fill="#5D97C4"/>
<path d="M236.69 52.1102L240.57 38.9102L244.51 36.4302L253.54 5.67017C254.03 4.02017 253.08 2.28017 251.43 1.80017L245.73 0.12017C244.08 -0.36983 242.34 0.58017 241.86 2.23017L232.83 32.9902L234.8 37.2002L229.85 52.5902C229.85 52.5902 233.27 52.8102 236.69 52.1002V52.1102Z" fill="#2E59A6"/>
<path d="M392.62 2.30008V1.58008L392.57 1.94008L392.52 1.58008V2.30008C391.41 7.04008 390.85 11.9001 390.85 16.7701V71.6601H394.28V16.7601C394.28 11.8901 393.72 7.04008 392.61 2.29008L392.62 2.30008Z" fill="#5D97C4"/>
<path d="M379.729 46.7803V16.7603C379.729 11.8903 379.169 7.03031 378.059 2.29031V1.57031L378.009 1.93031L377.959 1.57031V2.29031C376.849 7.03031 376.289 11.8903 376.289 16.7603V47.0003L385.809 60.1603V71.6503H388.989V59.3003L379.719 46.7803H379.729Z" fill="#5D97C4"/>
<path d="M405.41 46.7803V16.7603C405.41 11.8903 405.97 7.03031 407.08 2.29031V1.57031L407.13 1.93031L407.18 1.57031V2.29031C408.29 7.03031 408.85 11.8903 408.85 16.7603V47.0003L399.33 60.1603V71.6503H396.15V59.3003L405.42 46.7803H405.41Z" fill="#5D97C4"/>
<path d="M400.49 71.6504H384.66V95.8704H400.49V71.6504Z" fill="#2E59A6"/>
<path d="M397.63 93.3896H387.52V118.75H397.63V93.3896Z" fill="#2E59A6"/>
<path d="M49.7695 49.6201C49.7695 49.6201 71.9895 60.9101 79.7295 82.9901C79.7295 82.9901 78.5495 57.0901 49.7695 49.6201Z" fill="#5D97C4"/>
<path d="M75.1003 83.8601C75.1003 83.8601 74.2503 65.2401 53.5703 59.8701C53.5703 59.8701 69.5403 67.9901 75.1003 83.8601Z" fill="#5D97C4"/>
<path d="M113.94 90.7995C112.4 84.2695 98.9998 80.4695 93.3998 78.1995C95.7998 65.2495 93.3998 49.6195 82.9198 40.6295C81.1698 40.2595 81.7798 41.3295 81.4398 42.4595C79.6098 48.6395 79.0298 55.3595 77.0798 61.5295C67.4998 49.7395 55.2698 38.8195 39.4598 37.2695C39.3698 40.6195 42.3098 44.1195 43.6198 47.3295C48.0598 58.2195 50.2498 68.7095 59.0998 77.4095C54.6198 77.4495 47.9098 81.4695 43.4898 82.6895C19.3198 78.1795 6.50977 81.3295 0.00976562 84.7695C6.78977 86.1095 16.9298 89.8695 18.3698 100.48L45.8998 86.3895C45.8998 86.3895 47.6098 86.4295 50.3598 86.5795C46.4698 87.4095 37.5898 94.5095 39.0498 95.7995C46.1398 96.5395 52.2398 94.0495 58.2698 90.7795C58.4398 89.2095 56.5598 90.0795 55.7498 90.3495C51.9698 91.6095 48.2798 93.7595 44.0598 93.2895C46.2698 89.7495 49.5998 87.7795 53.3798 86.7795C54.1398 86.8295 54.9598 86.8995 55.7998 86.9695C52.9798 87.5095 49.7098 88.9595 46.9098 92.4395C46.9098 92.4395 52.2998 88.1195 59.5098 87.3095C66.3898 88.0195 74.5898 89.2595 80.8498 91.4195L77.1198 88.1095C72.5098 84.3995 69.9698 82.8995 65.3998 79.0595C52.7698 68.4395 49.6498 56.7395 44.0598 41.8695C43.3298 39.5995 55.8898 46.0695 56.8498 46.6395C71.0298 54.9795 81.3298 69.5195 88.3998 84.0995C90.1098 82.3195 97.7598 84.8895 99.6698 86.5395C98.2098 86.9995 97.1398 88.2895 97.1398 89.8195C97.1398 90.8595 97.6398 91.7895 98.4098 92.4295C98.4098 92.4395 98.4098 92.4495 98.4098 92.4595L98.4298 92.4395C99.0698 92.9595 99.8998 93.2895 100.81 93.2895C100.98 93.2895 101.13 93.2595 101.29 93.2395L101.74 94.1295C96.9698 94.1795 91.7998 92.0095 94.2098 86.6095C92.7998 86.8995 92.4698 88.2995 92.4698 89.5395C92.4698 97.4395 116 99.5395 113.94 90.7895V90.7995ZM15.4298 86.7095C25.1798 79.8995 36.6698 84.5195 36.6698 84.5195C25.3498 82.5095 15.4298 86.7095 15.4298 86.7095ZM18.4398 93.1895C26.7198 84.6495 38.8798 86.9895 38.8798 86.9895C27.3898 87.1795 18.4398 93.1895 18.4398 93.1895ZM98.1898 89.9195C98.1898 88.5295 99.3098 87.4095 100.7 87.4095C101.94 87.4095 102.97 88.3195 103.17 89.5095C102.8 88.7895 102.06 88.2695 101.19 88.2695C99.9498 88.2695 98.9398 89.2795 98.9398 90.5195C98.9398 91.2295 99.2898 91.8295 99.7998 92.2495C98.8598 91.8895 98.1998 90.9795 98.1998 89.9195H98.1898Z" fill="#5D97C4"/>
<path d="M33.9201 70.7605C34.0301 71.3305 33.2701 71.0805 32.9201 71.0605C26.0401 70.6705 16.5601 66.8905 12.2901 61.3105C8.38013 56.1805 6.86013 47.4305 12.7601 43.1505C16.8601 40.1805 23.6501 42.2505 23.3001 47.8005C23.1401 50.3305 19.9801 52.9905 19.6101 55.8805C18.6201 63.5005 27.5301 69.1205 33.9201 70.7605Z" fill="#2E59A6"/>
<path d="M29.3095 46.0603C30.8295 45.7703 33.1595 46.7203 34.0495 47.9703C36.1895 51.0003 33.7295 53.9803 33.2195 57.1703C32.3095 62.8703 34.7395 66.5403 38.0495 70.8103C30.7595 68.1303 23.7595 57.5503 25.7495 49.8303C26.1695 48.2103 27.5595 46.3903 29.3095 46.0603Z" fill="#2E59A6"/>
</g>
<defs>
<clipPath id="clip0_997_360">
<rect width="776.82" height="166.74" fill="white"/>
</clipPath>
</defs>
</svg>
