<svg width="777" height="175" viewBox="0 0 777 175" fill="none" xmlns="http://www.w3.org/2000/svg">
<g clip-path="url(#clip0_997_299)">
<path d="M549.019 157.79C549.939 157.79 550.099 157.52 550.219 156.19C550.539 156.39 551.079 156.61 551.469 156.68C551.249 158.49 550.819 159.06 549.109 159.06H545.149C543.149 159.06 542.559 158.63 542.559 156.87V150.32H541.249V151.53C541.249 154.43 540.989 157.15 539.159 159.45C538.919 159.15 538.449 158.74 538.119 158.5C539.759 156.44 539.979 153.96 539.979 151.53V150.32H538.419V149.1H539.979V146.21H541.249V149.1H543.859V156.86C543.859 157.65 544.049 157.8 545.199 157.8H549.029L549.019 157.79ZM550.589 156.03H545.189V147.21H550.589V156.03ZM549.259 148.5H546.469V150.96H549.259V148.5ZM549.259 152.23H546.469V154.75H549.259V152.23Z" fill="#717071"/>
<path d="M565.24 147.1V159.18H563.81V158.3H557.03V159.24H555.66V147.1H565.24ZM557.03 148.46V151.97H563.81V148.46H557.03ZM563.81 156.95V153.29H557.03V156.95H563.81Z" fill="#717071"/>
<path d="M553.27 102C573.069 102 589.12 85.9492 589.12 66.1498C589.12 46.3504 573.069 30.2998 553.27 30.2998C533.471 30.2998 517.42 46.3504 517.42 66.1498C517.42 85.9492 533.471 102 553.27 102Z" fill="#2E59A6"/>
<path d="M521.484 94.4908L511.457 104.518L514.392 107.452L524.418 97.4253L521.484 94.4908Z" fill="#5D97C4"/>
<path d="M583.37 95.2257L580.436 98.1602L590.293 108.017L593.227 105.083L583.37 95.2257Z" fill="#5D97C4"/>
<path d="M555.47 11.3799H551.34V25.2199H555.47V11.3799Z" fill="#5D97C4"/>
<path d="M511.039 64.2998H497.199V68.4298H511.039V64.2998Z" fill="#5D97C4"/>
<path d="M608.389 65.5098H594.549V69.6398H608.389V65.5098Z" fill="#5D97C4"/>
<path d="M554.249 108.72H550.119V122.56H554.249V108.72Z" fill="#5D97C4"/>
<path d="M540.716 12.3859L536.727 13.4541L540.368 27.055L544.358 25.9867L540.716 12.3859Z" fill="#5D97C4"/>
<path d="M511.788 75.1685L498.18 78.7842L499.243 82.7853L512.851 79.1697L511.788 75.1685Z" fill="#5D97C4"/>
<path d="M539.46 106.386L535.895 119.966L539.909 121.02L543.474 107.44L539.46 106.386Z" fill="#5D97C4"/>
<path d="M565.639 12.5325L562.045 26.1562L566.048 27.2124L569.642 13.5886L565.639 12.5325Z" fill="#5D97C4"/>
<path d="M499.621 49.9335L498.572 53.9902L512.175 57.5057L513.224 53.449L499.621 49.9335Z" fill="#5D97C4"/>
<path d="M593.394 76.0438L592.318 80.0312L605.989 83.72L607.065 79.7326L593.394 76.0438Z" fill="#5D97C4"/>
<path d="M564.975 106.655L560.994 107.716L564.622 121.331L568.603 120.27L564.975 106.655Z" fill="#5D97C4"/>
<path d="M606.092 50.8604L592.48 54.5L593.545 58.4802L607.156 54.8405L606.092 50.8604Z" fill="#5D97C4"/>
<path d="M589.58 86.2614L587.508 89.8457L599.793 96.9471L601.865 93.3629L589.58 86.2614Z" fill="#5D97C4"/>
<path d="M600.242 37.6444L587.975 44.5762L590.031 48.2153L602.298 41.2835L600.242 37.6444Z" fill="#5D97C4"/>
<path d="M515.391 85.4524L503.172 92.4277L505.224 96.0232L517.444 89.0478L515.391 85.4524Z" fill="#5D97C4"/>
<path d="M579.267 17.7242L572.271 29.9893L575.894 32.0553L582.89 19.7902L579.267 17.7242Z" fill="#5D97C4"/>
<path d="M505.74 36.7219L503.678 40.3115L515.877 47.321L517.94 43.7313L505.74 36.7219Z" fill="#5D97C4"/>
<path d="M574.909 102.14L571.336 104.191L578.366 116.437L581.939 114.386L574.909 102.14Z" fill="#5D97C4"/>
<path d="M527.153 17.2724L523.492 19.3506L530.428 31.5694L534.089 29.4912L527.153 17.2724Z" fill="#5D97C4"/>
<path d="M529.681 101.553L522.713 113.765L526.309 115.816L533.277 103.605L529.681 101.553Z" fill="#5D97C4"/>
<path d="M515.166 25.7941L512.352 28.6084L522.209 38.4655L525.023 35.6512L515.166 25.7941Z" fill="#5D97C4"/>
<path d="M591.033 26.4027L581.176 36.2598L583.99 39.0741L593.847 29.217L591.033 26.4027Z" fill="#5D97C4"/>
<path d="M728.741 146.89C728.701 152.33 728.701 157.98 729.461 157.98C729.601 157.98 729.691 157.04 729.721 155.85C729.941 156.23 730.241 156.64 730.481 156.87C730.351 158.66 730.111 159.42 729.311 159.42C727.441 159.42 727.441 154.31 727.411 148.13H719.981V151.63C719.981 153.99 719.741 157.31 718.151 159.45C717.921 159.22 717.371 158.86 717.061 158.71C718.571 156.69 718.701 153.8 718.701 151.62V146.88H728.741V146.89ZM726.121 155.44C726.801 156.4 727.461 157.72 727.681 158.59L726.571 158.98C726.501 158.68 726.381 158.3 726.221 157.93C723.961 158.1 721.641 158.28 719.981 158.39L719.881 157.19C720.741 157.15 721.841 157.07 723.031 157V155.23H720.651V151.2H723.031V150.02H720.511V148.94H726.801V150.02H724.191V151.2H726.641V155.23H724.191V156.93L725.721 156.83C725.521 156.45 725.291 156.08 725.071 155.76L726.111 155.43L726.121 155.44ZM723.041 154.19V152.26H721.711V154.19H723.041ZM724.201 152.26V154.19H725.551V152.26H724.201Z" fill="#717071"/>
<path d="M685.74 100.64C674.81 89.7105 670.17 73.1505 670.74 57.9805C673.52 63.7905 675.22 70.0605 678.4 75.6805C689.93 96.0305 714.23 107.05 737.27 104.69C740.56 104.35 743.77 103.33 747.03 102.96C742.28 107.88 735.53 110.82 728.88 112.16C713.29 115.3 697.18 112.09 685.74 100.65V100.64Z" fill="#2E59A6"/>
<path d="M672.92 30.2402L676.14 38.3102C684.78 58.8702 712.66 79.2302 735.52 72.8402C757.74 66.6302 754.71 36.6202 737.23 26.7502L728 22.7102C741.98 18.7402 756 19.8802 766.03 31.2402C789.06 57.3202 773.18 99.2402 737.72 101.59C698.34 104.2 664.12 70.1502 672.91 30.2402H672.92Z" fill="#5D97C4"/>
<path d="M198.47 154.43C197.98 153.97 196.94 153.31 196.15 152.9L196.88 151.99C197.67 152.36 198.72 152.95 199.23 153.4L198.47 154.42V154.43ZM196.56 159.95C197.12 158.81 197.94 156.95 198.52 155.31L199.57 156.04C199.02 157.55 198.33 159.3 197.71 160.65L196.56 159.94V159.95ZM199.4 150.36C198.87 149.89 197.77 149.22 196.92 148.8L197.67 147.88C198.52 148.26 199.63 148.87 200.19 149.34L199.4 150.36ZM202.09 150.41C201.64 151.3 201.14 152.12 200.62 152.74C200.36 152.52 199.77 152.16 199.47 151.99C200.44 150.95 201.31 149.3 201.82 147.65L203.12 147.98C202.98 148.38 202.82 148.8 202.64 149.2H209.01V150.4H202.1L202.09 150.41ZM208.2 155.73C208.16 156.48 208.11 157.1 208.06 157.63H209V158.78H207.91C207.79 159.53 207.65 159.96 207.46 160.18C207.17 160.58 206.84 160.7 206.39 160.76C205.99 160.82 205.28 160.8 204.59 160.76C204.56 160.44 204.45 159.95 204.24 159.64C204.93 159.71 205.55 159.71 205.82 159.71C206.08 159.71 206.21 159.68 206.35 159.49C206.45 159.37 206.55 159.14 206.62 158.78H200.45C200.61 157.95 200.8 156.86 200.95 155.73H199.65V154.51H201.12C201.25 153.5 201.35 152.49 201.44 151.63H208.4C208.4 151.63 208.39 152.05 208.37 152.22C208.34 153.07 208.3 153.83 208.27 154.51H209.36V155.73H208.18H208.2ZM202.22 155.73C202.12 156.41 202.03 157.06 201.93 157.63H204.7C204.35 157.17 203.73 156.55 203.22 156.12L203.84 155.73H202.23H202.22ZM202.58 152.77C202.54 153.33 202.45 153.92 202.38 154.5H204.94C204.61 154.07 204.05 153.52 203.57 153.13L204.12 152.77H202.58ZM206.81 157.63C206.87 157.13 206.93 156.49 206.97 155.73H204.06C204.64 156.18 205.28 156.8 205.6 157.24L205.04 157.63H206.81ZM204.44 152.77C204.96 153.19 205.53 153.75 205.81 154.14L205.31 154.5H207.05C207.08 153.98 207.11 153.39 207.14 152.77H204.45H204.44Z" fill="#717071"/>
<path d="M213.631 154.13C213.181 153.67 212.221 152.96 211.471 152.5L212.261 151.62C212.991 152.04 213.991 152.69 214.461 153.15L213.621 154.13H213.631ZM211.771 160.12C212.301 158.94 213.041 156.99 213.561 155.28L214.631 155.96C214.171 157.54 213.521 159.36 212.961 160.79L211.781 160.13L211.771 160.12ZM213.971 150.47C213.541 149.94 212.671 149.19 211.941 148.67L212.791 147.88C213.511 148.36 214.451 149.06 214.881 149.57L213.971 150.48V150.47ZM218.061 158.38V160.89H216.841V158.38H214.741V157.2H216.841V156.13H215.231V151.42H216.841V150.38H214.981V149.23H216.841V147.72H218.061V149.23H219.901V150.38H218.061V151.42H219.671V156.13H218.061V157.2H219.981V158.38H218.061ZM216.301 153.31H218.551V152.36H216.301V153.31ZM216.301 155.19H218.551V154.2H216.301V155.19ZM224.401 159.34C224.401 159.99 224.281 160.39 223.901 160.59C223.501 160.81 222.911 160.85 222.001 160.83C221.971 160.5 221.811 159.89 221.641 159.55C222.221 159.58 222.791 159.58 222.971 159.58C223.161 159.57 223.211 159.51 223.211 159.31V156.04H221.581C221.441 157.78 221.061 159.63 220.131 160.92C219.931 160.7 219.421 160.33 219.141 160.2C220.361 158.47 220.481 155.94 220.481 153.95V148.2H224.411V159.33L224.401 159.34ZM223.201 154.85V152.7H221.641V153.95C221.641 154.24 221.641 154.53 221.631 154.84H223.201V154.85ZM221.651 149.42V151.49H223.211V149.42H221.651Z" fill="#717071"/>
<path d="M191.84 52.9701C195.26 55.7301 199.88 57.2301 204.24 57.5701C214.56 58.3501 224.45 53.8901 234.76 54.5601C250.89 55.6101 267.18 63.4301 272.46 79.6201L268.65 77.5101C254.96 71.3401 238.97 68.5601 224.3 72.9201C204.29 78.8601 195.61 97.5801 171.2 96.0201C155.23 95.0001 144.66 82.9901 151.29 67.1901C151.29 67.1901 153.09 69.5201 154.41 71.2201C155.43 72.5301 156.59 73.7401 157.92 74.7401C162.78 78.3801 168.49 80.4001 174.77 79.8201C175.25 79.7801 178.38 79.1601 178.52 79.0301C179.22 78.3601 178.26 78.3601 177.96 78.2101C171.83 75.0701 168.32 72.5401 166.18 65.5201C161.58 50.3701 171.22 36.9901 186.41 34.8301C185.73 34.9501 186.62 43.4901 186.71 44.1101C187.2 47.8601 189.15 50.8101 191.84 52.9801V52.9701Z" fill="#2E59A6"/>
<path d="M246.56 53.0999C246.65 53.8199 245.72 53.4399 245.29 53.3799C236.79 52.2699 225.37 46.72 220.59 39.4C216.2 32.68 215.11 21.6799 222.83 16.9199C228.19 13.6099 236.42 16.7999 235.48 23.6499C235.05 26.7699 230.89 29.78 230.16 33.33C228.24 42.7 238.78 50.4799 246.56 53.0899V53.0999Z" fill="#5D97C4"/>
<path d="M155.401 42.0802C158.451 41.5202 161.841 43.5602 162.191 47.1002C162.491 50.1402 160.471 52.9102 159.941 55.8202C158.641 62.9902 161.681 67.6502 165.761 73.1402C159.421 70.2602 154.331 64.3802 151.821 57.7802C150.271 53.7102 149.131 47.6602 152.191 43.9802C153.081 42.9102 154.211 42.3002 155.401 42.0802Z" fill="#5D97C4"/>
<path d="M243.1 22.0503C245.01 21.8303 247.82 23.2203 248.8 24.8503C251.18 28.8003 247.859 32.2703 246.929 36.1803C245.279 43.1703 247.959 47.9503 251.669 53.5403C242.869 49.5603 235.15 35.7903 238.32 26.3903C238.99 24.4203 240.88 22.2903 243.08 22.0403L243.1 22.0503Z" fill="#5D97C4"/>
<path d="M29.7596 156.36C29.5396 155.96 29.0696 155.28 28.6396 154.69V160.62H27.3396V154.8C26.8096 156.11 26.1396 157.35 25.4996 158.16C25.3696 157.78 25.0496 157.24 24.8496 156.92C25.6996 155.94 26.6196 154.23 27.1696 152.7H25.1196V151.43H27.3396V149.47C26.6796 149.61 26.0096 149.72 25.3996 149.8C25.3396 149.5 25.1696 149.05 25.0096 148.76C26.6096 148.5 28.4196 148.08 29.4996 147.61L30.4196 148.63C29.8996 148.83 29.2796 149.02 28.6296 149.19V151.42H30.3196V152.69H28.6296V153.35C29.0496 153.71 30.2696 154.96 30.5296 155.29L29.7496 156.34L29.7596 156.36ZM38.2796 159.3V160.38H29.6796V159.3H33.4796V158.36H30.4796V157.32H33.4796V156.46H30.6096V151.79H33.4796V150.98H30.0796V149.91H33.4796V149.1C32.4896 149.16 31.5096 149.2 30.5796 149.22C30.5496 148.95 30.4096 148.49 30.2796 148.23C32.6596 148.14 35.5196 147.91 37.1696 147.58L37.9596 148.56C37.0696 148.76 35.9596 148.91 34.7796 149.01V149.92H37.9896V150.99H34.7796V151.8H37.7296V156.47H34.7796V157.33H37.7796V158.37H34.7796V159.31H38.2796V159.3ZM31.7896 153.71H33.4796V152.75H31.7896V153.71ZM33.4796 155.51V154.54H31.7896V155.51H33.4796ZM34.7796 152.74V153.7H36.5096V152.74H34.7796ZM36.4996 154.54H34.7696V155.51H36.4996V154.54Z" fill="#717071"/>
<path d="M53.5706 155.05H47.8506V158.98C47.8506 159.8 47.6506 160.2 47.0406 160.41C46.4406 160.63 45.4806 160.66 44.1406 160.66C44.0506 160.27 43.7906 159.65 43.5606 159.28C44.6506 159.32 45.7406 159.32 46.0506 159.31C46.3506 159.3 46.4406 159.22 46.4406 158.96V155.06H40.6406V153.72H46.4406V151.69C47.5106 151.19 48.7606 150.41 49.7006 149.66H42.0706V148.35H51.1706L51.4706 148.28L52.4806 149.06C51.2606 150.24 49.4806 151.54 47.8406 152.4V153.73H53.5606V155.07L53.5706 155.05Z" fill="#717071"/>
<path d="M370.559 151.92H372.319V153.16H370.559V153.48C370.959 153.91 371.869 154.95 372.069 155.24L371.319 156.32C371.159 156 370.869 155.44 370.559 154.94V161.08H369.309V155.62C368.859 156.82 368.329 157.94 367.779 158.7C367.649 158.31 367.329 157.74 367.119 157.38C367.879 156.4 368.679 154.67 369.149 153.17H367.439V151.93H369.309V149.86C368.809 149.96 368.269 150.06 367.799 150.13C367.739 149.83 367.559 149.38 367.429 149.08C368.809 148.82 370.429 148.4 371.409 147.94L372.219 149.02C371.729 149.24 371.169 149.41 370.579 149.57V151.93L370.559 151.92ZM380.029 149.02C378.009 149.6 374.999 149.93 372.479 150.09C372.449 149.79 372.289 149.34 372.149 149.04C374.629 148.85 377.539 148.51 379.209 148L380.029 149.02ZM373.319 153.11C373.129 152.55 372.729 151.61 372.369 150.91L373.419 150.55C373.789 151.24 374.229 152.15 374.429 152.7L373.319 153.12V153.11ZM376.379 153.63H379.849V160.95H378.609V160.5H373.799V161.03H372.519V154.17C373.379 153.81 374.329 153.28 374.909 152.84L375.889 153.75C375.269 154.1 374.519 154.46 373.799 154.74V156.37H375.859V157.52H373.799V159.31H378.609V157.52H376.459V156.37H378.609V154.8H376.379V153.62V153.63ZM375.829 152.78C375.709 152.19 375.409 151.2 375.099 150.46L376.179 150.2C376.509 150.91 376.869 151.86 376.969 152.45L375.829 152.78ZM377.659 152.8C378.089 152.02 378.609 150.77 378.879 149.86L380.119 150.36C379.659 151.37 379.139 152.51 378.709 153.26L377.659 152.8Z" fill="#717071"/>
<path d="M385.09 154.52C384.57 154.03 383.51 153.32 382.67 152.86L383.46 151.95C384.28 152.37 385.36 153 385.92 153.48L385.08 154.52H385.09ZM382.97 159.9C383.62 158.82 384.53 157.03 385.19 155.42L386.27 156.21C385.67 157.69 384.89 159.36 384.2 160.7L382.98 159.89L382.97 159.9ZM385.53 150.91C385.08 150.38 384.15 149.6 383.37 149.05L384.28 148.24C385.03 148.73 385.99 149.46 386.47 149.98L385.53 150.9V150.91ZM395.27 156.66C394.65 157.18 393.83 157.71 393.12 158.11C393.87 158.86 394.79 159.44 395.9 159.78C395.61 160.05 395.24 160.57 395.05 160.93C392.6 160.05 391.12 158.15 390.27 155.51H388.35V159.27L390.89 158.49C390.92 158.85 391.01 159.38 391.09 159.67C387.98 160.69 387.46 160.89 387.16 161.14C387.03 160.84 386.66 160.33 386.45 160.12C386.69 159.92 387.01 159.49 387.01 158.79V149.37H390.38C390.22 148.94 390.02 148.42 389.8 148.02L391.04 147.7C391.33 148.2 391.62 148.87 391.79 149.37H394.64V155.51H391.54C391.76 156.13 392.06 156.71 392.4 157.22C393.08 156.79 393.88 156.21 394.39 155.76L395.25 156.64L395.27 156.66ZM388.36 150.53V151.87H393.34V150.53H388.36ZM388.36 154.35H393.34V153H388.36V154.35Z" fill="#717071"/>
<path d="M405.289 35.7597C407.319 36.1197 409.319 36.6497 411.229 37.4197C411.249 37.4197 411.259 37.4397 411.259 37.4697C411.279 37.6097 411.239 37.9797 411.229 38.1397C410.959 42.8297 409.399 48.1597 406.549 51.9397C401.319 58.8897 393.019 59.5197 385.079 57.5297C383.999 57.2597 382.929 56.9297 381.869 56.5997C381.889 56.2197 381.929 55.8297 381.979 55.4497C382.989 47.5797 386.119 39.4397 394.099 36.5097C397.589 35.2197 401.639 35.1297 405.299 35.7697L405.289 35.7597Z" fill="#2E59A6"/>
<path d="M369.571 36.5001C377.551 39.4401 380.681 47.5701 381.691 55.4401C381.741 55.8201 381.781 56.2101 381.801 56.5901C380.741 56.9301 379.671 57.2501 378.591 57.5201C370.651 59.5201 362.351 58.8901 357.121 51.9301C354.281 48.1501 352.711 42.8201 352.441 38.1301C352.441 37.9601 352.391 37.6001 352.411 37.4601C352.411 37.4401 352.411 37.4201 352.441 37.4101C354.351 36.6401 356.351 36.1101 358.381 35.7501C362.031 35.1101 366.091 35.2001 369.581 36.4901L369.571 36.5001Z" fill="#5D97C4"/>
<path d="M405.289 60.33C407.319 60.69 409.319 61.22 411.229 61.99C411.249 61.99 411.259 62.01 411.259 62.04C411.279 62.18 411.239 62.55 411.229 62.71C410.959 67.4 409.399 72.73 406.549 76.51C401.319 83.46 393.019 84.09 385.079 82.1C383.999 81.83 382.929 81.5 381.869 81.17C381.889 80.79 381.929 80.4 381.979 80.02C382.989 72.15 386.119 64.01 394.099 61.08C397.589 59.79 401.639 59.7 405.299 60.34L405.289 60.33Z" fill="#2E59A6"/>
<path d="M369.571 61.0704C377.551 64.0104 380.681 72.1404 381.691 80.0104C381.741 80.3904 381.781 80.7804 381.801 81.1604C380.741 81.5004 379.671 81.8204 378.591 82.0904C370.651 84.0904 362.351 83.4604 357.121 76.5004C354.281 72.7204 352.711 67.3904 352.441 62.7004C352.441 62.5304 352.391 62.1704 352.411 62.0304C352.411 62.0104 352.411 61.9904 352.441 61.9804C354.351 61.2104 356.351 60.6804 358.381 60.3204C362.031 59.6804 366.091 59.7704 369.581 61.0604L369.571 61.0704Z" fill="#5D97C4"/>
<path d="M405.289 84.9003C407.319 85.2603 409.319 85.7903 411.229 86.5603C411.249 86.5603 411.259 86.5803 411.259 86.6103C411.279 86.7503 411.239 87.1203 411.229 87.2803C410.959 91.9703 409.399 97.3003 406.549 101.08C401.319 108.03 393.019 108.66 385.079 106.67C383.999 106.4 382.929 106.07 381.869 105.74C381.889 105.36 381.929 104.97 381.979 104.59C382.989 96.7203 386.119 88.5803 394.099 85.6503C397.589 84.3603 401.639 84.2703 405.299 84.9103L405.289 84.9003Z" fill="#2E59A6"/>
<path d="M369.571 85.6398C377.551 88.5798 380.681 96.7098 381.691 104.58C381.741 104.96 381.781 105.35 381.801 105.73C380.741 106.07 379.671 106.39 378.591 106.66C370.651 108.66 362.351 108.03 357.121 101.07C354.281 97.2898 352.711 91.9598 352.441 87.2698C352.441 87.0998 352.391 86.7398 352.411 86.5998C352.411 86.5798 352.411 86.5598 352.441 86.5498C354.351 85.7798 356.351 85.2498 358.381 84.8898C362.031 84.2498 366.091 84.3398 369.581 85.6298L369.571 85.6398Z" fill="#5D97C4"/>
<path d="M377.099 8.35957C374.529 11.2196 372.439 14.7896 371.779 18.4596C370.379 26.2696 375.509 32.6496 381.799 37.3396V4.05957C380.069 5.32957 378.509 6.78957 377.099 8.35957Z" fill="#5D97C4"/>
<path d="M391.821 18.4703C391.161 14.8003 389.071 11.2303 386.501 8.37031C385.091 6.80031 383.521 5.34031 381.801 4.07031V37.3603C388.091 32.6703 393.221 26.2903 391.821 18.4803V18.4703Z" fill="#2E59A6"/>
<path d="M45.04 67.9701C38.01 66.7401 30.22 66.9201 23.51 69.3901C8.17 75.0401 2.15 90.6801 0.21 105.81C0.12 106.54 0.04 107.29 0 108.01C2.04 108.66 4.1 109.28 6.18 109.81C21.44 113.65 37.4 112.44 47.46 99.0701C52.93 91.8101 55.93 81.5601 56.45 72.5301C56.46 72.3201 56.5 71.9501 56.51 71.6401L50.77 69.2401C48.88 68.7201 46.97 68.3001 45.04 67.9601V67.9701Z" fill="#2E59A6"/>
<path d="M59.8194 60.3499C64.1894 41.9099 56.5294 13.9399 56.5294 13.9399C67.8294 25.0099 66.6094 47.5699 65.1494 58.8799C70.4594 56.7299 75.0394 52.6899 77.5194 46.8799C79.2194 42.8999 79.9194 39.0299 79.8294 35.3199C79.4494 20.1999 65.8994 7.63989 52.6994 0.329886C51.2994 -0.450114 49.5394 0.219886 48.9594 1.71989C48.2194 3.65989 47.2694 5.88989 47.1594 6.15989C45.7294 9.54989 43.1894 12.2199 41.0694 15.1699C34.2694 24.6399 30.2294 38.1299 36.0194 49.0499C39.8994 56.3599 46.9394 60.1099 54.2294 60.5999C53.2294 63.9299 51.7994 67.1599 50.7894 69.2599L56.5294 71.6599L59.8194 60.3599V60.3499Z" fill="#5D97C4"/>
</g>
<defs>
<clipPath id="clip0_997_299">
<rect width="776.82" height="175" fill="white"/>
</clipPath>
</defs>
</svg>
