<svg width="301" height="228" viewBox="0 0 301 228" fill="none" xmlns="http://www.w3.org/2000/svg">
<g clip-path="url(#clip0_2015_5387)">
<path d="M243.693 33.2831H240.567V37.8342H215.614V40.9603H240.567V44.546H220.248C217.692 44.546 215.614 46.6239 215.614 49.1799V64.7733H239.592L215.614 79.0243H221.185L240.567 67.8993V79.0243H243.693V67.8993L263.074 79.0243H268.646L244.668 64.7733H268.646V49.1799C268.646 46.6239 266.568 44.546 264.012 44.546H243.693V40.9603H268.646V37.8342H243.693V33.2831ZM220.238 47.672H240.558V53.0966H218.74V49.1799C218.74 48.3524 219.411 47.6812 220.238 47.6812V47.672ZM218.74 56.2227H240.558V61.6473H218.74V56.2227ZM243.693 61.6473V56.2227H265.511V61.6473H243.693ZM264.003 47.672C264.83 47.672 265.502 48.3432 265.502 49.1707V53.0874H243.684V47.6628H264.003V47.672Z" fill="white"/>
<path d="M196.628 55.7262H160.881C156.697 55.7262 153.286 59.1281 153.286 63.3206V79.0244H204.222V63.3206C204.222 59.1373 200.82 55.7262 196.628 55.7262ZM201.087 75.8891H156.412V63.3206C156.412 60.8566 158.417 58.8614 160.871 58.8614H196.619C199.083 58.8614 201.078 60.8658 201.078 63.3206V75.8891H201.087Z" fill="white"/>
<path d="M200.305 42.2383L197.749 44.0495L201.749 49.704H155.713L165.588 33.2831H161.938L152.771 48.5271C152.247 49.4006 152.238 50.4395 152.734 51.3222C153.258 52.26 154.288 52.8392 155.401 52.8392H202.117C203.275 52.8392 204.323 52.2232 204.829 51.2302C205.307 50.3108 205.224 49.2075 204.627 48.3524L200.305 42.2475V42.2383Z" fill="white"/>
<path d="M288.423 106.874H256.215C253.623 106.874 251.517 108.979 251.517 111.572V121.925H293.112V111.572C293.112 108.979 291.006 106.874 288.414 106.874H288.423ZM273.877 110H282.042L279.1 118.78H273.877V110ZM270.751 118.789H265.529L262.587 110.009H270.751V118.789ZM254.643 111.572C254.643 110.708 255.342 110.009 256.206 110.009H259.286L262.228 118.789H254.643V111.572ZM289.986 118.789H282.4L285.343 110.009H288.423C289.287 110.009 289.986 110.708 289.986 111.572V118.789Z" fill="white"/>
<path d="M288.855 123.763H255.774C253.429 123.763 251.517 125.841 251.517 128.397V140.129H293.112V128.397C293.112 125.841 291.199 123.763 288.855 123.763ZM255.774 127.165H288.855C289.48 127.165 289.986 127.717 289.986 128.397V130.245H254.643V128.397C254.643 127.717 255.149 127.165 255.774 127.165ZM254.643 136.727V133.647H289.986V136.727H254.643Z" fill="white"/>
<path d="M283.467 101.21H261.162V104.336H283.467V101.21Z" fill="white"/>
<path d="M278.852 94.6913C275.036 92.687 270.476 92.687 266.651 94.6913L245.679 105.927V109.476L268.113 97.4496C271.018 95.9233 274.494 95.9233 277.399 97.4496L300.329 109.476V105.945L278.852 94.6821V94.6913Z" fill="white"/>
<path d="M128.094 94.3879H124.968V102.654H120.674V105.78H124.968V140.129H128.094V105.78H132.388V102.654H128.094V94.3879Z" fill="white"/>
<path d="M152.661 104.217H139.292C136.773 104.217 134.714 106.267 134.714 108.795V122.596H137.84V119.598H152.652V122.596H155.778V119.598H170.819V122.596H173.946V108.795C173.946 106.276 171.895 104.217 169.367 104.217H155.769V101.017H169.578C171.987 101.017 173.936 99.0586 173.936 96.6589V94.3695H170.81V96.6589C170.81 97.3393 170.259 97.8909 169.578 97.8909H155.769V94.3971H152.642V97.8909H134.107V101.017H152.642V104.217H152.661ZM139.292 107.343H152.661V110.34H137.849V108.795C137.849 107.995 138.502 107.352 139.292 107.352V107.343ZM137.849 116.463V113.466H152.661V116.463H137.849ZM155.787 116.463V113.466H170.829V116.463H155.787ZM169.385 107.343C170.185 107.343 170.829 107.995 170.829 108.786V110.331H155.787V107.333H169.385V107.343Z" fill="white"/>
<path d="M170.176 123.69H167.05V126.273H134.135V129.4H167.05V133.923C167.05 135.615 165.671 136.994 163.979 136.994H154.233V140.12H163.979C167.399 140.12 170.185 137.334 170.185 133.914V129.39H174.221V126.264H170.185V123.681L170.176 123.69Z" fill="white"/>
<path d="M141.637 131.036L144.735 138.502H148.128L145.02 131.036H141.637Z" fill="white"/>
<path d="M235.519 132.149H186.109V119.139C186.109 116.601 188.178 114.532 190.716 114.532H230.904C233.441 114.532 235.51 116.601 235.51 119.139V132.149H235.519ZM189.208 129.05H232.43V119.13C232.43 118.293 231.75 117.613 230.913 117.613H190.725C189.888 117.613 189.208 118.293 189.208 119.13V129.05Z" fill="white"/>
<path d="M233.579 119.369H187.921V122.467H233.579V119.369Z" fill="white"/>
<path d="M233.579 124.214H187.921V127.312H233.579V124.214Z" fill="white"/>
<path d="M235.519 140.129H222.739C220.321 140.129 218.354 138.07 218.354 135.541V131.33H221.452V135.541C221.452 136.286 222.031 136.893 222.739 136.893H235.519V140.129Z" fill="white"/>
<path d="M199.882 130.126L195.736 140.129H192.389L196.536 130.126H199.882Z" fill="white"/>
<path d="M208.764 112.501H187.893C186.054 112.501 184.556 111.002 184.556 109.163V97.707C184.556 95.8682 186.054 94.3695 187.893 94.3695H208.764V97.468H187.893C187.755 97.468 187.645 97.5783 187.645 97.7162V109.172C187.645 109.31 187.755 109.42 187.893 109.42H208.764V112.519V112.501Z" fill="white"/>
<path d="M208.764 107.6H187.608V104.502H205.675V102.589C205.675 102.46 205.564 102.35 205.436 102.35H187.627V99.2516H205.436C207.275 99.2516 208.773 100.75 208.773 102.589V107.591L208.764 107.6Z" fill="white"/>
<path d="M199.68 97.3393H196.582V99.3896H199.68V97.3393Z" fill="white"/>
<path d="M199.68 107.361H196.582V110H199.68V107.361Z" fill="white"/>
<path d="M237.055 112.501H211.587V105.807C211.587 103.932 213.113 102.405 214.989 102.405H233.662C235.538 102.405 237.064 103.932 237.064 105.807V112.501H237.055ZM214.676 109.411H233.956V105.807C233.956 105.642 233.818 105.504 233.653 105.504H214.979C214.814 105.504 214.676 105.642 214.676 105.807V109.411Z" fill="white"/>
<path d="M222.142 104.198H219.043V110.956H222.142V104.198Z" fill="white"/>
<path d="M229.598 104.198H226.5V110.956H229.598V104.198Z" fill="white"/>
<path d="M214.989 97.3576C214.777 97.3576 214.648 97.2381 214.593 97.1646C214.538 97.091 214.446 96.9439 214.492 96.7324L215.007 94.3603H211.844L211.476 96.0796C211.246 97.1462 211.504 98.2495 212.193 99.1045C212.883 99.9596 213.904 100.447 214.998 100.447L237.082 100.52V97.422L214.998 97.3484L214.989 97.3576Z" fill="white"/>
<path d="M166.765 176.134V163.86H162.269V161.497H174.313V163.86H169.836V176.134H166.765Z" fill="white"/>
<path d="M174.745 176.134L180.335 161.497H183.701L189.272 176.134H186.091L184.703 172.612H179.315L177.954 176.134H174.755H174.745ZM179.765 170.249H184.243L181.99 164.365L179.765 170.249Z" fill="white"/>
<path d="M192.536 176.134V161.497H195.607V176.134H192.536Z" fill="white"/>
<path d="M202.926 176.134V163.86H198.43V161.497H210.474V163.86H205.997V176.134H202.926Z" fill="white"/>
<path d="M219.714 176.364C217.701 176.364 216.11 175.876 214.934 174.902C213.757 173.927 213.168 172.502 213.168 170.636V161.497H216.239V170.406C216.239 171.527 216.542 172.364 217.149 172.916C217.756 173.467 218.611 173.743 219.714 173.743C220.818 173.743 221.673 173.467 222.27 172.916C222.868 172.364 223.172 171.527 223.172 170.406V161.497H226.242V170.636C226.242 172.502 225.663 173.918 224.495 174.902C223.328 175.876 221.737 176.364 219.724 176.364H219.714Z" fill="white"/>
<path d="M229.856 176.134V161.497H232.513L239.445 171.242V161.497H242.516V176.134H239.859L232.927 166.388V176.134H229.856Z" fill="white"/>
<path d="M253.283 176.364C250.828 176.364 248.961 175.72 247.692 174.433C246.424 173.146 245.78 171.353 245.78 169.073C245.78 166.645 246.424 164.742 247.711 163.354C248.998 161.965 250.92 161.276 253.457 161.276C254.331 161.276 255.131 161.322 255.848 161.423C256.556 161.524 257.236 161.68 257.87 161.892V164.531C257.236 164.301 256.565 164.144 255.857 164.043C255.149 163.942 254.432 163.896 253.687 163.896C251.94 163.896 250.708 164.328 249.982 165.183C249.255 166.038 248.888 167.344 248.888 169.082C248.888 172.217 250.368 173.789 253.319 173.789C253.834 173.789 254.34 173.752 254.827 173.661C255.314 173.569 255.756 173.467 256.133 173.33V169.918H252.722V167.96H258.725V175.122C258.229 175.444 257.53 175.729 256.638 175.987C255.747 176.244 254.625 176.373 253.273 176.373L253.283 176.364Z" fill="white"/>
<path d="M217.416 200.866V199.386C217.82 198.513 218.363 197.713 219.025 197.014C219.696 196.306 220.422 195.607 221.204 194.908C221.792 194.375 222.28 193.934 222.657 193.594C223.034 193.244 223.328 192.932 223.539 192.665C223.751 192.389 223.898 192.113 223.99 191.828C224.082 191.543 224.128 191.185 224.128 190.762C224.128 189.355 223.236 188.647 221.443 188.647C220.836 188.647 220.238 188.711 219.632 188.84C219.034 188.969 218.464 189.144 217.912 189.355V186.652C218.492 186.459 219.154 186.303 219.926 186.183C220.689 186.073 221.425 186.008 222.123 186.008C223.824 186.008 225.093 186.431 225.948 187.268C226.803 188.105 227.235 189.245 227.235 190.688C227.235 191.69 226.987 192.536 226.5 193.244C226.003 193.952 225.369 194.642 224.578 195.322C223.953 195.865 223.365 196.398 222.804 196.904C222.243 197.409 221.774 197.942 221.397 198.503H227.373V200.866H217.397H217.416Z" fill="white"/>
<path d="M236.825 201.464C235.216 201.464 233.929 201.16 232.963 200.554C231.998 199.947 231.29 199.064 230.858 197.906C230.426 196.747 230.214 195.359 230.214 193.741C230.214 192.123 230.426 190.707 230.858 189.557C231.29 188.408 231.989 187.525 232.963 186.919C233.938 186.312 235.216 186.008 236.825 186.008C238.434 186.008 239.721 186.312 240.686 186.919C241.652 187.525 242.36 188.408 242.792 189.557C243.224 190.707 243.435 192.104 243.435 193.741C243.435 195.377 243.224 196.747 242.792 197.906C242.36 199.064 241.661 199.947 240.686 200.554C239.712 201.16 238.425 201.464 236.825 201.464ZM236.825 198.825C238.14 198.825 239.059 198.384 239.565 197.51C240.07 196.637 240.328 195.377 240.328 193.741C240.328 192.104 240.07 190.845 239.565 189.971C239.059 189.088 238.149 188.656 236.825 188.656C235.501 188.656 234.591 189.098 234.085 189.971C233.579 190.845 233.322 192.104 233.322 193.741C233.322 195.377 233.57 196.637 234.085 197.51C234.591 198.393 235.501 198.825 236.825 198.825Z" fill="white"/>
<path d="M246.258 200.866V199.386C246.663 198.513 247.205 197.713 247.867 197.014C248.538 196.306 249.265 195.607 250.046 194.908C250.635 194.375 251.122 193.934 251.499 193.594C251.876 193.244 252.17 192.932 252.381 192.665C252.593 192.389 252.74 192.113 252.832 191.828C252.924 191.543 252.97 191.185 252.97 190.762C252.97 189.355 252.078 188.647 250.285 188.647C249.678 188.647 249.081 188.711 248.474 188.84C247.876 188.969 247.306 189.144 246.755 189.355V186.652C247.334 186.459 247.996 186.303 248.768 186.183C249.531 186.073 250.267 186.008 250.966 186.008C252.666 186.008 253.935 186.431 254.79 187.268C255.645 188.105 256.078 189.245 256.078 190.688C256.078 191.69 255.829 192.536 255.342 193.244C254.846 193.952 254.211 194.642 253.42 195.322C252.795 195.865 252.207 196.398 251.646 196.904C251.085 197.409 250.616 197.942 250.239 198.503H256.215V200.866H246.24H246.258Z" fill="white"/>
<path d="M264.794 201.096C262.881 201.096 261.447 200.627 260.491 199.689C259.525 198.752 259.047 197.299 259.047 195.35V192.214C259.047 191.001 259.305 189.934 259.829 188.996C260.353 188.068 261.098 187.332 262.063 186.799C263.028 186.266 264.178 185.999 265.493 185.999C266.246 185.999 266.908 186.045 267.469 186.137C268.03 186.229 268.563 186.367 269.078 186.542V189.18C268.122 188.803 267 188.61 265.695 188.61C264.389 188.61 263.516 188.886 262.872 189.429C262.238 189.971 261.916 190.697 261.916 191.589V192.297C262.403 191.948 262.964 191.69 263.617 191.516C264.27 191.341 264.867 191.258 265.41 191.258C267.147 191.258 268.435 191.681 269.253 192.527C270.071 193.373 270.476 194.568 270.476 196.122C270.476 197.087 270.273 197.952 269.869 198.696C269.464 199.45 268.848 200.039 268.021 200.462C267.184 200.885 266.109 201.096 264.766 201.096H264.794ZM264.821 198.825C265.805 198.825 266.541 198.595 267.028 198.117C267.515 197.648 267.754 197.023 267.754 196.232C267.754 195.386 267.543 194.734 267.12 194.274C266.697 193.823 265.943 193.594 264.867 193.594C264.371 193.594 263.856 193.686 263.341 193.869C262.826 194.053 262.357 194.283 261.934 194.577V195.966C261.934 197.878 262.9 198.825 264.821 198.825Z" fill="white"/>
<path d="M150.5 200.866V186.229H161V188.62H153.571V192.371H160.163V194.734H153.571V198.503H161V200.866H150.5Z" fill="white"/>
<path d="M163.253 200.866L168.549 193.529L163.391 186.238H167.004L170.387 191.12L173.771 186.238H177.384L172.226 193.529L177.522 200.866H173.863L170.387 195.984L166.912 200.866H163.253Z" fill="white"/>
<path d="M180.345 200.866V186.229H187.213C188.362 186.229 189.309 186.45 190.045 186.891C190.78 187.332 191.332 187.93 191.69 188.684C192.058 189.438 192.233 190.302 192.233 191.277C192.233 192.251 192.021 193.134 191.608 193.888C191.194 194.642 190.596 195.23 189.833 195.653C189.07 196.067 188.16 196.278 187.121 196.278H183.416V200.866H180.345ZM183.406 193.851H186.477C187.351 193.851 188.022 193.621 188.463 193.161C188.914 192.702 189.134 192.077 189.134 191.286C189.134 190.44 188.923 189.787 188.5 189.346C188.077 188.895 187.443 188.675 186.588 188.675H183.406V193.851Z" fill="white"/>
<path d="M201.721 201.096C196.977 201.096 194.605 198.604 194.605 193.621C194.605 190.936 195.203 188.996 196.398 187.801C197.593 186.606 199.368 186.008 201.712 186.008C204.057 186.008 205.831 186.606 207.026 187.801C208.222 188.996 208.819 190.936 208.819 193.621C208.819 198.604 206.447 201.096 201.703 201.096H201.721ZM201.721 198.485C203.1 198.485 204.112 198.09 204.755 197.29C205.399 196.499 205.721 195.267 205.721 193.621C205.721 191.792 205.399 190.495 204.755 189.75C204.112 188.996 203.1 188.629 201.721 188.629C200.342 188.629 199.331 189.006 198.687 189.75C198.044 190.495 197.722 191.792 197.722 193.621C197.722 195.276 198.044 196.499 198.687 197.29C199.331 198.09 200.342 198.485 201.721 198.485Z" fill="white"/>
<path d="M46.2102 227.75C54.6241 227.75 61.445 220.929 61.445 212.515C61.445 204.101 54.6241 197.281 46.2102 197.281C37.7962 197.281 30.9753 204.101 30.9753 212.515C30.9753 220.929 37.7962 227.75 46.2102 227.75Z" fill="#F3E143"/>
<path d="M84.357 21.0456C84.0996 20.6686 83.8513 20.3284 83.5939 19.9882C75.7052 8.82646 63.0632 1.23203 48.5915 0.128719C48.665 0.137913 48.757 0.165496 48.8305 0.17469C48.5915 0.137913 48.3157 0.101136 48.1685 0.082748C47.5985 0.0275827 47.1296 0.00919422 46.7159 0C46.6883 0 46.6699 0 46.6423 0H46.2194H45.7964C45.7689 0 45.7505 0 45.7229 0C45.3091 0 44.8402 0.0183885 44.2702 0.082748C44.1231 0.101136 43.8473 0.137913 43.6082 0.17469C43.691 0.165496 43.7737 0.137913 43.8473 0.128719C29.3664 1.23203 16.7243 8.82646 8.82646 19.9882C8.56902 20.3284 8.32077 20.6686 8.06334 21.0456C2.96974 28.6032 0 37.7239 0 47.5249C0 48.2053 0 48.8397 0.0459711 49.5201V50.1177C0.128719 55.717 1.14928 64.332 2.88699 74.5192C5.43379 90.2229 9.58958 109.66 13.966 127.478C14.012 127.735 14.0947 127.984 14.1775 128.241C19.694 150.905 25.6335 170.801 29.3296 176.915C29.4583 177.173 29.587 177.384 29.7065 177.55C33.0624 183.278 39.1306 187.222 46.1274 187.691C46.1826 187.691 46.2378 187.691 46.2929 187.691C53.2897 187.222 59.3671 183.278 62.7138 177.55C62.8425 177.384 62.9712 177.164 63.0908 176.915C66.7868 170.801 72.7263 150.905 78.2429 128.241C78.3256 127.984 78.4084 127.735 78.4543 127.478C82.8216 109.66 86.9866 90.2229 89.5334 74.5192C91.2711 64.332 92.2916 55.717 92.3744 50.1177V49.5201C92.4203 48.8397 92.4203 48.2053 92.4203 47.5249C92.4203 37.7239 89.4506 28.6032 84.357 21.0456Z" fill="#ADD5EE"/>
<path d="M84.357 21.0456C84.0996 20.6686 83.8513 20.3284 83.5939 19.9882C75.7052 8.82646 63.0632 1.23203 48.5915 0.128719C48.665 0.137913 48.757 0.165496 48.8305 0.17469C48.5915 0.137913 48.3157 0.101136 48.1685 0.082748C47.5985 0.0275827 47.1296 0.00919422 46.7159 0C46.6883 0 46.6699 0 46.6423 0H46.2194H45.7964C45.7689 0 45.7505 0 45.7229 0C45.3091 0 44.8402 0.0183885 44.2702 0.082748C44.1231 0.101136 43.8473 0.137913 43.6082 0.17469C43.691 0.165496 43.7737 0.137913 43.8473 0.128719C29.3664 1.23203 16.7243 8.82646 8.82646 19.9882C8.56902 20.3284 8.32077 20.6686 8.06334 21.0456C2.96973 28.6032 0 37.7239 0 47.5249C0 48.2053 0 48.8397 0.0459711 49.5201V50.1177C0.128719 55.717 1.14928 64.332 2.88699 74.5192C5.43379 90.2229 9.58958 109.66 13.966 127.478C14.012 127.735 14.0947 127.984 14.1775 128.241C15.4463 132.057 19.694 137.831 22.7097 141.609C24.9163 155.87 26.5253 166.48 26.9575 169.109C27.0034 169.532 27.0402 169.744 27.0402 169.744C27.3344 172.337 28.1435 174.755 29.3296 176.915C29.4583 177.173 29.587 177.384 29.7065 177.55C32.1982 181.807 36.1793 185.071 40.9419 186.67C43.7093 187.599 46.1366 187.691 46.1366 187.691C46.1734 187.691 46.2286 187.691 46.3021 187.691C46.3021 187.691 48.7386 187.59 51.4968 186.67C56.2503 185.08 60.2406 181.807 62.7322 177.55C62.8609 177.384 62.9896 177.164 63.1092 176.915C64.2952 174.755 65.1043 172.337 65.3985 169.744C65.3985 169.744 65.4445 169.532 65.4813 169.109C65.9042 166.48 67.5224 155.87 69.729 141.609C72.7447 137.831 76.9832 132.066 78.2612 128.241C78.344 127.984 78.4267 127.735 78.4727 127.478C82.84 109.66 87.0049 90.2229 89.5518 74.5192C91.2895 64.332 92.31 55.717 92.3928 50.1177V49.5201C92.4387 48.8397 92.4387 48.2053 92.4387 47.5249C92.4387 37.7239 89.469 28.6032 84.3754 21.0456H84.357Z" fill="#83B7DD"/>
<path d="M84.357 21.0456C84.0996 20.6686 83.8513 20.3284 83.5939 19.9882C75.7052 8.82646 63.0632 1.23203 48.5915 0.128719C48.8397 0.17469 49.1339 0.211467 49.4281 0.294215C49.0052 0.211467 48.5823 0.128719 48.1593 0.082748H47.8192C47.4422 0.0367769 47.056 0 46.6331 0H46.2102H45.7872C45.3643 0 44.9781 0.0459711 44.6012 0.082748H44.261C43.8381 0.128719 43.4151 0.211467 42.9922 0.294215C43.2864 0.211467 43.5898 0.165496 43.8381 0.128719C29.3664 1.23203 16.7243 8.82646 8.82646 19.9882C8.56902 20.3284 8.32077 20.6686 8.06333 21.0456C2.96973 28.6032 0 37.7239 0 47.5249C0 48.2053 0 48.8397 0.0459711 49.5201V50.1177C0.128719 55.717 1.14928 64.332 2.88699 74.5192C3.73285 79.6496 10.5642 89.1196 15.6578 95.4361C16.8898 103.453 18.1218 111.517 19.3079 119.24C20.4571 126.88 21.5605 134.181 22.5718 140.708L22.7005 141.6C24.0981 143.338 25.2841 144.653 25.753 145.168C27.8309 147.503 30.295 149.498 33.0532 151.07C33.0716 151.263 33.1268 151.944 33.136 152.128C33.7704 160.016 34.6254 171.233 36.3632 178.653C36.4183 178.874 36.4919 179.177 36.6206 179.591C37.871 183.498 40.9603 185.834 42.698 186.707C43.3324 187.029 44.5 187.654 46.0631 187.691C46.1274 187.691 46.2378 187.691 46.3665 187.691C47.9295 187.654 49.1063 187.02 49.7407 186.707C51.4968 185.824 54.7056 183.526 55.8089 179.6C55.8733 179.379 55.956 179.058 56.0664 178.662C57.8317 172.024 58.0983 167.096 59.2935 152.137C59.3119 151.944 59.3671 151.263 59.3763 151.079C62.1346 149.507 64.5986 147.512 66.6765 145.177C67.1454 144.671 68.3315 143.356 69.729 141.609L69.8577 140.718C70.8783 134.181 71.9816 126.88 73.1217 119.249C74.3077 111.526 75.5397 103.463 76.7718 95.4452C81.8654 89.1196 88.6967 79.6588 89.5425 74.5284C91.2803 64.3412 92.3008 55.7262 92.3836 50.1269V49.5293C92.4295 48.8489 92.4295 48.2145 92.4295 47.5341C92.4295 37.7331 89.4598 28.6124 84.3662 21.0548L84.357 21.0456Z" fill="#4898C7"/>
<path d="M84.7798 22.4523C84.3753 21.4133 83.8144 20.3008 83.5938 19.9974C75.7051 8.82646 63.0631 1.23203 48.5914 0.128719C48.8488 0.17469 49.143 0.211467 49.4372 0.294215C49.0143 0.211467 48.5914 0.128719 48.1684 0.082748H47.8282C47.4513 0.0367769 47.0651 0 46.6422 0H46.2192H45.7963C45.3734 0 44.9872 0.0459711 44.6103 0.082748H44.2701C43.8471 0.128719 43.4242 0.211467 43.0013 0.294215C43.2955 0.211467 43.5989 0.165496 43.8471 0.128719C29.3662 1.23203 16.7242 8.82646 8.82634 19.9882C8.60568 20.3008 8.04483 21.4133 7.64029 22.4431C7.12541 23.7579 6.01291 27.031 6.25196 30.8742C6.52778 35.2415 8.20113 48.472 11.4927 67.4764V67.5224C12.1271 71.7241 12.7707 76.1833 13.4418 80.6793C14.1222 85.1385 14.8026 89.6713 15.483 94.2592V94.3419C15.5657 94.7281 15.6117 95.0591 15.6485 95.4452C17.3862 97.6059 18.9124 99.3896 19.933 100.493C20.0157 100.576 20.0617 100.658 20.1444 100.75C20.4019 101.008 20.6133 101.219 20.7421 101.385C20.8708 101.513 20.9075 101.596 20.9995 101.642C22.6085 103.297 24.3922 104.823 26.3046 106.184C27.1964 106.782 28.0882 107.37 29.0628 107.885C30.4236 123.331 31.7751 138.612 33.0531 151.079C33.3106 151.245 33.5588 151.42 33.8162 151.548C37.5031 153.59 41.7049 154.776 46.2101 154.941C50.706 154.776 54.9078 153.58 58.6039 151.548C58.8613 151.42 59.1096 151.254 59.367 151.079C60.6358 138.603 61.9965 123.331 63.3573 107.885C64.3319 107.379 65.2237 106.782 66.1156 106.184C68.0279 104.823 69.8116 103.297 71.4206 101.642C71.5034 101.596 71.5493 101.513 71.678 101.385C71.8068 101.219 72.0182 100.999 72.2757 100.75C72.3584 100.668 72.4044 100.585 72.4871 100.493C73.5077 99.3896 75.0339 97.6059 76.7717 95.4452C76.8176 95.0591 76.8544 94.7281 76.9371 94.3419V94.2592C77.6175 89.6805 78.2979 85.1385 78.9783 80.6793C79.6586 76.1833 80.293 71.7241 80.9274 67.5224V67.4764C84.219 48.4811 85.9015 35.2415 86.1682 30.8742C86.4072 27.031 85.2947 23.7579 84.7798 22.4431V22.4523Z" fill="#2D59A5"/>
<path d="M68.874 25.0819C68.3591 21.5053 67.3018 18.4344 67.219 18.2046C67.219 18.2046 64.5343 10.5642 59.358 5.5717C59.266 5.47976 59.1833 5.40621 59.1189 5.34185C57.2341 3.57656 55.7814 2.7123 55.3401 2.45486C52.0486 0.551657 49.0788 0.183888 48.1686 0.0827514C47.3595 3.41004e-06 46.6791 -0.00919082 46.2194 3.40724e-06C45.7505 3.40724e-06 45.0794 3.41004e-06 44.2703 0.0827514C43.36 0.174694 40.3811 0.551657 37.0988 2.45486C36.6574 2.7123 35.2048 3.57656 33.3199 5.34185C33.2556 5.39701 33.1728 5.47976 33.0809 5.5717C27.8953 10.555 25.2198 18.2046 25.2198 18.2046C25.1371 18.4344 24.0797 21.5053 23.5649 25.0819C23.2063 27.5919 23.1879 29.8261 23.1787 30.1295C23.1787 30.2858 23.1787 30.4237 23.1787 30.5156V30.5984C23.1787 33.9727 23.6844 40.3535 23.6844 40.3627C23.8131 41.9624 23.9878 44.2702 24.1533 47.1112V47.1572C24.9992 58.4017 26.2312 74.0595 27.6287 90.7378C27.9689 95.0683 28.3459 99.4355 28.732 103.849C28.8607 105.164 28.9435 106.524 29.0722 107.876C34.1198 110.846 39.9766 112.629 46.2194 112.841C52.4531 112.629 58.3098 110.846 63.3667 107.876C63.4954 106.515 63.5781 105.164 63.7069 103.849C64.0838 99.4355 64.47 95.0683 64.8102 90.7378C66.2077 74.0595 67.4397 58.4017 68.2856 47.1572V47.1112C68.4511 44.2702 68.6258 41.9716 68.7545 40.3627C68.7545 40.3627 69.2602 33.9727 69.2602 30.5984V30.5156C69.2602 30.4237 69.2602 30.295 69.2602 30.1295C69.2602 29.8261 69.2418 27.5827 68.874 25.0819Z" fill="#003891"/>
</g>
<defs>
<clipPath id="clip0_2015_5387">
<rect width="300.329" height="227.75" fill="white"/>
</clipPath>
</defs>
</svg>
