<svg width="330" height="303" viewBox="0 0 330 303" fill="none" xmlns="http://www.w3.org/2000/svg">
<g clip-path="url(#clip0_997_874)">
<path d="M99.0718 198.31V198.272V198.254V183.889V183.87V183.833C96.8165 183.036 94.3933 182.575 91.8631 182.575C89.3281 182.575 86.9097 183.032 84.6543 183.833V183.87V183.889V198.254V198.272V198.31C86.9143 199.106 89.3328 199.568 91.8631 199.568C94.3933 199.568 96.8165 199.111 99.0718 198.31Z" fill="#5D97C4"/>
<path d="M113.496 212.768V212.73V212.712V198.347V198.328V198.291C111.24 197.494 108.817 197.033 106.287 197.033C103.752 197.033 101.333 197.49 99.0781 198.291V198.328V198.347V212.712V212.73V212.768C101.338 213.564 103.757 214.026 106.287 214.026C108.817 214.026 111.24 213.569 113.496 212.768Z" fill="#2E59A6"/>
<path d="M99.0718 227.17V227.133V227.114V212.749V212.731V212.694C96.8165 211.897 94.3933 211.436 91.8631 211.436C89.3281 211.436 86.9097 211.892 84.6543 212.694V212.731V212.749V227.114V227.133V227.17C86.9143 227.967 89.3328 228.428 91.8631 228.428C94.3933 228.428 96.8165 227.971 99.0718 227.17Z" fill="#5D97C4"/>
<path d="M113.496 241.627V241.59V241.571V227.207V227.188V227.151C111.24 226.354 108.817 225.893 106.287 225.893C103.752 225.893 101.333 226.349 99.0781 227.151V227.188V227.207V241.571V241.59V241.627C101.338 242.424 103.757 242.885 106.287 242.885C108.817 242.885 111.24 242.429 113.496 241.627Z" fill="#2E59A6"/>
<path d="M99.0718 256.025V255.987V255.969V241.604V241.585V241.548C96.8165 240.751 94.3933 240.29 91.8631 240.29C89.3281 240.29 86.9097 240.747 84.6543 241.548V241.585V241.604V255.969V255.987V256.025C86.9143 256.821 89.3328 257.283 91.8631 257.283C94.3933 257.283 96.8165 256.826 99.0718 256.025Z" fill="#5D97C4"/>
<path d="M127.912 198.31V198.272V198.254V183.889V183.87V183.833C125.656 183.036 123.233 182.575 120.703 182.575C118.168 182.575 115.749 183.032 113.494 183.833V183.87V183.889V198.254V198.272V198.31C115.754 199.106 118.173 199.568 120.703 199.568C123.233 199.568 125.656 199.111 127.912 198.31Z" fill="#5D97C4"/>
<path d="M127.912 227.17V227.133V227.114V212.749V212.731V212.694C125.656 211.897 123.233 211.436 120.703 211.436C118.168 211.436 115.749 211.892 113.494 212.694V212.731V212.749V227.114V227.133V227.17C115.754 227.967 118.173 228.428 120.703 228.428C123.233 228.428 125.656 227.971 127.912 227.17Z" fill="#5D97C4"/>
<path d="M127.912 256.025V255.987V255.969V241.604V241.585V241.548C125.656 240.751 123.233 240.29 120.703 240.29C118.168 240.29 115.749 240.747 113.494 241.548V241.585V241.604V255.969V255.987V256.025C115.754 256.821 118.173 257.283 120.703 257.283C123.233 257.283 125.656 256.826 127.912 256.025Z" fill="#5D97C4"/>
<path d="M279.673 194.848C279.179 194.038 277.767 192.654 277.087 192.309C275.586 191.54 272.674 191.27 271.085 191.918C270.405 192.192 269.487 192.826 268.89 193.273C263.592 197.211 257.595 202.177 252.506 206.445C244.678 213.015 237.995 220.81 230.777 228.018L280.181 200.686C280.833 198.767 280.712 196.554 279.673 194.848Z" fill="#5D97C4"/>
<path d="M210.755 245.397C210.732 245.406 210.709 245.411 210.685 245.42L208.528 244.861L207.722 243.832L204.721 246.189L207.885 250.22L208.887 251.496L212.051 255.526L215.052 253.174L214.301 252.214C214.283 252.111 214.269 252.009 214.241 251.906L214.213 249.851C220.778 244.591 227.335 239.303 234.39 234.69C239.73 231.2 245.541 228.055 250.746 224.682C260.578 218.308 269.395 210.578 278.574 203.314C279.32 202.597 279.851 201.674 280.187 200.682L230.783 228.013C230.667 228.13 230.555 228.246 230.438 228.363C224.273 234.49 217.568 239.997 210.755 245.397Z" fill="#2E59A6"/>
<path d="M237.003 192.327L237.767 192.443C238.023 192.481 238.201 192.723 238.163 192.979C238.126 193.236 237.884 193.413 237.627 193.375L236.877 193.263C236.858 193.487 236.845 193.711 236.84 193.934L237.693 193.976C237.954 193.99 238.154 194.209 238.14 194.47C238.126 194.731 237.907 194.932 237.646 194.918L236.854 194.88C236.872 195.146 236.9 195.407 236.933 195.668L237.679 195.612C237.94 195.593 238.163 195.789 238.182 196.045C238.201 196.306 238.005 196.53 237.749 196.548L237.11 196.595C237.175 196.879 237.255 197.154 237.343 197.434L237.884 197.247C238.131 197.163 238.396 197.294 238.48 197.541C238.564 197.788 238.433 198.053 238.187 198.137L237.669 198.314C237.795 198.617 237.935 198.911 238.093 199.199L238.662 198.925C238.895 198.813 239.179 198.911 239.291 199.144C239.403 199.377 239.305 199.661 239.072 199.773L238.578 200.01C238.788 200.327 239.016 200.635 239.263 200.933L239.794 200.411C239.981 200.229 240.279 200.229 240.461 200.411C240.642 200.597 240.642 200.895 240.461 201.077L239.901 201.627C240.102 201.827 240.311 202.023 240.53 202.209L241.015 201.487C241.159 201.273 241.453 201.212 241.667 201.357C241.882 201.501 241.942 201.795 241.798 202.009L241.276 202.787C241.537 202.974 241.807 203.146 242.087 203.309C242.133 203.202 242.18 203.099 242.227 202.992C244.105 198.342 241.9 193.058 237.306 191.102C237.18 191.507 237.082 191.912 237.012 192.322L237.003 192.327Z" fill="#2E59A6"/>
<path d="M239.324 205.001C239.3 204.991 239.272 204.977 239.249 204.959C239.035 204.814 238.974 204.521 239.118 204.306L239.682 203.468C239.384 203.221 239.095 202.955 238.825 202.685L238.168 203.333C238.028 203.472 237.818 203.505 237.646 203.43C237.595 203.407 237.543 203.375 237.501 203.333C237.32 203.146 237.32 202.848 237.501 202.666L238.182 201.995C237.828 201.576 237.501 201.129 237.208 200.667L236.141 201.18C236.01 201.241 235.871 201.241 235.745 201.185C235.647 201.143 235.563 201.064 235.512 200.956C235.4 200.723 235.498 200.439 235.731 200.327L236.733 199.847C236.551 199.507 236.388 199.158 236.243 198.799L235.055 199.209C234.939 199.251 234.817 199.242 234.71 199.195C234.594 199.144 234.501 199.046 234.454 198.92C234.37 198.673 234.501 198.408 234.748 198.324L235.917 197.919C235.787 197.518 235.675 197.112 235.586 196.702L234.393 196.791C234.314 196.796 234.24 196.782 234.17 196.754C234.016 196.684 233.904 196.535 233.89 196.358C233.871 196.097 234.067 195.873 234.323 195.854L235.423 195.775C235.381 195.454 235.349 195.132 235.335 194.806L234.207 194.75C234.146 194.75 234.091 194.732 234.039 194.713C233.867 194.638 233.75 194.461 233.76 194.261C233.774 194 233.993 193.8 234.254 193.814L235.325 193.865C235.335 193.59 235.349 193.315 235.377 193.04L234.333 192.882C234.291 192.877 234.249 192.863 234.212 192.849C234.021 192.765 233.904 192.565 233.937 192.351C233.974 192.094 234.216 191.917 234.473 191.955L235.502 192.108C235.591 191.614 235.707 191.125 235.861 190.636C232.101 189.718 228.163 191.274 226.043 194.471C226.397 194.671 226.737 194.885 227.068 195.118L227.562 194.466C227.721 194.261 228.014 194.219 228.219 194.377C228.392 194.508 228.447 194.736 228.373 194.927C228.359 194.964 228.336 195.002 228.312 195.034L227.818 195.687C228.037 195.868 228.247 196.055 228.452 196.25L229.016 195.645C229.193 195.454 229.491 195.444 229.682 195.621C229.827 195.757 229.869 195.966 229.799 196.143C229.775 196.195 229.748 196.246 229.706 196.288L229.109 196.926C229.333 197.178 229.547 197.434 229.748 197.7L230.395 197.154C230.596 196.987 230.889 197.015 231.057 197.21C231.173 197.35 231.197 197.532 231.132 197.69C231.104 197.76 231.057 197.821 230.996 197.872L230.283 198.468C230.521 198.841 230.74 199.228 230.936 199.624L231.807 199.214C232.045 199.102 232.324 199.204 232.432 199.437C232.488 199.563 232.488 199.698 232.441 199.815C232.399 199.922 232.315 200.011 232.203 200.066L231.313 200.486C231.462 200.854 231.588 201.227 231.7 201.609L232.497 201.343C232.744 201.259 233.009 201.394 233.093 201.641C233.131 201.753 233.126 201.865 233.084 201.967C233.033 202.089 232.935 202.191 232.795 202.238L231.928 202.527C232.045 203.09 232.124 203.663 232.157 204.241H232.856C233.117 204.246 233.326 204.46 233.322 204.721C233.322 204.782 233.308 204.842 233.289 204.894C233.219 205.066 233.047 205.192 232.851 205.187H232.18C232.175 205.583 232.147 205.988 232.101 206.389L232.851 206.548C233.107 206.603 233.266 206.85 233.214 207.107C233.21 207.135 233.2 207.163 233.191 207.186C233.107 207.396 232.884 207.517 232.655 207.47L231.952 207.321C231.872 207.722 231.775 208.118 231.653 208.509C235.377 209.357 239.254 207.792 241.346 204.628C241.024 204.446 240.717 204.246 240.423 204.036L239.892 204.824C239.762 205.015 239.515 205.085 239.31 204.991L239.324 205.001Z" fill="#2E59A6"/>
<path d="M228.988 206.212C229.044 205.956 229.291 205.798 229.548 205.849L230.638 206.082C230.671 205.779 230.689 205.476 230.694 205.178L229.655 205.169C229.394 205.169 229.184 204.954 229.189 204.693C229.189 204.433 229.403 204.223 229.664 204.228L230.671 204.237C230.643 203.827 230.587 203.417 230.512 203.011L229.739 203.272C229.492 203.356 229.226 203.221 229.142 202.974C229.058 202.727 229.193 202.462 229.44 202.378L230.293 202.094C230.2 201.767 230.093 201.446 229.972 201.134L229.226 201.483C228.988 201.595 228.709 201.493 228.602 201.26C228.49 201.022 228.592 200.742 228.825 200.635L229.59 200.276C229.45 199.997 229.296 199.722 229.133 199.456L228.434 200.043C228.234 200.211 227.94 200.183 227.772 199.988C227.604 199.787 227.632 199.494 227.828 199.326L228.602 198.678C228.439 198.459 228.266 198.245 228.084 198.035L227.371 198.799C227.194 198.99 226.896 199 226.705 198.823C226.514 198.646 226.505 198.347 226.682 198.156L227.432 197.355C227.264 197.197 227.092 197.043 226.915 196.894L226.318 197.681C226.16 197.886 225.866 197.928 225.661 197.77C225.456 197.611 225.414 197.318 225.573 197.113L226.174 196.325C225.904 196.139 225.624 195.962 225.335 195.799C225.284 195.911 225.237 196.018 225.191 196.13C223.294 200.826 225.554 206.166 230.242 208.076C230.349 207.727 230.433 207.377 230.503 207.028L229.361 206.785C229.105 206.73 228.947 206.483 228.998 206.226L228.988 206.212Z" fill="#2E59A6"/>
<path d="M74.5195 276.992H75.759V284.876H74.5195V276.992Z" fill="#717071"/>
<path d="M78.5234 278.982H79.53L79.6371 279.806H79.6604C80.1963 279.27 80.8068 278.842 81.6083 278.842C82.8617 278.842 83.4163 279.676 83.4163 281.176V284.88H82.1861V281.33C82.1861 280.314 81.8878 279.918 81.1889 279.918C80.6437 279.918 80.2802 280.184 79.7536 280.71V284.885H78.5234V278.991V278.982Z" fill="#717071"/>
<path d="M85.6055 281.935C85.6055 280.02 86.817 278.841 88.1218 278.841C88.8068 278.841 89.2355 279.088 89.7061 279.503L89.6642 278.529V276.349H90.8944V284.875H89.8878L89.7807 284.214H89.7481C89.31 284.661 88.6996 285.029 88.0239 285.029C86.5607 285.029 85.6055 283.897 85.6055 281.935ZM89.6595 283.272V280.402C89.2215 280.006 88.8021 279.866 88.3641 279.866C87.5486 279.866 86.8776 280.649 86.8776 281.921C86.8776 283.193 87.3995 283.985 88.3221 283.985C88.8114 283.985 89.2308 283.771 89.6595 283.268V283.272Z" fill="#717071"/>
<path d="M93.3965 277.141C93.3965 276.712 93.7087 276.414 94.1654 276.414C94.622 276.414 94.9249 276.712 94.9249 277.141C94.9249 277.602 94.6127 277.891 94.1654 277.891C93.718 277.891 93.3965 277.602 93.3965 277.141ZM93.5456 278.981H94.7758V284.875H93.5456V278.981Z" fill="#717071"/>
<path d="M97.0035 285.97C97.0035 285.476 97.3157 285.019 97.8609 284.684V284.642C97.5626 284.437 97.325 284.129 97.325 283.659C97.325 283.188 97.6465 282.792 97.9867 282.569V282.527C97.5813 282.214 97.2038 281.66 97.2038 280.952C97.2038 279.624 98.2616 278.846 99.4825 278.846C99.8133 278.846 100.112 278.911 100.34 278.986H102.428V279.917H101.314C101.528 280.164 101.687 280.546 101.687 280.989C101.687 282.284 100.713 283.02 99.4825 283.02C99.2262 283.02 98.914 282.955 98.6577 282.848C98.476 283.006 98.3362 283.17 98.3362 283.458C98.3362 283.803 98.5692 284.036 99.3194 284.036H100.41C101.789 284.036 102.516 284.465 102.516 285.457C102.516 286.603 101.328 287.521 99.4452 287.521C98.024 287.521 96.9941 287 96.9941 285.97H97.0035ZM101.323 285.658C101.323 285.164 100.936 285.015 100.233 285.015H99.3427C99.0631 285.015 98.7975 284.991 98.5505 284.931C98.1964 285.187 98.0566 285.485 98.0566 285.788C98.0566 286.357 98.6437 286.706 99.6176 286.706C100.643 286.706 101.318 286.203 101.318 285.658H101.323ZM100.596 280.952C100.596 280.169 100.107 279.712 99.4825 279.712C98.8581 279.712 98.3688 280.16 98.3688 280.952C98.3688 281.744 98.8721 282.214 99.4825 282.214C100.093 282.214 100.596 281.744 100.596 280.952Z" fill="#717071"/>
<path d="M103.817 281.936C103.817 280.021 105.131 278.842 106.501 278.842C108.062 278.842 108.91 279.965 108.91 281.623C108.91 281.87 108.878 282.103 108.845 282.257H105.024C105.122 283.38 105.826 284.056 106.841 284.056C107.363 284.056 107.815 283.897 108.244 283.618L108.673 284.4C108.137 284.764 107.452 285.029 106.692 285.029C105.075 285.029 103.812 283.883 103.812 281.936H103.817ZM107.843 281.4C107.843 280.393 107.382 279.816 106.529 279.816C105.793 279.816 105.136 280.37 105.019 281.4H107.843Z" fill="#717071"/>
<path d="M111.096 278.982H112.102L112.209 279.806H112.233C112.769 279.27 113.379 278.842 114.181 278.842C115.434 278.842 115.989 279.676 115.989 281.176V284.88H114.758V281.33C114.758 280.314 114.46 279.918 113.766 279.918C113.221 279.918 112.857 280.184 112.331 280.71V284.885H111.1V278.991L111.096 278.982Z" fill="#717071"/>
<path d="M118.154 281.936C118.154 279.979 119.468 278.842 120.936 278.842C122.404 278.842 123.699 279.974 123.699 281.936C123.699 283.897 122.395 285.029 120.936 285.029C119.478 285.029 118.154 283.897 118.154 281.936ZM122.437 281.936C122.437 280.696 121.859 279.858 120.941 279.858C120.023 279.858 119.431 280.692 119.431 281.936C119.431 283.18 120.009 284 120.941 284C121.873 284 122.437 283.184 122.437 281.936Z" fill="#717071"/>
<path d="M125.872 282.695V278.981H127.111V282.546C127.111 283.552 127.41 283.958 128.095 283.958C128.64 283.958 129.027 283.701 129.507 283.082V278.986H130.746V284.88H129.73L129.632 283.99H129.6C129.064 284.61 128.486 285.029 127.685 285.029C126.422 285.029 125.867 284.195 125.867 282.695H125.872Z" fill="#717071"/>
<path d="M132.773 284.204L133.361 283.403C133.873 283.822 134.39 284.087 135.019 284.087C135.714 284.087 136.049 283.743 136.049 283.295C136.049 282.76 135.397 282.527 134.754 282.28C133.971 281.981 133.104 281.562 133.104 280.57C133.104 279.577 133.896 278.846 135.201 278.846C135.984 278.846 136.646 279.167 137.107 279.54L136.539 280.299C136.124 280.001 135.704 279.787 135.234 279.787C134.572 279.787 134.269 280.108 134.269 280.514C134.269 281.008 134.847 281.199 135.499 281.446C136.315 281.758 137.224 282.121 137.224 283.221C137.224 284.218 136.441 285.029 134.987 285.029C134.171 285.029 133.337 284.675 132.773 284.204Z" fill="#717071"/>
<path d="M64.0117 296.686C64.0117 294.128 65.5867 292.586 67.5858 292.586C68.5597 292.586 69.3286 293.057 69.8132 293.583L69.1515 294.375C68.7321 293.97 68.2428 293.667 67.6091 293.667C66.2484 293.667 65.2978 294.799 65.2978 296.654C65.2978 298.508 66.1879 299.673 67.5765 299.673C68.2941 299.673 68.8393 299.342 69.31 298.829L69.9856 299.621C69.3426 300.358 68.5504 300.768 67.5252 300.768C65.5448 300.768 64.0164 299.281 64.0164 296.691L64.0117 296.686Z" fill="#717071"/>
<path d="M72.0605 294.716H73.0671L73.1742 295.774H73.1975C73.6169 295.023 74.2367 294.576 74.8797 294.576C75.1687 294.576 75.3504 294.618 75.5321 294.693L75.3178 295.774C75.1034 295.708 74.9636 295.676 74.7166 295.676C74.2367 295.676 73.6589 296.007 73.2954 296.948V300.605H72.0652V294.711L72.0605 294.716Z" fill="#717071"/>
<path d="M76.5945 299.049C76.5945 297.777 77.6663 297.125 80.1127 296.855C80.1034 296.179 79.8564 295.583 78.9897 295.583C78.3699 295.583 77.7921 295.862 77.2888 296.184L76.8275 295.35C77.4379 294.963 78.2627 294.581 79.204 294.581C80.6719 294.581 81.3429 295.504 81.3429 297.074V300.615H80.3363L80.2385 299.939H80.1966C79.6607 300.401 79.0316 300.764 78.3233 300.764C77.3075 300.764 76.5898 300.088 76.5898 299.054L76.5945 299.049ZM80.1173 299.082V297.647C78.3746 297.852 77.7828 298.299 77.7828 298.951C77.7828 299.539 78.1788 299.776 78.7007 299.776C79.2226 299.776 79.6327 299.529 80.1127 299.082H80.1173Z" fill="#717071"/>
<path d="M83.2949 294.79L84.0964 294.725V293.989C84.0964 292.782 84.6509 291.943 85.9603 291.943C86.3658 291.943 86.7292 292.027 86.9995 292.134L86.7525 293.066C86.5475 292.968 86.3145 292.926 86.1095 292.926C85.5829 292.926 85.3266 293.267 85.3266 293.975V294.711H86.5149V295.708H85.3266V300.61H84.0964V295.708H83.2949V294.786V294.79Z" fill="#717071"/>
<path d="M88.5879 298.686V295.713H87.7305V294.791L88.6485 294.716L88.7882 293.09H89.8134V294.716H91.3465V295.713H89.8134V298.7C89.8134 299.408 90.0604 299.771 90.6801 299.771C90.8712 299.771 91.1275 299.697 91.2999 299.632L91.5236 300.54C91.202 300.647 90.7966 300.764 90.3679 300.764C89.0539 300.764 88.5786 299.93 88.5786 298.686H88.5879Z" fill="#717071"/>
<path d="M92.6973 299.939L93.2844 299.138C93.797 299.557 94.3142 299.823 94.9433 299.823C95.6376 299.823 95.9731 299.478 95.9731 299.031C95.9731 298.495 95.3208 298.262 94.6777 298.015C93.8948 297.717 93.0281 297.297 93.0281 296.305C93.0281 295.313 93.8203 294.581 95.125 294.581C95.9079 294.581 96.5696 294.903 97.0309 295.275L96.4624 296.035C96.043 295.737 95.6283 295.522 95.1577 295.522C94.496 295.522 94.1931 295.844 94.1931 296.249C94.1931 296.743 94.7709 296.934 95.4233 297.181C96.2387 297.493 97.1474 297.857 97.1474 298.956C97.1474 299.953 96.3646 300.764 94.9107 300.764C94.0999 300.764 93.2611 300.41 92.6973 299.939Z" fill="#717071"/>
<path d="M99.2598 294.716H100.266L100.373 295.55H100.397C100.909 295.005 101.487 294.576 102.228 294.576C103.104 294.576 103.589 294.982 103.845 295.657C104.432 295.037 105.024 294.576 105.76 294.576C106.99 294.576 107.568 295.41 107.568 296.91V300.615H106.329V297.064C106.329 296.049 106.031 295.652 105.355 295.652C104.959 295.652 104.521 295.909 104.027 296.445V300.619H102.797V297.069C102.797 296.053 102.484 295.657 101.813 295.657C101.417 295.657 100.979 295.913 100.499 296.449V300.624H99.2691V294.73L99.2598 294.716Z" fill="#717071"/>
<path d="M109.809 299.049C109.809 297.777 110.88 297.125 113.331 296.855C113.322 296.179 113.075 295.583 112.208 295.583C111.589 295.583 111.011 295.862 110.508 296.184L110.046 295.35C110.657 294.963 111.481 294.581 112.423 294.581C113.891 294.581 114.562 295.504 114.562 297.074V300.615H113.555L113.457 299.939H113.415C112.879 300.401 112.25 300.764 111.542 300.764C110.526 300.764 109.809 300.088 109.809 299.054V299.049ZM113.331 299.082V297.647C111.589 297.852 110.997 298.299 110.997 298.951C110.997 299.539 111.393 299.776 111.915 299.776C112.437 299.776 112.847 299.529 113.327 299.082H113.331Z" fill="#717071"/>
<path d="M117.105 294.716H118.112L118.219 295.541H118.242C118.778 295.005 119.389 294.576 120.19 294.576C121.444 294.576 121.998 295.41 121.998 296.91V300.615H120.768V297.064C120.768 296.049 120.47 295.652 119.776 295.652C119.23 295.652 118.867 295.918 118.34 296.445V300.619H117.11V294.725L117.105 294.716Z" fill="#717071"/>
<path d="M123.965 299.939L124.552 299.138C125.065 299.557 125.582 299.823 126.211 299.823C126.905 299.823 127.241 299.478 127.241 299.031C127.241 298.495 126.588 298.262 125.945 298.015C125.162 297.717 124.296 297.297 124.296 296.305C124.296 295.313 125.088 294.581 126.393 294.581C127.175 294.581 127.837 294.903 128.298 295.275L127.73 296.035C127.315 295.737 126.896 295.522 126.425 295.522C125.764 295.522 125.461 295.844 125.461 296.249C125.461 296.743 126.038 296.934 126.691 297.181C127.506 297.493 128.415 297.857 128.415 298.956C128.415 299.953 127.632 300.764 126.178 300.764C125.363 300.764 124.529 300.41 123.965 299.939Z" fill="#717071"/>
<path d="M130.527 292.083H131.758V294.343L131.706 295.508C132.219 295.004 132.811 294.576 133.612 294.576C134.866 294.576 135.42 295.41 135.42 296.91V300.614H134.19V297.064C134.19 296.048 133.892 295.652 133.197 295.652C132.652 295.652 132.289 295.918 131.762 296.444V300.619H130.532V292.092L130.527 292.083Z" fill="#717071"/>
<path d="M137.824 292.875C137.824 292.447 138.136 292.148 138.593 292.148C139.05 292.148 139.353 292.447 139.353 292.875C139.353 293.337 139.04 293.625 138.593 293.625C138.146 293.625 137.824 293.337 137.824 292.875ZM137.973 294.716H139.204V300.61H137.973V294.716Z" fill="#717071"/>
<path d="M141.859 294.716H142.866L142.973 295.368H142.996C143.509 294.94 144.152 294.576 144.814 294.576C146.3 294.576 147.134 295.755 147.134 297.572C147.134 299.594 145.923 300.759 144.599 300.759C144.087 300.759 143.551 300.512 143.057 300.083L143.09 301.09V302.996H141.859V294.716ZM145.862 297.595C145.862 296.365 145.466 295.606 144.483 295.606C144.022 295.606 143.584 295.853 143.09 296.323V299.203C143.551 299.59 144.012 299.725 144.362 299.725C145.219 299.725 145.858 298.965 145.858 297.595H145.862Z" fill="#717071"/>
<path d="M203.252 276.992H204.491V280.212H207.861V276.992H209.1V284.876H207.861V281.293H204.491V284.876H203.252V276.992Z" fill="#717071"/>
<path d="M211.459 281.936C211.459 279.979 212.773 278.842 214.241 278.842C215.709 278.842 217 279.974 217 281.936C217 283.897 215.695 285.029 214.241 285.029C212.787 285.029 211.459 283.897 211.459 281.936ZM215.737 281.936C215.737 280.696 215.159 279.858 214.241 279.858C213.323 279.858 212.731 280.692 212.731 281.936C212.731 283.18 213.309 284 214.241 284C215.173 284 215.737 283.184 215.737 281.936Z" fill="#717071"/>
<path d="M219.26 278.982H220.266L220.373 279.816H220.397C220.909 279.27 221.487 278.842 222.228 278.842C223.104 278.842 223.589 279.247 223.845 279.923C224.432 279.303 225.024 278.842 225.76 278.842C226.99 278.842 227.568 279.676 227.568 281.176V284.88H226.329V281.33C226.329 280.314 226.03 279.918 225.355 279.918C224.959 279.918 224.521 280.174 224.027 280.71V284.885H222.797V281.335C222.797 280.319 222.484 279.923 221.813 279.923C221.417 279.923 220.979 280.179 220.495 280.715V284.89H219.264V278.996L219.26 278.982Z" fill="#717071"/>
<path d="M229.735 281.936C229.735 280.021 231.049 278.842 232.419 278.842C233.98 278.842 234.828 279.965 234.828 281.623C234.828 281.87 234.796 282.103 234.763 282.257H230.942C231.04 283.38 231.744 284.056 232.759 284.056C233.281 284.056 233.733 283.897 234.162 283.618L234.591 284.4C234.055 284.764 233.37 285.029 232.61 285.029C230.993 285.029 229.73 283.883 229.73 281.936H229.735ZM233.761 281.4C233.761 280.393 233.3 279.816 232.442 279.816C231.706 279.816 231.049 280.37 230.933 281.4H233.757H233.761Z" fill="#717071"/>
<path d="M237.088 282.951V279.978H236.23V279.06L237.148 278.985L237.288 277.359H238.313V278.985H239.842V279.983H238.313V282.969C238.313 283.677 238.56 284.041 239.18 284.041C239.371 284.041 239.627 283.966 239.8 283.901L240.024 284.81C239.702 284.917 239.297 285.033 238.868 285.033C237.554 285.033 237.083 284.199 237.083 282.955L237.088 282.951Z" fill="#717071"/>
<path d="M241.332 281.936C241.332 279.979 242.646 278.842 244.114 278.842C245.582 278.842 246.873 279.974 246.873 281.936C246.873 283.897 245.568 285.029 244.114 285.029C242.66 285.029 241.332 283.897 241.332 281.936ZM245.614 281.936C245.614 280.696 245.037 279.858 244.119 279.858C243.201 279.858 242.609 280.692 242.609 281.936C242.609 283.18 243.187 284 244.119 284C245.051 284 245.614 283.184 245.614 281.936Z" fill="#717071"/>
<path d="M248.43 278.981H249.67L250.453 282.168C250.569 282.746 250.667 283.282 250.774 283.846H250.826C250.942 283.277 251.063 282.732 251.198 282.168L252.032 278.981H253.165L254.008 282.168C254.148 282.746 254.265 283.282 254.404 283.846H254.46C254.567 283.277 254.665 282.741 254.791 282.168L255.551 278.981H256.716L255.187 284.875H253.71L252.96 281.963C252.82 281.409 252.713 280.873 252.587 280.263H252.536C252.419 280.873 252.312 281.418 252.172 281.972L251.445 284.871H250.01L248.426 278.977L248.43 278.981Z" fill="#717071"/>
<path d="M258.746 278.982H259.753L259.86 279.806H259.883C260.419 279.27 261.029 278.842 261.831 278.842C263.084 278.842 263.639 279.676 263.639 281.176V284.88H262.409V281.33C262.409 280.314 262.11 279.918 261.412 279.918C260.866 279.918 260.503 280.184 259.976 280.71V284.885H258.746V278.991V278.982Z" fill="#717071"/>
<path d="M269.018 281.936C269.018 279.979 270.332 278.842 271.8 278.842C273.267 278.842 274.558 279.974 274.558 281.936C274.558 283.897 273.253 285.029 271.8 285.029C270.346 285.029 269.018 283.897 269.018 281.936ZM273.3 281.936C273.3 280.696 272.722 279.858 271.804 279.858C270.886 279.858 270.294 280.692 270.294 281.936C270.294 283.18 270.872 284 271.804 284C272.736 284 273.3 283.184 273.3 281.936Z" fill="#717071"/>
<path d="M276.188 279.061L276.989 278.995V278.259C276.989 277.053 277.543 276.214 278.853 276.214C279.258 276.214 279.622 276.298 279.892 276.405L279.645 277.337C279.44 277.239 279.207 277.197 279.002 277.197C278.475 277.197 278.219 277.537 278.219 278.245V278.982H279.407V279.979H278.219V284.88H276.989V279.979H276.188V279.061Z" fill="#717071"/>
<path d="M217.32 292.727H219.771C221.374 292.727 222.544 293.248 222.544 294.665C222.544 295.424 222.139 296.142 221.421 296.375V296.426C222.32 296.608 222.973 297.227 222.973 298.299C222.973 299.86 221.71 300.61 219.953 300.61H217.32V292.727ZM219.622 296.025C220.82 296.025 221.323 295.578 221.323 294.837C221.323 294.022 220.769 293.705 219.655 293.705H218.564V296.025H219.622ZM219.813 299.641C221.044 299.641 221.752 299.203 221.752 298.239C221.752 297.363 221.067 296.967 219.813 296.967H218.56V299.641H219.813Z" fill="#717071"/>
<path d="M224.814 299.053C224.814 297.781 225.886 297.129 228.337 296.859C228.328 296.183 228.081 295.587 227.214 295.587C226.595 295.587 226.017 295.866 225.513 296.188L225.052 295.354C225.663 294.967 226.487 294.585 227.429 294.585C228.896 294.585 229.567 295.507 229.567 297.078V300.619H228.561L228.463 299.943H228.421C227.885 300.404 227.256 300.768 226.548 300.768C225.532 300.768 224.814 300.092 224.814 299.058V299.053ZM228.333 299.081V297.646C226.59 297.851 225.998 298.298 225.998 298.951C225.998 299.538 226.394 299.775 226.916 299.775C227.438 299.775 227.848 299.529 228.328 299.081H228.333Z" fill="#717071"/>
<path d="M231.49 299.939L232.077 299.138C232.59 299.557 233.107 299.823 233.736 299.823C234.431 299.823 234.766 299.478 234.766 299.031C234.766 298.495 234.114 298.262 233.471 298.015C232.688 297.717 231.821 297.297 231.821 296.305C231.821 295.313 232.613 294.581 233.918 294.581C234.701 294.581 235.363 294.903 235.824 295.275L235.255 296.035C234.836 295.737 234.421 295.522 233.951 295.522C233.289 295.522 232.986 295.844 232.986 296.249C232.986 296.743 233.564 296.934 234.216 297.181C235.032 297.493 235.94 297.857 235.94 298.956C235.94 299.953 235.158 300.764 233.704 300.764C232.888 300.764 232.054 300.41 231.49 299.939Z" fill="#717071"/>
<path d="M237.634 297.67C237.634 295.755 238.948 294.576 240.318 294.576C241.879 294.576 242.727 295.699 242.727 297.358C242.727 297.605 242.694 297.838 242.662 297.991H238.84C238.938 299.114 239.642 299.79 240.658 299.79C241.18 299.79 241.632 299.632 242.06 299.352L242.489 300.135C241.953 300.498 241.268 300.764 240.509 300.764C238.892 300.764 237.629 299.618 237.629 297.67H237.634ZM241.655 297.134C241.655 296.128 241.194 295.55 240.336 295.55C239.6 295.55 238.943 296.104 238.826 297.134H241.65H241.655Z" fill="#717071"/>
<path d="M246.035 300.004H245.993L245.886 300.614H244.912V292.088H246.142V294.348L246.1 295.354C246.613 294.907 247.233 294.585 247.857 294.585C249.344 294.585 250.192 295.764 250.192 297.581C250.192 299.603 248.985 300.768 247.657 300.768C247.121 300.768 246.534 300.489 246.04 300.009L246.035 300.004ZM248.91 297.595C248.91 296.365 248.514 295.606 247.531 295.606C247.07 295.606 246.622 295.853 246.138 296.323V299.203C246.585 299.589 247.06 299.725 247.41 299.725C248.267 299.725 248.906 298.965 248.906 297.595H248.91Z" fill="#717071"/>
<path d="M251.938 299.053C251.938 297.781 253.009 297.129 255.46 296.859C255.451 296.183 255.204 295.587 254.337 295.587C253.718 295.587 253.14 295.866 252.636 296.188L252.175 295.354C252.786 294.967 253.61 294.585 254.552 294.585C256.02 294.585 256.691 295.507 256.691 297.078V300.619H255.684L255.586 299.943H255.544C255.008 300.404 254.379 300.768 253.671 300.768C252.655 300.768 251.938 300.092 251.938 299.058V299.053ZM255.46 299.081V297.646C253.718 297.851 253.126 298.298 253.126 298.951C253.126 299.538 253.522 299.775 254.044 299.775C254.566 299.775 254.976 299.529 255.456 299.081H255.46Z" fill="#717071"/>
<path d="M259.236 299.221V292.083H260.467V299.286C260.467 299.617 260.606 299.734 260.755 299.734C260.811 299.734 260.853 299.734 260.97 299.71L261.119 300.642C260.97 300.707 260.765 300.759 260.457 300.759C259.567 300.759 259.236 300.181 259.236 299.216V299.221Z" fill="#717071"/>
<path d="M263.229 299.221V292.083H264.459V299.286C264.459 299.617 264.599 299.734 264.748 299.734C264.804 299.734 264.845 299.734 264.962 299.71L265.111 300.642C264.962 300.707 264.757 300.759 264.449 300.759C263.559 300.759 263.229 300.181 263.229 299.216V299.221Z" fill="#717071"/>
<path d="M154.92 114.549H157.306C159.063 114.549 160.325 115.159 160.325 116.944C160.325 118.728 159.063 119.446 157.352 119.446H156.164V122.432H154.925V114.549H154.92ZM157.241 118.444C158.48 118.444 159.09 117.964 159.09 116.944C159.09 115.923 158.438 115.551 157.185 115.551H156.159V118.439H157.241V118.444Z" fill="#717071"/>
<path d="M161.854 119.493C161.854 117.578 163.168 116.399 164.538 116.399C166.099 116.399 166.947 117.522 166.947 119.181C166.947 119.428 166.915 119.661 166.882 119.815H163.061C163.159 120.938 163.863 121.613 164.879 121.613C165.4 121.613 165.852 121.455 166.281 121.175L166.71 121.958C166.174 122.321 165.489 122.587 164.729 122.587C163.112 122.587 161.85 121.441 161.85 119.493H161.854ZM165.876 118.957C165.876 117.951 165.414 117.373 164.557 117.373C163.821 117.373 163.164 117.928 163.047 118.957H165.871H165.876Z" fill="#717071"/>
<path d="M168.51 121.758L169.097 120.956C169.609 121.376 170.127 121.641 170.756 121.641C171.45 121.641 171.786 121.296 171.786 120.849C171.786 120.313 171.133 120.08 170.49 119.833C169.707 119.535 168.841 119.116 168.841 118.123C168.841 117.131 169.633 116.399 170.938 116.399C171.72 116.399 172.382 116.721 172.843 117.094L172.275 117.853C171.856 117.555 171.441 117.341 170.97 117.341C170.308 117.341 170.006 117.662 170.006 118.067C170.006 118.561 170.583 118.752 171.236 118.999C172.051 119.311 172.96 119.675 172.96 120.775C172.96 121.772 172.177 122.582 170.723 122.582C169.908 122.582 169.074 122.228 168.51 121.758Z" fill="#717071"/>
<path d="M175.027 120.508V117.536H174.17V116.618L175.088 116.543L175.228 114.917H176.253V116.543H177.781V117.54H176.253V120.527C176.253 121.235 176.5 121.598 177.12 121.598C177.311 121.598 177.567 121.524 177.739 121.459L177.963 122.367C177.642 122.474 177.236 122.591 176.807 122.591C175.493 122.591 175.023 121.757 175.023 120.513L175.027 120.508Z" fill="#717071"/>
<path d="M179.875 121.044V113.906H181.105V121.11C181.105 121.44 181.245 121.557 181.394 121.557C181.45 121.557 181.492 121.557 181.608 121.534L181.758 122.465C181.608 122.531 181.403 122.582 181.096 122.582C180.206 122.582 179.875 122.004 179.875 121.04V121.044Z" fill="#717071"/>
<path d="M183.448 119.493C183.448 117.578 184.762 116.399 186.132 116.399C187.693 116.399 188.541 117.522 188.541 119.181C188.541 119.428 188.509 119.661 188.476 119.815H184.655C184.753 120.938 185.456 121.613 186.472 121.613C186.994 121.613 187.446 121.455 187.875 121.175L188.304 121.958C187.768 122.321 187.083 122.587 186.323 122.587C184.706 122.587 183.443 121.441 183.443 119.493H183.448ZM187.469 118.957C187.469 117.951 187.008 117.373 186.151 117.373C185.414 117.373 184.757 117.928 184.641 118.957H187.465H187.469Z" fill="#717071"/>
<path d="M140.246 136.607C140.246 135.335 141.318 134.683 143.769 134.412C143.76 133.737 143.513 133.14 142.646 133.14C142.026 133.14 141.448 133.42 140.945 133.741L140.484 132.907C141.094 132.521 141.919 132.139 142.86 132.139C144.328 132.139 144.999 133.061 144.999 134.631V138.172H143.993L143.895 137.497H143.853C143.317 137.958 142.688 138.322 141.98 138.322C140.964 138.322 140.246 137.646 140.246 136.612V136.607ZM143.769 136.64V135.204C142.026 135.41 141.434 135.857 141.434 136.509C141.434 137.096 141.83 137.334 142.352 137.334C142.874 137.334 143.284 137.087 143.764 136.64H143.769Z" fill="#717071"/>
<path d="M147.549 132.274H148.555L148.663 133.098H148.686C149.222 132.562 149.832 132.134 150.634 132.134C151.887 132.134 152.442 132.968 152.442 134.468V138.172H151.211V134.622C151.211 133.606 150.913 133.21 150.214 133.21C149.669 133.21 149.306 133.476 148.779 134.002V138.177H147.549V132.283V132.274Z" fill="#717071"/>
<path d="M154.633 135.227C154.633 133.312 155.84 132.133 157.149 132.133C157.834 132.133 158.263 132.38 158.733 132.795L158.692 131.821V129.641H159.922V138.167H158.915L158.808 137.506H158.775C158.337 137.953 157.727 138.321 157.051 138.321C155.583 138.321 154.633 137.189 154.633 135.227ZM158.687 136.564V133.694C158.249 133.298 157.829 133.158 157.391 133.158C156.576 133.158 155.905 133.941 155.905 135.213C155.905 136.485 156.427 137.277 157.35 137.277C157.843 137.277 158.258 137.063 158.687 136.56V136.564Z" fill="#717071"/>
<path d="M165.891 130.284H167.326L168.761 134.277C168.943 134.79 169.115 135.335 169.283 135.861H169.339C169.521 135.335 169.684 134.79 169.851 134.277L171.263 130.284H172.708V138.168H171.552V134.273C171.552 133.564 171.65 132.549 171.725 131.831H171.669L171.04 133.648L169.67 137.404H168.901L167.522 133.648L166.892 131.831H166.851C166.925 132.549 167.023 133.564 167.023 134.273V138.168H165.9V130.284H165.891Z" fill="#717071"/>
<path d="M175.047 135.228C175.047 133.271 176.361 132.134 177.829 132.134C179.297 132.134 180.587 133.266 180.587 135.228C180.587 137.189 179.283 138.321 177.829 138.321C176.375 138.321 175.047 137.189 175.047 135.228ZM179.329 135.228C179.329 133.988 178.751 133.15 177.833 133.15C176.915 133.15 176.324 133.984 176.324 135.228C176.324 136.472 176.901 137.292 177.833 137.292C178.765 137.292 179.329 136.476 179.329 135.228Z" fill="#717071"/>
<path d="M182.848 132.274H183.854L183.961 133.331H183.985C184.404 132.581 185.024 132.134 185.662 132.134C185.951 132.134 186.133 132.176 186.315 132.25L186.1 133.331C185.886 133.266 185.746 133.233 185.499 133.233C185.019 133.233 184.441 133.564 184.078 134.505V138.163H182.848V132.269V132.274Z" fill="#717071"/>
<path d="M188.221 136.243V133.271H187.363V132.348L188.281 132.274L188.421 130.647H189.446V132.274H190.975V133.271H189.446V136.257C189.446 136.965 189.693 137.329 190.313 137.329C190.504 137.329 190.76 137.254 190.933 137.189L191.156 138.098C190.835 138.205 190.429 138.321 190.001 138.321C188.687 138.321 188.216 137.487 188.216 136.243H188.221Z" fill="#717071"/>
<path d="M192.469 136.607C192.469 135.335 193.541 134.683 195.992 134.412C195.982 133.737 195.735 133.14 194.869 133.14C194.249 133.14 193.671 133.42 193.168 133.741L192.706 132.907C193.317 132.521 194.142 132.139 195.083 132.139C196.551 132.139 197.222 133.061 197.222 134.631V138.172H196.215L196.117 137.497H196.075C195.54 137.958 194.911 138.322 194.202 138.322C193.186 138.322 192.469 137.646 192.469 136.612V136.607ZM195.987 136.64V135.204C194.244 135.41 193.652 135.857 193.652 136.509C193.652 137.096 194.048 137.334 194.57 137.334C195.092 137.334 195.502 137.087 195.982 136.64H195.987Z" fill="#717071"/>
<path d="M199.768 132.274H200.774L200.881 133.331H200.905C201.324 132.581 201.944 132.134 202.582 132.134C202.871 132.134 203.053 132.176 203.234 132.25L203.02 133.331C202.806 133.266 202.666 133.233 202.419 133.233C201.939 133.233 201.361 133.564 200.998 134.505V138.163H199.768V132.269V132.274Z" fill="#717071"/>
<path d="M18.1035 122.982H22.768V124.031H19.343V126.44H22.2647V127.479H19.343V130.871H18.1035V122.987V122.982Z" fill="#717071"/>
<path d="M24.8555 129.478V122.34H26.0857V129.543C26.0857 129.874 26.2255 129.99 26.3746 129.99C26.4305 129.99 26.4724 129.99 26.5889 129.972L26.738 130.904C26.5889 130.969 26.3839 131.02 26.0763 131.02C25.1863 131.02 24.8555 130.442 24.8555 129.478Z" fill="#717071"/>
<path d="M28.374 133.215L28.6116 132.251C28.7188 132.283 28.8912 132.334 29.0496 132.334C29.6787 132.334 30.0562 131.864 30.2705 131.23L30.401 130.825L28.0664 124.973H29.3199L30.401 128.011C30.5827 128.532 30.7645 129.115 30.9462 129.669H30.9974C31.1466 129.124 31.3097 128.546 31.4588 128.011L32.4094 124.973H33.5976L31.4355 131.221C30.9741 132.483 30.3544 133.331 29.1242 133.331C28.812 133.331 28.579 133.29 28.374 133.215Z" fill="#717071"/>
<path d="M35.3164 123.132C35.3164 122.703 35.6286 122.405 36.0853 122.405C36.5419 122.405 36.8448 122.703 36.8448 123.132C36.8448 123.593 36.5326 123.882 36.0853 123.882C35.6379 123.882 35.3164 123.593 35.3164 123.132ZM35.4702 124.973H36.7004V130.867H35.4702V124.973Z" fill="#717071"/>
<path d="M39.3516 124.972H40.3581L40.4653 125.796H40.4886C41.0244 125.261 41.6349 124.832 42.4364 124.832C43.6899 124.832 44.2444 125.666 44.2444 127.166V130.871H43.0142V127.32C43.0142 126.304 42.716 125.908 42.017 125.908C41.4718 125.908 41.1083 126.174 40.5818 126.7V130.875H39.3516V124.981V124.972Z" fill="#717071"/>
<path d="M46.4019 131.961C46.4019 131.467 46.7141 131.011 47.2593 130.675V130.633C46.9611 130.428 46.7234 130.121 46.7234 129.65C46.7234 129.179 47.045 128.783 47.3851 128.56V128.518C46.9797 128.206 46.6023 127.651 46.6023 126.943C46.6023 125.615 47.6601 124.837 48.8809 124.837C49.2118 124.837 49.51 124.902 49.7383 124.977H51.8259V125.909H50.7122C50.9266 126.156 51.085 126.538 51.085 126.976C51.085 128.271 50.1111 129.007 48.8809 129.007C48.6246 129.007 48.3124 128.942 48.0561 128.835C47.8744 128.998 47.7346 129.156 47.7346 129.445C47.7346 129.79 47.9676 130.023 48.7178 130.023H49.8082C51.1875 130.023 51.9145 130.451 51.9145 131.444C51.9145 132.59 50.7262 133.508 48.8437 133.508C47.4224 133.508 46.3926 132.986 46.3926 131.956L46.4019 131.961ZM50.7262 131.649C50.7262 131.155 50.3395 131.006 49.6358 131.006H48.7458C48.4662 131.006 48.2006 130.987 47.9536 130.922C47.5995 131.178 47.4597 131.476 47.4597 131.779C47.4597 132.348 48.0468 132.697 49.0207 132.697C50.0459 132.697 50.7216 132.194 50.7216 131.649H50.7262ZM49.9993 126.943C49.9993 126.16 49.5053 125.704 48.8856 125.704C48.2658 125.704 47.7719 126.151 47.7719 126.943C47.7719 127.735 48.2752 128.206 48.8856 128.206C49.496 128.206 49.9993 127.735 49.9993 126.943Z" fill="#717071"/>
<path d="M57.1387 122.982H61.8032V124.031H58.3782V126.44H61.2999V127.479H58.3782V130.871H57.1387V122.987V122.982Z" fill="#717071"/>
<path d="M63.7422 123.132C63.7422 122.703 64.0544 122.405 64.5111 122.405C64.9677 122.405 65.2706 122.703 65.2706 123.132C65.2706 123.593 64.9584 123.882 64.5111 123.882C64.0637 123.882 63.7422 123.593 63.7422 123.132ZM63.8913 124.973H65.1215V130.867H63.8913V124.973Z" fill="#717071"/>
<path d="M67.1523 130.195L67.7395 129.394C68.2521 129.808 68.7693 130.079 69.3984 130.079C70.0927 130.079 70.4282 129.739 70.4282 129.287C70.4282 128.751 69.7758 128.518 69.1328 128.271C68.3499 127.973 67.4832 127.553 67.4832 126.561C67.4832 125.568 68.2754 124.837 69.5801 124.837C70.363 124.837 71.0247 125.158 71.486 125.531L70.9175 126.291C70.4981 125.992 70.0834 125.778 69.6127 125.778C68.951 125.778 68.6482 126.1 68.6482 126.505C68.6482 126.999 69.226 127.19 69.8783 127.437C70.6938 127.749 71.6025 128.112 71.6025 129.212C71.6025 130.204 70.8196 131.02 69.3658 131.02C68.5503 131.02 67.7162 130.666 67.1523 130.195Z" fill="#717071"/>
<path d="M73.7148 122.34H74.945V124.6L74.8938 125.764C75.4064 125.261 75.9982 124.833 76.7997 124.833C78.0531 124.833 78.6077 125.667 78.6077 127.167V130.871H77.3775V127.321C77.3775 126.305 77.0792 125.909 76.3803 125.909C75.8351 125.909 75.4716 126.174 74.945 126.701V130.876H73.7148V122.349V122.34Z" fill="#717071"/>
<path d="M264.134 115.719H261.832V114.671H267.708V115.719H265.397V122.554H264.134V115.719Z" fill="#717071"/>
<path d="M269.227 116.66H270.233L270.34 117.718H270.364C270.778 116.968 271.403 116.521 272.041 116.521C272.33 116.521 272.512 116.562 272.693 116.637L272.479 117.718C272.265 117.653 272.125 117.62 271.878 117.62C271.398 117.62 270.82 117.951 270.457 118.892V122.55H269.227V116.656V116.66Z" fill="#717071"/>
<path d="M274.26 114.82C274.26 114.391 274.572 114.093 275.029 114.093C275.485 114.093 275.788 114.391 275.788 114.82C275.788 115.281 275.476 115.57 275.029 115.57C274.581 115.57 274.26 115.281 274.26 114.82ZM274.409 116.66H275.639V122.554H274.409V116.66Z" fill="#717071"/>
<path d="M277.895 119.614C277.895 117.699 279.101 116.52 280.411 116.52C281.096 116.52 281.525 116.767 281.995 117.182L281.953 116.208V114.027H283.183V122.554H282.177L282.07 121.892H282.037C281.599 122.34 280.989 122.708 280.313 122.708C278.845 122.708 277.895 121.575 277.895 119.614ZM281.953 120.951V118.081C281.515 117.685 281.096 117.545 280.658 117.545C279.847 117.545 279.171 118.328 279.171 119.6C279.171 120.872 279.693 121.664 280.616 121.664C281.11 121.664 281.525 121.45 281.953 120.946V120.951Z" fill="#717071"/>
<path d="M285.419 119.614C285.419 117.699 286.733 116.521 288.103 116.521C289.664 116.521 290.512 117.643 290.512 119.302C290.512 119.549 290.479 119.782 290.447 119.936H286.626C286.723 121.059 287.427 121.734 288.443 121.734C288.965 121.734 289.417 121.576 289.846 121.296L290.274 122.079C289.738 122.443 289.053 122.708 288.294 122.708C286.677 122.708 285.414 121.562 285.414 119.614H285.419ZM289.44 119.078C289.44 118.072 288.979 117.494 288.126 117.494C287.39 117.494 286.733 118.049 286.616 119.078H289.44Z" fill="#717071"/>
<path d="M292.693 116.66H293.7L293.807 117.485H293.83C294.366 116.949 294.977 116.521 295.778 116.521C297.032 116.521 297.586 117.355 297.586 118.855V122.559H296.356V119.009C296.356 117.993 296.058 117.597 295.359 117.597C294.814 117.597 294.45 117.862 293.924 118.389V122.564H292.693V116.67V116.66Z" fill="#717071"/>
<path d="M300.367 120.629V117.657H299.51V116.739L300.428 116.664L300.568 115.038H301.597V116.664H303.126V117.661H301.597V120.648C301.597 121.356 301.844 121.72 302.464 121.72C302.655 121.72 302.911 121.645 303.084 121.58L303.308 122.488C302.986 122.596 302.581 122.712 302.152 122.712C300.838 122.712 300.367 121.878 300.367 120.634V120.629Z" fill="#717071"/>
<path d="M308.531 114.671H313.196V115.719H309.771V118.128H312.692V119.167H309.771V122.559H308.531V114.676V114.671Z" fill="#717071"/>
<path d="M315.135 114.82C315.135 114.391 315.447 114.093 315.904 114.093C316.36 114.093 316.663 114.391 316.663 114.82C316.663 115.281 316.351 115.57 315.904 115.57C315.456 115.57 315.135 115.281 315.135 114.82ZM315.284 116.66H316.514V122.554H315.284V116.66Z" fill="#717071"/>
<path d="M318.547 121.883L319.134 121.081C319.647 121.501 320.164 121.766 320.793 121.766C321.487 121.766 321.823 121.421 321.823 120.974C321.823 120.438 321.17 120.205 320.527 119.958C319.744 119.66 318.878 119.241 318.878 118.248C318.878 117.256 319.67 116.524 320.975 116.524C321.758 116.524 322.419 116.846 322.881 117.219L322.312 117.978C321.897 117.68 321.478 117.466 321.007 117.466C320.346 117.466 320.043 117.787 320.043 118.192C320.043 118.686 320.621 118.877 321.273 119.124C322.088 119.436 322.997 119.8 322.997 120.9C322.997 121.897 322.214 122.707 320.76 122.707C319.945 122.707 319.111 122.353 318.547 121.883Z" fill="#717071"/>
<path d="M325.106 114.027H326.336V116.287L326.281 117.452C326.793 116.949 327.385 116.52 328.186 116.52C329.44 116.52 329.994 117.354 329.994 118.854V122.559H328.764V119.008C328.764 117.992 328.466 117.596 327.767 117.596C327.222 117.596 326.858 117.862 326.332 118.388V122.563H325.102V114.037L325.106 114.027Z" fill="#717071"/>
<path d="M272.273 130.405H273.513V133.625H276.882V130.405H278.122V138.289H276.882V134.706H273.513V138.289H272.273V130.405Z" fill="#717071"/>
<path d="M280.555 136.728C280.555 135.456 281.626 134.804 284.078 134.534C284.068 133.858 283.821 133.262 282.954 133.262C282.335 133.262 281.757 133.541 281.254 133.863L280.792 133.029C281.403 132.642 282.228 132.26 283.169 132.26C284.637 132.26 285.308 133.182 285.308 134.753V138.294H284.301L284.203 137.618H284.161C283.626 138.079 282.996 138.443 282.288 138.443C281.272 138.443 280.555 137.767 280.555 136.733V136.728ZM284.078 136.761V135.326C282.335 135.531 281.743 135.978 281.743 136.63C281.743 137.217 282.139 137.455 282.661 137.455C283.183 137.455 283.593 137.208 284.073 136.761H284.078Z" fill="#717071"/>
<path d="M287.852 132.395H288.858L288.965 133.452H288.989C289.403 132.702 290.028 132.255 290.666 132.255C290.955 132.255 291.137 132.297 291.318 132.371L291.104 133.452C290.89 133.387 290.75 133.354 290.503 133.354C290.023 133.354 289.445 133.685 289.082 134.626V138.284H287.852V132.39V132.395Z" fill="#717071"/>
<path d="M293.033 132.395H294.04L294.147 133.047H294.17C294.683 132.618 295.326 132.255 295.988 132.255C297.474 132.255 298.308 133.434 298.308 135.251C298.308 137.273 297.097 138.438 295.773 138.438C295.261 138.438 294.725 138.191 294.231 137.762L294.263 138.769V140.674H293.033V132.395ZM297.036 135.274C297.036 134.044 296.64 133.285 295.657 133.285C295.195 133.285 294.757 133.532 294.263 134.002V136.882C294.725 137.268 295.181 137.403 295.536 137.403C296.393 137.403 297.031 136.644 297.031 135.274H297.036Z" fill="#717071"/>
<path d="M300.158 135.349C300.158 133.392 301.472 132.255 302.94 132.255C304.408 132.255 305.699 133.387 305.699 135.349C305.699 137.31 304.394 138.442 302.94 138.442C301.486 138.442 300.158 137.31 300.158 135.349ZM304.441 135.349C304.441 134.109 303.863 133.271 302.945 133.271C302.027 133.271 301.435 134.105 301.435 135.349C301.435 136.593 302.013 137.413 302.945 137.413C303.877 137.413 304.441 136.597 304.441 135.349Z" fill="#717071"/>
<path d="M307.545 135.349C307.545 133.392 308.859 132.255 310.327 132.255C311.795 132.255 313.09 133.387 313.09 135.349C313.09 137.31 311.785 138.442 310.327 138.442C308.868 138.442 307.545 137.31 307.545 135.349ZM311.823 135.349C311.823 134.109 311.245 133.271 310.327 133.271C309.409 133.271 308.817 134.105 308.817 135.349C308.817 136.593 309.395 137.413 310.327 137.413C311.259 137.413 311.823 136.597 311.823 135.349Z" fill="#717071"/>
<path d="M315.346 132.395H316.352L316.459 133.219H316.483C317.019 132.684 317.629 132.255 318.431 132.255C319.684 132.255 320.239 133.089 320.239 134.589V138.293H319.008V134.743C319.008 133.727 318.71 133.331 318.016 133.331C317.471 133.331 317.107 133.597 316.581 134.123V138.298H315.35V132.404L315.346 132.395Z" fill="#717071"/>
<path d="M164.749 68.4361C169.409 69.1443 176.208 69.4006 183.845 67.1968C191.063 57.0068 188.505 38.6538 188.505 38.6538C188.505 35.7324 180.928 33.3701 171.585 33.3701C162.242 33.3701 154.665 35.737 154.665 38.6538C154.665 38.6538 152.093 57.0954 159.376 67.2713C160.868 67.6953 162.68 68.1193 164.749 68.4361Z" fill="#5D97C4"/>
<path d="M183.765 69.1211C179.296 70.3651 175.111 70.7984 171.467 70.7984C168.835 70.7984 166.486 70.5748 164.506 70.2719C162.535 69.9691 160.801 69.573 159.347 69.1723C157.931 70.6726 154.413 75.4717 154.217 86.2208C154.217 86.2208 156.724 93.4241 171.579 93.6803C186.435 93.4241 188.942 86.2208 188.942 86.2208C188.746 75.3459 185.144 70.5608 183.765 69.1211Z" fill="#5D97C4"/>
<path d="M178.215 40.5734L181.234 30.2903L184.301 28.3613L191.337 4.41708C191.714 3.1311 190.978 1.7799 189.692 1.4025L185.251 0.0978904C183.965 -0.279514 182.614 0.456658 182.236 1.74263L175.2 25.6869L176.738 28.967L172.889 40.9508C172.889 40.9508 175.549 41.1185 178.215 40.5687V40.5734Z" fill="#2E59A6"/>
<path d="M294.431 1.89679V1.33301L294.394 1.61257L294.357 1.33301V1.89679C293.495 5.59162 293.057 9.37033 293.057 13.163V55.8936H295.731V13.1584C295.731 9.36567 295.293 5.58696 294.431 1.89213V1.89679Z" fill="#5D97C4"/>
<path d="M284.403 36.5293V13.1581C284.403 9.36545 283.965 5.58674 283.103 1.8919V1.32812L283.066 1.60768L283.029 1.32812V1.8919C282.167 5.58674 281.729 9.36545 281.729 13.1581V36.7017L289.142 46.9475V55.8934H291.621V46.2812L284.403 36.5339V36.5293Z" fill="#5D97C4"/>
<path d="M304.39 36.5293V13.1581C304.39 9.36545 304.828 5.58674 305.69 1.8919V1.32812L305.727 1.60768L305.765 1.32812V1.8919C306.627 5.58674 307.065 9.36545 307.065 13.1581V36.7017L299.651 46.9475V55.8934H297.172V46.2812L304.39 36.5339V36.5293Z" fill="#5D97C4"/>
<path d="M300.56 55.8936H288.234V74.7498H300.56V55.8936Z" fill="#2E59A6"/>
<path d="M298.331 72.8154H290.461V92.5616H298.331V72.8154Z" fill="#2E59A6"/>
<path d="M38.752 42.9404C38.752 42.9404 56.0493 51.7326 62.0791 68.9208C62.0791 68.9208 61.1611 48.7553 38.752 42.9404Z" fill="#5D97C4"/>
<path d="M58.477 69.6013C58.477 69.6013 57.8153 55.1062 41.7109 50.9268C41.7109 50.9268 54.148 57.2448 58.477 69.6013Z" fill="#5D97C4"/>
<path d="M88.7193 75.0055C87.5217 69.9222 77.0884 66.9588 72.7221 65.193C74.5907 55.1102 72.7221 42.9447 64.5581 35.9418C63.1927 35.6529 63.668 36.4916 63.4071 37.3675C61.9812 42.1806 61.5338 47.413 60.0101 52.2121C52.5497 43.0286 43.0296 34.5347 30.7137 33.3232C30.6438 35.9325 32.9318 38.6582 33.9523 41.1556C37.4052 49.6355 39.1154 57.8033 46.0073 64.5779C42.5171 64.6106 37.2887 67.737 33.8544 68.6921C15.0334 65.1836 5.06133 67.6298 -0.00390625 70.3136C5.27102 71.3526 13.1741 74.288 14.2878 82.5489L35.723 71.5809C35.723 71.5809 37.0557 71.6088 39.1946 71.73C36.1657 72.373 29.2505 77.8989 30.3875 78.9053C35.9094 79.4831 40.6531 77.5402 45.3549 74.9915C45.49 73.7708 44.0268 74.4464 43.3931 74.656C40.4481 75.6345 37.5776 77.3072 34.2925 76.9438C36.0119 74.1901 38.6028 72.6572 41.5525 71.8744C42.1443 71.9164 42.7873 71.9676 43.435 72.0235C41.2356 72.4429 38.696 73.5751 36.5152 76.2821C36.5152 76.2821 40.7137 72.9181 46.3288 72.2891C51.6876 72.8389 58.0669 73.8034 62.9458 75.4901L60.0427 72.9088C56.4546 70.02 54.4742 68.8552 50.9187 65.8639C41.0818 57.5936 38.6587 48.4893 34.2971 36.9063C33.7286 35.1404 43.5096 40.1771 44.2598 40.6197C55.3036 47.1148 63.3185 58.437 68.8265 69.7871C70.1638 68.4032 76.1098 70.4021 77.6009 71.6881C76.4593 72.0468 75.6345 73.0486 75.6345 74.2414C75.6345 75.0567 76.0213 75.7743 76.627 76.2728C76.627 76.2821 76.627 76.2915 76.627 76.3008L76.641 76.2868C77.1396 76.6922 77.7827 76.9484 78.4956 76.9484C78.6261 76.9484 78.7473 76.9298 78.8731 76.9112L79.2226 77.6007C75.504 77.638 71.4826 75.9467 73.3558 71.7486C72.2561 71.9769 71.9998 73.0626 71.9998 74.0317C71.9952 80.182 90.3223 81.8174 88.7193 75.0055ZM12.0185 71.8185C19.614 66.5209 28.5609 70.1132 28.5609 70.1132C19.7445 68.5523 12.0185 71.8185 12.0185 71.8185ZM14.3624 76.8646C20.8069 70.2157 30.2757 72.0328 30.2757 72.0328C21.3241 72.1819 14.3624 76.8646 14.3624 76.8646ZM76.4593 74.3113C76.4593 73.2303 77.3353 72.359 78.4117 72.359C79.381 72.359 80.1778 73.0672 80.3316 73.9898C80.038 73.426 79.4695 73.0299 78.7892 73.0299C77.8199 73.0299 77.0324 73.8174 77.0324 74.7865C77.0324 75.3363 77.3027 75.8115 77.7035 76.133C76.9765 75.8488 76.4593 75.1453 76.4593 74.3159V74.3113Z" fill="#5D97C4"/>
<path d="M26.4079 59.4012C26.4964 59.8485 25.9 59.6528 25.6297 59.6389C20.2755 59.336 12.8897 56.396 9.56724 52.0442C6.51971 48.0511 5.33611 41.2346 9.93071 37.9078C13.1274 35.5968 18.4069 37.2089 18.1367 41.5328C18.0155 43.499 15.5551 45.5724 15.2616 47.8182C14.4927 53.7542 21.4265 58.1293 26.4079 59.4012Z" fill="#2E59A6"/>
<path d="M22.819 40.1721C24.0026 39.9485 25.82 40.6847 26.5096 41.6585C28.1732 44.0161 26.2627 46.3364 25.8666 48.8198C25.1536 53.2602 27.0502 56.1163 29.6271 59.4384C23.9514 57.3557 18.4994 49.118 20.0511 43.1029C20.3773 41.8402 21.4584 40.4284 22.8237 40.1721H22.819Z" fill="#2E59A6"/>
</g>
<defs>
<clipPath id="clip0_997_874">
<rect width="330" height="303" fill="white"/>
</clipPath>
</defs>
</svg>
