<svg width="330" height="261" viewBox="0 0 330 261" fill="none" xmlns="http://www.w3.org/2000/svg">
<g clip-path="url(#clip0_997_478)">
<path d="M100.096 171.274V171.236V171.217V156.703V156.684V156.646C97.8169 155.841 95.3688 155.375 92.8124 155.375C90.2513 155.375 87.8079 155.836 85.5293 156.646V156.684V156.703V171.217V171.236V171.274C87.8126 172.079 90.256 172.545 92.8124 172.545C95.3688 172.545 97.8169 172.083 100.096 171.274Z" fill="#5D97C4"/>
<path d="M114.666 185.882V185.844V185.825V171.311V171.292V171.255C112.387 170.449 109.939 169.983 107.383 169.983C104.822 169.983 102.378 170.445 100.1 171.255V171.292V171.311V185.825V185.844V185.882C102.383 186.687 104.826 187.153 107.383 187.153C109.939 187.153 112.387 186.692 114.666 185.882Z" fill="#2E59A6"/>
<path d="M100.096 200.434V200.396V200.377V185.863V185.844V185.806C97.8169 185.001 95.3688 184.535 92.8124 184.535C90.2513 184.535 87.8079 184.997 85.5293 185.806V185.844V185.863V200.377V200.396V200.434C87.8126 201.239 90.256 201.705 92.8124 201.705C95.3688 201.705 97.8169 201.243 100.096 200.434Z" fill="#5D97C4"/>
<path d="M114.666 215.043V215.005V214.987V200.472V200.453V200.416C112.387 199.611 109.939 199.145 107.383 199.145C104.822 199.145 102.378 199.606 100.1 200.416V200.453V200.472V214.987V215.005V215.043C102.383 215.848 104.826 216.314 107.383 216.314C109.939 216.314 112.387 215.853 114.666 215.043Z" fill="#2E59A6"/>
<path d="M100.096 229.59V229.552V229.533V215.019V215V214.963C97.8169 214.157 95.3688 213.691 92.8124 213.691C90.2513 213.691 87.8079 214.153 85.5293 214.963V215V215.019V229.533V229.552V229.59C87.8126 230.395 90.256 230.861 92.8124 230.861C95.3688 230.861 97.8169 230.4 100.096 229.59Z" fill="#5D97C4"/>
<path d="M129.232 171.274V171.236V171.217V156.703V156.684V156.646C126.954 155.841 124.506 155.375 121.949 155.375C119.388 155.375 116.945 155.836 114.666 156.646V156.684V156.703V171.217V171.236V171.274C116.949 172.079 119.393 172.545 121.949 172.545C124.506 172.545 126.954 172.083 129.232 171.274Z" fill="#5D97C4"/>
<path d="M129.232 200.434V200.396V200.377V185.863V185.844V185.806C126.954 185.001 124.506 184.535 121.949 184.535C119.388 184.535 116.945 184.997 114.666 185.806V185.844V185.863V200.377V200.396V200.434C116.949 201.239 119.393 201.705 121.949 201.705C124.506 201.705 126.954 201.243 129.232 200.434Z" fill="#5D97C4"/>
<path d="M129.232 229.59V229.552V229.533V215.019V215V214.963C126.954 214.157 124.506 213.691 121.949 213.691C119.388 213.691 116.945 214.153 114.666 214.963V215V215.019V229.533V229.552V229.59C116.949 230.395 119.393 230.861 121.949 230.861C124.506 230.861 126.954 230.4 129.232 229.59Z" fill="#5D97C4"/>
<path d="M282.558 167.775C282.059 166.956 280.633 165.558 279.945 165.209C278.429 164.433 275.487 164.159 273.882 164.814C273.194 165.092 272.267 165.732 271.664 166.184C266.311 170.162 260.252 175.181 255.111 179.493C247.202 186.131 240.451 194.008 233.158 201.291L283.071 173.674C283.73 171.734 283.608 169.498 282.558 167.775Z" fill="#5D97C4"/>
<path d="M212.929 218.852C212.905 218.861 212.882 218.866 212.858 218.875L210.678 218.31L209.864 217.27L206.832 219.652L210.029 223.724L211.041 225.014L214.238 229.087L217.269 226.709L216.511 225.739C216.493 225.636 216.479 225.532 216.45 225.429L216.422 223.352C223.055 218.037 229.679 212.694 236.807 208.033C242.202 204.507 248.073 201.329 253.332 197.92C263.266 191.48 272.173 183.669 281.447 176.33C282.201 175.605 282.737 174.673 283.076 173.67L233.163 201.286C233.046 201.404 232.933 201.522 232.815 201.64C226.586 207.83 219.812 213.395 212.929 218.852Z" fill="#2E59A6"/>
<path d="M239.448 165.228L240.22 165.346C240.479 165.384 240.658 165.629 240.62 165.888C240.583 166.146 240.338 166.325 240.079 166.288L239.321 166.175C239.302 166.401 239.288 166.627 239.283 166.853L240.145 166.895C240.408 166.909 240.611 167.13 240.597 167.394C240.583 167.658 240.361 167.86 240.098 167.846L239.297 167.808C239.316 168.077 239.344 168.34 239.377 168.604L240.131 168.547C240.394 168.529 240.62 168.726 240.639 168.985C240.658 169.249 240.46 169.475 240.201 169.494L239.556 169.541C239.622 169.828 239.702 170.106 239.792 170.388L240.338 170.2C240.587 170.115 240.856 170.247 240.94 170.497C241.025 170.746 240.893 171.014 240.644 171.099L240.121 171.278C240.248 171.584 240.39 171.881 240.55 172.173L241.124 171.895C241.359 171.782 241.647 171.881 241.76 172.116C241.873 172.351 241.774 172.639 241.538 172.752L241.039 172.992C241.251 173.312 241.482 173.623 241.731 173.924L242.268 173.397C242.456 173.213 242.758 173.213 242.941 173.397C243.125 173.585 243.125 173.886 242.941 174.07L242.376 174.625C242.579 174.828 242.791 175.026 243.012 175.214L243.501 174.484C243.647 174.268 243.944 174.206 244.161 174.352C244.377 174.498 244.438 174.795 244.292 175.011L243.765 175.798C244.029 175.986 244.302 176.16 244.584 176.325C244.631 176.217 244.678 176.113 244.726 176.005C246.623 171.306 244.396 165.968 239.754 163.99C239.627 164.4 239.528 164.809 239.457 165.224L239.448 165.228Z" fill="#2E59A6"/>
<path d="M241.793 178.034C241.769 178.025 241.741 178.01 241.717 177.992C241.501 177.846 241.439 177.549 241.585 177.333L242.155 176.485C241.854 176.236 241.562 175.967 241.289 175.694L240.625 176.349C240.484 176.49 240.272 176.523 240.098 176.447C240.046 176.424 239.994 176.391 239.952 176.349C239.768 176.16 239.768 175.859 239.952 175.675L240.639 174.997C240.281 174.574 239.952 174.122 239.655 173.656L238.577 174.174C238.445 174.235 238.304 174.235 238.177 174.178C238.078 174.136 237.993 174.056 237.941 173.948C237.828 173.712 237.927 173.425 238.163 173.312L239.175 172.827C238.991 172.483 238.827 172.13 238.681 171.768L237.48 172.182C237.362 172.224 237.24 172.215 237.132 172.168C237.014 172.116 236.92 172.017 236.873 171.89C236.788 171.641 236.92 171.372 237.169 171.288L238.351 170.878C238.219 170.473 238.106 170.064 238.017 169.649L236.812 169.739C236.732 169.743 236.656 169.729 236.586 169.701C236.43 169.63 236.317 169.48 236.303 169.301C236.284 169.037 236.482 168.811 236.741 168.792L237.852 168.712C237.81 168.388 237.777 168.063 237.763 167.733L236.623 167.677C236.562 167.677 236.506 167.658 236.454 167.639C236.28 167.564 236.162 167.385 236.171 167.182C236.185 166.919 236.407 166.716 236.67 166.73L237.753 166.782C237.763 166.504 237.777 166.227 237.805 165.949L236.75 165.789C236.708 165.784 236.666 165.77 236.628 165.756C236.435 165.671 236.317 165.469 236.35 165.252C236.388 164.993 236.633 164.814 236.892 164.852L237.932 165.007C238.021 164.508 238.139 164.014 238.295 163.52C234.495 162.592 230.517 164.165 228.375 167.394C228.733 167.597 229.076 167.813 229.411 168.049L229.91 167.389C230.07 167.182 230.366 167.14 230.574 167.3C230.748 167.432 230.804 167.663 230.729 167.856C230.715 167.893 230.691 167.931 230.668 167.964L230.169 168.623C230.39 168.807 230.602 168.995 230.809 169.193L231.379 168.581C231.558 168.388 231.859 168.378 232.052 168.557C232.198 168.694 232.24 168.905 232.17 169.084C232.146 169.136 232.118 169.188 232.075 169.23L231.473 169.875C231.699 170.129 231.915 170.388 232.118 170.657L232.772 170.106C232.975 169.936 233.271 169.965 233.441 170.162C233.558 170.304 233.582 170.487 233.516 170.647C233.488 170.718 233.441 170.779 233.379 170.831L232.659 171.434C232.899 171.81 233.121 172.201 233.318 172.601L234.199 172.187C234.439 172.074 234.721 172.177 234.83 172.413C234.886 172.54 234.886 172.676 234.839 172.794C234.797 172.902 234.712 172.992 234.599 173.048L233.7 173.472C233.85 173.844 233.977 174.221 234.09 174.607L234.895 174.338C235.145 174.254 235.413 174.39 235.498 174.64C235.536 174.753 235.531 174.866 235.489 174.969C235.437 175.092 235.338 175.195 235.197 175.242L234.321 175.534C234.439 176.104 234.519 176.683 234.552 177.267H235.258C235.522 177.271 235.733 177.488 235.729 177.752C235.729 177.813 235.715 177.874 235.696 177.926C235.625 178.1 235.451 178.227 235.253 178.222H234.575C234.571 178.623 234.542 179.032 234.495 179.437L235.253 179.597C235.512 179.654 235.672 179.903 235.62 180.162C235.616 180.19 235.606 180.218 235.597 180.242C235.512 180.454 235.286 180.576 235.056 180.529L234.345 180.379C234.265 180.783 234.166 181.184 234.043 181.579C237.805 182.436 241.722 180.854 243.836 177.657C243.511 177.474 243.2 177.271 242.904 177.059L242.367 177.855C242.235 178.048 241.986 178.119 241.778 178.025L241.793 178.034Z" fill="#2E59A6"/>
<path d="M231.351 179.258C231.407 178.999 231.657 178.839 231.916 178.89L233.018 179.126C233.051 178.82 233.069 178.514 233.074 178.212L232.024 178.203C231.761 178.203 231.549 177.986 231.553 177.723C231.553 177.459 231.77 177.247 232.034 177.252L233.05 177.261C233.022 176.847 232.966 176.433 232.89 176.023L232.109 176.287C231.859 176.372 231.591 176.235 231.506 175.986C231.422 175.736 231.558 175.468 231.808 175.383L232.669 175.096C232.575 174.766 232.467 174.441 232.344 174.126L231.591 174.479C231.351 174.592 231.068 174.488 230.96 174.253C230.847 174.013 230.951 173.73 231.186 173.622L231.958 173.26C231.817 172.977 231.662 172.699 231.497 172.431L230.791 173.024C230.588 173.194 230.292 173.165 230.122 172.968C229.953 172.765 229.981 172.469 230.179 172.299L230.96 171.645C230.795 171.424 230.621 171.207 230.438 170.995L229.717 171.767C229.538 171.96 229.237 171.97 229.044 171.791C228.851 171.612 228.842 171.311 229.021 171.118L229.779 170.308C229.609 170.148 229.435 169.992 229.256 169.842L228.653 170.637C228.493 170.844 228.197 170.887 227.99 170.727C227.782 170.567 227.74 170.27 227.9 170.063L228.507 169.267C228.234 169.079 227.952 168.9 227.66 168.735C227.608 168.848 227.561 168.957 227.514 169.07C225.598 173.815 227.881 179.21 232.617 181.141C232.726 180.788 232.81 180.434 232.881 180.081L231.728 179.837C231.469 179.78 231.309 179.531 231.36 179.272L231.351 179.258Z" fill="#2E59A6"/>
<path d="M82.6654 249.566C82.3311 250.413 81.9357 251.406 81.5684 252.164H83.6258V253.158H76.0508V252.164H80.5186C80.914 251.345 81.3519 250.149 81.5826 249.33L82.6607 249.566H82.6654ZM83.3104 249.241H76.4792V248.247H79.5017C79.3416 247.767 79.1062 247.197 78.9038 246.746L79.8548 246.468C80.1608 247.037 80.4527 247.753 80.6269 248.247H83.3151V249.241H83.3104ZM76.8841 254.485H82.9573V259.655H81.8933V259.071H77.9104V259.772H76.8888V254.49L76.8841 254.485ZM78.2729 252.103C78.1411 251.43 77.7645 250.394 77.369 249.608L78.287 249.373C78.7249 250.131 79.1203 251.152 79.2522 251.839L78.2729 252.103ZM77.9057 255.46V258.101H81.8886V255.46H77.9057ZM89.0446 247.753C88.5173 249.081 87.8488 250.747 87.2367 252.089C88.5361 253.459 88.8563 254.584 88.8563 255.606C88.8563 256.439 88.6679 257.155 88.1972 257.461C87.9476 257.635 87.6275 257.738 87.2932 257.767C86.926 257.809 86.4599 257.809 86.0504 257.795C86.0362 257.503 85.9327 257.065 85.7585 256.759C86.1822 256.802 86.5918 256.802 86.8837 256.787C87.1002 256.773 87.3074 256.731 87.4674 256.642C87.7593 256.453 87.8629 256.001 87.8488 255.502C87.8488 254.584 87.4863 253.53 86.1869 252.202C86.7283 250.978 87.2979 249.429 87.6887 248.304H85.3677V259.833H84.3885V247.31H88.1265L88.3007 247.254L89.0446 247.748V247.753Z" fill="#717071"/>
<path d="M94.4318 254.631C93.8763 254.235 92.784 253.581 91.9648 253.129L92.5769 252.399C93.396 252.809 94.5024 253.421 95.0721 253.802L94.4318 254.636V254.631ZM95.3922 248.53H92.2379V247.55H95.3922V246.543H96.4421V247.55H98.2358V248.53H96.4421V249.754H95.3922V248.53ZM92.2379 258.981C93.043 258.105 94.2246 256.646 95.1286 255.332L95.8018 256.105C94.9826 257.314 93.9327 258.746 93.0288 259.814L92.2426 258.981H92.2379ZM93.5702 249.608C94.3282 250.06 95.4393 250.686 96.0372 251.039L95.3969 251.858C94.8414 251.491 93.7162 250.808 92.93 250.309L93.5702 249.608ZM104.267 250.747C103.64 251.754 102.704 252.63 101.625 253.374C102.821 253.958 104.182 254.424 105.481 254.702C105.246 254.923 104.973 255.328 104.808 255.606C103.405 255.257 101.974 254.673 100.693 253.939C99.2903 254.725 97.7132 255.314 96.2396 255.69C96.1219 255.427 95.8912 255.017 95.6982 254.815C97.0258 254.523 98.4853 254.028 99.7705 253.369C99.1303 252.946 98.5465 252.451 98.0474 251.952C97.5531 252.446 96.9976 252.946 96.3809 253.397C96.1925 253.176 95.8536 252.884 95.6088 252.738C97.1247 251.717 98.2781 250.361 98.909 249.278L99.973 249.481C99.7988 249.772 99.5916 250.05 99.3751 250.356H103.405L103.579 250.3L104.267 250.738V250.747ZM97.2047 255.535H103.89V259.871H102.826V259.245H98.2405V259.871H97.2047V255.535ZM98.2405 256.396V258.383H102.826V256.396H98.2405ZM98.6359 251.317C99.1773 251.872 99.8741 252.381 100.679 252.866C101.465 252.371 102.167 251.83 102.694 251.218H98.7254L98.6359 251.321V251.317ZM100.707 248.511H98.9843V247.546H100.707V246.538H101.771V247.546H104.954V248.511H101.771V249.754H100.707V248.511Z" fill="#717071"/>
<path d="M121.182 257.663V258.741H108.16V257.663H114.026V249.283H108.918V248.172H120.452V249.283H115.213V257.663H121.182Z" fill="#717071"/>
<path d="M124.232 256.919H137.179V257.621H133.342C134.524 258.101 135.927 258.963 136.671 259.579L135.927 260.107C135.649 259.857 135.287 259.598 134.863 259.32C126.746 259.702 125.96 259.73 125.433 259.89C125.391 259.702 125.23 259.306 125.113 259.071C125.391 259.043 125.725 258.925 126.12 258.751C126.44 258.605 127.245 258.167 128.093 257.626H124.237V256.924L124.232 256.919ZM126.888 251.374C126.652 252.221 126.068 252.659 124.713 252.937C124.656 252.762 124.449 252.485 124.289 252.367C125.4 252.193 125.908 251.915 126.116 251.374H124.496V250.733H127.165V250.121H125.193V249.495H127.165V249.029H128.098V249.495H130.023V250.121H128.098V250.733H130.696V251.374H128.799V251.665C128.799 251.957 128.813 252.033 129.016 252.033H129.877C130.023 252.033 130.315 252.033 130.489 251.976C130.503 252.164 130.517 252.386 130.546 252.574C130.4 252.616 130.108 252.631 129.872 252.631H128.865C128.192 252.631 128.06 252.339 128.06 251.651V251.374H126.878H126.888ZM127.749 248.323H124.378V247.504H127.749V246.524H128.813V247.504H130.522V248.323H128.813V248.982H127.749V248.323ZM136.242 254.236C136.36 254.236 136.459 254.222 136.506 254.194C136.562 254.151 136.624 254.048 136.638 253.888C136.666 253.713 136.68 253.304 136.694 252.776C136.868 252.922 137.132 253.054 137.353 253.125C137.339 253.638 137.297 254.25 137.222 254.452C137.165 254.655 137.033 254.801 136.887 254.89C136.741 254.98 136.506 255.008 136.303 255.008H135.72C135.456 255.008 135.192 254.952 135.018 254.773C134.83 254.613 134.769 254.405 134.769 253.633V250.931H133.559C133.545 251.397 133.488 251.896 133.323 252.39C133.804 252.696 134.199 252.988 134.477 253.266L133.935 253.953C133.7 253.737 133.38 253.473 133.017 253.21C132.636 253.953 132.024 254.669 131.002 255.281C130.899 255.149 130.668 254.947 130.461 254.787C128.3 254.961 126.068 255.121 124.491 255.225L124.435 254.509C125.179 254.481 126.116 254.42 127.165 254.363V253.633H125.047V253.007H127.165V252.263H128.098V253.007H130.23V253.633H128.098V254.307L130.668 254.146V254.509C131.454 253.939 131.953 253.327 132.259 252.715C131.793 252.452 131.327 252.207 130.889 252L131.417 251.388C131.765 251.548 132.175 251.736 132.542 251.943C132.645 251.595 132.688 251.256 132.702 250.936H131.068V250.117H132.716V249.123H133.578V250.117H135.663V253.695C135.663 253.972 135.677 254.132 135.739 254.175C135.767 254.217 135.842 254.231 135.927 254.231H136.247L136.242 254.236ZM135.442 255.493V256.194H126.054V255.493H135.442ZM133.719 258.643C133.323 258.426 132.914 258.219 132.551 258.059L133.239 257.621H129.576C128.86 258.101 128.131 258.539 127.415 258.892L133.719 258.643ZM132.58 248.323H130.988V247.504H132.58V246.524H133.644V247.504H137.104V248.323H133.644V248.982H132.58V248.323Z" fill="#717071"/>
<path d="M214.312 254.222C214.124 253.784 213.653 252.908 213.277 252.221V259.857H212.297V253.229C211.874 254.73 211.318 256.176 210.748 257.07C210.631 256.792 210.381 256.369 210.207 256.119C211.012 254.895 211.784 252.645 212.166 250.705H210.546V249.684H212.297V246.529H213.277V249.684H214.793V250.705H213.277V250.941C213.583 251.364 214.665 253.026 214.91 253.436L214.312 254.222ZM221.247 252.527C221.845 253.535 222.81 254.5 223.756 254.994C223.54 255.168 223.215 255.507 223.055 255.738C221.991 255.065 220.922 253.798 220.324 252.527H218.017C217.636 253.186 217.212 253.812 216.718 254.368H218.559V253.026H219.609V254.368H221.242V255.258H219.609V256.585H222.471V257.518H219.609V259.867H218.559V257.518H215.39V256.585H218.559V255.258H216.662V254.424C216.181 254.952 215.612 255.432 214.981 255.842C214.863 255.592 214.599 255.182 214.425 254.966C215.433 254.326 216.233 253.478 216.85 252.527H214.91V251.623H217.377C217.551 251.275 217.711 250.894 217.857 250.526H215.668V249.679H218.163C218.267 249.33 218.352 248.992 218.441 248.643H215.244V247.753H218.644C218.733 247.344 218.804 246.934 218.865 246.529L219.915 246.675C219.858 247.038 219.783 247.391 219.712 247.753H222.951V248.643H219.505C219.416 248.992 219.317 249.33 219.213 249.679H222.513V250.526H218.935C218.79 250.889 218.644 251.27 218.484 251.623H223.3V252.527H221.242H221.247Z" fill="#717071"/>
<path d="M231.124 256.863C229.504 257.376 227.781 257.913 226.468 258.351L226.232 257.301C226.76 257.155 227.414 256.967 228.144 256.745V252.715H226.524V251.708H228.144V248.539H226.392V247.518H230.846V248.539H229.165V251.708H230.639V252.715H229.165V256.439L230.959 255.87L231.119 256.863H231.124ZM239.415 251.402C238.657 252.452 237.663 253.723 236.872 254.542C237.531 255.959 238.464 257.037 239.852 258.002C239.603 258.191 239.311 258.511 239.165 258.822C237.531 257.612 236.477 256.265 235.794 254.429V258.515C235.794 259.175 235.62 259.481 235.225 259.655C234.801 259.857 234.146 259.89 233.007 259.89C232.951 259.598 232.772 259.132 232.612 258.84C233.459 258.869 234.203 258.854 234.419 258.854C234.655 258.84 234.74 258.765 234.74 258.52V255.074C233.544 256.284 232.301 257.484 231.308 258.417L230.634 257.484C231.628 256.665 233.233 255.234 234.735 253.878V250.084H231.204V249.076H234.735V246.553H235.785V249.076H239.608V250.084H235.785V250.611C235.973 251.778 236.194 252.786 236.5 253.662C237.202 252.828 237.974 251.736 238.454 250.903L239.405 251.416L239.415 251.402ZM232.263 250.978C232.904 251.811 233.591 252.937 233.855 253.68L232.965 254.104C232.701 253.374 232.047 252.207 231.416 251.374L232.263 250.978ZM238.219 248.878C237.87 248.398 237.141 247.725 236.496 247.273L237.122 246.703C237.748 247.141 238.511 247.781 238.873 248.219L238.214 248.878H238.219Z" fill="#717071"/>
<path d="M255.441 248.337H244.754V251.463C244.754 253.798 244.566 257.245 243.219 259.566C243.017 259.391 242.565 259.128 242.287 259.024C243.558 256.807 243.69 253.681 243.69 251.463V247.349H255.441V248.342V248.337ZM248.186 256.176C247.442 257.226 246.435 258.455 245.616 259.241C245.394 259.081 244.956 258.789 244.698 258.629C245.559 257.899 246.524 256.802 247.179 255.828L248.186 256.176ZM250.681 255.112V258.676C250.681 259.245 250.564 259.523 250.126 259.683C249.688 259.858 248.972 259.858 247.861 259.858C247.819 259.566 247.659 259.17 247.527 258.892C248.374 258.906 249.118 258.907 249.335 258.907C249.57 258.892 249.627 258.831 249.627 258.657V255.107H246.063V249.853H248.911C249.128 249.415 249.335 248.888 249.467 248.511L250.724 248.7C250.507 249.095 250.286 249.486 250.083 249.853H254.288V255.107H250.681V255.112ZM247.136 252.075H253.195V250.719H247.136V252.075ZM247.136 254.25H253.195V252.895H247.136V254.25ZM252.772 255.856C253.633 256.76 254.801 258.003 255.384 258.746L254.481 259.33C253.939 258.544 252.786 257.259 251.91 256.308L252.772 255.856Z" fill="#717071"/>
<path d="M262.912 252.715C262.446 256.043 261.292 258.261 259.075 259.678C258.957 259.518 258.651 259.122 258.463 258.948C260.012 258.073 260.972 256.717 261.542 254.876C259.367 255.21 259 255.3 258.783 255.431C258.741 255.229 258.581 254.772 258.463 254.527C258.755 254.471 259.061 254.09 259.428 253.562C259.663 253.27 260.186 252.484 260.756 251.505C259.31 251.665 259.004 251.74 258.83 251.825C258.774 251.623 258.614 251.124 258.496 250.879C258.712 250.836 258.934 250.545 259.155 250.135C259.404 249.74 260.191 248.177 260.6 246.703L261.608 246.981C261.142 248.294 260.483 249.683 259.842 250.733L261.259 250.615C261.495 250.149 261.725 249.669 261.933 249.184L262.822 249.551C262.003 251.232 260.996 252.908 259.974 254.236L261.782 253.986C261.886 253.562 261.97 253.096 262.017 252.597L262.921 252.715H262.912ZM265.963 254.994C266.575 256.251 267.205 257.87 267.422 258.863L266.504 259.231C266.447 258.896 266.33 258.473 266.184 258.021C263.439 258.911 263.044 259.071 262.813 259.264C262.738 259.028 262.563 258.652 262.418 258.444C262.681 258.341 263.077 258.096 263.077 257.498V248.026H264.64C264.437 247.659 264.188 247.24 263.938 246.901L264.771 246.566C265.12 247.004 265.501 247.588 265.704 248.026H266.914V254.433H264.037V257.776L265.906 257.206C265.671 256.533 265.398 255.879 265.101 255.295L265.963 255.003V254.994ZM264.037 248.953V250.794H265.996V248.953H264.037ZM265.991 253.492V251.698H264.032V253.492H265.991ZM271.758 247.668C271.306 249.024 270.708 250.719 270.181 252.075C271.306 253.463 271.598 254.617 271.598 255.639C271.598 256.486 271.424 257.202 271.014 257.508C270.793 257.668 270.501 257.757 270.195 257.799C269.889 257.842 269.493 257.842 269.131 257.814C269.117 257.536 269.027 257.112 268.867 256.82C269.235 256.863 269.569 256.863 269.818 256.848C270.007 256.848 270.2 256.792 270.313 256.688C270.576 256.514 270.647 256.029 270.647 255.535C270.647 254.617 270.341 253.52 269.216 252.192C269.696 250.954 270.195 249.377 270.529 248.238H268.571V259.843H267.639V247.273H270.911L271.071 247.216L271.758 247.668Z" fill="#717071"/>
<path d="M162.889 123.201C162.687 122.791 162.263 122.019 161.882 121.374V129.039H160.818V122.179C160.337 123.709 159.706 125.174 159.052 126.092C158.948 125.771 158.685 125.305 158.482 125.042C159.429 123.832 160.351 121.539 160.789 119.552H158.746V118.531H160.818V115.729H161.882V118.531H163.633V119.552H161.882V120.061C162.249 120.484 163.327 122 163.576 122.382L162.889 123.201ZM171.867 123.7H168.218V129.058H167.154V123.7H163.477V122.65H167.154V119.147H165.417C165.069 119.981 164.673 120.71 164.221 121.294C164.005 121.148 163.506 120.899 163.214 120.8C164.25 119.604 164.951 117.735 165.314 115.748L166.392 115.908C166.232 116.666 166.029 117.41 165.808 118.098H171.457V119.147H168.218V122.65H171.867V123.7Z" fill="#717071"/>
<path d="M187.129 117.349V128.968H185.99V127.904H176.635V129.072H175.496V117.773C177.144 117.231 179.027 116.459 180.138 115.758L180.986 116.723C179.79 117.363 178.17 117.966 176.635 118.446V121.935H180.458V123.013H176.635V126.807H185.99V123.013H181.875V121.935H185.99V118.418H181.772V117.354H187.129V117.349Z" fill="#717071"/>
<path d="M30.4736 126.087C29.9604 125.72 29.0565 125.225 28.1808 124.844C28.4586 126.567 29.0847 127.791 30.37 127.895C30.5583 127.923 30.6901 127.367 30.7655 126.407C30.9679 126.657 31.2315 126.887 31.4528 127.005C31.2786 128.479 30.9114 129.02 30.1393 128.874C27.6441 128.596 27.1168 125.941 26.9427 122.73H24.7111V128.761H23.6471V122.73H21.2367C21.1472 124.816 20.6953 127.066 18.7133 128.846C18.5391 128.624 18.1718 128.276 17.9082 128.116C19.7019 126.525 20.1115 124.552 20.2009 122.73H18.1295V121.737H20.2151V119.708C19.7207 119.84 19.1935 119.957 18.7133 120.056C18.6568 119.821 18.4779 119.486 18.3319 119.27C19.8479 118.921 21.5286 118.38 22.5078 117.825L23.3552 118.644C22.7432 118.921 22.0276 119.185 21.2555 119.416V121.737H23.6471V117.754H24.7111V121.737H27.9219C27.936 122.481 27.9784 123.196 28.0396 123.884L28.3597 124.001C28.9011 123.549 29.5414 122.937 29.9086 122.499L30.8267 122.994C30.2994 123.46 29.7015 123.945 29.1601 124.336C29.8898 124.656 30.6195 125.023 31.0715 125.343L30.4736 126.087ZM30.3983 119.868C29.871 119.534 28.9812 119.082 28.0914 118.714C28.4398 120.103 29.0847 121.092 30.2664 121.181C30.4547 121.21 30.5724 120.8 30.6478 120.056C30.8502 120.259 31.1139 120.494 31.321 120.612C31.1468 121.807 30.7655 122.259 30.064 122.146C27.8183 121.883 27.131 119.769 26.8391 117.288H18.9722V116.309H27.7618C27.7901 116.789 27.8372 117.288 27.9078 117.74L28.2562 117.872C28.7834 117.406 29.4096 116.761 29.758 116.309L30.6619 116.789C30.1534 117.255 29.5838 117.768 29.0565 118.178C29.7862 118.47 30.5018 118.818 30.9679 119.096L30.3983 119.868Z" fill="#717071"/>
<path d="M34.0469 128.361C34.8802 127.763 35.6523 126.638 36.076 125.56L37.1117 125.852C36.6598 127.005 35.9018 128.201 35.012 128.917L34.0469 128.361ZM35.883 119.986C35.5628 120.249 35.2427 120.494 34.8896 120.744C34.7295 120.48 34.3623 120.117 34.1175 119.939C36.0713 118.667 37.5025 116.902 38.2651 115.499L39.4751 115.734C39.3291 115.984 39.1691 116.229 38.9949 116.492H42.2951L42.4693 116.45L43.2131 116.902C42.893 117.542 42.394 118.272 41.9138 118.875H45.7366V124.99H35.883V119.981V119.986ZM36.9187 121.487H40.1718V119.793H36.9187V121.487ZM36.9187 124.072H40.1718V122.349H36.9187V124.072ZM38.3499 117.387C37.9686 117.881 37.5448 118.394 37.0788 118.875H40.5956C40.9769 118.451 41.3818 117.895 41.6737 117.387H38.3452H38.3499ZM39.5316 125.866C39.7199 126.741 39.8658 127.895 39.88 128.582L38.783 128.714C38.783 128.013 38.6653 126.845 38.4911 125.941L39.5269 125.866H39.5316ZM44.6444 119.793H41.2123V121.487H44.6444V119.793ZM44.6444 122.349H41.2123V124.072H44.6444V122.349ZM42.3798 125.762C42.8036 126.596 43.2555 127.749 43.4156 128.45L42.3798 128.714C42.2339 128.013 41.8102 126.845 41.3865 125.969L42.3798 125.767V125.762ZM45.214 125.442C46.0614 126.318 47.0218 127.561 47.4455 128.403L46.4098 128.884C46.0285 128.05 45.0822 126.784 44.2348 125.861L45.214 125.437V125.442Z" fill="#717071"/>
<path d="M55.0217 125.941L55.1253 126.873C53.4634 127.325 51.7262 127.824 50.3938 128.186L50.1914 127.193L50.6999 127.061V121.996H51.5332V126.873L52.4229 126.623V120.536H50.7281V116.172H54.7298V120.536H53.2986V122.697H54.9181V123.629H53.2986V126.388L55.0217 125.936V125.941ZM51.5897 119.618H53.8353V117.095H51.5897V119.618ZM63.3406 128.318H57.0649V128.874H56.0857V124.246C55.7938 124.655 55.516 125.018 55.21 125.343C55.0923 125.107 54.8616 124.67 54.7016 124.439C55.5914 123.46 56.467 121.972 56.8907 120.762L57.0084 120.804C56.9661 120.588 56.8625 120.352 56.7589 120.164C57.3427 120.178 57.837 120.178 57.983 120.164C58.143 120.15 58.1854 120.122 58.1854 119.976V116.737H55.323V115.932H59.0752V119.976C59.0752 120.414 59.0046 120.63 58.6656 120.762C58.3737 120.88 57.9359 120.908 57.2768 120.908L57.8747 121.125C57.7429 121.416 57.5828 121.751 57.4086 122.057H59.3812C59.2494 121.722 59.0893 121.341 58.9293 121.049L59.8332 120.786C60.0497 121.181 60.2851 121.675 60.4452 122.057H63.204V122.904H60.4452V123.912H62.8227V124.67H60.4452V125.663H62.8227V126.421H60.4452V127.471H63.3359V128.318H63.3406ZM55.3701 119.646C55.9962 119.369 56.8719 118.902 57.7947 118.436L57.983 119.062C57.2674 119.5 56.5235 119.938 55.8362 120.334L55.3701 119.646ZM55.9821 117.005C56.5235 117.222 57.2391 117.603 57.6158 117.838L57.1779 118.422C56.8107 118.173 56.0998 117.782 55.5584 117.518L55.9821 117.005ZM59.4424 122.904H57.0649V123.912H59.4424V122.904ZM59.4424 124.67H57.0649V125.663H59.4424V124.67ZM57.0649 127.471H59.4424V126.421H57.0649V127.471ZM62.1448 116.727H59.4424V115.908H63.0204V120.112C63.0204 120.55 62.931 120.753 62.5967 120.899C62.2907 121.03 61.7775 121.03 60.9772 121.03C60.9348 120.795 60.8171 120.503 60.7136 120.287C61.2832 120.301 61.7917 120.301 61.9423 120.301C62.1024 120.287 62.1448 120.258 62.1448 120.098V116.727ZM61.9847 119.02C61.2832 119.444 60.5676 119.882 59.9132 120.23L59.4471 119.557C60.0592 119.279 60.9066 118.841 61.7964 118.375L61.9847 119.015V119.02ZM61.2361 118.479C60.8878 118.201 60.2145 117.791 59.6731 117.547L60.1109 117.038C60.6382 117.273 61.3209 117.65 61.6881 117.9L61.2361 118.483V118.479Z" fill="#717071"/>
<path d="M70.3259 127.033C71.1733 127.353 72.2514 127.457 73.612 127.457C74.3134 127.471 78.7483 127.471 79.6287 127.429C79.4686 127.692 79.2615 128.187 79.1908 128.507H73.6308C70.5377 128.507 68.8146 128.027 67.7459 126.026C67.5717 127.179 67.294 128.187 66.8703 129.006C66.6961 128.86 66.2112 128.596 65.9805 128.479C66.8138 127.019 66.9738 124.698 67.0162 122.113L68.0378 122.189C68.0237 122.89 67.9955 123.559 67.9484 124.204C68.2685 125.268 68.7205 125.998 69.3372 126.497V120.965H66.2865V120H69.0736V118.145H66.6631V117.194H69.0736V115.574H70.1093V117.194H72.4585V118.145H70.1093V120H72.8399V120.965H70.3306V123.126H72.6939V124.091H70.3306V127.038L70.3259 127.033ZM75.2174 126.275C73.8897 126.275 73.466 125.941 73.466 124.58V116.506H78.7342V121.586H74.5159V124.58C74.5159 125.164 74.6336 125.296 75.3209 125.296H77.7879C78.3434 125.296 78.4611 124.99 78.5176 123.573C78.7671 123.747 79.1908 123.921 79.4827 123.997C79.3509 125.748 79.0449 126.275 77.8491 126.275H75.2221H75.2174ZM74.5159 117.472V120.626H77.6843V117.472H74.5159Z" fill="#717071"/>
<path d="M281.414 127.033V128.13H268.844V127.033H281.414ZM280.623 117.269V118.347H269.677V117.269H280.623ZM279.488 122V123.097H270.614V122H279.488Z" fill="#717071"/>
<path d="M296.462 117.561C295.586 120.814 294.037 123.328 292.055 125.225C293.632 126.496 295.572 127.414 297.94 127.942C297.69 128.158 297.399 128.643 297.238 128.921C294.8 128.337 292.818 127.33 291.194 125.974C289.386 127.461 287.295 128.511 285.064 129.213C284.946 128.921 284.626 128.441 284.391 128.219C286.594 127.593 288.651 126.614 290.407 125.239C288.581 123.446 287.3 121.111 286.391 118.305H285.342V117.241H295.591L295.737 117.198L296.466 117.565L296.462 117.561ZM287.47 118.305C288.289 120.786 289.513 122.89 291.236 124.524C292.959 122.947 294.301 120.889 295.12 118.305H287.47ZM291.909 122.014C291.457 121.374 290.45 120.367 289.602 119.665L290.346 119.081C291.179 119.741 292.215 120.701 292.695 121.346L291.909 122.019V122.014Z" fill="#717071"/>
<path d="M300.576 128.671C301.409 128.073 302.182 126.948 302.605 125.87L303.641 126.162C303.189 127.316 302.431 128.511 301.541 129.227L300.576 128.671ZM302.412 120.291C302.092 120.555 301.772 120.8 301.419 121.049C301.259 120.786 300.892 120.423 300.647 120.244C302.601 118.973 304.032 117.208 304.794 115.805L306.004 116.04C305.858 116.29 305.698 116.534 305.524 116.798H308.824L308.999 116.756L309.742 117.208C309.422 117.848 308.923 118.578 308.443 119.18H312.266V125.296H302.412V120.287V120.291ZM303.448 121.793H306.701V120.098H303.448V121.793ZM303.448 124.378H306.701V122.655H303.448V124.378ZM304.879 117.693C304.498 118.187 304.074 118.7 303.608 119.18H307.125C307.506 118.757 307.911 118.201 308.203 117.693H304.874H304.879ZM306.061 126.171C306.249 127.047 306.395 128.201 306.409 128.888L305.312 129.02C305.312 128.318 305.195 127.151 305.02 126.247L306.056 126.171H306.061ZM311.174 120.098H307.742V121.793H311.174V120.098ZM311.174 122.655H307.742V124.378H311.174V122.655ZM308.909 126.073C309.333 126.906 309.785 128.059 309.945 128.761L308.909 129.024C308.763 128.323 308.339 127.155 307.916 126.28L308.909 126.077V126.073ZM311.743 125.748C312.591 126.623 313.551 127.866 313.975 128.709L312.939 129.189C312.558 128.356 311.611 127.09 310.764 126.167L311.743 125.743V125.748Z" fill="#717071"/>
<path d="M321.37 127.617C319.807 127.984 318.159 128.375 316.902 128.667L316.638 127.687C317.194 127.598 317.895 127.452 318.682 127.278V123.017H316.728V122.071H318.682V120.494H317.458V119.722C317.255 119.924 317.076 120.117 316.874 120.291C316.817 120.075 316.568 119.519 316.422 119.284C317.415 118.451 318.409 117.184 318.978 115.885L319.84 116.163C319.769 116.337 319.68 116.511 319.59 116.657C320.362 117.358 321.285 118.22 321.765 118.757L321.167 119.472C320.73 118.964 319.91 118.145 319.167 117.429C318.715 118.201 318.187 118.945 317.618 119.548H321.064V120.499H319.576V122.076H321.445V123.022H319.576V127.108L321.299 126.746L321.375 127.622L321.37 127.617ZM317.618 123.822C317.834 124.67 318.084 125.762 318.173 126.492L317.444 126.68C317.354 125.95 317.123 124.839 316.916 123.978L317.618 123.818V123.822ZM319.925 126.303C320.113 125.588 320.362 124.406 320.48 123.634L321.252 123.851C321.003 124.74 320.772 125.809 320.537 126.492L319.925 126.303ZM324.19 126.157C323.663 127.137 322.815 128.144 322.071 128.799C321.883 128.653 321.488 128.375 321.238 128.243C322.024 127.631 322.787 126.755 323.239 125.88L324.19 126.157ZM324.246 117.429H321.69V116.539H329.835V117.429H327.208V118.408H329.571V121.807H322.024V118.408H324.242V117.429H324.246ZM326.233 125.343V129.18H325.24V125.343H321.751V124.453H329.91V125.343H326.233ZM322.669 123.441V122.579H328.903V123.441H322.669ZM322.947 120.979H324.246V119.241H322.947V120.979ZM326.379 117.429H325.08V118.408H326.379V117.429ZM325.08 120.979H326.379V119.241H325.08V120.979ZM327.212 119.241V120.979H328.629V119.241H327.212ZM328.027 125.823C328.785 126.567 329.604 127.546 329.999 128.219L329.166 128.728C328.785 128.041 327.97 127.019 327.241 126.275L328.027 125.823Z" fill="#717071"/>
<path d="M166.448 69.1494C171.156 69.865 178.024 70.1239 185.741 67.8971C193.033 57.6009 190.449 39.0565 190.449 39.0565C190.449 36.1047 182.793 33.7178 173.354 33.7178C163.915 33.7178 156.26 36.1094 156.26 39.0565C156.26 39.0565 153.661 57.6904 161.019 67.9724C162.526 68.4008 164.357 68.8293 166.448 69.1494Z" fill="#5D97C4"/>
<path d="M185.661 69.8418C181.146 71.0988 176.919 71.5366 173.237 71.5366C170.577 71.5366 168.204 71.3107 166.204 71.0046C164.212 70.6986 162.461 70.2985 160.992 69.8936C159.561 71.4095 156.006 76.2587 155.809 87.1198C155.809 87.1198 158.341 94.3982 173.35 94.6571C188.359 94.3982 190.892 87.1198 190.892 87.1198C190.694 76.1315 187.055 71.2965 185.661 69.8418Z" fill="#5D97C4"/>
<path d="M180.053 40.9964L183.104 30.6061L186.202 28.657L193.31 4.46314C193.692 3.16376 192.948 1.79847 191.649 1.41713L187.162 0.0989212C185.863 -0.282418 184.497 0.461429 184.116 1.76081L177.007 25.9547L178.561 29.2691L174.672 41.3778C174.672 41.3778 177.36 41.5472 180.053 40.9917V40.9964Z" fill="#2E59A6"/>
<path d="M297.469 1.91634V1.34668L297.431 1.62915L297.394 1.34668V1.91634C296.523 5.6497 296.08 9.4678 296.08 13.3V56.4761H298.782V13.2953C298.782 9.46309 298.34 5.64499 297.469 1.91163V1.91634Z" fill="#5D97C4"/>
<path d="M287.337 36.91V13.2951C287.337 9.46292 286.895 5.64481 286.024 1.91145V1.3418L285.986 1.62427L285.948 1.3418V1.91145C285.077 5.64481 284.635 9.46292 284.635 13.2951V37.0841L292.125 47.4368V56.476H294.63V46.7636L287.337 36.9147V36.91Z" fill="#5D97C4"/>
<path d="M307.529 36.91V13.2951C307.529 9.46292 307.971 5.64481 308.842 1.91145V1.3418L308.88 1.62427L308.918 1.3418V1.91145C309.789 5.64481 310.231 9.46292 310.231 13.2951V37.0841L302.741 47.4368V56.476H300.236V46.7636L307.529 36.9147V36.91Z" fill="#5D97C4"/>
<path d="M303.659 56.4756H291.207V75.5284H303.659V56.4756Z" fill="#2E59A6"/>
<path d="M301.409 73.5752H293.457V93.5273H301.409V73.5752Z" fill="#2E59A6"/>
<path d="M39.1504 43.3877C39.1504 43.3877 56.6261 52.2715 62.7181 69.6389C62.7181 69.6389 61.7907 49.2632 39.1504 43.3877Z" fill="#5D97C4"/>
<path d="M59.0796 70.3263C59.0796 70.3263 58.4111 55.68 42.1406 51.457C42.1406 51.457 54.706 57.8409 59.0796 70.3263Z" fill="#5D97C4"/>
<path d="M89.6344 75.7877C88.4245 70.6514 77.8835 67.6572 73.4722 65.8729C75.3601 55.685 73.4722 43.3927 65.224 36.3167C63.8446 36.0248 64.3248 36.8723 64.0611 37.7574C62.6205 42.6206 62.1686 47.9076 60.6291 52.7567C53.0917 43.4774 43.4735 34.895 31.0305 33.6709C30.9599 36.3073 33.2715 39.0614 34.3025 41.5849C37.7911 50.1532 39.5189 58.4062 46.4819 65.2515C42.9557 65.2844 37.6734 68.4434 34.2037 69.4085C15.1885 65.8635 5.11358 68.3351 -0.00390625 71.0469C5.32543 72.0968 13.31 75.0627 14.4352 83.4098L36.0915 72.3274C36.0915 72.3274 37.438 72.3557 39.5989 72.4781C36.5388 73.1278 29.5523 78.7114 30.701 79.7283C36.2799 80.312 41.0725 78.3488 45.8228 75.7736C45.9593 74.5401 44.481 75.2228 43.8407 75.4346C40.8653 76.4233 37.9653 78.1134 34.6462 77.7462C36.3834 74.9639 39.001 73.415 41.9811 72.624C42.579 72.6664 43.2287 72.7182 43.8831 72.7747C41.661 73.1984 39.0952 74.3424 36.8919 77.0777C36.8919 77.0777 41.1337 73.6786 46.8067 73.043C52.2208 73.5986 58.6659 74.5731 63.5951 76.2774L60.662 73.6692C57.037 70.7503 55.0361 69.5733 51.444 66.5509C41.5056 58.1943 39.0575 48.9951 34.6509 37.2913C34.0766 35.507 43.9584 40.5962 44.7164 41.0435C55.8741 47.6063 63.9717 59.0465 69.5364 70.5149C70.8876 69.1167 76.8949 71.1363 78.4014 72.4357C77.248 72.7982 76.4147 73.8104 76.4147 75.0156C76.4147 75.8395 76.8054 76.5645 77.4174 77.0683C77.4174 77.0777 77.4174 77.0871 77.4174 77.0965L77.4316 77.0824C77.9353 77.492 78.585 77.7509 79.3053 77.7509C79.4371 77.7509 79.5595 77.7321 79.6867 77.7133L80.0397 78.41C76.2828 78.4477 72.2199 76.7387 74.1125 72.4969C73.0014 72.7276 72.7425 73.8246 72.7425 74.8038C72.7378 81.0182 91.254 82.6707 89.6344 75.7877ZM12.1425 72.5675C19.8163 67.2147 28.8555 70.8445 28.8555 70.8445C19.9482 69.2673 12.1425 72.5675 12.1425 72.5675ZM14.5105 77.6662C21.0216 70.948 30.588 72.7841 30.588 72.7841C21.5441 72.9348 14.5105 77.6662 14.5105 77.6662ZM77.248 75.0863C77.248 73.994 78.133 73.1137 79.2206 73.1137C80.1998 73.1137 81.0049 73.8293 81.1602 74.7614C80.8636 74.1918 80.2893 73.7916 79.6019 73.7916C78.6227 73.7916 77.827 74.5872 77.827 75.5665C77.827 76.122 78.1001 76.6022 78.505 76.9271C77.7705 76.6399 77.248 75.929 77.248 75.091V75.0863Z" fill="#5D97C4"/>
<path d="M26.6797 60.0211C26.7691 60.4731 26.1665 60.2753 25.8934 60.2612C20.4841 59.9552 13.0221 56.9845 9.66532 52.5873C6.58636 48.5527 5.39055 41.665 10.0325 38.3036C13.2622 35.9685 18.5962 37.5974 18.3231 41.9663C18.2007 43.9531 15.715 46.0481 15.4184 48.3173C14.6416 54.3151 21.6469 58.7358 26.6797 60.0211Z" fill="#2E59A6"/>
<path d="M23.0554 40.5915C24.2512 40.3655 26.0873 41.1094 26.7841 42.0933C28.4648 44.4755 26.5346 46.8201 26.1344 49.3294C25.4141 53.816 27.3302 56.7019 29.9337 60.0587C24.1995 57.9542 18.6912 49.6307 20.2589 43.5528C20.5885 42.2769 21.6807 40.8504 23.0601 40.5915H23.0554Z" fill="#2E59A6"/>
</g>
<defs>
<clipPath id="clip0_997_478">
<rect width="330" height="260.102" fill="white"/>
</clipPath>
</defs>
</svg>
