<svg width="330" height="281" viewBox="0 0 330 281" fill="none" xmlns="http://www.w3.org/2000/svg">
<g clip-path="url(#clip0_997_777)">
<path d="M63.8157 274.747H62.4356V278.161H61.1055V269.69H63.8707C65.6159 269.69 66.926 270.311 66.926 272.149C66.926 273.46 66.2259 274.241 65.1558 274.577L67.221 278.166H65.7159L63.8107 274.752L63.8157 274.747ZM63.7157 273.676C64.9308 273.676 65.6109 273.17 65.6109 272.149C65.6109 271.127 64.9308 270.767 63.7157 270.767H62.4406V273.676H63.7157Z" fill="#717071"/>
<path d="M69.2266 269.845C69.2266 269.385 69.5616 269.064 70.0516 269.064C70.5417 269.064 70.8667 269.385 70.8667 269.845C70.8667 270.341 70.5317 270.652 70.0516 270.652C69.5716 270.652 69.2266 270.341 69.2266 269.845ZM69.3866 271.823H70.7067V278.156H69.3866V271.823Z" fill="#717071"/>
<path d="M72.8926 277.435L73.5226 276.574C74.0727 277.025 74.6277 277.31 75.3028 277.31C76.0479 277.31 76.4079 276.94 76.4079 276.459C76.4079 275.883 75.7078 275.633 75.0178 275.368C74.1777 275.047 73.2476 274.597 73.2476 273.53C73.2476 272.464 74.0977 271.678 75.4978 271.678C76.3379 271.678 77.048 272.023 77.543 272.424L76.9329 273.24C76.4879 272.919 76.0379 272.689 75.5328 272.689C74.8228 272.689 74.4977 273.034 74.4977 273.47C74.4977 274.001 75.1178 274.206 75.8178 274.471C76.6929 274.807 77.668 275.197 77.668 276.379C77.668 277.45 76.8279 278.321 75.2678 278.321C74.3927 278.321 73.4976 277.941 72.8926 277.435Z" fill="#717071"/>
<path d="M79.7676 269.845C79.7676 269.385 80.1026 269.064 80.5927 269.064C81.0827 269.064 81.4077 269.385 81.4077 269.845C81.4077 270.341 81.0727 270.652 80.5927 270.652C80.1126 270.652 79.7676 270.341 79.7676 269.845ZM79.9276 271.823H81.2477V278.156H79.9276V271.823Z" fill="#717071"/>
<path d="M84.0977 271.823H85.1778L85.2928 272.709H85.3178C85.8928 272.133 86.5479 271.673 87.408 271.673C88.7531 271.673 89.3481 272.569 89.3481 274.181V278.161H88.028V274.346C88.028 273.255 87.708 272.829 86.9629 272.829C86.3779 272.829 85.9878 273.115 85.4228 273.68V278.166H84.1027V271.833L84.0977 271.823Z" fill="#717071"/>
<path d="M91.6643 279.333C91.6643 278.802 91.9993 278.311 92.5844 277.951V277.906C92.2644 277.686 92.0093 277.355 92.0093 276.849C92.0093 276.344 92.3544 275.918 92.7194 275.678V275.633C92.2844 275.297 91.8793 274.702 91.8793 273.941C91.8793 272.514 93.0144 271.678 94.3245 271.678C94.6796 271.678 95.0046 271.748 95.2446 271.828H97.4848V272.829H96.2897C96.5197 273.095 96.6898 273.505 96.6898 273.981C96.6898 275.373 95.6447 276.164 94.3245 276.164C94.0495 276.164 93.7145 276.093 93.4395 275.978C93.2444 276.149 93.0944 276.324 93.0944 276.634C93.0944 277.005 93.3495 277.255 94.1495 277.255H95.3196C96.7998 277.255 97.5798 277.716 97.5798 278.782C97.5798 280.014 96.3047 281 94.2845 281C92.7594 281 91.6543 280.439 91.6543 279.333H91.6643ZM96.3047 278.997C96.3047 278.467 95.8897 278.306 95.1346 278.306H94.1795C93.8795 278.306 93.5945 278.281 93.3295 278.216C92.9494 278.492 92.7994 278.812 92.7994 279.137C92.7994 279.748 93.4295 280.124 94.4746 280.124C95.5797 280.124 96.2997 279.583 96.2997 278.997H96.3047ZM95.5247 273.941C95.5247 273.1 94.9946 272.609 94.3295 272.609C93.6645 272.609 93.1344 273.09 93.1344 273.941C93.1344 274.792 93.6745 275.297 94.3295 275.297C94.9846 275.297 95.5247 274.792 95.5247 273.941Z" fill="#717071"/>
<path d="M102.584 277.065L103.364 276.144C103.974 276.74 104.799 277.145 105.629 277.145C106.639 277.145 107.199 276.664 107.199 275.948C107.199 275.177 106.639 274.937 105.854 274.592L104.684 274.086C103.859 273.741 102.959 273.11 102.959 271.868C102.959 270.536 104.119 269.535 105.739 269.535C106.739 269.535 107.669 269.951 108.29 270.607L107.614 271.458C107.084 270.987 106.489 270.697 105.744 270.697C104.884 270.697 104.334 271.122 104.334 271.778C104.334 272.514 105.014 272.779 105.689 273.065L106.849 273.56C107.859 273.986 108.575 274.607 108.575 275.848C108.575 277.205 107.449 278.322 105.599 278.322C104.439 278.322 103.359 277.851 102.589 277.07L102.584 277.065Z" fill="#717071"/>
<path d="M110.816 275.813V271.823H112.146V275.653C112.146 276.735 112.466 277.17 113.201 277.17C113.786 277.17 114.201 276.895 114.716 276.229V271.828H116.046V278.161H114.956L114.851 277.205H114.816C114.241 277.871 113.621 278.322 112.761 278.322C111.406 278.322 110.811 277.426 110.811 275.813H110.816Z" fill="#717071"/>
<path d="M118.891 271.823H119.971L120.086 272.709H120.111C120.686 272.133 121.341 271.673 122.201 271.673C123.546 271.673 124.141 272.569 124.141 274.181V278.161H122.821V274.346C122.821 273.255 122.501 272.829 121.756 272.829C121.171 272.829 120.781 273.115 120.216 273.68V278.166H118.896V271.833L118.891 271.823Z" fill="#717071"/>
<path d="M92.9037 232.217C108.524 232.217 121.186 219.539 121.186 203.9C121.186 188.261 108.524 175.583 92.9037 175.583C77.2836 175.583 64.6211 188.261 64.6211 203.9C64.6211 219.539 77.2836 232.217 92.9037 232.217Z" fill="#2E59A6"/>
<path d="M67.8202 226.29L59.9141 234.206L62.23 236.525L70.1362 228.609L67.8202 226.29Z" fill="#5D97C4"/>
<path d="M116.65 226.865L114.334 229.184L122.109 236.968L124.425 234.65L116.65 226.865Z" fill="#5D97C4"/>
<path d="M94.6342 160.634H91.3789V171.563H94.6342V160.634Z" fill="#5D97C4"/>
<path d="M59.5859 202.433H48.6699V205.692H59.5859V202.433Z" fill="#5D97C4"/>
<path d="M136.383 203.395H125.467V206.654H136.383V203.395Z" fill="#5D97C4"/>
<path d="M93.6733 237.523H90.418V248.453H93.6733V237.523Z" fill="#5D97C4"/>
<path d="M82.9785 161.413L79.834 162.256L82.7079 173.002L85.8524 172.159L82.9785 161.413Z" fill="#5D97C4"/>
<path d="M60.173 211.02L49.4395 213.875L50.278 217.035L61.0115 214.179L60.173 211.02Z" fill="#5D97C4"/>
<path d="M82.0267 235.665L79.2129 246.396L82.3808 247.228L85.1946 236.497L82.0267 235.665Z" fill="#5D97C4"/>
<path d="M102.687 161.544L99.8516 172.306L103.009 173.14L105.845 162.378L102.687 161.544Z" fill="#5D97C4"/>
<path d="M50.5829 191.089L49.7559 194.293L60.4844 197.069L61.3114 193.865L50.5829 191.089Z" fill="#5D97C4"/>
<path d="M124.549 211.723L123.701 214.87L134.482 217.782L135.33 214.636L124.549 211.723Z" fill="#5D97C4"/>
<path d="M102.148 235.892L99.002 236.731L101.863 247.481L105.008 246.642L102.148 235.892Z" fill="#5D97C4"/>
<path d="M134.59 191.837L123.852 194.712L124.692 197.861L135.431 194.986L134.59 191.837Z" fill="#5D97C4"/>
<path d="M121.56 219.786L119.926 222.616L129.619 228.226L131.253 225.396L121.56 219.786Z" fill="#5D97C4"/>
<path d="M129.959 181.374L120.277 186.852L121.899 189.724L131.581 184.246L129.959 181.374Z" fill="#5D97C4"/>
<path d="M63.0236 219.152L53.3828 224.662L55.0016 227.501L64.6424 221.991L63.0236 219.152Z" fill="#5D97C4"/>
<path d="M113.405 165.65L107.885 175.339L110.743 176.971L116.263 167.282L113.405 165.65Z" fill="#5D97C4"/>
<path d="M55.4334 180.66L53.8066 183.495L63.432 189.032L65.0587 186.197L55.4334 180.66Z" fill="#5D97C4"/>
<path d="M109.962 232.323L107.139 233.945L112.686 243.619L115.509 241.996L109.962 232.323Z" fill="#5D97C4"/>
<path d="M72.3157 165.306L69.4238 166.949L74.8938 176.598L77.7857 174.954L72.3157 165.306Z" fill="#5D97C4"/>
<path d="M74.321 231.87L68.8242 241.515L71.6603 243.135L77.1571 233.49L74.321 231.87Z" fill="#5D97C4"/>
<path d="M62.8377 172.023L60.6172 174.246L68.3925 182.031L70.613 179.808L62.8377 172.023Z" fill="#5D97C4"/>
<path d="M122.689 172.5L114.914 180.285L117.138 182.512L124.913 174.727L122.689 172.5Z" fill="#5D97C4"/>
<path d="M222.75 269.686H224.115L224.905 274.086C225.055 274.992 225.205 275.894 225.365 276.81H225.41C225.58 275.889 225.79 274.982 225.985 274.086L227.065 269.686H228.251L229.341 274.086C229.536 274.982 229.721 275.894 229.916 276.81H229.971C230.121 275.889 230.256 274.982 230.396 274.086L231.201 269.686H232.476L230.811 278.157H229.171L228.035 273.455C227.895 272.79 227.76 272.159 227.645 271.513H227.6C227.475 272.159 227.335 272.79 227.2 273.455L226.085 278.157H224.465L222.755 269.686H222.75Z" fill="#717071"/>
<path d="M234.451 269.845C234.451 269.385 234.786 269.064 235.276 269.064C235.766 269.064 236.091 269.385 236.091 269.845C236.091 270.341 235.756 270.652 235.276 270.652C234.796 270.652 234.451 270.341 234.451 269.845ZM234.611 271.823H235.931V278.156H234.611V271.823Z" fill="#717071"/>
<path d="M238.781 271.823H239.861L239.976 272.709H240.001C240.576 272.133 241.231 271.673 242.092 271.673C243.437 271.673 244.032 272.569 244.032 274.181V278.161H242.712V274.346C242.712 273.255 242.392 272.829 241.642 272.829C241.056 272.829 240.666 273.115 240.101 273.68V278.166H238.781V271.833V271.823Z" fill="#717071"/>
<path d="M246.383 274.997C246.383 272.939 247.678 271.673 249.083 271.673C249.818 271.673 250.278 271.938 250.783 272.384L250.738 271.337V268.994H252.058V278.156H250.978L250.863 277.445H250.828C250.358 277.926 249.703 278.321 248.978 278.321C247.403 278.321 246.383 277.105 246.383 274.997ZM250.733 276.434V273.35C250.263 272.924 249.813 272.774 249.343 272.774C248.468 272.774 247.748 273.615 247.748 274.982C247.748 276.349 248.308 277.2 249.298 277.2C249.828 277.2 250.273 276.97 250.733 276.429V276.434Z" fill="#717071"/>
<path d="M207.769 231.145C199.148 222.509 195.487 209.432 195.933 197.451C198.123 202.042 199.463 206.994 201.978 211.434C211.074 227.505 230.241 236.212 248.417 234.349C251.013 234.084 253.543 233.278 256.118 232.977C252.368 236.862 247.042 239.185 241.802 240.242C229.501 242.725 216.794 240.187 207.769 231.145Z" fill="#2E59A6"/>
<path d="M197.657 175.538L200.198 181.911C207.013 198.152 229.01 214.238 247.047 209.187C264.579 204.28 262.188 180.574 248.397 172.784L241.111 169.595C252.137 166.456 263.203 167.357 271.114 176.329C289.286 196.926 276.76 230.039 248.782 231.896C217.714 233.954 190.717 207.064 197.657 175.543V175.538Z" fill="#5D97C4"/>
<path d="M126.301 115.71C126.301 112.972 127.816 111.354 129.986 111.354C132.156 111.354 133.671 112.987 133.671 115.71C133.671 118.434 132.166 120.136 129.986 120.136C127.806 120.136 126.301 118.434 126.301 115.71ZM132.306 115.71C132.306 113.733 131.386 112.516 129.986 112.516C128.586 112.516 127.676 113.733 127.676 115.71C127.676 117.688 128.581 118.964 129.986 118.964C131.391 118.964 132.306 117.688 132.306 115.71Z" fill="#717071"/>
<path d="M135.732 116.812C135.732 114.709 137.193 113.487 138.858 113.487C139.663 113.487 140.248 113.808 140.708 114.213L140.053 115.074C139.708 114.774 139.353 114.579 138.928 114.579C137.858 114.579 137.103 115.475 137.103 116.812C137.103 118.148 137.838 119.03 138.883 119.03C139.413 119.03 139.883 118.789 140.263 118.454L140.813 119.34C140.228 119.856 139.483 120.131 138.758 120.131C137.048 120.131 135.737 118.914 135.737 116.807L135.732 116.812Z" fill="#717071"/>
<path d="M142.228 116.812C142.228 114.754 143.638 113.487 145.108 113.487C146.783 113.487 147.693 114.694 147.693 116.476C147.693 116.742 147.658 116.992 147.623 117.157H143.523C143.628 118.364 144.383 119.09 145.473 119.09C146.033 119.09 146.518 118.919 146.978 118.619L147.438 119.46C146.863 119.851 146.128 120.136 145.313 120.136C143.578 120.136 142.223 118.904 142.223 116.812H142.228ZM146.548 116.241C146.548 115.159 146.053 114.539 145.133 114.539C144.343 114.539 143.638 115.134 143.513 116.241H146.543H146.548Z" fill="#717071"/>
<path d="M149.498 118.298C149.498 116.932 150.648 116.231 153.278 115.94C153.268 115.214 153.003 114.573 152.073 114.573C151.408 114.573 150.788 114.874 150.248 115.219L149.753 114.323C150.408 113.908 151.293 113.497 152.303 113.497C153.878 113.497 154.599 114.488 154.599 116.176V119.98H153.518L153.413 119.255H153.368C152.793 119.75 152.118 120.141 151.358 120.141C150.268 120.141 149.498 119.415 149.498 118.303V118.298ZM153.278 118.328V116.786C151.408 117.007 150.773 117.487 150.773 118.188C150.773 118.819 151.198 119.074 151.758 119.074C152.318 119.074 152.758 118.809 153.273 118.328H153.278Z" fill="#717071"/>
<path d="M157.33 113.642H158.41L158.525 114.529H158.55C159.125 113.953 159.78 113.492 160.64 113.492C161.985 113.492 162.581 114.388 162.581 116V119.981H161.26V116.166C161.26 115.074 160.94 114.649 160.19 114.649C159.605 114.649 159.215 114.934 158.65 115.5V119.986H157.33V113.652V113.642Z" fill="#717071"/>
<path d="M170.626 112.631H168.156V111.505H174.462V112.631H171.982V119.976H170.626V112.631Z" fill="#717071"/>
<path d="M176.516 111.665C176.516 111.204 176.851 110.884 177.341 110.884C177.831 110.884 178.156 111.204 178.156 111.665C178.156 112.16 177.821 112.471 177.341 112.471C176.861 112.471 176.516 112.16 176.516 111.665ZM176.681 113.642H178.001V119.976H176.681V113.642Z" fill="#717071"/>
<path d="M180.422 116.811C180.422 114.754 181.717 113.487 183.122 113.487C183.857 113.487 184.317 113.752 184.822 114.198L184.777 113.152V110.809H186.097V119.97H185.017L184.902 119.26H184.867C184.397 119.74 183.742 120.136 183.017 120.136C181.442 120.136 180.422 118.919 180.422 116.811ZM184.777 118.248V115.164C184.307 114.739 183.857 114.589 183.387 114.589C182.512 114.589 181.792 115.43 181.792 116.796C181.792 118.163 182.352 119.014 183.342 119.014C183.872 119.014 184.317 118.784 184.777 118.243V118.248Z" fill="#717071"/>
<path d="M188.497 116.812C188.497 114.754 189.907 113.487 191.377 113.487C193.053 113.487 193.963 114.694 193.963 116.476C193.963 116.742 193.928 116.992 193.893 117.157H189.792C189.897 118.364 190.652 119.09 191.742 119.09C192.303 119.09 192.788 118.919 193.248 118.619L193.708 119.46C193.133 119.851 192.398 120.136 191.582 120.136C189.847 120.136 188.492 118.904 188.492 116.812H188.497ZM192.813 116.241C192.813 115.159 192.318 114.539 191.397 114.539C190.607 114.539 189.902 115.134 189.777 116.241H192.808H192.813Z" fill="#717071"/>
<path d="M195.639 119.25L196.269 118.389C196.819 118.839 197.374 119.125 198.049 119.125C198.794 119.125 199.154 118.754 199.154 118.273C199.154 117.698 198.454 117.447 197.764 117.182C196.924 116.862 195.994 116.411 195.994 115.345C195.994 114.278 196.844 113.492 198.244 113.492C199.084 113.492 199.794 113.838 200.289 114.238L199.679 115.054C199.229 114.734 198.784 114.504 198.279 114.504C197.569 114.504 197.244 114.849 197.244 115.285C197.244 115.815 197.864 116.02 198.564 116.286C199.439 116.621 200.414 117.012 200.414 118.193C200.414 119.265 199.574 120.136 198.014 120.136C197.139 120.136 196.244 119.755 195.639 119.25Z" fill="#717071"/>
<path d="M152.784 41.8396C155.484 44.0174 159.129 45.209 162.565 45.4693C170.705 46.0901 178.511 42.5655 186.647 43.0962C199.368 43.9223 212.224 50.1053 216.389 62.8869L213.384 61.2198C202.583 56.3484 189.972 54.1506 178.396 57.5901C162.615 62.2812 155.764 77.0704 136.502 75.8388C123.901 75.0327 115.565 65.5454 120.796 53.0692C120.796 53.0692 122.216 54.9066 123.256 56.2533C124.061 57.2897 124.971 58.2409 126.021 59.0319C129.857 61.9107 134.362 63.5027 139.317 63.0421C139.692 63.0071 142.168 62.5215 142.278 62.4163C142.833 61.8856 142.068 61.8906 141.833 61.7655C136.997 59.2823 134.227 57.2847 132.542 51.7425C128.911 39.7769 136.517 29.2082 148.503 27.501C147.963 27.5911 148.673 34.3399 148.738 34.8305C149.123 37.7943 150.663 40.1224 152.789 41.8396H152.784Z" fill="#2E59A6"/>
<path d="M195.952 41.9448C196.022 42.5156 195.287 42.2152 194.952 42.1701C188.251 41.289 179.235 36.9083 175.465 31.1258C172.005 25.8189 171.145 17.1326 177.23 13.3677C181.461 10.7543 187.951 13.2726 187.211 18.6846C186.876 21.1478 183.591 23.5259 183.016 26.3295C181.501 33.7292 189.811 39.8771 195.952 41.9398V41.9448Z" fill="#5D97C4"/>
<path d="M124.031 33.2434C126.441 32.7979 129.116 34.41 129.392 37.2036C129.627 39.6067 128.036 41.7945 127.616 44.0925C126.591 49.7549 128.986 53.4347 132.212 57.7753C127.211 55.5024 123.196 50.8563 121.216 45.6445C119.991 42.4304 119.096 37.6492 121.506 34.7404C122.206 33.8993 123.101 33.4137 124.036 33.2434H124.031Z" fill="#5D97C4"/>
<path d="M193.223 17.4131C194.733 17.2429 196.948 18.3343 197.723 19.6259C199.598 22.745 196.978 25.4886 196.253 28.5776C194.948 34.0997 197.068 37.8696 199.998 42.2904C193.058 39.1413 186.962 28.2722 189.472 20.8475C189.998 19.2905 191.488 17.6133 193.228 17.4131H193.223Z" fill="#5D97C4"/>
<path d="M13.4707 118.884L14.2508 117.963C14.8608 118.559 15.6859 118.964 16.511 118.964C17.5211 118.964 18.0861 118.484 18.0861 117.768C18.0861 116.997 17.5261 116.757 16.741 116.411L15.5709 115.905C14.7458 115.56 13.8457 114.929 13.8457 113.688C13.8457 112.356 15.0058 111.354 16.626 111.354C17.6261 111.354 18.5562 111.77 19.1762 112.426L18.5012 113.277C17.9711 112.806 17.3761 112.516 16.631 112.516C15.7709 112.516 15.2209 112.942 15.2209 113.597C15.2209 114.333 15.8959 114.599 16.576 114.884L17.7361 115.38C18.7462 115.805 19.4612 116.426 19.4612 117.668C19.4612 119.024 18.3361 120.141 16.486 120.141C15.3259 120.141 14.2458 119.67 13.4757 118.889L13.4707 118.884Z" fill="#717071"/>
<path d="M21.3527 116.812C21.3527 114.754 22.7628 113.487 24.2329 113.487C25.9081 113.487 26.8182 114.694 26.8182 116.476C26.8182 116.742 26.7832 116.992 26.7481 117.157H22.6478C22.7528 118.364 23.5079 119.09 24.598 119.09C25.158 119.09 25.643 118.919 26.1031 118.619L26.5631 119.46C25.9881 119.851 25.253 120.136 24.4379 120.136C22.7028 120.136 21.3477 118.904 21.3477 116.812H21.3527ZM25.6681 116.241C25.6681 115.159 25.173 114.539 24.2529 114.539C23.4628 114.539 22.7578 115.134 22.6328 116.241H25.663H25.6681Z" fill="#717071"/>
<path d="M28.712 116.812C28.712 114.754 30.1222 113.487 31.5923 113.487C33.2674 113.487 34.1775 114.694 34.1775 116.476C34.1775 116.742 34.1425 116.992 34.1075 117.157H30.0071C30.1122 118.364 30.8672 119.09 31.9573 119.09C32.5174 119.09 33.0024 118.919 33.4625 118.619L33.9225 119.46C33.3475 119.851 32.6124 120.136 31.7973 120.136C30.0622 120.136 28.707 118.904 28.707 116.812H28.712ZM33.0274 116.241C33.0274 115.159 32.5324 114.539 31.6123 114.539C30.8222 114.539 30.1172 115.134 29.9921 116.241H33.0224H33.0274Z" fill="#717071"/>
<path d="M36.0938 116.811C36.0938 114.754 37.3889 113.487 38.794 113.487C39.5291 113.487 39.9891 113.752 40.4942 114.198L40.4491 113.152V110.809H41.7693V119.97H40.6892L40.5742 119.26H40.5392C40.0691 119.74 39.4141 120.136 38.689 120.136C37.1138 120.136 36.0938 118.919 36.0938 116.811ZM40.4441 118.248V115.164C39.9741 114.739 39.5241 114.589 39.054 114.589C38.1789 114.589 37.4589 115.43 37.4589 116.796C37.4589 118.163 38.0189 119.014 39.009 119.014C39.5391 119.014 39.9841 118.784 40.4441 118.243V118.248Z" fill="#717071"/>
<path d="M43.9492 119.25L44.5793 118.389C45.1293 118.839 45.6844 119.125 46.3594 119.125C47.1045 119.125 47.4645 118.754 47.4645 118.273C47.4645 117.698 46.7645 117.447 46.0744 117.182C45.2343 116.862 44.3043 116.411 44.3043 115.345C44.3043 114.278 45.1543 113.492 46.5545 113.492C47.3945 113.492 48.1046 113.838 48.5996 114.238L47.9896 115.054C47.5395 114.734 47.0945 114.504 46.5895 114.504C45.8794 114.504 45.5544 114.849 45.5544 115.285C45.5544 115.815 46.1744 116.02 46.8745 116.286C47.7496 116.621 48.7247 117.012 48.7247 118.193C48.7247 119.265 47.8846 120.136 46.3244 120.136C45.4494 120.136 44.5543 119.755 43.9492 119.25Z" fill="#717071"/>
<path d="M271.844 112.431L272.624 111.51C273.234 112.106 274.059 112.511 274.889 112.511C275.899 112.511 276.459 112.031 276.459 111.315C276.459 110.544 275.899 110.303 275.114 109.958L273.944 109.452C273.119 109.107 272.219 108.476 272.219 107.234C272.219 105.903 273.379 104.901 274.999 104.901C275.999 104.901 276.929 105.317 277.549 105.973L276.874 106.824C276.344 106.353 275.749 106.063 275.004 106.063C274.144 106.063 273.594 106.488 273.594 107.144C273.594 107.88 274.274 108.146 274.949 108.431L276.109 108.927C277.119 109.352 277.834 109.973 277.834 111.215C277.834 112.571 276.709 113.688 274.859 113.688C273.699 113.688 272.619 113.217 271.849 112.436L271.844 112.431Z" fill="#717071"/>
<path d="M279.485 107.19H280.816L281.656 110.614C281.781 111.235 281.886 111.811 282.001 112.416H282.056C282.181 111.806 282.311 111.22 282.456 110.614L283.351 107.19H284.566L285.471 110.614C285.621 111.235 285.746 111.811 285.896 112.416H285.956C286.071 111.806 286.176 111.23 286.311 110.614L287.126 107.19H288.376L286.736 113.523H285.151L284.346 110.394C284.196 109.798 284.081 109.222 283.946 108.566H283.891C283.766 109.222 283.651 109.808 283.501 110.404L282.721 113.518H281.181L279.48 107.185L279.485 107.19Z" fill="#717071"/>
<path d="M290.057 111.845C290.057 110.478 291.207 109.777 293.837 109.487C293.827 108.761 293.562 108.12 292.632 108.12C291.967 108.12 291.347 108.421 290.807 108.766L290.312 107.87C290.967 107.454 291.852 107.044 292.862 107.044C294.437 107.044 295.157 108.035 295.157 109.722V113.527H294.077L293.972 112.801H293.927C293.352 113.297 292.677 113.688 291.917 113.688C290.827 113.688 290.057 112.962 290.057 111.85V111.845ZM293.837 111.88V110.338C291.967 110.559 291.332 111.039 291.332 111.74C291.332 112.371 291.757 112.626 292.317 112.626C292.877 112.626 293.317 112.361 293.832 111.88H293.837Z" fill="#717071"/>
<path d="M297.387 116.041L297.642 115.005C297.757 115.04 297.942 115.095 298.112 115.095C298.787 115.095 299.192 114.589 299.422 113.908L299.562 113.473L297.057 107.185H298.402L299.562 110.449C299.757 111.015 299.952 111.635 300.147 112.231H300.202C300.362 111.645 300.537 111.025 300.697 110.449L301.717 107.185H302.992L300.672 113.898C300.177 115.255 299.512 116.161 298.192 116.161C297.857 116.161 297.607 116.116 297.387 116.036V116.041Z" fill="#717071"/>
<path d="M304.838 105.212C304.838 104.751 305.173 104.431 305.663 104.431C306.153 104.431 306.478 104.751 306.478 105.212C306.478 105.707 306.143 106.018 305.663 106.018C305.183 106.018 304.838 105.707 304.838 105.212ZM304.998 107.189H306.318V113.522H304.998V107.189Z" fill="#717071"/>
<path d="M309.168 107.189H310.248L310.363 108.075H310.388C310.963 107.5 311.618 107.039 312.478 107.039C313.823 107.039 314.418 107.935 314.418 109.547V113.527H313.098V109.713C313.098 108.621 312.778 108.196 312.028 108.196C311.443 108.196 311.053 108.481 310.488 109.047V113.532H309.168V107.199V107.189Z" fill="#717071"/>
<path d="M316.735 114.699C316.735 114.168 317.07 113.678 317.655 113.317V113.272C317.335 113.052 317.08 112.721 317.08 112.216C317.08 111.71 317.425 111.284 317.79 111.044V110.999C317.355 110.664 316.95 110.068 316.95 109.307C316.95 107.88 318.085 107.044 319.395 107.044C319.75 107.044 320.07 107.114 320.315 107.194H322.555V108.195H321.36C321.59 108.461 321.76 108.871 321.76 109.347C321.76 110.739 320.715 111.53 319.395 111.53C319.12 111.53 318.785 111.46 318.51 111.345C318.315 111.515 318.165 111.69 318.165 112C318.165 112.371 318.415 112.621 319.22 112.621H320.39C321.87 112.621 322.65 113.082 322.65 114.148C322.65 115.38 321.375 116.366 319.355 116.366C317.83 116.366 316.725 115.805 316.725 114.699H316.735ZM321.375 114.363C321.375 113.833 320.96 113.673 320.205 113.673H319.25C318.95 113.673 318.665 113.648 318.4 113.582C318.02 113.858 317.87 114.178 317.87 114.504C317.87 115.114 318.5 115.49 319.545 115.49C320.645 115.49 321.37 114.949 321.37 114.363H321.375ZM320.59 109.307C320.59 108.466 320.065 107.975 319.395 107.975C318.725 107.975 318.2 108.456 318.2 109.307C318.2 110.158 318.74 110.664 319.395 110.664C320.05 110.664 320.59 110.158 320.59 109.307Z" fill="#717071"/>
<path d="M267.579 127.015H266.199V130.429H264.869V121.958H267.634C269.38 121.958 270.69 122.579 270.69 124.416C270.69 125.728 269.99 126.509 268.919 126.844L270.985 130.434H269.48L267.574 127.02L267.579 127.015ZM267.479 125.948C268.694 125.948 269.375 125.443 269.375 124.421C269.375 123.4 268.694 123.039 267.479 123.039H266.204V125.948H267.479Z" fill="#717071"/>
<path d="M272.99 122.119C272.99 121.658 273.325 121.338 273.815 121.338C274.305 121.338 274.63 121.658 274.63 122.119C274.63 122.615 274.295 122.925 273.815 122.925C273.335 122.925 272.99 122.615 272.99 122.119ZM273.15 124.096H274.47V130.43H273.15V124.096Z" fill="#717071"/>
<path d="M276.871 127.271C276.871 125.168 278.331 123.946 279.996 123.946C280.801 123.946 281.387 124.267 281.847 124.672L281.191 125.533C280.846 125.233 280.491 125.038 280.066 125.038C278.996 125.038 278.241 125.934 278.241 127.271C278.241 128.607 278.976 129.488 280.021 129.488C280.551 129.488 281.021 129.248 281.402 128.913L281.952 129.799C281.366 130.315 280.621 130.59 279.896 130.59C278.186 130.59 276.876 129.373 276.876 127.266L276.871 127.271Z" fill="#717071"/>
<path d="M283.37 127.271C283.37 125.213 284.78 123.946 286.251 123.946C287.926 123.946 288.836 125.153 288.836 126.935C288.836 127.201 288.801 127.451 288.766 127.616H284.665C284.77 128.823 285.525 129.549 286.616 129.549C287.176 129.549 287.661 129.378 288.121 129.078L288.581 129.919C288.006 130.31 287.271 130.595 286.456 130.595C284.72 130.595 283.365 129.363 283.365 127.271H283.37ZM287.686 126.695C287.686 125.613 287.191 124.993 286.276 124.993C285.485 124.993 284.78 125.588 284.655 126.695H287.686Z" fill="#717071"/>
<path d="M294.736 121.958H299.742V123.084H296.066V125.673H299.202V126.789H296.066V130.434H294.736V121.963V121.958Z" fill="#717071"/>
<path d="M301.822 122.119C301.822 121.658 302.157 121.338 302.647 121.338C303.137 121.338 303.462 121.658 303.462 122.119C303.462 122.615 303.127 122.925 302.647 122.925C302.167 122.925 301.822 122.615 301.822 122.119ZM301.982 124.096H303.302V130.43H301.982V124.096Z" fill="#717071"/>
<path d="M305.702 127.271C305.702 125.213 307.112 123.946 308.583 123.946C310.258 123.946 311.168 125.153 311.168 126.935C311.168 127.201 311.133 127.451 311.098 127.616H306.997C307.102 128.823 307.857 129.549 308.948 129.549C309.508 129.549 309.993 129.378 310.453 129.078L310.913 129.919C310.338 130.31 309.603 130.595 308.788 130.595C307.052 130.595 305.697 129.363 305.697 127.271H305.702ZM310.023 126.695C310.023 125.613 309.528 124.993 308.608 124.993C307.817 124.993 307.117 125.588 306.987 126.695H310.018H310.023Z" fill="#717071"/>
<path d="M313.514 128.938V121.268H314.834V129.008C314.834 129.363 314.984 129.488 315.144 129.488C315.204 129.488 315.249 129.488 315.374 129.463L315.534 130.465C315.374 130.535 315.154 130.59 314.824 130.59C313.869 130.59 313.514 129.969 313.514 128.933V128.938Z" fill="#717071"/>
<path d="M317.369 127.27C317.369 125.213 318.669 123.946 320.069 123.946C320.804 123.946 321.264 124.211 321.77 124.657L321.725 123.611V121.268H323.045V130.429H321.965L321.85 129.719H321.815C321.345 130.199 320.689 130.595 319.964 130.595C318.394 130.595 317.369 129.378 317.369 127.27ZM321.725 128.707V125.623C321.255 125.198 320.804 125.047 320.334 125.047C319.459 125.047 318.739 125.889 318.739 127.255C318.739 128.622 319.299 129.473 320.289 129.473C320.814 129.473 321.265 129.243 321.725 128.702V128.707Z" fill="#717071"/>
<path d="M325.225 129.709L325.855 128.848C326.405 129.298 326.96 129.583 327.635 129.583C328.38 129.583 328.74 129.213 328.74 128.732C328.74 128.157 328.04 127.906 327.35 127.641C326.51 127.321 325.58 126.87 325.58 125.804C325.58 124.737 326.43 123.951 327.83 123.951C328.67 123.951 329.38 124.297 329.875 124.697L329.265 125.513C328.815 125.193 328.37 124.962 327.865 124.962C327.155 124.962 326.83 125.308 326.83 125.744C326.83 126.274 327.45 126.479 328.15 126.745C329.025 127.08 330 127.471 330 128.652C330 129.724 329.16 130.595 327.6 130.595C326.725 130.595 325.83 130.214 325.225 129.709Z" fill="#717071"/>
<path d="M316.524 28.2469C318.124 28.5273 319.699 28.9528 321.209 29.5536C321.229 29.5586 321.234 29.5736 321.234 29.5886C321.249 29.6988 321.214 29.9892 321.209 30.1193C320.994 33.8241 319.764 38.0346 317.519 41.0185C313.393 46.5106 306.843 47.0063 300.582 45.4292C299.727 45.2139 298.887 44.9586 298.047 44.6933C298.062 44.3979 298.092 44.0875 298.132 43.7871C298.932 37.569 301.397 31.1457 307.693 28.8226C310.448 27.8063 313.643 27.7312 316.529 28.2369L316.524 28.2469Z" fill="#2E59A6"/>
<path d="M288.34 28.8273C294.636 31.1453 297.101 37.5686 297.901 43.7917C297.941 44.0921 297.971 44.4025 297.986 44.6979C297.146 44.9682 296.306 45.2186 295.451 45.4338C289.19 47.0109 282.64 46.5153 278.514 41.0231C276.274 38.0392 275.039 33.8288 274.824 30.124C274.814 29.9938 274.784 29.7034 274.799 29.5933C274.799 29.5732 274.804 29.5632 274.824 29.5582C276.329 28.9524 277.909 28.5319 279.509 28.2515C282.39 27.7459 285.59 27.821 288.345 28.8373L288.34 28.8273Z" fill="#5D97C4"/>
<path d="M316.524 47.6522C318.124 47.9325 319.699 48.3581 321.209 48.9589C321.229 48.9639 321.234 48.9789 321.234 48.9939C321.249 49.1041 321.214 49.3944 321.209 49.5246C320.994 53.2294 319.764 57.4399 317.519 60.4238C313.393 65.9159 306.843 66.4115 300.582 64.8345C299.727 64.6192 298.887 64.3639 298.047 64.0985C298.062 63.8031 298.092 63.4927 298.132 63.1924C298.932 56.9743 301.397 50.5509 307.693 48.2279C310.448 47.2116 313.643 47.1365 316.529 47.6422L316.524 47.6522Z" fill="#2E59A6"/>
<path d="M288.34 48.2374C294.636 50.5554 297.101 56.9788 297.901 63.2019C297.941 63.5023 297.971 63.8127 297.986 64.1081C297.146 64.3784 296.306 64.6287 295.451 64.844C289.19 66.4211 282.64 65.9254 278.514 60.4333C276.274 57.4494 275.039 53.2389 274.824 49.5341C274.814 49.404 274.784 49.1136 274.799 49.0034C274.799 48.9834 274.804 48.9734 274.824 48.9684C276.329 48.3626 277.909 47.9421 279.509 47.6617C282.39 47.156 285.59 47.2311 288.345 48.2475L288.34 48.2374Z" fill="#5D97C4"/>
<path d="M316.524 67.0623C318.124 67.3427 319.699 67.7682 321.209 68.369C321.229 68.374 321.234 68.3891 321.234 68.4041C321.249 68.5142 321.214 68.8046 321.209 68.9348C320.994 72.6396 319.764 76.85 317.519 79.8339C313.393 85.3261 306.843 85.8217 300.582 84.2446C299.727 84.0294 298.887 83.774 298.047 83.5087C298.062 83.2133 298.092 82.9029 298.132 82.6025C298.932 76.3844 301.397 69.9611 307.693 67.6381C310.448 66.6218 313.643 66.5467 316.529 67.0523L316.524 67.0623Z" fill="#2E59A6"/>
<path d="M288.34 67.6476C294.636 69.9656 297.101 76.3889 297.901 82.612C297.941 82.9124 297.971 83.2228 297.986 83.5182C297.146 83.7886 296.306 84.0389 295.451 84.2542C289.19 85.8312 282.64 85.3356 278.514 79.8434C276.274 76.8596 275.039 72.6491 274.824 68.9443C274.814 68.8141 274.784 68.5237 274.799 68.4136C274.799 68.3936 274.804 68.3835 274.824 68.3785C276.329 67.7728 277.909 67.3522 279.509 67.0718C282.39 66.5662 285.59 66.6413 288.345 67.6576L288.34 67.6476Z" fill="#5D97C4"/>
<path d="M294.277 6.6084C292.252 8.86633 290.602 11.69 290.082 14.5888C288.977 20.7618 293.022 25.7983 297.988 29.5031V3.20898C296.622 4.21529 295.387 5.36679 294.277 6.60339V6.6084Z" fill="#5D97C4"/>
<path d="M305.892 14.5886C305.372 11.6899 303.727 8.86621 301.697 6.60828C300.582 5.36666 299.346 4.21517 297.986 3.21387V29.508C302.952 25.8032 306.997 20.7667 305.892 14.5936V14.5886Z" fill="#2E59A6"/>
<path d="M35.5332 53.6902C29.9927 52.7189 23.8422 52.8591 18.5467 54.8116C6.44559 59.2724 1.70015 71.6235 0.165015 83.579C0.0900082 84.1548 0.0300027 84.7505 0 85.3213C1.61015 85.8369 3.23029 86.3276 4.87044 86.7381C16.9115 89.7721 29.5027 88.8158 37.4384 78.2571C41.7488 72.5196 44.119 64.4241 44.534 57.2999C44.544 57.1347 44.5741 56.8393 44.5841 56.594L40.0536 54.7015C38.5635 54.291 37.0534 53.9555 35.5282 53.6902H35.5332Z" fill="#2E59A6"/>
<path d="M44.584 56.5943H44.5949V56.5889L44.584 56.5943Z" fill="#5D97C4"/>
<path d="M47.1888 47.667C50.6391 33.1031 44.5885 11.0094 44.5885 11.0094C53.4993 19.7508 52.5392 37.5739 51.3841 46.5055C55.5745 44.8133 59.1849 41.6192 61.14 37.0232C62.4802 33.8791 63.0302 30.8252 62.9602 27.8913C62.6652 15.9458 51.9692 6.03295 41.5532 0.25545C40.4481 -0.355343 39.058 0.17034 38.603 1.35187C38.0179 2.87886 37.2679 4.64615 37.1778 4.85643C36.0477 7.5349 34.0476 9.64264 32.3724 11.9757C27.0119 19.4554 23.8166 30.1092 28.3921 38.7404C31.4523 44.5179 37.0028 47.4768 42.7584 47.8623C41.9683 50.4907 40.8432 53.044 40.0431 54.7012L44.5735 56.5936H44.5835L47.1838 47.667H47.1888Z" fill="#5D97C4"/>
</g>
<defs>
<clipPath id="clip0_997_777">
<rect width="330" height="281" fill="white"/>
</clipPath>
</defs>
</svg>
