<svg width="299" height="157" viewBox="0 0 299 157" fill="none" xmlns="http://www.w3.org/2000/svg">
<g clip-path="url(#clip0_997_743)">
<path d="M0 145.32H1.67V149.66H6.21V145.32H7.88V155.94H6.21V151.11H1.67V155.94H0V145.32Z" fill="#717071"/>
<path d="M11.0508 151.98C11.0508 149.34 12.8208 147.82 14.8008 147.82C16.7808 147.82 18.5208 149.35 18.5208 151.98C18.5208 154.61 16.7608 156.14 14.8008 156.14C12.8408 156.14 11.0508 154.61 11.0508 151.98ZM16.8108 151.98C16.8108 150.31 16.0308 149.19 14.7908 149.19C13.5508 149.19 12.7608 150.31 12.7608 151.98C12.7608 153.65 13.5408 154.76 14.7908 154.76C16.0408 154.76 16.8108 153.67 16.8108 151.98Z" fill="#717071"/>
<path d="M21.4703 153.34V149.34H20.3203V148.1L21.5603 148L21.7503 145.81H23.1303V148H25.1903V149.34H23.1303V153.36C23.1303 154.31 23.4603 154.8 24.3003 154.8C24.5603 154.8 24.9003 154.7 25.1303 154.61L25.4303 155.83C25.0003 155.97 24.4503 156.13 23.8703 156.13C22.1003 156.13 21.4603 155.01 21.4603 153.34H21.4703Z" fill="#717071"/>
<path d="M34.5801 145.32H36.5101L40.0301 155.94H38.2601L37.3701 152.93H33.6801L32.7901 155.94H31.0801L34.5901 145.32H34.5801ZM36.9601 151.6L36.5401 150.17C36.1901 149.02 35.8801 147.84 35.5501 146.64H35.4901C35.1701 147.85 34.8401 149.02 34.5001 150.17L34.0801 151.6H36.9601Z" fill="#717071"/>
<path d="M42.1504 145.52C42.1504 144.94 42.5704 144.54 43.1904 144.54C43.8104 144.54 44.2104 144.94 44.2104 145.52C44.2104 146.14 43.7904 146.53 43.1904 146.53C42.5904 146.53 42.1504 146.14 42.1504 145.52ZM42.3504 148H44.0104V155.94H42.3504V148Z" fill="#717071"/>
<path d="M47.5805 148H48.9305L49.0705 149.43H49.1005C49.6605 148.42 50.5005 147.82 51.3605 147.82C51.7505 147.82 51.9905 147.88 52.2405 147.98L51.9505 149.44C51.6605 149.35 51.4805 149.31 51.1405 149.31C50.4905 149.31 49.7105 149.76 49.2205 151.02V155.95H47.5605V148.01L47.5805 148Z" fill="#717071"/>
<path d="M59.0195 145.32H62.3195C64.4795 145.32 66.0495 146.03 66.0495 147.93C66.0495 148.95 65.4995 149.92 64.5395 150.23V150.3C65.7495 150.55 66.6295 151.38 66.6295 152.82C66.6295 154.92 64.9295 155.93 62.5695 155.93H59.0295V145.31L59.0195 145.32ZM62.1095 149.76C63.7195 149.76 64.3995 149.15 64.3995 148.16C64.3995 147.07 63.6495 146.63 62.1495 146.63H60.6795V149.75H62.1095V149.76ZM62.3695 154.63C64.0295 154.63 64.9795 154.04 64.9795 152.74C64.9795 151.56 64.0595 151.03 62.3695 151.03H60.6895V154.63H62.3695Z" fill="#717071"/>
<path d="M69.0996 153.83C69.0996 152.12 70.5396 151.24 73.8396 150.88C73.8296 149.97 73.4896 149.17 72.3296 149.17C71.4996 149.17 70.7196 149.54 70.0396 149.98L69.4196 148.86C70.2396 148.34 71.3496 147.82 72.6196 147.82C74.5896 147.82 75.4996 149.06 75.4996 151.18V155.95H74.1496L74.0196 155.04H73.9596C73.2396 155.66 72.3896 156.15 71.4396 156.15C70.0696 156.15 69.1096 155.24 69.1096 153.85L69.0996 153.83ZM73.8396 153.88V151.95C71.4896 152.22 70.6996 152.83 70.6996 153.71C70.6996 154.5 71.2296 154.82 71.9396 154.82C72.6496 154.82 73.1896 154.49 73.8396 153.88Z" fill="#717071"/>
<path d="M78.9199 154.07V144.46H80.5799V154.15C80.5799 154.6 80.7699 154.76 80.9699 154.76C81.0399 154.76 81.0999 154.76 81.2599 154.73L81.4599 155.98C81.2599 156.07 80.9899 156.14 80.5699 156.14C79.3699 156.14 78.9299 155.36 78.9299 154.07H78.9199Z" fill="#717071"/>
<path d="M84.2891 154.07V144.46H85.9491V154.15C85.9491 154.6 86.1391 154.76 86.3391 154.76C86.4091 154.76 86.4691 154.76 86.6291 154.73L86.8291 155.98C86.6291 156.07 86.3491 156.14 85.9391 156.14C84.7391 156.14 84.2991 155.36 84.2991 154.07H84.2891Z" fill="#717071"/>
<path d="M89.0996 151.98C89.0996 149.34 90.8696 147.82 92.8496 147.82C94.8296 147.82 96.5696 149.35 96.5696 151.98C96.5696 154.61 94.8096 156.14 92.8496 156.14C90.8896 156.14 89.0996 154.61 89.0996 151.98ZM94.8596 151.98C94.8596 150.31 94.0796 149.19 92.8396 149.19C91.5996 149.19 90.8096 150.31 90.8096 151.98C90.8096 153.65 91.5896 154.76 92.8396 154.76C94.0896 154.76 94.8596 153.67 94.8596 151.98Z" fill="#717071"/>
<path d="M99.0391 151.98C99.0391 149.34 100.809 147.82 102.789 147.82C104.769 147.82 106.509 149.35 106.509 151.98C106.509 154.61 104.749 156.14 102.789 156.14C100.829 156.14 99.0391 154.61 99.0391 151.98ZM104.799 151.98C104.799 150.31 104.019 149.19 102.779 149.19C101.539 149.19 100.749 150.31 100.749 151.98C100.749 153.65 101.529 154.76 102.779 154.76C104.029 154.76 104.799 153.67 104.799 151.98Z" fill="#717071"/>
<path d="M109.54 148H110.89L111.03 149.11H111.06C111.78 148.39 112.6 147.81 113.68 147.81C115.37 147.81 116.11 148.93 116.11 150.95V155.93H114.45V151.15C114.45 149.78 114.05 149.25 113.11 149.25C112.38 149.25 111.89 149.61 111.18 150.32V155.94H109.52V148H109.54Z" fill="#717071"/>
<path d="M161.949 145.32H168.219V146.73H163.629V149.68H167.519V151.09H163.629V154.5H168.379V155.93H161.959V145.31L161.949 145.32Z" fill="#717071"/>
<path d="M172.489 151.8L170.109 148H171.909L172.849 149.6C173.089 150.05 173.339 150.49 173.599 150.94H173.669C173.869 150.49 174.089 150.05 174.319 149.6L175.159 148H176.889L174.509 151.98L177.059 155.94H175.259L174.219 154.25C173.959 153.79 173.689 153.3 173.399 152.85H173.329C173.089 153.3 172.839 153.77 172.599 154.25L171.679 155.94H169.949L172.499 151.81L172.489 151.8Z" fill="#717071"/>
<path d="M178.721 151.98C178.721 149.34 180.551 147.82 182.641 147.82C183.651 147.82 184.381 148.22 184.961 148.73L184.141 149.81C183.711 149.44 183.261 149.19 182.731 149.19C181.391 149.19 180.441 150.31 180.441 151.98C180.441 153.65 181.361 154.76 182.671 154.76C183.331 154.76 183.921 154.46 184.401 154.04L185.091 155.15C184.351 155.8 183.421 156.14 182.511 156.14C180.361 156.14 178.721 154.61 178.721 151.98Z" fill="#717071"/>
<path d="M187.811 154.06V144.45H189.471V154.14C189.471 154.59 189.661 154.74 189.861 154.74C189.931 154.74 189.991 154.74 190.151 154.71L190.351 155.96C190.151 156.05 189.881 156.12 189.461 156.12C188.261 156.12 187.821 155.34 187.821 154.05L187.811 154.06Z" fill="#717071"/>
<path d="M192.721 153.83C192.721 152.12 194.161 151.24 197.461 150.88C197.451 149.97 197.111 149.17 195.951 149.17C195.121 149.17 194.341 149.54 193.661 149.98L193.041 148.86C193.861 148.34 194.971 147.82 196.241 147.82C198.211 147.82 199.121 149.06 199.121 151.18V155.95H197.771L197.641 155.04H197.581C196.861 155.66 196.011 156.15 195.061 156.15C193.691 156.15 192.731 155.24 192.731 153.85L192.721 153.83ZM197.461 153.88V151.95C195.111 152.22 194.321 152.83 194.321 153.71C194.321 154.5 194.851 154.82 195.561 154.82C196.271 154.82 196.811 154.49 197.461 153.88Z" fill="#717071"/>
<path d="M202.54 148H203.89L204.03 149.12H204.06C204.75 148.39 205.53 147.81 206.52 147.81C207.7 147.81 208.35 148.36 208.69 149.27C209.48 148.43 210.27 147.81 211.27 147.81C212.93 147.81 213.7 148.93 213.7 150.95V155.93H212.03V151.15C212.03 149.78 211.63 149.25 210.72 149.25C210.19 149.25 209.6 149.6 208.93 150.32V155.94H207.27V151.16C207.27 149.79 206.85 149.26 205.94 149.26C205.41 149.26 204.82 149.61 204.17 150.33V155.95H202.51V148.01L202.54 148Z" fill="#717071"/>
<path d="M216.74 153.83C216.74 152.12 218.18 151.24 221.48 150.88C221.47 149.97 221.13 149.17 219.97 149.17C219.14 149.17 218.36 149.54 217.68 149.98L217.06 148.86C217.88 148.34 218.99 147.82 220.26 147.82C222.23 147.82 223.14 149.06 223.14 151.18V155.95H221.79L221.66 155.04H221.6C220.88 155.66 220.03 156.15 219.08 156.15C217.71 156.15 216.75 155.24 216.75 153.85L216.74 153.83ZM221.48 153.88V151.95C219.13 152.22 218.34 152.83 218.34 153.71C218.34 154.5 218.87 154.82 219.58 154.82C220.29 154.82 220.83 154.49 221.48 153.88Z" fill="#717071"/>
<path d="M226.58 153.34V149.34H225.43V148.1L226.67 148L226.86 145.81H228.24V148H230.3V149.34H228.24V153.36C228.24 154.31 228.57 154.8 229.41 154.8C229.67 154.8 230.01 154.7 230.24 154.61L230.54 155.83C230.11 155.97 229.56 156.13 228.98 156.13C227.21 156.13 226.57 155.01 226.57 153.34H226.58Z" fill="#717071"/>
<path d="M232.9 145.52C232.9 144.94 233.32 144.54 233.94 144.54C234.56 144.54 234.96 144.94 234.96 145.52C234.96 146.14 234.54 146.53 233.94 146.53C233.34 146.53 232.9 146.14 232.9 145.52ZM233.1 148H234.76V155.94H233.1V148Z" fill="#717071"/>
<path d="M237.77 151.98C237.77 149.34 239.54 147.82 241.52 147.82C243.5 147.82 245.24 149.35 245.24 151.98C245.24 154.61 243.48 156.14 241.52 156.14C239.56 156.14 237.77 154.61 237.77 151.98ZM243.53 151.98C243.53 150.31 242.75 149.19 241.51 149.19C240.27 149.19 239.48 150.31 239.48 151.98C239.48 153.65 240.26 154.76 241.51 154.76C242.76 154.76 243.53 153.67 243.53 151.98Z" fill="#717071"/>
<path d="M248.27 148H249.62L249.76 149.11H249.79C250.51 148.39 251.33 147.81 252.41 147.81C254.1 147.81 254.84 148.93 254.84 150.95V155.93H253.18V151.15C253.18 149.78 252.78 149.25 251.84 149.25C251.11 149.25 250.62 149.61 249.91 150.32V155.94H248.25V148H248.27Z" fill="#717071"/>
<path d="M262.801 145.32H264.731L266.661 150.69C266.901 151.38 267.131 152.12 267.371 152.82H267.441C267.691 152.11 267.901 151.38 268.131 150.69L270.031 145.32H271.971V155.94H270.421V150.7C270.421 149.75 270.551 148.38 270.651 147.42H270.581L269.731 149.87L267.891 154.93H266.851L264.991 149.87L264.141 147.42H264.081C264.181 148.38 264.311 149.75 264.311 150.7V155.94H262.801V145.32Z" fill="#717071"/>
<path d="M275.23 153.83C275.23 152.12 276.67 151.24 279.97 150.88C279.96 149.97 279.62 149.17 278.46 149.17C277.63 149.17 276.85 149.54 276.17 149.98L275.55 148.86C276.37 148.34 277.48 147.82 278.75 147.82C280.72 147.82 281.63 149.06 281.63 151.18V155.95H280.28L280.15 155.04H280.09C279.37 155.66 278.52 156.15 277.57 156.15C276.2 156.15 275.24 155.24 275.24 153.85L275.23 153.83ZM279.97 153.88V151.95C277.62 152.22 276.83 152.83 276.83 153.71C276.83 154.5 277.36 154.82 278.07 154.82C278.78 154.82 279.32 154.49 279.97 153.88Z" fill="#717071"/>
<path d="M285.049 148H286.399L286.539 149.43H286.569C287.129 148.42 287.969 147.82 288.829 147.82C289.219 147.82 289.459 147.88 289.709 147.98L289.419 149.44C289.129 149.35 288.939 149.31 288.609 149.31C287.959 149.31 287.179 149.76 286.689 151.02V155.95H285.029V148.01L285.049 148Z" fill="#717071"/>
<path d="M292.02 144.46H293.65V151.85H293.71L296.78 148H298.62L295.94 151.24L298.92 155.94H297.12L294.97 152.35L293.64 153.88V155.94H292.01V144.46H292.02Z" fill="#717071"/>
<path d="M66.6509 92.25C66.5509 92.22 66.4509 92.2 66.3509 92.18C66.2409 92.16 66.2209 92.21 66.3709 92.18C66.3309 92.18 66.2609 92.17 66.2209 92.17C66.1209 92.17 66.0209 92.17 65.9309 92.17C65.9109 92.17 65.9009 92.17 65.8809 92.17C65.8509 92.17 65.8209 92.18 65.7909 92.19C65.7409 92.2 65.6809 92.22 65.6309 92.24C65.5409 92.27 65.5209 92.34 65.6509 92.23C65.5909 92.29 65.4709 92.32 65.3909 92.37C65.3909 92.38 65.3609 92.4 65.3409 92.41C65.3109 92.43 65.2809 92.46 65.2809 92.46C65.2809 92.46 65.2709 92.47 65.2609 92.48L64.5309 98.89H49.0509L48.3809 92.96C48.1309 92.75 47.8909 92.53 47.6409 92.33C47.6309 92.32 47.6409 92.33 47.6209 92.32C47.6209 92.32 47.6209 92.32 47.6109 92.32C47.5609 92.29 47.5209 92.25 47.4709 92.22C47.3909 92.16 47.3009 92.1 47.2209 92.05C47.0709 91.95 46.9009 91.88 46.7509 91.79C46.7509 91.79 46.7309 91.79 46.7209 91.79C46.6809 91.78 46.6509 91.77 46.6109 91.76C46.5909 91.76 46.5709 91.76 46.5509 91.75C46.5409 91.75 46.5209 91.75 46.5009 91.75C46.4909 91.76 46.4709 91.78 46.4609 91.79C46.4609 91.79 46.4609 91.79 46.4609 91.8C46.4609 91.8 46.4609 91.81 46.4609 91.82C46.5609 91.85 46.6609 91.88 46.7709 91.91L48.9609 111.14H64.6609L66.8009 92.32C66.8009 92.32 66.7109 92.29 66.6709 92.28L66.6509 92.25Z" fill="#5D97C4"/>
<path d="M42.9204 3.74981C18.0004 12.3298 8.0504 44.3298 23.1204 65.9198C26.3504 70.6598 30.6904 74.5398 34.1104 79.0598C37.7104 83.4198 40.3304 88.7298 44.2104 92.8398H68.9304C71.6904 89.9098 73.8204 86.3698 76.2104 83.1398C79.9204 77.7098 85.1204 73.0498 89.3304 67.8098C94.7404 60.8098 97.8504 51.8098 97.8604 42.6698V42.4598C98.0604 14.0698 69.4704 -6.01019 42.9204 3.74981Z" fill="#2E59A6"/>
<path d="M217.869 101.1C217.869 94.5796 222.619 90.0596 229.129 90.0596C235.639 90.0596 240.399 94.5796 240.399 101.1C240.399 107.62 235.649 112.36 229.129 112.36C222.609 112.36 217.869 107.61 217.869 101.1Z" fill="#2E59A6"/>
<path d="M214.281 26.79L213.311 0H244.951L243.981 26.79L239.131 77.79H219.121L214.281 26.79Z" fill="#5D97C4"/>
</g>
<defs>
<clipPath id="clip0_997_743">
<rect width="298.92" height="156.14" fill="white"/>
</clipPath>
</defs>
</svg>
