<svg width="236" height="158" viewBox="0 0 236 158" fill="none" xmlns="http://www.w3.org/2000/svg">
<g clip-path="url(#clip0_997_405)">
<path d="M21.7609 147.6C21.5909 148.8 21.0409 149.5 19.4409 149.92C19.3509 149.66 19.0809 149.29 18.8809 149.1C20.1309 148.83 20.5709 148.39 20.7109 147.6H19.1509V146.64H21.6909V145.73H19.6709V144.78H21.6909V143.9H22.8709V144.78H24.9009V145.73H22.8709V146.64H25.3809V147.6H23.7109V148.19C23.7109 148.49 23.7209 148.59 23.9309 148.59H24.6709C24.8309 148.59 25.1609 148.56 25.3309 148.52C25.3409 148.76 25.3709 149.08 25.4009 149.33C25.2409 149.4 24.9409 149.4 24.6909 149.4H23.7409C22.8909 149.4 22.7209 149.04 22.7209 148.19V147.6H21.7709H21.7609ZM18.9509 156.56C19.6109 156.01 20.2809 155.01 20.6609 154.07L21.9409 154.4C21.5609 155.38 20.9209 156.43 20.2109 157.09L18.9409 156.56H18.9509ZM31.0309 152.45C31.1209 152.45 31.1909 152.44 31.2309 152.38C31.2709 152.32 31.3009 152.18 31.3309 151.93C31.3609 151.64 31.3709 151.04 31.3709 150.24C31.6009 150.44 31.9509 150.63 32.2309 150.71C32.2209 151.43 32.1709 152.34 32.1009 152.66C32.0309 152.98 31.9009 153.19 31.7409 153.32C31.5709 153.45 31.2909 153.51 31.0509 153.51H30.4609C30.1909 153.51 29.8709 153.42 29.6709 153.22C29.4709 153 29.4009 152.74 29.4009 151.75V146.98H28.2509C28.2109 147.85 28.1209 148.65 28.0209 149.37C28.5409 149.76 29.0409 150.1 29.3609 150.39L28.7709 151.51C28.5009 151.28 28.1409 150.98 27.7209 150.66C27.3509 151.94 26.7309 152.98 25.7309 153.79C25.5909 153.57 25.3009 153.24 25.0509 153.03C22.9009 153.26 20.7009 153.49 19.1209 153.65L19.0209 152.53C19.7509 152.47 20.6809 152.4 21.6809 152.31V151.2H19.4809V150.22H21.6809V149.28H22.8609V150.22H24.9809V151.2H22.8609V152.21C23.6709 152.14 24.5009 152.07 25.3209 151.98V152.51C26.0109 151.8 26.4309 150.94 26.6909 149.89C26.2609 149.57 25.8309 149.26 25.4509 148.98L26.0109 148L26.9209 148.62C26.9909 148.1 27.0409 147.55 27.0609 146.98H25.6509V145.8H27.0909C27.1009 145.18 27.1209 144.53 27.1209 143.85H28.3309C28.3309 144.53 28.3209 145.17 28.3009 145.8H30.6009V151.76C30.6009 152.11 30.6009 152.31 30.6409 152.38C30.6709 152.42 30.7309 152.44 30.8009 152.44H31.0209L31.0309 152.45ZM24.3609 154.35C24.5309 155.14 24.6809 156.16 24.6909 156.77L23.3509 156.94C23.3509 156.31 23.2509 155.28 23.0909 154.48L24.3609 154.35ZM27.2609 154.24C27.6109 155.02 27.9709 156.03 28.0709 156.67L26.7509 156.92C26.6509 156.29 26.3509 155.25 26.0009 154.46L27.2709 154.24H27.2609ZM30.2009 154.01C30.8509 154.8 31.6409 155.91 31.9909 156.63L30.6409 157.09C30.3209 156.38 29.5709 155.25 28.9309 154.43L30.2109 154.01H30.2009Z" fill="#717071"/>
<path d="M37.7393 146.17C37.0193 147.31 36.1393 148.3 35.2293 149.04C35.0293 148.76 34.5693 148.22 34.2793 147.97C35.6093 147.01 36.7993 145.48 37.4793 143.85L38.7893 144.22C38.6593 144.52 38.5193 144.81 38.3593 145.11H46.9993V146.16H37.7393V146.17ZM38.3593 154.15C37.6993 155.27 36.5193 156.44 35.4193 157.03C35.2293 156.73 34.8393 156.3 34.5693 156.07C35.6193 155.61 36.7693 154.67 37.3593 153.78L38.3493 154.16L38.3593 154.15ZM39.8893 153.43V157.06H38.6393V153.43H34.9093V152.38H38.6393V150.05H39.8893V152.38H41.3493L40.5093 152.05C40.9293 151.52 41.4193 150.71 41.6793 150.16L42.8793 150.55C42.3793 151.23 41.8293 151.92 41.3993 152.38H43.4693V153.43H39.8993H39.8893ZM36.8193 150.12C37.2693 150.65 37.7093 151.37 37.8893 151.86L36.8193 152.31C36.6593 151.82 36.2293 151.09 35.8093 150.55L36.8193 150.12ZM45.1693 148.69C45.1393 152.91 45.2693 155.73 46.2793 155.73C46.5493 155.73 46.6293 154.91 46.6393 153.69C46.9093 153.99 47.2593 154.32 47.5293 154.52C47.4293 156.36 47.1593 157.06 46.1993 157.06C44.1393 157.06 43.8693 154.18 43.8193 149.74H35.8293V148.69H45.1593H45.1693ZM37.3793 147.93V146.92H45.8493V147.93H37.3793ZM41.0693 153.76C41.9793 154.41 43.1593 155.33 43.7493 155.95L42.9093 156.77C42.3493 156.15 41.1993 155.17 40.2893 154.48L41.0693 153.76Z" fill="#717071"/>
<path d="M62.8509 148.81C62.0909 149.82 61.1609 151 60.4209 151.78C61.0509 153.1 61.9309 154.1 63.2309 155.01C62.9309 155.25 62.5509 155.67 62.4109 156.05C61.0009 154.98 60.0309 153.82 59.3609 152.3V155.51C59.3609 156.23 59.1909 156.6 58.7509 156.82C58.3009 157.05 57.6309 157.09 56.5209 157.09C56.4609 156.74 56.2309 156.15 56.0609 155.81C56.8409 155.84 57.5309 155.82 57.7509 155.82C57.9809 155.81 58.0709 155.73 58.0709 155.5V152.56C56.9609 153.67 55.8209 154.75 54.8709 155.61L54.0509 154.44L54.2509 154.28C52.7709 154.77 51.2109 155.26 50.0009 155.64L49.7109 154.36C50.2109 154.23 50.8509 154.04 51.5209 153.84V150.09H49.9809V148.85H51.5209V145.98H49.8809V144.74H54.3309V145.98H52.7609V148.85H54.1109V150.09H52.7609V153.46L54.4009 152.96L54.5709 154.03C55.5209 153.27 56.8309 152.16 58.0609 151.11V147.49H54.6509V146.25H58.0609V143.86H59.3609V146.25H63.0009V147.49H59.3609V148.08C59.5209 149.06 59.7209 149.89 59.9709 150.64C60.5909 149.88 61.2709 148.94 61.7009 148.19L62.8709 148.8L62.8509 148.81ZM55.8309 148.29C56.4309 149.08 57.0809 150.15 57.3309 150.85L56.2209 151.38C56.0009 150.66 55.3909 149.56 54.7909 148.74L55.8309 148.28V148.29ZM61.5909 146.24C61.2409 145.78 60.5209 145.12 59.9209 144.67L60.6709 143.98C61.2909 144.4 62.0409 145.02 62.4009 145.45L61.5909 146.24Z" fill="#717071"/>
<path d="M202.96 145.91C202.64 146.62 202.18 147.21 201.62 147.7C202.37 148.09 203.22 148.41 204.13 148.58C203.86 148.83 203.53 149.27 203.37 149.57C202.39 149.31 201.47 148.92 200.68 148.4C199.95 148.85 199.08 149.19 198.17 149.47C198.03 149.21 197.68 148.75 197.45 148.55C198.3 148.35 199.09 148.06 199.77 147.72C199.41 147.4 199.09 147.09 198.82 146.73C198.59 146.95 198.37 147.16 198.14 147.35C198.01 147.18 197.77 146.89 197.54 146.69C197.44 148.19 197.34 148.81 197.11 149.1C196.91 149.3 196.69 149.39 196.39 149.42C196.14 149.45 195.7 149.45 195.24 149.42C195.23 149.26 195.2 149.06 195.14 148.87H193.02V149.27H192.08V147.63C191.91 147.8 191.73 147.95 191.55 148.09C191.38 147.87 191.03 147.53 190.82 147.4C191.6 146.87 192.12 146.18 192.42 145.54L193.46 145.7C193.42 145.79 193.37 145.89 193.33 145.97H197.59V146.27C198.35 145.64 199.03 144.77 199.43 143.88L200.57 144.2C200.45 144.46 200.33 144.69 200.18 144.93H203.8V145.92H202.98L202.96 145.91ZM193.05 145.16H191.19V144.35H193.05V143.86H194.12V145.56H193.05V145.16ZM191.25 156.5C191.73 156.04 192.23 155.26 192.55 154.7L193.62 155.23C193.3 155.84 192.83 156.6 192.37 157.12L191.26 156.5H191.25ZM195.5 148.56H195.82C195.95 148.56 196.05 148.55 196.14 148.43C196.26 148.29 196.33 147.84 196.41 146.7H192.87C192.77 146.84 192.65 146.99 192.54 147.13H195.51V148.56H195.5ZM203.49 153.76C203.49 153.76 203.48 154.06 203.45 154.22C203.28 155.75 203.1 156.45 202.8 156.74C202.55 156.97 202.31 157.06 201.98 157.09C201.69 157.12 201.14 157.12 200.54 157.08C200.53 156.83 200.44 156.5 200.32 156.23L199.99 156.39C199.85 156.03 199.46 155.5 199.13 155.11L200.02 154.75C200.38 155.11 200.77 155.61 200.96 155.95L200.58 156.12C200.93 156.15 201.21 156.15 201.36 156.15C201.55 156.15 201.65 156.14 201.75 156.03C201.89 155.87 202.02 155.48 202.14 154.6H192.83V149.67H202.54V150.5H198.46V151.12H202V151.83H198.46V152.44H202.03V153.15H198.46V153.77H203.49V153.76ZM194.55 147.71H193.01V148.27H194.55V147.71ZM194.12 150.51V151.13H197.19V150.51H194.12ZM197.18 151.83H194.11V152.44H197.18V151.83ZM194.12 153.76H197.19V153.14H194.12V153.76ZM195.51 155C195.71 155.55 195.87 156.28 195.93 156.77L194.79 156.97C194.76 156.49 194.6 155.75 194.43 155.18L195.51 154.99V155ZM196.1 145.71H195.03V143.87H196.1V144.36H197.96V145.19H196.1V145.71ZM197.82 154.94C198.12 155.42 198.4 156.06 198.53 156.5L197.48 156.8C197.36 156.37 197.08 155.69 196.82 155.22L197.83 154.95L197.82 154.94ZM200.67 147.11C201.1 146.76 201.43 146.36 201.69 145.91H199.5C199.8 146.34 200.21 146.75 200.67 147.11Z" fill="#717071"/>
<path d="M207.97 153.32V154.64H206.83V145.16H210.45V153.31H207.97V153.32ZM207.97 146.4V152.07H209.29V146.4H207.97ZM215.24 154.48C214.65 155.6 213.43 156.54 211.11 157.09C210.97 156.83 210.62 156.33 210.36 156.08C212.17 155.75 213.21 155.17 213.79 154.48H210.81V153.46H214.32C214.39 153.21 214.45 152.97 214.46 152.71H211.43V151.69H214.5V150.97H211.47V148.22H214.5V147.64H212.57V145.95H210.93V144.91H212.57V143.84H213.75V144.91H216.43V143.84H217.67V144.91H219.38V145.95H217.67V147.64H215.75V148.22H218.72V150.97H215.75V151.69H218.76V152.71H215.72C215.69 152.97 215.65 153.21 215.59 153.46H219.32V154.48H215.23H215.24ZM214.51 150.08V149.11H212.62V150.08H214.51ZM213.76 146.76H216.44V145.95H213.76V146.76ZM216.09 154.51C217.2 154.91 218.74 155.59 219.53 156.08L218.9 157.04C218.15 156.56 216.62 155.83 215.47 155.38L216.09 154.5V154.51ZM215.76 149.11V150.08H217.53V149.11H215.76Z" fill="#717071"/>
<path d="M226.52 151.73C226.52 151.73 226.51 152.05 226.49 152.22C226.3 154.94 226.13 156.07 225.74 156.47C225.51 156.74 225.25 156.84 224.86 156.89C224.54 156.93 223.98 156.93 223.4 156.89C223.37 156.56 223.26 156.08 223.07 155.78C223.6 155.82 224.12 155.84 224.34 155.84C224.54 155.84 224.67 155.81 224.79 155.7C225.01 155.47 225.18 154.71 225.31 152.79H222.46C222.63 152.16 222.85 151.31 222.99 150.5H221.82V149.33H227.05V150.5H224.13C224.04 150.92 223.96 151.35 223.87 151.74H226.52V151.73ZM226.74 148.33H222.51V144.43H226.74V148.33ZM225.7 145.41H223.48V147.37H225.7V145.41ZM233.23 150.48C233.48 150.48 233.95 150.47 234.14 150.39C234.17 150.74 234.2 151.07 234.24 151.37C234.02 151.46 233.62 151.47 233.28 151.47H231.65C230.61 151.47 230.38 150.98 230.38 149.96V149.74L229.16 149.87L229.03 148.93L230.38 148.8V147.72H228.77V150.3C228.77 152.3 228.57 155.18 227.34 157.08C227.15 156.86 226.62 156.5 226.36 156.37C227.48 154.6 227.6 152.12 227.6 150.28V146.65H230.39V143.84H231.66V144.73H234.48V145.81H231.66V146.64H234.12L234.31 146.58L235.13 146.78C234.97 147.66 234.74 148.7 234.55 149.36L233.56 149.11C233.65 148.73 233.73 148.22 233.82 147.7H231.52V148.67L233.15 148.51L233.27 149.43L231.53 149.6V149.96C231.53 150.31 231.57 150.45 231.88 150.45H233.25L233.23 150.48ZM230.84 152.08C230.74 154.41 230.42 156.08 228.84 157.09C228.71 156.82 228.38 156.38 228.12 156.21C229.42 155.4 229.65 154.01 229.73 152.08H230.84ZM233.69 155.62C233.82 155.62 233.96 155.61 234.02 155.55C234.08 155.51 234.15 155.41 234.18 155.28C234.21 155.05 234.24 154.52 234.22 153.88C234.44 154.08 234.85 154.31 235.17 154.41C235.16 155.09 235.1 155.79 235.01 156.04C234.91 156.33 234.76 156.52 234.56 156.63C234.37 156.73 234.06 156.8 233.78 156.8H233C232.68 156.8 232.34 156.73 232.12 156.53C231.89 156.31 231.85 156.1 231.85 155.38V152.1H232.96V155.34C232.96 155.43 232.97 155.51 233.05 155.56C233.09 155.6 233.19 155.63 233.31 155.63H233.69V155.62Z" fill="#717071"/>
<path d="M50.6392 92.25C50.5392 92.22 50.4392 92.2 50.3392 92.18C50.2292 92.16 50.2092 92.21 50.3592 92.18C50.3192 92.18 50.2492 92.17 50.2092 92.17C50.1092 92.17 50.0092 92.17 49.9192 92.17C49.8992 92.17 49.8892 92.17 49.8692 92.17C49.8392 92.17 49.8092 92.18 49.7792 92.19C49.7292 92.2 49.6692 92.22 49.6192 92.24C49.5292 92.27 49.5092 92.34 49.6392 92.23C49.5792 92.29 49.4592 92.32 49.3792 92.37C49.3792 92.38 49.3492 92.4 49.3292 92.41C49.2992 92.43 49.2692 92.46 49.2692 92.46C49.2692 92.46 49.2592 92.47 49.2492 92.48L48.5192 98.89H33.0392L32.3692 92.96C32.1192 92.75 31.8792 92.53 31.6292 92.33C31.6192 92.32 31.6292 92.33 31.6092 92.32C31.6092 92.32 31.6092 92.32 31.5992 92.32C31.5492 92.29 31.5092 92.25 31.4592 92.22C31.3792 92.16 31.2892 92.1 31.2092 92.05C31.0592 91.95 30.8892 91.88 30.7392 91.79C30.7392 91.79 30.7192 91.79 30.7092 91.79C30.6692 91.78 30.6392 91.77 30.5992 91.76C30.5792 91.76 30.5592 91.76 30.5392 91.75C30.5292 91.75 30.5092 91.75 30.4892 91.75C30.4792 91.76 30.4592 91.78 30.4492 91.79C30.4492 91.79 30.4492 91.79 30.4492 91.8C30.4492 91.8 30.4492 91.81 30.4492 91.82C30.5492 91.85 30.6492 91.88 30.7592 91.91L32.9492 111.14H48.6492L50.7892 92.32C50.7892 92.32 50.6992 92.29 50.6592 92.28L50.6392 92.25Z" fill="#5D97C4"/>
<path d="M26.9106 3.74981C1.99063 12.3298 -7.95937 44.3298 7.11063 65.9198C10.3406 70.6598 14.6806 74.5398 18.1006 79.0598C21.7006 83.4198 24.3206 88.7298 28.2006 92.8398H52.9206C55.6806 89.9098 57.8106 86.3698 60.2006 83.1398C63.9106 77.7098 69.1106 73.0498 73.3206 67.8098C78.7306 60.8098 81.8406 51.8098 81.8506 42.6698V42.4598C82.0506 14.0698 53.4606 -6.01019 26.9106 3.74981Z" fill="#2E59A6"/>
<path d="M201.689 101.1C201.689 94.5796 206.439 90.0596 212.949 90.0596C219.459 90.0596 224.219 94.5796 224.219 101.1C224.219 107.62 219.469 112.36 212.949 112.36C206.429 112.36 201.689 107.61 201.689 101.1Z" fill="#2E59A6"/>
<path d="M198.111 26.79L197.141 0H228.771L227.801 26.79L222.961 77.79H202.951L198.111 26.79Z" fill="#5D97C4"/>
</g>
<defs>
<clipPath id="clip0_997_405">
<rect width="235.18" height="157.12" fill="white"/>
</clipPath>
</defs>
</svg>
