<svg width="1659" height="186" viewBox="0 0 1659 186" fill="none" xmlns="http://www.w3.org/2000/svg">
<path d="M60.7127 96.2361C60.4927 79.4761 46.7227 66.0561 29.9627 66.2861C13.2027 66.5161 -0.217333 80.2761 0.00266672 97.0361C0.222667 113.796 13.9927 127.216 30.7527 126.996C47.5127 126.776 60.9327 113.006 60.7127 96.2461V96.2361Z" fill="#3858A0"/>
<path d="M416.812 166.666C416.812 166.666 416.892 166.586 416.972 166.546C418.962 165.236 420.832 163.686 422.452 161.976C441.342 145.096 453.272 120.646 453.562 93.4962C453.592 92.6962 453.622 91.8862 453.612 91.0862C453.602 90.2862 453.552 89.4762 453.502 88.6762C452.502 61.5462 439.932 37.4062 420.602 21.0362C418.932 19.3762 417.022 17.8662 415.002 16.6162L414.842 16.4962C397.552 5.43621 376.422 -0.713791 353.822 0.0662087C348.322 0.256209 342.992 0.816209 337.822 1.76621H337.702C330.042 2.22621 321.582 3.26621 312.282 4.87621C309.872 4.87621 307.072 5.42621 303.992 6.46621C303.752 6.50621 303.512 6.55621 303.232 6.59621C275.912 12.1762 241.542 18.8562 207.712 26.8862C205.742 26.9962 203.542 27.5462 201.112 28.4562C165.202 37.1562 130.522 47.4162 106.262 59.5062C106.182 59.5462 106.102 59.6262 106.022 59.6262C91.0023 65.4462 80.6023 78.2362 79.5123 92.9062C79.4723 93.0662 79.4723 93.2662 79.4823 93.4662C79.4823 93.5862 79.4423 93.7462 79.4423 93.9062C79.4123 94.4662 79.3823 95.0762 79.3823 95.6362V95.9962C79.5123 105.516 83.5223 114.336 90.2423 121.116C96.0223 126.986 103.792 131.336 112.732 133.386C136.722 143.636 169.042 152.126 202.032 159.316C204.492 160.286 206.872 160.776 209.082 160.826C244.002 168.236 279.132 174.166 305.512 179.116C305.632 179.156 305.792 179.156 305.912 179.196C308.252 179.926 310.502 180.296 312.672 180.356C322.492 181.956 331.382 182.916 339.332 183.256C344.802 184.186 350.472 184.636 356.262 184.676C378.872 184.856 399.832 178.156 416.832 166.646L416.812 166.666Z" fill="#3858A0"/>
<path d="M1598.29 88.7639C1598.51 105.524 1612.28 118.944 1629.04 118.714C1645.8 118.484 1659.22 104.724 1659 87.9639C1658.78 71.2039 1645.01 57.7839 1628.25 58.0039C1611.49 58.2239 1598.07 71.9939 1598.29 88.7539L1598.29 88.7639Z" fill="white"/>
<path d="M1242.19 18.3338C1242.19 18.3338 1242.11 18.4138 1242.03 18.4538C1240.04 19.7638 1238.17 21.3138 1236.55 23.0238C1217.66 39.9038 1205.73 64.3538 1205.44 91.5038C1205.41 92.3038 1205.38 93.1138 1205.39 93.9138C1205.4 94.7138 1205.45 95.5238 1205.5 96.3238C1206.5 123.454 1219.07 147.594 1238.4 163.964C1240.07 165.624 1241.98 167.134 1244 168.384L1244.16 168.504C1261.45 179.564 1282.58 185.714 1305.18 184.934C1310.68 184.744 1316.01 184.184 1321.18 183.234L1321.3 183.234C1328.96 182.774 1337.42 181.734 1346.72 180.124C1349.13 180.124 1351.93 179.574 1355.01 178.534C1355.25 178.494 1355.49 178.444 1355.77 178.404C1383.09 172.824 1417.46 166.144 1451.29 158.114C1453.26 158.004 1455.46 157.454 1457.89 156.544C1493.8 147.844 1528.48 137.584 1552.74 125.494C1552.82 125.454 1552.9 125.374 1552.98 125.374C1568 119.554 1578.4 106.764 1579.49 92.0938C1579.53 91.9338 1579.53 91.7338 1579.52 91.5338C1579.52 91.4138 1579.56 91.2538 1579.56 91.0938C1579.59 90.5338 1579.62 89.9238 1579.62 89.3638L1579.62 89.0038C1579.49 79.4838 1575.48 70.6638 1568.76 63.8838C1562.98 58.0138 1555.21 53.6638 1546.27 51.6138C1522.28 41.3638 1489.96 32.8738 1456.97 25.6838C1454.51 24.7138 1452.13 24.2238 1449.92 24.1738C1415 16.7638 1379.87 10.8338 1353.49 5.88377C1353.37 5.84378 1353.21 5.84376 1353.09 5.80377C1350.75 5.07377 1348.5 4.70378 1346.33 4.64378C1336.51 3.04377 1327.62 2.08376 1319.67 1.74377C1314.2 0.813774 1308.53 0.363761 1302.74 0.323767C1280.13 0.143773 1259.17 6.84377 1242.17 18.3538L1242.19 18.3338Z" fill="white"/>
<path d="M286.96 139.85H291.2V141.07H286.96V143.06H292.12V144.28H287.6C288.77 145.85 290.67 147.37 292.45 148.14C292.15 148.39 291.76 148.88 291.55 149.21C289.9 148.37 288.21 146.9 286.96 145.27V149.86H285.66V145.34C284.43 146.94 282.74 148.36 281.1 149.21C280.88 148.9 280.48 148.4 280.19 148.16C281.98 147.38 283.87 145.87 285.03 144.29H280.58V143.07H285.66V141.08H281.53V139.86H285.66V137.81H286.96V139.86V139.85Z" fill="white"/>
<path d="M304.14 142.62C304.93 143.24 305.88 144.01 306.39 144.52L305.54 145.36C305.12 144.92 304.36 144.24 303.64 143.64C303.34 144.16 303 144.61 302.63 144.99C302.41 144.82 301.94 144.52 301.64 144.37C302.84 146.01 304.76 147.48 306.72 148.2C306.41 148.47 306.01 148.98 305.8 149.32C304.11 148.55 302.47 147.23 301.24 145.67V149.86H299.94V145.71C298.69 147.26 297.08 148.54 295.42 149.31C295.22 149 294.84 148.52 294.55 148.26C296.67 147.42 298.78 145.69 299.95 143.84V140.73H295.05V139.52H299.95V137.79H301.25V139.52H306.31V140.73H301.25V143.77L301.61 144.32C302.52 143.54 303.12 142.32 303.39 140.93L304.59 141.15C304.47 141.67 304.33 142.16 304.15 142.62H304.14ZM297.95 142.66C298.47 143.1 299.02 143.6 299.33 143.96L298.5 144.82C298.27 144.52 297.86 144.1 297.45 143.7C297.01 144.48 296.46 145.13 295.85 145.64C295.64 145.42 295.17 145.02 294.9 144.83C296.07 143.97 296.88 142.58 297.25 140.93L298.45 141.16C298.32 141.68 298.15 142.17 297.96 142.65L297.95 142.66Z" fill="white"/>
<path d="M316.77 139.82H320.58V140.4C320.39 146.33 320.23 148.37 319.7 149.02C319.37 149.46 319.05 149.58 318.56 149.64C318.1 149.69 317.33 149.68 316.58 149.64C316.55 149.3 316.4 148.78 316.16 148.44C317 148.52 317.78 148.52 318.11 148.52C318.37 148.52 318.51 148.48 318.67 148.31C319.07 147.87 319.25 145.89 319.41 140.94H316.33C315.97 141.78 315.56 142.54 315.13 143.14C314.92 142.96 314.45 142.65 314.17 142.46V148.49H310.61V149.49H309.48V139.87H310.96C311.13 139.23 311.32 138.39 311.4 137.75L312.74 137.97C312.53 138.62 312.28 139.31 312.06 139.87H314.17V142.34C315.04 141.21 315.73 139.47 316.13 137.75L317.31 138.02C317.15 138.62 316.97 139.22 316.76 139.8L316.77 139.82ZM310.61 143.45H313.04V140.98H310.61V143.45ZM313.04 147.4V144.51H310.61V147.4H313.04ZM318.45 145.75L317.41 146.4C317.05 145.61 316.2 144.32 315.51 143.37L316.47 142.82C317.16 143.73 318.04 144.98 318.45 145.75Z" fill="white"/>
<path d="M327.94 141.57C329.27 140.66 330.68 139.16 331.48 137.67L332.36 138.07L332.11 138.51C333.19 139.8 334.33 140.76 335.46 141.55C335.17 141.78 334.82 142.19 334.65 142.53C334.32 142.27 334.01 142 333.7 141.71V142.33H329.46V141.81C329.16 142.1 328.85 142.36 328.55 142.59C328.41 142.36 328.16 142.06 327.93 141.81V145.78H326.31V146.69H328.14V147.74H326.31V149.85H325.22V147.74H323.22V146.69H325.22V145.78H323.6V141.05H325.22V140.17H323.35V139.12H325.22V137.81H326.31V139.12H328.16V140.17H326.31V141.05H327.93V141.57H327.94ZM325.34 142.98V141.93H324.51V142.98H325.34ZM325.34 144.88V143.83H324.51V144.88H325.34ZM326.2 142.98H327.01V141.93H326.2V142.98ZM326.2 144.88H327.01V143.83H326.2V144.88ZM334.4 149.61C334.14 149.79 333.83 149.82 333.35 149.82C333.32 149.52 333.18 149.07 333.05 148.78C333.31 148.79 333.53 148.79 333.63 148.79C333.71 148.78 333.73 148.75 333.73 148.63V146.9H332.91V149.62H332.03V146.9H331.21V149.62H330.33V146.9H329.48V149.83H328.52V143.3H334.72V148.67C334.72 149.11 334.66 149.42 334.4 149.61ZM330.33 145.91V144.32H329.48V145.91H330.33ZM333.28 141.31C332.71 140.75 332.14 140.13 331.55 139.4C331.07 140.09 330.54 140.74 329.99 141.31H333.28ZM331.22 145.91H332.04V144.32H331.22V145.91ZM332.92 144.32V145.91H333.74V144.32H332.92Z" fill="white"/>
<path d="M344.7 138.85H349.42V139.89H339.51V142.84C339.51 144.88 339.35 147.92 338.34 149.9C338.14 149.69 337.65 149.31 337.39 149.2C338.3 147.37 338.38 144.74 338.38 142.84V138.85H343.32C343.2 138.58 343.07 138.29 342.94 138.06L344.14 137.72C344.35 138.06 344.57 138.5 344.7 138.85ZM344.23 145.01L344.84 145.54C344.33 145.97 343.68 146.37 343.02 146.7V146.86L345.1 146.74V147.6L343.02 147.74V148.77C343.02 149.25 342.93 149.49 342.55 149.63C342.19 149.76 341.65 149.76 340.85 149.76C340.81 149.49 340.67 149.15 340.55 148.9C341.08 148.91 341.62 148.91 341.76 148.9C341.92 148.9 341.95 148.86 341.95 148.73V147.81L339.69 147.95L339.6 147.01L341.95 146.91V146.44C342.28 146.28 342.63 146.09 342.94 145.87H340.16V145.06H343.98L344.23 145.01ZM343.23 140.98H345.01V141.86H339.91V140.98H341.91C341.81 140.72 341.69 140.46 341.56 140.24L342.69 139.92C342.89 140.23 343.11 140.65 343.22 140.99L343.23 140.98ZM344.58 144.53H340.41V142.37H344.58V144.53ZM343.59 143.86V143.07H341.34V143.86H343.59ZM348.69 140.58L349.51 141.01C349.13 141.97 348.65 143.08 348.22 144C349.14 144.95 349.38 145.79 349.39 146.5C349.39 147.24 349.22 147.76 348.81 148.06C348.61 148.2 348.37 148.28 348.08 148.32C347.81 148.36 347.46 148.36 347.12 148.33C347.11 148.03 346.99 147.56 346.82 147.26C347.12 147.29 347.38 147.3 347.59 147.29C347.75 147.29 347.89 147.25 347.99 147.19C348.19 147.06 348.26 146.77 348.26 146.41C348.26 145.8 348.01 145.03 347.1 144.14C347.44 143.35 347.79 142.4 348.06 141.63H346.53V149.9H345.45V140.63H348.49L348.68 140.59L348.69 140.58Z" fill="white"/>
<path d="M352.65 144.04L351.7 143.72C352.03 142.85 352.26 141.41 352.35 140.34L353.27 140.47C353.2 141.56 352.97 143.07 352.65 144.05V144.04ZM356.46 142.36L355.58 142.78C355.44 142.17 355.09 141.16 354.74 140.37V149.85H353.54V137.8H354.74V140.27L355.52 139.95C355.91 140.73 356.31 141.76 356.47 142.37L356.46 142.36ZM362.1 145.32V142.55H357.78V145.27C357.78 146.73 357.66 148.68 356.92 149.94C356.71 149.73 356.22 149.37 355.96 149.24C356.6 148.11 356.65 146.54 356.65 145.26V141.48H359.44V137.79H360.62V141.48H363.25V148.46C363.25 149.06 363.13 149.41 362.7 149.6C362.28 149.8 361.62 149.8 360.65 149.8C360.61 149.49 360.46 148.97 360.3 148.66C360.98 148.69 361.63 148.69 361.83 148.67C362.03 148.67 362.09 148.61 362.09 148.44V146.35C360.74 146.7 359.35 147.05 358.26 147.31L357.87 146.27C358.96 146.05 360.55 145.71 362.09 145.33L362.1 145.32ZM358.7 140.58L357.65 141.11C357.47 140.45 356.95 139.42 356.44 138.67L357.43 138.2C357.96 138.93 358.5 139.92 358.7 140.58ZM361.78 144.35L361.26 145.21C360.56 144.82 359.18 144.3 358.1 144.05L358.59 143.28C359.66 143.5 361.05 143.96 361.77 144.35H361.78ZM362.38 141.02L361.35 140.6C361.78 139.94 362.31 138.9 362.6 138.12L363.73 138.55C363.31 139.43 362.81 140.37 362.38 141.02Z" fill="white"/>
<path d="M367.24 149.89L366.08 149.41C366.64 148.8 367.32 147.79 367.74 146.89L368.9 147.19C368.46 148.11 367.81 149.19 367.24 149.89ZM369.51 138.93H371.54L371.76 138.88L372.51 139.18C371.73 143.08 369.74 145.41 367.17 146.56C367.01 146.29 366.59 145.81 366.33 145.61C367.88 144.97 369.19 143.93 370.1 142.42C369.65 141.96 368.96 141.41 368.32 140.96C367.81 141.66 367.24 142.3 366.62 142.81C366.52 142.52 366.27 142 366.11 141.74C367.31 140.74 368.29 139.06 368.78 137.66L369.92 138C369.8 138.31 369.66 138.61 369.52 138.92L369.51 138.93ZM369.07 142.48L369.19 143.26C368.31 143.57 367.45 143.86 366.67 144.12L366.4 143.16C367.1 143 368.06 142.76 369.08 142.48H369.07ZM370.57 141.55C370.8 141.04 370.99 140.5 371.14 139.91H368.99L368.79 140.22C369.4 140.61 370.08 141.1 370.56 141.55H370.57ZM371.46 149.58L370.25 149.76C370.25 149.14 370.16 148.11 370 147.32L371.13 147.19C371.3 147.97 371.44 148.98 371.45 149.58H371.46ZM375.34 140.46H378.04V141.63H375.7C376.68 143.06 377.69 144.8 378.16 145.95L377.06 146.47C376.67 145.44 375.84 143.88 374.98 142.53C374.54 143.97 373.64 145.48 371.82 146.72C371.61 146.49 371.21 146.14 370.9 145.93C372.82 144.63 373.64 143.06 373.98 141.64H372.21V140.47H374.16C374.19 140.13 374.2 139.82 374.2 139.52V137.97H375.37V139.54C375.37 139.83 375.36 140.14 375.34 140.46ZM374.61 149.48L373.4 149.73C373.3 149.11 372.98 148.07 372.67 147.29L373.8 147.08C374.14 147.85 374.49 148.85 374.61 149.49V149.48ZM378.13 149.37L376.97 149.89C376.68 149.19 375.96 148.07 375.33 147.24L376.42 146.79C377.04 147.57 377.8 148.66 378.12 149.38L378.13 149.37ZM377.81 139.73L376.86 140.29C376.63 139.81 376.07 139.05 375.59 138.52L376.47 138.01C376.96 138.53 377.55 139.25 377.81 139.73Z" fill="white"/>
<path d="M388.16 139.89H390.67C390.16 139.46 389.32 138.89 388.63 138.51L389.38 137.77C390.15 138.16 391.13 138.77 391.63 139.21L390.99 139.89H392.34V141.1H388.23C388.35 142.65 388.57 144.06 388.85 145.23C389.47 144.27 389.98 143.18 390.35 141.97L391.58 142.27C391.02 143.97 390.27 145.47 389.31 146.73C389.74 147.86 390.26 148.52 390.82 148.52C391.16 148.52 391.33 147.84 391.39 146.17C391.68 146.44 392.12 146.73 392.46 146.85C392.25 149.18 391.81 149.79 390.73 149.79C389.75 149.79 388.99 149.05 388.4 147.83C387.66 148.6 386.84 149.26 385.93 149.81C385.75 149.55 385.31 149.04 385.03 148.8C386.12 148.22 387.08 147.46 387.89 146.54C387.42 145.04 387.11 143.16 386.95 141.12H382.75V142.69H386.05C386.05 142.69 386.05 143.03 386.04 143.18C385.99 146.03 385.91 147.15 385.64 147.52C385.41 147.81 385.16 147.91 384.79 147.95C384.45 148 383.87 148 383.24 147.98C383.23 147.62 383.08 147.14 382.9 146.82C383.45 146.87 383.95 146.87 384.17 146.87C384.35 146.87 384.47 146.86 384.57 146.74C384.71 146.53 384.79 145.79 384.83 143.81H382.74C382.73 145.7 382.51 148.32 381.36 149.99C381.14 149.76 380.59 149.31 380.31 149.16C381.36 147.59 381.45 145.33 381.45 143.62V139.9H386.86C386.83 139.21 386.81 138.52 386.81 137.82H388.1C388.1 138.52 388.11 139.22 388.14 139.9L388.16 139.89Z" fill="white"/>
<path d="M401.86 144H400.52V149.85H399.31V144H397.48C397.43 146.16 397.08 148.29 395.53 149.95C395.34 149.69 394.89 149.29 394.61 149.12C395.95 147.66 396.26 145.84 396.33 144H394.72V142.86H396.34V139.73H394.94V138.59H401.7V139.73H400.53V142.86H401.87V144H401.86ZM397.49 139.72V142.85H399.31V139.72H397.49ZM401.97 149.84C401.78 149.54 401.42 149.13 401.1 148.87C402.96 148.08 404.74 146.7 405.68 145.09L406.85 145.55C405.75 147.38 403.95 148.92 401.97 149.85V149.84ZM402.51 141.61C402.3 141.34 401.95 140.97 401.64 140.74C402.86 140.13 404.32 139.05 405.09 138L406.26 138.48C405.29 139.7 403.84 140.87 402.52 141.61H402.51ZM402.65 145.39C402.46 145.12 402.09 144.75 401.78 144.52C403.07 143.86 404.6 142.7 405.42 141.58L406.54 142.05C405.55 143.35 404.03 144.59 402.65 145.39Z" fill="white"/>
<path d="M323.98 81.57C324.51 81.29 325.03 80.96 325.59 80.73C330.11 78.88 333.34 75.53 336.13 71.7C338.14 68.95 339.93 66.04 342.05 63.39C346.45 57.86 351.94 53.7 358.73 51.6C364.64 49.77 370.67 49.64 376.5 52.06C380.51 53.72 383.64 56.46 385.31 60.6C386.54 63.65 387.53 66.73 387.48 70.1C387.43 73.87 385.69 76.57 382.62 78.54C378.81 80.99 374.59 82.48 370.19 83.32C367.17 83.9 364.09 84.34 361.02 84.45C353.37 84.74 345.72 84.41 338.1 83.65C333.72 83.21 329.37 82.59 325 82.05C324.66 82.01 324.33 81.9 324 81.82C324 81.74 323.99 81.66 323.98 81.58V81.57Z" fill="white"/>
<path d="M311.84 90.1001C310.99 89.9801 310.11 89.9301 309.28 89.7201C305.51 88.7701 303.88 85.5801 305.25 81.9301C306.58 78.3901 310.26 76.4001 314.2 77.0901C317.69 77.7001 320.51 81.0901 320.48 84.7101C320.46 86.6001 319.46 87.9501 317.83 88.7501C315.96 89.6701 313.93 89.9801 311.84 90.1001Z" fill="white"/>
<path d="M519.39 137.57C494.18 94.74 508.45 39.59 551.28 14.37C594.11 -10.84 649.26 3.42995 674.48 46.2599C699.69 89.09 685.42 144.24 642.6 169.46C599.77 194.67 544.61 180.4 519.4 137.57H519.39Z" fill="#5D97C4"/>
<path d="M633.34 57.2199C634.06 57.5899 634.16 58.2499 634.19 58.9699C634.28 61.7099 633.7 64.3399 632.8 66.8899C630.6 73.1499 626.74 78.0799 620.83 81.2399C617.18 83.1899 613.86 84.0099 610.17 84.6099C603.7 85.6599 599.15 85.6899 590.34 85.8799C588.26 85.9299 585.28 85.9999 581.58 86.0999C579.34 86.1599 577.8 83.8699 578.71 81.8199C578.71 81.7999 578.73 81.7799 578.74 81.7599C581.26 76.0399 582.07 72.2799 583.94 66.2999C585.87 60.1299 586.87 57.0699 587.71 55.5299C591.63 48.3099 598.06 44.6199 605.61 42.3599C611.11 40.7199 616.65 40.6299 622 42.6199C626.24 44.1999 629.4 47.2299 631.08 51.5799C632.34 54.8299 631.46 57.8699 629.93 60.7199C624.57 70.7599 616.25 76.8399 605 78.6399C600.78 79.3199 596.46 79.3199 592.21 79.8599C589.48 80.1999 586.81 80.9499 584.12 81.5499C583.88 81.5999 583.7 81.9299 583.49 82.1299C583.78 82.2499 584.09 82.5099 584.35 82.4599C586.16 82.1499 587.95 81.6199 589.77 81.4399C592.86 81.1399 595.98 80.9999 599.08 80.8499C605.44 80.5399 611.6 79.4099 617.17 76.1699C622.46 73.0799 626.84 69.1599 629.94 64.1499C630.16 63.7899 631.13 61.2199 632.9 57.9799C633.08 57.6499 633.23 57.3799 633.32 57.2199H633.34ZM621.65 64.9899C621.56 64.9199 621.46 64.8599 621.37 64.7899C620.99 65.0699 620.57 65.3299 620.22 65.6499C619.54 66.2699 618.94 66.9799 618.23 67.5499C614.15 70.8399 609.45 72.9499 604.52 74.6099C604.17 74.7299 603.9 75.0999 603.59 75.3499C604 75.4899 604.39 75.6899 604.81 75.7499C605.11 75.7899 605.43 75.6499 605.74 75.5799C610.24 74.4699 614.34 72.4799 618.03 69.7399C619.25 68.8299 620.18 67.5299 621.18 66.3499C621.47 66.0099 621.5 65.4599 621.65 65.0099V64.9899ZM599.96 49.5199C601.56 48.9599 603.12 48.4599 604.64 47.8499C604.89 47.7499 605.17 47.0399 605.05 46.8499C604.84 46.5099 604.33 46.1599 603.96 46.1699C603.28 46.1999 602.56 46.3799 601.96 46.6899C601.1 47.1299 600.32 47.7299 599.55 48.3199C599.38 48.4499 599.31 48.8399 599.37 49.0799C599.41 49.2499 599.72 49.3599 599.96 49.5199ZM596.19 63.0599C595.97 62.7999 595.76 62.3199 595.47 62.2699C595.11 62.1999 594.49 62.3799 594.33 62.6499C593.68 63.7499 593.11 64.9099 592.64 66.0999C592.52 66.4099 592.88 66.9099 593.01 67.3199C593.39 67.1299 593.9 67.0299 594.12 66.7199C594.76 65.8299 595.3 64.8599 595.86 63.9099C595.98 63.6999 596.04 63.4499 596.19 63.0699V63.0599ZM599.33 54.4999C599.34 53.5299 598.47 52.9599 597.88 53.5199C596.87 54.4799 596.03 55.6299 595.2 56.7599C595.06 56.9599 595.24 57.6299 595.47 57.7799C595.69 57.9199 596.26 57.7799 596.51 57.5499C597.34 56.8199 598.11 56.0199 598.88 55.2199C599.11 54.9799 599.23 54.6499 599.33 54.4899V54.4999ZM588.64 61.1899C588.93 61.5099 589.11 61.8999 589.36 61.9499C589.62 62.0099 590.11 61.8199 590.22 61.5999C590.81 60.4199 591.38 59.2199 591.8 57.9699C591.91 57.6499 591.56 56.9899 591.23 56.7799C591.02 56.6499 590.23 56.9599 590.1 57.2499C589.54 58.4999 589.12 59.8199 588.63 61.1799L588.64 61.1899ZM587.29 71.5399C587.56 71.8699 587.77 72.3599 588.09 72.4499C588.36 72.5299 588.94 72.2199 589.06 71.9399C589.5 70.9699 589.87 69.9499 590.1 68.9099C590.17 68.5999 589.78 67.9399 589.48 67.8499C589.17 67.7599 588.5 68.0699 588.36 68.3799C587.92 69.3499 587.66 70.3899 587.29 71.5399Z" fill="white"/>
<path d="M559.43 92.2099C559.41 88.2799 562.26 85.0299 566.16 84.4899C569.97 83.9599 573.7 86.4499 574.72 90.1999C575.17 91.8499 574.68 93.3599 573.83 94.7399C571.94 97.8199 569.04 99.2199 565.52 99.2099C562.25 99.1999 559.66 96.4699 559.43 93.0699C559.41 92.7899 559.43 92.4999 559.43 92.2199V92.2099Z" fill="white"/>
<path d="M752.1 141.29C726.89 98.4599 741.16 43.3099 783.99 18.0899C826.82 -7.12008 881.97 7.14992 907.19 49.9799C932.4 92.8099 918.13 147.96 875.31 173.18C832.48 198.39 777.32 184.12 752.11 141.29H752.1Z" fill="#8EB7D9"/>
<path d="M860.45 54.6099C860.18 52.2899 859.86 49.9599 858.65 47.8999C853.95 39.9099 846.92 35.5499 837.7 34.7899C834.41 34.5199 831.22 35.0599 828.03 36.1099C824.95 37.1199 822.33 38.6799 820.14 40.9799C817.15 44.1199 814.89 47.7599 813.4 51.8199C812.27 54.9099 811.89 58.1399 812.79 61.3899C813.41 63.6399 814.47 65.5599 816.61 66.7999C818.62 67.9699 820.77 68.4799 823.04 68.5099C826.77 68.5699 830.28 66.7199 831.08 62.2799C831.24 61.4099 831.43 60.5399 831.57 59.6699C831.93 57.3999 832.05 55.0899 832.92 52.9199C834.44 49.0899 838.19 46.5299 841.73 46.8499C846.38 47.2599 849.22 50.1599 850.11 54.6599C850.65 57.3799 849.99 59.9999 848.86 62.4799C848.68 62.8799 848.25 63.1699 847.93 63.5099C847.95 63.0599 847.84 62.5399 848.02 62.1599C849.15 59.6599 848.11 57.4499 845.76 55.0899C845.35 54.6799 844.89 54.3199 844.39 54.0299C842.41 52.8599 840.29 52.1999 837.95 52.6599C835.56 53.1399 834.06 54.7199 833.7 57.0899C833.55 58.0699 833.45 59.0599 833.27 60.0399C832.89 62.1699 832.61 64.3499 831.4 66.2199C828.96 69.9799 825.31 70.7999 821.17 70.2899C820.31 70.1799 819.46 69.9299 818.44 69.7099C819.64 74.3399 820.37 78.9899 820.95 83.6699C821.45 87.6799 826.04 89.7199 829.33 87.3699C831.52 85.8099 833.7 84.2499 835.87 82.6999L835.77 82.5099C833.6 83.1899 831.44 83.8899 829.27 84.5499C828.95 84.6499 828.58 84.5999 828.24 84.6199C828.44 84.2799 828.56 83.7599 828.85 83.6299C831.84 82.3099 834.91 81.1799 838.25 81.4199C840.64 81.5899 842.93 81.2299 845.11 80.3599C850.33 78.2699 854.19 74.5099 857.04 69.7899C859.84 65.1499 861.09 60.0599 860.45 54.5999V54.6099ZM816.53 51.4699C816.94 50.5899 817.56 49.7899 818.17 49.0299C818.3 48.8699 818.81 48.8599 819.05 48.9799C819.29 49.0899 819.41 49.4499 819.61 49.7499C819.21 50.6699 818.93 51.5799 818.42 52.3499C818.21 52.6699 817.42 52.8999 817.09 52.7499C816.76 52.5899 816.39 51.7799 816.53 51.4899V51.4699ZM819.82 64.7199C819.25 64.6899 818.64 64.5599 818.14 64.2999C815.69 62.9999 814.36 59.7299 815.17 57.0899C815.28 56.7399 815.47 56.3599 815.73 56.1199C815.95 55.9099 816.39 55.7399 816.64 55.8199C816.88 55.8999 817 56.3299 817.1 56.4699C817.04 56.8499 817.02 57.0299 816.98 57.1999C816.49 59.4599 817.12 61.3199 818.93 62.7799C819.36 63.1299 819.8 63.4899 820.16 63.9099C820.53 64.3399 820.4 64.7499 819.81 64.7199H819.82ZM840.68 71.5799C842.3 69.8699 843.92 68.1599 845.56 66.4799C845.77 66.2599 846.12 66.1899 846.41 66.0499C846.43 66.2199 846.44 66.3599 846.44 66.4399C846.44 67.5699 845.77 68.8199 841.2 72.4599C840.86 72.7299 840.59 72.9399 840.48 73.0299C840.36 72.7499 840.13 72.4899 840.17 72.2799C840.22 72.0299 840.48 71.7999 840.67 71.5899L840.68 71.5799ZM851.32 73.9099C851.23 74.2299 850.98 74.5299 850.75 74.7799C848.34 77.3399 845.37 78.8699 841.94 79.5599C841.82 79.5799 841.71 79.5999 841.59 79.6099C841.41 79.6099 841.24 79.6099 841.06 79.6099C841.06 79.5899 841.06 79.5699 841.06 79.5499C840.56 79.6199 840.07 79.7599 839.58 79.7399C839.18 79.7199 838.79 79.5099 838.4 79.3799C838.73 79.1099 839.02 78.7199 839.4 78.5899C840.54 78.1999 841.72 77.9299 842.87 77.5699C845.27 76.8099 847.4 75.5699 849.23 73.8299C849.57 73.5099 849.94 73.1999 850.35 72.9899C850.56 72.8799 851.01 72.8999 851.15 73.0499C851.33 73.2399 851.4 73.6499 851.33 73.9099H851.32ZM853.39 69.4799C853.1 69.4399 852.86 69.0199 852.4 68.5799C852.97 68.1299 853.36 67.8199 853.75 67.5099C853.99 67.8199 854.42 68.1299 854.41 68.4399C854.41 68.9999 854.07 69.5699 853.39 69.4799Z" fill="white"/>
<path d="M818.16 91.1099C814.06 91.1099 810.81 94.3399 810.83 98.3999C810.84 102.44 814.19 105.69 818.28 105.6C822.13 105.52 825.35 102.25 825.37 98.3899C825.39 94.3499 822.17 91.0999 818.16 91.1099Z" fill="white"/>
<path d="M803.03 53.54C803.79 53.02 804.51 52.42 805.09 51.73C806.07 50.57 806.87 49.26 807.74 48.01C808.27 47.25 807.97 46.53 807.05 46.42C804.63 46.13 802.28 46.3 800.08 47.95C799.17 48.52 798.58 49.51 798.43 50.75C798.29 51.87 798.53 52.89 799.48 53.59C800.43 54.29 802.05 54.22 803.03 53.55V53.54Z" fill="white"/>
<path d="M807.84 44.43C810.08 44.63 812.18 44.08 814.16 43.08C814.51 42.9 814.74 42.49 815.03 42.19C814.66 41.9 814.33 41.51 813.91 41.34C812.47 40.74 811 40.24 809.56 39.66C808.94 39.41 808.39 38.97 807.77 38.71C806.4 38.13 805.06 38.29 803.91 38.97C802.73 39.88 802.58 41.17 803.45 42.26C804.57 43.67 806.1 44.28 807.84 44.43Z" fill="white"/>
<path d="M848.71 56.7801C848.81 52.8901 846.25 49.5901 842.75 48.7701C840.31 48.2001 837.05 49.1201 835.67 51.7301C840.23 49.6301 846.29 52.2001 848.71 56.7801Z" fill="white"/>
<path d="M984.81 141.29C959.6 98.4599 973.87 43.3099 1016.7 18.0899C1059.53 -7.12008 1114.68 7.14992 1139.9 49.9799C1165.11 92.8099 1150.84 147.96 1108.02 173.18C1065.19 198.39 1010.03 184.12 984.82 141.29H984.81Z" fill="#B4D5EB"/>
<path d="M1062.36 109.32C1066.68 109.32 1070.18 105.819 1070.18 101.5C1070.18 97.1811 1066.68 93.6799 1062.36 93.6799C1058.04 93.6799 1054.54 97.1811 1054.54 101.5C1054.54 105.819 1058.04 109.32 1062.36 109.32Z" fill="#3858A0"/>
<path d="M1048.55 81.8101C1046.75 79.7001 1044.6 76.7501 1042.66 72.9001C1041.31 70.2301 1040.35 67.6701 1039.64 65.4001V65.3701C1039.24 64.0801 1038.93 62.7201 1038.7 61.3001C1037.71 55.2101 1038.6 49.1201 1041.1 43.8301C1040.28 45.6201 1039.95 47.7701 1040.23 50.0101C1040.28 50.4401 1040.35 50.8701 1040.47 51.3101C1040.49 51.4501 1040.52 51.6001 1040.56 51.7501L1044.49 66.5001L1046.99 75.9101L1048.56 81.7901L1048.55 81.8101Z" fill="#6A95BF"/>
<path d="M1049.93 46.13C1049.64 48.47 1049.65 50.93 1050.03 53.4L1051.68 64.34L1054.06 80.04L1055.11 86.96C1054.03 86.49 1053.02 85.86 1052.12 85.07C1051.26 84.41 1049.96 83.24 1048.56 81.8L1046.99 75.92L1044.49 66.51L1040.56 51.76C1040.52 51.61 1040.49 51.46 1040.47 51.32C1040.35 50.89 1040.29 50.45 1040.23 50.02C1039.95 47.78 1040.28 45.63 1041.1 43.84L1041.13 43.79C1041.46 43.18 1041.82 42.58 1042.2 42.01C1046.44 35.61 1053.42 31.27 1061.62 31.04C1057.12 31.42 1053.37 35.15 1051.36 40.39C1050.67 42.17 1050.18 44.11 1049.93 46.13Z" fill="#3858A0"/>
<path d="M1074.93 51.3C1074.88 52 1074.79 52.7 1074.68 53.4L1073.01 64.46L1070.66 80.04L1069.62 86.87C1068.19 87.59 1066.65 88.05 1064.94 88.2C1061.75 88.57 1058.12 88.32 1055.1 86.95L1054.05 80.03L1051.67 64.33L1050.02 53.39C1049.64 50.93 1049.63 48.47 1049.92 46.12C1050.17 44.1 1050.66 42.16 1051.35 40.38C1053.37 35.14 1057.11 31.41 1061.61 31.03C1061.87 31.02 1062.11 31 1062.35 31C1062.59 31 1062.82 31.01 1063.08 31.03C1067.59 31.41 1071.33 35.14 1073.35 40.38C1074.03 42.16 1074.52 44.1 1074.78 46.14C1074.99 47.81 1075.04 49.54 1074.92 51.3H1074.93Z" fill="#14378D"/>
<path d="M1084.26 51.29C1084.24 51.44 1084.2 51.61 1084.16 51.77L1080.25 66.49L1077.74 75.93L1076.25 81.54C1075.05 82.81 1073.81 83.98 1072.49 85C1071.58 85.75 1070.63 86.38 1069.65 86.87L1070.69 80.04L1073.04 64.46L1074.71 53.4C1074.81 52.7 1074.91 52 1074.96 51.3C1075.08 49.55 1075.03 47.82 1074.82 46.14C1074.56 44.1 1074.07 42.16 1073.39 40.38C1071.36 35.14 1067.63 31.41 1063.12 31.03C1071.33 31.26 1078.32 35.6 1082.54 42C1082.92 42.57 1083.29 43.16 1083.61 43.78C1083.63 43.81 1083.63 43.82 1083.64 43.83C1084.62 45.96 1084.91 48.6 1084.29 51.28L1084.26 51.29Z" fill="#3858A0"/>
<path d="M1086.01 61.3101C1085.77 62.8001 1085.44 64.2301 1085 65.5901C1084.68 66.6101 1084.22 67.9901 1083.6 69.5801C1083 71.1101 1082.19 73.1901 1080.95 75.3601C1080.03 76.9701 1078.55 79.1901 1076.24 81.5301L1077.73 75.9201L1080.24 66.4801L1084.15 51.7601C1084.19 51.6001 1084.23 51.4301 1084.25 51.2801C1084.87 48.6001 1084.58 45.9601 1083.6 43.8301C1086.1 49.1201 1087 55.2001 1086 61.3001L1086.01 61.3101Z" fill="#6A95BF"/>
<path d="M1298.53 103.71C1301.92 103.71 1304.67 100.961 1304.67 97.5699C1304.67 94.1789 1301.92 91.4299 1298.53 91.4299C1295.14 91.4299 1292.39 94.1789 1292.39 97.5699C1292.39 100.961 1295.14 103.71 1298.53 103.71Z" fill="#3858A0"/>
<path d="M1298.46 87.6599C1298.35 87.6599 1298.22 87.6599 1298.11 87.6399C1298.08 87.6399 1298.04 87.6399 1298.02 87.6399C1297.98 87.6399 1297.94 87.6399 1297.91 87.6399C1294.95 87.3799 1292.39 85.2399 1291.25 82.1899C1291.25 82.1699 1291.23 82.1599 1291.23 82.1399C1291.03 81.5799 1290.86 80.9899 1290.76 80.3899C1290.74 80.3199 1290.73 80.2399 1290.71 80.1499L1289.03 69.1499C1289.92 70.2699 1290.75 71.2099 1291.32 71.7299C1291.9 72.3599 1292.57 72.8499 1293.29 73.2399L1294.07 82.2999C1294.33 85.3299 1296.21 87.6199 1298.46 87.6699V87.6599Z" fill="#8EB7D9"/>
<path d="M1293.29 73.2301C1292.57 72.8401 1291.9 72.3401 1291.32 71.7201C1290.75 71.2001 1289.91 70.2601 1289.03 69.1401L1287.41 58.5501L1286.19 50.6101C1287.34 52.0501 1288.42 53.2601 1289.15 53.9301C1289.93 54.7701 1290.82 55.4201 1291.81 55.9401L1291.92 57.1901L1293.29 73.2301Z" fill="#6A95BF"/>
<path d="M1289.54 21.09C1289.21 22.64 1289.09 24.31 1289.24 26.04L1290 34.89L1291.15 48.32L1291.81 55.94C1290.83 55.42 1289.93 54.76 1289.15 53.93C1288.41 53.26 1287.33 52.05 1286.19 50.61L1285.24 44.37L1284.06 36.66L1282.27 24.89C1282.25 24.78 1282.24 24.68 1282.24 24.58C1282.2 24.28 1282.18 23.98 1282.18 23.69C1282.18 22.18 1282.61 20.77 1283.35 19.61L1283.37 19.58C1283.65 19.19 1283.95 18.82 1284.28 18.46C1287.64 14.59 1292.56 12.12 1298.05 11.99C1295.03 12.2 1292.41 14.33 1290.82 17.46C1290.26 18.56 1289.82 19.79 1289.55 21.1L1289.54 21.09Z" fill="#3858A0"/>
<path d="M1308.11 68.72L1306.41 79.82L1306.36 80.14C1306.31 80.44 1306.25 80.73 1306.18 81.02C1305.74 82.82 1304.84 84.38 1303.64 85.54C1302.25 86.88 1300.46 87.67 1298.53 87.67C1298.68 87.67 1298.81 87.67 1298.95 87.65C1301.05 87.38 1302.75 85.17 1302.99 82.31L1303.78 73.1C1304.4 72.71 1304.97 72.23 1305.53 71.68C1306.46 70.8 1307.32 69.79 1308.1 68.73L1308.11 68.72Z" fill="#8EB7D9"/>
<path d="M1310.92 50.27L1309.65 58.58L1308.1 68.72C1307.31 69.78 1306.46 70.79 1305.53 71.67C1304.98 72.22 1304.4 72.7 1303.78 73.09L1305.14 57.29L1305.27 55.83C1306.15 55.29 1306.98 54.64 1307.76 53.85C1308.9 52.78 1309.94 51.56 1310.92 50.28V50.27Z" fill="#6A95BF"/>
<path d="M1314.83 24.56C1314.83 24.67 1314.81 24.78 1314.8 24.89L1313.01 36.64L1311.83 44.36L1310.93 50.26C1309.96 51.54 1308.91 52.76 1307.77 53.83C1306.98 54.62 1306.15 55.28 1305.28 55.81L1305.92 48.31L1307.07 34.98L1307.83 26.02C1307.87 25.52 1307.9 25.04 1307.9 24.55C1307.9 23.35 1307.77 22.19 1307.53 21.08C1307.25 19.76 1306.82 18.54 1306.25 17.43C1304.66 14.3 1302.04 12.18 1299.02 11.96C1304.51 12.09 1309.42 14.57 1312.79 18.43C1313.11 18.79 1313.42 19.16 1313.7 19.55C1313.7 19.57 1313.72 19.57 1313.72 19.58C1314.6 20.95 1315.04 22.7 1314.83 24.53V24.56Z" fill="#3858A0"/>
<path d="M1291.22 82.1301C1288.84 77.1901 1286.86 70.1501 1285.19 62.8701C1285.86 64.7601 1287.5 67.2101 1289.02 69.1401L1290.7 80.1401C1290.72 80.2201 1290.72 80.3001 1290.75 80.3801C1290.86 80.9901 1291.02 81.5701 1291.22 82.1301Z" fill="#B2D3E9"/>
<path d="M1286.19 50.6101C1284.11 47.9701 1281.82 44.5401 1281.02 42.0101C1280.91 41.4301 1280.81 40.8701 1280.72 40.3301C1280.42 38.4501 1280.23 36.7301 1280.16 35.1801V35.1601C1279.98 34.1101 1279.88 33.0301 1279.86 31.9201C1279.76 27.3501 1281.06 23.0901 1283.34 19.6201C1282.6 20.7701 1282.17 22.1901 1282.17 23.7001C1282.17 23.9901 1282.19 24.2901 1282.23 24.5901C1282.23 24.6901 1282.25 24.7901 1282.26 24.9001L1284.05 36.6701L1285.23 44.3801L1286.18 50.6201L1286.19 50.6101Z" fill="#6A95BF"/>
<path d="M1289.02 69.14C1287.5 67.22 1285.87 64.76 1285.19 62.87C1285.08 62.42 1284.99 61.98 1284.89 61.53C1283.36 54.67 1282.1 47.7 1281.04 42.16C1281.04 42.1 1281.02 42.05 1281.02 42.01C1281.82 44.54 1284.11 47.97 1286.19 50.61L1287.41 58.55L1289.03 69.14H1289.02Z" fill="#8EB7D9"/>
<path d="M1317.2 31.9101C1317.18 33.0801 1317.07 34.2201 1316.87 35.3301C1316.78 36.9401 1316.56 38.7301 1316.21 40.7101C1316.13 41.1601 1316.05 41.6001 1315.96 42.0701C1315.73 42.7701 1315.36 43.5101 1314.87 44.2901C1313.71 46.2201 1312.4 48.3201 1310.92 50.2701L1311.82 44.3701L1313 36.6501L1314.79 24.9001C1314.81 24.7901 1314.82 24.6701 1314.82 24.5701C1315.03 22.7401 1314.58 21.0001 1313.71 19.6201C1315.99 23.0901 1317.29 27.3401 1317.19 31.9201L1317.2 31.9101Z" fill="#6A95BF"/>
<path d="M1315.96 42.0801C1315.96 42.0801 1315.96 42.1401 1315.94 42.1601C1314.87 47.4801 1313.58 54.5701 1311.99 61.6101C1311.88 62.0901 1311.77 62.5601 1311.67 63.0301C1311.5 63.4601 1311.26 63.9001 1310.97 64.3601C1310.13 65.7701 1309.18 67.2801 1308.11 68.7101L1309.66 58.5701L1310.93 50.2601C1312.41 48.3101 1313.72 46.2201 1314.88 44.2801C1315.37 43.5001 1315.74 42.7601 1315.97 42.0601L1315.96 42.0801Z" fill="#8EB7D9"/>
<path d="M1311.66 63.03C1310.12 69.68 1308.31 76.19 1306.18 81.02C1306.25 80.74 1306.31 80.44 1306.36 80.14L1306.41 79.82L1308.11 68.72C1309.17 67.29 1310.12 65.78 1310.97 64.37C1311.26 63.91 1311.5 63.47 1311.67 63.04L1311.66 63.03Z" fill="#B2D3E9"/>
<path d="M1303.79 73.0801L1303 82.2901C1302.76 85.1601 1301.05 87.3701 1298.96 87.6301C1298.82 87.6501 1298.68 87.6501 1298.54 87.6501H1298.47C1296.22 87.6001 1294.34 85.3101 1294.08 82.2801L1293.3 73.2201C1295.43 74.3701 1298.04 74.6001 1300.34 74.2801C1301.62 74.1401 1302.76 73.7301 1303.8 73.0701L1303.79 73.0801Z" fill="#6A95BF"/>
<path d="M1307.89 24.57C1307.89 25.06 1307.87 25.54 1307.82 26.04L1307.06 35L1305.91 48.33L1305.27 55.83C1304.45 56.33 1303.59 56.7 1302.67 56.96C1302.12 57.11 1301.54 57.23 1300.94 57.29C1298.78 57.59 1296.4 57.52 1294.2 56.89C1293.36 56.65 1292.56 56.35 1291.8 55.94L1291.14 48.32L1289.99 34.89L1289.23 26.04C1289.08 24.32 1289.2 22.65 1289.53 21.09C1289.81 19.78 1290.24 18.56 1290.8 17.45C1292.39 14.32 1295.01 12.2 1298.03 11.98C1298.19 11.98 1298.35 11.96 1298.52 11.96C1298.69 11.96 1298.84 11.96 1299.01 11.98C1302.03 12.19 1304.65 14.32 1306.24 17.45C1306.8 18.55 1307.24 19.78 1307.52 21.1C1307.76 22.2 1307.89 23.37 1307.89 24.57Z" fill="#14378D"/>
<path d="M1305.27 55.8301L1305.14 57.2901L1303.78 73.0901C1302.74 73.7501 1301.6 74.1601 1300.32 74.3001C1298.02 74.6201 1295.41 74.3901 1293.28 73.2401L1291.91 57.2001L1291.8 55.9501C1292.56 56.3601 1293.36 56.6601 1294.2 56.9001C1296.4 57.5301 1298.78 57.6001 1300.94 57.3001C1301.54 57.2301 1302.12 57.1201 1302.67 56.9701C1303.59 56.7101 1304.45 56.3401 1305.27 55.8401V55.8301Z" fill="#3858A0"/>
<g opacity="0.46" style="mix-blend-mode:multiply">
<path d="M1281.02 42.0101C1280.82 41.3801 1280.71 40.8201 1280.72 40.3301C1280.81 40.8701 1280.91 41.4301 1281.02 42.0101Z" fill="#14378D"/>
</g>
<g opacity="0.46" style="mix-blend-mode:multiply">
<path d="M1316.21 40.71C1316.19 41.15 1316.11 41.6 1315.96 42.07C1316.05 41.6 1316.13 41.15 1316.21 40.71Z" fill="#14378D"/>
</g>
<g opacity="0.46" style="mix-blend-mode:multiply">
<path d="M1285.2 62.87C1285.02 62.37 1284.92 61.93 1284.9 61.53C1285 61.98 1285.09 62.42 1285.2 62.87Z" fill="#14378D"/>
</g>
<g opacity="0.46" style="mix-blend-mode:multiply">
<path d="M1311.99 61.6101C1311.97 62.0601 1311.87 62.5401 1311.67 63.0301C1311.78 62.5601 1311.89 62.0901 1311.99 61.6101Z" fill="#14378D"/>
</g>
<path d="M1186.98 100.53L1172.89 112.43C1171.71 113.43 1169.9 112.59 1169.89 111.05L1169.78 87.3801C1169.78 85.8401 1171.57 84.9801 1172.76 85.9701L1186.96 97.7401C1187.83 98.4601 1187.84 99.8001 1186.97 100.53H1186.98Z" fill="#B4D5EB"/>
<path d="M488.85 100.53L474.76 112.43C473.58 113.43 471.77 112.59 471.76 111.05L471.65 87.3801C471.65 85.8401 473.44 84.9801 474.63 85.9701L488.83 97.7401C489.7 98.4601 489.71 99.8001 488.84 100.53H488.85Z" fill="#3858A0"/>
<path d="M721.56 100.53L707.47 112.43C706.29 113.43 704.48 112.59 704.47 111.05L704.36 87.3801C704.36 85.8401 706.15 84.9801 707.34 85.9701L721.54 97.7401C722.41 98.4601 722.42 99.8001 721.55 100.53H721.56Z" fill="#5D97C4"/>
<path d="M954.27 100.53L940.18 112.43C939 113.43 937.19 112.59 937.18 111.05L937.07 87.3801C937.07 85.8401 938.86 84.9801 940.05 85.9701L954.25 97.7401C955.12 98.4601 955.13 99.8001 954.26 100.53H954.27Z" fill="#8EB7D9"/>
<path d="M323.17 129.02C323.44 129.02 323.53 128.01 323.55 126.48C323.96 127 324.5 127.54 324.94 127.85C324.8 130.19 324.38 131.16 323.01 131.16C320.31 131.16 319.89 127.36 319.82 122.09H310.06V120.63L309.41 121.19C309.12 120.74 308.37 119.84 307.91 119.43C309.6 118.26 311.12 116.35 311.94 114.32L314.05 114.95L313.64 115.85H324.26V117.47H312.7L312.23 118.17H322.69V119.74H312.12V118.32C311.54 119.11 310.91 119.83 310.25 120.46H321.97C321.93 125.38 322.1 129.03 323.16 129.03L323.17 129.02ZM309.58 131.19C309.27 130.72 308.66 130.02 308.23 129.64C309.56 129.12 310.95 128.07 311.65 127.03L313.25 127.62C312.44 129.02 311 130.46 309.58 131.18V131.19ZM317.43 125.17H319.59V126.79H315.38V131.17H313.36V126.79H308.88V125.17H310.95C310.77 124.58 310.32 123.73 309.87 123.1L311.49 122.45C311.99 123.1 312.52 123.94 312.7 124.56L311.15 125.17H313.36V122.45H315.38V125.17H316.93L315.92 124.77C316.35 124.14 316.89 123.19 317.16 122.52L319.09 123.1C318.51 123.86 317.92 124.63 317.43 125.17ZM320.14 129.58L318.84 130.88C318.16 130.14 316.68 128.95 315.58 128.14L316.8 126.97C317.9 127.71 319.39 128.82 320.13 129.58H320.14Z" fill="white"/>
<path d="M341.75 123.07H339.84V123.52H343.62V124.53H339.84V124.98H343.21V125.93H339.84V126.42H344.41V127.52H342.54L343.48 128.15C342.87 128.47 342.15 128.78 341.46 129.03C342.43 129.26 343.51 129.43 344.68 129.52C344.36 129.84 343.96 130.47 343.74 130.91C340.37 130.53 337.82 129.47 336.3 127.52H336.28C335.6 127.93 334.75 128.29 333.83 128.6V129.39L337.14 128.9C337.1 129.3 337.12 129.93 337.14 130.25C332.82 130.97 332.17 131.11 331.77 131.33C331.68 130.95 331.39 130.32 331.18 130.09C331.47 129.98 331.81 129.73 331.88 129.14C330.82 129.39 329.72 129.57 328.64 129.68C328.46 129.3 328.06 128.76 327.76 128.46C329.65 128.32 331.67 128.01 333.27 127.52H328.18V126.42H332.66V125.93H329.53V124.98H332.66V124.53H329.18V123.52H332.66V123.07H330.7V120.89H335.8V123.07H334.77V123.52H337.7V123.07H336.57V120.89H341.74V123.07H341.75ZM344.32 121.71H342.36V120.43H330.15V121.71H328.26V119.44H335.19V119.01H330.26V116.71H335.19V116.26H328.71V115.11H335.19V114.3H337.31V115.11H343.85V116.26H337.31V116.71H342.64V119.01H337.31V119.44H344.31V121.71H344.32ZM335.19 118.11V117.61H332.22V118.11H335.19ZM334.08 122.24V121.72H332.33V122.24H334.08ZM337.71 124.97V124.52H334.78V124.97H337.71ZM337.71 126.41V125.92H334.78V126.41H337.71ZM337.32 118.11H340.58V117.61H337.32V118.11ZM339.64 128.41C340.32 128.14 341.08 127.8 341.67 127.51H338.14C338.55 127.85 339.06 128.16 339.63 128.41H339.64ZM340.02 122.24V121.72H338.22V122.24H340.02Z" fill="white"/>
<path d="M363.99 118.64H359.42C360.88 119.94 362.64 121.75 363.44 123.05L361.48 124.2C361.26 123.84 360.99 123.43 360.65 122.99L359.26 123.06V128.14C359.26 128.81 359.35 128.9 359.98 128.9H361.82C362.45 128.9 362.56 128.49 362.63 126.11C363.12 126.47 364.03 126.83 364.61 126.97C364.39 129.99 363.84 130.84 362 130.84H359.66C357.57 130.84 357.03 130.19 357.03 128.16V123.15L355.01 123.26C354.69 126.99 353.77 129.65 349.1 131.13C348.88 130.55 348.31 129.71 347.84 129.28C351.82 128.16 352.5 126.22 352.76 123.37C350.85 123.5 350.28 123.57 349.79 123.75C349.66 123.3 349.29 122.18 349.02 121.55C349.56 121.42 349.97 121.01 350.62 120.29C350.91 120.02 351.39 119.43 351.97 118.63H348.19V116.56H353.38C353.85 115.82 354.3 115.05 354.68 114.26L357.18 115.02C356.87 115.54 356.55 116.06 356.21 116.57H364.01V118.64H363.99ZM354.74 118.64C353.98 119.61 353.23 120.53 352.49 121.34L359.04 121.11C358.55 120.57 358.03 120.07 357.54 119.6L359.27 118.65H354.73L354.74 118.64Z" fill="white"/>
<path d="M382.57 129.02C382.84 129.02 382.93 128.01 382.95 126.48C383.36 127 383.9 127.54 384.34 127.85C384.2 130.19 383.78 131.16 382.41 131.16C379.71 131.16 379.3 127.36 379.22 122.09H369.46V120.63L368.81 121.19C368.52 120.74 367.77 119.84 367.32 119.43C369.01 118.26 370.53 116.35 371.35 114.32L373.46 114.95L373.05 115.85H383.67V117.47H372.11L371.64 118.17H382.1V119.74H371.53V118.32C370.95 119.11 370.32 119.83 369.66 120.46H381.38C381.34 125.38 381.51 129.03 382.57 129.03V129.02ZM368.98 131.19C368.67 130.72 368.06 130.02 367.63 129.64C368.96 129.12 370.35 128.07 371.05 127.03L372.65 127.62C371.84 129.02 370.4 130.46 368.98 131.18V131.19ZM376.83 125.17H378.99V126.79H374.78V131.17H372.76V126.79H368.28V125.17H370.35C370.17 124.58 369.72 123.73 369.27 123.1L370.89 122.45C371.39 123.1 371.92 123.94 372.1 124.56L370.55 125.17H372.76V122.45H374.78V125.17H376.33L375.32 124.77C375.75 124.14 376.29 123.19 376.56 122.52L378.49 123.1C377.91 123.86 377.32 124.63 376.83 125.17ZM379.54 129.58L378.24 130.88C377.56 130.14 376.08 128.95 374.98 128.14L376.2 126.97C377.3 127.71 378.79 128.82 379.53 129.58H379.54Z" fill="white"/>
<path d="M563.37 140.32H566.65C566.65 140.32 566.64 140.62 566.62 140.76C566.48 142.81 566.33 143.67 566.05 143.98C565.84 144.23 565.62 144.32 565.32 144.34C565.07 144.38 564.64 144.39 564.18 144.37C564.17 144.12 564.12 143.82 564.01 143.58C563.37 144.13 562.58 144.67 561.8 145.1V145.65H567.12V146.77H561.8V148.63C561.8 149.25 561.67 149.57 561.19 149.75C560.72 149.93 560.03 149.94 559.01 149.94C558.96 149.59 558.76 149.12 558.59 148.8C559.32 148.83 560.09 148.84 560.29 148.81C560.5 148.81 560.56 148.77 560.56 148.6V146.77H555.27V145.65H560.56V144.69C561.09 144.44 561.67 144.09 562.15 143.71H558.16V143.02C557.65 143.63 556.96 144.18 556.03 144.59C555.9 144.3 555.56 143.86 555.29 143.64C557.47 142.73 558.07 141.1 558.32 139.41H555.9V138.34H563.77C563.65 138.96 563.51 139.68 563.38 140.3L563.37 140.32ZM563.64 142.58L564.42 143.2L564.25 143.36H564.72C564.88 143.37 564.97 143.35 565.06 143.26C565.2 143.09 565.31 142.58 565.41 141.35H561.94C562.1 140.82 562.25 140.12 562.37 139.43H559.57C559.39 140.6 559.09 141.71 558.44 142.65H563.38L563.64 142.59V142.58Z" fill="white"/>
<path d="M578.68 146.23V144.03H572.47V145.24C572.47 146.7 572.25 148.67 571.01 149.97C570.81 149.75 570.28 149.36 570.01 149.23C571.14 148.06 571.27 146.45 571.27 145.21V143H579.66C579.46 142.75 579.18 142.45 578.85 142.14C572.3 142.44 571.57 142.45 571.08 142.63C571.03 142.38 570.85 141.8 570.7 141.47C571.04 141.42 571.36 141.18 571.84 140.81C572.02 140.68 572.35 140.41 572.74 140.06H569.74V138.98H573.86C574.26 138.55 574.68 138.08 575.04 137.62L576.29 138.11C576.03 138.41 575.76 138.69 575.48 138.98H581.23V140.06H578.11C579.07 140.76 580.16 141.67 580.74 142.32L579.73 143H580.02V148.49C580.02 149.19 579.84 149.48 579.31 149.63C578.8 149.79 577.94 149.77 576.75 149.77C576.71 149.46 576.57 149.03 576.42 148.72C577.19 148.76 578.16 148.76 578.37 148.75C578.62 148.75 578.7 148.67 578.7 148.48V147.13C576.7 147.56 574.63 147.98 573.07 148.27L572.69 147.17C574.13 146.98 576.46 146.61 578.7 146.23H578.68ZM574.38 140.07C573.83 140.56 573.3 141.01 572.77 141.41L577.8 141.24C577.45 140.94 577.07 140.66 576.73 140.41L577.28 140.07H574.38ZM577.86 145.56L577.47 146.42C576.42 145.96 574.42 145.42 572.85 145.18L573.21 144.41C574.76 144.61 576.77 145.1 577.85 145.55L577.86 145.56Z" fill="white"/>
<path d="M595.19 140.33H586.01C585.52 140.91 584.98 141.45 584.45 141.88C584.31 141.65 583.94 141.13 583.71 140.89C584.79 140.12 585.86 138.93 586.47 137.68L587.55 138.03C587.34 138.43 587.11 138.85 586.83 139.24H595.19V140.33ZM593.91 142.3H595.31V143.4H593.91V145.36H595.59V146.48H584.01V145.36H585.92V143.4H584.42V142.3H585.92V140.97H587.01V142.3H588.17V140.97H589.21V142.3H590.5V140.97H591.55V142.3H592.79V140.97H593.92V142.3H593.91ZM585.25 149.89L584.07 149.42C584.54 148.8 585.11 147.77 585.45 146.89L586.63 147.19C586.28 148.09 585.73 149.19 585.25 149.89ZM587 143.4V145.36H588.16V143.4H587ZM589.12 149.59L587.91 149.77C587.9 149.15 587.81 148.12 587.65 147.33L588.78 147.21C588.96 147.98 589.11 148.99 589.12 149.59ZM589.2 145.36H590.49V143.4H589.2V145.36ZM592.28 149.48L591.06 149.74C590.96 149.12 590.64 148.08 590.32 147.3L591.48 147.09C591.81 147.86 592.17 148.86 592.29 149.48H592.28ZM591.54 145.36H592.78V143.4H591.54V145.36ZM595.57 149.34L594.36 149.87C594.1 149.19 593.5 148.08 592.99 147.24L594.12 146.8C594.63 147.58 595.26 148.66 595.56 149.34H595.57Z" fill="white"/>
<path d="M601.98 138.28L602.79 138.74C602.43 139.82 601.98 141.12 601.57 142.13C602.44 143.2 602.65 144.13 602.65 144.93C602.65 145.73 602.48 146.26 602.09 146.54C601.91 146.67 601.66 146.76 601.39 146.8C601.14 146.83 600.83 146.83 600.53 146.81C600.53 146.52 600.43 146.06 600.24 145.74C600.5 145.77 600.73 145.78 600.92 145.75C601.06 145.75 601.19 145.71 601.3 145.65C601.48 145.52 601.55 145.18 601.55 144.79C601.55 144.11 601.35 143.24 600.51 142.25C600.84 141.38 601.16 140.27 601.41 139.42H599.79V149.83H598.71V138.31H601.82L602 138.27L601.98 138.28ZM607.84 146.78C608.44 147.64 609.22 148.31 610.19 148.73C609.9 148.96 609.54 149.46 609.36 149.78C607.36 148.77 606.21 146.76 605.58 144.18H604.53V148.21L606.62 147.73C606.61 148.07 606.63 148.57 606.67 148.83C604.04 149.53 603.59 149.69 603.32 149.87C603.23 149.6 602.97 149.12 602.79 148.88C603.02 148.75 603.32 148.44 603.32 147.87V138.34H609.13V144.18H606.63C606.81 144.79 607.03 145.38 607.31 145.91C607.93 145.48 608.65 144.92 609.1 144.48L609.91 145.34C609.27 145.85 608.49 146.39 607.84 146.78ZM607.95 139.42H604.53V140.73H607.95V139.42ZM604.53 141.75V143.11H607.95V141.75H604.53Z" fill="white"/>
<path d="M624.25 139.93H622.69V148.21C622.69 149.02 622.49 149.42 621.94 149.63C621.37 149.83 620.43 149.85 619.13 149.85C619.05 149.49 618.8 148.87 618.6 148.52C619.6 148.58 620.71 148.57 621.02 148.56C621.31 148.56 621.41 148.47 621.41 148.21V139.93H612.57V138.69H624.26V139.93H624.25ZM619.27 146.59H615.04V147.62H613.84V141.65H619.26V146.59H619.27ZM615.04 145.42H618.04V142.82H615.04V145.42Z" fill="white"/>
<path d="M632.24 142.45V148.64C632.24 149.2 632.12 149.47 631.76 149.65C631.37 149.81 630.8 149.82 629.99 149.82C629.92 149.53 629.76 149.1 629.6 148.83C630.16 148.86 630.69 148.86 630.86 148.84C631.03 148.84 631.08 148.79 631.08 148.63V146.89L628.84 148.29L628.51 147.42C628.37 148.32 628.08 149.21 627.56 149.89C627.4 149.66 626.94 149.2 626.7 149.05C627.43 148.05 627.49 146.64 627.49 145.51V142.44H632.22L632.24 142.45ZM633.09 141.7L632.02 142.16C631.93 141.91 631.8 141.61 631.64 141.29C628.21 141.61 627.71 141.68 627.38 141.81C627.31 141.58 627.12 141 626.99 140.69C627.21 140.64 627.42 140.44 627.68 140.16C627.94 139.9 628.79 138.85 629.29 137.81L630.54 138.19C630.03 139 629.42 139.83 628.81 140.49L631.14 140.32C630.92 139.9 630.68 139.49 630.45 139.12L631.46 138.76C632.04 139.68 632.77 140.93 633.08 141.71L633.09 141.7ZM631.09 145.34V143.49H628.66V145.54C628.66 146.05 628.63 146.62 628.56 147.19C629.25 146.9 630.16 146.42 631.1 145.94V145.45L630.52 146.05C630.1 145.67 629.3 145.06 628.67 144.65L629.31 144.07C629.91 144.46 630.67 144.99 631.1 145.34H631.09ZM635.06 142.42H637.24C637.58 142.42 638.12 142.39 638.38 142.33C638.41 142.65 638.45 143.11 638.5 143.38C638.25 143.46 637.75 143.47 637.28 143.47H635.02C633.69 143.47 633.33 143 633.33 141.74V137.8H634.54V139.49H637.93V140.56H634.54V141.77C634.54 142.25 634.64 142.42 635.06 142.42ZM638.05 146.43H634.54V148.16C634.54 148.6 634.66 148.68 635.23 148.68H637.08C637.59 148.68 637.68 148.45 637.73 147.13C637.99 147.33 638.48 147.51 638.82 147.57C638.68 149.29 638.33 149.75 637.18 149.75H635.07C633.68 149.75 633.33 149.39 633.33 148.15V143.89H634.54V145.33H638.05V146.42V146.43Z" fill="white"/>
<path d="M583.53 116.78V119.34H585.46V121.34H583.53V121.88C584 122.26 585.4 123.73 585.8 124.18V119.82H589.27V119.08H585.2V117.41H589.27V116.65C588.1 116.72 586.95 116.76 585.87 116.76C585.82 116.31 585.58 115.59 585.4 115.16C588.39 115.09 591.86 114.84 593.97 114.42L595.21 116C594.08 116.22 592.74 116.4 591.34 116.5V117.4H595.25V119.07H591.34V119.81H594.96V125.88H591.34V126.69H594.94V128.35H591.34V129.18H595.63V130.87H584.67V129.18H589.28V128.35H585.7V126.69H589.28V125.88H585.81V124.3L584.62 125.92C584.4 125.47 583.97 124.77 583.54 124.1V131.16H581.45V124.68C580.87 126.07 580.19 127.34 579.49 128.24C579.29 127.63 578.82 126.73 578.48 126.19C579.49 125.02 580.52 123.08 581.16 121.33H578.86V119.33H581.45V117.22C580.69 117.36 579.95 117.47 579.25 117.56C579.14 117.09 578.87 116.35 578.64 115.9C580.64 115.58 582.85 115.04 584.24 114.44L585.7 116.1C585.05 116.35 584.31 116.59 583.54 116.77L583.53 116.78ZM589.28 122.22V121.32H587.68V122.22H589.28ZM589.28 124.4V123.5H587.68V124.4H589.28ZM591.35 122.22H593.01V121.32H591.35V122.22ZM591.35 124.4H593.01V123.5H591.35V124.4Z" fill="white"/>
<path d="M607 130.77C606.12 131.11 604.88 131.17 603.22 131.15C603.09 130.52 602.66 129.53 602.3 128.92C603.56 128.99 604.97 128.99 605.36 128.97C605.76 128.95 605.88 128.86 605.88 128.56V124.26H598.71V122.08H605.88V119.58C607.03 119.04 608.33 118.23 609.39 117.44H600.51V115.32H611.78L612.27 115.19L613.93 116.47C612.38 117.98 610.2 119.58 608.13 120.72V122.09H615.15V124.27H608.13V128.63C608.13 129.84 607.86 130.45 607 130.79V130.77Z" fill="white"/>
<path d="M790.47 142.81L789.74 143.8C789.3 143.4 788.38 142.81 787.67 142.43L788.36 141.55C789.05 141.87 789.98 142.43 790.47 142.81ZM789.79 144.76L790.73 145.44C790.24 146.78 789.57 148.33 788.99 149.55L787.94 148.86C788.49 147.87 789.24 146.22 789.8 144.76H789.79ZM791.26 139.33L790.51 140.3C790.04 139.88 789.11 139.25 788.39 138.83L789.12 137.97C789.81 138.35 790.78 138.93 791.27 139.32L791.26 139.33ZM799.87 149.39L798.87 149.77C798.8 149.47 798.71 149.11 798.6 148.73C796.01 149.13 795.61 149.22 795.36 149.37C795.3 149.15 795.11 148.62 794.98 148.33C795.28 148.25 795.54 147.89 795.93 147.32C796.14 147.02 796.63 146.23 797.17 145.23C795.74 145.39 795.43 145.46 795.23 145.55C795.18 145.32 795.01 144.8 794.88 144.52C795.07 144.48 795.26 144.25 795.45 143.9C795.64 143.59 796.23 142.42 796.55 141.25H792.78L793.38 141.48C793.03 142.48 792.51 143.53 791.99 144.37L793.26 144.27C793.55 143.74 793.81 143.17 794.03 142.61L795.06 143.12C794.22 144.91 793.14 146.72 792.04 148.15L793.74 147.92C793.62 147.48 793.49 147.05 793.35 146.66L794.27 146.4C794.63 147.38 794.97 148.65 795.08 149.49L794.12 149.78C794.08 149.51 794.03 149.17 793.95 148.82C791.44 149.22 791.04 149.33 790.78 149.46C790.73 149.24 790.55 148.69 790.42 148.41C790.71 148.34 791 147.97 791.42 147.41C791.65 147.1 792.19 146.31 792.75 145.29C791.41 145.43 791.1 145.51 790.92 145.6C790.87 145.37 790.7 144.85 790.57 144.57C790.77 144.52 790.95 144.28 791.15 143.93C791.33 143.62 791.93 142.43 792.28 141.26H790.85V140.14H793.49C793.26 139.61 792.83 138.84 792.46 138.29L793.49 137.86C793.93 138.47 794.4 139.26 794.63 139.81L793.92 140.14H796.27C796.62 139.48 797.01 138.57 797.21 137.88L798.46 138.24C798.15 138.86 797.78 139.57 797.46 140.14H799.7V141.26H797.09L797.69 141.49C797.33 142.48 796.83 143.52 796.32 144.35L797.67 144.25C797.9 143.74 798.14 143.2 798.33 142.68L799.37 143.16C798.59 144.89 797.59 146.67 796.57 148.09L798.3 147.86C798.13 147.43 797.96 146.99 797.78 146.6L798.7 146.27C799.19 147.26 799.67 148.56 799.87 149.42V149.39Z" fill="white"/>
<path d="M811.53 148.47C812.25 148.72 812.91 148.94 813.39 149.13L812.88 149.97C811.71 149.5 809.46 148.71 807.77 148.2C807.78 148.47 807.81 148.8 807.85 148.99C805 149.65 804.6 149.78 804.33 149.94C804.25 149.65 804 149.16 803.82 148.94C804.05 148.81 804.34 148.55 804.34 147.99V144.86C803.83 145.22 803.3 145.54 802.77 145.8C802.59 145.57 802.17 145.11 801.91 144.9C803.13 144.41 804.3 143.64 805.11 142.7H802.33V141.84H807.43V141.26H803.71V140.48H807.43V139.95H803.05V139.1H805.33C805.16 138.8 804.94 138.46 804.76 138.2L805.85 137.84C806.16 138.23 806.5 138.75 806.7 139.1H809.56C809.81 138.71 810.09 138.19 810.24 137.81L811.58 138.11C811.35 138.46 811.09 138.81 810.87 139.1H813.13V139.95H808.71V140.48H812.47V141.26H808.71V141.84H813.86V142.7H811.03C811.84 143.56 813.01 144.29 814.24 144.65C813.97 144.87 813.62 145.3 813.45 145.61C812.79 145.36 812.15 145.01 811.56 144.58V147.45H808.27C808.93 147.63 809.71 147.87 810.48 148.1C811.23 147.75 812.12 147.26 812.66 146.89L813.44 147.53C812.87 147.87 812.19 148.18 811.55 148.45L811.53 148.47ZM806.52 142.71C806.09 143.32 805.56 143.88 804.97 144.37H811.24C810.63 143.89 810.1 143.32 809.67 142.71H806.52ZM810.29 145.08H805.67V145.6H810.29V145.08ZM805.68 146.22V146.77H810.3V146.22H805.68ZM805.68 148.51L807.76 148.08L808.18 147.47H805.68V148.51ZM809.95 143.84H806.18V143.19H809.95V143.84Z" fill="white"/>
<path d="M821.16 139.16H825.68L825.89 139.1L826.75 139.67C826 140.87 824.9 141.89 823.63 142.75C825.1 143.48 826.79 144.04 828.54 144.35C828.27 144.62 827.92 145.16 827.75 145.49C825.84 145.09 824.02 144.4 822.45 143.46C820.7 144.42 818.71 145.12 816.82 145.55C816.7 145.21 816.43 144.71 816.22 144.45C817.91 144.13 819.72 143.53 821.32 142.72C820.62 142.23 819.98 141.67 819.44 141.06C818.8 141.64 818.13 142.15 817.46 142.57C817.25 142.34 816.81 141.87 816.54 141.66C818.19 140.78 819.78 139.32 820.69 137.73L821.86 138.13C821.65 138.48 821.42 138.82 821.17 139.16H821.16ZM826.29 149.91H824.99V149.4H819.71V149.95H818.46V145.15H826.29V149.91ZM824.99 148.31V146.28H819.71V148.31H824.99ZM822.46 142.1C823.36 141.54 824.15 140.92 824.77 140.23H820.26L820.21 140.28C820.82 140.94 821.59 141.55 822.46 142.1Z" fill="white"/>
<path d="M832.3 145.87V142.09H830.8V140.93H832.3V138H833.46V140.93H834.77V142.09H833.46V145.39L834.76 144.84L835.03 145.93C833.65 146.58 832.2 147.27 831.04 147.78L830.55 146.56C831.03 146.38 831.64 146.14 832.3 145.87ZM837.85 148.54H840.72C841.45 148.54 841.59 148.22 841.68 146.79C841.97 146.98 842.43 147.18 842.77 147.25C842.6 149.06 842.22 149.66 840.79 149.66H837.76C836.15 149.66 835.68 149.26 835.68 147.67V143.89L834.8 144.27L834.33 143.18L835.68 142.61V139.11H836.86V142.1L838.32 141.49V137.88H839.48V141L841.22 140.26L842.16 140.57L842.1 140.76C842.01 142.58 841.8 144.99 841.48 146.51L840.48 146.22C840.66 145.09 840.81 143.27 840.88 141.66L839.49 142.26V146.98H838.33V142.75L836.87 143.37V147.69C836.87 148.43 837 148.56 837.85 148.56V148.54Z" fill="white"/>
<path d="M850.36 142.11H856.76V143.19H849.74C849.41 143.7 849.06 144.19 848.67 144.66H850.83V143.46H852.03V144.66H855.74V147.86C855.74 148.44 855.62 148.74 855.19 148.93C854.76 149.1 854.14 149.11 853.19 149.11C853.14 148.77 852.97 148.34 852.81 148.04C853.46 148.05 854.08 148.05 854.27 148.05C854.46 148.05 854.5 148.01 854.5 147.84V145.75H852.03V149.91H850.83V145.75H848.58V149.2H847.36V145.99C846.84 146.43 846.28 146.82 845.68 147.16C845.5 146.9 845.12 146.46 844.86 146.24C846.26 145.51 847.42 144.42 848.29 143.2H845.2V142.12H848.97C849.18 141.74 849.36 141.37 849.52 140.99C848.47 141.28 847.43 141.54 846.44 141.73C846.24 141.46 845.87 140.94 845.61 140.7C847 140.48 848.44 140.17 849.81 139.78C848.65 139.4 847.5 139.05 846.46 138.78L847.3 138.04C848.56 138.35 850.04 138.78 851.46 139.25C852.6 138.83 853.62 138.35 854.4 137.82L855.43 138.5C854.73 138.97 853.91 139.4 853.02 139.77C854.1 140.16 855.1 140.56 855.85 140.91L854.9 141.79C854.05 141.36 852.83 140.85 851.48 140.36L850.3 140.75L850.91 140.92C850.74 141.32 850.56 141.73 850.36 142.12V142.11Z" fill="white"/>
<path d="M861.8 142.7H863.78C864.09 142.7 864.55 142.67 864.81 142.62C864.82 142.92 864.86 143.39 864.91 143.66C864.69 143.72 864.23 143.74 863.81 143.74H861.82C860.57 143.74 860.26 143.32 860.26 142.15V140.26H859.14V139.21H861.84C861.71 138.85 861.55 138.44 861.4 138.12L862.49 137.82C862.71 138.25 862.95 138.78 863.1 139.21H865.31V140.26H861.38V142.16C861.38 142.56 861.44 142.69 861.8 142.69V142.7ZM865.87 145.51V146.54H870.38V147.53H865.87V148.56H871.13V149.59H859.39V148.56H864.63V147.53H860.24V146.54H864.63V145.58C863.23 145.64 861.78 145.67 860.47 145.67C860.47 145.37 860.34 144.94 860.24 144.68C863.53 144.64 867.48 144.45 869.81 144.06L870.36 145.06C869.11 145.27 867.54 145.42 865.88 145.51H865.87ZM867.95 138.73H870.43L870.65 138.69L871.39 138.95C870.57 142.14 868.45 143.66 865.7 144.38C865.57 144.09 865.32 143.66 865.12 143.44C865.86 143.28 866.55 143.04 867.19 142.71C866.8 142.33 866.24 141.85 865.72 141.42C865.54 141.58 865.34 141.73 865.15 141.88C864.97 141.65 864.59 141.31 864.33 141.15C865.73 140.21 866.67 138.93 867.18 137.85L868.32 138.05L867.96 138.73H867.95ZM866.35 140.85C866.92 141.28 867.56 141.8 868 142.2C868.23 142.03 868.46 141.85 868.66 141.64C868.18 141.25 867.48 140.73 866.84 140.29L866.35 140.85ZM869.97 139.64H867.38C868 140.04 868.72 140.54 869.25 140.94C869.54 140.55 869.77 140.12 869.96 139.64H869.97Z" fill="white"/>
<path d="M1035.5 128.75H1038.01C1037.5 128.32 1036.66 127.75 1035.97 127.37L1036.72 126.63C1037.49 127.02 1038.47 127.63 1038.97 128.07L1038.33 128.75H1039.68V129.96H1035.57C1035.69 131.51 1035.91 132.92 1036.19 134.09C1036.81 133.13 1037.32 132.04 1037.68 130.83L1038.91 131.13C1038.35 132.83 1037.6 134.33 1036.64 135.59C1037.07 136.72 1037.59 137.38 1038.15 137.38C1038.49 137.38 1038.66 136.7 1038.72 135.03C1039.01 135.3 1039.45 135.59 1039.78 135.71C1039.57 138.04 1039.13 138.65 1038.05 138.65C1037.08 138.65 1036.31 137.91 1035.72 136.69C1034.98 137.46 1034.16 138.12 1033.25 138.67C1033.07 138.41 1032.63 137.9 1032.35 137.66C1033.44 137.08 1034.4 136.32 1035.21 135.4C1034.74 133.9 1034.43 132.02 1034.27 129.98H1030.07V131.55H1033.37C1033.37 131.55 1033.37 131.89 1033.36 132.04C1033.31 134.89 1033.23 136.01 1032.96 136.38C1032.73 136.67 1032.48 136.77 1032.12 136.81C1031.78 136.86 1031.2 136.86 1030.57 136.84C1030.56 136.48 1030.41 136 1030.23 135.68C1030.77 135.73 1031.28 135.73 1031.5 135.73C1031.68 135.73 1031.8 135.72 1031.9 135.6C1032.04 135.39 1032.12 134.65 1032.16 132.67H1030.07C1030.06 134.56 1029.84 137.18 1028.69 138.85C1028.47 138.62 1027.92 138.17 1027.64 138.02C1028.69 136.45 1028.78 134.19 1028.78 132.48V128.76H1034.19C1034.16 128.07 1034.14 127.38 1034.14 126.68H1035.43C1035.43 127.38 1035.44 128.08 1035.47 128.76L1035.5 128.75Z" fill="#3858A0"/>
<path d="M1052.6 128.16H1045.71V129.11H1052.22V130.07H1045.71V130.99H1052.22V131.95H1045.71V132.89H1053.91V133.98H1052.43L1053.42 134.66C1052.64 135.23 1051.68 135.8 1050.82 136.26C1051.74 136.87 1052.87 137.3 1054.21 137.55C1053.95 137.81 1053.61 138.32 1053.44 138.66C1050.48 138 1048.56 136.44 1047.45 133.99H1045.46V137.16L1048.7 136.44C1048.65 136.77 1048.61 137.27 1048.61 137.53C1045.1 138.39 1044.49 138.53 1044.18 138.7L1044.14 138.74C1044.05 138.44 1043.8 137.83 1043.6 137.52C1043.87 137.39 1044.26 137.09 1044.26 136.57V133.98H1042.22V132.89H1044.47V127.13H1052.61V128.16H1052.6ZM1049.99 135.6C1050.82 135.13 1051.78 134.5 1052.41 133.99H1048.73C1049.05 134.6 1049.48 135.13 1049.99 135.6Z" fill="#3858A0"/>
<path d="M1062.98 133.82H1067.1V134.95H1062.98V137.11H1068.24V138.25H1056.53V137.11H1061.69V134.95H1057.7V133.82H1061.69V132.3H1062.98V133.82ZM1067.85 131.87L1066.77 132.62C1066.57 132.36 1066.31 132.05 1066 131.72C1059.11 132.02 1058.33 132.05 1057.78 132.23C1057.72 131.97 1057.52 131.37 1057.38 131.03C1057.65 130.98 1057.94 130.77 1058.29 130.43C1058.59 130.18 1059.34 129.39 1060.05 128.47H1056.84V127.33H1067.81V128.47H1061.65C1060.97 129.37 1060.22 130.2 1059.49 130.89L1064.95 130.7C1064.47 130.27 1063.98 129.84 1063.51 129.48L1064.48 128.82C1065.65 129.7 1067.13 130.98 1067.85 131.88V131.87Z" fill="#3858A0"/>
<path d="M1074.68 127.77H1076.28V128.88H1074.68V130.1H1073.46V128.88H1070.83V127.77H1073.46V126.65H1074.68V127.77ZM1072.99 136.94H1076.01V134H1072.38V130.61H1073.64V132.87H1076.01V129.92H1077.3V132.87H1079.65V130.61H1080.96V134H1077.29V136.94H1080.42V134.55H1081.69V138.7H1080.42V138.1H1071.72V134.55H1072.98V136.94H1072.99ZM1082.45 128.87H1079.89V130.1H1078.67V128.87H1076.95V127.76H1078.67V126.66H1079.89V127.76H1082.45V128.87Z" fill="#3858A0"/>
<path d="M1086.59 130.27H1088.05V126.66H1089.21V138.72H1088.05V134.17H1086.8V134.35C1086.8 135.48 1086.66 137.43 1085.77 138.76C1085.56 138.55 1085.12 138.24 1084.83 138.1C1085.57 136.96 1085.67 135.3 1085.67 134.32V134.18H1084.94V133.06H1088.03V131.38H1085.46V127.22H1086.58V130.27H1086.59ZM1093.95 130.87H1097.04V132.04H1093.95V137.14H1096.73V138.31H1089.97V137.14H1092.71V132.04H1089.67V130.87H1092.71V126.68H1093.95V130.87Z" fill="#3858A0"/>
<path d="M1268.02 141.7H1259.37V142.31C1259.37 144.55 1259.17 147.84 1257.81 149.97C1257.58 149.77 1257.03 149.45 1256.72 149.33C1258.02 147.3 1258.14 144.39 1258.14 142.31V138.47H1268.02V141.69V141.7ZM1259.38 140.63H1266.79V139.53H1259.38V140.63ZM1266.27 147.89C1267 148.37 1267.88 148.72 1268.91 148.93C1268.66 149.16 1268.34 149.63 1268.18 149.94C1265.88 149.36 1264.32 148.07 1263.43 146.09H1261.83V148.5L1264.38 147.97C1264.33 148.27 1264.29 148.74 1264.29 148.98C1261.18 149.72 1260.77 149.83 1260.51 149.98C1260.45 149.69 1260.21 149.2 1260.04 148.98C1260.3 148.82 1260.69 148.5 1260.69 147.88V146.1H1259.42V145.05H1261.57V143.89H1259.75V142.85H1261.57V141.72H1262.7V142.85H1265.01V141.72H1266.17V142.85H1268.22V143.89H1266.17V145.05H1268.77V146.1H1267.31L1268.18 146.71C1267.6 147.14 1266.89 147.55 1266.27 147.89ZM1262.69 145.04H1265V143.88H1262.69V145.04ZM1265.49 147.25C1266.09 146.91 1266.76 146.46 1267.21 146.09H1264.6C1264.85 146.52 1265.15 146.91 1265.5 147.25H1265.49Z" fill="#14378D"/>
<path d="M1276.64 138.41V142.9H1272.97V149.96H1271.76V138.42H1276.64V138.41ZM1275.49 139.3H1272.98V140.18H1275.49V139.3ZM1272.98 141.03V141.98H1275.49V141.03H1272.98ZM1280.61 146.88H1279V149.7H1277.89V146.88H1276.32C1276.22 147.76 1275.79 149.09 1274.59 149.91C1274.42 149.69 1274.06 149.35 1273.8 149.18C1274.77 148.57 1275.15 147.59 1275.26 146.88H1273.76V145.85H1275.29V144.63H1273.98V143.64H1280.36V144.63H1278.99V145.85H1280.6V146.88H1280.61ZM1276.34 144.64V145.86H1277.89V144.64H1276.34ZM1282.09 149.68C1281.66 149.89 1281 149.91 1280 149.91C1279.96 149.57 1279.8 149.01 1279.64 148.69C1280.29 148.7 1280.97 148.7 1281.17 148.7C1281.37 148.69 1281.43 148.62 1281.43 148.43V142.9H1277.67V138.4H1282.65V148.44C1282.65 149.1 1282.51 149.47 1282.09 149.68ZM1281.43 139.3H1278.84V140.18H1281.43V139.3ZM1278.84 141.03V142H1281.43V141.03H1278.84Z" fill="#14378D"/>
<path d="M1293.95 138.84H1297.24V139.74H1296.49C1296.2 140.39 1295.79 140.92 1295.28 141.38C1295.96 141.74 1296.74 142.03 1297.54 142.2C1297.31 142.41 1297.01 142.82 1296.85 143.11C1295.95 142.88 1295.12 142.51 1294.39 142.03C1293.71 142.45 1292.93 142.77 1292.1 143.02C1291.98 142.77 1291.66 142.34 1291.45 142.15C1292.22 141.97 1292.93 141.72 1293.54 141.4C1293.23 141.13 1292.94 140.83 1292.7 140.5C1292.49 140.7 1292.3 140.89 1292.09 141.05C1291.97 140.91 1291.74 140.65 1291.53 140.45C1291.44 141.83 1291.35 142.41 1291.13 142.66C1290.96 142.85 1290.75 142.93 1290.48 142.96C1290.26 142.99 1289.84 142.99 1289.43 142.96C1289.42 142.8 1289.39 142.62 1289.33 142.45H1287.42V142.81H1286.58V141.31C1286.42 141.47 1286.27 141.6 1286.09 141.74C1285.93 141.52 1285.62 141.22 1285.41 141.1C1286.12 140.61 1286.59 139.97 1286.87 139.4L1287.81 139.56L1287.69 139.81H1291.59V140.07C1292.28 139.5 1292.9 138.72 1293.27 137.9L1294.32 138.19C1294.22 138.41 1294.1 138.63 1293.97 138.85L1293.95 138.84ZM1288.41 139.43H1287.42V139.05H1285.73V138.31H1287.42V137.88H1288.41V139.43ZM1286.79 149.97L1285.76 149.41C1286.22 148.98 1286.67 148.28 1286.96 147.77L1287.96 148.25C1287.65 148.81 1287.22 149.5 1286.79 149.97ZM1289.68 142.17H1289.95C1290.08 142.17 1290.16 142.17 1290.22 142.08C1290.34 141.94 1290.42 141.52 1290.48 140.49H1287.26L1286.99 140.85H1289.68V142.16V142.17ZM1294.65 148.9L1294.31 149.06C1294.64 149.09 1294.89 149.09 1295.03 149.09C1295.19 149.09 1295.29 149.08 1295.38 148.99C1295.52 148.85 1295.64 148.5 1295.73 147.69H1287.24V143.2H1296.12V143.95H1292.39V144.51H1295.63V145.16H1292.39V145.72H1295.64V146.36H1292.39V146.93H1296.99C1296.99 146.93 1296.96 147.2 1296.94 147.35C1296.78 148.74 1296.63 149.38 1296.34 149.65C1296.14 149.86 1295.9 149.94 1295.6 149.96C1295.34 149.97 1294.83 149.97 1294.27 149.95C1294.27 149.73 1294.19 149.42 1294.09 149.17L1293.79 149.31C1293.63 148.98 1293.28 148.5 1292.97 148.15L1293.8 147.81C1294.13 148.15 1294.48 148.59 1294.65 148.9ZM1287.41 141.89H1288.81V141.4H1287.41V141.89ZM1291.2 144.5V143.94H1288.42V144.5H1291.2ZM1288.42 145.71H1291.2V145.15H1288.42V145.71ZM1288.42 146.92H1291.2V146.35H1288.42V146.92ZM1290.07 149.65L1289.02 149.84C1288.99 149.4 1288.86 148.71 1288.69 148.2L1289.69 148.03C1289.87 148.54 1290.03 149.2 1290.07 149.64V149.65ZM1291.93 139.08H1290.23V139.56H1289.24V137.88H1290.23V138.31H1291.93V139.08ZM1292.44 149.41L1291.47 149.68C1291.38 149.29 1291.12 148.68 1290.87 148.22L1291.81 147.99C1292.07 148.43 1292.33 149.02 1292.45 149.41H1292.44ZM1293.33 139.76C1293.6 140.15 1293.97 140.5 1294.41 140.83C1294.79 140.52 1295.1 140.15 1295.32 139.74H1293.34V139.77L1293.33 139.76Z" fill="#14378D"/>
<path d="M1303.5 139.06V146.51H1301.22V147.72H1300.18V139.06H1303.5ZM1301.23 145.36H1302.44V140.19H1301.23V145.36ZM1306.52 138.84H1308.96V137.88H1310.09V138.84H1311.65V139.79H1310.09V141.32H1308.34V141.85H1311.06V144.36H1308.34V145.02H1311.1V145.96H1308.32C1308.29 146.19 1308.26 146.42 1308.2 146.64H1311.61V147.56H1307.88C1307.33 148.6 1306.24 149.45 1304.11 149.95C1303.98 149.7 1303.65 149.25 1303.42 149.01C1305.07 148.71 1306.01 148.19 1306.53 147.55H1303.83V146.63H1307.03C1307.09 146.41 1307.13 146.19 1307.16 145.95H1304.42V145.01H1307.2V144.35H1304.46V141.84H1307.2V141.31H1305.45V139.78H1303.95V138.83H1305.45V137.87H1306.54V138.83L1306.52 138.84ZM1307.18 143.56V142.66H1305.49V143.56H1307.18ZM1306.52 139.79V140.53H1308.96V139.79H1306.52ZM1311.78 149L1311.21 149.91C1310.51 149.47 1309.12 148.81 1308.08 148.39L1308.64 147.58C1309.65 147.96 1311.07 148.57 1311.79 149H1311.78ZM1308.34 143.56H1309.95V142.66H1308.34V143.56Z" fill="#14378D"/>
<path d="M1318.98 143.14C1318.86 147.37 1318.77 148.85 1318.45 149.29C1318.23 149.62 1317.99 149.72 1317.66 149.77C1317.36 149.81 1316.88 149.81 1316.41 149.8C1316.38 149.48 1316.27 149.02 1316.1 148.72C1316.54 148.76 1316.92 148.77 1317.1 148.77C1317.28 148.77 1317.37 148.73 1317.48 148.59C1317.67 148.3 1317.79 147.09 1317.87 143.75H1316.61C1316.56 145.74 1316.22 147.99 1314.8 149.93C1314.59 149.71 1314.19 149.41 1313.89 149.23C1315.35 147.21 1315.51 144.86 1315.51 143.02V141.13H1314.18V139.97H1316.55C1316.45 139.48 1316.17 138.75 1315.91 138.2L1316.98 137.85C1317.27 138.41 1317.55 139.14 1317.68 139.61L1316.67 139.97H1319.28V141.13H1316.61V142.62H1318.99C1318.99 142.62 1318.98 142.98 1318.98 143.14ZM1321.57 139.54H1325.91V140.66H1321.09C1320.71 141.41 1320.28 142.08 1319.82 142.6C1319.6 142.39 1319.11 142.01 1318.83 141.85C1319.78 140.91 1320.48 139.43 1320.85 137.87L1322.03 138.1C1321.9 138.59 1321.74 139.08 1321.57 139.54ZM1323.38 142.59C1323.48 143.25 1323.6 143.9 1323.76 144.51C1324.25 144.09 1324.75 143.6 1325.09 143.2L1325.96 143.97C1325.39 144.53 1324.69 145.13 1324.07 145.58C1324.53 146.95 1325.19 148.05 1326.11 148.7C1325.82 148.93 1325.43 149.4 1325.27 149.71C1323.57 148.4 1322.79 145.87 1322.36 142.86L1321.31 143.09V148.02L1323.1 147.27C1323.11 147.61 1323.19 148.11 1323.26 148.37C1320.88 149.44 1320.48 149.62 1320.24 149.84C1320.14 149.59 1319.81 149.14 1319.62 148.96C1319.84 148.76 1320.13 148.39 1320.13 147.75V142.35C1321.79 142 1323.67 141.45 1324.75 140.93L1325.71 141.79C1325.05 142.08 1324.24 142.35 1323.4 142.58L1323.38 142.59Z" fill="#14378D"/>
<path d="M1331.67 139.5V141.53H1333.2V142.69H1331.67V143.3C1332.02 143.6 1333.14 144.76 1333.4 145.06L1332.69 146.04C1332.49 145.68 1332.07 145.05 1331.68 144.53V149.94H1330.48V144.65C1329.99 145.83 1329.4 146.95 1328.8 147.69C1328.68 147.35 1328.4 146.84 1328.2 146.55C1328.99 145.67 1329.81 144.09 1330.31 142.7H1328.46V141.54H1330.48V139.77C1329.88 139.87 1329.27 139.97 1328.71 140.04C1328.66 139.78 1328.49 139.36 1328.36 139.1C1329.83 138.87 1331.52 138.48 1332.51 138.03L1333.36 138.98C1332.87 139.18 1332.29 139.34 1331.68 139.5H1331.67ZM1337.29 144.52V145.99H1339.8V147.04H1337.29V148.55H1340.33V149.64H1332.95V148.55H1336.07V147.04H1333.63V145.99H1336.07V144.65C1335.24 144.73 1334.41 144.78 1333.63 144.82C1333.59 144.55 1333.46 144.13 1333.33 143.88C1335.37 143.76 1337.79 143.5 1339.18 143.13L1339.95 144.05C1339.2 144.25 1338.27 144.4 1337.3 144.52H1337.29ZM1339.69 142.79H1333.74V138.49H1339.69V142.79ZM1338.5 141.74V139.54H1334.89V141.74H1338.5Z" fill="#14378D"/>
<path d="M826.88 118.65L828.32 119.19C827.51 124.09 825.57 127.74 823.03 129.63C822.67 129.14 821.81 128.3 821.28 127.97C823.37 126.55 824.92 124.06 825.71 120.91H821.91V118.73H826.48L826.88 118.64V118.65ZM833.09 122.76C834.48 124.85 836.33 126.56 838.58 127.55C838.08 128 837.34 128.92 836.98 129.55C834.44 128.2 832.53 126 831.11 123.28V128.48C831.11 129.72 830.88 130.39 830.16 130.77C829.44 131.17 828.36 131.26 826.9 131.26C826.81 130.59 826.43 129.5 826.09 128.85C827.08 128.89 828.05 128.89 828.39 128.89C828.7 128.89 828.8 128.78 828.8 128.49V114.34H831.1V118.75C831.37 119.54 831.71 120.32 832.09 121.05C833.22 119.99 834.47 118.62 835.28 117.48L837.28 118.88C835.97 120.23 834.36 121.72 833.08 122.75L833.09 122.76Z" fill="white"/>
<path d="M1257.07 120.22H1257.79C1258.01 120.22 1258.46 120.18 1258.67 120.11C1258.71 120.49 1258.72 120.97 1258.78 121.35C1258.56 121.44 1258.15 121.44 1257.83 121.44H1256.77C1255.51 121.44 1255.28 120.92 1255.28 119.73V119.23H1254.4C1254.18 120.71 1253.54 121.62 1251.45 122.11C1251.32 121.73 1250.91 121.12 1250.59 120.83C1252.12 120.56 1252.59 120.07 1252.77 119.23H1250.97V117.74H1253.99V116.86H1251.58V115.4H1253.99V114.45H1255.9V115.4H1258.31V116.86H1255.9V117.74H1258.82V119.23H1256.82V119.73C1256.82 120.07 1256.84 120.22 1257.09 120.22H1257.07ZM1252.68 131.33L1250.63 130.5C1251.42 129.8 1252.27 128.54 1252.74 127.33L1254.83 127.87C1254.36 129.13 1253.55 130.46 1252.69 131.33H1252.68ZM1265.64 124.96C1265.69 125.03 1265.73 125.07 1265.8 125.07H1266.05C1266.12 125.07 1266.19 125.05 1266.25 124.98C1266.3 124.89 1266.32 124.75 1266.36 124.42C1266.4 124.08 1266.4 123.34 1266.41 122.39C1266.73 122.7 1267.31 122.98 1267.76 123.13C1267.72 124.05 1267.65 125.18 1267.56 125.58C1267.45 126.03 1267.29 126.32 1267.02 126.52C1266.77 126.7 1266.41 126.79 1266.05 126.79H1265.22C1264.81 126.79 1264.36 126.65 1264.07 126.34C1263.78 126.03 1263.66 125.64 1263.66 124.32V122.95L1262.94 124.41C1262.67 124.16 1262.29 123.85 1261.88 123.51C1261.41 124.99 1260.69 126.19 1259.56 127.15C1259.4 126.88 1259.11 126.52 1258.8 126.21V126.23C1256.01 126.54 1253.06 126.81 1250.95 127L1250.81 125.25L1253.98 125.02V123.94H1251.33V122.43H1253.98V121.44H1255.89V122.43H1258.36V123.94H1255.89V124.88L1258.79 124.63V125.21C1259.51 124.42 1259.98 123.45 1260.27 122.31L1258.85 121.27L1259.73 119.67L1260.63 120.28C1260.68 119.76 1260.72 119.22 1260.76 118.66H1259.23V116.75H1260.81L1260.83 114.43H1262.77L1262.73 116.75H1265.61V124.29C1265.61 124.69 1265.61 124.9 1265.65 124.97L1265.64 124.96ZM1258.33 130.9L1256.17 131.19C1256.17 130.36 1256.06 128.99 1255.86 127.97L1257.88 127.75C1258.11 128.78 1258.29 130.09 1258.33 130.9ZM1262.49 130.74L1260.33 131.15C1260.22 130.32 1259.86 128.97 1259.48 127.94L1261.52 127.6C1261.93 128.59 1262.37 129.9 1262.49 130.73V130.74ZM1262.37 121.43C1262.86 121.79 1263.31 122.11 1263.67 122.38V118.63H1262.64C1262.59 119.62 1262.5 120.56 1262.37 121.42V121.43ZM1267.39 130.65L1265.16 131.35C1264.78 130.45 1263.86 128.97 1263.09 127.89L1265.18 127.28C1265.95 128.29 1266.94 129.69 1267.39 130.65Z" fill="#14378D"/>
<path d="M1285.46 129.13C1285.73 129.13 1285.82 128.12 1285.84 126.59C1286.25 127.11 1286.79 127.65 1287.23 127.96C1287.09 130.3 1286.67 131.27 1285.3 131.27C1282.6 131.27 1282.19 127.47 1282.11 122.2H1272.35V120.74L1271.7 121.3C1271.41 120.85 1270.66 119.95 1270.21 119.54C1271.9 118.37 1273.42 116.46 1274.24 114.43L1276.35 115.06L1275.94 115.96H1286.56V117.58H1275L1274.53 118.28H1284.99V119.85H1274.42V118.43C1273.84 119.22 1273.21 119.94 1272.55 120.57H1284.27C1284.23 125.49 1284.4 129.14 1285.46 129.14V129.13ZM1271.87 131.29C1271.56 130.82 1270.95 130.12 1270.52 129.74C1271.85 129.22 1273.24 128.17 1273.94 127.13L1275.54 127.72C1274.73 129.12 1273.29 130.56 1271.87 131.28V131.29ZM1279.72 125.28H1281.88V126.9H1277.67V131.28H1275.65V126.9H1271.17V125.28H1273.24C1273.06 124.69 1272.61 123.84 1272.16 123.21L1273.78 122.56C1274.28 123.21 1274.81 124.05 1274.99 124.67L1273.44 125.28H1275.65V122.56H1277.67V125.28H1279.22L1278.21 124.88C1278.64 124.25 1279.18 123.3 1279.45 122.63L1281.38 123.21C1280.8 123.97 1280.21 124.74 1279.72 125.28ZM1282.44 129.69L1281.14 130.99C1280.46 130.25 1278.98 129.06 1277.88 128.25L1279.1 127.08C1280.2 127.82 1281.69 128.93 1282.43 129.69H1282.44Z" fill="#14378D"/>
<path d="M1292.12 126.97V122.61H1290.32V120.63H1292.12V117.44H1290.23V115.44H1295.96V117.44H1294.14V120.63H1295.71V122.61H1294.14V126.39L1295.98 125.83L1296.18 127.02C1297.37 126.14 1298.99 124.86 1300.48 123.63V119.29H1296.32V117.31H1300.48V114.41H1302.57V117.31H1305C1304.55 116.77 1303.76 116.09 1303.11 115.62L1304.3 114.5C1305.06 115 1306.01 115.76 1306.46 116.3L1305.43 117.31H1306.98V119.29H1302.57V120.14C1302.75 121.08 1302.95 121.92 1303.2 122.68C1303.87 121.83 1304.57 120.84 1305.02 120.03L1306.89 120.98C1305.95 122.22 1304.82 123.55 1303.92 124.47C1304.69 126.04 1305.76 127.21 1307.3 128.27C1306.8 128.65 1306.22 129.33 1305.97 129.93C1304.48 128.78 1303.38 127.55 1302.57 126.04V128.88C1302.57 129.96 1302.35 130.54 1301.72 130.88C1301.07 131.24 1300.17 131.31 1298.82 131.31C1298.73 130.75 1298.37 129.82 1298.08 129.24C1298.96 129.28 1299.81 129.28 1300.08 129.26C1300.37 129.26 1300.48 129.17 1300.48 128.9V125.95C1299.22 127.19 1297.91 128.42 1296.79 129.43L1295.78 127.92L1290.41 129.63L1289.96 127.56C1290.57 127.42 1291.31 127.2 1292.12 126.97ZM1299.84 123.26L1298.06 124.11C1297.81 123.23 1297.09 121.86 1296.42 120.85L1298.08 120.11C1298.78 121.08 1299.56 122.38 1299.84 123.26Z" fill="#14378D"/>
<path d="M1316.2 117.65V121.54H1320.77V114.7H1322.98V121.54H1326.65V123.61H1322.98V131.32H1320.77V123.61H1316.14C1315.96 126.51 1315.04 129.39 1311.51 131.35C1311.19 130.85 1310.45 130.05 1309.94 129.68C1312.91 128.1 1313.76 125.86 1313.95 123.61H1310.12V121.54H1314.03V118.32C1313 118.61 1311.98 118.86 1310.99 119.08C1310.86 118.56 1310.52 117.78 1310.25 117.32C1313.04 116.67 1316.05 115.61 1317.96 114.51L1319.49 116.33C1318.5 116.83 1317.38 117.27 1316.2 117.66V117.65Z" fill="#14378D"/>
<path d="M1341.91 121.14H1344.59C1345.11 121.14 1345.92 121.09 1346.32 121C1346.37 121.56 1346.43 122.4 1346.5 122.91C1346.14 123.04 1345.35 123.05 1344.68 123.05H1341.89C1339.73 123.05 1339.15 122.37 1339.15 120.42V118.24H1337.65C1337.4 121.3 1336.44 122.85 1331.22 123.53C1331.08 123.01 1330.61 122.18 1330.21 121.75C1334.6 121.32 1335.25 120.4 1335.43 118.24H1332.4V120.71H1330.28V116.3H1336.94C1336.76 115.81 1336.56 115.31 1336.36 114.88L1338.66 114.23C1338.98 114.86 1339.34 115.65 1339.6 116.3H1346.05V120.35H1343.8V118.24H1341.28V120.44C1341.28 120.94 1341.37 121.14 1341.89 121.14H1341.91ZM1346.14 130.93H1330.31V128.9H1337.15V126H1332.34V124H1344.37V126H1339.44V128.9H1346.14V130.93Z" fill="#14378D"/>
</svg>
