<svg width="390" height="743" viewBox="0 0 390 743" fill="none" xmlns="http://www.w3.org/2000/svg">
<path d="M98.1482 603.939C98.0492 550.449 141.343 507.003 194.833 506.911C248.324 506.812 291.77 550.098 291.861 603.596C291.96 657.087 248.674 700.533 195.176 700.624C141.685 700.723 98.2396 657.43 98.1406 603.939H98.1482Z" fill="white" stroke="#5D97C4" stroke-width="2" stroke-miterlimit="10"/>
<mask id="mask0_997_1380" style="mask-type:luminance" maskUnits="userSpaceOnUse" x="0" y="0" width="390" height="743">
<path d="M390 0H0V742.791H390V0Z" fill="white"/>
</mask>
<g mask="url(#mask0_997_1380)">
<path d="M187.162 120.004C187.17 119.958 187.185 119.912 187.231 119.844C188.152 118.001 188.876 116.028 189.348 114.048C196.171 93.2202 194.488 69.7495 182.928 49.3022C182.601 48.6853 182.273 48.0761 181.915 47.4745C181.557 46.8728 181.177 46.3017 180.788 45.7229C168.268 25.8467 148.4 13.2356 126.825 9.36699C124.853 8.84153 122.774 8.54453 120.718 8.4836L120.543 8.46837C102.806 7.6916 84.3239 12.2532 67.7528 22.6406C63.7166 25.1689 59.9699 27.8953 56.5125 30.85L56.4211 30.9033C50.8847 34.574 45.0056 39.0214 38.7457 44.2531C36.9409 45.2888 35.0827 46.9262 33.2322 49.0432C33.0722 49.1803 32.9123 49.3174 32.7219 49.4697C14.6963 65.4925 -8.12709 85.3992 -29.9605 106.09C-31.3845 107.019 -32.7934 108.39 -34.2175 110.134C-57.315 132.226 -78.8285 154.943 -91.7442 174.515C-91.7823 174.583 -91.8127 174.675 -91.8661 174.713C-100.586 185.587 -102.817 199.668 -97.273 211.122C-97.2349 211.259 -97.1435 211.411 -97.0521 211.556C-96.9988 211.647 -96.9608 211.784 -96.8846 211.899C-96.6638 212.333 -96.4277 212.797 -96.1764 213.216L-96.0164 213.483C-91.7975 220.55 -84.9665 225.416 -77.0008 227.579C-70.1317 229.46 -62.4249 229.353 -54.8476 227.008C-32.4507 224.274 -4.57831 216.605 23.2331 207.687C25.4949 207.345 27.4902 206.682 29.1655 205.761C58.5153 196.165 87.3777 185.359 109.264 177.622C109.371 177.599 109.493 177.53 109.599 177.507C111.671 177.043 113.514 176.342 115.166 175.436C123.208 172.375 130.283 169.245 136.383 166.046C140.883 164.371 145.323 162.246 149.672 159.771C166.677 150.1 179.456 135.996 187.185 120.011L187.162 120.004Z" fill="#003893"/>
<path d="M202.416 228.462C202.401 228.409 202.393 228.363 202.347 228.287C201.35 226.3 200.573 224.167 200.055 222.027C192.691 199.547 194.503 174.195 206.985 152.126C207.335 151.463 207.693 150.801 208.074 150.153C208.455 149.506 208.874 148.882 209.293 148.257C222.81 126.797 244.262 113.181 267.55 109.007C269.675 108.444 271.922 108.124 274.145 108.055L274.328 108.033C293.481 107.195 313.433 112.122 331.329 123.332C335.685 126.066 339.737 129.005 343.468 132.196L343.567 132.257C349.545 136.217 355.897 141.015 362.652 146.673C364.601 147.793 366.604 149.559 368.607 151.844C368.782 151.989 368.957 152.141 369.163 152.308C388.62 169.611 413.264 191.101 436.841 213.437C438.379 214.443 439.902 215.92 441.44 217.801C466.381 241.652 489.608 266.182 503.544 287.307C503.59 287.375 503.613 287.482 503.681 287.52C513.094 299.263 515.508 314.463 509.515 326.823C509.469 326.968 509.37 327.135 509.279 327.295C509.218 327.394 509.18 327.539 509.103 327.668C508.867 328.14 508.608 328.643 508.342 329.092L508.167 329.382C503.605 337.012 496.233 342.267 487.636 344.597C480.218 346.631 471.902 346.516 463.716 343.981C439.529 341.026 409.441 332.748 379.413 323.122C376.968 322.756 374.821 322.041 373.008 321.043C341.321 310.678 310.159 299.012 286.528 290.665C286.414 290.642 286.284 290.566 286.17 290.536C283.939 290.033 281.943 289.279 280.161 288.304C271.48 284.999 263.842 281.618 257.254 278.161C252.396 276.348 247.606 274.056 242.907 271.383C224.546 260.942 210.755 245.711 202.408 228.455L202.416 228.462Z" fill="#4898C7"/>
<path d="M187.916 338.954C187.931 338.901 187.946 338.847 187.992 338.771C189.043 336.662 189.873 334.408 190.414 332.138C198.212 308.325 196.293 281.481 183.073 258.101C182.699 257.401 182.326 256.7 181.915 256.015C181.511 255.329 181.07 254.674 180.628 254.012C166.311 231.287 143.594 216.864 118.928 212.439C116.674 211.845 114.298 211.503 111.945 211.434L111.747 211.411C91.4593 210.528 70.3342 215.744 51.3794 227.617C46.7645 230.511 42.477 233.625 38.5246 237.007L38.4256 237.067C32.0972 241.264 25.3728 246.343 18.2143 252.336C16.1506 253.524 14.0259 255.39 11.9088 257.812C11.726 257.972 11.5432 258.124 11.3224 258.299C-9.28488 276.622 -35.3905 299.384 -60.3538 323.038C-61.9835 324.104 -63.5903 325.665 -65.2276 327.66C-91.6455 352.921 -116.236 378.904 -131.009 401.278C-131.055 401.355 -131.086 401.461 -131.154 401.499C-141.123 413.935 -143.681 430.034 -137.338 443.133C-137.292 443.293 -137.186 443.46 -137.087 443.628C-137.026 443.727 -136.98 443.887 -136.896 444.024C-136.645 444.519 -136.371 445.052 -136.089 445.531L-135.906 445.836C-131.078 453.916 -123.272 459.483 -114.164 461.95C-106.305 464.105 -97.5017 463.976 -88.8278 461.303C-63.2172 458.173 -31.3391 449.408 0.45523 439.211C3.04447 438.822 5.32145 438.061 7.24053 437.01C40.8016 426.036 73.8068 413.676 98.831 404.835C98.9528 404.804 99.0899 404.728 99.2118 404.698C101.58 404.165 103.69 403.365 105.571 402.329C114.77 398.826 122.85 395.247 129.826 391.592C134.974 389.673 140.046 387.243 145.018 384.418C164.461 373.36 179.074 357.231 187.908 338.954H187.916Z" fill="#81B7DC"/>
<path d="M202.021 442.5C202.006 442.447 201.99 442.394 201.945 442.318C200.879 440.185 200.041 437.908 199.493 435.616C191.611 411.551 193.553 384.425 206.91 360.802C207.291 360.094 207.664 359.386 208.075 358.693C208.486 358 208.936 357.337 209.377 356.667C223.839 333.699 246.799 319.131 271.725 314.661C274.002 314.059 276.4 313.716 278.784 313.64L278.982 313.617C299.483 312.719 320.829 317.996 339.981 329.991C344.642 332.915 348.975 336.068 352.973 339.479L353.08 339.54C359.477 343.782 366.27 348.915 373.504 354.969C375.591 356.172 377.739 358.061 379.879 360.505C380.061 360.665 380.252 360.818 380.473 361C401.301 379.513 427.673 402.512 452.903 426.417C454.548 427.498 456.177 429.075 457.822 431.085C484.514 456.612 509.371 482.862 524.289 505.472C524.335 505.548 524.366 505.655 524.434 505.701C534.509 518.266 537.091 534.533 530.679 547.768C530.633 547.928 530.526 548.096 530.427 548.271C530.367 548.37 530.321 548.53 530.237 548.667C529.986 549.169 529.712 549.71 529.422 550.19L529.239 550.502C524.358 558.666 516.468 564.286 507.269 566.784C499.326 568.962 490.431 568.832 481.666 566.129C455.781 562.969 423.576 554.112 391.446 543.801C388.834 543.405 386.527 542.643 384.593 541.577C350.681 530.489 317.326 518 292.042 509.067C291.921 509.036 291.784 508.96 291.654 508.93C289.263 508.389 287.131 507.582 285.227 506.538C275.936 502.997 267.765 499.38 260.713 495.686C255.511 493.752 250.386 491.292 245.36 488.437C225.712 477.265 210.946 460.968 202.021 442.493V442.5Z" fill="#AAD5ED"/>
</g>
<path d="M332.953 163.716C333.883 164.188 334.02 165.048 334.05 165.977C334.172 169.519 333.418 172.915 332.26 176.213C329.42 184.3 324.424 190.674 316.794 194.756C312.087 197.277 307.792 198.335 303.017 199.104C294.663 200.46 288.777 200.498 277.399 200.749C274.718 200.81 270.857 200.902 266.09 201.031C263.196 201.115 261.209 198.153 262.382 195.502C262.389 195.48 262.404 195.449 262.412 195.426C265.664 188.032 266.715 183.173 269.136 175.451C271.627 167.478 272.921 163.525 274.003 161.53C279.067 152.201 287.375 147.434 297.131 144.517C304.236 142.393 311.394 142.278 318.301 144.845C323.785 146.886 327.859 150.8 330.037 156.412C331.666 160.616 330.524 164.538 328.552 168.224C321.629 181.193 310.884 189.044 296.346 191.382C290.894 192.258 285.312 192.266 279.821 192.959C276.295 193.401 272.837 194.36 269.365 195.137C269.053 195.205 268.824 195.624 268.55 195.883C268.923 196.035 269.327 196.371 269.669 196.31C272.015 195.906 274.322 195.228 276.676 194.992C280.674 194.596 284.695 194.429 288.708 194.238C296.925 193.842 304.891 192.38 312.08 188.184C318.918 184.193 324.569 179.129 328.582 172.656C328.872 172.192 330.128 168.871 332.413 164.683C332.649 164.256 332.839 163.906 332.953 163.7V163.716ZM317.86 173.76C317.738 173.677 317.624 173.585 317.502 173.501C317.007 173.867 316.474 174.194 316.017 174.606C315.141 175.405 314.364 176.319 313.443 177.065C308.173 181.315 302.103 184.049 295.729 186.181C295.272 186.333 294.93 186.813 294.526 187.133C295.052 187.308 295.562 187.567 296.103 187.643C296.483 187.697 296.902 187.521 297.306 187.422C303.116 185.991 308.409 183.424 313.184 179.876C314.76 178.703 315.963 177.02 317.25 175.497C317.616 175.055 317.662 174.347 317.86 173.76ZM289.835 153.778C291.899 153.062 293.917 152.407 295.874 151.615C296.194 151.485 296.559 150.571 296.407 150.328C296.141 149.894 295.478 149.437 294.998 149.452C294.123 149.49 293.193 149.726 292.417 150.13C291.312 150.701 290.3 151.47 289.302 152.232C289.089 152.399 288.997 152.909 289.066 153.206C289.119 153.427 289.523 153.564 289.827 153.778H289.835ZM284.969 171.263C284.679 170.927 284.405 170.303 284.032 170.234C283.568 170.151 282.768 170.372 282.562 170.729C281.725 172.154 280.986 173.646 280.377 175.184C280.217 175.588 280.681 176.228 280.864 176.761C281.351 176.51 282.014 176.38 282.303 175.984C283.134 174.834 283.826 173.578 284.55 172.344C284.71 172.07 284.786 171.75 284.976 171.255L284.969 171.263ZM289.013 160.213C289.028 158.956 287.901 158.225 287.139 158.948C285.829 160.182 284.748 161.667 283.682 163.137C283.499 163.388 283.728 164.264 284.025 164.462C284.306 164.645 285.053 164.447 285.372 164.165C286.446 163.228 287.444 162.193 288.434 161.157C288.731 160.852 288.891 160.418 289.013 160.22V160.213ZM275.206 168.856C275.579 169.275 275.815 169.77 276.143 169.846C276.478 169.922 277.11 169.679 277.247 169.397C278.008 167.874 278.747 166.32 279.295 164.706C279.432 164.294 278.975 163.434 278.557 163.167C278.29 163 277.27 163.403 277.102 163.777C276.379 165.399 275.846 167.097 275.206 168.856ZM273.462 182.213C273.812 182.64 274.079 183.272 274.49 183.386C274.833 183.485 275.587 183.089 275.747 182.724C276.31 181.467 276.79 180.157 277.087 178.817C277.178 178.413 276.676 177.56 276.28 177.446C275.884 177.324 275.015 177.736 274.833 178.132C274.269 179.381 273.934 180.736 273.454 182.213H273.462Z" fill="white"/>
<path d="M237.479 208.921C237.448 203.849 241.134 199.645 246.176 198.945C251.095 198.267 255.923 201.481 257.233 206.324C257.812 208.456 257.172 210.413 256.091 212.188C253.654 216.163 249.9 217.983 245.353 217.968C241.127 217.953 237.784 214.427 237.479 210.033C237.456 209.667 237.479 209.294 237.479 208.928V208.921Z" fill="white"/>
<path d="M70.4651 102.519H78.9258V103.539H69.8787C69.1705 104.659 68.3023 105.649 67.4113 106.357C67.2285 106.09 66.7564 105.55 66.4746 105.298C67.7692 104.362 68.942 102.854 69.6046 101.277L70.8916 101.65C70.7621 101.94 70.625 102.237 70.4727 102.519H70.4651ZM67.5941 114.185C67.3961 113.896 67.0229 113.462 66.7564 113.234C67.7921 112.784 68.9039 111.863 69.4903 110.987L70.4651 111.36C69.8254 112.449 68.6679 113.591 67.5865 114.178L67.5941 114.185ZM73.4579 109.639H75.4684V110.66H71.9806V114.201H70.7392V110.66H67.0991V109.639H70.7392V107.339H71.9806V109.639H73.4199L72.5974 109.289C72.9858 108.786 73.4808 108.002 73.7397 107.461L74.9125 107.834C74.4099 108.489 73.8768 109.175 73.4579 109.631V109.639ZM70.0082 109.121L68.9496 109.555C68.7973 109.083 68.3785 108.352 67.9748 107.842L68.9649 107.438C69.3989 107.941 69.8483 108.641 70.0158 109.129L70.0082 109.121ZM78.2404 112.906C78.4917 112.906 78.5603 112.099 78.5755 110.896C78.842 111.2 79.1923 111.535 79.4513 111.718C79.3523 113.531 79.0857 114.216 78.1414 114.216C76.1309 114.216 75.8644 111.368 75.8263 107.042H67.9977V106.022H77.1514C77.121 110.126 77.2504 112.898 78.2404 112.898V112.906ZM77.7987 105.268H69.5208V104.278H77.7987V105.268ZM75.7426 113.127L74.9353 113.934C74.3946 113.317 73.2599 112.358 72.3689 111.688L73.1381 110.979C74.0139 111.596 75.179 112.518 75.7502 113.127H75.7426Z" fill="white"/>
<path d="M92.6568 107.948H90.9662V108.382H93.8829V109.083H90.9662V109.487H93.5478V110.141H90.9662V110.598H94.5835V111.322H93.0909L93.7915 111.809C93.2204 112.114 92.4969 112.396 91.8344 112.616C92.7025 112.898 93.7078 113.073 94.7892 113.172C94.5683 113.393 94.317 113.789 94.1875 114.048C91.5754 113.728 89.4812 112.86 88.3161 111.314C87.7297 111.649 86.991 111.954 86.1837 112.205V112.997L89.0167 112.525C89.0014 112.792 89.0014 113.18 89.0319 113.393C85.5821 114.018 85.1252 114.147 84.8282 114.299C84.7749 114.048 84.5769 113.66 84.4398 113.492C84.6759 113.393 84.9957 113.203 84.9957 112.639V112.525C84.1276 112.731 83.2366 112.891 82.3837 112.982C82.2694 112.746 82.0181 112.411 81.8125 112.198C83.3584 112.061 85.0947 111.748 86.4046 111.307H82.0943V110.583H85.6354V110.126H83.1757V109.471H85.6354V109.068H82.9015V108.367H85.6354V107.933H83.9448V106.273H87.8972V107.933H86.9377V108.367H89.6868V107.933H88.6511V106.273H92.6568V107.933V107.948ZM94.4845 106.913H93.2737V105.892H83.3508V106.913H82.1933V105.222H87.6535V104.803H83.7468V103.097H87.6535V102.694H82.5055V101.924H87.6535V101.27H88.9634V101.924H94.1723V102.694H88.9634V103.097H93.1366V104.803H88.9634V105.222H94.4921V106.913H94.4845ZM87.6459 104.209V103.722H84.9424V104.209H87.6459ZM86.8234 107.377V106.859H84.9805V107.377H86.8234ZM89.6868 109.487V109.083H86.9377V109.487H89.6868ZM89.6868 110.598V110.141H86.9377V110.598H89.6868ZM88.9558 104.209H91.8724V103.722H88.9558V104.209ZM90.7911 112.205C91.4765 111.954 92.2532 111.604 92.8015 111.329H89.466C89.8315 111.68 90.2732 111.969 90.7911 112.205ZM91.5831 107.377V106.859H89.6868V107.377H91.5831Z" fill="white"/>
<path d="M109.783 104.347H102.571C101.886 105.283 101.193 106.159 100.492 106.913L106.41 106.677C105.907 106.159 105.374 105.656 104.871 105.222L105.96 104.605C107.171 105.595 108.626 107.02 109.296 108.025L108.108 108.748C107.94 108.466 107.704 108.147 107.438 107.812L105.93 107.895V112.168C105.93 112.655 106.014 112.723 106.562 112.723H108.306C108.824 112.723 108.923 112.404 108.976 110.53C109.265 110.766 109.829 110.98 110.187 111.071C110.05 113.302 109.699 113.919 108.397 113.919H106.372C104.947 113.919 104.559 113.515 104.559 112.175V107.964L102.701 108.048C102.45 111.048 101.726 113.074 98.1926 114.148C98.0403 113.812 97.69 113.295 97.4082 113.028C100.546 112.16 101.109 110.561 101.315 108.131C99.571 108.23 99.1369 108.284 98.7866 108.413C98.7181 108.131 98.482 107.438 98.3144 107.058C98.68 106.974 99.0227 106.624 99.5253 106.037C99.7766 105.771 100.294 105.146 100.866 104.331H97.5833V103.075H101.711C102.076 102.488 102.45 101.864 102.754 101.247L104.262 101.719C103.996 102.176 103.706 102.625 103.409 103.075H109.76V104.331L109.783 104.347Z" fill="white"/>
<path d="M116.524 102.519H124.984V103.539H115.937C115.229 104.659 114.361 105.649 113.47 106.357C113.287 106.09 112.815 105.55 112.533 105.298C113.828 104.362 115.001 102.854 115.663 101.277L116.95 101.65C116.821 101.94 116.684 102.237 116.531 102.519H116.524ZM113.645 114.185C113.447 113.896 113.074 113.462 112.807 113.234C113.843 112.784 114.955 111.863 115.541 110.987L116.516 111.36C115.876 112.449 114.719 113.591 113.637 114.178L113.645 114.185ZM119.509 109.639H121.519V110.66H118.032V114.201H116.79V110.66H113.15V109.639H116.79V107.339H118.032V109.639H119.471L118.648 109.289C119.037 108.786 119.532 108.002 119.791 107.461L120.963 107.834C120.461 108.489 119.928 109.175 119.509 109.631V109.639ZM116.059 109.121L115.001 109.555C114.848 109.083 114.429 108.352 114.026 107.842L115.016 107.438C115.45 107.941 115.899 108.641 116.067 109.129L116.059 109.121ZM124.291 112.906C124.543 112.906 124.611 112.099 124.626 110.896C124.893 111.2 125.243 111.535 125.502 111.718C125.403 113.531 125.137 114.216 124.192 114.216C122.182 114.216 121.915 111.368 121.877 107.042H114.049V106.022H123.202C123.172 110.126 123.301 112.898 124.291 112.898V112.906ZM123.85 105.268H115.572V104.278H123.85V105.268ZM121.794 113.127L120.986 113.934C120.446 113.317 119.311 112.358 118.42 111.688L119.189 110.979C120.065 111.596 121.23 112.518 121.801 113.127H121.794Z" fill="white"/>
<path d="M35.2905 121.938H39.8369V123.248H35.2905V125.38H40.8345V126.69H35.9759C37.2324 128.381 39.2734 130.01 41.1772 130.833C40.8574 131.099 40.4385 131.625 40.2177 131.975C38.4433 131.069 36.6308 129.492 35.2905 127.749V132.676H33.8969V127.817C32.5718 129.531 30.7593 131.054 29.0002 131.975C28.7641 131.64 28.33 131.107 28.0254 130.848C29.9521 130.01 31.9778 128.388 33.2191 126.69H28.4443V125.38H33.9045V123.248H29.4647V121.938H33.9045V119.729H35.2981V121.938H35.2905Z" fill="white"/>
<path d="M53.7198 124.915C54.5728 125.585 55.5932 126.408 56.1339 126.956L55.2277 127.862C54.7784 127.39 53.9559 126.659 53.1868 126.019C52.8669 126.575 52.5014 127.063 52.0978 127.474C51.8617 127.291 51.3591 126.971 51.0392 126.804C52.3262 128.563 54.39 130.139 56.4995 130.924C56.1644 131.221 55.7303 131.761 55.5095 132.127C53.697 131.305 51.9379 129.88 50.6128 128.205V132.698H49.2192V128.243C47.8789 129.903 46.1502 131.289 44.3605 132.112C44.1473 131.777 43.7284 131.259 43.4238 130.985C45.7008 130.078 47.9626 128.22 49.2115 126.24V122.905H43.9493V121.61H49.2115V119.752H50.6051V121.61H56.0349V122.905H50.6051V126.172L50.9935 126.758C51.9683 125.92 52.6156 124.611 52.905 123.118L54.192 123.354C54.0626 123.91 53.9102 124.443 53.7198 124.93V124.915ZM47.0792 124.953C47.6352 125.425 48.2215 125.959 48.5566 126.347L47.6656 127.268C47.4143 126.949 46.9802 126.499 46.5385 126.065C46.0664 126.903 45.48 127.603 44.8251 128.144C44.6042 127.908 44.1016 127.474 43.8046 127.276C45.0611 126.355 45.9293 124.862 46.3329 123.088L47.6199 123.339C47.4828 123.895 47.3001 124.428 47.0868 124.946L47.0792 124.953Z" fill="white"/>
<path d="M67.2894 121.915H71.3788V122.539C71.1656 128.905 70.9981 131.091 70.4269 131.792C70.0766 132.264 69.7263 132.393 69.2008 132.462C68.7134 132.515 67.8757 132.5 67.0761 132.462C67.0457 132.096 66.8781 131.54 66.6268 131.175C67.5331 131.259 68.3707 131.259 68.7211 131.259C69.0028 131.259 69.1551 131.221 69.3227 131.038C69.7568 130.566 69.9548 128.441 70.1147 123.125H66.8096C66.4212 124.032 65.9871 124.839 65.5226 125.486C65.3017 125.288 64.7991 124.953 64.4869 124.763V131.236H60.664V132.31H59.4531V121.983H61.0447C61.2275 121.298 61.4331 120.391 61.5169 119.706L62.9562 119.942C62.7353 120.643 62.4688 121.381 62.2327 121.983H64.4945V124.633C65.4312 123.422 66.1699 121.549 66.604 119.706L67.8758 119.995C67.7082 120.635 67.5102 121.282 67.2894 121.907V121.915ZM60.6716 125.806H63.2837V123.156H60.6716V125.806ZM63.2837 130.048V126.948H60.6716V130.048H63.2837ZM69.0866 128.273L67.9671 128.974C67.5788 128.121 66.6725 126.743 65.9262 125.722L66.9619 125.136C67.7006 126.111 68.6525 127.451 69.0866 128.273Z" fill="white"/>
<path d="M79.2772 123.781C80.7012 122.806 82.2243 121.2 83.0696 119.593L84.0215 120.027L83.755 120.499C84.9125 121.877 86.1386 122.913 87.3571 123.766C87.0525 124.017 86.6717 124.451 86.4889 124.809C86.1386 124.528 85.8035 124.238 85.4685 123.934V124.604H80.9221V124.048C80.6022 124.352 80.2671 124.634 79.9473 124.885C79.795 124.634 79.5285 124.314 79.2772 124.048V128.305H77.5332V129.28H79.498V130.407H77.5332V132.668H76.3604V130.407H74.2129V129.28H76.3604V128.305H74.6165V123.225H76.3604V122.273H74.35V121.146H76.3604V119.737H77.5332V121.146H79.5132V122.273H77.5332V123.225H79.2772V123.781ZM76.4823 125.304V124.177H75.5913V125.304H76.4823ZM76.4823 127.338V126.211H75.5913V127.338H76.4823ZM77.4037 125.304H78.2719V124.177H77.4037V125.304ZM77.4037 127.338H78.2719V126.211H77.4037V127.338ZM86.2148 132.425C85.933 132.623 85.5979 132.646 85.0877 132.646C85.0572 132.326 84.9049 131.838 84.7679 131.526C85.0496 131.541 85.2857 131.541 85.3923 131.541C85.4761 131.526 85.5065 131.503 85.5065 131.374V129.516H84.6308V132.432H83.6789V129.516H82.8031V132.432H81.8511V129.516H80.9449V132.653H79.9092V125.647H86.5651V131.412C86.5651 131.884 86.4965 132.219 86.2148 132.417V132.425ZM81.8435 128.442V126.736H80.9373V128.442H81.8435ZM85.0115 123.507C84.3947 122.905 83.7855 122.235 83.1534 121.459C82.6355 122.197 82.0644 122.898 81.478 123.507H85.0115ZM82.7955 128.442H83.6712V126.736H82.7955V128.442ZM84.6232 126.744V128.449H85.4989V126.744H84.6232Z" fill="white"/>
<path d="M97.2638 120.864H102.328V121.983H91.6969V125.151C91.6969 127.345 91.5294 130.612 90.4404 132.729C90.2348 132.508 89.7017 132.104 89.4199 131.975C90.3947 130.01 90.4785 127.185 90.4785 125.151V120.864H95.7788C95.6493 120.575 95.5122 120.262 95.3752 120.011L96.6622 119.646C96.883 120.011 97.1191 120.483 97.2638 120.856V120.864ZM96.7612 127.482L97.4161 128.053C96.8754 128.51 96.1748 128.944 95.459 129.294V129.462L97.6903 129.332V130.254L95.459 130.406V131.51C95.459 132.028 95.36 132.279 94.9563 132.432C94.5679 132.569 93.9968 132.569 93.1286 132.569C93.0905 132.272 92.9306 131.914 92.8088 131.647C93.3799 131.663 93.9511 131.663 94.111 131.647C94.2786 131.647 94.3166 131.602 94.3166 131.465V130.475L91.8873 130.627L91.7883 129.622L94.3166 129.507V129.005C94.667 128.837 95.0401 128.632 95.3752 128.388H92.3899V127.52H96.4946L96.7612 127.467V127.482ZM95.6874 123.156H97.5989V124.108H92.131V123.156H94.2786C94.1643 122.874 94.0425 122.6 93.8978 122.364L95.1086 122.014C95.3142 122.349 95.5579 122.798 95.6798 123.156H95.6874ZM97.1343 126.964H92.6565V124.649H97.1343V126.964ZM96.0758 126.24V125.388H93.6617V126.24H96.0758ZM101.544 122.722L102.419 123.179C102.016 124.215 101.498 125.395 101.041 126.385C102.031 127.406 102.282 128.312 102.298 129.066C102.298 129.858 102.115 130.421 101.673 130.741C101.46 130.893 101.201 130.977 100.889 131.023C100.599 131.061 100.219 131.061 99.853 131.038C99.8378 130.718 99.7159 130.216 99.5332 129.896C99.853 129.926 100.135 129.934 100.356 129.926C100.523 129.926 100.676 129.888 100.79 129.812C101.003 129.675 101.079 129.363 101.079 128.974C101.079 128.319 100.813 127.497 99.8378 126.53C100.203 125.677 100.576 124.656 100.873 123.834H99.2286V132.714H98.071V122.76H101.338L101.551 122.722H101.544Z" fill="white"/>
<path d="M105.802 126.431L104.781 126.081C105.132 125.144 105.383 123.598 105.482 122.456L106.472 122.593C106.403 123.766 106.152 125.388 105.802 126.431ZM109.891 124.634L108.939 125.083C108.787 124.428 108.406 123.339 108.033 122.501V132.676H106.746V119.737H108.033V122.387L108.871 122.037C109.29 122.875 109.724 123.979 109.891 124.634ZM115.953 127.817V124.847H111.323V127.764C111.323 129.325 111.193 131.419 110.401 132.775C110.181 132.554 109.647 132.158 109.366 132.021C110.051 130.81 110.104 129.119 110.104 127.749V123.689H113.105V119.729H114.377V123.689H117.194V131.183C117.194 131.823 117.065 132.204 116.608 132.409C116.159 132.615 115.45 132.615 114.4 132.615C114.354 132.28 114.186 131.724 114.019 131.389C114.742 131.419 115.443 131.419 115.664 131.404C115.877 131.404 115.945 131.335 115.945 131.153V128.906C114.491 129.279 112.998 129.66 111.825 129.942L111.407 128.822C112.579 128.586 114.285 128.221 115.945 127.817H115.953ZM112.29 122.722L111.163 123.293C110.965 122.585 110.409 121.481 109.868 120.666L110.927 120.164C111.498 120.948 112.069 122.006 112.298 122.715L112.29 122.722ZM115.603 126.766L115.047 127.688C114.293 127.269 112.815 126.713 111.658 126.446L112.191 125.624C113.333 125.86 114.826 126.347 115.61 126.766H115.603ZM116.242 123.195L115.138 122.745C115.603 122.037 116.174 120.917 116.478 120.08L117.689 120.537C117.24 121.489 116.699 122.494 116.235 123.187L116.242 123.195Z" fill="white"/>
<path d="M121.458 132.713L120.217 132.195C120.818 131.541 121.542 130.452 122.006 129.484L123.248 129.804C122.776 130.794 122.075 131.952 121.458 132.706V132.713ZM123.903 120.948H126.081L126.317 120.894L127.124 121.214C126.286 125.403 124.154 127.9 121.39 129.142C121.222 128.852 120.765 128.334 120.483 128.121C122.143 127.436 123.552 126.324 124.527 124.702C124.04 124.215 123.301 123.613 122.616 123.141C122.075 123.895 121.458 124.58 120.788 125.121C120.674 124.816 120.415 124.253 120.247 123.978C121.534 122.905 122.593 121.1 123.111 119.6L124.337 119.965C124.207 120.3 124.055 120.62 123.903 120.955V120.948ZM123.43 124.755L123.56 125.593C122.608 125.928 121.687 126.233 120.849 126.514L120.559 125.479C121.313 125.311 122.349 125.045 123.438 124.755H123.43ZM125.03 123.765C125.281 123.225 125.479 122.638 125.647 122.006H123.347L123.141 122.341C123.796 122.76 124.52 123.293 125.037 123.765H125.03ZM125.997 132.378L124.702 132.576C124.702 131.906 124.603 130.802 124.436 129.949L125.647 129.812C125.829 130.65 125.982 131.739 125.997 132.378ZM130.155 122.592H133.056V123.849H130.543C131.594 125.387 132.676 127.253 133.178 128.479L131.99 129.035C131.571 127.931 130.68 126.255 129.759 124.809C129.287 126.354 128.32 127.977 126.37 129.302C126.149 129.05 125.715 128.677 125.38 128.449C127.444 127.055 128.327 125.364 128.685 123.841H126.789V122.585H128.883C128.914 122.219 128.929 121.884 128.929 121.564V119.904H130.185V121.595C130.185 121.899 130.17 122.235 130.155 122.585V122.592ZM129.371 132.279L128.076 132.546C127.962 131.876 127.627 130.756 127.292 129.918L128.502 129.698C128.868 130.52 129.241 131.594 129.371 132.279ZM133.155 132.157L131.914 132.713C131.609 131.959 130.825 130.756 130.155 129.865L131.328 129.378C131.998 130.215 132.805 131.388 133.155 132.157ZM132.805 121.816L131.785 122.417C131.533 121.899 130.932 121.092 130.414 120.521L131.366 119.98C131.899 120.536 132.523 121.305 132.805 121.823V121.816Z" fill="white"/>
<path d="M143.916 121.983H146.611C146.071 121.526 145.157 120.909 144.418 120.506L145.225 119.714C146.048 120.133 147.106 120.788 147.64 121.26L146.954 121.983H148.409V123.278H143.999C144.129 124.938 144.365 126.461 144.67 127.718C145.34 126.682 145.88 125.509 146.276 124.215L147.601 124.534C147 126.362 146.193 127.969 145.157 129.325C145.614 130.535 146.177 131.251 146.779 131.251C147.145 131.251 147.32 130.528 147.396 128.723C147.7 129.02 148.18 129.325 148.538 129.446C148.317 131.944 147.838 132.599 146.68 132.599C145.637 132.599 144.807 131.807 144.182 130.49C143.39 131.312 142.507 132.028 141.532 132.614C141.334 132.333 140.862 131.792 140.572 131.525C141.745 130.901 142.781 130.086 143.641 129.096C143.139 127.489 142.804 125.471 142.636 123.278H138.128V124.969H141.669C141.669 124.969 141.669 125.334 141.654 125.502C141.601 128.555 141.517 129.759 141.22 130.162C140.968 130.467 140.702 130.581 140.314 130.619C139.948 130.672 139.324 130.672 138.653 130.65C138.638 130.261 138.486 129.743 138.288 129.408C138.874 129.462 139.415 129.462 139.659 129.462C139.857 129.462 139.978 129.446 140.093 129.325C140.245 129.104 140.329 128.304 140.374 126.187H138.128C138.113 128.213 137.877 131.03 136.651 132.812C136.414 132.561 135.828 132.089 135.523 131.921C136.651 130.231 136.75 127.801 136.75 125.974V121.983H142.552C142.522 121.245 142.499 120.506 142.499 119.752H143.878C143.878 120.506 143.893 121.26 143.923 121.983H143.916Z" fill="white"/>
<path d="M158.621 126.393H157.181V132.675H155.879V126.393H153.914C153.861 128.708 153.48 131 151.82 132.782C151.607 132.5 151.135 132.074 150.83 131.891C152.269 130.33 152.604 128.373 152.673 126.393H150.944V125.167H152.688V121.801H151.18V120.574H158.438V121.801H157.181V125.167H158.621V126.393ZM153.937 121.801V125.167H155.894V121.801H153.937ZM158.75 132.66C158.544 132.34 158.164 131.891 157.813 131.617C159.809 130.764 161.72 129.286 162.725 127.558L163.982 128.045C162.794 130.01 160.867 131.662 158.75 132.668V132.66ZM159.321 123.826C159.1 123.529 158.72 123.141 158.385 122.89C159.694 122.235 161.263 121.077 162.086 119.942L163.342 120.46C162.299 121.77 160.745 123.027 159.321 123.826ZM159.474 127.885C159.268 127.588 158.872 127.2 158.537 126.949C159.915 126.24 161.568 124.991 162.444 123.796L163.647 124.298C162.588 125.692 160.951 127.017 159.474 127.885Z" fill="white"/>
<path d="M70.5565 79.33C71.1733 79.0025 71.7597 78.6218 72.3994 78.3628C77.5931 76.2382 81.3018 72.3848 84.5155 67.9831C86.8229 64.8227 88.8867 61.4871 91.316 58.4257C96.3651 52.0745 102.678 47.2844 110.476 44.8703C117.262 42.7685 124.199 42.6161 130.893 45.3958C135.501 47.3072 139.103 50.4524 141.022 55.2044C142.431 58.7075 143.573 62.2487 143.52 66.1173C143.459 70.4504 141.463 73.5499 137.938 75.8193C133.559 78.637 128.715 80.3429 123.651 81.31C120.178 81.9725 116.645 82.4752 113.119 82.6122C104.323 82.9397 95.535 82.5665 86.7772 81.6984C81.7511 81.1958 76.7402 80.4799 71.7216 79.8555C71.3332 79.8098 70.9524 79.6803 70.5717 79.5889C70.5641 79.4975 70.5564 79.4062 70.5488 79.3148L70.5565 79.33Z" fill="white"/>
<path d="M56.6046 89.1226C55.6222 88.9855 54.617 88.9322 53.6574 88.6885C49.3243 87.5995 47.4509 83.9365 49.0273 79.7404C50.558 75.6738 54.7845 73.3892 59.3157 74.1812C63.329 74.8818 66.5655 78.7733 66.5275 82.9389C66.5122 85.1093 65.3547 86.6552 63.4889 87.5767C61.3414 88.6352 59.0035 88.9931 56.597 89.1302L56.6046 89.1226Z" fill="white"/>
<path d="M93.8742 339.098L94.7499 339.418C94.0798 343.142 92.5034 345.853 90.5386 347.277C90.3178 346.973 89.7847 346.47 89.4648 346.257C91.1707 345.13 92.511 343.104 93.1507 340.477H89.9446V339.136H93.6457L93.8818 339.098H93.8742ZM98.352 342.122C99.4791 343.797 100.964 345.206 102.693 345.99C102.373 346.272 101.924 346.813 101.703 347.201C99.6086 346.097 97.9484 344.102 96.7452 341.733V346.858C96.7452 347.666 96.5776 348.084 96.0903 348.313C95.6181 348.564 94.8642 348.602 93.7599 348.602C93.6914 348.214 93.4629 347.544 93.2573 347.148C94.0493 347.178 94.7956 347.178 95.0317 347.163C95.2525 347.163 95.3516 347.094 95.3516 346.858V335.648H96.7452V339.014C97.0117 339.738 97.3468 340.439 97.72 341.124C98.6262 340.271 99.6771 339.113 100.317 338.192L101.528 339.03C100.568 340.103 99.3344 341.322 98.3444 342.129L98.352 342.122Z" fill="white"/>
<path d="M54.0845 359.424L53.3001 360.482C52.8279 360.048 51.8379 359.424 51.084 359.02L51.8227 358.068C52.5614 358.419 53.5666 359.02 54.0845 359.424ZM53.361 361.518L54.3662 362.241C53.8331 363.681 53.1249 365.341 52.4928 366.651L51.3658 365.912C51.9521 364.854 52.7594 363.079 53.361 361.518ZM54.9374 355.685L54.1301 356.728C53.6275 356.279 52.6223 355.601 51.8531 355.151L52.6375 354.23C53.3762 354.634 54.4271 355.266 54.9374 355.685ZM64.1749 366.483L63.1011 366.887C63.0326 366.567 62.9335 366.179 62.8117 365.767C60.0321 366.201 59.6056 366.3 59.3391 366.453C59.2705 366.217 59.0725 365.646 58.9355 365.333C59.2553 365.25 59.5371 364.861 59.9559 364.244C60.1768 363.924 60.7099 363.072 61.281 361.998C59.7427 362.165 59.4076 362.249 59.202 362.348C59.1487 362.097 58.9659 361.541 58.8212 361.244C59.0269 361.206 59.2249 360.954 59.4381 360.574C59.6437 360.239 60.2758 358.982 60.6261 357.726H56.5823L57.222 357.977C56.8412 359.051 56.2853 360.185 55.7294 361.076L57.1001 360.962C57.4048 360.391 57.6865 359.774 57.9226 359.172L59.0268 359.713C58.1206 361.64 56.9631 363.582 55.7903 365.112L57.618 364.861C57.4886 364.389 57.3515 363.924 57.1992 363.506L58.1892 363.224C58.5776 364.267 58.9431 365.638 59.0573 366.544L58.0216 366.849C57.9836 366.552 57.9226 366.194 57.8388 365.813C55.143 366.247 54.7089 366.354 54.4348 366.498C54.3814 366.262 54.1835 365.676 54.0464 365.371C54.351 365.303 54.6785 364.899 55.1202 364.298C55.3715 363.963 55.9426 363.11 56.5442 362.021C55.1049 362.173 54.7698 362.257 54.5795 362.356C54.5261 362.104 54.3434 361.548 54.2063 361.251C54.4119 361.198 54.6099 360.947 54.8308 360.566C55.0288 360.231 55.6685 358.959 56.0416 357.703H54.5033V356.499H57.3362C57.0849 355.928 56.628 355.106 56.232 354.519L57.3362 354.062C57.8084 354.717 58.311 355.57 58.5623 356.157L57.7932 356.507H60.3215C60.6946 355.799 61.1135 354.816 61.3267 354.078L62.667 354.466C62.3319 355.136 61.9436 355.89 61.5933 356.507H63.9921V357.71H61.1896L61.8293 357.962C61.4409 359.02 60.9079 360.14 60.3672 361.031L61.8217 360.916C62.073 360.376 62.3243 359.789 62.5299 359.226L63.6494 359.744C62.8117 361.602 61.7379 363.513 60.6489 365.036L62.5071 364.785C62.3243 364.328 62.1416 363.848 61.9512 363.429L62.9412 363.079C63.4743 364.138 63.9845 365.539 64.1977 366.453L64.1749 366.483Z" fill="white"/>
<path d="M76.6937 365.494C77.4628 365.76 78.1711 365.996 78.6889 366.202L78.1482 367.108C76.8917 366.605 74.4776 365.753 72.6651 365.212C72.6803 365.501 72.7032 365.852 72.7489 366.065C69.6951 366.773 69.261 366.918 68.964 367.085C68.8803 366.781 68.6137 366.248 68.4234 366.011C68.6747 365.874 68.9793 365.593 68.9793 364.991V361.625C68.4386 362.013 67.8598 362.348 67.2886 362.63C67.0906 362.379 66.649 361.892 66.3672 361.671C67.677 361.138 68.9336 360.315 69.8017 359.31H66.8165V358.388H72.2843V357.764H68.2939V356.926H72.2843V356.355H67.578V355.449H70.0226C69.8398 355.129 69.6037 354.763 69.4057 354.489L70.5785 354.101C70.9136 354.52 71.2791 355.076 71.4847 355.457H74.5537C74.8203 355.038 75.1249 354.482 75.2772 354.078L76.7165 354.398C76.4652 354.771 76.1834 355.152 75.9474 355.457H78.3767V356.363H73.6323V356.934H77.6684V357.772H73.6323V358.396H79.1611V359.318H76.1149C76.983 360.239 78.2396 361.023 79.5647 361.412C79.2753 361.648 78.8945 362.112 78.7117 362.447C78.0035 362.181 77.3181 361.808 76.686 361.343V364.427H73.1525C73.8607 364.625 74.6984 364.877 75.5285 365.128C76.3357 364.755 77.2877 364.222 77.8741 363.833L78.7117 364.519C78.0949 364.884 77.3714 365.219 76.686 365.509L76.6937 365.494ZM71.3172 359.31C70.8527 359.965 70.2815 360.566 69.657 361.1H76.3814C75.7265 360.582 75.1554 359.972 74.6908 359.31H71.3172ZM75.3686 361.853H70.411V362.409H75.3686V361.853ZM70.411 363.08V363.666H75.3686V363.08H70.411ZM70.411 365.539L72.6423 365.082L73.0916 364.427H70.411V365.547V365.539ZM75.0031 360.528H70.9593V359.828H75.0031V360.528Z" fill="white"/>
<path d="M87.0366 355.502H91.8953L92.1161 355.434L93.0376 356.051C92.2304 357.338 91.0576 358.434 89.6868 359.356C91.2632 360.14 93.0757 360.734 94.9643 361.069C94.6749 361.358 94.2941 361.937 94.1114 362.295C92.0628 361.861 90.1057 361.122 88.4151 360.117C86.534 361.153 84.3941 361.907 82.376 362.364C82.2466 361.998 81.9572 361.457 81.7363 361.176C83.5488 360.825 85.4907 360.186 87.2042 359.317C86.4503 358.784 85.7649 358.19 85.1785 357.528C84.4931 358.152 83.7696 358.701 83.0538 359.15C82.833 358.899 82.3532 358.396 82.0638 358.175C83.8382 357.223 85.5364 355.662 86.5188 353.964L87.7753 354.398C87.5545 354.771 87.3032 355.137 87.0366 355.502ZM92.5426 367.047H91.149V366.506H85.4831V367.093H84.1428V361.945H92.5426V367.055V367.047ZM91.149 365.326V363.148H85.4831V365.326H91.149ZM88.4303 358.655C89.3898 358.053 90.2427 357.383 90.9129 356.645H86.0695L86.0162 356.698C86.6711 357.406 87.4936 358.069 88.4303 358.655Z" fill="white"/>
<path d="M98.9919 362.706V358.647H97.3851V357.406H98.9919V354.268H100.233V357.406H101.642V358.647H100.233V362.188L101.627 361.602L101.916 362.775C100.439 363.475 98.8701 364.214 97.6288 364.755L97.0957 363.445C97.6136 363.247 98.2685 362.995 98.9767 362.706H98.9919ZM104.947 365.562H108.031C108.816 365.562 108.968 365.211 109.067 363.681C109.372 363.886 109.874 364.1 110.24 364.168C110.057 366.11 109.654 366.75 108.115 366.75H104.863C103.135 366.75 102.632 366.316 102.632 364.617V360.558L101.68 360.962L101.178 359.789L102.632 359.172V355.418H103.904V358.632L105.465 357.977V354.101H106.706V357.451L108.58 356.659V356.675L109.585 356.994L109.516 357.2C109.417 359.157 109.197 361.739 108.846 363.369L107.772 363.064C107.97 361.853 108.123 359.896 108.207 358.167L106.714 358.807V363.871H105.473V359.332L103.911 360.003V364.633C103.911 365.425 104.049 365.569 104.955 365.569L104.947 365.562Z" fill="white"/>
<path d="M118.373 358.671H125.242V359.828H117.703C117.352 360.369 116.979 360.902 116.56 361.405H118.875V360.118H120.162V361.405H124.138V364.839C124.138 365.464 124.008 365.791 123.551 365.981C123.094 366.164 122.424 366.179 121.404 366.179C121.35 365.814 121.168 365.357 121 365.037C121.701 365.052 122.371 365.052 122.561 365.052C122.752 365.052 122.813 365.014 122.813 364.831V362.585H120.162V367.048H118.875V362.585H116.461V366.286H115.152V362.836C114.596 363.308 113.994 363.727 113.354 364.093C113.156 363.811 112.753 363.339 112.479 363.103C113.986 362.318 115.228 361.146 116.164 359.836H112.844V358.678H116.888C117.109 358.275 117.307 357.871 117.474 357.467C116.347 357.772 115.228 358.054 114.169 358.259C113.956 357.97 113.552 357.406 113.278 357.155C114.771 356.919 116.324 356.584 117.786 356.165C116.545 355.762 115.304 355.381 114.184 355.091L115.091 354.299C116.446 354.634 118.038 355.091 119.553 355.594C120.779 355.145 121.868 354.634 122.706 354.056L123.81 354.779C123.056 355.282 122.181 355.739 121.229 356.15C122.386 356.569 123.46 357.003 124.275 357.376L123.254 358.328C122.348 357.871 121.038 357.323 119.584 356.79L118.312 357.208L118.967 357.391C118.784 357.825 118.586 358.259 118.38 358.678L118.373 358.671Z" fill="white"/>
<path d="M130.657 359.302H132.781C133.116 359.302 133.604 359.272 133.885 359.218C133.901 359.538 133.939 360.041 134 360.338C133.764 360.406 133.276 360.422 132.812 360.422H130.679C129.339 360.422 129.004 359.972 129.004 358.716V356.69H127.801V355.563H130.702C130.565 355.175 130.398 354.74 130.23 354.39L131.403 354.07C131.639 354.527 131.89 355.106 132.058 355.563H134.434V356.69H130.222V358.731C130.222 359.165 130.291 359.302 130.672 359.302H130.657ZM135.028 362.31V363.414H139.871V364.473H135.028V365.577H140.678V366.681H128.075V365.577H133.695V364.473H128.981V363.414H133.695V362.379C132.187 362.447 130.641 362.478 129.232 362.478C129.232 362.158 129.095 361.693 128.981 361.419C132.515 361.381 136.756 361.168 139.254 360.749L139.841 361.823C138.5 362.044 136.81 362.211 135.028 362.31ZM137.259 355.045H139.924L140.161 355.007L140.953 355.289C140.077 358.708 137.8 360.338 134.837 361.122C134.7 360.818 134.434 360.353 134.213 360.117C135.005 359.949 135.751 359.683 136.429 359.333C136.01 358.929 135.409 358.411 134.853 357.954C134.655 358.122 134.449 358.289 134.236 358.442C134.038 358.19 133.634 357.825 133.36 357.657C134.868 356.652 135.873 355.274 136.414 354.116L137.64 354.322L137.251 355.045H137.259ZM135.538 357.314C136.155 357.771 136.84 358.335 137.312 358.769C137.564 358.586 137.8 358.396 138.021 358.167C137.503 357.749 136.749 357.193 136.063 356.713L135.53 357.314H135.538ZM139.437 356.02H136.657C137.328 356.454 138.097 356.979 138.668 357.413C138.973 356.995 139.224 356.538 139.437 356.02Z" fill="white"/>
<path d="M162.794 641.719H163.518C163.67 641.719 163.99 641.704 164.157 641.666C164.173 641.902 164.195 642.222 164.226 642.458C164.074 642.511 163.777 642.527 163.525 642.527H162.604C161.766 642.527 161.599 642.161 161.599 641.323V640.767H160.677C160.51 641.94 159.976 642.626 158.415 643.029C158.332 642.778 158.05 642.405 157.859 642.237C159.085 641.971 159.504 641.537 159.657 640.775H158.118V639.823H160.601V638.932H158.636V637.996H160.601V637.143H161.774V637.996H163.769V638.932H161.774V639.823H164.203V640.775H162.573V641.346C162.573 641.643 162.589 641.719 162.779 641.719H162.794ZM159.162 650.066L157.936 649.548C158.59 649.007 159.245 648.025 159.611 647.104L160.883 647.423C160.494 648.383 159.862 649.419 159.169 650.058L159.162 650.066ZM169.404 645.466C169.442 645.52 169.488 645.535 169.557 645.535H169.793C169.876 645.535 169.945 645.52 169.991 645.451C170.029 645.398 170.074 645.253 170.105 645.017C170.12 644.735 170.135 644.149 170.151 643.372C170.356 643.57 170.707 643.745 171.004 643.829C170.973 644.552 170.935 645.436 170.874 645.725C170.79 646.06 170.676 646.266 170.501 646.395C170.333 646.532 170.082 646.593 169.831 646.593H169.229C168.947 646.593 168.643 646.494 168.445 646.296C168.239 646.091 168.163 645.824 168.163 644.842V640.166H167.059C167.005 641.019 166.937 641.796 166.807 642.527C167.325 642.892 167.797 643.235 168.133 643.501L167.546 644.629C167.28 644.392 166.922 644.095 166.51 643.791C166.145 645.032 165.551 646.068 164.569 646.845C164.431 646.624 164.15 646.304 163.914 646.091L158.095 646.692L157.996 645.588C158.72 645.55 159.611 645.466 160.609 645.382V644.293H158.446V643.334H160.609V642.443H161.781V643.334H163.845V644.293H161.781V645.283L164.18 645.063L164.195 645.58C164.85 644.895 165.254 644.042 165.505 643.029L164.302 642.138L164.858 641.179L165.726 641.78C165.795 641.278 165.84 640.745 165.863 640.174H164.492V639.001H165.901L165.932 637.104H167.135L167.097 639.001H169.359V644.865C169.359 645.215 169.359 645.405 169.397 645.466H169.404ZM163.571 649.777L162.261 649.944C162.261 649.32 162.162 648.299 162.01 647.515L163.236 647.401C163.419 648.17 163.54 649.16 163.571 649.777ZM166.868 649.662L165.559 649.914C165.475 649.289 165.17 648.269 164.85 647.5L166.076 647.294C166.427 648.048 166.762 649.038 166.868 649.67V649.662ZM170.707 649.632L169.366 650.081C169.062 649.381 168.315 648.269 167.691 647.454L168.947 647.065C169.587 647.835 170.356 648.924 170.707 649.632Z" fill="#2E59A6"/>
<path d="M177.143 638.346H185.604V639.366H176.556C175.848 640.486 174.98 641.476 174.089 642.184C173.906 641.917 173.434 641.377 173.152 641.125C174.447 640.189 175.62 638.681 176.282 637.104L177.569 637.478C177.44 637.767 177.303 638.064 177.15 638.346H177.143ZM174.264 650.013C174.066 649.723 173.693 649.289 173.426 649.061C174.462 648.611 175.574 647.69 176.16 646.814L177.135 647.187C176.496 648.276 175.338 649.419 174.257 650.005L174.264 650.013ZM180.128 645.466H182.139V646.487H178.651V650.028H177.409V646.487H173.769V645.466H177.409V643.166H178.651V645.466H180.09L179.268 645.116C179.656 644.613 180.151 643.829 180.41 643.288L181.583 643.661C181.08 644.316 180.547 645.002 180.128 645.459V645.466ZM176.678 644.948L175.62 645.382C175.467 644.91 175.049 644.179 174.645 643.669L175.635 643.265C176.069 643.768 176.518 644.469 176.686 644.956L176.678 644.948ZM184.911 648.726C185.162 648.726 185.23 647.918 185.246 646.715C185.512 647.02 185.862 647.355 186.121 647.538C186.022 649.35 185.756 650.035 184.812 650.035C182.801 650.035 182.535 647.187 182.496 642.862H174.668V641.841H183.822C183.791 645.946 183.921 648.718 184.911 648.718V648.726ZM184.469 641.095H176.191V640.105H184.469V641.095ZM182.413 648.954L181.605 649.761C181.065 649.144 179.93 648.185 179.039 647.515L179.808 646.807C180.684 647.423 181.849 648.345 182.42 648.954H182.413Z" fill="#2E59A6"/>
<path d="M190.187 646.882V643.227H188.694V642.016H190.187V639.214H188.595V637.988H192.966V639.214H191.428V642.016H192.738V643.227H191.428V646.517L193.035 646.014L193.202 647.058C194.139 646.304 195.418 645.215 196.606 644.179V640.645H193.271V639.442H196.606V637.097H197.878V639.442H201.45V640.645H197.878V641.163C198.046 642.138 198.244 642.976 198.48 643.73C199.097 642.991 199.752 642.07 200.17 641.354L201.313 641.955C200.574 642.945 199.668 644.08 198.929 644.842C199.546 646.136 200.422 647.119 201.694 647.994C201.389 648.23 201.039 648.649 200.871 649.015C199.493 647.971 198.556 646.837 197.886 645.359V648.482C197.886 649.19 197.718 649.555 197.284 649.776C196.85 649.997 196.18 650.043 195.106 650.043C195.053 649.693 194.824 649.121 194.649 648.771C195.403 648.802 196.089 648.786 196.309 648.786C196.515 648.786 196.614 648.718 196.614 648.482V645.603C195.54 646.692 194.406 647.751 193.484 648.604L192.692 647.446L192.86 647.317L188.717 648.626L188.42 647.355L190.194 646.852L190.187 646.882ZM195.898 643.966L194.809 644.484C194.604 643.798 194.002 642.694 193.431 641.902L194.451 641.445C195.038 642.229 195.662 643.273 195.906 643.973L195.898 643.966ZM200.864 638.65L200.079 639.435C199.744 638.978 199.036 638.346 198.449 637.911L199.188 637.226C199.79 637.615 200.513 638.231 200.864 638.65Z" fill="#2E59A6"/>
<path d="M208.456 639.435V642.687H212.409V637.341H213.764V642.687H216.711V643.959H213.764V650.059H212.409V643.959H208.433C208.304 646.251 207.649 648.505 204.846 650.082C204.648 649.777 204.207 649.297 203.895 649.061C206.362 647.706 206.979 645.84 207.101 643.951H204.032V642.679H207.131V639.831C206.278 640.067 205.425 640.281 204.603 640.471C204.534 640.151 204.321 639.679 204.146 639.382C206.339 638.879 208.753 638.087 210.192 637.234L211.152 638.339C210.368 638.742 209.446 639.108 208.456 639.428V639.435Z" fill="#2E59A6"/>
<path d="M231.79 649.761H219.689V648.505H225.074V645.824H221.083V644.598H230.45V645.824H226.46V648.505H231.79V649.761ZM228.394 642.39H230.64C231.006 642.39 231.592 642.359 231.866 642.306C231.897 642.656 231.935 643.159 231.996 643.479C231.745 643.547 231.189 643.562 230.701 643.562H228.371C226.977 643.562 226.612 643.113 226.612 641.849V639.854H225.089C224.883 642.268 224.129 643.471 220.398 644.027C220.314 643.692 220.017 643.204 219.766 642.938C223.017 642.549 223.573 641.727 223.733 639.854H220.999V641.917H219.705V638.635H225.035C224.868 638.216 224.655 637.759 224.464 637.379L225.843 636.99C226.124 637.493 226.444 638.133 226.65 638.635H231.691V641.598H230.321V639.854H227.907V641.864C227.907 642.252 227.975 642.397 228.394 642.397V642.39Z" fill="#2E59A6"/>
<path d="M162.155 659.661H152.872V660.316C152.872 662.715 152.658 666.248 151.196 668.533C150.945 668.327 150.359 667.977 150.023 667.848C151.417 665.67 151.547 662.547 151.547 660.308V656.188H162.155V659.646V659.661ZM152.872 658.519H160.83V657.331H152.872V658.519ZM160.266 666.309C161.051 666.827 161.995 667.2 163.099 667.429C162.833 667.68 162.482 668.183 162.315 668.518C159.847 667.893 158.172 666.507 157.22 664.39H155.507V666.972L158.24 666.401C158.187 666.721 158.141 667.223 158.141 667.49C154.806 668.282 154.357 668.396 154.082 668.564C154.014 668.259 153.763 667.726 153.58 667.49C153.862 667.322 154.28 666.972 154.28 666.302V664.39H152.91V663.263H155.21V662.022H153.252V660.902H155.21V659.692H156.42V660.902H158.903V659.692H160.144V660.902H162.345V662.022H160.144V663.263H162.939V664.39H161.378L162.315 665.045C161.69 665.502 160.936 665.951 160.266 666.317V666.309ZM156.428 663.248H158.911V662.007H156.428V663.248ZM159.428 665.624C160.068 665.258 160.799 664.771 161.271 664.383H158.469C158.735 664.84 159.055 665.258 159.428 665.624Z" fill="#2E59A6"/>
<path d="M171.4 656.136V660.949H167.462V668.526H166.16V656.136H171.392H171.4ZM170.158 657.095H167.462V658.047H170.158V657.095ZM167.47 658.953V659.974H170.166V658.953H167.47ZM175.657 665.229H173.928V668.259H172.74V665.229H171.049C170.935 666.18 170.478 667.605 169.191 668.48C169.008 668.244 168.62 667.879 168.338 667.696C169.381 667.041 169.793 665.99 169.899 665.229H168.292V664.124H169.937V662.814H168.529V661.756H175.382V662.814H173.92V664.124H175.649V665.229H175.657ZM171.08 662.814V664.124H172.74V662.814H171.08ZM177.248 668.229C176.791 668.45 176.075 668.48 175.002 668.48C174.964 668.115 174.788 667.521 174.613 667.17C175.314 667.186 176.037 667.186 176.258 667.186C176.464 667.17 176.54 667.102 176.54 666.896V660.964H172.504V656.136H177.85V666.912C177.85 667.62 177.697 668.016 177.248 668.237V668.229ZM176.54 657.095H173.76V658.047H176.54V657.095ZM173.76 658.953V659.997H176.54V658.953H173.76Z" fill="#2E59A6"/>
<path d="M189.981 656.593H193.515V657.552H192.708C192.403 658.253 191.954 658.824 191.405 659.311C192.129 659.7 192.966 660.012 193.835 660.187C193.583 660.408 193.263 660.857 193.096 661.162C192.136 660.911 191.238 660.522 190.461 660.004C189.738 660.454 188.9 660.796 188.009 661.063C187.879 660.796 187.537 660.34 187.308 660.126C188.131 659.928 188.9 659.669 189.555 659.319C189.22 659.03 188.915 658.702 188.649 658.36C188.428 658.565 188.214 658.778 187.994 658.946C187.864 658.794 187.613 658.512 187.392 658.306C187.293 659.784 187.194 660.416 186.958 660.682C186.775 660.888 186.554 660.972 186.257 661.002C186.021 661.033 185.572 661.033 185.13 661.002C185.115 660.835 185.092 660.637 185.016 660.461H182.967V660.85H182.061V659.243C181.894 659.41 181.726 659.548 181.528 659.7C181.361 659.464 181.026 659.144 180.805 659.014C181.574 658.481 182.076 657.804 182.366 657.187L183.371 657.354L183.242 657.621H187.43L187.415 657.903C188.169 657.286 188.839 656.448 189.227 655.572L190.354 655.877C190.24 656.113 190.118 656.349 189.974 656.585L189.981 656.593ZM184.034 657.232H182.975V656.829H181.163V656.037H182.975V655.58H184.034V657.24V657.232ZM182.305 668.541L181.201 667.94C181.688 667.483 182.175 666.729 182.488 666.181L183.561 666.698C183.226 667.3 182.769 668.039 182.305 668.541ZM185.397 660.164H185.686C185.823 660.164 185.907 660.164 185.976 660.065C186.105 659.913 186.189 659.464 186.257 658.36H182.8L182.511 658.748H185.397V660.157V660.164ZM190.735 667.391L190.37 667.559C190.72 667.589 190.994 667.589 191.139 667.589C191.306 667.589 191.421 667.574 191.512 667.475C191.664 667.323 191.794 666.942 191.893 666.082H182.777V661.269H192.312V662.076H188.306V662.677H191.779V663.378H188.306V663.98H191.794V664.665H188.306V665.282H193.248C193.248 665.282 193.218 665.571 193.195 665.731C193.027 667.224 192.86 667.909 192.555 668.199C192.35 668.419 192.083 668.503 191.763 668.534C191.481 668.549 190.941 668.549 190.339 668.518C190.339 668.282 190.255 667.947 190.141 667.681L189.821 667.833C189.654 667.483 189.281 666.965 188.946 666.592L189.837 666.226C190.187 666.592 190.56 667.064 190.743 667.399L190.735 667.391ZM182.96 659.875H184.468V659.342H182.96V659.875ZM187.034 662.677V662.076H184.049V662.677H187.034ZM184.049 663.98H187.034V663.378H184.049V663.98ZM184.049 665.274H187.034V664.657H184.049V665.274ZM185.816 668.206L184.689 668.412C184.658 667.94 184.521 667.201 184.338 666.653L185.412 666.47C185.61 667.011 185.778 667.726 185.816 668.199V668.206ZM187.818 656.859H185.991V657.377H184.932V655.58H185.991V656.037H187.818V656.859ZM188.359 667.94L187.316 668.229C187.217 667.81 186.935 667.155 186.676 666.668L187.681 666.417C187.963 666.889 188.237 667.521 188.367 667.94H188.359ZM189.319 657.583C189.608 658.002 190.004 658.375 190.476 658.725C190.88 658.39 191.215 658.002 191.451 657.552H189.326L189.311 657.583H189.319Z" fill="#2E59A6"/>
<path d="M200.232 656.828V664.825H197.787V666.119H196.668V656.821H200.224L200.232 656.828ZM197.795 663.599H199.09V658.047H197.795V663.599ZM203.469 656.592H206.096V655.557H207.307V656.592H208.982V657.613H207.307V659.258H205.426V659.829H208.342V662.525H205.426V663.233H208.38V664.238H205.395C205.365 664.489 205.327 664.726 205.266 664.962H208.921V665.952H204.915C204.329 667.071 203.156 667.977 200.872 668.518C200.735 668.251 200.384 667.764 200.133 667.513C201.907 667.193 202.913 666.637 203.469 665.952H200.567V664.962H204.002C204.07 664.726 204.116 664.489 204.139 664.238H201.192V663.233H204.177V662.525H201.23V659.829H204.177V659.258H202.296V657.613H200.689V656.592H202.296V655.557H203.469V656.592ZM204.184 661.657V660.697H202.372V661.657H204.184ZM203.469 657.613V658.405H206.096V657.613H203.469ZM209.127 667.505L208.51 668.48C207.756 668.008 206.263 667.292 205.144 666.85L205.746 665.982C206.835 666.386 208.358 667.041 209.127 667.505ZM205.426 661.657H207.154V660.697H205.426V661.657Z" fill="#2E59A6"/>
<path d="M216.856 661.215C216.734 665.754 216.635 667.338 216.285 667.818C216.049 668.168 215.798 668.275 215.432 668.336C215.112 668.381 214.595 668.381 214.092 668.366C214.061 668.016 213.94 667.528 213.757 667.209C214.229 667.254 214.633 667.262 214.831 667.262C215.029 667.262 215.128 667.216 215.234 667.064C215.44 666.759 215.569 665.457 215.653 661.87H214.298C214.244 664.003 213.879 666.417 212.356 668.496C212.135 668.26 211.701 667.94 211.381 667.742C212.942 665.579 213.125 663.051 213.125 661.071V659.045H211.701V657.804H214.237C214.122 657.271 213.833 656.494 213.551 655.907L214.694 655.534C214.998 656.136 215.31 656.913 215.447 657.415L214.358 657.804H217.161V659.045H214.298V660.652H216.849C216.849 660.652 216.833 661.04 216.833 661.208L216.856 661.215ZM219.636 657.347H224.297V658.55H219.118C218.714 659.357 218.25 660.073 217.747 660.629C217.511 660.408 216.978 660.004 216.689 659.822C217.709 658.816 218.463 657.225 218.852 655.549L220.123 655.801C219.986 656.334 219.819 656.844 219.636 657.347ZM221.57 660.629C221.685 661.337 221.806 662.038 221.974 662.693C222.507 662.243 223.032 661.718 223.398 661.284L224.335 662.106C223.718 662.708 222.964 663.348 222.309 663.835C222.796 665.297 223.512 666.485 224.502 667.186C224.198 667.437 223.779 667.94 223.596 668.275C221.768 666.866 220.931 664.155 220.474 660.918L219.347 661.17V666.462L221.273 665.655C221.288 666.021 221.372 666.561 221.441 666.843C218.89 667.985 218.456 668.183 218.204 668.419C218.09 668.153 217.747 667.666 217.534 667.468C217.77 667.262 218.075 666.851 218.075 666.173V660.378C219.864 660.004 221.867 659.418 223.032 658.854L224.068 659.776C223.36 660.081 222.492 660.378 221.585 660.629H221.57Z" fill="#2E59A6"/>
<path d="M230.472 657.309V659.487H232.117V660.728H230.472V661.383C230.845 661.703 232.048 662.944 232.33 663.264L231.561 664.307C231.355 663.919 230.891 663.249 230.472 662.685V668.488H229.185V662.807C228.652 664.079 228.027 665.275 227.388 666.074C227.258 665.709 226.954 665.168 226.748 664.848C227.601 663.896 228.477 662.213 229.01 660.721H227.03V659.479H229.193V657.583C228.553 657.697 227.898 657.789 227.296 657.88C227.243 657.598 227.06 657.157 226.916 656.875C228.492 656.623 230.304 656.205 231.371 655.732L232.277 656.753C231.744 656.959 231.134 657.141 230.48 657.309H230.472ZM236.503 662.693V664.269H239.199V665.396H236.503V667.018H239.77V668.191H231.843V667.018H235.194V665.396H232.566V664.269H235.194V662.83C234.303 662.914 233.404 662.967 232.566 663.013C232.528 662.716 232.383 662.274 232.246 662.008C234.44 661.886 237.036 661.604 238.529 661.2L239.352 662.19C238.544 662.396 237.554 662.563 236.503 662.693ZM239.085 660.835H232.696V656.212H239.085V660.835ZM237.806 659.708V657.347H233.929V659.708H237.806Z" fill="#2E59A6"/>
<path d="M275.191 223.908V226.101H276.836V227.343H275.191V227.998C275.564 228.318 276.767 229.559 277.049 229.879L276.28 230.922C276.074 230.534 275.61 229.863 275.191 229.3V235.103H273.904V229.422C273.371 230.694 272.746 231.889 272.107 232.689C271.977 232.323 271.672 231.783 271.467 231.463C272.32 230.511 273.196 228.828 273.729 227.335H271.749V226.094H273.911V224.182C273.272 224.312 272.617 224.403 272.015 224.487C271.962 224.205 271.794 223.764 271.634 223.482C273.196 223.215 274.985 222.812 276.028 222.339L276.935 223.36C276.417 223.566 275.815 223.748 275.191 223.901V223.908ZM284.093 231.044H281.192V231.866H284.139V232.91H281.192V233.801H284.626V234.859H276.196V233.801H279.935V232.91H276.988V231.866H279.935V231.044H277.133V226.467H279.935V225.683H276.584V224.624H279.935V223.84C278.976 223.908 277.993 223.939 277.102 223.954C277.064 223.672 276.919 223.246 276.798 222.964C279.128 222.895 281.946 222.667 283.552 222.324L284.337 223.314C283.446 223.497 282.357 223.649 281.199 223.748V224.624H284.352V225.683H281.199V226.467H284.101V231.044H284.093ZM279.935 228.333V227.396H278.29V228.333H279.935ZM279.935 230.077V229.14H278.29V230.077H279.935ZM281.192 228.333H282.898V227.396H281.192V228.333ZM281.192 230.077H282.898V229.14H281.192V230.077Z" fill="white"/>
<path d="M293.398 234.882C292.812 235.103 291.875 235.133 290.565 235.118C290.482 234.745 290.215 234.143 289.994 233.763C291.068 233.801 292.119 233.801 292.424 233.793C292.728 233.785 292.812 233.709 292.812 233.458V229.65H287.131V228.325H292.812V226.33C293.871 225.843 295.074 225.089 296.01 224.365H288.532V223.071H297.45L297.739 223.002L298.744 223.771C297.541 224.944 295.797 226.185 294.198 227.038V228.333H299.795V229.658H294.198V233.496C294.198 234.303 294 234.699 293.406 234.89L293.398 234.882Z" fill="white"/>
<path d="M249.732 243.343H253.25C253.25 243.343 253.235 243.663 253.219 243.815C253.067 246.023 252.915 246.937 252.603 247.272C252.382 247.539 252.146 247.638 251.818 247.661C251.552 247.699 251.095 247.714 250.592 247.691C250.577 247.425 250.524 247.105 250.409 246.838C249.724 247.425 248.871 248.011 248.033 248.468V249.054H253.745V250.258H248.033V252.253C248.033 252.923 247.896 253.258 247.378 253.456C246.876 253.654 246.137 253.662 245.033 253.662C244.98 253.289 244.766 252.786 244.584 252.436C245.368 252.466 246.19 252.474 246.411 252.451C246.632 252.451 246.701 252.413 246.701 252.23V250.265H241.02V249.062H246.701V248.026C247.272 247.76 247.889 247.387 248.406 246.983H244.119V246.244C243.578 246.899 242.832 247.486 241.834 247.935C241.697 247.63 241.332 247.151 241.042 246.915C243.388 245.94 244.028 244.196 244.294 242.376H241.697V241.233H250.143C250.021 241.904 249.861 242.673 249.724 243.343H249.732ZM250.029 245.772L250.866 246.442L250.683 246.61L251.186 246.625C251.354 246.625 251.453 246.595 251.552 246.503C251.704 246.32 251.818 245.78 251.932 244.455H248.208C248.376 243.884 248.544 243.13 248.665 242.391H245.665C245.467 243.647 245.147 244.835 244.454 245.848H249.754L250.036 245.78L250.029 245.772Z" fill="white"/>
<path d="M266.173 249.694V247.333H259.502V248.628C259.502 250.189 259.266 252.313 257.941 253.707C257.736 253.471 257.157 253.052 256.867 252.915C258.078 251.658 258.223 249.93 258.223 248.605V246.229H267.224C267.011 245.962 266.706 245.642 266.356 245.307C259.32 245.627 258.543 245.642 258.01 245.84C257.956 245.574 257.758 244.949 257.606 244.599C257.972 244.546 258.314 244.294 258.832 243.891C259.03 243.754 259.373 243.457 259.792 243.084H256.57V241.926H260.995C261.429 241.469 261.871 240.966 262.267 240.464L263.607 240.997C263.325 241.317 263.036 241.621 262.739 241.934H268.907V243.091H265.557C266.592 243.845 267.765 244.82 268.374 245.52L267.285 246.244H267.59V252.131C267.59 252.885 267.392 253.189 266.821 253.357C266.28 253.524 265.359 253.509 264.072 253.509C264.033 253.174 263.873 252.717 263.721 252.382C264.544 252.42 265.595 252.42 265.815 252.412C266.082 252.412 266.166 252.329 266.166 252.123V250.669C264.018 251.125 261.795 251.575 260.127 251.895L259.723 250.707C261.269 250.501 263.767 250.105 266.173 249.701V249.694ZM261.551 243.084C260.964 243.617 260.393 244.089 259.822 244.523L265.221 244.34C264.841 244.02 264.437 243.716 264.079 243.449L264.665 243.084H261.551ZM265.298 248.97L264.879 249.892C263.752 249.404 261.596 248.818 259.921 248.567L260.31 247.744C261.97 247.95 264.132 248.483 265.29 248.97H265.298Z" fill="white"/>
<path d="M283.894 243.358H274.04C273.507 243.982 272.935 244.561 272.364 245.018C272.212 244.767 271.824 244.211 271.572 243.96C272.73 243.137 273.872 241.85 274.535 240.51L275.692 240.883C275.471 241.317 275.22 241.759 274.923 242.178H283.894V243.35V243.358ZM282.516 245.467H284.023V246.655H282.516V248.765H284.313V249.968H271.877V248.765H273.925V246.655H272.319V245.467H273.925V244.043H275.098V245.467H276.34V244.043H277.459V245.467H278.837V244.043H279.964V245.467H281.29V244.043H282.5V245.467H282.516ZM273.217 253.616L271.945 253.113C272.448 252.443 273.065 251.339 273.423 250.395L274.695 250.714C274.314 251.674 273.735 252.862 273.217 253.616ZM275.106 246.655V248.765H276.347V246.655H275.106ZM277.383 253.296L276.088 253.494C276.073 252.824 275.974 251.72 275.806 250.867L277.017 250.737C277.215 251.56 277.368 252.649 277.383 253.288V253.296ZM277.459 248.757H278.837V246.648H277.459V248.757ZM280.772 253.182L279.462 253.464C279.348 252.793 279.013 251.674 278.67 250.836L279.911 250.615C280.261 251.438 280.65 252.512 280.779 253.182H280.772ZM279.972 248.757H281.297V246.648H279.972V248.757ZM284.305 253.029L283.003 253.601C282.721 252.877 282.082 251.674 281.541 250.783L282.752 250.311C283.292 251.148 283.978 252.306 284.298 253.029H284.305Z" fill="white"/>
<path d="M291.182 241.157L292.05 241.645C291.662 242.802 291.182 244.196 290.74 245.285C291.677 246.427 291.898 247.432 291.898 248.285C291.898 249.138 291.715 249.709 291.296 250.014C291.098 250.151 290.839 250.25 290.542 250.296C290.276 250.326 289.941 250.326 289.621 250.311C289.621 250.006 289.507 249.504 289.316 249.169C289.598 249.199 289.849 249.214 290.04 249.184C290.192 249.184 290.329 249.138 290.443 249.07C290.641 248.933 290.71 248.567 290.71 248.148C290.71 247.425 290.497 246.488 289.59 245.429C289.941 244.493 290.291 243.305 290.55 242.383H288.806V253.563H287.648V241.195H290.984L291.182 241.157ZM297.472 250.28C298.112 251.202 298.95 251.925 300.001 252.375C299.696 252.626 299.3 253.159 299.11 253.502C296.962 252.413 295.728 250.265 295.051 247.486H293.924V251.811L296.17 251.293C296.155 251.659 296.185 252.2 296.223 252.481C293.406 253.235 292.918 253.403 292.621 253.601C292.522 253.311 292.241 252.794 292.05 252.542C292.301 252.405 292.621 252.07 292.621 251.453V241.226H298.858V247.493H296.178C296.376 248.148 296.612 248.78 296.901 249.351C297.571 248.894 298.34 248.293 298.828 247.813L299.696 248.735C299.011 249.275 298.173 249.862 297.48 250.28H297.472ZM297.587 242.383H293.916V243.792H297.587V242.383ZM293.916 244.881V246.343H297.587V244.881H293.916Z" fill="white"/>
<path d="M315.088 242.924H313.412V251.811C313.412 252.679 313.207 253.106 312.605 253.334C311.988 253.54 310.983 253.57 309.589 253.57C309.505 253.182 309.239 252.527 309.018 252.146C310.092 252.215 311.28 252.199 311.615 252.184C311.92 252.184 312.034 252.085 312.034 251.811V242.924H302.545V241.599H315.088V242.924ZM309.741 250.075H305.203V251.179H303.916V244.774H309.734V250.075H309.741ZM305.203 248.818H308.424V246.023H305.203V248.818Z" fill="white"/>
<path d="M323.671 245.635V252.276C323.671 252.877 323.541 253.167 323.153 253.365C322.734 253.532 322.117 253.548 321.257 253.548C321.188 253.243 321.005 252.778 320.838 252.489C321.439 252.519 322.011 252.519 322.193 252.504C322.376 252.504 322.429 252.451 322.429 252.283V250.41L320.031 251.918L319.68 250.981C319.528 251.941 319.223 252.908 318.66 253.631C318.492 253.38 317.99 252.893 317.738 252.725C318.523 251.651 318.591 250.143 318.591 248.933V245.643H323.671V245.635ZM324.577 244.828L323.435 245.315C323.336 245.049 323.199 244.729 323.031 244.379C319.345 244.729 318.812 244.797 318.454 244.935C318.386 244.683 318.172 244.066 318.035 243.731C318.271 243.678 318.5 243.465 318.774 243.16C319.056 242.878 319.962 241.751 320.503 240.632L321.843 241.035C321.302 241.904 320.64 242.795 319.985 243.503L322.483 243.32C322.247 242.871 321.995 242.429 321.744 242.033L322.833 241.645C323.457 242.635 324.242 243.975 324.577 244.813V244.828ZM322.429 248.735V246.755H319.817V248.963C319.817 249.504 319.787 250.121 319.703 250.737C320.442 250.433 321.417 249.915 322.422 249.397V248.864L321.79 249.504C321.34 249.1 320.48 248.445 319.81 247.996L320.495 247.371C321.135 247.79 321.957 248.361 322.422 248.742L322.429 248.735ZM326.702 245.605H329.047C329.413 245.605 329.999 245.574 330.273 245.506C330.304 245.856 330.342 246.343 330.403 246.633C330.136 246.717 329.595 246.732 329.093 246.732H326.664C325.239 246.732 324.851 246.229 324.851 244.874V240.647H326.146V242.46H329.786V243.602H326.146V244.896C326.146 245.414 326.26 245.597 326.702 245.597V245.605ZM329.908 249.907H326.138V251.766C326.138 252.238 326.268 252.321 326.877 252.321H328.857C329.397 252.321 329.496 252.07 329.557 250.661C329.839 250.867 330.365 251.065 330.73 251.133C330.578 252.976 330.197 253.479 328.971 253.479H326.709C325.217 253.479 324.836 253.091 324.836 251.766V247.189H326.13V248.735H329.9V249.907H329.908Z" fill="white"/>
<path d="M256.921 452.492H259.617C259.077 452.035 258.163 451.418 257.424 451.015L258.231 450.223C259.054 450.642 260.112 451.296 260.645 451.769L259.96 452.492H261.415V453.787H257.005C257.135 455.447 257.371 456.97 257.675 458.226C258.346 457.191 258.886 456.018 259.282 454.723L260.607 455.043C260.006 456.871 259.198 458.478 258.163 459.833C258.62 461.044 259.183 461.76 259.785 461.76C260.15 461.76 260.326 461.037 260.402 459.232C260.706 459.529 261.186 459.833 261.544 459.955C261.323 462.453 260.843 463.108 259.686 463.108C258.643 463.108 257.812 462.316 257.188 460.998C256.396 461.821 255.513 462.537 254.538 463.123C254.34 462.841 253.868 462.301 253.578 462.034C254.751 461.41 255.787 460.595 256.647 459.605C256.145 457.998 255.81 455.98 255.642 453.787H251.134V455.477H254.675C254.675 455.477 254.675 455.843 254.66 456.01C254.606 459.064 254.523 460.267 254.226 460.671C253.974 460.976 253.708 461.09 253.319 461.128C252.954 461.181 252.329 461.181 251.659 461.158C251.644 460.77 251.492 460.252 251.294 459.917C251.88 459.97 252.421 459.97 252.664 459.97C252.862 459.97 252.984 459.955 253.099 459.833C253.251 459.612 253.335 458.813 253.38 456.696H251.134C251.119 458.721 250.882 461.539 249.656 463.321C249.42 463.07 248.834 462.598 248.529 462.43C249.656 460.74 249.755 458.31 249.755 456.482V452.492H255.558C255.528 451.753 255.505 451.015 255.505 450.261H256.883C256.883 451.015 256.899 451.769 256.929 452.492H256.921Z" fill="#2E59A6"/>
<path d="M275.289 451.86H267.895V452.88H274.886V453.916H267.895V454.906H274.886V455.942H267.895V456.947H276.698V458.12H275.106L276.165 458.843C275.327 459.46 274.292 460.069 273.37 460.557C274.36 461.212 275.579 461.676 277.01 461.935C276.728 462.217 276.371 462.758 276.188 463.123C273.005 462.415 270.956 460.739 269.753 458.112H267.62V461.516L271.093 460.747C271.04 461.097 270.994 461.638 270.994 461.92C267.224 462.841 266.57 462.994 266.234 463.176L266.196 463.214C266.097 462.895 265.831 462.24 265.61 461.905C265.907 461.768 266.318 461.448 266.318 460.884V458.105H264.125V456.932H266.539V450.748H275.274V451.852L275.289 451.86ZM272.479 459.841C273.37 459.338 274.406 458.653 275.076 458.112H271.124C271.474 458.767 271.931 459.338 272.479 459.841Z" fill="#2E59A6"/>
<path d="M286.422 457.929H290.847V459.14H286.422V461.455H292.073V462.681H279.5V461.455H285.044V459.14H280.757V457.929H285.044V456.299H286.422V457.929ZM291.654 455.835L290.497 456.642C290.291 456.36 290.009 456.025 289.674 455.682C282.28 456.002 281.442 456.033 280.856 456.223C280.787 455.941 280.574 455.302 280.421 454.936C280.711 454.883 281.023 454.654 281.396 454.296C281.716 454.03 282.523 453.177 283.277 452.187H279.827V450.961H291.608V452.187H284.991C284.267 453.147 283.452 454.045 282.676 454.784L288.539 454.578C288.022 454.121 287.496 453.657 286.994 453.268L288.044 452.56C289.301 453.512 290.893 454.875 291.662 455.842L291.654 455.835Z" fill="#2E59A6"/>
<path d="M298.981 451.442H300.695V452.63H298.981V453.939H297.671V452.63H294.854V451.442H297.671V450.238H298.981V451.442ZM297.169 461.281H300.405V458.128H296.514V454.488H297.869V456.917H300.413V453.749H301.791V456.917H304.319V454.488H305.728V458.128H301.791V461.281H305.157V458.714H306.528V463.169H305.157V462.53H295.821V458.722H297.176V461.288L297.169 461.281ZM307.328 452.614H304.578V453.939H303.269V452.614H301.426V451.426H303.269V450.238H304.578V451.426H307.328V452.614Z" fill="#2E59A6"/>
<path d="M311.768 454.121H313.329V450.245H314.57V463.199H313.329V458.317H311.988V458.515C311.988 459.726 311.836 461.821 310.884 463.245C310.663 463.024 310.184 462.689 309.879 462.536C310.671 461.31 310.785 459.536 310.785 458.477V458.325H310.001V457.122H313.321V455.325H310.557V450.862H311.76V454.144L311.768 454.121ZM319.665 454.761H322.985V456.018H319.665V461.485H322.65V462.742H315.392V461.485H318.34V456.018H315.073V454.761H318.34V450.268H319.665V454.761Z" fill="#2E59A6"/>
<path d="M132.501 269.136C132.196 266.494 131.823 263.844 130.452 261.506C125.106 252.421 117.118 247.455 106.616 246.595C102.869 246.29 99.2444 246.907 95.6195 248.095C92.1088 249.245 89.1311 251.027 86.6409 253.639C83.2444 257.211 80.6704 261.353 78.9722 265.968C77.6776 269.479 77.2511 273.15 78.2792 276.858C78.9874 279.425 80.1907 281.603 82.62 283.019C84.9046 284.352 87.3568 284.923 89.9384 284.969C94.1878 285.037 98.1782 282.928 99.0845 277.886C99.2596 276.896 99.4805 275.914 99.6404 274.916C100.044 272.335 100.189 269.708 101.171 267.24C102.9 262.892 107.164 259.975 111.193 260.333C116.486 260.805 119.707 264.095 120.727 269.22C121.337 272.32 120.59 275.29 119.311 278.123C119.105 278.579 118.61 278.907 118.252 279.295C118.275 278.777 118.153 278.191 118.351 277.757C119.631 274.909 118.458 272.396 115.777 269.708C115.313 269.243 114.787 268.832 114.224 268.497C111.977 267.172 109.556 266.41 106.898 266.943C104.172 267.484 102.473 269.289 102.07 271.985C101.902 273.104 101.78 274.231 101.582 275.343C101.148 277.765 100.828 280.247 99.45 282.364C96.6704 286.644 92.5276 287.573 87.8137 286.994C86.8313 286.873 85.8718 286.591 84.7142 286.34C86.0774 291.602 86.9151 296.894 87.57 302.225C88.1335 306.795 93.3577 309.11 97.1045 306.429C99.5947 304.647 102.07 302.88 104.545 301.113L104.438 300.893C101.978 301.669 99.5186 302.454 97.0436 303.208C96.678 303.322 96.2592 303.261 95.8708 303.284C96.0992 302.903 96.2363 302.309 96.5638 302.164C99.9679 300.664 103.463 299.377 107.256 299.651C109.982 299.849 112.571 299.438 115.054 298.44C120.994 296.057 125.38 291.785 128.625 286.416C131.808 281.138 133.232 275.351 132.508 269.144L132.501 269.136ZM82.5514 265.572C83.016 264.567 83.7242 263.661 84.4172 262.793C84.5619 262.61 85.1407 262.602 85.4148 262.732C85.689 262.861 85.8261 263.272 86.0545 263.608C85.5976 264.651 85.2778 265.687 84.699 266.562C84.4629 266.92 83.5567 267.187 83.1835 267.012C82.8027 266.837 82.3915 265.915 82.5438 265.572H82.5514ZM86.283 280.643C85.6357 280.605 84.9427 280.46 84.3715 280.163C81.5843 278.686 80.0688 274.962 80.9903 271.962C81.1121 271.558 81.3254 271.132 81.63 270.857C81.8813 270.621 82.3763 270.431 82.6657 270.522C82.9398 270.606 83.0769 271.101 83.1911 271.261C83.1226 271.695 83.0998 271.893 83.0541 272.091C82.4905 274.665 83.214 276.782 85.2777 278.442C85.7727 278.838 86.2678 279.257 86.679 279.729C87.0978 280.217 86.9531 280.689 86.283 280.651V280.643ZM110.013 288.441C111.856 286.499 113.698 284.558 115.564 282.638C115.8 282.395 116.204 282.303 116.531 282.143C116.562 282.341 116.562 282.494 116.562 282.585C116.569 283.872 115.8 285.289 110.607 289.431C110.226 289.736 109.921 289.98 109.784 290.079C109.647 289.759 109.388 289.462 109.434 289.218C109.487 288.929 109.784 288.677 110.005 288.441H110.013ZM122.121 291.092C122.022 291.457 121.74 291.8 121.466 292.082C118.732 294.998 115.343 296.735 111.444 297.519C111.315 297.542 111.178 297.565 111.048 297.572C110.85 297.58 110.645 297.572 110.447 297.572C110.447 297.549 110.447 297.527 110.439 297.504C109.876 297.588 109.312 297.747 108.748 297.717C108.299 297.694 107.857 297.458 107.408 297.313C107.781 297.009 108.116 296.559 108.55 296.415C109.845 295.965 111.193 295.661 112.503 295.25C115.237 294.389 117.658 292.973 119.737 290.993C120.126 290.627 120.545 290.269 121.017 290.033C121.261 289.911 121.771 289.934 121.931 290.102C122.129 290.315 122.212 290.779 122.136 291.084L122.121 291.092ZM124.467 286.05C124.139 286.004 123.865 285.525 123.34 285.022C123.994 284.504 124.436 284.154 124.878 283.804C125.144 284.154 125.639 284.512 125.632 284.862C125.624 285.494 125.243 286.149 124.467 286.05Z" fill="white"/>
<path d="M84.4012 310.67C79.733 310.67 76.0395 314.348 76.0547 318.955C76.07 323.548 79.8777 327.249 84.5307 327.15C88.9172 327.058 92.5725 323.334 92.5954 318.948C92.6182 314.348 88.9552 310.662 84.4012 310.67Z" fill="white"/>
<path d="M88.3164 243.761C89.3597 243.807 90.4258 243.746 91.4311 243.51C93.1141 243.122 94.7361 242.467 96.3811 241.926C97.3787 241.599 97.5995 240.73 96.838 240.007C94.8275 238.103 92.5734 236.656 89.4434 236.656C88.225 236.565 87.0217 237.06 86.0317 238.08C85.1407 239.002 84.6686 240.106 85.057 241.385C85.453 242.672 86.976 243.708 88.3164 243.769V243.761Z" fill="white"/>
<path d="M98.9014 238.727C100.805 240.426 103.097 241.362 105.58 241.797C106.022 241.873 106.509 241.659 106.981 241.583C106.837 241.065 106.799 240.494 106.54 240.045C105.641 238.522 104.628 237.067 103.714 235.544C103.318 234.889 103.113 234.12 102.724 233.458C101.864 231.995 100.539 231.234 99.0309 231.066C97.3402 231.089 96.3198 232.171 96.3731 233.755C96.434 235.803 97.4164 237.402 98.9014 238.72V238.727Z" fill="white"/>
<path d="M119.151 271.611C119.265 267.187 116.349 263.432 112.366 262.496C109.586 261.848 105.885 262.892 104.309 265.869C109.495 263.478 116.387 266.402 119.143 271.611H119.151Z" fill="white"/>
<path d="M194.999 625.742C198.439 625.742 201.228 622.953 201.228 619.513C201.228 616.072 198.439 613.283 194.999 613.283C191.559 613.283 188.77 616.072 188.77 619.513C188.77 622.953 191.559 625.742 194.999 625.742Z" fill="#2E59A6"/>
<path d="M194.924 609.445C194.81 609.445 194.688 609.437 194.566 609.43C194.536 609.43 194.497 609.422 194.475 609.422C194.437 609.422 194.391 609.422 194.36 609.415C191.352 609.148 188.755 606.985 187.598 603.886C187.598 603.87 187.583 603.855 187.575 603.832C187.369 603.261 187.202 602.667 187.095 602.05C187.072 601.974 187.065 601.891 187.05 601.814L185.344 590.643C186.242 591.777 187.095 592.737 187.666 593.262C188.26 593.894 188.938 594.397 189.669 594.793L190.461 603.992C190.728 607.069 192.639 609.392 194.924 609.445Z" fill="#84B9DE"/>
<path d="M189.677 594.801C188.946 594.405 188.268 593.902 187.674 593.27C187.095 592.745 186.25 591.785 185.351 590.651L183.714 579.898L182.48 571.833C183.646 573.295 184.742 574.521 185.489 575.207C186.281 576.06 187.187 576.722 188.184 577.248L188.291 578.519L189.685 594.801H189.677Z" fill="#5D97C4"/>
<path d="M185.877 541.867C185.542 543.443 185.42 545.141 185.572 546.885L186.342 555.871L187.514 569.511L188.184 577.24C187.187 576.715 186.281 576.045 185.489 575.199C184.735 574.514 183.638 573.288 182.48 571.826L181.513 565.497L180.318 557.676L178.498 545.728C178.482 545.621 178.467 545.514 178.467 545.415C178.429 545.111 178.406 544.806 178.406 544.509C178.406 542.978 178.84 541.539 179.594 540.374L179.617 540.344C179.906 539.948 180.211 539.567 180.539 539.209C183.95 535.287 188.938 532.766 194.513 532.637C191.444 532.85 188.794 535.013 187.172 538.188C186.6 539.308 186.159 540.557 185.877 541.882V541.867Z" fill="#2E59A6"/>
<path d="M204.725 590.217L203.004 601.488L202.958 601.815C202.905 602.12 202.852 602.417 202.776 602.706C202.334 604.534 201.412 606.118 200.194 607.291C198.785 608.654 196.965 609.453 195.008 609.453C195.16 609.453 195.297 609.446 195.434 609.43C197.559 609.156 199.295 606.917 199.539 604.008L200.339 594.657C200.963 594.261 201.549 593.773 202.113 593.217C203.057 592.326 203.925 591.298 204.725 590.224V590.217Z" fill="#84B9DE"/>
<path d="M207.58 571.49L206.293 579.928L204.717 590.217C203.917 591.29 203.049 592.318 202.104 593.209C201.541 593.773 200.962 594.253 200.33 594.649L201.708 578.611L201.838 577.126C202.729 576.585 203.567 575.915 204.366 575.115C205.524 574.026 206.582 572.792 207.572 571.49H207.58Z" fill="#5D97C4"/>
<path d="M211.548 545.384C211.548 545.491 211.533 545.605 211.517 545.72L209.697 557.653L208.502 565.497L207.588 571.49C206.598 572.792 205.532 574.026 204.382 575.115C203.582 575.915 202.744 576.585 201.853 577.126L202.508 569.51L203.674 555.978L204.45 546.885C204.488 546.382 204.519 545.887 204.519 545.392C204.519 544.174 204.389 542.993 204.146 541.874C203.864 540.541 203.422 539.292 202.851 538.173C201.237 534.997 198.579 532.842 195.51 532.621C201.084 532.751 206.072 535.271 209.484 539.193C209.812 539.559 210.116 539.932 210.405 540.328C210.413 540.343 210.421 540.351 210.428 540.358C211.319 541.752 211.769 543.526 211.555 545.377L211.548 545.384Z" fill="#2E59A6"/>
<path d="M187.582 603.833C185.168 598.822 183.157 591.671 181.467 584.276C182.152 586.195 183.805 588.686 185.351 590.643L187.057 601.815C187.072 601.898 187.079 601.982 187.102 602.051C187.209 602.668 187.376 603.262 187.582 603.833Z" fill="#AAD5ED"/>
<path d="M182.472 571.825C180.362 569.145 178.04 565.657 177.225 563.091C177.11 562.504 177.011 561.933 176.92 561.385C176.615 559.473 176.425 557.729 176.349 556.161V556.138C176.166 555.072 176.067 553.975 176.044 552.848C175.945 548.202 177.263 543.885 179.578 540.366C178.824 541.539 178.39 542.971 178.39 544.501C178.39 544.798 178.405 545.103 178.451 545.408C178.451 545.507 178.466 545.613 178.481 545.72L180.301 557.668L181.497 565.489L182.464 571.818L182.472 571.825Z" fill="#5D97C4"/>
<path d="M185.345 590.643C183.806 588.686 182.146 586.196 181.461 584.277C181.354 583.82 181.255 583.371 181.156 582.914C179.595 575.946 178.323 568.871 177.249 563.251C177.242 563.19 177.234 563.144 177.227 563.091C178.034 565.657 180.356 569.145 182.474 571.826L183.707 579.89L185.345 590.643Z" fill="#84B9DE"/>
<path d="M213.954 552.848C213.931 554.036 213.825 555.201 213.619 556.321C213.528 557.95 213.307 559.778 212.949 561.789C212.865 562.245 212.781 562.695 212.69 563.175C212.462 563.883 212.081 564.637 211.586 565.429C210.405 567.393 209.08 569.518 207.58 571.498L208.494 565.505L209.69 557.661L211.51 545.728C211.525 545.613 211.54 545.499 211.54 545.393C211.753 543.534 211.304 541.768 210.413 540.374C212.728 543.892 214.046 548.218 213.947 552.856L213.954 552.848Z" fill="#5D97C4"/>
<path d="M212.69 563.175C212.69 563.175 212.683 563.236 212.675 563.258C211.586 568.658 210.276 575.854 208.662 583.005C208.555 583.492 208.441 583.972 208.334 584.444C208.159 584.879 207.923 585.328 207.626 585.8C206.766 587.232 205.806 588.77 204.725 590.217L206.301 579.929L207.588 571.491C209.088 569.511 210.413 567.386 211.594 565.421C212.089 564.629 212.469 563.883 212.698 563.167L212.69 563.175Z" fill="#84B9DE"/>
<path d="M208.334 584.444C206.766 591.199 204.938 597.809 202.768 602.706C202.844 602.417 202.897 602.12 202.95 601.815L202.996 601.488L204.717 590.217C205.799 588.762 206.758 587.232 207.619 585.8C207.916 585.328 208.152 584.886 208.327 584.444H208.334Z" fill="#AAD5ED"/>
<path d="M200.339 594.648L199.54 604C199.296 606.909 197.56 609.156 195.435 609.422C195.298 609.438 195.153 609.445 195.009 609.445H194.932C192.648 609.392 190.736 607.069 190.47 603.993L189.678 594.793C191.841 595.966 194.491 596.194 196.829 595.875C198.131 595.737 199.288 595.311 200.339 594.648Z" fill="#5D97C4"/>
<path d="M204.496 545.4C204.496 545.895 204.474 546.39 204.428 546.893L203.651 555.986L202.486 569.518L201.831 577.134C201.001 577.636 200.125 578.017 199.196 578.276C198.632 578.436 198.054 578.55 197.437 578.611C195.244 578.916 192.83 578.84 190.591 578.207C189.745 577.971 188.923 577.652 188.161 577.24L187.491 569.511L186.318 555.871L185.549 546.885C185.397 545.134 185.519 543.436 185.854 541.867C186.136 540.542 186.577 539.293 187.148 538.173C188.763 534.998 191.421 532.843 194.49 532.622C194.657 532.614 194.817 532.606 194.985 532.606C195.152 532.606 195.312 532.614 195.48 532.622C198.549 532.835 201.199 534.998 202.821 538.173C203.392 539.293 203.834 540.542 204.116 541.874C204.352 542.994 204.489 544.174 204.489 545.393L204.496 545.4Z" fill="#003893"/>
<path d="M201.845 577.133L201.716 578.618L200.338 594.656C199.279 595.326 198.129 595.745 196.827 595.882C194.497 596.202 191.839 595.973 189.676 594.801L188.282 578.519L188.176 577.247C188.945 577.658 189.76 577.971 190.605 578.214C192.836 578.846 195.258 578.922 197.451 578.618C198.061 578.549 198.647 578.435 199.21 578.283C200.14 578.016 201.015 577.643 201.845 577.14V577.133Z" fill="#2E59A6"/>
<g opacity="0.46" style="mix-blend-mode:multiply">
<path d="M177.225 563.098C177.019 562.466 176.913 561.888 176.92 561.393C177.012 561.949 177.111 562.512 177.225 563.098Z" fill="#003893"/>
</g>
<g opacity="0.46" style="mix-blend-mode:multiply">
<path d="M212.95 561.788C212.935 562.23 212.851 562.694 212.691 563.174C212.783 562.694 212.867 562.245 212.95 561.788Z" fill="#003893"/>
</g>
<g opacity="0.46" style="mix-blend-mode:multiply">
<path d="M181.467 584.276C181.284 583.774 181.177 583.317 181.162 582.913C181.261 583.37 181.36 583.819 181.467 584.276Z" fill="#003893"/>
</g>
<g opacity="0.46" style="mix-blend-mode:multiply">
<path d="M208.661 582.997C208.646 583.454 208.54 583.934 208.334 584.436C208.441 583.957 208.555 583.477 208.661 582.997Z" fill="#003893"/>
</g>
<path d="M285.768 440.086C290.925 440.086 295.105 435.906 295.105 430.75C295.105 425.593 290.925 421.413 285.768 421.413C280.612 421.413 276.432 425.593 276.432 430.75C276.432 435.906 280.612 440.086 285.768 440.086Z" fill="#2E59A6"/>
<path d="M269.273 407.233C267.125 404.705 264.559 401.194 262.236 396.595C260.629 393.404 259.472 390.35 258.634 387.639V387.601C258.162 386.055 257.789 384.44 257.507 382.742C256.319 375.462 257.385 368.189 260.371 361.876C259.396 364.016 259 366.582 259.335 369.263C259.396 369.773 259.48 370.299 259.617 370.816C259.639 370.984 259.67 371.167 259.723 371.35L264.414 388.972L267.392 400.204L269.265 407.233H269.273Z" fill="#5D97C4"/>
<path d="M270.925 364.618C270.575 367.421 270.582 370.36 271.039 373.3L273.012 386.375L275.852 405.132L277.109 413.395C275.814 412.831 274.611 412.077 273.537 411.141C272.509 410.356 270.955 408.955 269.28 407.234L267.407 400.205L264.429 388.972L259.738 371.35C259.692 371.167 259.654 370.985 259.631 370.817C259.487 370.299 259.41 369.774 259.35 369.264C259.014 366.583 259.41 364.017 260.385 361.877L260.416 361.816C260.812 361.085 261.231 360.376 261.695 359.691C266.752 352.045 275.106 346.867 284.892 346.585C279.515 347.034 275.037 351.497 272.631 357.749C271.808 359.874 271.222 362.197 270.925 364.611V364.618Z" fill="#2E59A6"/>
<path d="M300.777 370.794C300.716 371.631 300.61 372.461 300.48 373.299L298.485 386.519L295.682 405.131L294.441 413.287C292.728 414.148 290.892 414.696 288.851 414.879C285.036 415.328 280.71 415.016 277.093 413.394L275.837 405.131L272.996 386.375L271.024 373.299C270.567 370.359 270.559 367.42 270.909 364.617C271.206 362.203 271.793 359.881 272.615 357.756C275.022 351.504 279.5 347.041 284.876 346.592C285.181 346.577 285.47 346.554 285.759 346.554C286.049 346.554 286.323 346.569 286.628 346.592C292.019 347.041 296.482 351.504 298.896 357.756C299.703 359.881 300.29 362.203 300.602 364.633C300.853 366.636 300.914 368.699 300.769 370.794H300.777Z" fill="#003893"/>
<path d="M311.927 370.779C311.905 370.962 311.851 371.16 311.806 371.35L307.13 388.934L304.129 400.205L302.347 406.907H302.332C300.893 408.422 299.415 409.823 297.839 411.042C296.75 411.94 295.623 412.687 294.443 413.281L295.684 405.125L298.486 386.513L300.482 373.292C300.603 372.454 300.718 371.624 300.779 370.787C300.931 368.692 300.862 366.629 300.611 364.626C300.306 362.197 299.712 359.874 298.905 357.749C296.483 351.497 292.021 347.034 286.637 346.585C296.445 346.867 304.792 352.045 309.833 359.691C310.29 360.369 310.732 361.077 311.113 361.816C311.135 361.846 311.135 361.861 311.143 361.877C312.316 364.42 312.659 367.573 311.912 370.771L311.927 370.779Z" fill="#2E59A6"/>
<path d="M314.02 382.742C313.731 384.524 313.343 386.238 312.817 387.86C312.436 389.086 311.888 390.731 311.149 392.619C310.433 394.439 309.466 396.93 307.981 399.527C306.877 401.453 305.118 404.103 302.354 406.898L304.136 400.197L307.136 388.926L311.812 371.342C311.865 371.144 311.911 370.954 311.934 370.771C312.672 367.572 312.33 364.42 311.165 361.876C314.157 368.189 315.231 375.462 314.028 382.742H314.02Z" fill="#5D97C4"/>
<path d="M203.072 139.849L200.041 127.702C199.789 126.682 198.457 126.431 197.84 127.276L188.382 140.26C187.765 141.105 188.42 142.293 189.463 142.217L201.952 141.372C202.721 141.319 203.254 140.588 203.064 139.841L203.072 139.849Z" fill="#003893"/>
<path d="M188.183 248.78L191.214 236.633C191.466 235.613 192.798 235.361 193.415 236.207L202.874 249.191C203.49 250.036 202.836 251.224 201.792 251.148L189.303 250.303C188.534 250.249 188.001 249.518 188.191 248.772L188.183 248.78Z" fill="#4898C7"/>
<path d="M194.102 491.132L186.022 481.567C185.344 480.768 185.908 479.542 186.958 479.534L203.019 479.458C204.07 479.458 204.649 480.676 203.979 481.484L195.99 491.125C195.503 491.719 194.589 491.719 194.094 491.132H194.102Z" fill="#AAD5ED"/>
<path d="M202.775 352.89L197.353 341.612C196.896 340.668 195.548 340.683 195.114 341.635L188.473 356.264C188.039 357.216 188.915 358.244 189.928 357.962L201.991 354.619C202.729 354.413 203.11 353.583 202.775 352.89Z" fill="#81B7DC"/>
</svg>
