<svg width="330" height="286" viewBox="0 0 330 286" fill="none" xmlns="http://www.w3.org/2000/svg">
<g clip-path="url(#clip0_997_417)">
<path d="M91.0718 284.434C92.1095 284.434 92.2841 284.099 92.4074 282.532C92.6951 282.708 93.1728 282.898 93.5067 282.981C93.3013 284.959 92.9006 285.567 91.1181 285.567H86.4846C84.4452 285.567 83.8391 285.135 83.8391 283.408V275.772H82.1182V277.065C82.1182 280.306 81.8151 283.393 79.7295 285.995C79.5241 285.737 79.108 285.387 78.8203 285.166C80.7621 282.785 81.0035 279.863 81.0035 277.065V275.772H79.1542V274.669H81.0035V271.392H82.1182V274.669H85V283.408C85 284.238 85.2055 284.429 86.5 284.429H91.0718V284.434ZM92.4896 282.321H86.6284V272.577H92.4896V282.321ZM91.3235 273.71H87.738V276.859H91.3235V273.71ZM91.3235 277.977H87.738V281.187H91.3235V277.977Z" fill="#717071"/>
<path d="M109.052 272.483V285.727H107.808V284.753H99.9078V285.794H98.7109V272.483H109.046H109.052ZM99.9078 273.648V277.961H107.808V273.648H99.9078ZM107.808 283.583V279.126H99.9078V283.583H107.808Z" fill="#717071"/>
<path d="M95.4391 239.01C111.485 239.01 124.493 225.961 124.493 209.865C124.493 193.768 111.485 180.72 95.4391 180.72C79.3928 180.72 66.3848 193.768 66.3848 209.865C66.3848 225.961 79.3928 239.01 95.4391 239.01Z" fill="#2E59A6"/>
<path d="M69.6707 232.91L61.5488 241.058L63.928 243.444L72.0499 235.297L69.6707 232.91Z" fill="#5D97C4"/>
<path d="M119.834 233.502L117.455 235.889L125.443 243.901L127.822 241.515L119.834 233.502Z" fill="#5D97C4"/>
<path d="M97.2172 165.333H93.873V176.582H97.2172V165.333Z" fill="#5D97C4"/>
<path d="M61.2119 208.355H49.998V211.71H61.2119V208.355Z" fill="#5D97C4"/>
<path d="M140.104 209.345H128.891V212.699H140.104V209.345Z" fill="#5D97C4"/>
<path d="M96.2308 244.473H92.8867V255.722H96.2308V244.473Z" fill="#5D97C4"/>
<path d="M85.2421 166.135L82.0117 167.003L84.964 178.063L88.1943 177.196L85.2421 166.135Z" fill="#5D97C4"/>
<path d="M61.8155 217.193L50.7891 220.132L51.6505 223.384L62.6769 220.445L61.8155 217.193Z" fill="#5D97C4"/>
<path d="M84.2655 242.559L81.375 253.604L84.6294 254.461L87.5199 243.416L84.2655 242.559Z" fill="#5D97C4"/>
<path d="M105.489 166.271L102.576 177.347L105.82 178.205L108.733 167.129L105.489 166.271Z" fill="#5D97C4"/>
<path d="M51.9629 196.68L51.1133 199.978L62.1346 202.835L62.9842 199.537L51.9629 196.68Z" fill="#5D97C4"/>
<path d="M127.947 217.917L127.076 221.156L138.151 224.154L139.022 220.915L127.947 217.917Z" fill="#5D97C4"/>
<path d="M104.935 242.793L101.703 243.656L104.642 254.72L107.873 253.856L104.935 242.793Z" fill="#5D97C4"/>
<path d="M138.262 197.449L127.23 200.408L128.094 203.649L139.126 200.69L138.262 197.449Z" fill="#5D97C4"/>
<path d="M124.876 226.216L123.197 229.129L133.155 234.903L134.834 231.99L124.876 226.216Z" fill="#5D97C4"/>
<path d="M133.507 186.679L123.561 192.317L125.226 195.274L135.172 189.636L133.507 186.679Z" fill="#5D97C4"/>
<path d="M64.7437 225.563L54.8398 231.234L56.5028 234.157L66.4067 228.485L64.7437 225.563Z" fill="#5D97C4"/>
<path d="M116.499 170.495L110.828 180.468L113.764 182.148L119.435 172.175L116.499 170.495Z" fill="#5D97C4"/>
<path d="M56.9465 185.946L55.2754 188.863L65.1634 194.562L66.8345 191.645L56.9465 185.946Z" fill="#5D97C4"/>
<path d="M112.963 239.12L110.062 240.79L115.761 250.747L118.661 249.077L112.963 239.12Z" fill="#5D97C4"/>
<path d="M74.2892 170.141L71.3184 171.833L76.9376 181.764L79.9084 180.072L74.2892 170.141Z" fill="#5D97C4"/>
<path d="M76.3499 238.653L70.7031 248.58L73.6166 250.248L79.2634 240.321L76.3499 238.653Z" fill="#5D97C4"/>
<path d="M64.5526 177.055L62.2715 179.343L70.259 187.355L72.5401 185.067L64.5526 177.055Z" fill="#5D97C4"/>
<path d="M126.038 177.546L118.051 185.559L120.336 187.85L128.323 179.838L126.038 177.546Z" fill="#5D97C4"/>
<path d="M249.654 272.257C249.638 278.198 249.669 284.717 250.594 284.717C250.784 284.717 250.881 283.66 250.912 282.274C251.118 282.578 251.405 282.929 251.626 283.104C251.513 285.15 251.277 285.964 250.465 285.964C248.539 285.964 248.57 280.321 248.508 273.36H239.924V277.384C239.924 279.955 239.652 283.599 237.854 285.995C237.664 285.773 237.186 285.469 236.914 285.325C238.62 283.057 238.794 279.827 238.794 277.384V272.257H249.659H249.654ZM246.751 281.666C247.563 282.738 248.359 284.191 248.631 285.165L247.676 285.515C247.578 285.15 247.404 284.732 247.198 284.299C244.553 284.49 241.83 284.665 239.95 284.809L239.868 283.738C240.854 283.691 242.159 283.609 243.577 283.516V281.28H240.823V276.936H243.577V275.4H240.597V274.411H247.717V275.4H244.625V276.936H247.445V281.28H244.625V283.454L246.695 283.325C246.422 282.862 246.135 282.382 245.837 281.986L246.746 281.666H246.751ZM243.582 280.342V277.899H241.784V280.342H243.582ZM244.635 277.899V280.342H246.453V277.899H244.635Z" fill="#717071"/>
<path d="M213.438 237.907C204.582 229.018 200.822 215.559 201.279 203.228C203.529 207.953 204.906 213.049 207.49 217.62C216.834 234.161 236.524 243.122 255.196 241.205C257.862 240.932 260.462 240.102 263.107 239.793C259.254 243.792 253.784 246.183 248.4 247.27C235.763 249.826 222.71 247.213 213.438 237.907Z" fill="#2E59A6"/>
<path d="M203.051 180.673L205.66 187.233C212.662 203.949 235.259 220.505 253.788 215.306C271.798 210.256 269.343 185.857 255.175 177.839L247.69 174.556C259.017 171.325 270.385 172.253 278.512 181.487C297.179 202.686 284.311 236.768 255.57 238.68C223.655 240.798 195.921 213.121 203.051 180.678V180.673Z" fill="#5D97C4"/>
<path d="M154.288 123.826C153.712 123.316 152.597 122.61 151.693 122.182L152.346 121.368C153.255 121.77 154.385 122.424 154.955 122.903L154.288 123.831V123.826ZM152.151 130.184C152.788 128.937 153.697 126.83 154.349 125.006L155.258 125.676C154.668 127.335 153.871 129.35 153.188 130.834L152.151 130.179V130.184ZM153.204 116.735C154.144 117.137 155.356 117.838 155.957 118.333L155.258 119.245C154.683 118.735 153.491 117.998 152.536 117.549L153.204 116.735ZM158.079 119.404C157.57 120.445 156.964 121.368 156.373 122.089C156.137 121.899 155.639 121.579 155.335 121.435C156.466 120.219 157.436 118.369 158.012 116.514L159.173 116.802C158.998 117.312 158.793 117.823 158.582 118.322H165.861V119.41H158.073L158.079 119.404ZM164.957 125.284C164.875 126.273 164.813 127.088 164.751 127.747H165.82V128.804H164.608C164.448 129.664 164.289 130.128 164.068 130.401C163.781 130.782 163.447 130.911 162.969 130.957C162.522 131.004 161.726 130.973 160.96 130.927C160.93 130.622 160.817 130.205 160.657 129.922C161.469 129.984 162.219 129.999 162.507 129.999C162.794 129.999 162.953 129.968 163.097 129.777C163.241 129.633 163.354 129.314 163.462 128.804H156.424C156.615 127.861 156.82 126.598 157 125.289H155.536V124.202H157.159C157.303 123.068 157.447 121.935 157.539 120.94H165.152C165.152 120.94 165.137 121.357 165.137 121.497C165.09 122.501 165.039 123.398 165.008 124.197H166.267V125.284H164.962H164.957ZM163.616 127.742C163.698 127.103 163.775 126.304 163.837 125.279H158.089C157.976 126.16 157.853 127.005 157.74 127.742H163.616ZM158.536 121.976C158.438 122.692 158.346 123.444 158.248 124.197H161.592C161.258 123.671 160.508 122.919 159.841 122.409L160.493 121.976C161.161 122.471 161.941 123.223 162.291 123.733L161.623 124.197H163.883C163.929 123.527 163.965 122.805 163.996 121.976H158.536ZM160.113 125.33C160.811 125.871 161.644 126.67 162.039 127.247L161.305 127.742C160.94 127.201 160.128 126.351 159.424 125.758L160.108 125.325L160.113 125.33Z" fill="#717071"/>
<path d="M171.434 123.543C170.941 123.048 169.903 122.296 169.076 121.816L169.759 121.049C170.586 121.497 171.639 122.182 172.163 122.677L171.429 123.538L171.434 123.543ZM169.425 130.36C170.032 129.082 170.889 126.892 171.48 125.042L172.405 125.65C171.881 127.392 171.131 129.438 170.479 130.973L169.425 130.365V130.36ZM171.896 119.384C171.403 118.859 170.432 118.029 169.605 117.498L170.371 116.777C171.182 117.271 172.184 118.039 172.698 118.58L171.901 119.379L171.896 119.384ZM176.165 128.206V131.112H175.081V128.206H172.61V127.134H175.081V125.81H173.217V120.683H175.081V119.358H172.898V118.318H175.081V116.545H176.165V118.318H178.379V119.358H176.165V120.683H178.014V125.81H176.165V127.134H178.425V128.206H176.165ZM174.208 122.806H176.997V121.543H174.208V122.806ZM174.208 124.929H176.997V123.635H174.208V124.929ZM183.254 129.644C183.254 130.283 183.126 130.649 182.73 130.844C182.314 131.051 181.662 131.081 180.644 131.066C180.598 130.762 180.454 130.236 180.326 129.917C181.045 129.948 181.713 129.932 181.903 129.932C182.108 129.932 182.191 129.87 182.191 129.628V125.681H180.038C179.879 127.598 179.463 129.659 178.364 131.128C178.189 130.937 177.742 130.618 177.485 130.489C178.918 128.541 179.062 125.712 179.062 123.476V117.117H183.249V129.644H183.254ZM182.186 124.594V121.909H180.115V123.476C180.115 123.826 180.115 124.213 180.1 124.594H182.186ZM180.115 118.204V120.842H182.186V118.204H180.115Z" fill="#717071"/>
<path d="M156.954 43.0638C159.728 45.3053 163.472 46.5317 167.002 46.7997C175.364 47.4386 183.383 43.8109 191.741 44.3572C204.809 45.2074 218.016 51.5713 222.295 64.7268L219.208 63.0109C208.112 57.9971 195.157 55.7349 183.265 59.275C167.053 64.1033 160.015 79.3252 140.228 78.0576C127.283 77.2279 118.72 67.4631 124.093 54.6219C124.093 54.6219 125.552 56.513 126.62 57.8992C127.447 58.9658 128.382 59.9449 129.461 60.7591C133.401 63.722 138.029 65.3606 143.12 64.8866C143.505 64.8505 146.048 64.3507 146.161 64.2425C146.731 63.6962 145.945 63.7014 145.704 63.5726C140.737 61.0167 137.891 58.9607 136.16 53.2563C132.43 40.9407 140.243 30.0628 152.557 28.3057C152.002 28.3984 152.731 35.3446 152.798 35.8496C153.193 38.9002 154.776 41.2963 156.959 43.0638H156.954Z" fill="#2E59A6"/>
<path d="M201.302 43.1716C201.373 43.759 200.618 43.4498 200.274 43.4035C193.391 42.4965 184.129 37.9877 180.256 32.036C176.701 26.5739 175.817 17.6335 182.069 13.7584C186.415 11.0686 193.082 13.6605 192.322 19.2309C191.978 21.7662 188.603 24.2138 188.012 27.0995C186.456 34.7156 194.993 41.0434 201.302 43.1664V43.1716Z" fill="#5D97C4"/>
<path d="M127.417 34.2153C129.893 33.7567 132.641 35.416 132.923 38.2913C133.165 40.7647 131.531 43.0166 131.1 45.3818C130.047 51.2098 132.507 54.9972 135.821 59.4649C130.684 57.1254 126.559 52.3435 124.525 46.9792C123.266 43.671 122.347 38.7499 124.823 35.7561C125.542 34.8904 126.461 34.3905 127.422 34.2153H127.417Z" fill="#5D97C4"/>
<path d="M198.495 17.9224C200.047 17.7472 202.322 18.8705 203.118 20.2C205.045 23.4103 202.353 26.2341 201.608 29.4135C200.267 35.0972 202.445 38.9774 205.456 43.5275C198.326 40.2863 192.064 29.0992 194.642 21.4573C195.182 19.8547 196.713 18.1285 198.5 17.9224H198.495Z" fill="#5D97C4"/>
<path d="M21.1898 126.005C20.933 125.557 20.2806 124.681 19.7412 124.022V130.86H18.5957V123.795C17.9433 125.408 17.1009 127.005 16.2841 127.979C16.1711 127.644 15.8834 127.18 15.6934 126.892C16.6951 125.774 17.7944 123.712 18.4313 121.888H15.9964V120.77H18.5906V118.343C17.8098 118.503 16.9981 118.632 16.2636 118.745C16.2019 118.472 16.0427 118.09 15.8988 117.817C17.6813 117.529 19.7669 117.065 20.933 116.539L21.76 117.436C21.1847 117.673 20.4861 117.9 19.7361 118.075V120.775H21.7292V121.893H19.7361V122.867C20.2292 123.285 21.5854 124.691 21.9039 125.057L21.1847 126L21.1898 126.005ZM30.4722 129.587V130.576H20.9946V129.587H25.361V128.34H21.9039V127.381H25.361V126.248H22.0785V121.151H25.361V120.08H21.4107V119.106H25.361V118.034C24.2155 118.116 23.034 118.163 21.9707 118.194C21.9552 117.936 21.8114 117.524 21.6984 117.297C24.3439 117.184 27.6418 116.916 29.4243 116.514L30.1435 117.41C29.1418 117.632 27.8678 117.812 26.4963 117.936V119.1H30.1743V120.074H26.4963V121.146H29.8558V126.242H26.4963V127.376H29.938V128.335H26.4963V129.582H30.4774L30.4722 129.587ZM23.1316 123.29H25.361V122.043H23.1316V123.29ZM25.361 125.351V124.073H23.1316V125.351H25.361ZM26.4911 122.043V123.29H28.7822V122.043H26.4911ZM28.7873 124.073H26.4963V125.351H28.7873V124.073Z" fill="#717071"/>
<path d="M47.814 124.568H41.3158V129.329C41.3158 130.128 41.1104 130.494 40.5042 130.669C39.9135 130.875 38.9118 130.89 37.381 130.89C37.2988 130.54 37.0779 130.009 36.8724 129.674C38.1618 129.721 39.3278 129.705 39.6772 129.69C39.9956 129.674 40.1087 129.592 40.1087 129.309V124.563H33.5488V123.383H40.1087V121.084C41.4288 120.476 42.9751 119.487 44.0898 118.559H35.1207V117.395H45.3791L45.636 117.333L46.5298 118.003C45.1736 119.343 43.1394 120.765 41.321 121.692V123.388H47.8192V124.568H47.814Z" fill="#717071"/>
<path d="M292.738 121.198H294.761V122.316H292.738V122.697C293.154 123.192 294.171 124.485 294.412 124.872L293.729 125.799C293.539 125.398 293.123 124.65 292.743 124.011V131.267H291.613V124.589C291.073 126.093 290.385 127.562 289.702 128.469C289.589 128.149 289.27 127.639 289.08 127.335C289.974 126.186 290.929 124.125 291.469 122.316H289.414V121.198H291.613V118.627C291.006 118.755 290.4 118.864 289.815 118.961C289.768 118.688 289.609 118.307 289.465 118.034C291.027 117.73 292.856 117.282 293.909 116.771L294.659 117.73C294.104 117.967 293.446 118.194 292.748 118.369V121.198H292.738ZM303.232 117.781C301.08 118.42 297.736 118.802 294.936 118.998C294.905 118.724 294.762 118.343 294.648 118.07C297.371 117.864 300.669 117.447 302.467 116.89L303.232 117.787V117.781ZM295.969 122.429C295.763 121.775 295.301 120.719 294.869 119.935L295.809 119.616C296.272 120.368 296.749 121.419 296.955 122.043L295.969 122.424V122.429ZM299.328 123.084H303.052V131.138H301.938V130.581H296.22V131.236H295.075V123.713C296.046 123.311 297.145 122.739 297.782 122.29L298.676 123.089C297.957 123.522 297.068 123.903 296.22 124.238V126.201H298.676V127.258H296.22V129.525H301.938V127.258H299.421V126.222H301.938V124.145H299.328V123.089V123.084ZM298.804 121.981C298.676 121.327 298.311 120.239 297.962 119.425L298.902 119.188C299.303 119.987 299.683 121.028 299.826 121.682L298.809 121.986L298.804 121.981ZM300.859 122.079C301.321 121.234 301.927 119.827 302.246 118.838L303.345 119.286C302.852 120.373 302.277 121.667 301.768 122.496L300.859 122.079Z" fill="#717071"/>
<path d="M309.422 123.882C308.846 123.372 307.655 122.604 306.699 122.11L307.398 121.295C308.322 121.728 309.53 122.444 310.151 122.955L309.417 123.882H309.422ZM307.033 130.128C307.768 128.948 308.816 126.948 309.581 125.206L310.521 125.907C309.822 127.52 308.882 129.406 308.086 130.859L307.033 130.122V130.128ZM308.261 117.075C309.139 117.601 310.233 118.42 310.778 118.977L309.951 119.806C309.442 119.229 308.358 118.384 307.48 117.807L308.261 117.07V117.075ZM320.476 126.232C319.742 126.855 318.756 127.494 317.944 127.974C318.822 128.948 319.916 129.684 321.226 130.112C320.954 130.334 320.62 130.797 320.461 131.117C317.785 130.112 316.048 127.938 315.093 125.031H312.751V129.633L315.714 128.69C315.73 129.009 315.812 129.489 315.874 129.746C312.463 130.895 311.954 131.107 311.651 131.359C311.538 131.086 311.204 130.638 311.014 130.432C311.251 130.241 311.569 129.839 311.569 129.107V118.405H315.375C315.185 117.894 314.913 117.302 314.661 116.823L315.73 116.519C316.079 117.111 316.449 117.858 316.608 118.405H319.762V125.036H316.213C316.5 125.82 316.865 126.536 317.327 127.196C318.124 126.701 319.095 126.015 319.701 125.469L320.482 126.237L320.476 126.232ZM312.751 119.456V121.182H318.596V119.456H312.751ZM312.751 123.996H318.596V122.207H312.751V123.996Z" fill="#717071"/>
<path d="M325.161 29.0735C326.804 29.3621 328.422 29.8001 329.974 30.4184C329.994 30.4236 330 30.439 330 30.4545C330.015 30.5679 329.979 30.8667 329.974 31.0007C329.753 34.8139 328.489 39.1476 326.183 42.2187C321.945 47.8715 315.216 48.3817 308.784 46.7585C307.906 46.5369 307.043 46.2741 306.18 46.001C306.195 45.697 306.226 45.3775 306.267 45.0683C307.089 38.6683 309.621 32.0571 316.089 29.6661C318.919 28.62 322.202 28.5427 325.166 29.0632L325.161 29.0735Z" fill="#2E59A6"/>
<path d="M296.21 29.6704C302.677 32.0563 305.21 38.6675 306.032 45.0727C306.073 45.3818 306.104 45.7013 306.119 46.0053C305.256 46.2836 304.393 46.5413 303.515 46.7628C297.083 48.386 290.354 47.8759 286.116 42.2231C283.815 39.1519 282.546 34.8182 282.325 31.0051C282.315 30.8711 282.284 30.5722 282.299 30.4588C282.299 30.4382 282.304 30.4279 282.325 30.4228C283.871 29.7993 285.494 29.3664 287.138 29.0778C290.097 28.5574 293.385 28.6347 296.215 29.6807L296.21 29.6704Z" fill="#5D97C4"/>
<path d="M325.161 49.0462C326.804 49.3347 328.422 49.7727 329.974 50.3911C329.994 50.3962 330 50.4117 330 50.4272C330.015 50.5405 329.979 50.8394 329.974 50.9734C329.753 54.7866 328.489 59.1202 326.183 62.1914C321.945 67.8442 315.216 68.3543 308.784 66.7311C307.906 66.5096 307.043 66.2468 306.18 65.9737C306.195 65.6696 306.226 65.3501 306.267 65.041C307.089 58.641 309.621 52.0297 316.089 49.6387C318.919 48.5927 322.202 48.5154 325.166 49.0359L325.161 49.0462Z" fill="#2E59A6"/>
<path d="M296.21 49.649C302.677 52.0348 305.21 58.646 306.032 65.0512C306.073 65.3603 306.104 65.6798 306.119 65.9839C305.256 66.2621 304.393 66.5198 303.515 66.7413C297.083 68.3645 290.354 67.8544 286.116 62.2016C283.815 59.1304 282.546 54.7968 282.325 50.9836C282.315 50.8496 282.284 50.5507 282.299 50.4374C282.299 50.4167 282.304 50.4064 282.325 50.4013C283.871 49.7778 285.494 49.3449 287.138 49.0564C290.097 48.5359 293.385 48.6132 296.215 49.6593L296.21 49.649Z" fill="#5D97C4"/>
<path d="M325.161 69.0237C326.804 69.3123 328.422 69.7503 329.974 70.3686C329.994 70.3738 330 70.3892 330 70.4047C330.015 70.5181 329.979 70.8169 329.974 70.9509C329.753 74.7641 328.489 79.0978 326.183 82.1689C321.945 87.8217 315.216 88.3319 308.784 86.7087C307.906 86.4871 307.043 86.2243 306.18 85.9512C306.195 85.6472 306.226 85.3277 306.267 85.0185C307.089 78.6185 309.621 72.0073 316.089 69.6163C318.919 68.5702 322.202 68.4929 325.166 69.0134L325.161 69.0237Z" fill="#2E59A6"/>
<path d="M296.21 69.6265C302.677 72.0123 305.21 78.6236 306.032 85.0287C306.073 85.3379 306.104 85.6574 306.119 85.9614C305.256 86.2397 304.393 86.4973 303.515 86.7189C297.083 88.3421 290.354 87.8319 286.116 82.1791C283.815 79.1079 282.546 74.7743 282.325 70.9611C282.315 70.8271 282.284 70.5283 282.299 70.4149C282.299 70.3943 282.304 70.384 282.325 70.3788C283.871 69.7553 285.494 69.3225 287.138 69.0339C290.097 68.5134 293.385 68.5907 296.215 69.6368L296.21 69.6265Z" fill="#5D97C4"/>
<path d="M302.307 6.8016C300.226 9.12559 298.531 12.0319 297.997 15.0154C296.862 21.369 301.018 26.5529 306.118 30.3661V3.30273C304.716 4.33848 303.447 5.52366 302.307 6.79645V6.8016Z" fill="#5D97C4"/>
<path d="M314.241 15.0161C313.706 12.0326 312.016 9.12629 309.931 6.80231C308.785 5.52437 307.516 4.33919 306.119 3.30859V30.372C311.22 26.5588 315.376 21.3749 314.241 15.0213V15.0161Z" fill="#2E59A6"/>
<path d="M36.5029 55.2601C30.8112 54.2604 24.4928 54.4047 19.0528 56.4144C6.62147 61.0057 1.74655 73.718 0.169518 86.0233C0.0924643 86.6159 0.0308214 87.2291 0 87.8166C1.65408 88.3473 3.31844 88.8523 5.00335 89.2749C17.373 92.3976 30.3077 91.4133 38.46 80.5457C42.888 74.6404 45.3229 66.3081 45.7493 58.9754C45.7596 58.8054 45.7904 58.5013 45.8007 58.2488L41.1466 56.301C39.6158 55.8785 38.0645 55.5332 36.4977 55.2601H36.5029Z" fill="#2E59A6"/>
<path d="M45.8008 58.2493H45.8111V58.2441L45.8008 58.2493Z" fill="#5D97C4"/>
<path d="M48.4764 49.0615C52.0208 34.0716 45.8052 11.3315 45.8052 11.3315C54.9591 20.3286 53.9729 38.6732 52.7862 47.8661C57.091 46.1244 60.7998 42.8368 62.8083 38.1063C64.185 34.8703 64.7501 31.727 64.6782 28.7073C64.3751 16.4123 53.3872 6.20948 42.6871 0.262952C41.5518 -0.36571 40.1238 0.175351 39.6563 1.39145C39.0553 2.96311 38.2847 4.7821 38.1923 4.99853C37.0313 7.75537 34.9766 9.92477 33.2557 12.326C27.7489 20.0246 24.4665 30.9901 29.1667 39.8738C32.3105 45.8203 38.0125 48.8657 43.9251 49.2625C43.1134 51.9678 41.9576 54.5958 41.1357 56.3015L45.7898 58.2493H45.8L48.4712 49.0615H48.4764Z" fill="#5D97C4"/>
</g>
<defs>
<clipPath id="clip0_997_417">
<rect width="330" height="286" fill="white"/>
</clipPath>
</defs>
</svg>
